<svg width="689" height="534" viewBox="0 0 689 534" fill="none" xmlns="http://www.w3.org/2000/svg">
<path d="M13.9364 388.817C-11.87 406.022 -3.26787 438.71 51.7859 454.194C108.56 473.118 170.496 478.28 230.711 467.957C234.151 467.957 237.592 466.237 239.313 466.237V407.742L180.818 426.667C158.453 433.548 136.087 435.269 113.721 430.108C96.5171 424.946 99.9579 414.624 120.603 406.022L239.313 364.731V301.075L74.1515 357.849C53.5063 364.731 32.8612 375.054 13.9364 388.817ZM413.076 130.753V297.634C483.614 332.043 538.668 297.634 538.668 208.172C538.668 116.989 505.979 75.6989 411.356 43.0108C361.463 25.8065 309.85 10.3226 258.238 0V497.204L378.668 533.333V115.269C378.668 96.3441 378.668 82.5806 392.431 87.7419C411.356 92.9032 413.076 111.828 413.076 130.753ZM636.732 349.247C586.84 332.043 533.506 325.161 481.893 330.323C454.367 332.043 428.56 338.925 404.474 347.527L399.313 349.247V416.344L511.141 375.054C533.506 368.172 555.872 366.452 578.238 371.613C595.442 376.774 592.001 387.097 571.356 395.699L399.313 459.355V524.731L636.732 436.989C653.936 430.108 669.42 421.505 683.184 407.742C695.227 390.538 690.066 366.452 636.732 349.247Z" fill="white" fill-opacity="0.109804"/>
</svg>
