<svg width="534" height="534" viewBox="0 0 534 534" fill="none" xmlns="http://www.w3.org/2000/svg">
<path d="M239.941 532.238C198.879 528.304 157.309 513.559 121.599 490.259C91.6758 470.744 84.9229 462.708 84.9229 446.694C84.9229 414.522 120.298 358.163 180.826 293.931C215.191 257.44 263.068 214.693 268.241 215.845C278.315 218.094 358.791 296.595 388.925 333.556C436.567 391.977 458.461 439.829 447.334 461.16C438.878 477.373 386.391 509.068 347.838 521.241C316.056 531.278 274.319 535.528 239.941 532.238ZM44.505 413.245C19.6371 375.095 7.0731 337.539 1.01412 283.219C-0.993154 265.284 -0.286892 255.03 5.55525 218.206C12.8223 172.361 38.9478 119.267 70.3578 86.618C83.7272 72.7406 84.9167 72.3689 101.223 77.8827C120.986 84.5736 142.112 99.1697 174.885 128.808L194.028 146.117L183.558 158.942C135.061 218.478 83.8759 302.92 64.6086 355.146C54.1386 383.52 49.9258 412.019 54.4484 423.883C57.4841 431.899 54.6962 428.913 44.474 413.264L44.505 413.245ZM480.981 419.732C483.44 407.738 480.33 385.72 473.051 363.504C457.284 315.397 404.568 225.906 356.165 165.056L340.924 145.901L357.416 130.766C378.938 111.003 393.881 99.1697 410.014 89.1147C422.733 81.1848 440.916 74.1655 448.734 74.1655C453.548 74.1655 470.517 91.8221 484.208 111.027C505.421 140.765 521.021 176.883 528.926 214.427C534.037 238.712 534.465 290.628 529.75 314.852C525.847 334.726 517.669 360.486 509.739 377.963C503.73 391.054 488.923 416.485 482.418 424.762C479.073 429.019 479.073 429.012 480.931 419.831L480.981 419.732ZM244.34 65.0833C222 53.7459 187.541 41.5722 168.51 38.2887C161.843 37.1426 150.463 36.4921 143.233 36.8638C127.522 37.6568 128.222 36.839 153.412 24.9379C174.352 15.044 191.822 9.22665 215.55 4.24564C242.221 -1.36108 292.372 -1.42303 318.621 4.10935C346.965 10.0878 380.351 22.5093 399.16 34.0945L404.76 37.5267L391.936 36.8824C366.436 35.5937 329.277 45.8965 289.379 65.3001C277.348 71.1608 266.891 75.8321 266.122 75.7082C265.36 75.5595 255.553 70.7829 244.315 65.0833H244.34Z" fill="white" fill-opacity="0.109804"/>
</svg>
