<svg width="536" height="90" viewBox="0 0 536 107" fill="none" xmlns="http://www.w3.org/2000/svg">
<path d="M481.935 4H53.7398C26.2693 4 4 26.2553 4 53.7087C4 81.162 26.2693 103.417 53.7398 103.417H481.935C509.406 103.417 531.675 81.162 531.675 53.7087C531.675 26.2553 509.406 4 481.935 4Z" stroke="url(#paint0_radial_1116_10338)" stroke-width="7"/>
<path d="M53.7398 7.75H481.935C507.337 7.75 527.925 28.3286 527.925 53.7087C527.925 79.0887 507.337 99.6673 481.935 99.6673H53.7398C28.3381 99.6673 7.75 79.0887 7.75 53.7087C7.75 28.3286 28.3381 7.75 53.7398 7.75Z" stroke="url(#paint1_linear_1116_10338)" stroke-width="7.5"/>
<path d="M58.4582 27.1843L71.4338 48.1089H71.827L84.8026 27.1843H91.9785L76.1522 52.3333L91.9785 77.4824H84.8026L71.827 56.9505H71.4338L58.4582 77.4824H51.2823L67.5018 52.3333L51.2823 27.1843H58.4582Z" fill="white"/>
<path d="M154.203 53.2177V58.6208H132.183V53.2177H154.203Z" fill="white"/>
<path d="M225.765 39.7588C225.47 37.2701 224.274 35.3381 222.177 33.9628C220.08 32.5874 217.508 31.8998 214.46 31.8998C212.232 31.8998 210.283 32.26 208.612 32.9804C206.957 33.7008 205.663 34.6914 204.729 35.9521C203.811 37.2128 203.352 38.6454 203.352 40.25C203.352 41.5926 203.672 42.7469 204.311 43.7129C204.966 44.6626 205.802 45.4566 206.817 46.095C207.833 46.7175 208.898 47.2332 210.012 47.6425C211.127 48.0354 212.15 48.3548 213.084 48.6004L218.196 49.9758C219.507 50.3194 220.965 50.7945 222.57 51.4C224.192 52.0061 225.74 52.8325 227.215 53.8807C228.706 54.9121 229.934 56.2382 230.901 57.8591C231.868 59.4801 232.351 61.4697 232.351 63.8272C232.351 66.5452 231.638 69.0012 230.213 71.1953C228.804 73.389 226.74 75.1327 224.02 76.4264C221.317 77.7197 218.032 78.3663 214.166 78.3663C210.561 78.3663 207.44 77.7854 204.802 76.6227C202.181 75.4603 200.117 73.8394 198.609 71.7598C197.119 69.6807 196.275 67.2658 196.078 64.5149H202.369C202.533 66.4142 203.172 67.9859 204.286 69.2303C205.417 70.4583 206.842 71.3751 208.563 71.9812C210.299 72.5703 212.167 72.8651 214.166 72.8651C216.492 72.8651 218.581 72.4886 220.432 71.7356C222.283 70.9658 223.75 69.9016 224.831 68.5426C225.912 67.1672 226.453 65.5627 226.453 63.7291C226.453 62.0589 225.986 60.6999 225.052 59.6521C224.118 58.6043 222.89 57.7528 221.366 57.0979C219.842 56.4431 218.196 55.8699 216.426 55.3789L210.233 53.6106C206.301 52.4807 203.189 50.8679 200.895 48.7724C198.601 46.6764 197.455 43.9338 197.455 40.5447C197.455 37.7286 198.216 35.2726 199.74 33.1768C201.28 31.0647 203.344 29.4274 205.933 28.2649C208.538 27.0861 211.446 26.4966 214.657 26.4966C217.901 26.4966 220.784 27.0778 223.307 28.2403C225.831 29.3865 227.829 30.9583 229.304 32.9558C230.795 34.9533 231.581 37.221 231.663 39.7588H225.765ZM239.619 32.5874V27.1843H277.366V32.5874H261.54V77.4824H255.445V32.5874H239.619ZM282.957 77.4824H276.568L295.048 27.1843H301.339L319.82 77.4824H313.43L298.39 35.1416H297.997L282.957 77.4824ZM285.316 57.8345H311.071V63.2376H285.316V57.8345ZM319.027 32.5874V27.1843H356.774V32.5874H340.948V77.4824H334.853V32.5874H319.027ZM372.275 27.1843V77.4824H366.18V27.1843H372.275ZM426.961 52.3333C426.961 57.6383 426.002 62.2227 424.085 66.0866C422.168 69.9509 419.539 72.9308 416.197 75.0264C412.855 77.1223 409.037 78.1701 404.745 78.1701C400.452 78.1701 396.635 77.1223 393.293 75.0264C389.951 72.9308 387.321 69.9509 385.404 66.0866C383.487 62.2227 382.529 57.6383 382.529 52.3333C382.529 47.0283 383.487 42.444 385.404 38.58C387.321 34.7159 389.951 31.736 393.293 29.6403C396.635 27.5445 400.452 26.4966 404.745 26.4966C409.037 26.4966 412.855 27.5445 416.197 29.6403C419.539 31.736 422.168 34.7159 424.085 38.58C426.002 42.444 426.961 47.0283 426.961 52.3333ZM421.062 52.3333C421.062 47.9779 420.334 44.3025 418.876 41.3061C417.434 38.3098 415.476 36.0421 413.002 34.5031C410.544 32.964 407.792 32.1945 404.745 32.1945C401.698 32.1945 398.937 32.964 396.463 34.5031C394.006 36.0421 392.048 38.3098 390.59 41.3061C389.148 44.3025 388.427 47.9779 388.427 52.3333C388.427 56.6886 389.148 60.3645 390.59 63.3608C392.048 66.3567 394.006 68.6247 396.463 70.1636C398.937 71.7028 401.698 72.4722 404.745 72.4722C407.792 72.4722 410.544 71.7028 413.002 70.1636C415.476 68.6247 417.434 66.3567 418.876 63.3608C420.334 60.3645 421.062 56.6886 421.062 52.3333ZM477.117 27.1843V77.4824H471.221L443.795 37.9905H443.302V77.4824H437.208V27.1843H443.108L470.629 66.7743H471.122V27.1843H477.117Z" fill="white"/>
<defs>
<radialGradient id="paint0_radial_1116_10338" cx="0" cy="0" r="1" gradientUnits="userSpaceOnUse" gradientTransform="translate(1.83738 105.578) rotate(-11.0342) scale(542.022 3594.94)">
<stop stop-color="#1866CC"/>
<stop offset="0.539434" stop-opacity="0"/>
<stop offset="1" stop-color="#1B7A18"/>
</radialGradient>
<linearGradient id="paint1_linear_1116_10338" x1="409.272" y1="40.4729" x2="106.939" y2="39.2962" gradientUnits="userSpaceOnUse">
<stop stop-color="white" stop-opacity="0"/>
<stop offset="0.11334" stop-color="white" stop-opacity="0"/>
<stop offset="0.276211" stop-color="white" stop-opacity="0.35"/>
<stop offset="0.398751" stop-color="white"/>
<stop offset="0.591094" stop-color="white"/>
<stop offset="0.7338" stop-color="white" stop-opacity="0.35"/>
<stop offset="0.862545" stop-color="white" stop-opacity="0"/>
<stop offset="1" stop-color="white" stop-opacity="0"/>
</linearGradient>
</defs>
</svg>
