<?xml version="1.0" encoding="UTF-8" ?>
<!DOCTYPE svg PUBLIC "-//W3C//DTD SVG 1.1//EN" "http://www.w3.org/Graphics/SVG/1.1/DTD/svg11.dtd">
<svg width="1724pt" height="430pt" viewBox="0 0 1724 430" version="1.1" xmlns="http://www.w3.org/2000/svg">
<g id="#fdfdfdff">
<path fill="#fdfdfd" opacity="1.00" d=" M 205.34 42.59 C 207.84 41.54 210.55 41.80 213.14 42.38 C 232.32 46.60 251.36 51.52 270.11 57.36 C 278.07 59.70 286.21 61.40 294.14 63.86 C 304.06 66.66 313.22 72.01 323.55 73.28 C 327.87 74.06 330.84 77.89 335.12 78.81 C 341.87 80.18 347.72 84.01 353.53 87.52 C 365.72 95.27 377.65 104.08 386.05 116.01 C 397.32 131.64 401.84 151.08 402.72 170.06 C 403.63 188.28 402.83 207.23 395.44 224.19 C 390.24 236.23 380.53 246.72 367.91 250.97 C 355.55 254.61 342.25 254.64 329.77 251.53 C 324.16 249.96 318.96 247.30 313.63 245.01 C 313.50 206.34 313.75 167.67 313.22 129.00 C 312.63 123.04 313.06 116.80 310.89 111.13 C 307.52 103.54 297.85 101.91 290.56 103.72 C 287.09 105.95 285.35 110.09 284.10 113.88 C 281.52 127.11 282.79 140.67 281.85 154.04 C 281.49 231.01 282.07 308.00 280.72 384.97 C 280.37 392.38 280.70 399.85 279.64 407.21 C 267.41 403.82 255.36 399.75 243.13 396.36 C 231.17 392.18 218.88 388.94 207.07 384.34 C 206.17 378.63 206.63 372.81 205.87 367.10 C 205.07 324.08 205.11 281.05 205.03 238.03 C 204.97 180.03 205.02 122.04 205.00 64.05 C 205.18 56.90 204.61 49.71 205.34 42.59 Z" />
<path fill="#fdfdfd" opacity="1.00" d=" M 1368.98 115.79 C 1392.98 114.64 1417.00 114.66 1441.02 114.49 C 1508.71 114.41 1576.39 114.18 1644.07 114.92 C 1656.25 115.61 1668.53 114.88 1680.65 116.55 C 1684.24 121.73 1683.61 128.45 1682.13 134.25 C 1676.07 136.64 1669.40 136.19 1663.02 136.51 C 1585.96 137.91 1508.87 136.54 1431.81 137.87 C 1424.11 138.71 1416.27 137.94 1408.66 139.58 C 1406.27 147.80 1406.74 156.53 1406.43 165.01 C 1406.33 174.34 1406.37 183.71 1407.65 192.97 C 1408.59 199.09 1412.57 204.65 1417.99 207.58 C 1424.87 208.94 1431.95 208.26 1438.89 209.15 C 1494.28 210.20 1549.68 209.70 1605.08 210.07 C 1617.74 210.37 1630.48 210.13 1643.04 211.99 C 1649.01 212.75 1655.00 214.47 1659.96 218.01 C 1667.46 223.37 1674.95 229.08 1680.31 236.70 C 1692.51 253.23 1695.14 276.13 1687.23 295.06 C 1681.75 309.14 1670.29 319.81 1657.77 327.73 C 1650.93 331.81 1642.80 332.09 1635.15 333.16 C 1609.12 334.64 1583.03 334.14 1556.98 334.22 C 1491.50 334.03 1426.03 333.68 1360.56 333.44 C 1360.53 328.26 1359.66 323.10 1359.89 317.93 C 1360.31 316.22 1360.01 313.91 1361.68 312.81 C 1369.03 311.77 1376.52 312.80 1383.89 311.87 C 1450.26 311.09 1516.65 311.27 1583.03 310.45 C 1595.11 310.12 1607.36 310.52 1619.28 308.20 C 1625.22 305.66 1630.30 301.32 1634.67 296.61 C 1640.56 290.32 1643.07 281.48 1642.76 272.99 C 1642.96 264.90 1641.19 256.45 1636.17 249.94 C 1632.55 245.12 1627.72 241.40 1622.77 238.05 C 1618.72 235.29 1613.64 235.20 1608.95 234.68 C 1583.34 233.22 1557.66 233.50 1532.02 233.11 C 1482.49 232.45 1432.94 232.27 1383.45 231.47 C 1378.10 227.90 1372.55 224.51 1367.73 220.22 C 1361.12 213.82 1361.29 203.85 1360.61 195.33 C 1360.19 173.86 1359.44 152.39 1359.88 130.91 C 1360.45 126.53 1359.91 121.93 1361.45 117.72 C 1363.50 115.94 1366.43 116.18 1368.98 115.79 Z" />
<path fill="#fdfdfd" opacity="1.00" d=" M 635.79 116.53 C 641.79 115.39 647.92 115.50 654.00 115.27 C 681.99 114.53 710.01 114.69 738.02 114.74 C 765.34 114.92 792.67 114.63 819.99 115.12 C 854.01 115.19 888.03 115.36 922.05 115.44 C 925.39 115.34 927.98 117.91 930.92 119.14 C 943.95 125.67 955.15 136.09 961.81 149.12 C 964.44 154.76 965.30 161.00 965.99 167.12 C 966.59 172.05 966.55 177.06 966.06 182.00 C 965.33 188.16 964.39 194.54 960.87 199.82 C 953.88 212.30 943.34 223.25 929.87 228.57 C 927.72 229.46 925.40 229.71 923.15 230.20 C 882.11 231.75 841.05 232.09 799.99 232.69 C 768.90 233.08 737.81 233.49 706.73 233.69 C 701.91 237.15 696.90 240.41 692.58 244.50 C 688.40 248.53 686.67 254.33 686.03 259.95 C 683.98 276.24 684.78 292.71 683.80 309.06 C 683.77 317.19 683.40 325.31 683.18 333.43 C 666.87 333.43 650.56 333.43 634.25 333.44 C 634.08 309.68 632.14 285.78 635.00 262.12 C 636.16 254.78 638.17 247.46 641.99 241.02 C 650.86 225.80 666.27 214.99 682.91 209.94 C 737.94 209.83 792.97 210.05 847.99 209.78 C 858.27 209.42 868.61 209.87 878.84 208.82 C 887.02 208.24 896.00 208.02 902.76 202.72 C 907.54 198.82 912.40 194.61 915.01 188.87 C 918.97 181.53 919.16 172.76 917.25 164.79 C 914.27 155.19 907.63 146.71 898.52 142.28 C 888.54 137.00 876.89 139.25 866.12 137.87 C 809.08 136.99 752.02 137.29 694.97 137.07 C 678.30 136.58 661.60 136.92 644.94 136.10 C 641.54 135.70 637.91 135.88 634.83 134.18 C 632.86 128.52 632.29 121.72 635.79 116.53 Z" />
<path fill="#fdfdfd" opacity="1.00" d=" M 1161.02 115.69 C 1210.51 114.86 1260.01 115.49 1309.50 115.46 C 1309.49 122.40 1309.51 129.34 1309.48 136.28 C 1282.98 136.58 1256.50 137.23 1230.00 137.75 C 1226.70 137.80 1223.40 137.64 1220.14 138.15 C 1206.33 138.65 1192.45 138.61 1178.70 140.08 C 1170.16 143.33 1163.89 150.45 1157.52 156.72 C 1156.09 157.75 1156.20 159.58 1155.89 161.12 C 1155.44 188.52 1155.01 215.93 1154.38 243.32 C 1154.24 247.18 1154.53 251.07 1153.87 254.89 C 1153.55 266.59 1153.12 278.29 1152.18 289.95 C 1151.55 296.43 1147.73 301.93 1144.27 307.23 C 1140.42 312.63 1136.42 318.07 1131.22 322.24 C 1125.51 326.31 1119.45 330.28 1112.50 331.75 C 1099.85 334.43 1086.85 333.93 1074.00 334.29 C 1033.56 334.53 993.12 334.38 952.67 334.42 C 953.18 326.84 951.29 318.64 954.62 311.54 C 989.43 311.33 1024.25 311.24 1059.05 310.64 C 1066.44 310.37 1073.91 310.62 1081.18 309.06 C 1085.57 308.20 1089.14 305.27 1092.41 302.39 C 1098.00 297.20 1102.64 290.94 1106.02 284.11 C 1106.34 253.09 1105.90 222.06 1106.30 191.04 C 1106.47 178.46 1106.51 165.67 1109.60 153.41 C 1112.00 143.60 1119.45 136.30 1126.69 129.76 C 1136.16 121.54 1148.20 115.36 1161.02 115.69 Z" />
<path fill="#fdfdfd" opacity="1.00" d=" M 153.47 260.15 C 163.43 257.08 172.87 252.42 182.97 249.85 C 186.20 248.88 186.67 252.98 187.28 255.16 C 188.07 266.38 188.02 277.68 187.10 288.89 C 186.75 290.87 186.25 293.05 184.19 293.91 C 175.44 298.64 165.76 301.34 156.20 303.90 C 153.47 304.68 150.83 305.77 148.41 307.28 C 144.07 309.94 138.89 310.41 134.19 312.15 C 124.51 315.43 115.02 319.24 105.25 322.27 C 101.49 323.84 96.68 325.63 95.58 330.02 C 95.02 334.44 99.76 336.67 103.23 337.90 C 112.69 340.85 122.90 340.97 132.62 339.31 C 149.27 336.24 164.77 329.15 180.82 324.04 C 183.44 323.01 186.32 323.93 187.44 326.60 C 188.04 334.72 187.87 342.88 187.72 351.01 C 187.64 354.75 186.91 359.21 183.45 361.35 C 178.89 364.22 173.20 363.95 168.03 364.51 C 142.33 365.54 116.38 366.50 90.89 362.33 C 77.83 360.28 65.51 355.36 52.80 351.92 C 41.98 348.47 31.13 343.11 24.19 333.81 C 21.77 330.19 19.82 325.50 21.48 321.16 C 23.38 314.95 28.49 310.46 33.54 306.72 C 43.13 299.89 54.00 295.15 64.90 290.87 C 83.30 284.36 101.70 277.86 120.21 271.67 C 131.46 268.31 142.23 263.53 153.47 260.15 Z" />
<path fill="#fdfdfd" opacity="1.00" d=" M 340.90 271.88 C 354.47 269.60 368.23 268.62 381.98 268.46 C 399.97 268.17 418.11 268.59 435.81 272.15 C 455.14 275.76 474.45 281.08 491.80 290.55 C 499.34 294.76 507.28 300.86 508.43 310.06 C 509.18 318.13 502.86 324.43 496.92 328.90 C 481.68 339.81 463.37 344.83 446.07 351.42 C 438.69 354.02 431.46 357.06 423.92 359.19 C 411.66 362.74 399.86 367.61 387.86 371.90 C 376.41 376.33 364.52 379.48 353.06 383.88 C 341.08 387.91 329.53 393.35 317.15 396.11 C 312.18 396.41 309.03 401.34 303.94 400.82 C 302.35 400.79 300.30 401.04 299.63 399.16 C 298.21 393.89 298.89 388.38 298.71 383.00 C 298.86 375.32 298.12 367.39 300.44 359.97 C 301.62 356.28 305.51 354.96 308.82 353.85 C 322.91 350.40 336.18 344.36 350.07 340.23 C 362.96 336.25 375.37 330.90 388.32 327.09 C 392.95 325.94 396.84 322.92 401.45 321.74 C 410.80 319.65 419.81 316.25 428.50 312.26 C 431.47 310.73 434.90 309.32 436.46 306.13 C 436.57 302.80 434.55 298.91 431.10 298.09 C 427.51 297.13 423.75 297.28 420.07 297.21 C 410.41 297.23 400.71 296.88 391.11 298.22 C 385.79 298.55 381.30 301.78 376.19 302.95 C 367.21 305.33 358.56 308.73 349.80 311.80 C 338.76 315.75 327.43 318.91 316.54 323.32 C 311.78 324.89 306.88 327.85 301.72 326.31 C 300.20 322.72 299.78 318.82 299.79 314.96 C 299.73 306.95 299.67 298.92 299.96 290.91 C 300.38 287.72 300.25 283.34 303.79 281.93 C 315.55 276.70 328.37 274.45 340.90 271.88 Z" />
</g>
</svg>
