<?xml version="1.0" encoding="UTF-8" ?>
<!DOCTYPE svg PUBLIC "-//W3C//DTD SVG 1.1//EN" "http://www.w3.org/Graphics/SVG/1.1/DTD/svg11.dtd">
<svg width="926pt" height="806pt" viewBox="0 0 926 806" version="1.1" xmlns="http://www.w3.org/2000/svg">
<g id="#ffffffff">
<path fill="#ffffff" opacity="1.00" d=" M 440.13 8.01 C 461.48 5.52 483.38 6.58 504.16 12.32 C 520.77 17.13 536.85 24.27 551.01 34.25 C 547.97 35.01 544.99 33.57 541.96 33.56 C 527.90 32.75 514.06 36.49 500.96 41.24 C 487.35 46.24 474.36 52.78 461.97 60.28 C 459.61 60.26 457.85 58.15 455.77 57.22 C 436.04 46.07 414.79 36.51 392.10 33.79 C 387.72 33.39 383.28 33.26 378.91 33.76 C 376.56 34.02 374.19 34.92 371.83 34.25 C 392.09 20.30 415.74 11.25 440.13 8.01 Z" />
<path fill="#ffffff" opacity="1.00" d=" M 340.38 60.37 C 342.83 57.25 347.23 57.36 350.74 58.14 C 361.99 60.71 371.55 67.66 380.60 74.50 C 392.75 84.14 403.98 94.93 414.60 106.23 C 414.61 106.56 414.63 107.24 414.64 107.57 C 395.44 132.29 378.09 158.42 362.41 185.50 C 349.84 207.75 338.14 230.68 330.51 255.14 C 326.74 268.40 323.60 282.56 326.85 296.27 C 327.10 296.64 327.59 297.37 327.84 297.73 C 327.48 297.65 326.74 297.50 326.37 297.42 C 300.99 261.98 288.86 217.47 292.03 174.05 C 294.85 132.21 311.81 91.20 340.38 60.37 Z" />
<path fill="#ffffff" opacity="1.00" d=" M 551.51 67.66 C 558.43 63.24 565.75 58.86 574.00 57.65 C 576.57 57.55 579.78 57.09 581.60 59.36 C 604.52 83.56 620.08 114.34 627.17 146.83 C 632.66 173.47 632.82 201.32 626.92 227.91 C 621.68 253.00 610.81 276.70 596.23 297.72 C 595.89 293.09 597.80 288.66 597.42 284.02 C 596.78 265.76 590.60 248.29 583.72 231.54 C 571.06 202.10 554.79 174.35 537.23 147.59 C 529.86 136.49 522.22 125.56 514.22 114.90 C 512.02 112.03 509.67 109.26 507.79 106.17 C 521.45 92.36 535.29 78.49 551.51 67.66 Z" />
<path fill="#ffffff" opacity="1.00" d=" M 443.56 167.63 C 449.49 162.32 455.34 156.91 461.66 152.07 C 490.00 176.00 515.66 203.07 538.47 232.32 C 549.96 247.29 560.80 262.89 569.24 279.82 C 573.81 289.65 578.14 300.00 578.21 311.02 C 577.87 315.75 576.78 320.81 573.35 324.31 C 547.95 348.29 514.84 364.10 480.09 368.07 C 463.36 370.02 446.40 369.15 429.87 366.07 C 399.90 360.01 371.67 345.45 349.56 324.31 C 343.25 317.56 343.96 307.39 346.10 299.08 C 351.77 279.01 363.36 261.33 375.22 244.43 C 395.40 216.65 418.54 191.11 443.56 167.63 Z" />
<path fill="#ffffff" opacity="1.00" d=" M 516.19 449.31 C 536.01 437.56 559.34 433.52 582.09 433.03 C 598.52 432.77 615.08 434.58 630.92 439.08 C 658.45 447.12 683.17 466.62 694.87 493.13 C 703.69 513.05 705.51 535.62 702.16 557.01 C 699.82 572.71 692.80 587.49 683.05 599.93 C 671.46 614.61 655.46 625.44 638.10 632.15 C 620.28 638.95 600.99 640.91 582.03 640.61 C 567.84 640.38 553.68 638.40 540.00 634.63 C 523.47 629.35 507.91 620.63 495.33 608.61 C 478.83 593.16 468.69 571.41 467.04 548.89 C 466.29 541.00 466.26 533.00 467.05 525.13 C 468.66 502.55 478.96 480.90 495.12 465.12 C 501.66 459.25 508.31 453.35 516.19 449.31 M 559.50 463.32 C 542.79 467.43 527.30 477.41 517.66 491.80 C 508.70 504.30 505.01 519.86 504.78 535.07 C 504.48 551.02 507.66 567.62 516.89 580.93 C 527.48 597.11 545.25 607.80 564.08 611.39 C 583.70 615.11 604.57 613.95 623.14 606.29 C 637.48 599.98 650.10 589.12 657.20 575.02 C 660.46 568.68 662.44 561.80 664.05 554.88 C 664.45 552.30 664.60 549.68 665.09 547.11 C 666.41 531.17 664.76 514.70 657.91 500.08 C 650.30 483.88 635.56 471.75 618.93 465.62 C 599.90 459.15 578.99 458.51 559.50 463.32 Z" />
<path fill="#ffffff" opacity="1.00" d=" M 21.62 437.47 C 35.41 437.39 49.20 437.36 62.99 437.48 C 84.22 461.63 105.60 485.62 126.88 509.72 C 148.23 485.67 169.62 461.65 190.80 437.44 C 204.65 437.45 218.51 437.30 232.36 437.52 C 204.00 468.91 176.20 500.82 147.98 532.35 C 148.50 534.43 150.19 535.85 151.55 537.40 C 180.79 570.42 209.94 603.52 239.25 636.47 C 225.43 636.51 211.62 636.51 197.80 636.47 C 174.25 609.57 150.50 582.85 126.91 556.00 C 103.10 582.85 79.24 609.66 55.42 636.50 C 41.60 636.45 27.78 636.60 13.97 636.42 C 44.82 602.16 75.04 567.31 105.79 532.95 C 77.75 501.11 49.67 469.30 21.62 437.47 Z" />
<path fill="#ffffff" opacity="1.00" d=" M 258.74 437.48 C 289.49 437.33 320.25 437.46 351.00 437.42 C 370.66 437.30 391.01 436.73 409.61 444.16 C 423.43 449.38 436.08 459.59 441.21 473.81 C 444.96 485.29 444.74 498.35 439.21 509.23 C 433.65 520.34 423.01 527.94 411.94 532.94 C 428.48 537.67 444.45 548.48 451.27 564.76 C 454.23 572.83 454.26 581.66 453.04 590.07 C 450.66 604.24 441.25 616.75 428.80 623.72 C 412.10 633.77 392.15 636.45 372.97 636.49 C 334.90 636.47 296.82 636.57 258.74 636.44 C 258.76 606.89 258.74 577.34 258.75 547.80 C 240.66 547.74 222.57 547.89 204.48 547.72 C 211.97 539.19 219.66 530.85 226.99 522.18 C 237.58 522.15 248.16 522.18 258.75 522.17 C 258.74 493.94 258.76 465.71 258.74 437.48 M 295.64 463.55 C 295.61 483.20 295.63 502.85 295.62 522.50 C 319.39 522.49 343.15 522.54 366.92 522.47 C 377.02 522.40 387.73 521.15 396.22 515.21 C 402.24 511.41 405.87 504.79 407.09 497.89 C 408.30 490.08 407.26 481.33 401.60 475.37 C 393.13 466.10 379.93 463.89 367.95 463.60 C 343.85 463.47 319.74 463.57 295.64 463.55 M 295.62 547.79 C 295.65 568.59 295.58 589.38 295.66 610.17 C 314.77 610.17 333.88 610.17 352.98 610.17 C 367.08 610.14 381.52 610.90 395.15 606.57 C 403.24 604.20 410.45 598.87 414.25 591.23 C 417.47 583.46 417.34 574.54 414.34 566.72 C 410.66 558.65 403.03 552.86 394.50 550.72 C 386.54 548.37 378.21 547.80 369.95 547.79 C 345.17 547.79 320.40 547.79 295.62 547.79 Z" />
<path fill="#ffffff" opacity="1.00" d=" M 694.55 437.48 C 708.38 437.34 722.22 437.43 736.05 437.44 C 757.29 461.62 778.63 485.70 800.03 509.73 C 821.31 485.59 842.67 461.54 863.99 437.43 C 877.73 437.46 891.47 437.30 905.21 437.52 C 877.17 469.11 849.20 500.78 821.06 532.30 C 821.16 532.73 821.35 533.59 821.44 534.02 C 848.62 564.02 875.24 594.54 902.30 624.66 C 905.90 628.57 909.01 632.99 913.11 636.40 C 899.22 636.52 885.32 636.63 871.45 636.36 C 847.54 609.67 823.75 582.84 800.02 555.98 C 780.45 578.11 760.96 600.30 741.37 622.42 C 737.13 626.95 733.44 631.99 728.98 636.31 C 715.23 636.75 701.42 636.38 687.64 636.49 C 711.91 609.10 736.19 581.72 760.37 554.25 C 766.91 547.30 772.80 539.75 779.49 532.93 C 751.01 501.27 723.03 469.15 694.55 437.48 Z" />
<path fill="#ffffff" opacity="1.00" d=" M 92.07 720.10 C 100.99 714.70 111.82 713.87 122.01 714.33 C 130.80 714.67 139.94 716.36 147.19 721.65 C 151.61 724.74 154.64 729.66 155.68 734.93 C 155.79 736.38 156.76 738.07 155.62 739.35 C 150.75 739.43 145.87 739.38 141.00 739.32 C 140.52 734.50 138.04 729.67 133.62 727.39 C 126.76 724.18 118.96 724.28 111.57 724.72 C 105.89 725.28 99.50 727.80 97.61 733.72 C 97.62 735.46 97.65 737.22 97.97 738.95 C 99.17 741.36 100.90 743.59 103.49 744.59 C 117.04 750.71 132.71 749.30 146.19 755.70 C 151.86 758.13 157.13 762.70 158.55 768.93 C 160.81 777.14 156.70 786.25 149.62 790.73 C 142.24 795.17 133.54 796.82 125.02 797.11 C 115.03 797.43 104.67 796.76 95.50 792.45 C 90.06 789.91 85.45 785.58 82.78 780.19 C 81.32 776.67 80.50 772.94 80.44 769.13 C 85.14 769.11 89.84 769.14 94.54 769.11 C 94.66 770.67 94.80 772.25 95.05 773.82 C 97.00 781.82 105.57 785.39 112.97 786.39 C 120.74 787.10 128.97 787.36 136.26 784.16 C 139.00 783.04 140.69 780.49 142.31 778.16 C 142.97 775.22 143.55 771.87 141.81 769.18 C 140.39 766.65 137.76 765.13 135.05 764.33 C 125.87 761.57 116.42 759.94 107.07 757.97 C 100.06 756.18 92.90 753.58 87.68 748.37 C 80.30 740.25 82.05 725.33 92.07 720.10 Z" />
<path fill="#ffffff" opacity="1.00" d=" M 612.16 721.28 C 620.80 715.28 631.69 713.94 641.96 714.26 C 651.43 714.45 661.44 715.99 669.26 721.73 C 674.82 725.77 677.96 732.55 678.09 739.37 C 673.27 739.37 668.45 739.37 663.64 739.37 C 662.73 734.56 660.42 729.62 655.85 727.33 C 649.13 724.14 641.45 724.32 634.20 724.72 C 629.13 725.25 623.34 726.99 620.79 731.82 C 619.37 736.12 620.28 741.96 624.81 744.02 C 638.94 751.05 655.76 749.02 669.83 756.28 C 674.42 758.45 678.15 762.17 680.34 766.74 C 680.89 770.77 680.84 774.92 679.93 778.90 C 677.82 785.50 672.59 790.85 666.11 793.26 C 654.67 797.80 641.99 797.80 629.94 796.33 C 621.68 794.97 613.13 791.93 607.54 785.41 C 603.67 780.94 601.91 775.00 602.14 769.14 C 606.93 769.11 611.73 769.14 616.53 769.12 C 616.69 773.83 618.15 778.85 622.22 781.67 C 629.61 786.92 639.20 787.16 647.93 786.64 C 654.32 786.22 661.75 784.04 664.39 777.55 C 665.02 774.39 665.38 770.53 662.95 768.02 C 659.50 764.08 653.92 763.63 649.20 762.25 C 636.97 759.02 623.53 758.63 612.85 751.13 C 602.75 744.86 602.36 728.00 612.16 721.28 Z" />
<path fill="#ffffff" opacity="1.00" d=" M 199.01 716.33 C 221.94 716.32 244.87 716.37 267.79 716.31 C 268.74 719.66 266.92 723.24 268.50 726.47 C 266.09 727.25 263.53 726.97 261.05 727.01 C 245.20 726.99 229.35 727.00 213.50 727.00 C 213.52 734.72 213.44 742.44 213.55 750.17 C 229.61 750.15 245.68 750.18 261.74 750.16 C 261.75 753.60 261.75 757.05 261.75 760.50 C 245.66 760.50 229.58 760.50 213.50 760.50 C 213.50 768.58 213.49 776.66 213.50 784.74 C 231.60 784.76 249.69 784.75 267.78 784.74 C 267.86 788.39 267.65 792.06 268.22 795.68 C 245.16 796.02 222.08 795.73 199.00 795.83 C 199.00 769.33 198.99 742.83 199.01 716.33 Z" />
<path fill="#ffffff" opacity="1.00" d=" M 310.25 716.33 C 324.82 716.35 339.39 716.30 353.97 716.36 C 362.83 716.38 372.11 718.20 379.39 723.51 C 383.15 726.18 385.24 730.45 386.25 734.85 C 388.12 745.10 380.49 755.82 370.19 757.26 C 376.18 758.67 381.93 762.77 383.32 769.06 C 384.36 776.43 384.30 783.93 385.76 791.25 C 386.43 792.95 387.10 794.65 387.80 796.37 C 382.76 796.38 377.73 796.35 372.70 796.39 C 372.05 795.29 371.41 794.20 370.77 793.12 C 370.48 791.78 370.19 790.45 369.86 789.15 C 369.39 783.24 369.78 777.20 368.37 771.42 C 366.82 765.93 360.80 763.58 355.58 763.51 C 345.31 763.32 335.04 763.41 324.78 763.47 C 324.80 774.25 324.78 785.04 324.79 795.83 C 319.94 795.83 315.09 795.82 310.25 795.83 C 310.26 769.33 310.25 742.83 310.25 716.33 M 325.88 726.58 C 325.87 735.38 325.88 744.19 325.87 753.00 C 335.25 752.99 344.64 753.02 354.02 752.99 C 359.26 752.95 364.97 751.63 368.62 747.61 C 372.25 742.91 372.28 735.39 367.80 731.21 C 363.85 727.55 358.16 726.79 353.00 726.60 C 343.96 726.54 334.92 726.59 325.88 726.58 Z" />
<path fill="#ffffff" opacity="1.00" d=" M 430.13 716.33 C 434.97 716.33 439.82 716.33 444.67 716.33 C 444.67 742.83 444.66 769.33 444.67 795.83 C 439.82 795.83 434.97 795.81 430.12 795.84 C 430.14 769.34 430.11 742.83 430.13 716.33 Z" />
<path fill="#ffffff" opacity="1.00" d=" M 493.62 716.34 C 516.79 716.35 539.97 716.29 563.14 716.37 C 563.11 719.91 563.12 723.45 563.12 727.00 C 544.83 727.00 526.54 726.99 508.24 727.00 C 508.28 734.72 508.18 742.45 508.30 750.17 C 524.39 750.16 540.49 750.16 556.59 750.17 C 556.58 753.61 556.58 757.05 556.58 760.50 C 540.47 760.50 524.36 760.49 508.24 760.50 C 508.25 768.58 508.24 776.66 508.25 784.75 C 526.54 784.75 544.83 784.75 563.12 784.75 C 563.12 788.44 563.13 792.13 563.11 795.83 C 539.94 795.83 516.78 795.82 493.61 795.84 C 493.64 769.34 493.62 742.84 493.62 716.34 Z" />
<path fill="#ffffff" opacity="1.00" d=" M 758.03 716.46 C 763.67 716.26 769.33 716.26 774.98 716.45 C 783.30 726.03 791.62 735.64 799.99 745.20 C 808.43 735.53 817.10 726.07 825.51 716.38 C 831.08 716.30 836.65 716.30 842.22 716.39 C 830.89 728.90 819.96 741.77 808.45 754.12 C 820.68 768.01 832.82 781.99 845.22 795.73 C 839.51 795.80 833.78 796.06 828.08 795.59 C 819.00 784.75 809.31 774.41 799.97 763.78 C 790.64 774.41 781.30 785.04 772.05 795.74 C 766.43 795.92 760.81 795.80 755.20 795.81 C 767.48 781.95 779.90 768.20 791.86 754.07 C 780.38 741.71 769.66 728.66 758.03 716.46 Z" />
</g>
</svg>
