<?xml version="1.0" encoding="UTF-8" ?>
<!DOCTYPE svg PUBLIC "-//W3C//DTD SVG 1.1//EN" "http://www.w3.org/Graphics/SVG/1.1/DTD/svg11.dtd">
<svg width="1489pt" height="504pt" viewBox="0 0 1489 504" version="1.1" xmlns="http://www.w3.org/2000/svg">
<g id="#ffffffff">
<path fill="#ffffff" opacity="1.00" d=" M 1247.91 67.38 C 1269.11 63.69 1290.99 63.92 1312.12 68.01 C 1331.61 71.86 1350.26 79.47 1367.24 89.74 C 1369.45 91.14 1371.95 92.27 1373.51 94.47 C 1363.35 92.95 1352.91 92.82 1342.83 95.08 C 1321.53 99.65 1301.41 108.69 1282.66 119.63 C 1280.83 120.49 1278.78 122.81 1276.71 121.34 C 1259.59 110.91 1241.21 102.39 1221.87 97.00 C 1209.32 93.47 1196.02 92.16 1183.13 94.56 C 1183.66 93.01 1185.26 92.33 1186.50 91.44 C 1205.25 79.73 1226.08 71.15 1247.91 67.38 Z" />
<path fill="#ffffff" opacity="1.00" d=" M 619.45 76.80 C 645.21 74.64 671.76 76.57 696.11 85.78 C 713.22 92.47 728.81 103.30 740.54 117.50 C 753.34 132.21 760.42 151.14 763.12 170.28 C 765.15 189.40 764.31 209.25 757.39 227.37 C 750.46 245.09 738.56 260.91 723.27 272.25 C 708.32 283.66 690.50 290.96 672.11 294.56 C 649.88 298.44 626.96 298.38 604.73 294.53 C 585.97 291.31 568.00 283.65 552.70 272.33 C 537.32 261.13 524.90 245.68 518.06 227.87 C 511.16 210.11 510.10 190.60 511.93 171.80 C 513.80 151.75 522.19 132.51 535.20 117.20 C 545.82 104.81 559.25 94.82 574.18 88.22 C 588.40 81.63 603.92 78.34 619.45 76.80 M 627.38 105.40 C 616.41 106.36 605.50 108.91 595.51 113.59 C 579.56 120.89 566.36 134.06 559.18 150.08 C 551.98 166.60 550.28 185.27 553.12 202.99 C 555.12 215.88 560.14 228.40 568.36 238.60 C 580.59 254.00 599.05 263.79 618.35 266.80 C 634.89 269.48 652.06 268.89 668.20 264.29 C 686.94 258.96 704.00 246.63 713.48 229.43 C 722.20 213.54 724.44 194.81 722.89 176.96 C 721.56 159.74 715.29 142.44 703.10 129.93 C 691.91 117.95 676.57 110.40 660.62 107.16 C 649.69 104.96 638.47 104.47 627.38 105.40 Z" />
<path fill="#ffffff" opacity="1.00" d=" M 36.79 80.85 C 50.87 80.74 64.96 80.81 79.04 80.81 C 81.30 80.58 82.37 82.92 83.75 84.27 C 105.44 108.78 127.07 133.34 148.85 157.76 C 171.67 132.19 194.32 106.47 217.05 80.82 C 231.67 80.81 246.29 80.71 260.91 80.87 C 231.36 114.62 201.39 148.03 171.66 181.64 C 170.48 182.60 171.97 183.68 172.55 184.45 C 204.64 220.52 236.53 256.76 268.58 292.88 C 255.03 293.17 241.48 292.90 227.93 293.02 C 226.58 292.86 224.77 293.43 223.84 292.12 C 198.82 263.84 173.93 235.45 148.84 207.23 C 123.45 235.75 98.04 264.26 72.76 292.88 C 58.05 293.12 43.32 293.00 28.60 292.94 C 60.23 257.12 91.92 221.35 123.60 185.57 C 124.34 184.39 126.80 183.13 125.41 181.58 C 95.98 147.91 66.12 114.60 36.79 80.85 Z" />
<path fill="#ffffff" opacity="1.00" d=" M 289.61 80.82 C 328.07 80.77 366.53 80.81 404.99 80.80 C 417.11 80.79 429.34 81.61 441.07 84.85 C 455.07 88.48 468.71 95.72 477.56 107.44 C 487.10 120.03 489.34 137.42 484.21 152.25 C 479.19 166.44 466.65 176.39 453.31 182.38 C 465.83 186.66 478.02 193.06 486.67 203.33 C 494.31 211.52 497.96 222.90 497.56 233.99 C 497.61 247.99 491.89 261.99 481.52 271.49 C 469.18 282.90 452.64 288.64 436.28 291.12 C 423.32 293.41 410.10 292.95 397.00 293.00 C 361.20 292.96 325.39 293.08 289.59 292.94 C 289.58 261.43 289.59 229.93 289.58 198.42 C 270.36 198.35 251.15 198.52 231.93 198.33 C 239.47 189.13 247.59 180.39 255.47 171.49 C 266.76 170.61 278.24 171.65 289.58 170.97 C 289.60 140.92 289.56 110.87 289.61 80.82 M 328.90 108.56 C 328.84 129.54 328.88 150.51 328.89 171.48 C 353.92 171.52 378.96 171.51 403.99 171.48 C 415.38 171.41 427.53 169.88 437.04 163.08 C 446.12 156.65 449.46 144.52 447.80 133.92 C 446.97 126.76 442.45 120.36 436.44 116.53 C 426.70 109.90 414.48 108.59 402.99 108.55 C 378.29 108.54 353.60 108.52 328.90 108.56 M 328.96 198.40 C 328.79 220.51 328.87 242.63 328.92 264.75 C 356.95 264.70 384.99 264.83 413.02 264.68 C 424.60 264.20 436.69 262.06 446.45 255.43 C 462.42 244.11 461.50 216.42 444.80 206.22 C 433.92 199.32 420.56 198.44 408.01 198.42 C 381.66 198.39 355.31 198.44 328.96 198.40 Z" />
<path fill="#ffffff" opacity="1.00" d=" M 754.74 80.85 C 769.43 80.76 784.12 80.74 798.81 80.86 C 821.34 106.64 844.11 132.23 866.88 157.81 C 889.57 132.11 912.32 106.48 935.03 80.81 C 949.65 80.83 964.28 80.69 978.90 80.88 C 949.18 114.78 919.02 148.31 889.23 182.15 L 889.18 182.82 C 921.72 219.58 954.52 256.13 987.02 292.94 C 972.38 293.08 957.73 292.96 943.08 293.00 C 917.70 264.39 892.27 235.81 866.86 207.21 C 842.16 235.05 817.52 262.96 792.97 290.93 C 792.10 291.72 791.40 293.18 790.03 292.97 C 775.70 293.02 761.36 293.03 747.03 292.96 C 779.63 256.20 812.10 219.33 844.75 182.63 C 814.94 148.54 784.53 114.95 754.74 80.85 Z" />
<path fill="#ffffff" opacity="1.00" d=" M 1149.53 121.47 C 1152.11 118.55 1156.47 119.24 1159.93 119.57 C 1169.43 121.57 1177.82 126.85 1185.68 132.34 C 1201.47 143.84 1215.71 157.38 1228.94 171.71 C 1205.93 200.86 1185.62 232.13 1167.51 264.54 C 1156.29 285.19 1145.84 306.42 1138.84 328.91 C 1135.63 339.66 1133.05 350.76 1133.15 362.04 C 1133.10 366.58 1134.35 370.97 1134.96 375.43 C 1123.54 360.64 1115.22 343.58 1108.81 326.07 C 1089.32 271.67 1094.20 208.94 1122.63 158.54 C 1130.07 145.17 1139.13 132.70 1149.53 121.47 Z" />
<path fill="#ffffff" opacity="1.00" d=" M 1375.80 128.81 C 1382.69 124.53 1389.99 120.27 1398.17 119.20 C 1401.07 119.05 1404.77 118.56 1406.74 121.24 C 1432.78 148.96 1450.07 184.59 1456.43 222.04 C 1464.93 270.11 1455.50 321.22 1429.90 362.86 C 1427.27 366.89 1424.98 371.24 1421.58 374.71 C 1422.31 369.49 1423.66 364.31 1423.30 359.00 C 1421.98 336.90 1413.81 315.97 1404.91 295.94 C 1389.60 262.71 1370.50 231.33 1349.76 201.23 C 1342.66 190.95 1335.29 180.87 1327.52 171.09 C 1342.47 155.78 1357.81 140.56 1375.80 128.81 Z" />
<path fill="#ffffff" opacity="1.00" d=" M 1196.53 304.55 C 1220.86 273.76 1247.84 244.89 1278.16 219.91 C 1291.00 229.92 1302.71 241.29 1314.20 252.80 C 1329.84 268.57 1344.59 285.21 1358.34 302.66 C 1371.07 319.02 1383.13 336.05 1392.51 354.58 C 1397.48 364.77 1402.05 375.52 1402.66 386.98 C 1402.91 393.05 1401.56 399.68 1397.03 404.03 C 1382.80 417.18 1366.49 428.11 1348.81 436.04 C 1305.39 455.89 1253.67 456.16 1209.94 437.08 C 1191.48 429.16 1174.43 417.96 1159.75 404.25 C 1154.77 399.67 1153.20 392.51 1153.65 385.98 C 1154.55 375.45 1158.56 365.50 1163.08 356.05 C 1172.13 337.62 1184.05 320.78 1196.53 304.55 Z" />
<path fill="#ffffff" opacity="1.00" d=" M 106.97 385.95 C 114.44 378.27 125.74 376.39 135.99 375.79 C 146.40 375.68 157.32 376.39 166.70 381.32 C 174.52 385.38 180.39 393.69 179.90 402.72 C 174.59 402.75 169.28 402.80 163.97 402.69 C 163.44 398.25 161.59 393.79 157.88 391.10 C 152.70 387.45 146.11 387.15 140.00 386.87 C 133.56 386.88 126.53 387.06 121.19 391.16 C 117.24 394.10 116.86 399.98 119.00 404.12 C 121.03 407.67 125.25 408.78 128.82 410.13 C 142.02 414.34 156.38 414.22 169.14 419.93 C 174.74 422.43 180.21 426.53 182.14 432.60 C 185.09 440.87 181.96 450.68 174.98 455.94 C 165.66 463.07 153.36 464.28 142.01 464.31 C 129.86 464.22 116.51 462.40 107.31 453.68 C 101.81 448.92 99.54 441.53 99.33 434.46 C 104.35 434.29 109.38 434.42 114.41 434.37 C 114.32 439.86 116.69 445.61 121.55 448.50 C 129.10 453.17 138.39 453.64 147.02 453.18 C 152.68 452.49 159.19 451.74 163.12 447.11 C 166.62 443.25 167.24 436.47 163.38 432.63 C 160.65 429.74 156.54 429.09 152.93 427.92 C 140.16 424.17 126.34 423.85 114.35 417.64 C 109.02 414.92 104.20 410.36 102.73 404.38 C 101.49 398.04 102.13 390.71 106.97 385.95 Z" />
<path fill="#ffffff" opacity="1.00" d=" M 668.81 381.83 C 679.95 375.57 693.34 375.03 705.78 376.35 C 715.13 377.32 725.06 380.22 731.34 387.66 C 734.95 391.81 736.70 397.26 736.82 402.71 C 731.69 402.78 726.56 402.75 721.43 402.73 C 720.55 397.80 718.34 392.83 713.83 390.23 C 707.14 386.72 699.29 386.75 691.94 387.02 C 685.92 387.24 678.91 388.90 675.70 394.52 C 674.45 399.08 674.90 404.99 679.59 407.42 C 694.66 414.89 712.50 413.12 727.63 420.49 C 733.41 423.24 739.03 428.17 739.56 434.96 C 739.70 441.10 738.91 447.84 734.59 452.56 C 727.12 461.35 714.91 463.55 703.98 464.20 C 690.83 464.62 676.35 463.88 665.54 455.45 C 658.98 450.62 655.45 442.48 655.54 434.43 C 660.78 434.35 666.02 434.31 671.26 434.47 C 671.08 439.75 673.22 445.33 677.82 448.23 C 685.54 453.16 695.13 453.68 704.03 453.16 C 709.65 452.45 716.14 451.64 720.00 446.98 C 723.29 443.16 724.03 436.54 720.21 432.83 C 717.24 429.51 712.57 428.91 708.55 427.60 C 695.94 424.07 682.32 423.67 670.60 417.37 C 665.01 414.41 660.11 409.31 659.21 402.83 C 657.27 394.65 661.52 385.85 668.81 381.83 Z" />
<path fill="#ffffff" opacity="1.00" d=" M 225.76 378.16 C 250.27 378.16 274.77 378.17 299.27 378.16 C 299.26 381.95 299.42 385.76 299.11 389.55 C 279.81 389.52 260.51 389.36 241.22 389.63 C 241.38 397.80 241.22 405.98 241.31 414.16 C 258.46 414.27 275.61 414.16 292.76 414.21 C 292.75 417.83 292.74 421.46 292.75 425.08 C 275.59 425.18 258.43 425.08 241.28 425.14 C 241.31 433.81 241.25 442.48 241.31 451.16 C 260.62 451.26 279.94 451.18 299.25 451.20 C 299.31 455.08 299.29 458.95 299.26 462.84 C 274.77 462.82 250.27 462.83 225.77 462.83 C 225.73 434.61 225.74 406.38 225.76 378.16 Z" />
<path fill="#ffffff" opacity="1.00" d=" M 344.54 378.15 C 361.30 378.24 378.06 378.05 394.81 378.25 C 403.48 378.78 412.56 380.92 419.30 386.69 C 425.76 392.26 427.30 402.19 423.90 409.82 C 421.12 415.92 415.36 420.12 409.07 422.07 C 415.13 423.35 420.58 427.58 422.17 433.75 C 424.12 443.62 422.69 454.13 426.99 463.49 C 422.07 463.46 417.14 463.56 412.22 463.48 C 410.47 463.74 409.95 461.76 409.36 460.56 C 406.43 452.63 408.88 443.79 405.99 435.87 C 403.99 430.67 398.09 428.56 392.93 428.42 C 382.04 428.22 371.15 428.39 360.26 428.33 C 360.20 439.80 360.33 451.27 360.19 462.74 C 354.98 462.91 349.76 462.78 344.55 462.85 C 344.46 434.62 344.47 406.38 344.54 378.15 M 361.14 389.15 C 361.10 398.52 361.13 407.89 361.12 417.25 C 369.41 417.25 377.71 417.25 386.00 417.25 C 392.50 417.40 399.75 417.42 405.02 413.00 C 410.88 408.41 411.14 398.39 405.43 393.58 C 401.42 390.23 396.04 389.26 390.96 389.20 C 381.02 389.10 371.08 389.20 361.14 389.15 Z" />
<path fill="#ffffff" opacity="1.00" d=" M 472.38 378.19 C 477.50 378.14 482.63 378.17 487.76 378.17 C 487.73 406.38 487.76 434.60 487.75 462.82 C 482.62 462.84 477.48 462.83 472.35 462.82 C 472.41 434.61 472.36 406.40 472.38 378.19 Z" />
<path fill="#ffffff" opacity="1.00" d=" M 540.15 378.16 C 564.84 378.16 589.53 378.17 614.22 378.16 C 614.24 381.95 614.34 385.75 614.11 389.54 C 594.60 389.48 575.09 389.46 555.59 389.55 C 555.59 397.76 555.55 405.97 555.62 414.18 C 572.82 414.23 590.02 414.19 607.22 414.20 C 607.25 417.83 607.25 421.47 607.23 425.10 C 590.00 425.19 572.77 425.03 555.54 425.19 C 555.61 433.73 555.62 442.28 555.53 450.82 C 558.99 451.39 562.50 451.18 566.00 451.21 C 582.07 451.20 598.14 451.21 614.21 451.20 C 614.27 455.08 614.25 458.95 614.22 462.83 C 589.52 462.84 564.83 462.80 540.13 462.85 C 540.13 434.62 540.09 406.39 540.15 378.16 Z" />
<path fill="#ffffff" opacity="1.00" d=" M 822.48 378.24 C 828.25 378.14 834.02 378.09 839.79 378.22 C 849.17 388.05 857.68 398.79 866.88 408.83 C 875.93 398.56 885.05 388.36 894.17 378.15 C 900.02 378.21 905.87 378.08 911.72 378.23 C 899.94 391.83 887.63 404.99 876.04 418.75 C 889.01 433.39 902.13 447.91 914.77 462.82 C 908.94 462.83 903.11 462.84 897.28 462.81 C 887.84 452.20 878.34 441.66 868.97 431.00 C 868.14 430.44 867.56 428.78 866.39 429.26 C 856.32 440.25 846.93 451.92 836.71 462.72 C 830.91 462.99 825.11 462.77 819.31 462.79 C 832.13 448.04 845.07 433.38 858.08 418.79 C 846.64 404.93 834.20 391.89 822.48 378.24 Z" />
</g>
</svg>
