<?xml version="1.0" encoding="UTF-8" ?>
<!DOCTYPE svg PUBLIC "-//W3C//DTD SVG 1.1//EN" "http://www.w3.org/Graphics/SVG/1.1/DTD/svg11.dtd">
<svg width="905pt" height="693pt" viewBox="0 0 905 693" version="1.1" xmlns="http://www.w3.org/2000/svg">
<g id="#fdfdfdff">
<path fill="#fdfdfd" opacity="1.00" d=" M 395.58 5.65 C 396.82 4.54 398.40 3.41 400.17 3.92 C 417.51 7.30 434.57 11.92 451.56 16.73 C 459.31 19.28 467.19 21.43 475.13 23.28 C 484.12 25.70 492.93 28.76 501.58 32.23 C 505.00 33.58 508.59 34.48 512.24 34.95 C 517.06 35.52 520.27 39.86 525.00 40.70 C 531.52 42.13 537.12 45.95 542.79 49.29 C 555.54 57.42 568.06 66.74 576.41 79.59 C 588.02 97.01 591.59 118.45 591.69 139.04 C 591.97 156.27 590.12 174.22 581.69 189.56 C 575.04 201.78 562.86 211.25 548.83 212.86 C 541.60 214.25 534.13 214.01 526.84 213.18 C 518.49 212.08 510.81 208.64 503.25 205.12 C 503.14 172.75 503.32 140.37 503.03 107.99 C 502.82 97.34 503.07 86.61 501.51 76.05 C 500.73 70.27 495.60 65.66 489.87 65.01 C 486.33 64.61 482.31 64.04 479.15 66.06 C 474.78 70.46 473.11 76.80 472.91 82.86 C 471.40 105.88 471.73 128.97 471.62 152.04 C 471.52 206.03 471.67 260.02 471.13 314.01 C 470.87 331.27 470.99 348.58 469.54 365.79 C 445.52 358.49 421.38 351.52 397.70 343.13 C 395.57 322.15 396.67 301.02 395.80 280.00 C 395.47 188.55 395.74 97.10 395.58 5.65 Z" />
<path fill="#fdfdfd" opacity="1.00" d=" M 361.82 213.87 C 365.90 212.23 370.07 210.79 374.35 209.78 C 375.85 209.39 376.89 211.12 377.32 212.32 C 378.63 216.41 378.32 220.77 378.57 225.00 C 378.64 233.35 378.74 241.75 377.58 250.04 C 377.55 252.28 375.35 253.43 373.63 254.33 C 365.01 258.60 355.68 261.20 346.43 263.72 C 341.92 264.85 338.34 268.14 333.81 269.26 C 322.28 271.98 311.49 277.01 300.21 280.54 C 295.63 282.02 290.28 283.59 287.66 287.96 C 285.90 292.16 289.89 295.42 293.43 296.59 C 303.85 300.24 315.28 300.30 326.02 298.07 C 340.41 295.10 354.03 289.43 367.83 284.54 C 370.75 283.69 374.28 282.22 377.12 284.02 C 378.60 286.39 378.45 289.28 378.60 291.96 C 378.72 297.52 378.70 303.08 378.59 308.64 C 378.43 311.72 378.38 315.00 376.72 317.71 C 375.41 320.45 372.26 321.39 369.60 322.26 C 361.81 323.74 353.83 323.66 345.93 323.80 C 326.34 324.61 306.59 324.65 287.13 321.97 C 276.42 320.57 266.01 317.58 255.80 314.15 C 243.68 310.80 231.06 307.11 221.50 298.52 C 217.64 294.96 213.98 290.49 213.44 285.08 C 212.94 277.82 218.46 272.02 223.75 267.85 C 237.56 257.29 254.18 251.41 270.42 245.73 C 286.45 240.30 302.29 234.33 318.46 229.35 C 332.78 223.81 347.50 219.41 361.82 213.87 Z" />
<path fill="#fdfdfd" opacity="1.00" d=" M 521.13 233.57 C 543.35 228.57 566.28 227.95 588.97 228.39 C 610.91 228.75 632.69 232.71 653.61 239.24 C 664.24 242.74 674.79 246.87 684.18 253.06 C 690.35 257.06 695.94 263.30 696.20 271.01 C 695.84 278.50 690.11 284.24 684.39 288.41 C 672.87 296.59 659.44 301.45 646.23 306.14 C 636.37 309.63 626.63 313.43 616.74 316.85 C 598.47 321.98 581.06 329.63 563.06 335.59 C 547.20 340.41 531.76 346.47 516.23 352.21 C 511.83 353.63 507.24 354.35 502.86 355.81 C 500.52 356.56 498.93 358.79 496.46 359.21 C 494.60 359.49 492.69 359.59 490.83 359.30 C 488.45 357.91 488.94 354.66 488.56 352.31 C 488.50 342.14 487.87 331.89 489.33 321.79 C 489.69 318.43 491.83 315.14 495.15 314.09 C 501.87 311.80 508.81 310.20 515.43 307.61 C 529.28 302.39 543.52 298.34 557.39 293.16 C 564.22 290.53 571.18 288.23 578.18 286.09 C 582.64 284.77 586.40 281.70 591.04 280.91 C 596.24 279.81 601.23 277.95 606.25 276.24 C 611.92 273.73 618.10 271.91 623.03 268.06 C 626.11 265.90 624.47 261.82 622.54 259.47 C 620.45 257.08 616.97 257.36 614.12 256.96 C 604.43 256.61 594.70 256.55 585.03 257.33 C 581.05 257.62 576.91 257.77 573.27 259.55 C 568.18 261.84 562.77 263.28 557.41 264.77 C 548.58 267.74 539.91 271.14 531.05 274.02 C 521.49 276.94 512.06 280.30 502.75 283.93 C 499.16 284.94 495.33 287.26 491.60 285.54 C 490.60 283.54 489.62 281.44 489.70 279.16 C 489.35 269.40 489.48 259.62 489.69 249.86 C 489.84 246.85 490.38 243.07 493.47 241.70 C 502.20 237.60 511.76 235.66 521.13 233.57 Z" />
<path fill="#fdfdfd" opacity="1.00" d=" M 4.73 443.39 C 5.77 440.45 9.42 441.10 11.90 440.74 C 46.58 439.30 81.31 440.07 116.02 439.95 C 160.70 440.14 205.40 440.22 250.08 440.68 C 261.20 445.75 271.82 452.84 278.67 463.18 C 284.03 470.24 285.75 479.30 285.90 487.98 C 285.99 495.05 286.01 502.47 282.99 509.02 C 276.83 521.60 266.47 532.50 253.09 537.27 C 230.78 539.07 208.37 538.78 186.01 539.32 C 145.98 539.77 105.95 540.43 65.92 540.72 C 61.57 544.07 56.70 546.83 53.01 550.96 C 48.92 555.63 48.45 562.12 47.83 568.01 C 46.90 587.07 46.41 606.15 46.10 625.23 C 32.23 625.38 18.36 625.25 4.50 625.30 C 4.44 611.50 3.75 597.73 3.77 583.94 C 4.43 571.49 4.49 558.29 10.93 547.18 C 17.46 536.14 27.89 527.44 39.85 522.83 C 42.21 521.96 44.39 520.25 47.04 520.54 C 78.69 520.56 110.33 520.55 141.98 520.55 C 163.02 520.50 184.06 520.64 205.10 520.10 C 212.93 519.43 221.13 519.81 228.51 516.75 C 236.89 512.00 244.24 503.90 245.19 493.95 C 247.35 478.77 235.94 463.31 220.87 460.73 C 210.29 459.59 199.63 459.65 189.00 459.44 C 168.67 459.18 148.33 459.16 128.00 458.96 C 93.32 458.73 58.64 459.14 23.96 458.38 C 17.90 458.33 11.82 458.12 5.82 457.20 C 3.14 453.14 3.03 447.84 4.73 443.39 Z" />
<path fill="#fdfdfd" opacity="1.00" d=" M 412.44 462.56 C 421.50 451.48 434.01 441.44 448.90 440.82 C 491.52 439.91 534.15 440.56 576.78 440.57 C 576.76 446.45 576.81 452.33 576.75 458.22 C 541.78 458.76 506.80 459.24 471.87 460.82 C 469.06 461.06 466.02 460.93 463.55 462.49 C 456.98 466.04 452.04 471.74 446.78 476.89 C 445.99 513.28 446.12 549.72 443.74 586.06 C 443.74 594.09 438.54 600.73 434.07 606.94 C 428.86 614.30 421.36 619.91 412.92 623.01 C 401.62 626.43 389.65 625.45 378.00 625.97 C 343.50 626.40 308.98 626.03 274.46 626.18 C 274.71 619.76 273.52 613.00 275.81 606.85 C 304.59 606.54 333.37 606.44 362.15 606.08 C 370.05 605.42 378.26 606.34 385.90 603.83 C 394.23 599.73 399.72 591.76 404.40 584.03 C 404.58 554.33 404.06 524.62 404.86 494.92 C 405.67 483.91 405.38 471.77 412.44 462.56 Z" />
<path fill="#fdfdfd" opacity="1.00" d=" M 626.66 440.92 C 651.75 439.50 676.89 439.89 702.01 439.73 C 736.00 439.67 769.99 439.65 803.99 439.73 C 828.01 439.81 852.03 439.73 876.04 440.48 C 881.41 440.81 886.90 440.42 892.15 441.86 C 894.25 446.52 894.36 452.02 892.53 456.80 C 888.46 458.00 884.19 458.18 879.98 458.30 C 851.98 459.05 823.97 458.82 795.97 458.88 C 769.29 458.76 742.63 459.20 715.95 459.20 C 697.81 459.52 679.60 458.98 661.51 460.71 C 659.17 464.68 659.75 469.51 659.37 473.93 C 659.19 484.28 658.80 494.69 659.97 505.00 C 660.51 510.67 663.89 516.11 669.05 518.63 C 673.65 519.51 678.37 519.43 683.03 519.67 C 734.68 521.17 786.37 520.11 838.04 520.81 C 850.00 521.96 863.30 520.35 873.81 527.33 C 882.41 533.16 890.59 540.22 895.22 549.72 C 903.03 564.47 902.81 583.12 894.78 597.74 C 889.99 606.95 881.93 613.88 873.48 619.64 C 869.25 622.49 864.18 623.62 859.20 624.32 C 841.87 626.36 824.38 625.67 806.97 625.84 C 744.71 625.88 682.46 625.51 620.21 625.30 C 620.28 619.55 618.23 613.14 620.95 607.84 C 630.90 606.72 640.99 607.56 650.98 606.93 C 696.34 606.59 741.71 606.25 787.07 606.16 C 803.64 605.44 820.30 606.26 836.83 604.45 C 841.54 604.00 845.14 600.69 848.72 597.93 C 854.44 593.31 858.43 586.55 859.25 579.20 C 860.02 571.31 859.34 562.82 854.93 556.01 C 851.97 551.44 847.66 547.98 843.23 544.92 C 839.43 542.15 834.58 541.84 830.06 541.54 C 805.06 540.17 780.01 540.47 754.98 540.12 C 716.63 539.42 678.26 539.53 639.91 538.96 C 635.66 536.45 631.62 533.49 627.65 530.54 C 622.19 526.51 621.09 519.34 620.56 513.04 C 619.51 497.41 619.79 481.73 619.52 466.08 C 619.62 458.74 619.28 451.34 620.46 444.08 C 620.79 441.08 624.43 441.30 626.66 440.92 Z" />
</g>
</svg>
