<?xml version="1.0" encoding="UTF-8" ?>
<!DOCTYPE svg PUBLIC "-//W3C//DTD SVG 1.1//EN" "http://www.w3.org/Graphics/SVG/1.1/DTD/svg11.dtd">
<svg width="215pt" height="195pt" viewBox="0 0 215 195" version="1.1" xmlns="http://www.w3.org/2000/svg">
<g id="#ffffffff">
<path fill="#ffffff" opacity="1.00" d=" M 60.81 17.67 C 87.42 -1.24 126.23 -1.50 152.64 17.87 C 141.11 15.33 129.58 19.70 119.15 24.26 C 114.63 26.06 110.70 29.02 106.23 30.91 C 97.05 24.90 86.78 20.33 76.03 18.02 C 71.03 16.85 65.86 16.96 60.81 17.67 Z" />
<path fill="#ffffff" opacity="1.00" d=" M 44.89 30.84 C 46.37 29.04 48.96 29.33 50.95 29.88 C 57.63 31.78 63.17 36.20 68.45 40.53 C 73.58 44.99 78.65 49.58 82.98 54.83 C 68.06 73.93 54.98 94.59 44.94 116.68 C 40.41 127.84 35.20 140.07 38.21 152.30 C 28.06 139.04 22.36 122.68 20.45 106.18 C 17.51 79.14 26.28 50.81 44.89 30.84 Z" />
<path fill="#ffffff" opacity="1.00" d=" M 159.22 30.91 C 162.02 29.90 165.94 28.04 168.37 30.67 C 183.90 47.14 192.73 69.53 193.41 92.10 C 194.33 113.42 187.66 134.73 175.56 152.23 C 177.57 140.33 173.43 128.61 168.95 117.76 C 158.94 94.99 145.28 74.00 130.30 54.21 C 139.08 45.51 147.96 36.38 159.22 30.91 Z" />
<path fill="#ffffff" opacity="1.00" d=" M 63.21 124.08 C 75.93 107.05 90.33 91.11 106.84 77.69 C 123.03 91.34 137.51 106.99 150.07 124.04 C 156.27 132.67 162.20 141.78 165.32 152.02 C 166.65 156.65 167.26 162.67 163.29 166.22 C 148.10 180.19 127.72 188.62 107.00 188.51 C 86.28 188.74 65.70 180.57 50.50 166.54 C 46.60 163.42 46.47 157.91 47.63 153.45 C 50.47 142.60 56.85 133.15 63.21 124.08 Z" />
</g>
</svg>
