<svg width="259" height="185" viewBox="0 0 259 185" fill="none" xmlns="http://www.w3.org/2000/svg">
<g clip-path="url(#clip0_1426_10368)">
<path d="M101.313 2.85566C101.941 2.29459 102.742 1.72342 103.64 1.9812C112.431 3.68967 121.08 6.02492 129.694 8.4562C133.624 9.74514 137.619 10.8319 141.644 11.767C146.202 12.9902 150.669 14.5369 155.054 16.2909C156.788 16.9733 158.608 17.4282 160.459 17.6658C162.902 17.9539 164.53 20.1476 166.928 20.5722C170.234 21.295 173.073 23.2259 175.947 24.9141C182.412 29.0236 188.759 33.7345 192.993 40.2297C198.879 49.0349 200.689 59.872 200.739 70.2796C200.881 78.9887 199.944 88.0618 195.67 95.8156C192.298 101.992 186.123 106.779 179.01 107.593C175.344 108.296 171.557 108.174 167.861 107.755C163.627 107.199 159.734 105.46 155.901 103.681C155.845 87.3188 155.936 70.9518 155.789 54.5849C155.683 49.2017 155.81 43.7781 155.019 38.4404C154.623 35.5188 152.022 33.1886 149.117 32.86C147.323 32.6578 145.284 32.3697 143.682 33.3908C141.467 35.6148 140.62 38.8195 140.519 41.8826C139.753 53.5184 139.92 65.1895 139.865 76.8506C139.814 104.141 139.89 131.431 139.616 158.721C139.484 167.445 139.545 176.195 138.81 184.894C126.632 181.204 114.393 177.681 102.388 173.44C101.308 162.835 101.865 152.155 101.424 141.53C101.257 95.3051 101.394 49.0804 101.313 2.85566Z" fill="#FDFDFD"/>
<path d="M84.1965 108.104C86.2651 107.275 88.3792 106.547 90.5492 106.036C91.3097 105.839 91.8369 106.713 92.0549 107.32C92.7191 109.387 92.5619 111.591 92.6887 113.729C92.7242 117.95 92.7749 122.196 92.1868 126.386C92.1715 127.518 91.0562 128.1 90.1841 128.555C85.8138 130.713 81.0836 132.027 76.3939 133.301C74.1073 133.872 72.2923 135.535 69.9956 136.101C64.15 137.476 58.6795 140.019 52.9606 141.803C50.6385 142.551 47.9261 143.344 46.5978 145.553C45.7055 147.676 47.7284 149.324 49.5232 149.916C54.806 151.76 60.601 151.791 66.0461 150.664C73.3418 149.162 80.247 146.296 87.2436 143.825C88.724 143.395 90.5137 142.652 91.9535 143.562C92.7039 144.76 92.6278 146.221 92.7039 147.575C92.7647 150.386 92.7546 153.196 92.6988 156.006C92.6177 157.563 92.5924 159.221 91.7507 160.591C91.0866 161.976 89.4896 162.451 88.1409 162.891C84.1915 163.639 80.1456 163.598 76.1404 163.669C66.2084 164.079 56.1952 164.099 46.3291 162.744C40.8992 162.037 35.6214 160.525 30.445 158.791C24.3002 157.098 17.9019 155.233 13.055 150.891C11.098 149.092 9.24244 146.832 8.96866 144.098C8.71516 140.428 11.5138 137.496 14.1958 135.388C21.1974 130.051 29.6236 127.079 37.8572 124.208C45.9843 121.463 54.0151 118.445 62.2132 115.928C69.4734 113.128 76.9364 110.904 84.1965 108.104Z" fill="#FDFDFD"/>
<path d="M164.966 118.061C176.231 115.534 187.857 115.22 199.36 115.443C210.484 115.625 221.526 117.626 232.133 120.927C237.522 122.696 242.871 124.784 247.631 127.912C250.76 129.934 253.594 133.088 253.725 136.985C253.543 140.771 250.638 143.673 247.738 145.781C241.897 149.915 235.088 152.372 228.391 154.742C223.392 156.507 218.454 158.427 213.44 160.156C204.177 162.749 195.35 166.616 186.224 169.628C178.183 172.065 170.355 175.128 162.482 178.029C160.251 178.747 157.924 179.111 155.703 179.849C154.517 180.228 153.711 181.355 152.458 181.567C151.515 181.709 150.547 181.76 149.604 181.613C148.397 180.91 148.646 179.268 148.453 178.08C148.423 172.939 148.103 167.758 148.843 162.653C149.026 160.955 150.111 159.292 151.794 158.761C155.201 157.603 158.72 156.795 162.076 155.485C169.098 152.847 176.318 150.8 183.35 148.182C186.812 146.852 190.341 145.69 193.89 144.608C196.151 143.941 198.057 142.389 200.41 141.99C203.046 141.434 205.576 140.493 208.121 139.629C210.996 138.36 214.129 137.44 216.629 135.494C218.19 134.403 217.359 132.34 216.38 131.152C215.321 129.944 213.556 130.086 212.111 129.884C207.199 129.707 202.265 129.676 197.363 130.071C195.345 130.217 193.246 130.293 191.401 131.193C188.82 132.35 186.077 133.078 183.36 133.831C178.883 135.333 174.487 137.051 169.995 138.507C165.148 139.983 160.367 141.681 155.647 143.516C153.827 144.027 151.885 145.199 149.994 144.33C149.487 143.319 148.99 142.257 149.031 141.105C148.854 136.172 148.92 131.228 149.026 126.295C149.102 124.773 149.376 122.863 150.942 122.17C155.368 120.098 160.215 119.117 164.966 118.061Z" fill="#FDFDFD"/>
</g>
<defs>
<clipPath id="clip0_1426_10368">
<rect width="258.567" height="185" fill="white"/>
</clipPath>
</defs>
</svg>
