<?xml version="1.0" encoding="UTF-8" ?>
<!DOCTYPE svg PUBLIC "-//W3C//DTD SVG 1.1//EN" "http://www.w3.org/Graphics/SVG/1.1/DTD/svg11.dtd">
<svg width="1553pt" height="746pt" viewBox="0 0 1553 746" version="1.1" xmlns="http://www.w3.org/2000/svg">
<g id="#ffffffff">
<path fill="#ffffff" opacity="1.00" d=" M 823.46 13.69 C 830.81 13.93 838.20 13.46 845.54 14.03 C 845.59 14.71 845.67 16.06 845.72 16.74 L 846.39 16.33 C 846.47 17.04 846.64 18.45 846.73 19.16 C 847.32 20.62 847.57 22.18 847.85 23.72 L 848.91 23.53 C 848.77 24.01 848.50 24.95 848.37 25.42 C 848.72 25.55 849.43 25.80 849.78 25.93 L 849.26 27.52 L 850.61 27.40 L 850.48 28.62 L 852.33 28.66 C 852.37 27.84 852.47 26.20 852.51 25.37 L 853.32 25.63 C 853.37 24.23 853.44 22.82 853.53 21.41 L 854.22 21.73 C 854.37 20.17 854.62 18.62 854.87 17.07 C 855.60 15.79 856.52 14.64 857.56 13.59 C 865.15 14.11 872.77 13.79 880.37 13.87 C 879.99 19.52 877.43 24.64 875.96 30.04 C 872.79 41.08 869.14 51.98 865.94 63.01 C 864.48 68.45 862.12 73.60 861.01 79.13 C 854.53 79.49 847.99 80.17 841.54 79.21 C 840.27 78.83 838.26 78.93 838.19 77.16 C 837.18 74.17 836.68 71.03 835.54 68.08 C 833.95 63.91 833.43 59.33 830.93 55.52 C 827.68 63.25 825.78 71.49 823.60 79.57 C 816.08 79.28 808.55 79.67 801.03 79.30 C 800.00 74.17 798.09 69.29 796.78 64.23 C 795.77 61.13 795.44 57.78 793.83 54.90 C 789.89 41.17 784.88 27.75 781.47 13.88 C 789.96 13.88 798.47 13.92 806.96 13.74 C 807.21 14.19 807.70 15.10 807.94 15.55 L 808.40 15.28 C 808.42 16.13 808.47 17.81 808.49 18.65 L 809.21 18.19 C 809.36 19.87 809.72 21.53 810.47 23.05 C 810.40 23.41 810.26 24.12 810.19 24.47 L 811.42 24.44 C 811.39 25.24 811.34 26.85 811.32 27.66 L 812.42 27.21 C 812.41 28.09 812.39 29.85 812.38 30.74 C 812.89 30.69 813.90 30.61 814.41 30.57 C 814.48 29.14 814.56 27.70 814.63 26.27 L 815.41 26.55 C 815.50 25.34 815.60 24.13 815.72 22.92 C 816.55 21.51 816.68 19.91 816.69 18.30 L 817.32 18.52 C 817.43 17.13 817.57 15.74 817.73 14.36 C 819.66 14.29 821.59 14.26 823.54 14.27 L 823.46 13.69 Z" />
<path fill="#ffffff" opacity="1.00" d=" M 500.05 23.48 C 503.34 17.16 510.47 14.84 517.05 13.81 C 545.35 13.76 573.64 13.81 601.94 13.78 C 604.19 13.76 606.42 14.07 608.66 14.26 C 608.41 21.40 608.59 28.54 608.52 35.67 C 599.23 35.62 589.93 35.38 580.63 35.72 C 580.06 50.28 580.65 64.86 580.36 79.43 C 572.67 79.37 564.97 79.33 557.27 79.45 C 557.24 65.84 557.23 52.21 557.19 38.59 L 556.43 38.72 C 556.53 37.66 556.64 36.61 556.76 35.55 C 547.97 35.66 539.17 35.49 530.37 35.65 L 530.73 36.40 C 529.55 36.42 527.18 36.45 525.99 36.46 C 526.50 36.75 527.53 37.33 528.05 37.62 C 530.40 41.13 533.56 44.04 536.42 47.14 C 536.37 47.48 536.26 48.16 536.20 48.51 L 537.23 48.30 C 537.47 48.95 537.94 50.24 538.17 50.88 C 538.46 51.39 539.06 52.42 539.35 52.93 C 539.70 57.20 539.63 61.50 539.44 65.78 L 538.64 65.53 C 538.59 66.32 538.50 67.89 538.46 68.68 L 537.26 68.69 C 537.38 69.14 537.62 70.06 537.74 70.51 L 536.41 70.52 C 536.38 70.84 536.34 71.49 536.31 71.81 C 535.54 72.59 534.80 73.38 534.08 74.19 C 532.93 75.12 531.77 76.03 530.56 76.86 L 530.54 77.11 C 529.40 77.52 528.29 77.97 527.19 78.44 C 525.86 78.50 524.54 78.55 523.23 78.58 L 523.86 79.48 C 501.98 79.56 480.10 79.51 458.23 79.45 L 458.44 78.41 C 457.92 78.51 456.87 78.70 456.35 78.79 C 456.54 71.31 456.39 63.82 456.51 56.34 C 458.69 56.31 460.86 56.27 463.03 56.19 C 466.96 55.37 471.00 55.88 474.98 55.75 C 481.66 55.88 488.37 55.43 495.03 56.14 C 497.19 55.80 499.38 55.72 501.57 55.61 L 501.35 56.36 L 503.71 56.34 L 503.31 55.64 C 505.57 55.67 507.84 55.64 510.12 55.67 C 509.41 54.97 508.71 54.27 508.03 53.57 L 507.69 53.73 C 507.47 53.32 507.03 52.51 506.82 52.11 C 506.23 51.38 505.66 50.65 505.08 49.92 C 504.28 49.24 503.47 48.56 502.65 47.89 C 502.63 47.52 502.58 46.79 502.55 46.42 L 501.13 46.69 L 501.95 45.19 L 500.30 45.70 C 500.41 45.18 500.64 44.12 500.75 43.60 L 499.27 43.71 L 499.92 42.16 L 498.51 42.79 C 498.54 41.97 498.59 40.32 498.62 39.50 C 498.36 39.53 497.83 39.60 497.57 39.63 C 497.17 35.48 497.19 31.32 497.61 27.17 L 498.92 27.59 C 498.76 27.03 498.46 25.91 498.30 25.35 L 499.82 25.41 C 499.66 24.92 499.35 23.95 499.20 23.47 L 500.05 23.48 Z" />
<path fill="#ffffff" opacity="1.00" d=" M 618.46 15.02 C 619.30 14.61 620.14 14.19 621.00 13.77 C 632.58 14.25 644.22 13.00 655.77 14.55 C 658.12 24.75 662.37 34.38 664.81 44.55 C 668.43 56.21 672.57 67.69 675.67 79.51 C 668.07 79.31 660.45 79.97 652.88 79.30 C 650.09 77.40 650.66 73.43 649.41 70.64 C 641.66 69.66 633.73 69.46 626.00 70.68 C 625.42 73.70 625.10 76.95 623.05 79.40 C 615.33 79.66 607.60 79.33 599.88 79.61 C 600.85 70.68 604.51 62.41 607.05 53.88 C 610.56 40.84 615.27 28.16 618.46 15.02 M 637.61 35.29 C 635.93 40.76 634.33 46.24 632.78 51.74 C 636.22 51.77 639.66 51.77 643.11 51.61 C 641.88 45.97 640.79 40.23 637.61 35.29 Z" />
<path fill="#ffffff" opacity="1.00" d=" M 680.27 13.85 C 695.15 13.92 710.04 13.84 724.93 13.89 C 731.50 13.86 737.82 16.92 742.37 21.57 C 748.64 27.74 749.00 37.99 745.49 45.67 C 742.82 49.61 738.74 52.27 735.33 55.52 C 745.87 56.06 756.43 55.70 766.98 55.73 C 768.53 55.81 770.06 56.19 771.61 56.46 C 770.99 64.21 772.49 72.08 770.74 79.75 C 755.47 79.35 740.11 80.01 724.93 78.04 C 717.26 74.03 712.41 66.47 705.92 60.96 C 705.82 67.11 705.90 73.26 705.87 79.41 C 697.31 79.50 688.74 79.62 680.19 79.21 C 680.12 57.43 680.00 35.64 680.27 13.85 M 705.63 40.54 C 711.60 40.56 717.58 40.68 723.55 40.34 C 723.49 38.34 724.01 36.24 723.46 34.28 C 718.32 31.58 712.20 33.28 706.64 32.69 C 706.17 35.29 705.82 37.91 705.63 40.54 Z" />
<path fill="#ffffff" opacity="1.00" d=" M 891.49 15.03 C 892.62 14.63 893.68 13.85 894.95 13.88 C 903.95 13.84 912.95 13.91 921.96 13.86 C 924.39 13.78 926.80 14.20 929.20 14.67 C 930.21 21.71 932.82 28.40 935.10 35.10 C 939.67 49.87 944.22 64.67 948.79 79.44 C 940.68 79.54 932.55 79.77 924.45 79.24 C 923.62 76.31 922.98 73.32 922.41 70.33 C 914.66 70.28 906.92 70.35 899.17 70.30 C 898.27 73.36 897.41 76.45 896.20 79.41 C 888.40 79.87 880.52 79.59 872.69 79.52 C 874.76 69.63 878.65 60.28 881.22 50.54 C 882.35 47.29 882.67 43.73 884.49 40.75 C 885.61 36.08 887.31 31.58 888.46 26.92 C 889.34 22.91 891.36 19.20 891.49 15.03 M 909.89 37.18 C 909.56 38.42 909.18 39.64 908.76 40.84 C 908.67 41.52 908.48 42.90 908.38 43.59 L 907.65 43.29 C 907.57 44.68 907.50 46.08 907.43 47.47 L 906.71 47.28 C 906.59 48.36 906.34 50.54 906.22 51.62 C 909.40 51.56 912.59 51.56 915.78 51.62 C 915.65 50.51 915.40 48.29 915.27 47.18 L 914.47 47.67 C 914.45 46.81 914.41 45.09 914.39 44.22 L 913.49 44.64 C 913.46 43.79 913.40 42.07 913.37 41.22 L 912.09 41.47 C 912.19 41.10 912.39 40.35 912.49 39.98 C 912.14 39.33 911.45 38.03 911.11 37.38 L 909.89 37.18 Z" />
<path fill="#ffffff" opacity="1.00" d=" M 955.35 14.03 C 967.25 13.68 979.15 13.87 991.05 13.88 C 996.35 13.95 1001.84 13.32 1006.90 15.34 C 1012.79 17.04 1017.65 21.58 1020.48 26.93 C 1022.67 33.06 1022.69 40.36 1019.19 46.03 C 1016.66 49.72 1012.57 51.91 1009.73 55.33 C 1021.79 56.13 1033.88 55.73 1045.96 55.59 C 1042.42 50.91 1037.28 47.24 1035.36 41.49 C 1033.98 37.07 1034.59 32.39 1034.76 27.86 C 1038.35 21.13 1044.36 14.46 1052.60 14.48 C 1067.10 14.24 1081.61 14.45 1096.12 14.37 C 1096.22 21.29 1095.84 28.21 1096.18 35.12 C 1085.70 35.97 1075.15 35.25 1064.65 35.53 C 1067.18 41.88 1074.07 45.31 1076.20 51.86 C 1077.56 58.52 1077.68 66.33 1072.76 71.65 C 1068.91 77.46 1061.60 79.65 1054.96 79.55 C 1037.09 79.41 1019.21 79.70 1001.34 79.39 L 1001.84 78.80 C 1000.07 78.62 998.44 78.06 996.85 77.37 C 995.30 76.18 993.80 74.96 992.31 73.72 C 992.05 73.35 991.53 72.62 991.27 72.25 L 990.35 72.66 L 990.71 71.29 L 989.37 71.62 L 989.68 70.24 L 988.32 70.67 L 988.71 69.83 C 988.33 69.46 987.57 68.71 987.19 68.34 L 986.46 68.62 L 986.69 67.41 L 985.97 67.38 C 984.94 66.05 983.87 64.77 982.83 63.47 C 982.12 63.26 980.70 62.83 979.98 62.61 C 980.02 68.12 980.19 73.63 980.12 79.15 C 971.62 79.72 963.10 79.68 954.60 79.25 C 953.09 73.16 955.26 67.03 953.96 60.94 C 953.35 51.68 954.01 42.38 954.14 33.12 C 953.51 27.29 953.55 21.43 953.76 15.58 C 954.15 15.19 954.95 14.42 955.35 14.03 M 980.16 33.58 C 979.97 35.84 980.14 38.12 980.22 40.39 C 986.12 40.56 992.04 40.65 997.94 40.20 C 998.01 38.49 998.09 36.78 998.20 35.06 C 992.77 31.84 986.11 32.45 980.16 33.58 Z" />
<path fill="#ffffff" opacity="1.00" d=" M 1135.49 35.60 C 1139.49 34.09 1143.80 34.20 1148.01 34.38 C 1165.35 34.41 1182.69 34.38 1200.03 34.39 C 1208.98 34.62 1218.00 33.80 1226.90 35.13 C 1238.74 34.88 1249.56 40.49 1259.55 46.27 C 1264.85 49.63 1271.26 50.16 1277.10 52.15 C 1285.70 53.04 1294.40 52.30 1303.05 52.54 C 1323.35 52.49 1343.66 52.64 1363.96 52.46 L 1363.07 53.62 C 1371.50 53.44 1379.93 53.15 1388.35 53.83 C 1388.94 54.06 1390.10 54.54 1390.69 54.78 L 1390.20 53.63 L 1392.84 53.61 L 1392.17 54.39 C 1397.79 54.31 1403.39 54.80 1409.02 54.69 C 1411.64 54.74 1414.36 54.38 1416.90 55.29 C 1424.74 55.40 1432.58 55.47 1440.42 55.62 C 1440.50 56.38 1440.67 57.90 1440.75 58.66 C 1433.97 60.73 1426.93 59.18 1420.03 59.16 C 1409.69 59.41 1399.33 59.10 1389.05 60.36 C 1363.71 60.95 1338.36 61.30 1313.02 61.00 C 1299.99 60.94 1286.96 61.31 1273.94 60.90 C 1266.90 60.36 1260.17 57.71 1253.95 54.53 C 1253.57 54.56 1252.83 54.62 1252.45 54.65 L 1252.52 53.35 C 1252.06 53.45 1251.13 53.64 1250.66 53.74 L 1250.60 52.73 C 1250.00 52.46 1248.78 51.93 1248.17 51.66 C 1247.23 51.16 1246.30 50.68 1245.36 50.24 L 1245.46 49.44 C 1245.12 49.48 1244.45 49.55 1244.11 49.59 C 1242.96 48.99 1241.78 48.49 1240.59 48.07 L 1240.64 47.52 C 1239.84 47.50 1238.24 47.47 1237.44 47.45 L 1237.79 46.65 C 1235.86 46.65 1234.04 46.28 1232.28 45.57 C 1230.65 45.48 1229.03 45.39 1227.42 45.31 C 1227.52 45.10 1227.71 44.68 1227.81 44.47 C 1197.20 44.69 1166.58 44.48 1135.96 44.58 C 1136.21 44.03 1136.69 42.94 1136.93 42.39 L 1135.71 42.56 C 1135.66 40.24 1135.60 37.92 1135.49 35.60 Z" />
<path fill="#ffffff" opacity="1.00" d=" M 217.42 37.29 C 227.56 35.97 237.83 36.57 247.99 35.45 C 261.19 35.43 275.70 32.40 287.63 39.77 C 285.27 41.58 282.44 42.60 279.49 42.83 L 279.66 43.35 C 270.11 43.36 260.48 44.48 250.99 42.90 C 244.36 42.07 237.59 43.05 230.99 41.89 C 223.84 41.74 216.69 41.32 209.56 40.64 C 209.46 39.92 209.27 38.49 209.17 37.77 C 211.92 37.65 214.68 37.61 217.42 37.29 Z" />
<path fill="#ffffff" opacity="1.00" d=" M 295.04 45.27 C 303.66 40.35 312.89 35.63 323.01 35.15 C 346.00 34.50 369.00 34.99 392.01 34.87 C 400.18 35.01 408.37 34.44 416.53 35.16 C 416.41 37.97 416.31 40.79 416.39 43.61 C 391.38 44.01 366.37 43.76 341.36 43.69 L 341.74 44.42 C 335.00 44.29 328.24 44.23 321.51 44.63 C 321.53 44.79 321.58 45.12 321.60 45.29 C 319.78 45.37 317.95 45.54 316.21 46.09 C 315.16 46.46 314.12 46.83 313.09 47.21 C 310.54 48.14 308.11 49.35 305.70 50.57 C 304.85 51.10 304.00 51.63 303.16 52.16 C 293.30 58.30 281.70 61.97 270.00 60.95 C 239.99 61.28 209.97 61.08 179.96 60.79 C 179.82 60.43 179.54 59.73 179.41 59.37 C 178.81 62.14 177.31 60.73 175.83 59.48 C 161.58 59.98 147.33 59.11 133.07 59.25 C 127.37 59.31 121.74 58.12 116.03 58.25 C 113.92 58.42 111.93 57.72 110.06 56.85 C 111.66 56.19 113.22 55.24 115.01 55.41 C 122.22 55.46 129.42 55.28 136.62 55.33 L 136.24 54.60 C 142.41 54.73 148.57 54.13 154.74 54.47 L 154.54 53.79 C 164.70 53.01 174.95 54.17 185.04 52.66 C 195.27 52.36 205.52 52.36 215.76 52.54 C 215.68 52.34 215.53 51.94 215.46 51.74 C 228.10 51.81 240.74 51.82 253.37 51.82 L 253.23 52.53 C 260.49 52.13 267.80 52.92 275.03 52.06 C 281.91 50.57 289.02 49.13 295.04 45.27 Z" />
<path fill="#ffffff" opacity="1.00" d=" M 1265.34 39.92 C 1272.97 34.23 1282.96 34.79 1291.98 34.95 C 1309.11 35.68 1326.24 36.55 1343.34 37.72 C 1343.31 38.73 1343.30 39.74 1343.30 40.76 C 1341.29 40.73 1339.27 40.68 1337.29 40.61 L 1337.74 41.46 C 1331.86 41.32 1325.95 41.31 1320.13 42.18 C 1313.65 42.47 1307.16 42.53 1300.69 42.81 L 1300.65 43.45 C 1290.08 43.20 1279.32 44.78 1268.96 42.05 C 1267.57 41.68 1266.47 40.70 1265.34 39.92 Z" />
<path fill="#ffffff" opacity="1.00" d=" M 315.82 54.38 C 322.35 52.22 329.29 52.82 336.05 52.75 C 354.58 52.73 373.11 52.39 391.64 52.88 C 391.45 55.92 391.27 58.96 391.05 62.00 C 373.36 62.01 355.68 61.99 337.99 62.01 C 329.97 62.51 321.56 60.22 315.82 54.38 Z" />
<path fill="#ffffff" opacity="1.00" d=" M 1161.31 53.07 C 1172.85 52.25 1184.42 52.98 1195.97 52.75 C 1207.31 52.83 1218.65 52.54 1229.98 53.01 C 1232.20 52.98 1234.44 53.62 1236.26 54.95 C 1232.63 57.90 1228.47 60.31 1223.89 61.35 C 1219.98 62.20 1215.96 61.98 1212.01 62.00 C 1195.22 62.00 1178.44 62.00 1161.67 62.00 C 1161.57 59.02 1161.40 56.05 1161.31 53.07 Z" />
<path fill="#ffffff" opacity="1.00" d=" M 299.75 63.51 C 301.93 61.37 304.68 60.01 307.52 58.97 C 314.29 65.00 322.71 70.15 332.05 70.13 C 339.03 70.15 346.02 70.12 353.00 70.13 C 359.33 70.13 365.67 70.13 372.00 70.13 C 380.67 70.13 389.33 70.13 398.00 70.13 C 404.13 70.39 410.30 69.20 416.36 70.61 C 416.31 73.38 416.34 76.15 416.36 78.92 C 414.27 79.26 412.16 79.59 410.04 79.62 C 385.01 79.29 359.98 79.71 334.95 79.38 C 329.02 79.47 323.24 77.85 317.50 76.60 C 310.75 73.62 304.49 69.21 299.75 63.51 Z" />
<path fill="#ffffff" opacity="1.00" d=" M 1235.88 66.18 C 1239.23 64.22 1242.01 61.45 1245.00 58.99 C 1247.81 59.93 1250.40 61.39 1252.93 62.91 C 1245.40 72.78 1233.12 79.55 1220.49 78.72 L 1220.55 79.31 C 1194.38 79.16 1168.21 79.31 1142.04 79.23 C 1140.02 79.21 1138.01 79.25 1136.04 79.61 C 1136.24 79.04 1136.64 77.89 1136.85 77.32 C 1136.55 77.38 1135.96 77.50 1135.67 77.56 C 1135.63 75.22 1135.58 72.89 1135.52 70.56 C 1137.02 70.41 1138.52 70.24 1140.04 70.08 C 1143.67 69.56 1147.34 69.80 1151.00 69.91 C 1155.99 69.70 1160.99 69.75 1165.99 69.87 C 1171.99 69.72 1177.97 70.43 1183.99 70.20 C 1191.32 69.65 1198.67 69.76 1206.03 69.82 C 1207.99 70.17 1209.99 70.25 1212.01 70.23 C 1213.33 70.02 1214.67 69.85 1216.03 69.72 C 1217.82 70.06 1219.64 70.27 1221.49 70.43 L 1221.49 69.65 C 1223.26 69.60 1225.01 69.50 1226.82 69.47 L 1226.35 68.66 C 1227.10 68.62 1228.58 68.53 1229.32 68.49 C 1230.29 68.07 1231.28 67.65 1232.28 67.25 C 1233.46 66.84 1234.64 66.50 1235.88 66.18 Z" />
<path fill="#ffffff" opacity="1.00" d=" M 288.83 66.33 C 290.82 66.08 291.87 67.63 293.02 68.94 C 294.26 70.18 295.39 71.54 296.23 73.09 C 294.87 73.36 293.75 74.06 293.07 75.24 C 289.56 76.65 285.84 77.38 282.16 78.18 C 279.13 78.42 276.06 78.47 273.09 79.17 C 264.73 79.61 256.36 79.46 248.00 79.48 C 211.31 79.48 174.62 79.48 137.93 79.48 C 126.60 79.40 115.25 79.71 103.93 79.16 C 100.02 78.39 96.01 78.59 92.05 78.48 C 74.17 78.55 56.32 77.42 38.45 77.29 L 38.50 76.75 C 31.39 76.91 24.28 76.52 17.17 76.48 L 17.58 75.23 C 17.04 75.40 15.96 75.73 15.43 75.90 L 15.18 73.43 C 18.71 73.50 22.23 73.29 25.75 73.35 L 25.15 72.54 C 36.24 72.50 47.34 72.55 58.43 72.36 L 58.48 71.66 C 76.33 71.23 94.16 70.48 112.01 69.88 C 164.69 69.83 217.38 69.94 270.06 69.83 C 274.98 70.02 279.71 68.61 284.57 68.25 L 284.09 67.57 C 285.77 67.59 287.45 67.36 288.83 66.33 Z" />
<path fill="#ffffff" opacity="1.00" d=" M 1256.66 74.09 C 1257.42 71.14 1259.52 68.91 1261.27 66.53 C 1265.65 66.74 1269.89 67.95 1274.10 69.12 C 1278.95 70.54 1284.07 70.18 1289.07 70.22 C 1342.73 70.22 1396.39 70.21 1450.06 70.23 C 1455.68 70.50 1461.37 70.21 1466.94 71.16 C 1475.65 71.28 1484.37 71.12 1493.07 71.67 C 1501.37 72.47 1509.71 71.75 1518.03 72.34 C 1524.91 72.60 1531.77 73.24 1538.66 73.34 C 1538.32 74.26 1538.00 75.18 1537.70 76.10 C 1518.82 77.24 1499.90 77.41 1480.98 77.73 C 1474.72 78.66 1468.38 78.25 1462.08 78.49 C 1449.84 78.76 1437.59 78.84 1425.35 78.69 L 1425.75 79.43 C 1377.07 79.25 1328.38 79.37 1279.69 79.40 C 1277.48 78.99 1275.29 78.47 1273.06 78.35 C 1267.35 78.07 1262.01 75.88 1256.66 74.09 Z" />
<path fill="#ffffff" opacity="1.00" d=" M 1086.27 73.37 C 1088.70 73.70 1091.17 73.69 1093.63 73.42 C 1093.59 74.92 1093.58 76.42 1093.60 77.92 L 1092.29 77.08 L 1092.59 78.34 C 1091.52 78.41 1090.46 78.48 1089.42 78.57 L 1089.45 76.10 C 1088.95 76.82 1087.95 78.25 1087.46 78.97 L 1087.78 76.36 L 1086.63 76.71 C 1086.51 75.60 1086.39 74.48 1086.27 73.37 Z" />
<path fill="#ffffff" opacity="1.00" d=" M 1368.09 142.05 C 1381.60 138.08 1395.95 137.64 1409.88 139.09 C 1414.93 139.38 1419.94 140.14 1424.94 140.98 C 1430.14 142.20 1435.96 141.82 1440.70 144.48 C 1442.27 144.52 1443.88 144.60 1445.49 144.65 L 1445.30 145.24 C 1447.14 145.36 1449.03 145.62 1450.83 146.18 C 1452.49 146.44 1454.19 146.73 1455.83 147.27 C 1458.33 147.42 1460.83 147.61 1463.36 147.77 L 1463.33 148.36 C 1466.10 148.31 1468.88 148.50 1471.67 148.62 L 1471.25 149.35 C 1474.04 149.30 1476.85 149.50 1479.66 149.62 L 1479.26 150.34 C 1482.30 150.28 1485.34 150.55 1488.38 150.78 L 1488.35 151.40 C 1490.05 151.35 1491.76 151.35 1493.50 151.34 C 1493.62 154.08 1493.78 156.82 1493.73 159.56 L 1494.29 159.45 C 1495.03 172.93 1493.61 186.53 1495.34 199.93 C 1495.29 204.45 1495.54 208.95 1495.76 213.45 L 1496.35 213.39 C 1496.30 218.39 1496.90 223.37 1496.70 228.37 C 1496.89 228.35 1497.26 228.29 1497.45 228.27 L 1497.43 230.72 C 1497.11 230.75 1496.46 230.81 1496.14 230.84 L 1496.97 232.33 L 1494.50 232.57 C 1494.47 231.78 1494.41 230.20 1494.37 229.40 L 1493.72 229.67 C 1493.13 227.26 1492.44 224.87 1492.25 222.40 L 1491.70 222.72 C 1491.53 220.81 1491.40 218.91 1491.00 217.04 C 1490.34 213.81 1489.60 210.59 1489.27 207.30 L 1488.79 207.75 C 1488.78 206.32 1488.33 205.08 1487.44 204.03 L 1487.76 203.30 L 1486.29 203.64 C 1486.38 203.15 1486.57 202.17 1486.66 201.68 L 1485.37 201.67 L 1485.52 200.48 L 1484.83 200.50 C 1473.10 182.73 1456.39 167.94 1436.88 159.27 C 1435.69 158.79 1434.48 158.43 1433.25 158.18 L 1433.42 157.07 C 1432.93 157.27 1431.94 157.67 1431.44 157.87 L 1431.58 156.54 C 1430.75 156.53 1429.09 156.52 1428.27 156.51 L 1428.56 155.57 C 1427.12 155.52 1425.70 155.48 1424.30 155.44 L 1424.62 154.80 C 1418.79 153.82 1413.00 152.49 1407.07 152.37 C 1400.71 152.24 1394.22 151.52 1387.99 153.10 C 1380.05 154.15 1371.90 155.55 1365.14 160.13 C 1356.01 165.42 1350.83 175.77 1349.97 186.05 C 1349.21 195.34 1350.47 205.26 1356.06 212.99 C 1362.21 222.81 1372.07 229.39 1381.96 235.00 C 1395.77 242.42 1410.05 249.01 1424.59 254.84 L 1424.30 255.97 L 1425.17 255.35 C 1425.82 255.67 1427.11 256.31 1427.75 256.63 L 1427.72 257.62 C 1428.20 257.50 1429.15 257.27 1429.63 257.15 L 1429.70 258.63 C 1430.20 258.50 1431.20 258.25 1431.70 258.12 L 1431.53 259.41 C 1432.36 259.42 1434.00 259.45 1434.83 259.46 L 1434.49 260.82 C 1435.04 260.64 1436.15 260.28 1436.71 260.09 L 1436.49 261.76 C 1437.03 261.58 1438.10 261.23 1438.64 261.05 L 1438.54 262.43 C 1439.38 262.43 1441.07 262.42 1441.92 262.42 L 1441.47 263.87 C 1442.01 263.67 1443.09 263.28 1443.62 263.08 L 1443.65 264.65 C 1444.15 264.52 1445.16 264.25 1445.67 264.12 L 1445.58 265.45 C 1446.39 265.45 1448.01 265.44 1448.82 265.44 L 1448.40 266.90 C 1448.94 266.70 1450.02 266.30 1450.57 266.10 L 1450.52 267.71 C 1451.07 267.59 1452.15 267.34 1452.70 267.21 L 1452.58 269.01 C 1453.13 268.70 1454.23 268.06 1454.78 267.75 L 1454.13 269.78 L 1455.81 269.09 L 1455.52 270.46 C 1456.37 270.45 1458.08 270.42 1458.93 270.41 L 1458.35 271.89 C 1458.91 271.70 1460.04 271.31 1460.60 271.12 L 1460.49 272.86 C 1461.02 272.67 1462.09 272.27 1462.62 272.07 L 1462.34 273.82 L 1465.27 273.00 L 1463.23 274.77 C 1463.83 274.61 1465.04 274.29 1465.65 274.13 L 1465.64 275.74 C 1466.16 275.59 1467.20 275.28 1467.72 275.12 L 1467.19 276.85 L 1468.80 276.11 L 1468.57 277.73 C 1469.10 277.59 1470.16 277.31 1470.69 277.16 L 1470.31 278.83 C 1470.79 278.69 1471.74 278.40 1472.21 278.26 C 1472.16 280.22 1472.99 280.87 1474.72 280.19 L 1474.32 281.80 L 1475.92 281.23 L 1475.57 282.80 C 1476.12 282.61 1477.24 282.23 1477.80 282.03 L 1477.33 283.06 C 1488.27 290.17 1497.07 300.37 1502.85 312.04 C 1505.43 317.13 1506.46 322.79 1508.32 328.14 C 1512.34 348.76 1509.63 371.69 1496.94 388.94 C 1493.64 393.90 1489.28 398.00 1484.97 402.05 C 1482.09 404.54 1478.70 406.34 1475.85 408.86 C 1475.20 409.08 1473.91 409.51 1473.27 409.73 L 1473.46 410.83 C 1472.92 410.69 1471.85 410.39 1471.32 410.24 L 1471.47 411.80 C 1470.96 411.66 1469.94 411.38 1469.42 411.24 L 1469.39 412.76 C 1468.88 412.62 1467.85 412.35 1467.34 412.21 L 1467.53 413.26 C 1465.76 413.73 1464.05 414.37 1462.28 414.74 C 1462.34 414.95 1462.45 415.39 1462.51 415.60 C 1461.67 415.57 1459.98 415.51 1459.13 415.48 L 1459.67 417.07 C 1459.11 416.81 1457.98 416.29 1457.41 416.03 L 1457.59 417.45 C 1456.73 417.46 1455.02 417.48 1454.16 417.49 L 1454.54 418.41 C 1453.08 418.45 1451.64 418.49 1450.22 418.52 L 1450.51 419.37 C 1448.79 419.44 1447.05 419.52 1445.37 419.57 C 1445.39 419.77 1445.43 420.16 1445.45 420.36 C 1444.40 420.40 1442.31 420.48 1441.26 420.51 L 1441.34 421.25 C 1439.29 421.39 1437.23 421.53 1435.22 421.57 L 1435.42 422.20 C 1434.33 422.28 1433.26 422.37 1432.20 422.47 L 1432.85 421.48 C 1431.95 421.49 1430.14 421.52 1429.24 421.53 L 1429.75 422.48 C 1422.89 422.39 1416.03 422.46 1409.18 422.49 L 1409.74 421.60 C 1405.36 421.63 1400.99 421.30 1396.62 421.54 C 1398.01 421.22 1399.41 420.97 1400.84 420.69 C 1396.93 420.52 1392.91 420.90 1389.15 419.64 C 1386.97 419.50 1384.83 419.32 1382.68 419.18 L 1382.75 418.59 C 1380.51 418.60 1378.33 418.37 1376.25 417.61 C 1374.67 417.50 1373.10 417.40 1371.55 417.29 C 1371.60 417.11 1371.68 416.74 1371.72 416.56 C 1369.80 416.64 1367.95 416.37 1366.22 415.61 C 1365.32 415.53 1363.54 415.36 1362.64 415.28 C 1362.65 415.14 1362.67 414.86 1362.68 414.72 C 1356.10 413.73 1349.56 412.55 1343.14 410.83 C 1340.06 409.72 1336.93 411.07 1333.91 411.62 C 1330.89 413.68 1327.24 414.49 1323.69 415.01 C 1322.60 408.10 1320.81 401.27 1320.35 394.27 L 1319.63 394.82 C 1319.95 391.26 1318.49 387.94 1318.30 384.44 L 1317.55 384.77 C 1317.51 383.32 1317.47 381.88 1317.45 380.44 L 1316.63 380.72 C 1316.51 379.44 1316.40 378.16 1316.30 376.90 C 1315.23 373.54 1314.60 370.05 1314.19 366.56 L 1313.69 366.56 C 1313.57 364.89 1313.43 363.23 1313.34 361.57 L 1312.68 361.58 C 1312.56 359.86 1312.45 358.16 1312.36 356.46 L 1311.76 356.67 C 1311.58 354.48 1311.41 352.30 1311.02 350.15 C 1310.30 347.91 1309.47 345.69 1309.15 343.35 L 1308.63 343.57 C 1308.49 341.82 1308.35 340.08 1308.30 338.34 L 1307.70 338.52 C 1307.54 336.45 1307.35 334.37 1307.29 332.30 L 1306.50 332.57 C 1306.48 331.15 1306.47 329.74 1306.48 328.33 L 1305.60 328.67 C 1305.53 326.87 1305.47 325.09 1305.44 323.30 L 1304.61 323.69 C 1304.55 320.68 1304.48 317.69 1304.33 314.69 C 1305.17 314.52 1306.04 314.36 1306.92 314.20 C 1308.29 319.43 1309.10 324.82 1310.91 329.93 C 1311.58 331.65 1311.65 333.50 1311.83 335.32 C 1324.48 350.50 1337.23 365.73 1352.19 378.74 C 1359.16 384.57 1365.84 390.81 1373.87 395.20 C 1375.53 396.18 1377.21 397.15 1378.92 398.10 C 1379.40 398.35 1380.37 398.85 1380.85 399.11 C 1383.24 400.59 1385.77 401.82 1388.42 402.78 L 1388.54 403.19 C 1389.13 403.36 1390.32 403.72 1390.91 403.90 C 1391.88 404.28 1392.87 404.66 1393.88 405.05 C 1394.86 405.38 1395.87 405.73 1396.88 406.10 C 1398.16 406.38 1399.53 406.68 1400.85 407.01 C 1402.21 407.35 1403.56 407.75 1404.92 408.21 C 1406.84 408.38 1408.74 408.52 1410.69 408.62 L 1410.35 409.33 C 1413.42 409.24 1416.50 409.24 1419.59 409.33 L 1419.50 408.75 C 1423.19 408.69 1426.89 408.24 1430.60 408.28 L 1430.45 407.75 C 1432.64 407.60 1434.84 407.41 1437.05 407.17 C 1442.02 405.58 1447.22 404.60 1451.83 402.01 C 1460.40 397.48 1468.38 390.72 1471.93 381.46 L 1472.79 381.48 C 1472.70 381.09 1472.51 380.30 1472.41 379.90 C 1472.84 379.42 1473.69 378.44 1474.11 377.95 C 1474.40 376.40 1474.55 374.83 1474.73 373.27 L 1475.36 373.53 C 1475.54 371.27 1475.49 368.97 1476.09 366.77 C 1476.84 359.41 1475.61 352.05 1474.20 344.85 C 1468.66 328.63 1454.78 317.04 1440.42 308.62 C 1424.45 299.08 1407.07 292.42 1390.13 284.85 C 1385.47 282.23 1380.50 280.22 1375.54 278.25 L 1375.41 277.95 C 1366.30 273.92 1357.47 269.22 1349.09 263.83 C 1348.28 263.31 1347.49 262.80 1346.72 262.29 C 1344.36 260.47 1341.83 258.83 1339.81 256.64 C 1339.50 256.63 1338.89 256.62 1338.58 256.61 L 1338.65 255.41 L 1337.98 255.42 C 1336.86 254.27 1335.67 253.20 1334.49 252.15 L 1334.45 251.93 C 1334.11 251.58 1333.42 250.88 1333.08 250.53 L 1332.34 250.66 L 1332.48 249.86 C 1332.15 249.61 1331.48 249.11 1331.15 248.86 C 1327.61 244.89 1324.35 240.65 1322.02 235.85 C 1321.33 234.17 1320.63 232.51 1319.90 230.86 C 1319.57 229.42 1319.30 227.96 1319.12 226.50 L 1318.91 226.44 C 1318.30 225.30 1317.56 224.23 1317.10 223.04 C 1316.64 217.70 1316.41 212.34 1316.50 206.99 C 1317.15 188.59 1325.12 170.18 1339.37 158.28 C 1342.55 155.06 1346.24 152.43 1350.10 150.09 C 1352.68 148.59 1355.31 147.18 1358.07 146.01 C 1358.56 145.80 1359.55 145.37 1360.05 145.16 C 1362.68 144.03 1365.39 143.06 1368.09 142.05 Z" />
<path fill="#ffffff" opacity="1.00" d=" M 747.40 139.54 C 756.90 139.30 766.40 139.32 775.91 139.46 L 775.55 140.17 C 778.10 140.29 780.64 140.47 783.20 140.57 C 785.26 141.55 787.57 141.52 789.82 141.50 C 789.77 141.69 789.68 142.06 789.64 142.25 C 791.49 142.33 793.35 142.46 795.23 142.51 C 797.33 143.45 799.63 143.56 801.92 143.52 L 801.57 144.27 C 803.67 144.37 805.78 144.47 807.91 144.49 L 807.42 145.34 C 809.21 145.39 810.99 145.46 812.81 145.47 C 812.76 145.69 812.67 146.13 812.62 146.35 C 814.33 146.40 816.05 146.42 817.78 146.41 C 817.71 146.63 817.57 147.08 817.50 147.30 C 819.26 147.38 821.03 147.44 822.82 147.48 C 822.77 147.68 822.68 148.09 822.63 148.30 C 824.65 148.41 826.69 148.51 828.73 148.56 L 828.24 149.52 C 829.59 149.50 830.95 149.48 832.33 149.46 C 832.59 156.61 832.09 163.83 833.60 170.88 C 834.47 179.00 835.49 187.12 837.35 195.08 C 838.04 203.01 840.35 210.64 842.01 218.40 C 841.36 218.39 840.05 218.38 839.40 218.37 C 837.77 210.00 834.18 202.22 832.02 194.00 C 831.46 191.27 829.39 189.29 827.77 187.16 C 821.49 179.25 814.96 171.37 806.90 165.20 C 800.50 160.41 793.20 156.80 785.48 154.72 C 780.06 153.55 774.52 153.01 768.98 152.83 C 764.29 152.62 759.67 153.79 754.98 153.71 C 748.17 153.34 741.67 155.93 735.57 158.64 C 727.39 162.19 720.63 168.23 714.47 174.54 C 703.67 188.02 697.63 204.87 695.60 221.90 C 694.73 235.27 694.81 248.70 695.84 262.06 C 697.70 270.96 699.78 279.94 703.87 288.13 C 709.48 300.83 718.72 312.25 731.03 318.94 C 736.43 322.51 742.76 324.27 748.96 325.90 C 759.79 329.00 771.53 328.20 782.10 324.44 C 791.02 322.08 799.24 317.19 806.10 311.14 C 806.70 301.44 806.26 291.71 806.24 282.00 C 806.11 275.62 805.44 268.76 801.42 263.53 C 798.20 259.53 794.06 256.39 789.74 253.67 C 784.35 253.56 778.93 253.75 773.55 253.22 L 773.54 252.64 C 772.15 252.68 770.76 252.72 769.38 252.76 C 769.35 252.13 769.28 250.86 769.25 250.23 C 779.77 250.49 790.38 249.73 800.83 251.27 C 815.59 251.27 830.36 251.48 845.12 251.21 C 849.69 250.26 854.40 250.34 859.06 250.42 C 867.36 250.14 875.68 249.92 884.00 249.89 C 883.79 250.47 883.36 251.64 883.15 252.22 C 875.60 254.79 867.00 251.59 859.81 255.53 C 855.25 258.60 851.34 262.74 848.60 267.49 C 847.21 272.88 846.05 278.44 846.29 284.04 C 846.37 295.60 846.20 307.16 846.37 318.72 L 845.61 318.31 C 845.60 319.22 845.59 321.03 845.58 321.93 C 845.01 321.75 843.88 321.39 843.32 321.21 L 843.68 322.50 C 842.80 322.51 841.05 322.52 840.18 322.53 L 840.61 323.49 C 839.15 323.52 837.70 323.55 836.26 323.57 L 836.57 324.81 C 836.18 324.74 835.40 324.61 835.01 324.54 C 833.70 325.12 832.32 325.51 830.98 325.93 C 829.83 326.49 828.60 326.73 827.29 326.67 C 827.36 326.84 827.51 327.20 827.59 327.37 C 826.14 327.26 824.89 327.64 823.84 328.49 C 823.16 328.50 821.81 328.53 821.14 328.54 L 821.73 329.51 C 820.82 329.51 819.02 329.53 818.12 329.54 L 818.73 330.51 C 817.84 330.52 816.04 330.52 815.15 330.53 L 815.65 331.49 C 814.77 331.50 813.03 331.53 812.15 331.54 L 812.64 332.50 C 811.77 332.51 810.04 332.52 809.18 332.52 L 809.61 333.32 C 808.91 333.40 807.52 333.56 806.82 333.64 C 805.40 334.43 803.75 334.58 802.18 334.72 L 802.58 335.51 C 801.09 335.53 799.61 335.54 798.14 335.55 L 798.79 336.53 C 797.92 336.53 796.18 336.51 795.31 336.50 C 795.33 336.70 795.37 337.09 795.39 337.29 C 794.48 337.38 792.67 337.57 791.77 337.66 C 790.01 338.41 788.09 338.60 786.22 338.67 L 786.49 339.26 C 783.37 339.52 780.26 339.70 777.14 339.56 L 777.78 340.53 C 763.30 340.57 748.59 341.53 734.45 337.76 C 706.37 333.14 679.35 317.17 664.78 292.27 C 658.55 281.73 655.16 269.81 652.75 257.89 C 651.81 248.26 651.83 238.56 652.28 228.90 C 652.52 219.33 655.53 210.14 658.39 201.09 C 664.20 186.26 673.62 172.68 686.41 163.03 L 686.41 162.12 L 687.84 162.80 L 687.35 161.13 C 687.86 161.28 688.89 161.59 689.40 161.75 L 689.14 160.28 L 690.72 160.64 L 690.27 158.84 L 691.83 160.00 L 691.36 158.25 C 691.87 158.36 692.90 158.60 693.42 158.72 L 693.47 157.13 L 695.28 157.75 C 695.27 157.36 695.26 156.59 695.25 156.21 L 696.71 156.75 L 696.34 155.10 C 696.85 155.28 697.85 155.63 698.36 155.81 L 698.31 154.27 C 698.84 154.36 699.91 154.54 700.44 154.63 L 700.19 153.11 L 701.73 153.90 L 701.42 152.19 C 701.94 152.34 703.00 152.66 703.53 152.81 L 703.49 151.18 C 704.02 151.36 705.09 151.70 705.62 151.88 L 705.24 150.51 C 706.07 150.49 707.72 150.43 708.55 150.41 L 708.30 149.08 C 708.82 149.25 709.85 149.59 710.36 149.76 L 710.38 148.17 C 710.94 148.34 712.04 148.68 712.60 148.84 L 712.30 147.44 C 713.14 147.47 714.81 147.52 715.64 147.55 L 715.05 146.65 C 716.65 146.55 718.24 146.25 719.69 145.52 C 720.37 145.45 721.74 145.33 722.43 145.27 L 722.18 144.36 C 723.01 144.39 724.65 144.45 725.47 144.48 C 725.40 144.22 725.24 143.70 725.16 143.45 C 726.59 143.44 728.02 143.42 729.46 143.39 L 729.14 142.62 C 732.31 142.33 735.33 141.19 738.55 141.24 L 738.28 140.57 C 741.34 140.52 744.40 140.30 747.47 140.21 C 747.45 140.04 747.42 139.71 747.40 139.54 Z" />
<path fill="#ffffff" opacity="1.00" d=" M 1124.42 142.75 C 1134.53 142.87 1144.68 142.28 1154.73 143.52 C 1164.15 143.37 1173.57 143.74 1183.00 143.66 C 1185.24 143.53 1187.40 144.20 1189.62 144.50 C 1214.35 144.93 1239.08 144.15 1263.82 144.50 L 1263.01 143.41 C 1275.06 143.49 1287.12 143.66 1299.17 143.31 C 1298.81 154.87 1299.08 166.46 1300.05 177.98 C 1299.92 188.91 1301.72 199.71 1301.47 210.64 L 1299.76 210.58 C 1299.51 209.07 1299.33 207.56 1298.68 206.17 C 1298.54 204.89 1298.43 203.61 1298.36 202.33 L 1297.55 202.80 C 1297.53 201.33 1297.52 199.87 1297.52 198.42 L 1296.55 198.81 C 1296.54 197.93 1296.52 196.18 1296.51 195.30 L 1295.72 195.71 C 1295.57 195.07 1295.28 193.78 1295.14 193.14 C 1286.50 179.11 1275.09 165.39 1258.90 160.12 C 1257.87 159.76 1256.85 159.42 1255.84 159.09 C 1254.52 158.68 1253.16 158.34 1251.87 157.97 C 1249.72 157.49 1247.52 157.30 1245.35 157.26 L 1245.46 156.69 C 1240.82 156.38 1236.17 156.24 1231.54 156.26 C 1230.97 199.16 1231.44 242.08 1231.29 285.00 C 1231.66 292.29 1230.80 299.70 1232.10 306.91 C 1232.36 308.54 1232.64 310.19 1232.98 311.83 C 1233.68 313.52 1234.38 315.23 1235.13 316.92 C 1235.61 317.73 1236.11 318.55 1236.61 319.37 C 1240.46 324.23 1245.40 328.18 1250.79 331.19 C 1256.22 332.81 1262.01 332.62 1267.63 332.75 C 1268.52 333.67 1269.42 334.61 1270.29 335.58 C 1260.88 336.24 1251.43 335.74 1242.01 335.59 C 1230.99 335.17 1219.96 335.38 1208.95 334.76 C 1190.59 335.41 1172.22 336.08 1153.85 336.25 C 1153.98 335.67 1154.23 334.51 1154.36 333.93 C 1160.41 333.92 1166.28 332.24 1172.34 332.31 C 1176.22 328.47 1181.48 326.26 1185.02 321.99 C 1188.16 319.13 1188.88 314.84 1189.99 310.96 C 1190.49 309.12 1190.62 307.21 1190.74 305.31 L 1191.42 305.79 C 1191.59 256.05 1191.37 206.31 1191.53 156.57 C 1187.09 156.56 1182.66 156.68 1178.24 156.57 L 1178.62 157.28 C 1176.14 157.40 1173.67 157.61 1171.21 157.64 L 1171.67 158.43 C 1170.20 158.49 1168.75 158.55 1167.31 158.60 L 1167.46 159.37 C 1166.02 159.46 1164.61 159.54 1163.21 159.62 L 1163.64 160.39 C 1162.92 160.47 1161.47 160.63 1160.75 160.70 C 1159.63 161.17 1158.50 161.56 1157.36 161.87 L 1157.42 162.84 C 1156.90 162.70 1155.86 162.44 1155.34 162.30 L 1155.75 163.75 L 1154.97 163.51 C 1154.31 163.85 1153.01 164.53 1152.35 164.87 L 1152.48 165.81 C 1151.95 165.69 1150.91 165.44 1150.39 165.32 L 1150.62 166.18 C 1139.62 172.85 1132.20 183.97 1125.87 194.92 C 1124.59 199.72 1124.12 204.68 1123.33 209.58 C 1122.23 209.98 1121.15 210.38 1120.09 210.78 C 1120.60 203.54 1120.68 196.15 1122.17 189.06 C 1122.54 174.23 1122.83 159.40 1122.74 144.56 C 1123.20 144.52 1124.11 144.45 1124.57 144.41 C 1124.53 144.00 1124.46 143.17 1124.42 142.75 Z" />
<path fill="#ffffff" opacity="1.00" d=" M 193.53 143.00 C 206.35 143.61 219.25 142.46 231.98 144.21 C 272.30 144.90 312.64 144.55 352.95 144.58 C 359.01 143.04 365.28 143.07 371.49 143.19 C 409.83 189.48 447.78 236.09 486.04 282.44 C 486.64 282.70 487.86 283.22 488.47 283.48 C 488.11 272.27 488.94 261.01 487.66 249.84 C 486.82 233.25 487.96 216.59 486.20 200.05 C 485.86 195.99 486.04 191.87 485.15 187.88 C 483.53 180.88 482.79 173.62 479.96 166.95 C 478.62 163.95 477.52 160.84 476.13 157.86 C 473.87 154.30 470.92 151.25 467.92 148.32 C 462.59 147.85 457.22 147.66 451.95 146.78 C 450.47 146.69 449.32 145.73 448.15 144.97 C 452.97 141.83 458.77 143.81 464.04 144.18 C 510.34 144.78 556.65 144.86 602.95 144.12 C 613.24 142.58 623.65 143.79 634.00 143.31 C 637.27 143.18 640.56 143.22 643.84 143.20 C 643.60 144.28 643.37 145.35 643.15 146.43 C 637.49 147.09 631.74 147.22 626.14 148.26 C 619.25 152.87 610.95 157.56 608.62 166.14 C 606.05 174.19 606.59 182.73 606.51 191.06 C 606.49 228.95 606.53 266.84 606.57 304.73 C 606.75 304.67 607.10 304.55 607.28 304.49 C 607.37 306.93 607.54 309.36 607.61 311.81 L 608.27 311.38 C 608.37 312.08 608.56 313.47 608.66 314.17 C 609.15 315.26 609.57 316.38 609.92 317.54 L 610.90 317.38 C 610.81 317.76 610.64 318.52 610.55 318.90 C 611.39 319.52 612.17 320.24 612.87 321.04 C 613.07 321.46 613.47 322.28 613.67 322.70 L 614.55 322.39 L 614.31 323.61 L 615.48 323.52 L 615.39 324.20 C 615.75 324.57 616.47 325.32 616.83 325.70 L 617.67 325.36 L 617.34 326.18 C 618.69 326.46 619.56 327.25 619.95 328.57 C 620.31 328.46 621.05 328.24 621.41 328.13 L 621.32 329.27 C 622.68 329.76 624.02 330.31 625.39 330.80 L 625.23 331.25 C 626.79 331.40 628.37 331.67 629.83 332.33 C 633.67 332.50 637.51 332.76 641.36 332.78 L 641.42 333.70 C 641.87 333.56 642.78 333.29 643.23 333.15 C 643.35 333.80 643.59 335.09 643.71 335.73 C 633.82 335.80 623.94 335.50 614.05 335.66 C 599.69 335.59 585.32 334.79 570.96 335.37 C 559.22 335.74 547.46 335.50 535.72 335.66 C 533.93 335.73 532.14 335.74 530.36 335.64 C 529.16 335.36 528.00 335.08 526.83 334.77 C 527.61 334.77 529.17 334.77 529.95 334.77 L 529.30 333.66 C 531.10 333.61 532.90 333.50 534.71 333.45 L 534.28 332.63 C 537.42 332.58 540.57 332.41 543.72 332.38 L 543.35 331.55 C 544.79 331.49 546.24 331.43 547.69 331.39 L 547.54 330.13 C 548.03 330.26 548.99 330.50 549.47 330.62 L 549.49 329.79 C 556.11 326.39 561.21 320.55 564.54 313.97 C 567.21 304.92 566.85 295.34 566.87 286.00 C 566.93 257.99 566.75 229.98 567.00 201.98 C 566.85 190.77 567.61 179.48 565.74 168.37 C 562.85 165.47 563.91 160.80 560.99 157.95 C 557.16 153.61 552.19 148.83 545.93 149.31 C 539.73 149.28 533.54 149.24 527.34 149.35 L 527.59 148.61 C 525.86 148.63 524.13 148.63 522.41 148.61 L 522.66 149.29 C 520.45 149.23 518.25 149.32 516.10 149.85 C 509.60 153.86 504.50 159.92 501.94 167.14 C 501.67 168.32 501.43 169.50 501.22 170.68 L 500.56 170.54 C 500.48 171.90 500.41 173.27 500.36 174.63 C 500.18 174.61 499.83 174.57 499.65 174.55 C 499.49 176.91 499.33 179.27 499.35 181.65 L 498.78 181.66 C 497.98 205.43 498.46 229.21 498.33 252.99 C 498.40 281.58 498.18 310.18 498.44 338.78 C 492.68 338.67 486.91 338.68 481.15 338.80 C 477.62 335.22 475.27 330.75 472.30 326.75 C 466.09 318.19 460.38 309.27 453.79 300.99 C 442.36 286.52 431.38 271.68 419.36 257.69 C 398.28 232.97 376.70 208.69 355.92 183.72 C 355.31 183.51 354.09 183.09 353.48 182.88 C 353.50 217.21 353.56 251.55 353.51 285.88 L 354.44 285.19 C 354.54 288.41 354.65 291.62 354.52 294.84 L 355.62 294.24 C 355.58 296.10 355.55 297.96 355.50 299.82 L 356.54 299.34 C 356.52 300.80 356.50 302.28 356.48 303.75 C 356.66 303.68 357.03 303.53 357.22 303.46 C 357.42 305.46 358.03 307.38 358.72 309.26 C 359.41 310.70 359.58 312.26 359.71 313.84 L 361.10 313.35 C 360.84 313.93 360.33 315.08 360.08 315.65 L 361.41 315.34 C 361.45 316.23 361.54 318.02 361.58 318.92 L 362.79 318.44 C 362.75 318.82 362.68 319.60 362.65 319.98 C 364.34 322.01 365.82 324.24 366.93 326.65 L 367.77 326.47 C 367.66 327.04 367.44 328.18 367.33 328.75 C 367.85 328.62 368.89 328.36 369.41 328.22 L 369.19 329.62 L 370.18 329.36 L 370.54 330.52 L 371.85 330.42 L 371.29 331.86 C 371.90 331.63 373.12 331.17 373.73 330.94 L 373.14 332.46 C 375.37 332.45 377.61 332.51 379.85 332.50 L 379.12 333.50 C 382.07 333.38 385.04 333.43 388.00 333.37 L 387.08 334.29 C 388.29 334.48 390.71 334.84 391.92 335.03 C 387.41 335.82 382.82 335.51 378.26 335.53 L 378.82 334.41 C 378.23 334.46 377.04 334.55 376.45 334.60 C 376.53 334.82 376.69 335.25 376.77 335.47 C 361.02 334.98 345.27 335.09 329.52 335.18 C 320.78 335.14 312.07 335.86 303.34 335.57 C 303.35 335.08 303.38 334.10 303.40 333.61 C 307.72 333.54 312.04 333.07 316.38 333.25 L 316.28 332.49 C 317.37 332.55 318.46 332.60 319.56 332.66 L 319.28 331.76 C 319.91 331.55 321.16 331.12 321.79 330.91 C 322.06 330.65 322.60 330.14 322.87 329.88 C 324.11 328.92 325.31 327.84 325.91 326.34 L 326.30 326.71 C 326.82 325.58 327.32 324.44 327.80 323.30 L 328.35 323.74 C 328.80 322.59 329.26 321.45 329.72 320.31 L 330.71 320.41 C 330.61 319.91 330.39 318.90 330.29 318.40 L 331.45 318.52 C 331.49 317.69 331.57 316.02 331.61 315.19 L 333.01 315.57 C 332.81 315.02 332.42 313.94 332.22 313.39 L 333.59 313.52 C 333.57 312.69 333.53 311.03 333.51 310.20 L 334.52 310.62 C 334.53 309.77 334.54 308.06 334.55 307.20 L 335.46 307.53 C 335.50 306.10 335.54 304.67 335.57 303.25 L 336.47 303.64 C 336.49 302.22 336.51 300.81 336.52 299.40 C 336.72 299.40 337.12 299.39 337.32 299.39 C 337.44 297.86 337.56 296.33 337.68 294.80 C 338.93 292.12 338.03 288.96 339.30 286.33 C 339.50 284.48 339.60 282.63 339.63 280.78 C 341.07 274.40 340.00 267.81 340.39 261.34 L 339.50 261.74 C 339.54 260.89 339.62 259.20 339.66 258.36 L 340.36 258.65 C 339.88 228.82 340.93 199.00 340.63 169.17 C 335.47 164.07 329.38 159.74 322.42 157.51 C 317.16 154.92 311.11 151.88 305.19 154.16 C 294.80 158.00 285.48 164.15 276.33 170.28 C 259.88 183.85 242.68 196.57 227.04 211.08 C 216.00 220.21 205.16 229.62 194.32 239.00 C 201.65 251.32 210.25 262.80 218.23 274.70 C 226.92 288.56 236.63 301.73 245.54 315.45 C 257.02 331.68 267.96 348.28 279.36 364.57 C 289.09 377.94 298.55 391.87 311.52 402.37 C 314.30 404.49 316.99 406.95 320.41 408.00 L 320.47 408.44 C 321.90 408.44 323.34 408.44 324.78 408.43 L 324.71 409.21 C 330.69 409.67 336.69 409.52 342.68 409.46 C 342.64 409.68 342.55 410.12 342.50 410.35 C 343.46 410.36 345.39 410.38 346.35 410.39 C 346.61 411.18 347.11 412.74 347.37 413.52 C 335.05 413.56 322.74 413.30 310.43 413.29 L 310.58 412.69 C 285.52 412.49 260.46 412.51 235.41 412.68 L 235.50 413.35 C 224.39 413.07 213.27 413.95 202.17 413.38 L 202.16 411.36 C 203.30 411.33 204.44 411.31 205.59 411.30 L 205.06 410.48 C 208.25 410.48 211.44 410.26 214.63 410.27 L 214.09 409.42 C 217.92 409.59 221.76 409.51 225.59 409.34 L 225.03 408.66 C 226.52 408.62 227.90 408.25 229.19 407.56 C 229.51 407.61 230.16 407.70 230.48 407.74 L 230.62 406.37 C 231.12 406.47 232.13 406.67 232.63 406.77 L 232.26 405.68 C 233.87 405.77 234.74 404.99 234.90 403.37 C 235.35 403.48 236.27 403.71 236.72 403.82 L 236.07 402.19 L 237.56 402.91 L 237.42 401.63 L 238.18 401.18 C 244.12 395.79 245.68 387.07 244.38 379.44 C 244.16 378.06 243.32 376.93 242.55 375.82 C 242.58 375.45 242.62 374.73 242.64 374.36 L 241.07 374.60 C 241.28 374.06 241.72 372.97 241.94 372.43 L 240.21 372.76 C 240.30 372.33 240.47 371.48 240.55 371.05 C 238.77 370.61 238.43 369.04 238.20 367.48 L 237.15 367.88 L 237.74 366.28 L 236.13 366.65 C 236.28 366.14 236.59 365.11 236.75 364.60 L 235.46 364.97 L 235.61 363.51 L 234.07 363.51 L 234.84 362.04 L 233.13 362.64 C 233.31 362.08 233.68 360.98 233.86 360.43 L 232.21 360.81 L 232.76 359.12 L 231.12 359.69 C 231.33 359.05 231.75 357.78 231.96 357.14 L 230.16 358.77 L 230.84 356.32 L 229.12 356.64 C 229.30 356.13 229.64 355.09 229.82 354.58 L 228.21 354.86 L 228.81 353.27 L 227.15 353.67 C 227.29 353.15 227.58 352.12 227.73 351.60 L 226.24 351.85 L 226.72 350.28 L 225.08 350.69 C 225.25 350.16 225.60 349.09 225.77 348.56 L 224.25 348.91 L 224.74 347.31 L 223.03 347.66 C 223.23 347.15 223.62 346.13 223.81 345.62 L 222.30 345.87 L 222.64 344.29 L 220.78 344.76 L 222.17 343.17 L 220.32 343.67 C 220.41 343.11 220.57 342.00 220.66 341.44 L 218.81 341.87 L 220.22 340.36 L 218.38 340.69 C 218.43 340.11 218.52 338.95 218.57 338.36 L 216.79 338.76 L 217.97 337.17 L 216.14 337.61 C 216.29 337.10 216.59 336.07 216.74 335.56 L 215.15 335.81 L 215.78 334.28 L 214.17 334.68 C 214.27 334.27 214.47 333.47 214.58 333.07 C 212.82 332.61 212.38 331.12 212.21 329.53 L 211.70 329.81 C 211.54 328.31 210.73 327.41 209.27 327.10 C 209.42 326.67 209.73 325.83 209.88 325.41 L 208.21 325.86 L 208.82 324.19 L 207.24 324.65 C 207.37 324.11 207.61 323.03 207.74 322.49 L 206.17 322.84 L 206.88 321.25 L 205.24 321.63 C 205.37 321.09 205.62 320.03 205.74 319.50 L 204.16 319.81 L 204.90 318.23 L 203.21 318.67 C 203.35 318.13 203.62 317.05 203.76 316.51 L 202.12 316.82 L 202.90 315.22 L 201.21 315.68 C 201.37 315.06 201.68 313.82 201.83 313.20 L 200.15 314.84 L 200.81 312.36 L 199.13 312.63 C 199.30 312.13 199.63 311.13 199.80 310.63 L 198.26 310.87 L 198.73 309.31 L 197.11 309.63 C 197.27 309.13 197.60 308.12 197.77 307.61 L 196.25 307.87 L 196.74 306.31 L 195.12 306.63 C 195.28 306.12 195.60 305.09 195.76 304.58 L 194.27 304.91 L 194.73 303.31 L 193.03 303.66 C 193.23 303.15 193.62 302.13 193.81 301.62 L 192.25 301.90 L 192.80 300.37 L 190.90 300.79 L 192.22 299.14 L 190.73 299.73 C 190.49 298.13 190.38 296.28 188.32 296.10 C 188.43 295.70 188.65 294.90 188.76 294.50 L 187.17 294.82 L 187.86 293.23 L 186.21 293.61 C 186.35 293.09 186.63 292.03 186.77 291.50 L 185.19 291.84 L 185.86 290.25 L 184.17 290.65 C 184.33 290.11 184.64 289.05 184.79 288.51 L 183.17 288.85 L 183.84 287.20 L 182.08 287.68 C 182.31 287.05 182.77 285.79 183.00 285.16 L 181.16 286.78 L 181.82 284.35 L 180.15 284.65 C 180.31 284.15 180.62 283.14 180.77 282.64 L 179.22 282.82 L 179.76 281.29 L 178.19 281.68 C 178.31 281.15 178.56 280.09 178.69 279.56 L 177.20 279.86 L 177.75 278.29 L 176.06 278.67 C 176.24 278.16 176.61 277.13 176.79 276.62 L 175.28 276.85 L 175.65 275.29 L 173.79 275.73 L 175.12 274.14 L 173.26 274.65 C 173.38 274.10 173.62 273.00 173.74 272.45 L 172.30 273.07 L 172.81 271.44 L 171.10 271.62 L 171.95 270.30 L 170.97 270.41 C 169.72 267.78 168.00 265.41 166.22 263.13 C 161.30 265.17 157.73 269.24 153.45 272.25 C 144.77 278.84 136.48 285.96 127.31 291.87 C 127.54 319.11 126.98 346.36 127.69 373.58 L 128.40 373.22 C 128.42 375.03 128.50 376.84 128.57 378.66 L 129.49 378.17 C 129.47 379.04 129.41 380.78 129.38 381.64 L 130.24 381.17 C 130.39 384.20 131.97 386.88 133.51 389.42 C 137.58 395.94 143.70 400.85 150.04 405.04 C 152.73 406.73 155.39 409.09 158.82 408.61 L 158.53 409.24 C 161.21 409.39 163.90 409.59 166.59 409.53 C 169.63 410.17 172.69 410.72 175.82 410.55 L 175.46 411.47 C 176.35 411.49 178.13 411.53 179.02 411.55 C 178.86 412.03 178.55 412.98 178.40 413.45 C 144.29 413.94 110.11 411.39 76.04 413.43 C 62.54 413.56 49.04 413.99 35.53 413.86 C 35.77 413.24 36.24 411.99 36.48 411.36 C 37.56 410.79 38.70 410.30 39.95 410.43 C 46.71 410.29 53.45 409.55 60.15 408.61 C 61.82 408.41 63.15 407.30 64.55 406.47 C 71.67 401.81 78.96 396.68 83.17 389.07 C 86.65 382.21 88.60 374.59 88.48 366.87 C 88.47 307.28 88.84 247.69 88.41 188.11 C 87.94 181.14 85.92 174.32 82.81 168.08 C 81.27 165.03 78.56 162.86 76.18 160.50 L 75.49 160.50 L 75.51 159.87 C 75.16 159.51 74.47 158.80 74.13 158.44 L 73.82 158.64 C 73.46 158.28 72.75 157.57 72.39 157.21 L 72.46 156.94 C 70.23 155.26 68.09 153.40 65.42 152.45 C 63.98 151.99 63.10 150.77 62.30 149.58 C 53.56 148.77 44.81 148.01 36.13 146.71 C 36.21 146.14 36.38 145.00 36.47 144.43 C 57.78 143.92 79.11 145.05 100.43 144.53 L 101.00 146.60 L 101.57 144.53 C 115.98 144.77 130.41 144.52 144.82 144.50 L 144.13 143.54 C 155.68 143.67 167.23 143.65 178.78 143.55 C 178.67 144.46 178.56 145.37 178.47 146.28 C 173.38 147.19 168.28 148.38 163.07 148.21 C 161.40 148.25 159.64 147.72 158.06 148.45 C 149.80 151.65 142.50 157.10 136.61 163.67 C 133.63 166.39 132.58 170.36 130.85 173.86 C 128.96 179.37 127.48 185.12 127.50 190.99 C 127.08 217.18 127.55 243.37 127.29 269.56 L 126.69 269.37 C 126.70 272.27 126.58 275.17 126.55 278.08 C 129.46 277.56 131.15 274.99 133.44 273.38 C 150.06 259.62 166.81 246.03 183.53 232.39 C 197.90 220.52 212.21 208.10 222.76 192.58 C 225.90 187.27 229.88 182.26 230.96 176.03 C 234.11 165.75 226.77 156.19 219.67 149.62 C 211.11 148.04 202.41 147.53 193.76 146.69 C 193.70 145.77 193.59 143.92 193.53 143.00 Z" />
<path fill="#ffffff" opacity="1.00" d=" M 864.77 143.31 C 876.14 143.65 887.63 142.60 898.92 144.17 C 912.27 144.57 925.72 145.15 939.01 143.51 C 952.63 143.43 966.25 143.10 979.88 143.16 C 979.82 143.78 979.70 145.04 979.63 145.66 C 975.43 146.69 971.09 146.69 966.80 146.84 C 962.83 148.10 958.25 148.44 955.31 151.72 L 955.56 152.23 C 954.49 152.75 953.42 153.26 952.36 153.76 L 952.41 153.98 C 951.19 155.02 950.02 156.12 948.92 157.26 L 948.33 157.46 L 948.61 158.68 L 947.17 158.32 L 947.89 159.78 L 946.38 159.36 C 946.45 159.85 946.59 160.83 946.66 161.32 L 945.38 161.52 C 945.45 161.98 945.61 162.90 945.69 163.36 L 944.61 163.32 C 944.55 164.11 944.43 165.69 944.37 166.48 L 943.62 166.24 C 943.51 167.99 943.40 169.74 943.29 171.49 L 942.56 171.21 C 942.39 189.04 942.05 206.87 942.32 224.70 C 974.40 224.63 1006.49 224.59 1038.58 224.71 C 1038.52 208.00 1038.56 191.29 1038.51 174.58 L 1037.52 174.73 C 1037.99 165.95 1032.89 157.84 1026.01 152.77 C 1022.68 150.44 1019.35 147.49 1015.07 147.36 C 1010.38 146.43 1005.41 147.14 1000.86 145.54 C 1000.76 144.96 1000.54 143.80 1000.43 143.22 C 1012.94 142.79 1025.45 143.85 1037.97 143.41 L 1037.25 144.45 C 1057.46 144.56 1077.69 144.46 1097.91 144.37 L 1097.00 143.37 C 1102.88 143.70 1108.77 143.35 1114.67 143.24 C 1114.68 144.08 1114.71 145.76 1114.72 146.60 C 1112.10 146.63 1109.49 146.73 1106.88 146.87 C 1103.62 147.61 1100.25 147.51 1096.98 148.06 C 1094.07 150.27 1090.92 152.15 1088.14 154.51 L 1087.28 154.53 C 1087.31 155.00 1087.37 155.93 1087.40 156.40 C 1086.92 156.37 1085.96 156.30 1085.48 156.27 L 1085.68 157.24 C 1085.24 157.46 1084.38 157.91 1083.94 158.13 C 1083.76 158.75 1083.39 159.99 1083.21 160.61 L 1082.07 160.58 C 1082.21 161.05 1082.49 161.99 1082.62 162.47 L 1081.29 162.41 C 1081.31 163.21 1081.34 164.80 1081.36 165.60 L 1080.23 165.07 C 1080.27 165.96 1080.36 167.75 1080.40 168.64 L 1079.32 168.02 C 1079.33 170.51 1079.26 173.00 1079.22 175.49 L 1078.26 174.96 C 1078.59 218.51 1078.02 262.07 1078.54 305.61 C 1078.74 305.60 1079.12 305.58 1079.32 305.58 C 1079.30 306.67 1079.26 308.86 1079.24 309.96 L 1080.25 309.61 C 1080.27 311.16 1080.29 312.72 1080.32 314.29 L 1081.41 313.47 C 1081.36 314.35 1081.24 316.12 1081.19 317.01 L 1082.09 316.42 C 1082.39 319.04 1084.14 321.12 1085.93 322.94 C 1089.97 326.78 1094.63 330.02 1099.77 332.22 C 1103.82 332.64 1107.90 332.45 1111.96 332.80 C 1113.77 333.01 1115.52 333.82 1116.48 335.46 C 1103.67 336.16 1090.82 335.61 1078.00 335.46 C 1074.35 335.23 1070.64 335.67 1067.06 334.82 C 1063.02 334.72 1058.98 334.75 1054.94 334.80 C 1043.04 336.13 1030.99 335.47 1019.03 335.75 C 1013.24 335.94 1007.38 335.25 1001.68 336.50 C 1001.30 336.11 1000.54 335.32 1000.16 334.93 C 1002.06 332.88 1005.00 333.35 1007.52 333.21 L 1007.49 332.72 C 1010.37 332.66 1013.26 332.44 1016.15 332.24 C 1024.83 329.47 1033.24 323.12 1036.05 314.15 C 1036.35 312.78 1036.70 311.42 1037.14 310.09 C 1038.04 304.77 1037.21 299.33 1038.18 294.05 C 1038.20 285.03 1038.42 276.00 1038.05 267.00 C 1038.49 257.13 1038.07 247.25 1038.28 237.38 C 1027.53 238.05 1016.77 237.43 1006.02 237.60 C 984.68 237.76 963.35 237.65 942.01 237.59 C 942.10 257.73 942.18 277.88 942.09 298.02 C 942.02 303.80 942.65 309.66 944.62 315.13 C 947.24 321.85 953.32 326.25 958.88 330.43 C 961.95 333.03 966.25 332.25 969.95 332.85 C 972.97 333.40 976.04 333.71 979.13 333.84 C 979.17 334.45 979.25 335.67 979.29 336.27 C 967.52 335.92 955.71 336.33 943.97 335.21 C 935.31 335.67 926.66 334.80 918.00 334.87 C 902.66 335.23 887.31 335.73 871.97 335.88 C 869.12 335.77 865.95 336.50 863.62 334.46 C 870.30 331.51 877.90 333.16 884.67 330.75 C 889.74 327.30 894.87 323.52 898.37 318.40 C 903.06 309.35 902.34 298.85 902.38 288.97 C 902.38 258.32 902.38 227.67 902.38 197.02 C 902.28 187.62 902.90 178.14 901.17 168.85 C 899.29 159.69 891.49 153.41 884.04 148.61 C 880.34 147.34 876.38 147.49 872.54 147.19 L 872.50 146.79 C 869.81 146.71 867.09 146.60 864.56 145.65 C 864.61 145.06 864.71 143.90 864.77 143.31 Z" />
<path fill="#ffffff" opacity="1.00" d=" M 653.63 387.26 C 653.57 387.07 653.47 386.70 653.42 386.51 C 659.13 386.29 664.86 386.34 670.57 386.50 L 670.35 387.12 C 676.76 388.50 682.38 392.70 685.39 398.53 C 687.54 404.34 687.82 410.86 686.44 416.88 C 684.92 423.41 679.75 428.83 673.44 430.92 L 673.41 431.80 C 673.07 431.77 672.39 431.70 672.05 431.66 C 666.90 433.47 661.17 432.60 655.81 432.36 C 653.37 432.49 653.48 429.81 653.37 428.13 C 655.32 428.99 657.40 429.59 659.54 429.75 L 659.33 430.35 C 661.10 430.31 662.87 430.31 664.65 430.35 L 664.41 429.71 C 665.98 429.58 667.59 429.44 669.18 429.30 C 681.28 419.77 681.15 398.36 668.16 389.68 C 664.36 389.32 660.54 389.20 656.75 389.66 C 655.36 390.44 653.92 391.13 652.50 391.82 L 652.31 392.07 C 651.55 392.80 650.80 393.55 650.07 394.31 L 649.72 394.47 C 649.29 395.56 648.86 396.64 648.44 397.74 L 647.62 397.17 C 647.59 398.01 647.53 399.70 647.50 400.54 L 646.64 400.26 C 646.57 401.31 646.41 403.41 646.34 404.46 L 645.59 404.30 C 645.66 407.43 645.64 410.57 645.59 413.71 L 646.29 413.50 C 646.41 415.26 646.55 417.01 646.67 418.79 L 647.47 418.31 C 647.52 419.20 647.61 420.97 647.66 421.85 L 648.94 421.48 C 648.78 422.00 648.44 423.03 648.27 423.54 L 649.09 423.44 C 650.15 425.11 651.15 427.02 653.20 427.66 C 653.79 430.03 652.36 431.77 649.91 431.71 L 649.36 429.90 L 648.17 430.94 L 648.35 429.31 C 647.86 429.43 646.88 429.67 646.39 429.79 L 646.37 428.89 C 640.67 426.84 637.00 420.94 636.12 415.12 C 635.25 409.88 635.46 404.28 637.49 399.33 C 639.47 394.94 643.35 391.89 647.15 389.15 C 647.63 388.92 648.59 388.45 649.07 388.22 C 650.52 387.61 652.04 387.33 653.63 387.26 Z" />
<path fill="#ffffff" opacity="1.00" d=" M 699.14 387.26 C 712.63 387.32 726.12 387.35 739.61 387.24 C 739.30 391.44 739.41 395.65 739.64 399.85 C 739.06 399.80 737.88 399.69 737.30 399.64 C 736.15 397.00 735.59 393.60 732.72 392.24 C 727.53 388.96 721.21 391.01 715.47 390.39 C 715.59 395.40 715.50 400.42 715.37 405.43 C 717.82 405.58 720.36 406.96 722.76 405.82 C 726.53 404.47 728.65 400.70 730.40 397.35 C 730.94 401.53 730.61 405.76 730.71 409.97 C 730.64 412.45 731.03 415.06 730.03 417.42 L 729.46 415.48 L 728.14 415.42 C 728.25 414.93 728.48 413.97 728.59 413.49 L 727.22 413.31 C 727.32 412.89 727.51 412.05 727.61 411.63 C 726.34 410.39 724.84 409.45 723.29 408.64 C 720.68 408.58 718.08 408.42 715.49 408.33 C 715.55 414.75 715.24 421.17 715.64 427.59 L 716.62 427.31 L 716.46 428.10 C 717.57 428.46 718.68 428.85 719.79 429.27 C 720.41 429.34 721.66 429.47 722.29 429.54 C 722.58 430.08 723.17 431.17 723.47 431.71 C 715.25 431.69 707.03 431.68 698.81 431.71 C 699.04 431.22 699.51 430.23 699.75 429.73 C 701.56 429.43 703.38 429.14 705.18 428.69 C 707.02 419.20 705.52 409.53 706.06 399.97 C 706.26 397.19 705.72 394.44 705.34 391.70 C 704.39 391.22 703.44 390.74 702.51 390.26 L 702.70 389.67 C 701.91 389.63 700.33 389.54 699.54 389.50 C 699.44 388.94 699.24 387.82 699.14 387.26 Z" />
<path fill="#ffffff" opacity="1.00" d=" M 766.55 387.35 C 780.13 387.39 793.72 387.61 807.30 387.26 C 807.32 391.03 807.36 394.81 807.41 398.58 L 806.64 398.36 C 806.68 399.35 806.76 401.34 806.80 402.34 C 805.89 400.14 804.85 397.98 804.26 395.67 C 801.88 391.35 796.67 389.86 792.04 390.54 C 791.68 395.02 790.92 399.52 791.38 404.04 C 792.50 412.47 789.83 421.08 792.35 429.38 C 794.01 429.36 795.70 429.39 797.37 429.44 C 797.53 430.00 797.86 431.14 798.02 431.70 C 790.27 431.56 782.53 431.77 774.79 431.58 C 775.24 431.25 776.15 430.59 776.60 430.26 L 776.39 429.49 C 777.22 429.47 778.89 429.45 779.72 429.43 L 779.49 428.55 C 780.17 428.50 781.54 428.39 782.22 428.34 C 782.50 415.73 782.21 403.13 782.28 390.53 C 780.75 390.60 779.24 390.67 777.74 390.72 C 775.59 391.47 773.21 391.82 771.45 393.36 C 769.30 394.94 769.02 397.82 767.68 399.96 C 767.57 399.07 767.36 397.28 767.25 396.39 L 766.55 396.77 C 766.60 393.63 766.55 390.49 766.55 387.35 Z" />
<path fill="#ffffff" opacity="1.00" d=" M 816.45 387.51 C 824.75 387.65 833.14 386.89 841.40 387.92 C 840.61 388.08 839.04 388.40 838.26 388.56 L 838.74 389.50 C 838.06 389.54 836.69 389.61 836.01 389.64 C 835.37 390.55 834.60 391.33 833.72 392.00 C 832.25 396.63 832.30 401.68 833.31 406.39 C 840.42 406.20 847.55 406.44 854.67 406.23 C 854.52 400.72 856.00 394.66 853.22 389.63 C 851.59 389.60 849.99 389.56 848.39 389.56 C 848.32 388.98 848.17 387.82 848.10 387.25 C 856.08 387.39 864.06 387.32 872.04 387.29 C 871.89 387.82 871.58 388.89 871.43 389.42 C 870.05 389.52 868.67 389.61 867.30 389.68 L 867.51 390.79 C 867.05 390.68 866.14 390.45 865.68 390.34 C 865.42 391.18 864.91 392.85 864.65 393.69 C 864.28 405.00 864.64 416.32 864.55 427.63 L 865.54 427.49 L 865.33 428.20 C 865.70 428.47 866.44 429.02 866.82 429.30 C 867.91 429.39 869.02 429.49 870.15 429.59 C 870.43 430.11 871.00 431.16 871.28 431.69 C 863.14 431.28 854.85 432.50 846.83 431.00 C 849.26 430.16 851.70 429.25 854.32 429.21 C 855.68 422.46 856.18 415.47 854.54 408.72 C 847.24 408.77 839.95 408.70 832.65 408.89 C 833.03 414.59 832.26 420.32 832.98 426.00 C 833.22 427.36 834.22 428.40 834.88 429.59 C 836.65 429.82 839.89 428.65 839.68 431.57 C 840.04 431.72 840.76 432.02 841.12 432.17 C 833.21 432.39 825.31 432.23 817.40 432.26 C 817.43 431.31 817.47 430.37 817.52 429.44 C 818.35 429.48 820.01 429.56 820.84 429.60 L 820.45 428.92 C 821.93 428.59 824.13 428.12 823.85 426.10 C 823.95 415.03 824.35 403.93 823.58 392.88 C 822.10 390.44 819.70 388.78 816.77 389.24 C 816.69 388.81 816.53 387.94 816.45 387.51 Z" />
<path fill="#ffffff" opacity="1.00" d=" M 881.02 387.25 C 894.50 387.34 907.99 387.33 921.47 387.25 C 921.40 391.45 921.36 395.66 921.60 399.86 C 921.06 399.80 920.00 399.66 919.46 399.59 L 919.39 399.03 C 917.16 396.06 915.88 392.11 912.02 390.82 C 907.21 390.41 902.36 390.53 897.55 390.04 C 897.43 395.47 896.02 400.94 897.33 406.34 C 900.46 405.95 903.68 405.78 906.71 404.80 C 908.65 403.13 909.68 400.72 910.66 398.41 C 911.18 398.40 912.23 398.38 912.75 398.37 C 912.49 403.76 912.79 409.16 912.52 414.54 C 912.19 415.22 911.52 416.57 911.19 417.24 C 909.86 414.32 908.80 410.97 905.99 409.11 C 903.17 408.34 900.22 408.56 897.35 408.45 C 896.21 415.12 896.45 421.98 897.60 428.64 C 899.12 429.84 901.26 428.97 903.06 429.20 C 906.07 428.58 909.18 428.56 912.25 428.25 C 914.21 427.28 916.23 426.39 917.99 425.05 C 918.79 424.26 919.71 423.64 920.74 423.17 L 920.26 422.07 C 920.78 422.24 921.81 422.58 922.33 422.74 L 922.45 421.09 L 924.63 421.31 C 924.57 421.96 924.45 423.25 924.40 423.90 C 923.25 426.41 922.60 429.12 921.42 431.62 C 909.27 432.03 897.11 431.28 884.97 431.87 C 883.61 432.19 882.25 432.40 880.88 432.47 C 880.83 430.44 882.41 429.56 883.98 428.79 C 885.17 428.54 886.37 428.30 887.59 428.09 C 888.07 424.42 887.59 420.72 887.65 417.04 C 887.67 408.82 887.96 400.60 887.45 392.40 C 886.06 391.35 884.61 390.40 883.16 389.46 C 882.76 389.55 881.95 389.74 881.55 389.83 C 881.41 389.19 881.15 387.90 881.02 387.25 Z" />
<path fill="#ffffff" opacity="1.00" d=" M 512.95 406.43 C 519.30 406.20 525.70 406.79 532.01 405.82 C 556.89 405.49 581.77 405.58 606.64 405.29 C 606.58 408.05 606.64 410.81 606.50 413.57 C 602.71 414.38 598.83 413.77 595.00 413.76 C 577.67 413.40 560.31 413.98 543.00 412.92 C 518.11 412.67 493.22 412.47 468.33 412.41 L 468.73 411.63 C 467.59 411.62 465.31 411.60 464.17 411.59 L 464.82 412.38 L 462.23 412.39 L 462.76 411.58 C 436.35 411.76 409.94 411.47 383.54 411.14 C 383.53 410.49 383.52 409.19 383.51 408.55 C 392.90 408.28 402.30 408.34 411.69 408.40 L 411.33 407.60 C 430.12 407.35 448.92 407.38 467.72 407.40 L 467.39 406.70 C 482.57 406.87 497.76 406.53 512.95 406.43 Z" />
<path fill="#ffffff" opacity="1.00" d=" M 953.54 405.33 C 982.27 405.41 1011.00 405.62 1039.72 405.62 L 1039.33 406.37 C 1041.46 406.33 1043.60 406.33 1045.76 406.40 L 1045.25 405.65 C 1054.26 405.83 1063.29 405.86 1072.31 405.81 L 1072.28 406.46 C 1098.02 406.16 1123.77 406.77 1149.52 406.64 L 1149.36 407.34 C 1189.02 407.34 1228.69 407.50 1268.36 407.83 L 1268.30 408.52 C 1269.98 408.38 1271.67 408.27 1273.38 408.14 C 1273.52 409.22 1273.65 410.37 1274.37 411.27 C 1246.19 411.18 1218.01 411.64 1189.83 411.60 C 1187.24 412.16 1184.60 412.36 1181.97 412.24 C 1147.07 412.43 1112.18 412.75 1077.29 412.59 L 1077.61 413.29 C 1036.22 413.24 994.82 413.50 953.42 413.69 C 953.59 410.90 953.65 408.11 953.54 405.33 Z" />
<path fill="#ffffff" opacity="1.00" d=" M 68.51 493.42 C 82.71 479.94 102.81 474.72 121.99 474.86 C 139.14 474.56 156.78 478.97 170.48 489.62 C 176.44 494.18 181.35 500.06 184.93 506.65 L 185.78 506.51 C 185.67 507.04 185.44 508.10 185.33 508.63 L 186.80 508.57 C 186.67 509.08 186.43 510.10 186.31 510.61 L 187.76 510.57 C 187.70 510.93 187.59 511.65 187.54 512.01 C 188.23 513.17 188.65 514.44 188.80 515.80 L 189.52 515.29 C 189.52 516.17 189.53 517.94 189.54 518.82 L 190.48 518.38 C 190.51 519.84 190.54 521.31 190.56 522.78 L 191.40 522.35 C 191.59 525.54 191.50 528.78 192.28 531.92 C 192.80 537.19 192.13 542.48 192.42 547.77 L 191.65 547.21 C 191.65 549.32 191.55 551.44 191.44 553.55 L 190.78 553.26 C 190.64 554.82 190.43 556.42 189.73 557.86 C 189.62 558.52 189.41 559.82 189.30 560.48 L 188.77 560.33 C 188.53 561.54 188.25 562.74 187.93 563.93 C 187.68 564.41 187.16 565.38 186.91 565.86 C 186.42 567.11 185.88 568.35 185.36 569.59 C 183.15 572.04 181.32 574.77 179.46 577.48 C 171.83 587.51 160.54 594.42 148.43 597.65 C 138.84 601.50 128.23 601.79 118.02 601.88 C 97.36 601.73 75.48 594.23 62.51 577.43 C 57.09 571.01 54.29 562.99 52.08 555.01 C 50.26 544.82 50.87 534.39 51.64 524.13 C 54.16 512.57 59.57 501.38 68.51 493.42 M 98.57 488.37 C 88.55 495.10 82.97 506.56 80.04 517.94 C 77.93 525.50 79.82 533.33 79.63 541.01 C 79.78 547.72 78.97 554.57 80.88 561.11 C 83.46 567.61 85.78 574.36 90.00 580.02 C 100.42 593.01 119.18 598.56 134.97 593.13 C 146.88 589.13 155.97 578.81 160.17 567.17 C 163.09 558.45 165.15 549.30 164.76 540.05 C 165.11 526.43 162.74 512.27 155.36 500.60 C 149.19 490.41 138.08 483.05 126.08 482.33 C 116.61 481.31 106.43 482.61 98.57 488.37 Z" />
<path fill="#ffffff" opacity="1.00" d=" M 1431.88 477.75 C 1437.43 476.08 1443.18 475.14 1448.98 475.04 C 1451.96 474.54 1455.02 474.53 1458.01 475.06 C 1469.35 474.99 1480.19 478.68 1491.39 479.86 L 1491.55 480.10 C 1494.50 481.48 1497.70 481.54 1500.91 481.30 C 1500.96 492.47 1500.30 503.69 1501.58 514.83 C 1502.13 519.43 1502.67 524.04 1502.80 528.68 C 1501.57 528.13 1499.50 528.81 1498.97 527.26 C 1498.22 522.94 1497.39 518.62 1497.24 514.23 C 1488.99 502.28 1478.42 491.27 1464.90 485.41 C 1453.35 481.00 1439.25 483.62 1430.43 492.42 C 1423.99 498.34 1419.98 506.46 1418.02 514.89 C 1414.78 525.30 1415.62 536.32 1415.91 547.05 C 1418.07 558.59 1422.63 570.45 1432.01 578.06 C 1435.68 581.59 1440.34 583.67 1444.88 585.82 C 1457.01 589.00 1470.47 589.37 1482.12 584.20 C 1488.31 581.08 1494.43 577.36 1498.95 571.99 C 1502.44 567.89 1505.43 563.38 1509.25 559.56 C 1511.04 561.38 1512.74 563.34 1514.07 565.56 C 1506.42 578.11 1495.86 589.27 1482.40 595.55 C 1470.23 601.53 1456.26 602.97 1442.90 601.50 C 1427.36 600.16 1412.53 592.44 1402.20 580.82 C 1397.10 574.95 1392.98 568.03 1391.25 560.39 C 1391.09 560.43 1390.77 560.51 1390.61 560.55 C 1390.51 558.84 1390.41 557.15 1390.32 555.46 L 1389.52 555.86 C 1389.43 554.07 1389.34 552.32 1389.26 550.55 L 1388.40 550.78 C 1388.47 549.24 1388.54 547.70 1388.63 546.18 L 1387.49 546.96 C 1387.52 541.33 1387.45 535.71 1387.47 530.09 L 1388.32 530.72 C 1388.39 527.88 1388.54 525.03 1388.54 522.19 L 1389.58 522.83 C 1389.53 521.90 1389.41 520.04 1389.36 519.11 L 1390.11 519.64 C 1392.04 508.96 1398.32 499.51 1406.17 492.21 C 1410.12 488.59 1414.32 485.08 1419.34 483.05 L 1419.60 482.30 C 1420.07 482.40 1421.02 482.59 1421.49 482.69 L 1421.44 481.34 C 1421.94 481.44 1422.94 481.64 1423.44 481.74 L 1423.35 480.86 C 1424.66 480.59 1425.92 480.12 1427.10 479.45 C 1427.45 479.51 1428.15 479.63 1428.50 479.69 L 1428.34 478.82 C 1429.52 478.52 1430.70 478.16 1431.88 477.75 Z" />
<path fill="#ffffff" opacity="1.00" d=" M 198.92 477.30 C 206.58 477.61 214.32 477.15 221.92 478.22 C 232.30 478.35 242.69 478.58 253.07 478.13 C 260.79 477.29 268.57 477.52 276.33 477.39 C 275.91 478.37 275.51 479.36 275.11 480.35 C 269.87 481.31 264.51 481.39 259.27 482.43 C 254.41 487.17 249.88 492.83 249.26 499.87 L 248.55 499.22 C 248.56 529.34 248.65 559.46 248.45 589.58 L 249.21 589.30 C 249.39 589.78 249.75 590.76 249.93 591.25 C 253.87 591.64 257.86 591.51 261.82 591.45 L 261.62 592.13 C 265.52 592.08 269.41 592.18 273.31 592.19 L 273.04 591.52 C 274.90 591.49 276.76 591.43 278.62 591.38 L 278.07 590.66 C 288.28 589.73 296.63 583.31 304.88 577.84 C 308.13 575.56 312.05 573.69 313.89 569.96 C 316.52 564.31 320.20 559.21 322.53 553.41 C 323.23 553.31 324.63 553.12 325.33 553.02 C 323.25 558.32 321.19 563.63 318.75 568.77 C 314.29 578.64 311.86 589.27 307.75 599.26 C 301.48 598.88 295.15 599.51 288.92 598.50 C 284.64 597.85 280.30 598.20 276.00 598.12 C 259.99 598.20 243.98 597.97 227.98 598.23 C 218.73 599.66 209.35 598.83 200.03 599.26 C 199.97 598.34 199.84 596.50 199.77 595.58 C 204.05 595.24 208.37 594.98 212.59 594.17 C 216.32 591.29 218.68 587.02 221.12 583.06 C 223.05 580.14 222.69 576.53 223.25 573.23 C 223.31 549.44 223.25 525.65 223.22 501.87 C 222.22 496.81 220.38 491.93 217.25 487.80 C 215.86 486.07 214.31 484.47 212.54 483.14 L 212.50 482.79 C 208.20 481.54 203.70 481.58 199.33 480.82 C 199.13 479.65 199.07 478.46 198.92 477.30 Z" />
<path fill="#ffffff" opacity="1.00" d=" M 362.10 478.25 C 376.02 476.77 390.04 477.28 404.01 476.99 C 412.35 476.57 420.65 478.45 428.45 481.30 C 445.93 486.87 460.71 500.51 467.68 517.49 C 468.83 520.14 469.10 523.04 469.27 525.90 L 470.29 525.23 C 471.08 533.50 473.05 541.87 471.40 550.17 C 470.09 556.13 469.20 562.26 466.66 567.87 C 461.51 579.04 451.78 587.58 440.80 592.81 C 433.87 595.93 426.43 597.84 418.96 599.08 C 402.32 600.17 385.64 598.87 368.98 599.10 C 360.35 598.12 351.67 598.04 342.99 598.00 C 335.94 597.95 328.97 599.20 321.92 599.29 C 321.88 598.42 321.79 596.70 321.74 595.83 C 325.99 595.20 330.28 594.90 334.52 594.25 C 338.74 590.86 342.56 586.47 344.07 581.13 C 346.61 573.69 345.91 565.74 346.00 558.02 C 345.91 539.96 346.22 521.90 345.77 503.85 C 345.40 495.49 340.94 487.73 334.43 482.59 C 330.30 481.54 326.02 481.46 321.84 480.70 C 321.78 479.89 321.65 478.27 321.58 477.46 C 335.07 478.28 348.59 479.12 362.10 478.25 M 375.14 485.19 C 373.86 485.42 372.59 485.67 371.32 485.92 C 371.14 504.61 371.25 523.31 371.26 542.00 C 371.47 556.91 370.83 571.84 371.52 586.73 C 379.69 592.63 390.26 593.20 399.99 592.94 C 410.46 592.21 421.53 589.66 429.48 582.39 C 439.49 573.58 443.86 559.96 444.29 546.96 C 444.50 537.16 444.71 527.05 441.18 517.75 C 436.26 503.13 424.54 491.11 409.90 486.12 C 406.83 484.99 403.63 484.13 400.33 484.27 L 400.50 483.68 C 394.21 483.45 387.91 483.39 381.61 483.74 L 381.63 484.27 C 379.43 484.26 377.22 484.45 375.14 485.19 Z" />
<path fill="#ffffff" opacity="1.00" d=" M 526.27 477.22 C 532.81 477.44 539.39 477.28 545.88 478.15 C 553.96 478.40 562.04 478.57 570.11 478.13 C 576.01 477.26 582.00 477.69 587.94 477.44 C 596.59 477.34 605.55 476.35 613.91 479.20 C 622.62 481.92 631.56 486.70 635.89 495.13 C 638.14 499.50 641.28 503.83 641.12 508.97 C 640.97 512.89 640.90 516.81 640.86 520.73 C 639.66 523.21 638.13 525.51 636.89 527.97 C 634.19 533.73 628.07 536.45 623.62 540.63 C 620.21 540.34 617.23 541.80 614.88 544.20 C 625.90 561.26 637.31 579.25 654.93 590.21 C 660.76 594.20 668.65 595.17 675.08 592.06 C 678.77 590.54 680.49 586.50 681.43 582.91 C 682.08 564.27 681.60 545.62 681.75 526.98 C 681.59 517.10 682.14 507.19 681.26 497.35 C 679.12 491.81 675.80 486.63 671.37 482.67 C 667.30 481.26 662.84 481.55 658.61 480.87 C 658.33 479.98 657.76 478.20 657.48 477.31 C 663.23 477.25 668.97 477.60 674.72 477.59 L 674.27 478.42 C 691.51 478.07 708.81 479.11 726.02 477.81 C 741.26 477.65 756.50 477.39 771.74 477.24 C 771.73 484.57 771.73 491.91 771.70 499.25 C 772.36 502.02 772.63 504.87 772.66 507.72 L 773.26 507.49 C 773.40 509.38 773.56 511.26 773.72 513.16 C 774.23 514.79 774.49 516.49 774.69 518.20 C 774.35 517.87 773.67 517.21 773.33 516.88 C 770.67 516.46 771.81 513.01 771.28 511.25 L 770.46 511.57 C 770.43 510.13 770.41 508.70 770.41 507.28 L 769.79 507.58 C 769.36 505.75 768.97 503.83 767.76 502.35 C 759.53 491.81 746.58 484.55 733.01 484.85 C 724.39 485.02 715.69 483.99 707.17 485.71 C 706.40 499.91 706.74 514.14 706.77 528.35 C 714.52 528.47 722.61 528.98 729.92 525.88 C 736.11 523.44 743.18 520.51 746.11 514.07 C 746.59 510.61 746.64 506.98 748.64 503.95 C 748.81 522.87 748.41 541.81 748.86 560.74 C 745.50 557.05 747.40 550.84 743.90 547.07 C 738.05 540.96 729.85 537.78 721.89 535.47 C 716.77 535.25 711.64 535.57 706.52 535.36 C 706.81 553.48 706.62 571.62 706.56 589.75 C 707.10 589.56 708.16 589.20 708.70 589.01 L 708.55 590.36 C 710.01 590.36 711.47 590.36 712.95 590.36 L 712.47 591.29 C 722.77 591.55 733.09 591.46 743.40 591.36 L 743.13 590.56 C 755.53 589.05 765.00 580.33 775.33 574.21 C 776.63 573.52 777.49 572.29 778.48 571.24 C 778.45 570.96 778.39 570.39 778.36 570.10 C 781.39 565.72 783.93 561.00 786.12 556.14 C 786.70 555.23 787.29 554.32 787.89 553.42 C 788.48 553.34 789.65 553.18 790.24 553.09 C 789.82 554.36 789.45 555.66 789.05 556.95 C 787.45 560.45 785.57 563.83 784.21 567.44 L 783.89 567.54 C 783.42 569.20 782.83 570.83 782.32 572.48 L 781.90 572.50 C 781.47 574.42 780.73 576.25 779.84 577.99 C 779.74 578.61 779.56 579.85 779.47 580.47 L 778.87 580.42 C 778.63 581.60 778.34 582.78 778.01 583.95 C 777.62 584.90 777.24 585.87 776.87 586.84 C 776.29 588.86 775.63 590.86 774.98 592.86 C 774.03 595.18 774.19 598.52 771.36 599.46 C 769.96 598.88 768.51 598.63 767.02 598.72 C 720.48 598.77 673.94 598.73 627.40 598.74 C 612.18 583.49 599.56 565.75 589.06 546.98 C 584.91 544.21 579.75 543.72 574.93 543.06 C 575.46 554.01 574.16 565.05 575.73 575.96 C 576.98 582.39 580.21 588.61 585.34 592.77 C 589.42 595.57 594.64 594.97 599.32 595.51 C 599.25 596.46 599.11 598.36 599.04 599.30 C 580.11 597.19 561.03 598.38 542.03 598.11 C 536.90 597.87 531.83 598.66 526.76 599.29 C 526.50 598.16 526.25 597.04 526.00 595.92 C 530.37 595.13 534.78 594.59 539.21 594.33 C 543.06 591.05 546.30 587.03 548.50 582.46 C 549.62 579.44 549.68 576.17 549.81 572.99 C 549.68 551.31 549.78 529.63 549.75 507.95 C 549.68 503.54 550.25 498.92 548.33 494.80 C 546.53 489.99 543.38 485.73 539.19 482.76 C 535.15 481.10 530.67 481.59 526.46 480.74 C 526.40 479.56 526.34 478.39 526.27 477.22 M 575.91 485.78 C 575.72 496.87 574.63 507.98 575.64 519.07 C 576.18 524.16 575.80 529.29 574.95 534.32 C 583.14 536.72 592.31 537.37 600.48 534.55 C 609.26 531.38 614.02 521.94 614.33 513.03 C 614.36 508.50 614.73 503.57 612.30 499.54 C 609.51 494.41 605.77 489.52 600.58 486.68 C 592.75 483.47 584.03 484.38 575.91 485.78 Z" />
<path fill="#ffffff" opacity="1.00" d=" M 789.55 477.29 C 794.28 477.58 799.02 477.53 803.76 477.56 L 803.23 478.44 C 815.08 478.41 826.94 478.39 838.79 478.46 L 838.05 477.47 C 841.48 477.62 844.92 477.36 848.36 477.19 L 848.40 476.63 C 855.06 476.50 861.70 476.63 868.30 477.60 C 870.09 478.27 871.94 478.61 873.87 478.60 L 873.41 479.46 C 874.27 479.45 876.01 479.44 876.87 479.44 L 876.49 480.43 C 877.35 480.44 879.06 480.46 879.91 480.47 L 879.41 481.88 C 879.95 481.67 881.05 481.26 881.60 481.05 L 881.49 482.36 C 882.25 482.41 883.76 482.51 884.52 482.56 L 884.48 483.13 C 892.29 487.33 898.43 494.53 901.03 503.04 C 903.29 512.05 902.95 522.46 897.23 530.18 C 893.07 536.88 885.71 540.58 878.62 543.41 C 865.73 547.30 851.60 546.22 839.00 541.74 C 839.18 551.80 837.89 561.83 838.33 571.89 C 838.82 575.73 838.92 579.78 840.76 583.28 C 842.85 587.45 846.16 590.79 849.19 594.26 C 853.54 594.61 857.86 595.27 862.22 595.68 C 862.17 596.57 862.07 598.36 862.02 599.25 C 853.32 599.49 844.71 598.01 836.03 598.13 C 825.63 598.21 815.23 597.87 804.85 598.39 C 799.97 599.12 795.03 599.32 790.11 598.97 C 789.91 598.16 789.49 596.53 789.28 595.72 C 793.14 595.21 797.01 594.74 800.89 594.38 C 803.58 594.24 805.21 591.78 806.80 589.92 C 809.39 586.48 812.63 582.99 812.81 578.44 L 813.32 578.47 C 813.78 559.99 813.48 541.50 813.57 523.01 C 813.51 514.75 813.75 506.49 813.32 498.25 L 812.66 498.70 C 812.56 498.02 812.35 496.64 812.24 495.95 C 811.75 494.77 811.35 493.56 811.04 492.34 L 810.81 492.63 C 809.68 490.52 808.36 488.52 807.08 486.51 L 806.83 486.61 C 806.45 486.24 805.71 485.51 805.33 485.14 L 805.63 484.35 L 804.34 484.66 L 804.64 483.38 L 803.32 483.72 L 803.72 482.83 C 802.16 482.51 800.67 482.16 799.17 481.73 C 795.97 481.57 792.74 481.47 789.65 480.57 C 789.63 479.75 789.58 478.11 789.55 477.29 M 839.26 485.49 C 838.48 502.19 838.71 518.96 839.11 535.63 C 849.40 540.23 862.97 539.69 871.04 531.11 C 877.70 523.50 878.34 512.54 876.87 502.97 C 876.02 494.87 870.52 487.01 862.52 484.67 C 854.87 482.40 846.90 484.24 839.26 485.49 Z" />
<path fill="#ffffff" opacity="1.00" d=" M 906.42 477.21 C 918.20 478.86 930.11 478.42 941.98 478.50 C 954.71 478.42 967.49 478.90 980.14 477.17 C 980.18 478.15 980.25 480.10 980.28 481.08 C 975.19 481.41 969.92 481.29 965.04 482.92 C 962.18 485.05 958.92 487.30 957.82 490.88 C 956.64 493.90 954.38 496.62 954.58 500.04 C 954.14 510.33 954.47 520.64 954.37 530.95 C 954.47 543.94 954.15 556.94 954.60 569.93 C 956.04 577.91 961.96 584.79 969.50 587.71 C 979.45 591.58 990.53 591.59 1000.87 589.40 C 1011.21 587.36 1020.13 579.32 1023.19 569.23 C 1025.01 564.74 1024.59 559.82 1024.75 555.09 C 1024.68 537.91 1024.87 520.73 1024.69 503.55 C 1024.97 495.63 1020.82 488.09 1015.09 482.86 C 1010.72 481.55 1006.10 481.59 1001.64 480.78 C 1001.18 479.63 1000.75 478.50 1000.30 477.37 C 1004.89 477.20 1009.47 477.66 1014.03 478.21 C 1030.01 478.55 1046.02 478.75 1061.98 477.68 C 1081.98 477.43 1101.98 477.42 1121.99 477.21 C 1128.08 477.14 1134.44 477.09 1140.10 479.70 C 1149.25 481.95 1158.29 486.99 1162.94 495.50 L 1163.81 495.49 C 1163.64 495.98 1163.28 496.97 1163.10 497.47 L 1164.23 497.22 C 1164.58 499.02 1165.19 500.75 1165.68 502.52 L 1166.46 502.20 C 1166.50 503.28 1166.59 505.43 1166.63 506.51 C 1166.84 506.45 1167.27 506.35 1167.49 506.29 C 1167.41 509.47 1167.41 512.65 1167.47 515.84 L 1166.38 515.27 C 1166.42 516.17 1166.50 517.95 1166.54 518.84 L 1165.12 518.38 C 1165.30 518.92 1165.65 519.98 1165.82 520.51 L 1164.34 520.69 C 1164.43 521.18 1164.62 522.16 1164.71 522.64 L 1163.13 522.63 C 1163.31 523.16 1163.68 524.23 1163.86 524.76 L 1162.09 524.06 L 1162.86 525.63 L 1161.28 525.53 C 1161.34 525.90 1161.46 526.64 1161.52 527.01 C 1159.99 527.75 1158.83 529.00 1157.91 530.39 C 1157.55 530.39 1156.83 530.39 1156.47 530.40 L 1156.67 531.87 L 1155.18 531.14 L 1155.65 532.78 C 1155.14 532.63 1154.11 532.35 1153.60 532.21 L 1153.62 533.73 C 1153.12 533.63 1152.10 533.41 1151.59 533.30 L 1151.67 534.69 C 1151.17 534.60 1150.15 534.40 1149.64 534.31 C 1149.55 534.96 1149.37 536.26 1149.29 536.91 C 1149.89 536.74 1151.09 536.39 1151.69 536.21 L 1151.44 537.41 C 1152.28 537.44 1153.97 537.50 1154.81 537.53 L 1154.56 538.52 C 1155.31 538.53 1156.81 538.55 1157.56 538.56 L 1157.26 539.91 L 1158.52 539.19 C 1158.60 539.59 1158.77 540.39 1158.86 540.79 L 1160.61 540.01 L 1160.34 541.24 C 1161.44 541.74 1162.55 542.24 1163.68 542.73 L 1163.45 543.56 C 1163.81 543.58 1164.54 543.62 1164.90 543.64 C 1166.13 545.36 1167.58 547.03 1169.53 547.96 C 1169.47 548.35 1169.34 549.12 1169.28 549.50 L 1170.19 549.30 C 1170.44 550.66 1171.23 551.53 1172.56 551.93 C 1172.48 552.33 1172.31 553.13 1172.22 553.53 L 1173.84 553.44 C 1173.66 553.93 1173.30 554.93 1173.12 555.43 L 1174.27 555.20 C 1174.88 557.34 1175.50 559.47 1175.84 561.68 L 1176.47 561.11 C 1176.51 565.64 1176.53 570.17 1176.53 574.71 C 1176.31 574.67 1175.88 574.58 1175.67 574.54 C 1175.61 575.62 1175.51 577.77 1175.45 578.84 L 1174.55 578.46 C 1174.53 579.32 1174.48 581.03 1174.46 581.89 L 1173.10 581.36 C 1173.28 581.90 1173.65 582.99 1173.84 583.53 L 1172.18 583.65 C 1172.35 584.16 1172.69 585.19 1172.86 585.71 L 1171.92 585.40 C 1170.67 587.14 1169.27 588.76 1168.01 590.49 C 1167.77 590.53 1167.29 590.60 1167.05 590.63 C 1166.54 592.33 1164.92 592.56 1163.42 592.79 L 1163.75 593.96 C 1163.22 593.79 1162.16 593.46 1161.64 593.29 L 1161.64 594.93 C 1161.10 594.75 1160.03 594.40 1159.49 594.22 L 1159.95 595.58 C 1159.10 595.59 1157.39 595.60 1156.53 595.61 L 1156.89 596.65 C 1156.04 596.63 1154.36 596.60 1153.52 596.59 L 1153.92 597.58 C 1152.47 597.61 1151.04 597.65 1149.62 597.71 L 1149.91 598.48 C 1147.64 598.38 1145.53 599.08 1143.37 599.57 C 1136.80 599.71 1130.23 599.73 1123.67 599.56 C 1117.85 598.23 1111.86 598.68 1105.95 598.53 C 1088.14 598.59 1070.32 598.43 1052.51 598.56 C 1052.53 597.53 1052.57 596.52 1052.61 595.51 C 1054.58 595.50 1056.57 595.46 1058.57 595.43 L 1058.60 594.82 C 1061.38 594.80 1064.12 594.32 1066.75 593.36 L 1066.29 592.78 C 1067.27 592.26 1068.26 591.74 1069.25 591.21 C 1069.46 589.67 1069.94 588.27 1071.80 588.20 C 1071.62 587.69 1071.25 586.66 1071.07 586.14 L 1072.88 587.94 L 1072.21 585.33 L 1074.05 585.57 C 1073.78 585.04 1073.25 583.98 1072.98 583.46 L 1074.57 583.82 C 1074.56 583.01 1074.54 581.38 1074.53 580.57 L 1075.63 580.86 C 1075.60 579.99 1075.54 578.23 1075.51 577.36 L 1076.55 577.80 C 1076.48 552.09 1076.47 526.38 1076.56 500.68 C 1076.13 498.80 1075.53 496.96 1075.36 495.05 L 1074.61 495.48 C 1074.59 494.63 1074.56 492.94 1074.54 492.10 L 1073.12 492.53 C 1073.32 491.99 1073.73 490.92 1073.93 490.38 L 1072.28 490.61 C 1072.39 490.05 1072.63 488.94 1072.74 488.38 L 1070.98 488.82 L 1072.13 487.24 L 1070.36 487.69 C 1070.42 487.14 1070.55 486.05 1070.62 485.50 C 1070.18 485.50 1069.30 485.50 1068.86 485.51 C 1068.32 484.51 1067.78 483.51 1067.25 482.53 C 1059.16 482.46 1051.06 482.24 1042.98 482.69 C 1039.57 487.87 1034.61 492.35 1033.83 498.87 C 1033.15 515.90 1033.67 532.96 1033.50 550.00 C 1033.97 562.95 1031.18 576.65 1022.81 586.87 C 1022.49 587.11 1021.85 587.60 1021.53 587.85 L 1021.65 588.57 L 1020.99 588.66 C 1020.33 589.43 1019.69 590.21 1019.05 590.98 C 1011.30 596.35 1002.56 600.54 993.07 601.44 C 980.59 602.50 967.48 602.05 955.92 596.75 C 949.81 595.11 944.90 590.89 940.22 586.83 C 937.62 584.65 936.09 581.60 934.14 578.90 C 930.51 574.08 929.99 567.79 929.68 561.97 C 929.65 542.98 929.66 523.99 929.67 504.99 C 929.88 500.99 929.42 496.91 927.46 493.35 C 925.49 489.90 923.89 485.93 920.44 483.66 C 916.19 481.19 911.10 481.33 906.36 481.07 C 906.36 479.77 906.38 478.49 906.42 477.21 M 1102.11 486.04 C 1102.16 501.63 1102.03 517.23 1102.25 532.82 C 1110.24 533.12 1118.59 534.17 1126.24 531.21 C 1131.32 529.48 1134.89 525.26 1138.23 521.28 C 1138.49 520.21 1138.78 519.15 1139.10 518.10 C 1139.37 516.07 1139.65 514.03 1140.18 512.05 C 1140.19 510.33 1140.21 508.61 1140.24 506.91 C 1139.49 500.81 1137.40 494.58 1132.29 490.77 C 1123.99 483.40 1112.17 486.25 1102.11 486.04 M 1102.48 539.11 C 1102.70 555.69 1102.40 572.27 1102.52 588.86 L 1103.79 588.23 L 1103.16 589.52 C 1104.00 589.52 1105.69 589.52 1106.53 589.52 L 1106.16 590.48 C 1107.07 590.50 1108.88 590.54 1109.79 590.56 L 1109.13 591.51 C 1115.69 591.72 1122.25 592.08 1128.81 591.43 L 1128.55 590.63 C 1129.93 590.56 1131.32 590.51 1132.73 590.48 C 1132.67 590.21 1132.54 589.67 1132.47 589.40 C 1133.28 589.42 1134.88 589.47 1135.68 589.49 L 1135.20 588.07 L 1136.05 588.52 C 1136.70 588.19 1138.00 587.53 1138.65 587.20 L 1138.34 586.32 L 1139.59 586.75 C 1139.63 586.38 1139.70 585.65 1139.73 585.28 L 1141.46 585.59 C 1141.46 585.10 1141.46 584.12 1141.47 583.63 L 1142.68 583.70 L 1142.42 582.39 L 1143.84 582.75 L 1143.34 581.86 C 1144.16 581.12 1144.81 580.23 1145.28 579.20 C 1145.62 578.68 1146.30 577.64 1146.64 577.12 C 1146.55 576.74 1146.36 575.98 1146.26 575.60 L 1147.42 575.82 C 1147.46 573.72 1147.62 571.64 1147.75 569.57 C 1147.94 569.61 1148.32 569.69 1148.51 569.73 C 1148.91 562.04 1147.98 553.20 1141.68 547.94 L 1141.67 547.27 L 1140.33 547.59 L 1140.83 546.52 L 1139.64 546.42 L 1139.30 545.62 C 1138.30 545.14 1137.30 544.69 1136.31 544.25 L 1136.68 543.10 C 1136.20 543.26 1135.22 543.59 1134.74 543.75 L 1134.56 542.24 C 1134.06 542.37 1133.06 542.62 1132.57 542.75 L 1132.85 541.74 C 1131.23 541.50 1129.71 541.20 1128.23 540.59 C 1124.86 540.53 1121.51 540.36 1118.24 539.55 C 1112.98 539.59 1107.73 539.14 1102.48 539.11 Z" />
<path fill="#ffffff" opacity="1.00" d=" M 1182.51 477.24 C 1186.93 477.82 1191.41 477.53 1195.87 477.47 L 1195.35 478.39 C 1210.92 478.39 1226.49 478.65 1242.06 478.37 C 1244.56 478.31 1247.10 478.43 1249.55 477.73 C 1252.19 477.55 1254.83 477.54 1257.49 477.42 C 1257.57 478.20 1257.75 479.75 1257.83 480.52 C 1255.43 480.61 1253.06 480.75 1250.69 480.81 L 1250.75 481.47 C 1248.61 481.45 1246.50 481.54 1244.38 481.61 L 1244.86 482.33 C 1243.16 482.40 1241.28 482.44 1241.11 484.58 C 1240.74 484.51 1240.00 484.38 1239.62 484.32 L 1239.71 485.59 C 1239.32 485.64 1238.53 485.75 1238.14 485.80 L 1238.75 487.10 C 1237.28 487.39 1236.44 488.28 1236.22 489.75 L 1235.32 489.67 C 1235.43 490.16 1235.65 491.15 1235.76 491.65 L 1234.23 491.58 C 1234.39 492.08 1234.69 493.09 1234.84 493.60 L 1233.52 493.55 C 1233.48 494.92 1233.45 496.30 1233.45 497.69 L 1232.38 497.23 C 1232.43 499.07 1232.44 500.92 1232.53 502.77 L 1231.67 502.27 C 1231.59 528.73 1231.79 555.18 1231.59 581.63 L 1232.46 581.20 C 1232.33 584.54 1232.36 587.88 1232.42 591.22 C 1240.78 591.80 1249.17 591.49 1257.56 591.55 L 1257.15 590.40 C 1266.03 590.71 1274.52 586.78 1281.61 581.69 C 1285.02 579.68 1287.99 576.94 1291.61 575.28 C 1293.90 574.43 1294.83 571.95 1296.21 570.12 C 1297.15 568.44 1298.10 566.76 1299.03 565.07 C 1299.67 563.74 1300.37 562.43 1301.10 561.14 C 1302.56 558.51 1303.97 555.85 1305.67 553.37 C 1306.27 553.31 1307.46 553.19 1308.06 553.13 C 1307.72 555.32 1307.32 557.52 1306.57 559.62 L 1305.81 559.47 C 1304.53 564.90 1301.66 569.75 1299.93 575.03 C 1297.92 581.38 1294.90 587.38 1293.45 593.92 C 1292.79 595.73 1292.97 598.21 1290.96 599.17 C 1284.59 599.06 1278.19 599.33 1271.84 598.78 C 1266.96 597.85 1261.98 598.15 1257.05 598.12 C 1245.02 598.13 1233.00 598.10 1220.97 598.13 C 1208.23 598.48 1195.44 600.04 1182.71 598.77 C 1182.49 598.00 1182.06 596.46 1181.84 595.69 C 1186.17 595.03 1190.62 594.97 1194.91 594.05 C 1198.30 590.90 1202.10 587.80 1203.88 583.38 L 1204.73 583.29 C 1204.61 582.82 1204.36 581.88 1204.24 581.40 L 1205.47 581.51 C 1205.49 580.69 1205.53 579.03 1205.55 578.20 L 1206.39 578.54 C 1206.91 553.38 1206.45 528.20 1206.63 503.03 C 1206.57 501.07 1206.88 499.00 1205.87 497.22 C 1203.14 492.32 1201.68 485.80 1196.29 483.10 L 1196.68 482.65 C 1194.06 482.06 1191.45 481.39 1188.78 481.32 C 1186.71 480.46 1184.48 480.33 1182.29 480.46 L 1182.42 478.19 L 1185.20 479.01 L 1182.51 477.24 Z" />
<path fill="#ffffff" opacity="1.00" d=" M 1366.80 478.45 L 1366.10 477.46 C 1370.64 477.56 1375.18 477.58 1379.73 477.45 C 1379.69 478.19 1379.60 479.68 1379.56 480.43 C 1378.00 480.52 1376.51 480.66 1375.03 481.02 C 1371.96 481.81 1368.82 482.29 1365.69 482.68 C 1361.48 488.05 1355.71 493.62 1356.22 501.00 C 1355.35 517.31 1356.07 533.64 1355.90 549.97 C 1356.10 559.63 1355.17 569.35 1356.57 578.95 C 1357.82 585.15 1362.30 589.93 1366.50 594.38 C 1371.00 594.44 1375.47 594.98 1379.90 595.74 C 1379.90 596.58 1379.90 598.27 1379.89 599.12 C 1366.61 598.89 1353.32 599.00 1340.04 598.78 C 1328.60 598.83 1317.09 599.42 1305.71 598.22 C 1306.35 597.72 1307.63 596.73 1308.26 596.24 L 1305.32 596.68 C 1305.27 596.41 1305.16 595.87 1305.10 595.60 C 1307.09 595.50 1309.10 595.42 1311.09 595.10 C 1313.30 594.65 1315.55 594.53 1317.82 594.41 L 1317.57 593.22 C 1318.05 593.38 1319.01 593.70 1319.50 593.86 L 1319.56 593.04 C 1320.89 592.05 1322.07 590.86 1323.06 589.51 L 1324.00 589.64 L 1323.15 588.03 L 1325.40 588.75 L 1324.05 586.72 C 1324.70 586.68 1326.02 586.59 1326.68 586.55 C 1326.59 585.77 1326.41 584.20 1326.32 583.42 L 1327.89 583.71 C 1327.69 583.15 1327.30 582.03 1327.11 581.47 L 1328.50 581.88 C 1328.52 580.40 1328.57 578.93 1328.64 577.47 L 1329.53 577.88 C 1329.68 551.29 1329.47 524.71 1329.54 498.12 L 1328.73 498.53 C 1328.62 496.78 1328.49 495.02 1328.44 493.28 L 1327.03 493.56 C 1327.26 493.01 1327.72 491.90 1327.95 491.35 L 1326.23 491.75 L 1326.82 488.98 L 1324.86 490.99 C 1325.14 490.33 1325.71 489.01 1325.99 488.36 L 1324.10 488.91 L 1325.16 487.16 L 1324.01 487.62 C 1322.69 485.85 1321.44 483.89 1319.57 482.69 C 1315.43 481.98 1311.30 481.25 1307.21 480.37 L 1307.14 478.30 C 1327.03 478.34 1346.91 478.61 1366.80 478.45 Z" />
<path fill="#ffffff" opacity="1.00" d=" M 529.81 686.79 C 544.15 681.62 556.77 671.19 563.68 657.51 C 615.80 657.10 667.93 657.57 720.05 657.26 C 809.66 657.32 899.27 657.27 988.88 657.37 C 998.37 676.17 1018.64 690.01 1040.05 689.26 C 1071.38 689.46 1102.71 689.35 1134.04 689.38 C 1150.08 689.57 1166.13 688.87 1182.15 689.66 C 1185.85 690.65 1189.18 692.69 1192.51 694.54 C 1192.49 695.36 1192.48 696.19 1192.50 697.03 C 1190.53 697.10 1188.59 697.36 1186.68 697.70 C 1176.87 699.16 1166.88 698.26 1156.99 698.52 C 1115.09 698.57 1073.19 698.63 1031.30 698.64 L 1031.47 699.24 C 1029.57 699.37 1027.69 699.56 1025.82 699.72 C 1023.70 700.47 1021.60 701.24 1019.47 701.86 L 1019.37 702.22 C 1018.18 702.72 1017.03 703.26 1015.87 703.80 C 1015.01 704.34 1014.16 704.89 1013.32 705.44 C 1011.42 706.68 1009.52 707.91 1007.50 708.94 L 1007.65 709.29 C 1006.71 709.78 1005.78 710.27 1004.87 710.78 C 1002.25 712.66 999.88 714.87 998.11 717.58 L 997.91 717.39 C 997.53 717.77 996.78 718.54 996.40 718.92 L 996.73 719.75 L 995.37 719.35 L 995.58 720.23 C 993.70 722.07 992.12 724.22 991.10 726.66 L 990.70 726.32 C 990.17 727.44 989.67 728.56 989.18 729.70 C 988.77 729.55 987.95 729.24 987.54 729.09 L 987.80 730.45 C 931.96 730.34 876.12 730.33 820.28 730.46 L 820.31 729.80 C 813.57 729.57 806.84 729.54 800.11 729.46 L 800.87 730.46 C 725.31 730.33 649.76 730.33 574.20 730.46 L 574.62 729.64 C 570.66 729.68 566.72 729.47 562.77 729.34 C 556.40 716.58 544.82 707.07 531.91 701.41 C 524.36 698.38 516.07 698.28 508.06 698.49 C 464.39 698.51 420.72 698.49 377.05 698.50 C 371.41 698.47 365.63 698.52 360.17 696.96 C 360.07 696.56 359.89 695.76 359.80 695.36 C 364.55 691.29 370.76 689.06 377.00 689.01 C 396.99 687.73 417.04 688.84 437.04 688.78 C 443.70 688.12 450.37 689.09 457.03 688.38 C 474.35 689.07 491.68 688.38 509.01 688.79 C 515.93 688.03 523.11 689.07 529.81 686.79 M 860.67 671.90 C 862.73 673.07 864.86 674.14 867.02 675.14 C 869.25 682.22 868.01 689.70 868.29 696.98 C 868.40 702.22 868.71 707.58 867.26 712.69 C 865.34 714.15 862.91 714.76 860.82 715.90 C 868.95 716.12 877.24 717.36 885.26 715.26 C 883.02 714.18 880.71 713.27 878.41 712.38 C 878.36 707.03 877.75 701.64 878.57 696.33 C 879.56 695.15 881.02 694.53 882.32 693.74 C 886.40 699.80 890.64 705.75 894.52 711.95 C 892.39 713.28 890.26 714.57 888.14 715.90 C 896.53 716.34 905.01 716.89 913.36 715.49 C 908.71 714.08 904.67 711.05 902.05 706.95 C 897.89 700.32 892.71 694.33 889.31 687.24 C 894.16 683.49 898.46 678.96 903.87 675.98 C 906.29 674.52 909.36 674.09 911.18 671.72 C 903.49 671.69 895.80 671.78 888.11 671.76 C 890.07 673.64 892.06 675.51 894.18 677.23 C 889.38 682.75 884.16 687.88 878.70 692.75 C 878.17 687.43 876.84 681.91 878.75 676.72 C 881.11 675.24 883.46 673.70 885.37 671.65 C 877.14 671.90 868.90 671.55 860.67 671.90 M 580.44 672.03 C 582.79 673.92 586.60 675.38 586.63 678.92 C 587.62 690.32 587.58 701.83 586.19 713.19 C 583.96 713.72 581.75 714.27 579.54 714.83 C 579.74 715.47 580.14 716.76 580.34 717.40 C 588.06 716.38 595.89 716.70 603.58 715.42 C 601.31 714.53 598.97 713.81 596.65 713.10 C 596.35 707.63 596.09 702.15 596.40 696.68 C 597.92 697.00 600.16 696.05 601.14 697.67 C 605.72 703.84 609.23 711.02 615.44 715.83 C 620.24 717.29 625.29 715.99 630.14 715.43 C 621.82 712.00 615.80 704.61 611.52 696.99 C 614.43 693.29 619.91 691.25 620.38 685.92 C 621.42 679.70 615.75 675.80 611.94 671.95 C 601.44 671.60 590.94 671.69 580.44 672.03 M 651.36 671.76 C 654.64 673.63 660.09 675.18 659.73 679.94 C 659.60 690.91 660.85 702.00 658.75 712.87 C 656.66 713.85 654.58 714.84 652.59 716.01 C 666.19 716.95 679.83 715.85 693.44 716.43 C 695.13 710.86 699.11 706.09 699.33 700.09 C 695.62 703.49 692.94 707.93 688.86 710.93 C 683.12 714.24 676.18 713.60 669.84 713.09 C 668.98 706.32 668.70 699.41 670.04 692.69 C 672.87 693.12 675.91 693.15 678.48 694.55 C 680.89 696.58 682.51 699.34 684.38 701.84 C 685.43 695.37 685.15 688.81 684.78 682.30 C 681.43 686.62 676.91 691.31 670.91 690.63 C 667.35 685.89 669.23 679.46 670.10 674.11 C 676.16 674.25 682.87 674.22 687.90 678.13 C 690.39 679.90 690.61 683.39 693.09 685.17 C 693.16 680.60 693.11 676.04 693.12 671.48 C 679.20 671.62 665.28 671.79 651.36 671.76 M 724.97 671.60 C 724.00 675.34 730.13 674.10 731.22 676.62 C 731.29 684.49 728.73 692.05 728.26 699.87 C 727.80 703.61 727.70 707.55 726.12 711.03 C 724.41 713.29 721.51 714.46 720.28 717.15 C 725.16 716.46 730.08 716.30 735.00 716.38 C 736.32 716.47 737.60 716.10 738.78 715.52 C 736.57 713.75 732.69 713.23 732.15 709.97 C 730.46 700.21 732.12 690.22 734.93 680.83 C 738.35 687.77 740.91 695.08 743.93 702.19 C 746.02 706.86 747.55 711.76 748.94 716.68 C 749.42 716.41 750.38 715.88 750.85 715.61 C 754.31 704.12 759.23 693.14 763.55 681.96 C 764.83 684.91 766.03 687.93 766.50 691.15 C 767.46 698.41 769.40 705.74 768.05 713.09 C 765.54 714.18 760.79 713.39 761.11 717.26 C 769.07 717.32 776.98 716.35 784.92 715.88 C 782.35 714.07 778.40 712.71 778.13 709.07 C 776.52 699.37 775.05 689.65 773.42 679.95 C 772.82 676.26 776.95 674.60 779.44 672.95 C 772.36 670.62 764.87 672.15 757.59 672.00 C 759.29 673.42 760.96 674.89 762.68 676.31 C 759.72 682.84 757.34 689.62 754.39 696.15 C 753.71 697.01 753.77 698.70 752.51 698.98 C 747.64 692.15 745.98 683.74 742.46 676.23 C 744.06 674.78 745.61 673.26 747.16 671.74 C 739.76 671.87 732.36 671.49 724.97 671.60 M 819.04 672.44 C 818.05 676.42 817.25 680.50 815.37 684.19 C 811.51 692.53 808.41 701.22 804.33 709.47 C 802.86 712.51 799.70 714.06 797.10 715.96 C 802.94 716.36 808.81 716.36 814.65 716.03 C 812.70 714.42 810.69 712.89 808.70 711.35 C 809.93 706.55 811.54 701.86 813.42 697.28 C 817.64 697.23 821.87 697.25 826.10 697.26 C 828.23 702.09 830.58 706.99 830.66 712.39 C 828.56 713.84 825.02 713.99 824.53 716.96 C 832.28 716.07 840.08 716.34 847.86 716.15 C 844.50 713.88 840.45 711.63 839.76 707.22 C 836.40 695.09 829.67 684.08 827.36 671.65 C 824.56 671.73 821.79 672.03 819.04 672.44 M 931.14 671.72 C 932.14 675.03 937.23 674.42 937.85 678.00 C 938.56 684.62 938.15 691.29 938.13 697.93 C 938.13 701.97 938.53 706.04 938.04 710.08 C 937.71 713.85 933.07 713.99 930.75 716.08 C 944.40 716.75 958.09 715.86 971.75 716.46 C 974.42 711.22 977.29 705.90 978.02 699.97 C 974.03 704.01 970.72 709.01 965.46 711.54 C 960.16 714.18 954.06 713.56 948.35 713.37 C 948.14 706.51 948.30 699.65 948.25 692.79 C 950.82 693.13 953.53 693.04 956.00 693.95 C 958.87 695.82 960.87 698.72 963.40 701.01 C 963.67 695.02 963.69 689.02 963.33 683.03 C 961.28 684.69 959.51 686.65 957.47 688.32 C 954.92 690.42 951.48 690.47 948.38 691.06 C 948.23 685.75 948.12 680.44 948.12 675.14 C 953.01 675.27 958.07 674.61 962.82 676.05 C 966.79 677.26 968.18 681.61 971.32 683.86 C 973.18 680.00 972.06 675.68 971.81 671.62 C 958.25 671.52 944.70 671.89 931.14 671.72 Z" />
<path fill="#ffffff" opacity="1.00" d=" M 1012.41 671.39 C 1017.81 671.36 1023.21 671.22 1028.62 671.40 L 1028.65 670.79 C 1035.55 670.85 1042.46 670.85 1049.37 670.79 L 1049.36 671.40 C 1091.89 671.22 1134.42 671.37 1176.94 671.32 C 1180.86 671.16 1184.62 672.43 1188.51 672.71 L 1188.33 673.37 C 1189.14 673.41 1190.77 673.50 1191.59 673.54 L 1191.39 674.14 C 1192.69 674.47 1194.00 674.96 1195.28 675.47 C 1196.11 676.05 1196.96 676.63 1197.82 677.22 C 1202.03 680.45 1208.60 682.55 1209.25 688.63 C 1206.97 689.63 1204.75 690.76 1202.61 692.03 C 1198.45 688.74 1194.61 684.63 1189.36 683.15 L 1189.75 681.97 L 1188.04 683.00 L 1188.68 681.59 C 1187.35 681.55 1186.03 681.51 1184.73 681.48 C 1182.56 680.81 1180.32 680.40 1178.07 680.48 C 1135.72 680.50 1093.37 680.48 1051.03 680.47 C 1042.79 680.35 1034.51 681.01 1026.39 679.38 L 1026.66 678.82 C 1024.69 678.71 1022.84 678.12 1021.07 677.34 C 1017.99 675.64 1015.21 673.49 1012.41 671.39 Z" />
<path fill="#ffffff" opacity="1.00" d=" M 83.13 672.24 C 99.05 671.24 115.02 671.20 130.97 671.23 C 189.65 671.23 248.33 671.25 307.01 671.23 C 318.03 671.12 329.54 671.74 339.34 677.34 C 337.60 679.91 335.58 682.27 333.80 684.82 C 331.68 684.16 329.56 683.46 327.37 683.11 L 327.62 682.73 C 324.99 682.36 322.43 681.64 319.86 681.05 C 316.96 680.36 313.97 680.24 311.02 680.27 C 256.00 680.33 200.98 680.66 145.96 680.38 C 127.64 680.73 109.26 680.81 91.00 679.61 C 65.46 679.42 39.95 678.11 14.43 677.69 C 14.47 676.59 14.51 675.50 14.55 674.42 C 28.42 674.24 42.25 673.05 56.14 673.25 C 65.08 672.21 74.14 672.53 83.13 672.24 Z" />
<path fill="#ffffff" opacity="1.00" d=" M 365.91 672.49 C 369.60 671.93 373.30 671.33 377.04 671.26 C 429.66 671.28 482.29 671.27 534.92 671.27 C 536.65 671.26 538.38 671.44 540.11 671.64 C 539.42 672.07 538.75 672.52 538.08 672.97 C 537.19 673.58 536.28 674.17 535.37 674.74 L 535.50 675.54 C 534.99 675.47 533.98 675.33 533.48 675.25 L 533.57 676.62 C 533.07 676.51 532.07 676.27 531.57 676.16 L 531.58 677.09 C 530.91 677.37 529.57 677.91 528.90 678.19 C 528.28 678.29 527.03 678.50 526.41 678.61 L 526.65 679.40 C 525.19 679.39 523.73 679.40 522.28 679.41 L 522.77 680.39 C 474.20 680.47 425.61 680.37 377.04 680.43 C 374.82 680.45 372.61 680.57 370.40 680.65 L 370.71 681.29 C 368.75 681.31 366.73 681.36 365.00 682.38 C 364.63 682.34 363.90 682.26 363.54 682.22 L 363.61 683.09 C 358.11 684.36 354.27 688.82 349.86 692.01 C 347.89 690.80 345.83 689.76 343.78 688.74 C 343.63 688.10 343.35 686.82 343.21 686.18 C 349.74 680.20 357.04 674.35 365.91 672.49 Z" />
<path fill="#ffffff" opacity="1.00" d=" M 1247.05 672.43 C 1243.91 672.33 1240.47 672.87 1237.73 671.00 C 1263.46 671.60 1289.22 671.09 1314.96 671.26 C 1348.65 671.26 1382.35 671.26 1416.04 671.26 C 1431.63 671.49 1447.31 670.63 1462.84 672.29 C 1473.92 672.05 1484.99 672.81 1496.07 672.83 C 1505.00 673.67 1514.06 672.97 1522.98 674.14 C 1527.94 674.15 1532.92 674.33 1537.89 674.24 C 1537.83 675.43 1537.80 676.62 1537.78 677.83 C 1526.85 678.01 1515.92 678.08 1505.00 678.45 C 1485.69 679.63 1466.31 678.94 1447.03 680.57 C 1392.36 680.16 1337.69 680.74 1283.01 680.34 C 1266.80 680.64 1250.59 680.34 1234.39 680.57 L 1234.70 681.30 C 1232.43 681.23 1230.16 681.33 1228.09 682.29 C 1227.41 682.35 1226.04 682.47 1225.36 682.54 L 1225.76 683.36 C 1224.91 683.39 1223.23 683.44 1222.39 683.47 L 1222.63 684.29 C 1221.76 684.36 1220.03 684.49 1219.17 684.55 C 1217.18 682.16 1215.03 679.90 1213.38 677.27 C 1220.21 673.91 1227.75 671.40 1235.45 671.82 C 1238.87 672.81 1242.47 672.55 1246.00 672.63 C 1254.65 672.52 1263.31 672.67 1271.97 672.56 C 1263.67 672.20 1255.35 672.46 1247.05 672.43 Z" />
<path fill="#ffffff" opacity="1.00" d=" M 596.71 676.79 C 600.67 672.65 608.15 675.99 609.64 681.03 C 612.19 688.11 604.01 695.76 597.03 692.77 C 595.99 687.51 596.32 682.09 596.71 676.79 Z" />
<path fill="#ffffff" opacity="1.00" d=" M 819.52 680.91 C 822.47 684.74 823.70 689.50 824.61 694.18 C 821.30 694.37 817.98 694.25 814.75 693.54 C 816.27 689.30 817.98 685.14 819.52 680.91 Z" />
<path fill="#ffffff" opacity="1.00" d=" M 1229.13 689.92 C 1240.03 688.73 1251.04 689.52 1261.99 689.29 C 1299.65 689.44 1337.32 688.96 1374.98 689.76 C 1387.27 691.30 1399.66 690.39 1411.99 691.22 C 1421.73 691.55 1431.45 692.24 1441.20 692.33 C 1441.30 692.90 1441.50 694.04 1441.60 694.62 C 1437.35 694.93 1433.02 694.33 1428.86 695.38 C 1424.91 696.17 1420.87 695.71 1416.89 695.78 C 1407.22 695.58 1397.64 697.62 1387.98 696.94 C 1379.12 697.97 1370.19 697.69 1361.30 697.60 L 1361.55 698.37 C 1319.47 698.67 1277.38 698.78 1235.30 698.60 L 1235.55 699.32 C 1233.15 699.42 1230.76 699.60 1228.38 699.67 L 1228.43 700.23 C 1227.59 700.38 1225.92 700.68 1225.08 700.83 C 1224.44 701.09 1223.16 701.59 1222.52 701.85 C 1222.43 702.04 1222.26 702.42 1222.17 702.61 L 1221.04 702.49 C 1219.73 703.11 1218.40 703.66 1217.09 704.22 C 1209.87 707.79 1203.00 712.44 1194.96 714.03 C 1189.68 714.90 1184.40 716.14 1179.02 715.80 C 1152.35 716.26 1125.67 716.08 1099.00 716.11 C 1072.32 716.12 1045.65 716.11 1018.97 716.12 C 1016.80 716.12 1014.64 715.96 1012.50 715.84 C 1018.65 709.59 1027.39 706.50 1036.08 706.52 C 1080.37 706.46 1124.66 706.51 1168.96 706.49 C 1176.35 706.38 1183.87 707.07 1191.11 705.12 C 1193.10 704.44 1195.11 703.78 1197.11 703.09 C 1206.30 699.46 1214.33 693.23 1224.07 690.94 C 1225.75 690.60 1227.43 690.27 1229.13 689.92 Z" />
<path fill="#ffffff" opacity="1.00" d=" M 200.22 689.49 C 226.80 689.21 253.39 689.41 279.98 689.35 C 292.75 689.43 305.53 689.16 318.31 689.55 C 321.24 690.45 324.35 690.31 327.30 691.04 C 328.81 691.35 330.35 691.54 331.89 691.76 C 342.38 695.64 351.42 703.03 362.53 705.26 C 365.96 705.96 369.43 706.71 372.95 706.57 C 402.31 706.36 431.67 706.41 461.03 706.56 C 479.69 706.65 498.35 706.15 517.01 706.68 C 524.69 706.59 531.99 709.66 538.32 713.79 C 538.97 714.72 539.35 715.81 539.80 716.86 C 538.76 716.52 537.77 716.08 536.84 715.53 C 535.30 715.53 533.77 715.53 532.25 715.55 L 532.73 716.38 C 479.26 716.26 425.79 716.26 372.33 716.38 L 372.57 715.67 C 369.32 715.60 366.08 715.39 362.85 715.26 C 357.91 713.85 352.61 713.44 348.12 710.75 C 341.76 708.53 336.65 703.85 330.20 701.87 C 329.17 701.49 328.16 701.08 327.16 700.66 C 326.50 700.58 325.18 700.41 324.52 700.32 L 324.68 699.66 C 321.22 699.64 317.79 699.25 314.40 698.63 C 275.93 698.38 237.46 698.87 198.99 698.48 C 193.41 698.25 187.77 698.71 182.25 697.64 C 176.90 697.81 171.56 697.41 166.22 697.37 L 166.77 696.60 C 157.72 696.46 148.57 697.24 139.58 696.18 C 142.50 695.65 145.49 695.74 148.43 695.40 C 136.11 696.04 123.77 695.21 111.44 695.49 C 111.43 694.73 111.40 693.20 111.39 692.44 C 117.42 692.33 123.47 692.60 129.43 691.52 C 140.42 691.53 151.40 691.30 162.39 691.17 L 162.15 690.48 C 174.94 690.72 187.74 689.94 200.53 690.27 C 200.45 690.07 200.30 689.68 200.22 689.49 Z" />
<path fill="#ffffff" opacity="1.00" d=" M 292.06 707.37 C 300.61 707.01 309.30 705.54 317.79 707.18 C 320.17 707.31 322.56 707.52 324.90 708.06 C 326.44 708.46 327.97 708.91 329.48 709.44 C 329.45 710.29 329.42 711.14 329.41 712.01 C 316.60 717.19 302.58 716.35 289.08 715.64 C 275.06 714.33 260.96 715.05 246.92 714.07 C 233.54 713.22 220.06 714.11 206.74 712.42 C 207.46 711.54 208.19 710.67 208.92 709.82 C 214.87 708.61 220.98 709.72 226.95 708.85 C 239.96 708.47 253.00 708.80 265.97 707.63 C 274.67 707.65 283.36 707.12 292.06 707.37 Z" />
<path fill="#ffffff" opacity="1.00" d=" M 1223.18 709.68 C 1227.04 708.35 1231.03 707.44 1235.07 706.86 C 1243.71 706.02 1252.37 706.90 1261.01 707.26 C 1280.36 707.03 1299.64 708.92 1318.99 708.68 C 1324.01 708.37 1328.91 709.97 1333.94 709.68 C 1337.67 709.49 1341.59 709.27 1344.99 711.16 C 1344.93 713.64 1341.80 712.97 1340.13 713.23 C 1305.75 713.58 1271.40 715.86 1237.02 715.32 C 1232.20 715.14 1227.70 713.32 1223.16 711.92 C 1223.16 711.36 1223.18 710.24 1223.18 709.68 Z" />
</g>
</svg>
