<?xml version="1.0" encoding="UTF-8" ?>
<!DOCTYPE svg PUBLIC "-//W3C//DTD SVG 1.1//EN" "http://www.w3.org/Graphics/SVG/1.1/DTD/svg11.dtd">
<svg width="2005pt" height="549pt" viewBox="0 0 2005 549" version="1.1" xmlns="http://www.w3.org/2000/svg">
<g id="#ffffffff">
<path fill="#ffffff" opacity="1.00" d=" M 121.45 5.43 C 125.00 1.91 130.18 0.86 135.00 0.74 C 236.67 0.76 338.34 0.74 440.00 0.75 C 442.65 0.60 445.67 1.78 446.67 4.42 C 448.03 8.44 447.49 12.90 446.11 16.83 C 437.35 41.55 428.65 66.29 419.85 91.00 C 416.32 101.10 412.70 111.18 409.20 121.30 C 405.68 130.78 402.52 140.39 399.02 149.88 C 397.71 153.82 396.48 157.84 394.31 161.40 C 390.48 165.64 384.63 167.36 379.05 167.29 C 277.70 167.31 176.34 167.31 74.99 167.30 C 71.91 167.58 68.77 166.03 67.66 163.05 C 66.85 158.63 67.11 153.92 68.91 149.77 C 76.71 127.87 84.35 105.91 92.20 84.03 C 100.47 60.45 108.84 36.90 117.15 13.32 C 118.14 10.50 119.10 7.45 121.45 5.43 Z" />
<path fill="#ffffff" opacity="1.00" d=" M 529.16 2.27 C 533.55 0.55 538.36 0.69 543.00 0.75 C 643.00 0.76 742.99 0.74 842.99 0.76 C 845.78 0.61 848.93 2.13 849.56 5.08 C 851.74 12.81 847.28 20.09 845.21 27.30 C 839.03 44.16 833.30 61.20 827.14 78.07 C 823.42 88.74 819.65 99.38 815.87 110.02 C 810.26 125.95 804.61 141.87 798.98 157.80 C 797.57 161.27 794.74 164.19 791.20 165.50 C 786.76 167.59 781.74 167.28 776.98 167.31 C 677.33 167.30 577.68 167.30 478.03 167.30 C 476.22 167.36 474.48 166.86 472.77 166.39 C 469.80 163.51 469.22 159.06 470.15 155.18 C 470.53 152.00 471.93 149.11 472.96 146.11 C 475.69 138.40 478.38 130.68 481.15 122.99 C 487.45 105.00 493.83 87.02 500.20 69.06 C 503.66 59.00 507.34 49.03 510.81 38.98 C 514.29 29.40 517.53 19.73 521.05 10.16 C 522.34 6.46 525.57 3.68 529.16 2.27 Z" />
<path fill="#ffffff" opacity="1.00" d=" M 1747.69 140.71 C 1833.36 140.71 1919.02 140.73 2004.69 140.70 C 2005.36 145.58 2003.16 150.10 2001.81 154.66 C 1997.23 169.12 1992.65 183.59 1988.14 198.07 C 1987.08 200.52 1986.75 203.24 1985.50 205.59 C 1930.66 259.52 1882.80 320.30 1841.10 384.86 C 1818.23 420.43 1797.19 457.20 1778.38 495.08 C 1769.83 512.64 1761.21 530.21 1753.98 548.35 C 1724.96 548.68 1695.91 548.42 1666.88 548.49 C 1673.65 531.56 1681.89 515.21 1689.96 498.86 C 1742.42 394.42 1812.71 298.92 1896.99 217.93 C 1898.45 216.56 1899.90 215.16 1901.15 213.57 C 1842.47 213.51 1783.80 213.58 1725.12 213.54 C 1729.93 197.56 1735.03 181.68 1739.83 165.70 C 1742.55 157.40 1745.04 149.03 1747.69 140.71 Z" />
<path fill="#ffffff" opacity="1.00" d=" M 1155.76 277.76 C 1170.33 265.17 1190.08 260.15 1209.02 260.50 C 1219.96 260.57 1231.51 262.11 1240.81 268.29 C 1248.85 273.65 1252.78 283.54 1252.52 292.98 C 1252.53 300.70 1249.77 308.01 1248.35 315.50 C 1234.72 315.82 1221.07 315.59 1207.43 315.62 C 1210.08 308.79 1211.11 301.12 1208.99 294.02 C 1207.08 289.91 1202.12 288.98 1198.05 289.27 C 1189.20 288.89 1181.59 295.35 1177.90 302.96 C 1175.30 308.50 1172.87 314.94 1174.95 321.05 C 1177.48 328.25 1184.58 332.17 1191.05 335.32 C 1199.98 339.76 1209.55 343.29 1217.37 349.65 C 1221.46 352.93 1224.74 357.20 1226.87 361.99 C 1231.94 374.58 1228.21 388.49 1223.82 400.68 C 1217.44 419.55 1204.48 436.89 1186.03 445.28 C 1174.75 450.44 1162.29 452.86 1149.91 452.76 C 1137.98 453.33 1125.37 453.15 1114.44 447.70 C 1107.60 444.34 1102.43 437.87 1100.77 430.43 C 1099.13 420.85 1100.90 411.08 1104.15 402.03 C 1105.02 399.12 1106.08 396.26 1106.70 393.28 C 1109.43 392.63 1112.26 392.90 1115.05 392.87 C 1125.97 392.89 1136.88 392.85 1147.81 392.89 C 1145.22 400.68 1142.18 408.77 1143.64 417.11 C 1144.93 419.70 1146.67 422.23 1149.55 423.23 C 1158.75 426.14 1169.48 423.07 1175.54 415.50 C 1180.87 408.68 1184.76 399.89 1183.36 391.08 C 1181.87 384.87 1176.54 380.66 1171.19 377.76 C 1160.62 372.03 1148.58 368.61 1139.46 360.47 C 1133.24 355.07 1129.62 347.21 1128.83 339.08 C 1128.34 331.25 1130.11 323.48 1132.11 315.96 C 1136.37 301.45 1144.06 287.57 1155.76 277.76 Z" />
<path fill="#ffffff" opacity="1.00" d=" M 1485.62 276.57 C 1499.24 265.03 1517.48 260.43 1535.05 260.50 C 1546.16 260.40 1557.89 261.68 1567.50 267.70 C 1574.93 272.30 1579.40 280.59 1580.70 289.08 C 1582.21 297.35 1581.21 305.78 1580.20 314.05 C 1576.95 331.79 1571.52 349.06 1566.18 366.28 C 1562.60 376.59 1559.35 387.06 1554.79 397.01 C 1547.41 414.39 1536.90 431.40 1520.70 441.81 C 1503.52 453.04 1481.94 455.06 1462.00 452.57 C 1450.89 451.36 1439.56 445.60 1434.75 435.04 C 1430.59 425.30 1430.67 414.35 1432.08 404.03 C 1432.81 398.32 1433.81 392.63 1435.11 387.02 C 1436.14 383.01 1436.86 378.92 1438.15 374.98 C 1441.43 362.90 1445.03 350.89 1449.22 339.10 C 1450.29 335.66 1451.51 332.28 1452.85 328.95 C 1460.18 309.65 1469.44 290.05 1485.62 276.57 M 1510.45 297.64 C 1504.23 305.76 1500.73 315.52 1497.14 324.99 C 1490.56 344.16 1484.80 363.61 1479.34 383.12 C 1476.64 394.55 1472.84 406.18 1474.60 418.07 C 1476.61 423.98 1483.59 425.12 1488.98 423.94 C 1495.53 423.19 1500.53 418.17 1503.98 412.91 C 1510.16 403.35 1513.73 392.44 1517.62 381.82 C 1520.55 372.91 1523.27 363.93 1526.10 355.00 C 1530.14 340.79 1534.81 326.70 1537.22 312.09 C 1538.16 305.94 1539.36 299.19 1536.32 293.43 C 1534.01 289.52 1529.09 288.96 1525.01 289.31 C 1519.05 289.26 1513.93 293.12 1510.45 297.64 Z" />
<path fill="#ffffff" opacity="1.00" d=" M 57.18 273.46 C 68.49 265.42 82.32 261.81 96.00 260.74 C 108.27 260.07 121.13 260.34 132.43 265.70 C 140.36 269.43 146.14 277.20 147.43 285.87 C 149.11 297.58 146.58 309.52 142.61 320.52 C 129.11 320.84 115.58 320.55 102.07 320.66 C 104.06 312.74 107.06 304.47 104.88 296.27 C 103.67 292.05 99.33 289.41 95.05 289.67 C 88.12 289.30 81.90 293.56 77.98 298.99 C 71.33 308.16 67.61 319.01 63.70 329.54 C 57.15 348.75 51.15 368.16 45.90 387.77 C 44.01 396.11 41.75 404.50 41.72 413.11 C 41.75 417.52 43.55 422.68 48.15 424.13 C 54.12 425.69 60.81 424.54 65.70 420.70 C 71.50 416.21 75.15 409.58 78.26 403.08 C 81.62 395.50 84.50 387.69 86.51 379.65 C 80.10 379.64 73.68 379.67 67.26 379.62 C 70.28 369.89 73.03 360.07 76.16 350.38 C 95.75 350.44 115.35 350.36 134.94 350.42 C 125.12 383.76 114.77 416.96 104.75 450.24 C 94.64 450.25 84.52 450.24 74.41 450.24 C 76.30 444.20 78.33 438.20 79.95 432.09 C 76.68 436.04 73.37 440.02 69.21 443.09 C 59.37 450.95 46.58 454.76 34.05 454.18 C 26.38 453.84 18.36 453.21 11.56 449.32 C 5.69 446.10 1.52 440.24 0.00 433.77 L 0.00 403.33 C 0.85 397.15 2.32 391.07 3.76 385.01 C 9.74 362.15 16.63 339.47 25.48 317.56 C 32.62 300.84 41.98 284.11 57.18 273.46 Z" />
<path fill="#ffffff" opacity="1.00" d=" M 559.35 263.61 C 572.15 263.75 584.96 263.78 597.76 263.60 C 597.72 266.59 596.39 269.33 595.59 272.16 C 585.34 305.44 575.13 338.73 564.90 372.01 C 562.15 380.63 559.68 389.34 556.88 397.94 C 555.85 401.20 555.00 404.53 553.83 407.75 C 552.85 411.15 551.89 414.56 550.75 417.92 C 547.49 428.69 544.09 439.42 540.92 450.21 C 525.10 450.30 509.28 450.19 493.46 450.27 C 493.81 407.21 495.29 364.16 495.53 321.10 C 487.02 346.93 479.66 373.17 471.44 399.12 C 466.45 416.18 460.98 433.11 456.05 450.19 C 443.53 450.30 431.01 450.23 418.49 450.22 C 419.99 445.13 421.51 440.04 423.13 434.99 C 437.74 386.75 452.46 338.55 467.17 290.34 C 469.99 281.44 472.27 272.35 475.58 263.61 C 491.58 263.77 507.59 263.74 523.59 263.63 C 523.64 288.75 522.60 313.86 522.32 338.99 C 522.31 354.30 521.31 369.59 521.64 384.91 C 523.05 382.39 523.61 379.51 524.47 376.78 C 534.36 344.49 544.23 312.20 554.09 279.91 C 555.90 274.49 557.13 268.88 559.35 263.61 Z" />
<path fill="#ffffff" opacity="1.00" d=" M 943.60 263.63 C 967.06 263.80 990.53 263.66 1013.99 263.70 C 1023.71 263.85 1034.24 265.44 1041.76 272.14 C 1047.39 277.13 1049.74 284.67 1050.07 291.99 C 1050.11 302.86 1047.11 313.58 1042.78 323.50 C 1036.97 337.16 1026.35 349.17 1012.28 354.56 C 1009.29 356.06 1005.67 356.18 1002.97 358.17 C 1010.50 359.12 1019.03 362.49 1021.79 370.22 C 1025.28 380.29 1021.86 390.93 1020.10 400.99 C 1017.84 411.68 1015.50 422.35 1013.13 433.02 C 1011.77 438.47 1010.43 443.94 1009.17 449.41 C 995.11 449.96 981.02 449.97 966.95 450.22 C 969.17 440.88 970.90 431.42 973.16 422.10 C 975.37 409.40 979.72 396.95 979.66 383.96 C 979.91 379.88 978.18 375.16 973.95 373.84 C 969.74 372.74 965.26 372.74 960.95 373.13 C 957.77 372.73 954.56 372.72 951.42 373.35 C 945.24 393.57 939.07 413.79 932.82 433.99 C 931.34 439.44 929.24 444.71 928.02 450.23 C 914.02 450.22 900.03 450.32 886.04 450.18 C 888.31 442.43 890.69 434.72 893.13 427.02 C 894.18 423.72 895.01 420.35 896.20 417.10 C 908.09 378.05 920.16 339.06 932.15 300.03 C 932.43 299.01 932.74 298.00 933.09 297.00 C 934.00 293.98 934.95 290.97 935.84 287.94 C 938.52 279.87 940.56 271.57 943.60 263.63 M 975.87 294.63 C 971.95 309.95 966.53 324.89 962.17 340.11 C 961.90 340.80 961.64 341.50 961.40 342.21 C 968.94 342.00 976.72 343.01 983.99 340.44 C 991.97 337.52 997.81 330.63 1001.23 323.05 C 1003.99 316.58 1006.88 309.19 1004.64 302.16 C 1002.66 296.11 995.75 294.14 990.02 294.21 C 985.31 294.35 980.50 293.68 975.87 294.63 Z" />
<path fill="#ffffff" opacity="1.00" d=" M 1084.61 263.67 C 1098.52 263.73 1112.43 263.72 1126.34 263.67 C 1107.39 325.87 1088.54 388.12 1069.45 450.27 C 1055.38 450.19 1041.30 450.28 1027.23 450.23 C 1040.32 406.77 1053.81 363.41 1067.17 320.03 C 1072.98 301.24 1078.53 282.36 1084.61 263.67 Z" />
<path fill="#ffffff" opacity="1.00" d=" M 1606.96 283.80 C 1611.95 273.21 1622.34 265.41 1633.92 263.65 C 1640.36 263.02 1647.07 263.19 1653.12 265.76 C 1665.37 270.29 1674.77 281.94 1676.16 294.98 C 1677.85 307.33 1672.87 320.35 1663.24 328.29 C 1658.56 332.11 1652.96 334.90 1646.98 335.93 C 1639.45 337.11 1631.38 336.75 1624.43 333.38 C 1614.55 329.03 1607.05 319.85 1604.39 309.43 C 1602.38 300.93 1603.06 291.67 1606.96 283.80 M 1633.12 271.13 C 1630.33 271.79 1627.63 272.77 1625.14 274.17 C 1614.15 280.26 1607.60 293.71 1610.41 306.07 C 1611.81 313.80 1616.45 320.55 1622.58 325.33 C 1627.77 328.73 1633.78 331.06 1640.05 331.14 C 1653.28 331.41 1665.55 321.74 1669.16 309.14 C 1674.57 292.86 1662.58 274.16 1645.97 271.07 C 1641.79 270.14 1637.27 270.09 1633.12 271.13 Z" />
<path fill="#ffffff" opacity="1.00" d=" M 172.78 305.97 C 177.19 291.90 181.49 277.80 185.80 263.70 C 210.88 263.81 235.96 263.50 261.03 263.85 C 268.91 264.57 277.25 266.17 283.46 271.45 C 289.79 276.61 292.66 285.04 292.54 293.03 C 292.73 299.85 291.04 306.55 289.22 313.07 C 284.92 326.79 277.64 340.23 265.65 348.67 C 259.43 353.12 252.19 355.74 244.94 357.92 C 252.02 359.17 259.99 361.59 263.56 368.45 C 267.15 376.50 265.44 385.62 264.03 393.99 C 260.27 412.53 256.12 430.98 252.21 449.48 C 237.98 449.86 223.73 450.03 209.49 450.21 C 210.50 446.20 211.08 442.08 212.19 438.09 C 213.19 432.31 214.83 426.68 215.87 420.91 C 218.09 410.32 220.80 399.79 222.03 389.02 C 222.43 384.50 222.67 379.20 219.42 375.61 C 215.50 371.91 209.76 373.64 204.95 373.04 C 201.25 372.50 197.55 373.12 193.86 373.31 C 186.88 396.98 179.37 420.52 172.25 444.16 C 171.53 446.15 170.98 448.21 170.37 450.24 C 156.81 450.22 143.24 450.28 129.68 450.22 C 129.37 450.06 128.75 449.74 128.44 449.58 C 132.99 436.48 136.70 423.09 140.86 409.86 C 150.34 379.27 159.64 348.63 169.15 318.05 C 170.16 314.78 170.99 311.45 172.25 308.25 C 172.38 307.68 172.65 306.54 172.78 305.97 M 218.75 294.27 C 216.70 301.25 214.28 308.11 212.18 315.07 C 209.28 324.11 206.15 333.08 203.54 342.21 C 211.64 341.99 220.12 343.12 227.83 339.97 C 235.95 336.41 241.89 328.97 244.85 320.75 C 247.04 315.02 248.71 308.68 247.25 302.56 C 246.02 297.99 241.50 295.17 237.00 294.62 C 230.96 293.84 224.83 294.21 218.75 294.27 Z" />
<path fill="#ffffff" opacity="1.00" d=" M 364.98 263.74 C 382.42 263.66 399.86 263.72 417.30 263.70 C 413.20 325.89 408.85 388.07 404.62 450.23 C 392.06 450.27 379.51 450.21 366.96 450.26 C 365.12 450.16 363.11 450.56 361.44 449.62 C 363.46 438.77 364.38 427.70 365.81 416.77 C 365.96 416.43 366.27 415.75 366.43 415.41 C 362.01 414.46 357.48 415.04 353.01 414.89 C 342.97 415.02 332.91 414.63 322.87 415.08 C 317.52 426.89 311.48 438.38 306.14 450.19 C 291.52 450.30 276.89 450.24 262.27 450.22 C 280.58 417.68 298.29 384.78 316.40 352.12 C 332.58 322.65 348.81 293.21 364.98 263.74 M 345.40 368.61 C 343.69 372.69 341.29 376.46 339.97 380.70 C 350.02 380.65 360.08 380.87 370.13 380.59 C 371.67 365.41 373.58 350.26 375.44 335.11 C 376.47 322.64 378.94 310.29 379.53 297.79 C 367.94 321.28 356.85 345.04 345.40 368.61 Z" />
<path fill="#ffffff" opacity="1.00" d=" M 672.24 264.40 C 711.29 264.15 750.36 264.41 789.42 264.26 C 785.85 276.10 782.13 287.90 778.41 299.70 C 765.90 299.67 753.39 299.65 740.88 299.71 C 739.84 303.88 738.30 307.91 737.16 312.06 C 733.12 325.05 729.12 338.05 725.18 351.07 C 724.03 354.34 723.18 357.70 722.10 360.99 C 719.43 369.66 716.67 378.30 714.17 387.02 C 707.48 408.05 701.22 429.21 694.62 450.27 C 680.55 450.23 666.48 450.20 652.41 450.29 C 659.13 426.68 666.86 403.29 673.82 379.72 C 675.31 375.18 676.70 370.61 678.11 366.04 C 679.21 361.90 680.78 357.90 681.80 353.74 C 683.13 350.26 683.91 346.60 685.19 343.10 C 689.57 328.61 694.10 314.18 698.45 299.69 C 685.97 299.65 673.49 299.70 661.02 299.66 C 661.68 297.43 662.41 295.23 663.16 293.03 C 666.10 283.47 668.87 273.79 672.24 264.40 Z" />
<path fill="#ffffff" opacity="1.00" d=" M 801.69 263.69 C 815.60 263.71 829.51 263.70 843.43 263.70 C 843.00 265.22 842.60 266.75 842.20 268.29 C 828.41 312.96 814.88 357.71 801.22 402.43 C 799.75 408.18 798.30 415.00 801.77 420.32 C 805.70 425.26 813.00 424.86 818.46 423.16 C 826.92 419.91 831.78 411.42 834.56 403.25 C 847.37 361.45 860.09 319.63 872.85 277.81 C 874.56 273.13 875.33 268.13 877.49 263.61 C 891.50 263.81 905.52 263.65 919.53 263.70 C 910.07 295.21 900.37 326.64 890.80 358.12 C 885.40 374.77 881.34 391.91 874.35 408.00 C 868.11 422.12 858.62 435.33 845.13 443.27 C 829.30 452.80 810.07 454.55 792.02 452.97 C 780.47 452.06 767.77 447.82 761.76 437.15 C 756.69 427.59 757.30 416.34 759.18 406.03 C 762.46 389.66 768.32 373.98 772.82 357.94 C 777.72 342.43 782.33 326.83 787.11 311.28 C 788.54 306.88 789.71 302.41 791.16 298.02 C 794.67 286.58 798.12 275.12 801.69 263.69 Z" />
<path fill="#ffffff" opacity="1.00" d=" M 1286.11 264.13 C 1287.52 263.26 1289.34 263.85 1290.95 263.69 C 1309.85 263.68 1328.75 263.77 1347.65 263.64 C 1347.42 273.14 1345.19 282.46 1344.46 291.92 C 1344.32 293.53 1344.22 295.16 1343.67 296.69 C 1341.49 316.92 1338.50 337.05 1336.25 357.27 C 1334.80 366.73 1333.87 376.28 1332.48 385.75 C 1332.68 385.76 1333.09 385.77 1333.29 385.78 C 1341.61 368.55 1349.88 351.29 1358.22 334.08 C 1366.69 316.28 1375.43 298.60 1383.79 280.75 C 1386.18 276.30 1388.19 271.65 1390.42 267.12 C 1391.05 265.93 1391.40 264.42 1392.69 263.72 C 1412.68 263.67 1432.68 263.73 1452.67 263.70 C 1447.94 279.52 1442.92 295.26 1438.18 311.08 C 1424.67 354.69 1411.39 398.36 1397.88 441.96 C 1397.05 444.74 1396.21 447.51 1395.33 450.26 C 1382.31 450.22 1369.29 450.25 1356.28 450.25 C 1356.83 448.15 1357.40 446.04 1358.16 444.00 C 1359.37 439.66 1360.89 435.40 1362.14 431.06 C 1374.02 392.34 1385.99 353.64 1397.85 314.91 C 1398.96 311.59 1399.93 308.22 1400.89 304.86 C 1398.21 308.34 1396.87 312.68 1394.72 316.50 C 1375.60 355.17 1356.54 393.87 1337.39 432.53 C 1334.33 438.42 1331.77 444.60 1328.35 450.30 C 1317.66 450.17 1306.97 450.28 1296.28 450.24 C 1297.53 434.82 1299.47 419.43 1301.10 404.05 C 1301.93 397.14 1302.29 390.17 1303.29 383.29 C 1305.61 360.88 1308.04 338.46 1310.45 316.05 C 1310.57 312.31 1311.64 308.63 1311.30 304.86 C 1299.78 340.75 1289.08 376.93 1277.82 412.90 C 1276.85 416.15 1275.94 419.43 1274.80 422.62 C 1272.04 431.84 1269.22 441.05 1266.30 450.22 C 1253.82 450.26 1241.34 450.24 1228.87 450.23 C 1232.02 440.19 1234.94 430.08 1238.19 420.07 C 1250.31 380.33 1262.62 340.65 1274.77 300.91 C 1275.92 297.63 1276.81 294.26 1277.83 290.93 C 1280.62 282.01 1283.34 273.06 1286.11 264.13 Z" />
<path fill="#ffffff" opacity="1.00" d=" M 1625.85 278.26 C 1634.02 278.87 1642.92 276.56 1650.49 280.52 C 1657.48 284.40 1657.06 295.69 1650.07 299.41 C 1649.33 299.54 1647.85 299.79 1647.11 299.91 C 1649.55 300.89 1652.56 302.03 1653.26 304.90 C 1654.14 310.19 1654.67 315.60 1656.67 320.63 C 1653.90 320.78 1651.13 320.84 1648.38 320.89 C 1646.24 315.42 1647.75 308.80 1643.95 304.03 C 1640.80 301.39 1636.21 302.83 1632.45 302.45 C 1632.44 308.68 1632.46 314.92 1632.44 321.15 C 1630.39 321.24 1628.36 321.29 1626.35 321.42 C 1625.57 319.01 1625.88 316.48 1625.85 314.00 C 1625.86 302.09 1625.86 290.17 1625.85 278.26 M 1632.48 284.65 C 1632.45 288.43 1632.34 292.22 1632.61 296.00 C 1637.11 295.10 1642.07 296.74 1646.21 294.12 C 1646.96 292.15 1647.64 290.06 1647.14 287.93 C 1646.72 286.01 1644.66 285.56 1643.21 284.72 C 1639.62 284.65 1636.05 284.69 1632.48 284.65 Z" />
<path fill="#ffffff" opacity="1.00" d=" M 980.15 491.11 C 988.04 490.01 996.35 490.43 1003.85 493.27 C 1009.86 495.54 1014.32 501.07 1015.02 507.51 C 1010.87 507.55 1006.73 507.52 1002.60 507.58 C 1001.42 504.80 999.95 501.84 997.01 500.61 C 990.99 498.08 983.74 498.01 977.86 500.96 C 973.98 502.84 973.45 509.40 977.79 511.06 C 986.12 514.52 995.45 513.56 1004.02 516.10 C 1007.54 517.09 1011.06 518.62 1013.56 521.39 C 1018.62 527.39 1017.27 537.37 1011.18 542.16 C 1006.84 545.65 1001.24 547.06 995.79 547.46 C 995.56 547.85 995.10 548.62 994.86 549.00 L 982.57 549.00 C 986.10 548.80 989.64 548.80 993.19 548.94 C 993.66 548.21 994.16 547.50 994.68 546.80 L 993.15 547.52 C 984.87 548.05 975.77 548.12 968.54 543.43 C 963.89 540.49 961.38 535.03 961.38 529.63 C 965.49 529.69 969.61 529.48 973.72 529.69 C 974.76 531.78 975.07 534.34 976.89 535.99 C 980.03 539.13 984.67 539.88 988.92 540.24 C 993.44 540.40 998.41 539.96 1002.10 537.07 C 1004.93 534.88 1005.51 530.06 1002.46 527.81 C 998.03 524.88 992.50 524.64 987.42 523.82 C 980.72 522.80 973.57 522.10 967.81 518.24 C 961.50 513.92 961.00 504.22 965.58 498.47 C 969.04 493.95 974.70 491.93 980.15 491.11 Z" />
<path fill="#ffffff" opacity="1.00" d=" M 1425.71 492.13 C 1433.28 490.66 1441.19 490.82 1448.72 492.53 C 1457.51 494.58 1465.54 501.11 1467.86 510.05 C 1470.64 520.25 1469.30 532.58 1461.28 540.15 C 1454.08 547.02 1443.56 548.67 1433.98 548.43 C 1425.52 547.98 1416.42 545.91 1410.42 539.50 C 1401.00 529.62 1400.65 512.56 1408.81 501.82 C 1412.93 496.58 1419.21 493.31 1425.71 492.13 M 1426.58 500.81 C 1420.95 503.41 1416.42 508.71 1415.49 514.94 C 1414.72 521.02 1415.25 527.71 1419.11 532.74 C 1426.06 543.05 1442.65 544.24 1451.09 535.17 C 1457.19 529.42 1458.56 519.88 1455.64 512.24 C 1453.14 506.03 1447.55 501.38 1441.09 499.75 C 1436.26 499.40 1431.14 498.75 1426.58 500.81 Z" />
<path fill="#ffffff" opacity="1.00" d=" M 69.18 492.55 C 73.19 492.71 77.21 492.56 81.22 492.72 C 81.31 499.76 81.07 506.81 81.36 513.84 C 93.02 513.61 104.69 513.85 116.35 513.72 C 116.33 506.69 116.30 499.65 116.37 492.62 C 120.39 492.64 124.41 492.63 128.43 492.64 C 128.48 510.87 128.44 529.11 128.44 547.35 C 124.45 547.36 120.46 547.29 116.47 547.42 C 116.15 539.13 116.43 530.83 116.32 522.54 C 104.63 522.53 92.94 522.55 81.26 522.53 C 81.28 530.49 81.09 538.45 81.35 546.40 C 77.72 548.47 72.96 546.81 68.87 547.35 C 68.88 532.24 68.87 517.12 68.88 502.01 C 68.90 498.85 68.69 495.68 69.18 492.55 Z" />
<path fill="#ffffff" opacity="1.00" d=" M 390.83 492.67 C 395.59 492.60 400.36 492.64 405.13 492.65 C 413.69 510.84 422.00 529.15 430.63 547.31 C 426.01 547.39 421.39 547.33 416.77 547.36 C 414.77 543.02 412.89 538.62 410.80 534.33 C 401.95 533.98 393.00 533.96 384.15 534.34 C 382.15 538.66 380.18 543.00 378.23 547.35 C 373.88 547.33 369.54 547.40 365.19 547.27 C 365.45 546.99 365.95 546.43 366.21 546.15 C 374.19 528.23 382.78 510.56 390.83 492.67 M 396.78 503.61 C 395.93 505.75 395.06 507.88 394.15 510.00 C 392.09 515.13 389.29 520.03 388.00 525.43 C 394.29 525.37 400.57 525.41 406.86 525.40 C 406.32 523.92 405.71 522.47 405.12 521.02 C 402.86 514.76 399.78 508.78 397.90 502.39 C 397.62 502.70 397.06 503.31 396.78 503.61 Z" />
<path fill="#ffffff" opacity="1.00" d=" M 440.56 492.63 C 444.56 492.64 448.55 492.64 452.55 492.62 C 452.64 507.91 452.57 523.19 452.59 538.48 C 463.98 538.51 475.38 538.51 486.78 538.48 C 486.82 541.43 486.81 544.39 486.80 547.35 C 471.39 547.35 455.98 547.34 440.58 547.35 C 440.50 529.11 440.52 510.87 440.56 492.63 Z" />
<path fill="#ffffff" opacity="1.00" d=" M 593.31 492.61 C 605.88 492.70 618.46 492.56 631.03 492.68 C 636.50 492.95 642.54 494.53 645.97 499.14 C 648.78 503.75 649.52 509.97 646.78 514.78 C 645.16 517.74 642.24 519.70 639.23 521.05 C 643.63 521.50 646.26 525.81 646.78 529.87 C 647.55 535.66 647.09 541.52 647.21 547.35 C 643.35 547.34 639.50 547.35 635.65 547.34 C 635.40 541.96 636.25 536.40 634.72 531.16 C 633.70 527.39 629.60 525.76 626.02 525.75 C 619.19 525.67 612.37 525.81 605.54 525.69 C 605.29 532.90 605.50 540.12 605.43 547.34 C 601.41 547.37 597.40 547.28 593.39 547.43 C 593.11 529.16 593.27 510.88 593.31 492.61 M 605.43 501.53 C 605.45 506.73 605.37 511.93 605.49 517.14 C 611.98 517.11 618.48 517.13 624.98 517.13 C 627.80 517.08 630.81 516.89 633.25 515.33 C 635.84 513.43 635.87 509.74 635.35 506.88 C 634.49 503.17 630.37 501.67 626.97 501.58 C 619.79 501.44 612.61 501.57 605.43 501.53 Z" />
<path fill="#ffffff" opacity="1.00" d=" M 662.73 492.65 C 666.71 492.62 670.68 492.65 674.66 492.61 C 674.71 510.88 674.83 529.15 674.60 547.41 C 670.65 547.30 666.69 547.36 662.74 547.34 C 662.70 529.11 662.72 510.88 662.73 492.65 Z" />
<path fill="#ffffff" opacity="1.00" d=" M 683.17 492.62 C 687.51 492.64 691.84 492.64 696.18 492.63 C 702.56 507.03 708.64 521.56 714.90 536.01 C 718.77 528.23 721.69 520.00 725.21 512.05 C 727.84 505.52 730.60 499.04 733.38 492.58 C 737.54 492.68 741.70 492.63 745.87 492.62 C 737.80 510.93 729.33 529.06 721.14 547.32 C 716.98 547.38 712.83 547.29 708.67 547.40 C 708.17 546.56 707.69 545.72 707.23 544.88 C 699.33 527.41 690.92 510.16 683.17 492.62 Z" />
<path fill="#ffffff" opacity="1.00" d=" M 756.10 492.57 C 759.97 492.68 763.85 492.64 767.73 492.61 C 767.92 510.84 767.71 529.07 767.84 547.31 C 763.82 547.39 759.82 547.33 755.82 547.35 C 755.79 531.90 755.81 516.45 755.80 501.00 C 755.81 498.19 755.63 495.35 756.10 492.57 Z" />
<path fill="#ffffff" opacity="1.00" d=" M 786.32 492.60 C 790.83 492.92 795.62 492.13 799.99 492.95 C 811.38 506.19 822.04 520.10 833.57 533.23 C 833.73 519.70 833.57 506.17 833.65 492.64 C 837.25 492.68 840.85 492.54 844.46 492.65 C 844.67 492.90 845.09 493.40 845.30 493.65 C 845.30 511.53 845.31 529.41 845.29 547.29 C 840.84 547.38 836.40 547.36 831.96 547.32 C 820.49 533.93 809.43 520.19 797.89 506.87 C 797.36 520.36 797.93 533.90 797.60 547.41 C 793.86 547.31 790.11 547.31 786.38 547.42 C 786.13 529.15 786.25 510.87 786.32 492.60 Z" />
<path fill="#ffffff" opacity="1.00" d=" M 862.05 506.13 C 866.01 498.13 874.45 493.13 883.10 491.86 C 891.36 490.58 900.11 490.80 907.93 494.01 C 914.60 496.88 920.79 502.80 921.03 510.49 C 916.95 510.50 912.86 510.49 908.79 510.51 C 906.27 504.98 901.32 500.11 894.98 499.73 C 888.21 499.72 880.42 500.30 875.67 505.79 C 871.22 510.72 870.94 517.70 871.24 523.98 C 871.35 529.27 874.80 533.95 878.97 536.95 C 885.25 541.38 893.68 541.06 900.63 538.52 C 906.14 536.61 909.58 531.21 910.73 525.71 C 905.41 525.74 900.08 525.74 894.76 525.72 C 894.77 523.00 894.77 520.29 894.77 517.58 C 904.12 517.59 913.47 517.56 922.83 517.60 C 922.79 527.51 922.84 537.43 922.80 547.35 C 920.06 547.35 917.34 547.34 914.62 547.34 C 914.58 544.96 914.55 542.59 914.50 540.23 C 909.26 545.43 902.04 548.37 894.74 549.00 L 891.29 549.00 C 884.72 548.45 877.96 547.24 872.23 543.80 C 859.38 536.67 855.80 518.78 862.05 506.13 Z" />
<path fill="#ffffff" opacity="1.00" d=" M 1032.61 492.53 C 1036.63 492.72 1040.66 492.62 1044.69 492.61 C 1044.74 510.89 1044.92 529.19 1044.60 547.47 C 1040.59 547.25 1036.57 547.37 1032.56 547.35 C 1032.58 529.08 1032.49 510.80 1032.61 492.53 Z" />
<path fill="#ffffff" opacity="1.00" d=" M 1065.25 492.59 C 1070.89 492.68 1076.54 492.62 1082.19 492.63 C 1088.87 506.78 1095.23 521.10 1102.21 535.09 C 1108.66 520.90 1115.37 506.83 1121.92 492.69 C 1127.60 492.57 1133.30 492.66 1138.99 492.63 C 1139.30 510.86 1139.10 529.09 1139.09 547.32 C 1134.99 547.36 1130.89 547.38 1126.80 547.29 C 1127.28 532.26 1127.28 517.21 1127.41 502.16 C 1120.33 517.22 1113.56 532.43 1106.31 547.40 C 1103.11 547.32 1099.91 547.33 1096.72 547.37 C 1089.39 532.42 1082.73 517.15 1075.55 502.13 C 1075.59 517.21 1076.09 532.27 1076.20 547.35 C 1072.51 547.34 1068.84 547.35 1065.17 547.34 C 1065.19 529.09 1065.04 510.84 1065.25 492.59 Z" />
<path fill="#ffffff" opacity="1.00" d=" M 1154.49 492.62 C 1158.48 492.64 1162.48 492.64 1166.49 492.62 C 1166.61 504.06 1166.41 515.49 1166.58 526.93 C 1166.73 531.12 1167.98 536.10 1172.12 538.06 C 1176.63 540.33 1181.98 540.70 1186.92 539.93 C 1192.72 539.56 1197.98 535.10 1198.39 529.14 C 1198.80 516.98 1198.42 504.81 1198.59 492.64 C 1202.46 492.63 1206.33 492.62 1210.21 492.66 C 1209.80 506.21 1211.21 519.89 1209.22 533.34 C 1207.55 540.18 1201.71 545.28 1195.00 546.95 C 1187.12 548.94 1178.85 548.91 1170.94 547.17 C 1166.82 546.09 1162.76 544.30 1159.86 541.10 C 1156.10 537.08 1154.42 531.45 1154.48 526.03 C 1154.43 514.89 1154.42 503.76 1154.49 492.62 Z" />
<path fill="#ffffff" opacity="1.00" d=" M 1227.39 492.61 C 1231.36 492.65 1235.35 492.63 1239.34 492.64 C 1239.39 507.93 1239.29 523.23 1239.39 538.52 C 1250.77 538.48 1262.16 538.49 1273.55 538.52 C 1273.53 541.46 1273.53 544.41 1273.53 547.36 C 1258.16 547.36 1242.79 547.30 1227.42 547.39 C 1227.27 529.13 1227.33 510.87 1227.39 492.61 Z" />
<path fill="#ffffff" opacity="1.00" d=" M 1305.96 492.71 C 1310.71 492.53 1315.47 492.69 1320.24 492.61 C 1328.83 510.79 1337.27 529.06 1345.68 547.33 C 1341.08 547.36 1336.49 547.35 1331.91 547.33 C 1329.98 542.94 1327.87 538.64 1326.00 534.23 C 1317.12 534.22 1308.11 533.73 1299.32 534.45 C 1297.13 538.68 1295.52 543.17 1293.28 547.37 C 1289.00 547.29 1284.73 547.48 1280.48 547.22 C 1284.80 539.42 1288.01 531.01 1292.02 523.02 C 1296.62 512.89 1301.46 502.88 1305.96 492.71 M 1311.95 502.14 C 1309.06 509.97 1305.88 517.70 1302.61 525.38 C 1309.03 525.42 1315.45 525.39 1321.88 525.40 C 1318.86 517.54 1315.48 509.79 1311.95 502.14 Z" />
<path fill="#ffffff" opacity="1.00" d=" M 4.53 493.23 C 22.63 493.27 40.73 493.25 58.83 493.24 C 58.84 496.01 58.84 498.77 58.84 501.54 C 51.71 501.51 44.59 501.53 37.47 501.52 C 37.46 516.80 37.48 532.07 37.45 547.34 C 33.57 547.35 29.69 547.37 25.81 547.31 C 25.76 532.05 25.84 516.79 25.76 501.53 C 18.67 501.52 11.57 501.53 4.48 501.52 C 4.47 498.75 4.47 495.99 4.53 493.23 Z" />
<path fill="#ffffff" opacity="1.00" d=" M 145.07 492.61 C 161.30 492.65 177.53 492.65 193.76 492.62 C 193.85 495.40 193.89 498.19 193.69 500.97 C 181.32 500.73 168.95 500.94 156.59 500.87 C 156.52 505.45 156.62 510.03 156.51 514.62 C 168.48 514.81 180.45 514.65 192.42 514.70 C 192.46 517.50 192.46 520.30 192.43 523.11 C 180.47 523.11 168.51 523.12 156.55 523.11 C 156.56 528.23 156.57 533.35 156.55 538.48 C 169.21 538.52 181.87 538.49 194.53 538.49 C 194.53 541.22 194.53 543.96 194.54 546.70 C 188.70 546.96 182.79 546.32 177.00 547.10 C 175.04 546.60 173.01 546.70 171.06 547.16 C 162.39 547.30 153.72 547.26 145.04 547.34 C 144.97 529.10 144.93 510.85 145.07 492.61 Z" />
<path fill="#ffffff" opacity="1.00" d=" M 235.51 547.37 C 235.38 529.12 235.43 510.87 235.49 492.62 C 247.97 492.68 260.46 492.58 272.94 492.67 C 279.22 492.86 286.18 495.02 289.31 500.94 C 290.55 504.77 291.10 508.99 289.89 512.90 C 288.60 516.57 285.45 519.26 281.96 520.79 C 284.15 521.85 286.57 523.00 287.54 525.43 C 290.67 532.30 289.08 540.06 289.43 547.36 C 285.77 547.30 282.11 547.43 278.46 547.34 C 276.82 543.63 278.30 539.06 277.68 535.02 C 277.91 530.55 274.65 526.13 270.01 525.91 C 262.56 525.49 255.09 525.86 247.63 525.72 C 247.42 532.93 247.60 540.15 247.53 547.36 C 243.52 547.34 239.52 547.33 235.51 547.37 M 248.21 501.52 C 248.24 506.73 248.13 511.93 248.29 517.14 C 254.88 517.10 261.47 517.14 268.06 517.13 C 271.35 517.08 275.01 516.69 277.35 514.09 C 277.58 513.57 278.04 512.55 278.27 512.03 C 278.34 510.32 278.36 508.61 278.37 506.90 C 276.95 503.56 273.53 501.58 269.95 501.59 C 262.71 501.42 255.46 501.58 248.21 501.52 Z" />
<path fill="#ffffff" opacity="1.00" d=" M 305.79 495.96 C 305.77 494.76 305.99 493.61 306.45 492.51 C 322.48 492.72 338.52 492.72 354.55 492.51 C 355.60 495.05 355.04 497.87 355.32 500.54 C 342.80 501.30 330.20 500.66 317.66 500.87 C 317.55 505.44 317.69 510.01 317.54 514.59 C 329.48 514.85 341.44 514.63 353.38 514.70 C 353.41 517.50 353.42 520.30 353.40 523.11 C 341.47 523.12 329.55 523.11 317.63 523.11 C 317.59 528.24 317.63 533.37 317.60 538.50 C 330.27 538.49 342.94 538.51 355.60 538.49 C 355.60 541.22 355.60 543.96 355.62 546.69 C 349.05 546.77 342.49 546.69 335.93 546.86 C 326.39 547.67 316.73 547.05 307.15 547.34 C 305.52 547.42 305.77 545.10 305.78 544.01 C 305.82 527.99 305.81 511.98 305.79 495.96 Z" />
<path fill="#ffffff" opacity="1.00" d=" M 522.57 546.66 C 522.61 528.65 522.54 510.65 522.61 492.64 C 533.38 492.65 544.16 492.58 554.94 492.67 C 562.52 493.00 570.85 495.12 575.60 501.52 C 578.47 505.03 579.23 509.57 580.24 513.85 C 581.07 521.96 580.35 530.73 575.55 537.60 C 571.25 543.86 563.43 547.01 555.97 546.69 C 544.84 546.68 533.71 546.74 522.57 546.66 M 534.31 500.79 C 534.01 513.36 534.23 525.95 534.19 538.52 C 541.27 538.33 548.38 538.84 555.44 538.17 C 560.07 537.72 564.49 534.90 566.39 530.58 C 568.96 524.39 569.23 517.26 567.04 510.93 C 565.68 505.99 561.08 502.42 556.15 501.51 C 548.93 500.21 541.58 501.30 534.31 500.79 Z" />
<path fill="#ffffff" opacity="1.00" d=" M 1343.80 493.49 C 1356.50 492.94 1369.24 493.40 1381.96 493.25 C 1387.65 493.41 1393.37 492.90 1399.04 493.55 C 1398.39 496.10 1398.38 498.83 1399.02 501.39 C 1391.74 501.68 1384.46 501.45 1377.19 501.53 C 1377.25 516.79 1377.18 532.06 1377.22 547.33 C 1373.21 547.36 1369.21 547.35 1365.21 547.35 C 1365.18 532.10 1365.19 516.85 1365.21 501.61 C 1358.07 501.36 1350.94 501.73 1343.82 501.39 C 1343.84 498.75 1343.85 496.12 1343.80 493.49 Z" />
<path fill="#ffffff" opacity="1.00" d=" M 1481.76 499.03 C 1481.80 496.84 1481.40 494.52 1482.48 492.51 C 1494.97 492.85 1507.48 492.47 1519.99 492.69 C 1525.33 493.06 1531.21 494.53 1534.57 499.06 C 1537.26 502.59 1536.97 507.28 1536.67 511.47 C 1536.05 516.10 1532.01 519.24 1528.03 521.08 C 1532.88 521.55 1535.34 526.69 1535.67 531.04 C 1535.98 536.48 1535.75 541.93 1535.80 547.37 C 1531.99 547.33 1528.19 547.35 1524.40 547.34 C 1524.04 541.62 1525.28 535.52 1522.95 530.10 C 1521.04 525.97 1515.92 525.55 1511.95 525.72 C 1506.03 525.73 1500.12 525.76 1494.21 525.70 C 1493.79 532.93 1494.57 540.21 1493.76 547.42 C 1490.00 547.25 1486.24 547.43 1482.49 547.34 C 1481.23 546.18 1481.89 544.39 1481.75 542.92 C 1481.79 528.29 1481.77 513.66 1481.76 499.03 M 1493.86 501.57 C 1494.39 506.74 1493.75 511.94 1494.21 517.12 C 1501.14 517.09 1508.09 517.18 1515.03 517.09 C 1517.88 516.90 1521.34 516.62 1523.17 514.06 C 1524.71 511.49 1524.78 508.03 1523.42 505.38 C 1521.70 502.49 1518.09 501.53 1514.94 501.55 C 1507.91 501.51 1500.88 501.50 1493.86 501.57 Z" />
</g>
</svg>
