<svg width="162" height="147" viewBox="0 0 162 147" fill="none" xmlns="http://www.w3.org/2000/svg">
<path d="M117.747 0C122.906 10.02 132.04 18.3106 143.486 22.6848C132.155 27.3133 122.811 35.4852 117.766 45.6239C112.817 35.4174 103.396 27.3302 92.103 22.6509C103.587 18.3784 112.568 9.95214 117.747 0ZM107.715 22.7526C111.326 25.5161 114.67 28.517 117.766 31.7553C120.842 28.517 124.244 25.5161 127.932 22.8034C124.339 19.989 120.938 17.0051 117.747 13.8686C114.613 17.0051 111.25 19.9551 107.715 22.7526Z" fill="white"/>
<path d="M14.0264 11.4077C16.7016 16.3923 21.3068 20.19 26.7145 22.801C21.2113 25.2424 16.8927 29.2436 13.8927 33.9738C11.2366 29.1079 6.91806 24.9711 1.20459 22.9366C6.65054 20.2748 11.3895 16.494 14.0264 11.4077Z" fill="white"/>
<path d="M60.04 19.1897C67.5879 18.0707 75.6899 19.6305 81.4225 24.276C93.2316 33.6178 95.4864 49.7073 90.136 62.4061C84.6901 76.4272 70.6644 86.2607 55.5304 91.4826C51.8424 91.3978 49.5112 87.6679 51.6131 84.9043C56.2183 82.0221 61.5878 80.2758 66.1929 77.3767C78.9384 69.9168 86.5245 55.2514 82.5499 41.8914C80.811 35.2623 75.5562 28.5993 67.5114 27.4803C60.5941 25.8019 52.6067 29.4131 50.5239 35.5675C47.6958 40.8233 52.3201 48.2832 59.1992 47.8763C64.0528 48.4019 64.8553 43.2647 67.3968 40.7725C70.3013 39.1957 74.2185 41.1285 74.2568 44.1633C73.0147 50.4703 66.1929 55.2344 59.3139 56.0991C46.4347 56.7264 37.2625 43.6208 41.4473 33.3126C44.1034 25.9884 51.7277 20.7665 60.04 19.1897Z" fill="white"/>
<path d="M136.15 50.3691C141.577 47.792 146.125 43.9604 148.8 38.9758C151.513 43.9265 156.042 47.7412 161.469 50.3352C155.985 52.8105 151.666 56.7608 148.857 61.5928C146.086 56.71 141.691 52.7766 136.15 50.3691Z" fill="white"/>
<path d="M0 84.0078C7.7963 77.6839 14.5798 70.2241 22.7965 64.4427C37.5866 64.2223 52.4148 64.2901 67.224 64.4766C63.0774 67.7826 58.9309 71.4617 53.5231 73.0724C45.574 73.5301 37.6057 73.0893 29.6565 73.2419C29.6374 94.7229 29.6374 116.187 29.6374 137.668C60.6889 137.685 91.7403 137.668 122.792 137.668C122.792 116.187 122.792 94.706 122.792 73.2419C113.887 73.2419 105.002 73.208 96.1162 73.2589C97.7786 70.1901 99.4028 67.1045 100.893 63.951C110.677 63.9001 120.46 63.9001 130.244 63.934C137.219 70.987 145.034 77.3448 152.429 84.0587C150.041 86.161 147.633 88.2634 145.244 90.3826C141.27 86.8562 137.276 83.3636 133.301 79.8371C133.301 102.217 133.321 124.613 133.301 146.993C95.2372 147.01 57.192 146.993 19.1277 146.993C19.1277 124.613 19.1086 102.234 19.1277 79.8371C15.1531 83.3636 11.1785 86.8731 7.20394 90.3996C4.79625 88.2634 2.40768 86.1271 0 84.0078Z" fill="white"/>
</svg>
