<svg width="162" height="147" viewBox="0 0 162 147" fill="none" xmlns="http://www.w3.org/2000/svg">
<path d="M61.6642 55.0308C68.1591 36.7329 74.1023 18.2979 80.6474 0C86.9166 18.3893 93.1859 36.7557 99.7059 55.0765C120.194 54.9851 140.682 55.0765 161.195 55.0308C144.619 66.7953 127.917 78.3772 111.392 90.1646C113.774 96.9263 116.232 103.642 118.413 110.45C114.902 110.427 111.367 110.404 107.856 110.381C105.248 102.455 102.464 94.5734 99.8313 86.6466C110.389 79.131 121.046 71.7524 131.478 64.1455C118.388 64.214 105.273 64.1226 92.1828 64.2368C88.2206 53.089 84.4591 41.8956 80.5973 30.7249C76.936 41.8499 73.4503 53.0434 69.7891 64.1683C56.5234 64.1911 43.2577 64.1454 29.992 64.1911C40.4491 71.7067 50.9563 79.1538 61.4636 86.6238C57.6769 98.5254 53.464 110.29 49.5269 122.146C59.9589 114.836 70.3659 107.503 80.848 100.262C87.5937 105.104 94.4397 109.787 101.261 114.539C101.261 118.445 101.311 122.352 101.361 126.281C94.4899 121.506 87.669 116.663 80.7477 112.003C63.8208 123.608 46.9942 135.304 30.1425 147C36.6123 128.04 43.1574 109.102 49.7526 90.1646C33.2771 78.3086 16.4755 66.8867 0 55.0308C20.538 55.0308 41.1011 55.0536 61.6642 55.0308Z" fill="white"/>
<path d="M130.751 100.693C134.287 100.693 137.822 100.715 141.383 100.715C141.383 106.975 141.383 113.257 141.383 119.516C148.079 119.539 154.749 119.539 161.445 119.516C161.445 122.577 161.445 125.615 161.47 128.653C154.574 128.699 147.653 128.699 140.756 128.676C140.756 134.776 140.756 140.875 140.756 146.974C137.396 146.951 134.061 146.951 130.726 146.929C130.726 140.852 130.726 134.753 130.726 128.676C124.03 128.699 117.36 128.676 110.664 128.653C110.664 125.615 110.689 122.577 110.689 119.562C117.36 119.539 124.055 119.516 130.751 119.493C130.726 113.234 130.726 106.952 130.751 100.693Z" fill="white"/>
</svg>
