<svg width="195" height="128" viewBox="0 0 195 128" fill="none" xmlns="http://www.w3.org/2000/svg">
<path d="M53.4312 1.09086C58.1922 0.395497 63.0102 -0.191215 67.8282 0.0586809C73.3637 0.373767 76.9402 5.87147 82.5668 5.73022C91.3257 5.79541 100.085 5.6433 108.844 5.77368C111.475 5.65417 114.356 6.08877 116.748 4.78497C120.678 2.76407 124.607 0.221656 129.243 0.210791C138.856 0.330306 148.298 2.47072 157.422 5.2087C159.711 5.96926 162.308 6.90365 163.333 9.19617C164.689 11.8581 165.862 14.6395 167.81 16.9755C172.684 23.0708 175.281 30.4047 178.243 37.4344C184.906 52.917 192.15 68.5192 194.166 85.3166C195.51 95.0951 195.749 105.623 190.851 114.609C187.093 121.193 180.373 126.506 172.536 127.864C169.051 128.44 165.782 126.625 163.094 124.713C154.711 118.227 147.968 110.111 141.1 102.244C135.963 95.8122 127.546 92.2702 119.095 92.9981C105.404 93.0525 91.7016 93.0525 78.0108 93.009C73.3637 93.009 68.5913 93.2154 64.2062 94.8235C60.3677 96.312 57.3608 99.1477 54.5702 101.984C47.1667 109.752 40.7883 118.585 31.8472 124.887C28.8289 126.995 25.0246 128.809 21.209 127.625C11.6641 125.235 3.83922 117.477 1.53844 108.329C-1.08126 98.9956 0.091909 89.2062 1.75485 79.8189C3.44057 70.6053 7.08536 61.8916 10.0923 53.0474C12.1653 46.9413 15.0811 41.1502 17.6781 35.2505C20.7306 28.6446 23.9198 22.0169 28.4872 16.215C30.5032 13.7703 30.7993 10.5543 32.3142 7.85977C33.5101 6.30607 35.5831 5.78455 37.3827 5.12178C42.6449 3.50289 47.9754 2.01439 53.4312 1.09086ZM44.9685 14.5092C43.5789 16.215 42.9638 18.3663 41.6084 20.0938C39.6721 22.1907 36.9955 23.701 35.6742 26.2869C30.2184 36.7282 26.2092 47.7779 21.5279 58.5451C17.7806 67.2915 15.2975 76.505 13.7371 85.8272C12.7804 92.5961 12.0514 99.8322 14.9672 106.275C16.7099 110.111 19.9219 113.848 24.4323 114.652C28.4188 112.827 31.2094 109.383 34.2847 106.46C41.7109 99.4411 47.292 90.597 56.142 85.0123C61.7915 81.1444 68.9444 80.1557 75.7328 80.1231C89.7995 80.0144 103.855 80.1448 117.921 80.0579C122.42 80.0688 126.988 79.8949 131.384 80.9705C137.74 82.3721 143.287 86.0228 147.911 90.2927C153.606 96.1055 158.766 102.386 164.62 108.068C167.103 110.437 169.028 113.261 170.919 116.075C174.165 114.783 177.616 113.305 179.496 110.284C183.095 104.819 183.391 97.9852 182.981 91.7161C181.739 78.0696 177.229 64.912 171.705 52.3412C168.037 43.9425 164.746 35.37 160.554 27.1778C159.085 24.0921 155.987 22.2125 153.914 19.5614C152.866 17.8991 152 16.1389 151.066 14.4114C144.141 12.0211 136.692 10.6086 129.311 10.9563C124.55 12.3144 120.803 16.454 115.541 16.2802C103.877 16.3019 92.2141 16.3345 80.5508 16.2693C75.3114 16.2584 71.4502 12.3036 66.655 10.9672C59.3085 10.8259 51.8139 11.9233 44.9685 14.5092Z" fill="white"/>
<path d="M95.5294 28.9854C99.8235 27.247 105.2 31.8429 103.252 36.102C102.272 39.4593 97.591 41.2738 94.5841 39.1333C90.5634 37.0364 91.0759 30.3109 95.5294 28.9854Z" fill="white"/>
</svg>
