<svg width="147" height="120" viewBox="0 0 147 120" fill="none" xmlns="http://www.w3.org/2000/svg">
<path d="M0.260242 19.0534C6.29887 12.6676 12.4376 6.34421 18.5318 0C54.9526 0.134983 91.3735 -0.0415331 127.794 0.09345C134.222 6.16769 140.194 12.7611 146.311 19.1365C146.933 52.7057 146.644 86.3373 147 119.927C98.1127 120.062 49.2143 119.917 0.31585 120C0.115674 87.9467 0.14904 55.8934 0.0155901 23.8401C0.0600735 22.2411 -0.15123 20.6109 0.260242 19.0534ZM22.413 8.35857C19.5327 11.1932 16.6746 14.0486 13.8166 16.9144C53.2623 16.9352 92.708 16.8937 132.165 16.9352C129.474 14.1005 126.76 11.2867 124.091 8.45202C90.1947 8.2132 56.2983 8.4001 22.413 8.35857ZM9.29038 111.423C52.0946 111.382 94.8877 111.392 137.681 111.423C137.703 82.8381 137.625 54.2632 137.447 25.6779C94.6652 25.7818 51.8722 25.8233 9.09021 25.6676C8.99012 54.2425 9.15693 82.8381 9.29038 111.423Z" fill="#FEFEFE"/>
<path d="M68.4528 34.4C71.6667 34.2547 74.8806 34.2547 78.0946 34.4C77.8833 46.1955 78.0278 57.9909 78.0167 69.776C83.6995 65.7577 88.3035 60.4622 93.4858 55.8727C95.4876 57.8248 97.6228 59.6938 99.4911 61.7705C100.225 62.9645 98.4902 63.7121 97.8675 64.5117C89.6269 72.0188 81.5643 79.6817 73.3905 87.2511C64.4048 78.8718 55.4747 70.4302 46.4224 62.1131C48.6021 60.0261 50.7817 57.939 52.9614 55.852C58.1104 60.7218 63.3594 65.4877 68.4528 70.399C68.5751 58.4063 68.564 46.3928 68.4528 34.4Z" fill="#FEFEFE"/>
<path d="M45.4554 94.0522C64.1495 94.0522 82.8548 94.0626 101.549 94.0522C101.56 96.918 101.571 99.7942 101.593 102.66C82.8771 102.733 64.1495 102.67 45.4331 102.691C45.4553 99.815 45.4554 96.9284 45.4554 94.0522Z" fill="#FEFEFE"/>
</svg>
