<svg width="145" height="128" viewBox="0 0 145 128" fill="none" xmlns="http://www.w3.org/2000/svg">
<path d="M62.9113 0.577836C66.2598 -0.263449 69.9658 0.257347 73.4461 0.0971021C82.8333 -0.704122 91.8067 3.55572 96.5098 9.08417C100.63 14.0651 99.8395 20.0075 99.5009 25.536C96.3781 32.3063 88.0631 36.9801 78.8264 39.2236C78.1679 54.754 78.9768 70.3244 78.5254 85.8682L79.1273 87.2302C82.871 87.3504 86.6146 87.2569 90.3582 87.3104C90.6404 86.7361 91.1859 85.6011 91.4493 85.0402C93.2741 84.5328 95.2306 85.8147 97.093 84.9868C99.3316 84.2657 99.0494 86.4691 99.7455 87.3237C105.389 87.1635 111.052 87.2703 116.695 87.3504C116.959 86.7629 117.504 85.6011 117.786 85.0269C119.686 84.5194 121.756 86.0551 123.675 84.9601C127.437 83.8918 123.016 89.5938 127.832 88.0582C132.761 87.9647 137.351 89.6206 142.148 88.846C141.245 91.5435 143.051 93.7736 144.895 96.1238C145.026 104.63 144.932 113.136 144.951 121.629C145.421 123.886 142.374 125.222 141.038 127.024C138.461 126.891 136.241 128.146 133.664 127.986C92.8979 127.999 52.1507 127.986 11.3847 127.959C8.84506 128.026 6.45592 127.291 4.01033 126.944C2.44892 125.275 -0.372903 123.819 0.0409646 121.616C0.135026 113.136 -0.0342837 104.644 0.135026 96.1505C1.92218 93.7736 3.82221 91.5569 2.84398 88.846C7.49059 89.714 11.8926 88.1383 16.6333 88.0448C16.6333 84.8933 18.2323 81.5816 22.7473 80.4332C28.9929 80.0192 35.295 80.2329 41.5594 80.2329C46.5635 80.5133 49.1219 84.0253 49.7239 87.2035C55.1983 87.5374 60.7478 87.2169 66.241 87.2703C66.7866 71.2992 66.3915 55.2747 66.0905 39.2903C61.3122 37.7546 56.0636 36.5127 52.3388 33.7485C48.915 31.5719 47.3912 28.3803 45.4159 25.5226C45.0961 22.3711 45.1526 19.2197 45.3031 16.0682C46.714 9.15094 53.4299 2.86133 62.9113 0.577836ZM64.5103 8.45654C61.6508 10.0456 59.1676 11.9152 56.7597 13.8247C56.0824 17.5104 55.725 21.4097 56.929 25.0552C59.8449 27.5657 63.2499 29.8893 67.7272 30.8908C71.9411 31.2514 76.362 31.2914 80.463 30.4234C83.6611 28.1667 88.2513 26.2437 88.9661 22.8252C91.4305 19.874 88.5146 16.8427 88.0631 13.7847C84.1502 10.6466 79.6165 7.28141 73.4461 6.7072C70.2104 6.36 67.3509 7.58855 64.5103 8.45654ZM11.6293 96.3909C9.93617 103.949 11.3659 111.681 10.8015 119.306C51.8497 119.239 92.9167 119.493 133.946 119.132C134.153 112.282 134.115 105.431 134.04 98.5943C133.156 97.4458 131.914 96.5645 130.315 95.9502C93.8009 95.9235 57.2864 96.0304 20.772 95.9903C17.7244 96.017 14.6016 95.8434 11.6293 96.3909Z" fill="white"/>
</svg>
