<?xml version="1.0" encoding="UTF-8" ?>
<!DOCTYPE svg PUBLIC "-//W3C//DTD SVG 1.1//EN" "http://www.w3.org/Graphics/SVG/1.1/DTD/svg11.dtd">
<svg width="186pt" height="126pt" viewBox="0 0 186 126" version="1.1" xmlns="http://www.w3.org/2000/svg">
<g id="#ffffffff">
<path fill="#ffffff" opacity="1.00" d=" M 91.36 0.00 L 94.82 0.00 C 99.57 0.31 104.09 1.93 108.23 4.21 C 102.85 3.75 97.72 5.82 93.11 8.38 C 88.41 5.90 83.29 3.65 77.84 4.26 C 82.04 2.02 86.55 0.24 91.36 0.00 Z" />
<path fill="#ffffff" opacity="1.00" d=" M 73.39 7.85 C 78.34 8.54 81.84 12.48 85.34 15.67 C 80.05 22.25 75.18 29.29 71.91 37.10 C 70.72 39.84 70.23 42.81 70.41 45.79 C 66.59 40.31 64.25 33.70 64.67 26.96 C 64.99 19.77 68.28 12.88 73.39 7.85 Z" />
<path fill="#ffffff" opacity="1.00" d=" M 101.03 15.49 C 104.36 12.22 107.99 8.47 112.86 7.84 C 117.03 12.35 120.33 17.87 121.14 24.05 C 122.46 31.75 120.11 39.71 115.60 45.98 C 116.47 39.98 113.12 34.62 110.44 29.54 C 107.74 24.58 103.95 20.21 101.03 15.49 Z" />
<path fill="#ffffff" opacity="1.00" d=" M 75.26 42.24 C 79.88 34.64 86.21 28.21 93.11 22.68 C 99.67 28.17 105.87 34.28 110.45 41.55 C 111.75 43.80 113.20 46.53 112.29 49.18 C 102.30 59.26 84.52 59.22 74.17 49.67 C 72.58 47.34 74.22 44.46 75.26 42.24 Z" />
<path fill="#ffffff" opacity="1.00" d=" M 5.15 67.14 C 11.34 62.73 21.71 65.58 23.05 73.59 C 21.81 73.61 20.56 73.64 19.32 73.67 C 18.23 69.72 13.90 67.46 10.00 68.62 C 1.88 71.01 2.21 85.66 10.91 86.96 C 15.27 87.87 19.25 84.52 20.01 80.32 C 17.54 80.24 15.07 80.23 12.61 80.26 C 12.62 79.47 12.63 77.91 12.64 77.13 C 16.14 77.12 19.64 77.12 23.13 77.13 C 23.11 81.33 23.14 85.54 23.10 89.75 C 22.21 89.75 20.42 89.74 19.53 89.74 C 19.60 89.03 19.74 87.61 19.80 86.90 C 15.42 91.81 6.66 91.44 2.86 86.03 C -1.02 80.39 -0.55 71.41 5.15 67.14 Z" />
<path fill="#ffffff" opacity="1.00" d=" M 149.03 66.14 C 154.50 63.56 163.61 65.39 163.74 72.72 C 162.83 72.73 160.99 72.73 160.08 72.73 C 159.70 68.21 154.20 67.37 150.79 68.87 C 148.63 69.84 148.62 73.37 150.75 74.36 C 154.67 76.39 159.83 75.74 163.04 79.17 C 165.55 82.52 164.09 87.71 160.26 89.34 C 156.02 90.94 150.70 90.83 147.06 87.89 C 145.34 86.36 144.94 83.93 144.57 81.78 C 145.48 81.77 147.29 81.74 148.20 81.73 C 148.30 87.07 155.22 88.56 159.01 86.13 C 160.71 84.90 161.15 82.04 159.26 80.78 C 155.81 78.69 151.36 79.27 148.04 76.89 C 144.10 74.53 144.73 67.73 149.03 66.14 Z" />
<path fill="#ffffff" opacity="1.00" d=" M 170.35 66.21 C 175.81 63.47 185.09 65.37 185.16 72.74 C 183.96 72.74 182.76 72.75 181.57 72.76 C 181.16 68.18 175.50 67.24 172.07 68.98 C 170.22 70.06 170.15 72.99 171.88 74.23 C 175.76 76.30 180.77 75.68 184.13 78.81 C 187.13 81.99 185.69 87.87 181.60 89.41 C 177.48 90.86 172.41 90.79 168.78 88.10 C 166.83 86.63 166.46 84.04 166.01 81.80 C 166.93 81.78 168.78 81.73 169.70 81.71 C 169.65 87.05 176.46 88.46 180.28 86.28 C 182.17 85.08 182.70 81.80 180.53 80.62 C 176.81 78.61 171.98 79.24 168.73 76.27 C 165.66 73.51 166.48 67.81 170.35 66.21 Z" />
<path fill="#ffffff" opacity="1.00" d=" M 25.08 89.84 C 28.22 81.74 31.31 73.63 34.56 65.58 C 35.93 65.61 37.30 65.63 38.67 65.66 C 41.79 73.70 44.96 81.72 48.05 89.78 C 46.76 89.76 45.48 89.74 44.20 89.73 C 43.46 87.63 42.66 85.56 41.87 83.48 C 38.32 83.51 34.78 83.47 31.23 83.54 C 30.47 85.58 29.70 87.63 28.94 89.67 C 27.65 89.73 26.37 89.78 25.08 89.84 M 36.61 69.30 C 35.22 72.99 33.73 76.65 32.43 80.38 C 35.18 80.40 37.94 80.40 40.70 80.24 C 39.35 76.59 37.95 72.95 36.61 69.30 Z" />
<path fill="#ffffff" opacity="1.00" d=" M 50.00 65.62 C 51.70 65.62 53.40 65.62 55.10 65.63 C 57.53 72.13 60.06 78.59 62.53 85.08 C 64.60 78.47 67.26 72.07 69.73 65.61 C 71.40 65.62 73.07 65.63 74.75 65.65 C 74.75 73.69 74.76 81.72 74.74 89.76 C 73.87 89.76 72.12 89.75 71.25 89.74 C 71.24 83.40 71.26 77.05 71.24 70.71 C 68.89 77.08 66.41 83.40 63.98 89.74 C 63.20 89.74 61.64 89.75 60.85 89.75 C 58.38 83.50 55.98 77.23 53.57 70.95 C 53.70 77.20 53.40 83.45 53.63 89.70 C 52.72 89.72 50.91 89.75 50.00 89.77 C 50.00 81.72 50.00 73.67 50.00 65.62 Z" />
<path fill="#ffffff" opacity="1.00" d=" M 78.50 65.62 C 84.25 65.63 89.99 65.60 95.74 65.64 C 95.74 66.48 95.75 68.16 95.75 69.00 C 91.21 69.00 86.66 69.00 82.12 69.00 C 82.12 71.33 82.12 73.67 82.12 76.00 C 86.12 76.00 90.12 76.00 94.12 76.00 C 94.12 76.75 94.12 78.25 94.12 79.00 C 90.12 79.00 86.12 79.00 82.12 79.00 C 82.12 81.50 82.12 84.00 82.12 86.50 C 86.66 86.50 91.20 86.50 95.74 86.50 C 95.74 87.58 95.75 88.66 95.75 89.75 C 90.00 89.75 84.25 89.76 78.49 89.74 C 78.51 81.70 78.49 73.66 78.50 65.62 Z" />
<path fill="#ffffff" opacity="1.00" d=" M 104.87 65.62 C 109.49 65.87 114.25 65.04 118.77 66.21 C 124.24 67.91 125.18 76.32 120.51 79.44 C 117.01 81.81 112.56 80.60 108.62 80.86 C 108.62 83.82 108.63 86.77 108.61 89.73 C 107.35 89.74 106.10 89.75 104.85 89.76 C 104.90 81.72 104.87 73.67 104.87 65.62 M 108.62 68.87 C 108.62 71.79 108.63 74.70 108.61 77.62 C 111.41 77.59 114.22 77.77 117.01 77.49 C 120.60 76.39 120.71 70.01 116.93 69.16 C 114.19 68.65 111.39 68.93 108.62 68.87 Z" />
<path fill="#ffffff" opacity="1.00" d=" M 130.18 65.67 C 131.57 65.64 132.97 65.61 134.37 65.58 C 137.69 73.56 140.66 81.67 143.87 89.68 C 142.60 89.72 141.34 89.75 140.07 89.78 C 139.28 87.68 138.50 85.58 137.71 83.48 C 134.20 83.51 130.69 83.52 127.17 83.45 C 126.29 85.52 125.51 87.63 124.71 89.74 C 123.41 89.75 122.12 89.76 120.82 89.78 C 124.04 81.79 127.25 73.78 130.18 65.67 M 128.33 80.27 C 131.08 80.37 133.83 80.40 136.59 80.37 C 135.19 76.68 133.75 73.01 132.41 69.29 C 131.00 72.93 129.58 76.57 128.33 80.27 Z" />
</g>
<g id="#08f604f6">
<path fill="#08f604" opacity="0.96" d=" M 49.10 101.87 C 78.44 101.88 107.79 101.86 137.14 101.88 C 136.94 109.92 137.12 117.96 137.13 126.00 L 49.09 126.00 C 49.10 117.95 49.09 109.91 49.10 101.87 M 51.00 103.78 C 51.00 110.55 51.00 117.32 51.00 124.09 C 79.05 124.05 107.10 124.19 135.14 124.00 C 135.04 117.26 135.12 110.52 135.09 103.78 C 107.06 103.77 79.03 103.78 51.00 103.78 Z" />
<path fill="#08f604" opacity="0.96" d=" M 55.49 108.28 C 56.10 108.25 57.34 108.19 57.96 108.15 C 57.99 111.11 58.01 114.07 58.18 117.03 C 59.66 117.42 61.72 118.20 62.14 116.00 C 62.34 113.42 62.21 110.84 62.22 108.26 C 62.89 108.24 64.22 108.20 64.89 108.19 C 64.86 111.11 65.14 114.07 64.61 116.96 C 63.35 120.83 56.31 120.90 55.64 116.58 C 55.30 113.83 55.52 111.04 55.49 108.28 Z" />
<path fill="#08f604" opacity="0.96" d=" M 67.24 108.23 C 67.87 108.23 69.13 108.23 69.76 108.23 C 69.78 111.31 69.78 114.39 69.79 117.48 C 71.19 117.48 72.59 117.48 74.00 117.49 C 74.00 118.03 74.00 119.11 74.00 119.65 C 71.75 119.65 69.50 119.64 67.25 119.62 C 67.21 115.82 67.21 112.03 67.24 108.23 Z" />
<path fill="#08f604" opacity="0.96" d=" M 83.78 108.19 C 84.44 108.20 85.75 108.23 86.40 108.24 C 86.38 112.05 86.38 115.87 86.39 119.68 C 85.50 119.63 84.61 119.58 83.73 119.54 C 83.74 115.75 83.72 111.97 83.78 108.19 Z" />
<path fill="#08f604" opacity="0.96" d=" M 88.90 108.23 C 90.15 108.22 91.40 108.21 92.65 108.20 C 93.52 110.89 94.45 113.57 95.40 116.23 C 96.25 113.56 97.15 110.90 98.12 108.27 C 99.03 108.26 100.85 108.23 101.76 108.22 C 101.79 112.05 101.79 115.88 101.75 119.71 L 99.25 119.59 C 99.24 116.98 99.24 114.37 99.12 111.76 C 98.06 114.35 97.16 116.99 96.28 119.64 C 95.76 119.64 94.72 119.66 94.20 119.66 C 93.18 116.89 92.24 114.08 91.18 111.32 C 91.12 114.12 91.12 116.93 91.11 119.74 C 90.57 119.68 89.48 119.57 88.94 119.51 C 88.76 115.75 88.89 111.99 88.90 108.23 Z" />
<path fill="#08f604" opacity="0.96" d=" M 107.26 108.13 C 108.28 108.46 110.11 107.63 110.50 109.03 C 111.89 112.50 112.87 116.13 114.35 119.58 C 113.35 119.58 112.35 119.59 111.36 119.60 C 111.17 118.94 110.80 117.63 110.61 116.97 C 109.23 117.03 107.86 117.09 106.49 117.17 C 106.34 117.81 106.02 119.08 105.86 119.72 C 105.14 119.67 103.71 119.59 103.00 119.54 C 104.48 115.76 105.76 111.90 107.26 108.13 M 108.52 110.78 C 108.07 112.22 107.64 113.67 107.20 115.12 C 107.94 115.11 109.40 115.08 110.14 115.06 C 109.61 113.63 109.08 112.20 108.52 110.78 Z" />
<path fill="#08f604" opacity="0.96" d=" M 123.90 108.23 C 126.06 108.22 128.23 108.22 130.39 108.20 C 130.38 108.93 130.37 109.65 130.36 110.38 C 129.05 110.38 127.74 110.39 126.43 110.40 C 126.40 111.01 126.36 112.23 126.33 112.84 C 127.59 112.86 128.85 112.87 130.11 112.89 C 130.12 113.42 130.13 114.47 130.13 115.00 C 129.19 115.00 127.32 115.00 126.38 115.01 C 126.38 115.62 126.39 116.85 126.40 117.47 C 127.82 117.48 129.24 117.49 130.66 117.51 C 130.65 118.04 130.63 119.10 130.62 119.63 C 128.37 119.64 126.14 119.65 123.90 119.65 C 123.85 115.84 123.85 112.04 123.90 108.23 Z" />
<path fill="#08f604" opacity="0.96" d=" M 73.20 108.25 C 76.28 108.21 79.36 108.21 82.45 108.24 L 82.35 110.37 C 81.54 110.37 79.93 110.38 79.12 110.38 C 79.13 113.47 79.13 116.55 79.11 119.64 C 78.46 119.64 77.15 119.64 76.49 119.64 C 76.48 116.57 76.48 113.50 76.49 110.42 C 75.68 110.40 74.06 110.36 73.24 110.33 L 73.20 108.25 Z" />
<path fill="#08f604" opacity="0.96" d=" M 113.42 108.24 C 116.45 108.21 119.49 108.21 122.52 108.24 L 122.51 110.38 C 121.69 110.38 120.06 110.38 119.24 110.38 C 119.26 113.47 119.25 116.56 119.27 119.65 C 118.60 119.65 117.27 119.64 116.61 119.64 C 116.61 116.56 116.61 113.49 116.60 110.42 C 115.78 110.40 114.13 110.38 113.31 110.36 L 113.42 108.24 Z" />
</g>
</svg>
