<svg width="236" height="162" viewBox="0 0 236 162" fill="none" xmlns="http://www.w3.org/2000/svg">
<path d="M69.9408 13.1633C88.8783 0.585145 113.266 -3.21896 135.175 2.79069C154.564 7.98903 171.811 20.7355 182.422 37.7668C192.144 53.0073 196.421 71.6192 194.352 89.57C198.268 89.6902 202.184 89.588 206.1 89.6301C206.058 90.7178 206.954 93.1157 205.017 92.8332C200.03 92.8813 195.049 92.8633 190.068 92.8512C191.975 79.9305 190.85 66.529 186.285 54.2573C178.741 33.5 161.783 16.4266 141.052 8.75226C120.358 0.88563 96.2715 2.62242 76.9551 13.4398C56.7965 24.4915 42.04 44.9724 38.3524 67.6889C37.0229 67.6949 35.6994 67.6949 34.376 67.6889C37.9012 45.6034 51.1478 25.3088 69.9408 13.1633Z" fill="white"/>
<path d="M2.9116 72.3466C7.35119 68.4103 15.9717 70.3694 17.0244 76.6375C15.8754 76.6555 14.7385 76.6675 13.5955 76.6735C12.5187 73.1879 7.61588 72.1182 5.0953 74.6483C3.89818 76.0906 4.77045 78.3262 6.49695 78.843C9.72738 80.1411 13.8722 80.1651 16.0499 83.2781C18.2697 86.4933 16.3206 91.1207 12.8375 92.4729C9.77552 93.6989 5.98562 93.6508 3.18832 91.7818C1.25126 90.4717 0.415084 88.17 0 85.9704C1.15501 85.9584 2.31604 85.9584 3.47708 85.9704C3.57333 90.2974 9.13785 91.319 12.1818 89.3539C14.0286 88.2601 14.2151 85.0029 12.1758 84.0173C9.40254 82.6111 6.02773 82.6652 3.47105 80.7781C0.812113 78.8911 0.631647 74.5942 2.9116 72.3466Z" fill="white"/>
<path d="M27.3701 70.9162C32.8083 70.8622 38.2465 70.8922 43.6847 70.9042C43.6727 71.9018 43.6667 72.9114 43.6607 73.9151C41.6454 73.9271 39.6361 73.9151 37.6269 73.9331C35.4312 96.6616 44.2261 120.087 60.7753 135.832C77.15 151.914 101.05 159.883 123.814 156.842C143.72 154.462 162.338 143.735 174.647 127.972C182.016 118.633 187.063 107.551 189.529 95.9344C190.817 95.9404 192.116 95.9584 193.416 95.9825C189.487 116.656 177.017 135.484 159.601 147.293C141.681 159.673 118.604 164.18 97.3267 159.552C77.2463 155.364 59.0608 143.08 47.5287 126.151C37.1095 111.025 32.0563 92.2324 33.7467 73.9331C31.6834 73.909 29.626 73.9211 27.5686 73.9211C27.4844 72.9235 27.4182 71.9199 27.3701 70.9162Z" fill="white"/>
<path d="M51.0498 92.8692C53.6787 85.4293 56.9512 78.2297 59.8688 70.8979C60.711 70.8979 61.5592 70.904 62.4075 70.916C65.289 78.1636 68.1705 85.4172 71.0701 92.6589C69.9271 92.725 68.7841 92.8091 67.6471 92.8812C65.3191 87.2682 63.3579 81.511 61.096 75.8739C58.8281 81.4208 56.7106 87.0398 54.6111 92.6589C53.42 92.737 52.2289 92.8031 51.0498 92.8692Z" fill="white"/>
<path d="M83.2764 70.898C86.7475 70.9341 90.2246 70.8019 93.7017 70.9401C95.6087 70.9882 97.654 71.7574 98.7007 73.4461C100.223 75.9221 100.211 79.4437 98.2134 81.6733C97.2269 82.8272 95.6989 83.1817 94.3273 83.6445C96.4749 86.7454 98.8571 89.6721 100.908 92.8392C99.5429 92.7972 98.1713 92.8092 96.8238 92.5928C94.5078 89.7082 92.5647 86.5351 90.2727 83.6264C89.0575 83.6385 87.8484 83.6385 86.6392 83.6325C86.537 86.6433 86.5971 89.6541 86.573 92.671C85.4722 92.7371 84.3773 92.8272 83.2885 92.8873C83.2524 85.5555 83.2704 78.2238 83.2764 70.898ZM86.6031 73.9209C86.567 76.1505 86.5731 78.38 86.5971 80.6156C89.1418 80.5435 91.7285 80.832 94.2491 80.3993C97.2449 79.8644 97.2991 74.7141 94.3093 74.1492C91.7706 73.6925 89.1598 74.0351 86.6031 73.9209Z" fill="white"/>
<path d="M114.454 70.9038C119.405 70.9098 124.362 70.8558 129.313 70.9159C129.163 71.8654 129.554 73.0192 129.036 73.8546C125.24 74.0228 121.439 73.8546 117.643 73.9267C117.637 75.7656 117.631 77.6046 117.643 79.4435C121.12 79.6178 124.603 79.6178 128.086 79.6479C128.08 80.5794 128.086 81.5169 128.092 82.4484C124.615 82.7849 121.12 82.5325 117.643 82.6707C117.637 86.0001 117.631 89.3354 117.655 92.6708C116.59 92.7188 115.525 92.797 114.472 92.8571C114.406 85.5373 114.442 78.2236 114.454 70.9038Z" fill="white"/>
<path d="M142.572 92.7733C142.584 85.4656 142.506 78.1578 142.62 70.8501C143.636 70.9943 144.834 70.6638 145.784 71.1266C145.88 78.3381 145.796 85.5617 145.82 92.7853C144.731 92.7973 143.648 92.7913 142.572 92.7733Z" fill="white"/>
<path d="M161.54 70.9104C166.472 70.8683 171.411 70.8983 176.344 70.8983C176.35 71.92 176.35 72.9476 176.362 73.9813C172.542 74.1015 168.71 73.8371 164.902 74.1315C164.782 76.0726 164.86 78.0258 164.866 79.9729C168.319 80.009 171.784 79.9909 175.243 79.9849C175.255 81.0126 175.261 82.0462 175.279 83.0799C171.82 83.0979 168.361 83.0859 164.902 83.0859C164.824 85.2674 164.818 87.4549 164.884 89.6424C168.945 89.6244 173.005 89.6064 177.066 89.6244C177.06 90.6941 177.048 91.7638 177.03 92.8335C171.862 92.7494 166.689 93.0499 161.534 92.6713C161.558 85.4176 161.509 78.164 161.54 70.9104Z" fill="white"/>
<path d="M218.44 92.7011C218.452 85.4294 218.416 78.1517 218.477 70.874C221.791 70.9281 225.124 70.7298 228.439 71.0483C230.911 71.2947 233.101 72.8812 234.292 75.0387C236.433 78.8428 236.53 83.6926 234.755 87.653C233.606 90.1349 231.326 92.3645 228.487 92.5989C225.142 92.8393 221.785 92.665 218.44 92.7011ZM221.719 73.9991C221.701 79.2034 221.713 84.4017 221.719 89.6061C224.149 89.6181 226.646 89.8946 229.04 89.2936C231.567 88.1518 232.583 85.159 232.613 82.5628C232.788 79.6301 232.12 76.1565 229.389 74.5519C226.953 73.5844 224.264 74.1192 221.719 73.9991Z" fill="white"/>
</svg>
