<svg width="281" height="60" viewBox="0 0 281 60" fill="none" xmlns="http://www.w3.org/2000/svg">
<path d="M34.8442 1.27823C36.8701 0.460603 39.0088 0.0466384 41.149 0.000260598C61.4424 0.00197829 81.7358 -0.00317471 102.028 0.00369607C101.041 1.71624 100.053 3.42706 99.0708 5.14132C95.8986 10.8166 90.5336 14.6986 84.7865 15.4647C83.3724 15.6794 81.9437 15.6193 80.5223 15.6279C60.9242 15.6261 41.3276 15.6296 21.7295 15.6261C22.7747 13.8019 23.8199 11.9778 24.868 10.157C27.2687 6.04483 30.8215 2.88427 34.8442 1.27823Z" fill="white"/>
<path d="M3.45215 19.8586C3.60293 19.5855 3.75956 19.3158 3.92204 19.0513C20.8925 19.065 37.863 19.053 54.8334 19.0564C50.9249 25.8499 47.0252 32.6485 43.108 39.4352C38.895 40.0329 34.6835 40.6461 30.472 41.2491C33.1991 36.5099 35.9234 31.7691 38.652 27.0317C26.9177 24.6407 15.1849 22.2462 3.45215 19.8586Z" fill="white"/>
<path d="M46.9541 38.888C50.7616 32.2783 54.5457 25.648 58.3678 19.0503C62.2411 19.0675 66.1145 19.0537 69.9879 19.0572C66.539 25.0554 63.0931 31.0536 59.6443 37.05C55.4137 37.6632 51.1846 38.273 46.9541 38.888Z" fill="white"/>
<path d="M63.4668 36.5038C66.8146 30.6911 70.1478 24.8664 73.4986 19.0554C77.3734 19.0606 81.2512 19.0554 85.1274 19.0589C82.9097 22.9151 80.7022 26.7782 78.4742 30.6258C76.8962 33.1835 74.393 34.9149 71.7229 35.31C68.9709 35.7085 66.2203 36.1087 63.4668 36.5038Z" fill="white"/>
<path d="M15.8521 25.8394C21.8085 27.0555 27.7649 28.2733 33.7213 29.4895C29.7309 36.4083 25.7609 43.3444 21.7617 50.2564C14.5068 51.2973 7.2534 52.3468 0 53.3895C5.28598 44.2084 10.5661 35.0204 15.8521 25.8394Z" fill="white"/>
<path d="M158.532 8.92633C160.448 8.66008 162.411 8.67383 164.305 9.12902C165.971 9.52752 167.63 10.4688 168.619 12.1487C169.838 14.1979 169.98 16.8604 169.673 19.2634C169.405 21.4088 168.315 23.4237 166.662 24.4457C164.651 25.7013 162.298 25.8645 160.064 25.7838C158.03 25.6807 155.857 25.2633 154.241 23.6968C152.906 22.4137 152.222 20.4108 152.092 18.4303C151.917 16.0754 152.206 13.4885 153.559 11.6351C154.79 9.9329 156.703 9.20631 158.532 8.92633ZM159.108 12.5129C158.363 12.652 157.608 12.9045 156.996 13.4421C156.05 14.2632 155.693 15.7009 155.682 17.0287C155.629 18.5145 155.939 20.191 157.006 21.1306C158.175 22.1234 159.69 22.2213 161.082 22.2333C162.472 22.1904 164.02 22.0289 165.101 20.8832C166.122 19.7392 166.275 17.9356 166.139 16.3743C166.038 14.9743 165.371 13.5693 164.226 13.0179C162.62 12.2295 160.808 12.2672 159.108 12.5129Z" fill="white"/>
<path d="M129.389 8.99818C134.816 8.99475 140.242 8.99475 145.667 8.99818C145.049 10.0786 144.423 11.1522 143.81 12.2378C143.707 12.3941 143.613 12.6483 143.4 12.5864C139.944 12.5864 136.486 12.5847 133.028 12.5864C133.031 13.9847 133.028 15.3846 133.031 16.7828C136.375 16.7845 139.718 16.7793 143.062 16.7845C143.062 17.9869 143.063 19.1893 143.062 20.3917C139.718 20.3882 136.375 20.3934 133.033 20.3882C133.024 22.1214 133.036 23.8528 133.027 25.586C131.813 25.586 130.601 25.586 129.388 25.586C129.391 20.0567 129.389 14.5274 129.389 8.99818Z" fill="white"/>
<path d="M178.812 8.99268C182.569 8.99955 186.327 8.99267 190.085 8.99611C191.669 9.00298 193.291 9.76564 194.298 11.2343C195.76 13.323 195.671 16.6794 194.063 18.6307C193.211 19.7094 192.002 20.302 190.779 20.5115C192.646 22.188 194.494 23.8954 196.356 25.5839C194.7 25.577 193.045 25.6062 191.39 25.5719C188.567 22.949 185.797 20.2367 182.995 17.5777C185.064 17.5743 187.132 17.5829 189.201 17.5743C189.903 17.552 190.694 17.4558 191.216 16.8374C191.695 16.2482 191.73 15.3739 191.673 14.6095C191.638 14.0101 191.402 13.4054 190.963 13.0722C190.402 12.6359 189.703 12.593 189.051 12.5861C186.851 12.5861 184.649 12.5844 182.449 12.5861C182.449 16.9198 182.452 21.2519 182.449 25.5856C181.237 25.5873 180.025 25.5839 178.813 25.5873C178.81 20.0546 178.813 14.5237 178.812 8.99268Z" fill="white"/>
<path d="M206.631 8.99268C211.39 8.99955 216.149 8.99267 220.908 8.99611C217.782 13.323 214.667 17.6619 211.544 21.9939C214.568 22.0094 217.596 21.9578 220.619 22.0197C220.592 23.2066 220.614 24.3953 220.607 25.5839C215.256 25.5873 209.906 25.5856 204.556 25.5839C207.677 21.2519 210.795 16.9181 213.917 12.5861C210.798 12.5844 207.678 12.5878 204.559 12.5844C205.252 11.3889 205.932 10.183 206.631 8.99268Z" fill="white"/>
<path d="M235.768 8.99438C237.406 8.99782 239.043 8.99267 240.681 8.99782C243.117 14.5271 245.551 20.0563 247.987 25.5856C246.644 25.5873 245.304 25.5839 243.963 25.5873C243.453 24.4141 242.96 23.2324 242.453 22.0592C239.638 22.0575 236.823 22.0609 234.008 22.0575C233.495 23.2306 233 24.4141 232.483 25.5856C231.148 25.5873 229.813 25.5822 228.479 25.5873C230.901 20.0512 233.335 14.5236 235.768 8.99438ZM238.008 12.6754C237.128 14.7401 236.236 16.7979 235.355 18.8625C237.267 18.8608 239.179 18.8608 241.092 18.8625C240.155 16.6553 239.208 14.4532 238.279 12.2425C238.104 12.27 238.096 12.538 238.008 12.6754Z" fill="white"/>
<path d="M104.374 52.4397C107.47 47.0667 110.56 41.6886 113.655 36.3157C113.656 44.0144 113.653 51.7148 113.656 59.4152C112.545 59.4204 111.436 59.4152 110.326 59.417C110.327 55.9695 110.323 52.5221 110.329 49.0747C108.337 52.517 106.36 55.9747 104.375 59.4221C101.278 54.044 98.1877 48.659 95.0872 43.2844C95.0872 40.9638 95.0799 38.6449 95.0916 36.3243C98.1994 41.6852 101.276 47.0719 104.374 52.4397Z" fill="white"/>
<path d="M124.918 36.558C126.742 36.1406 128.67 36.3072 130.408 37.0956C132.727 38.1194 134.684 40.2115 135.777 42.819C136.982 45.6343 137.131 49.0319 136.206 51.9846C135.441 54.4839 133.908 56.643 131.964 57.9983C130.483 59.046 128.761 59.5906 127.037 59.6541C124.892 59.673 122.736 58.8949 121.007 57.3953C118.996 55.6828 117.568 53.0496 117.115 50.1793C116.664 47.3984 117.093 44.425 118.346 41.9996C119.755 39.2084 122.204 37.1798 124.918 36.558ZM125.211 40.5018C123.054 41.1511 121.249 43.1711 120.594 45.6704C119.981 47.9119 120.313 50.4747 121.473 52.3986C122.513 54.1609 124.198 55.3839 126.013 55.6536C128.064 55.9971 130.225 55.0971 131.645 53.3313C133.066 51.6187 133.743 49.1006 133.397 46.7422C133.101 44.5281 131.927 42.5081 130.288 41.3624C128.787 40.2854 126.911 39.9762 125.211 40.5018Z" fill="white"/>
<path d="M159.992 36.4602C162.097 36.0978 164.302 36.5306 166.172 37.7261C168.097 38.9388 169.662 40.9211 170.545 43.2674C171.603 46.0467 171.669 49.3172 170.741 52.1565C169.977 54.5132 168.538 56.5538 166.713 57.8816C165.224 58.9843 163.477 59.5684 161.724 59.6508C159.052 59.7212 156.365 58.5017 154.475 56.2755C152.977 54.5527 151.97 52.2544 151.65 49.8239C151.262 47 151.79 44.0146 153.132 41.6253C154.653 38.8615 157.215 36.924 159.992 36.4602ZM160.15 40.404C157.52 40.9915 155.347 43.635 154.951 46.744C154.589 49.2175 155.35 51.8559 156.903 53.577C158.32 55.1814 160.371 55.9784 162.324 55.6537C164.281 55.3686 166.086 53.9721 167.101 51.9916C167.967 50.3306 168.261 48.2797 167.911 46.3782C167.547 44.3015 166.407 42.4378 164.856 41.3539C163.461 40.3611 161.747 40.0227 160.15 40.404Z" fill="white"/>
<path d="M235.389 36.4525C237.385 36.1193 239.469 36.4955 241.268 37.569C243.547 38.9002 245.351 41.3033 246.188 44.1255C247.195 47.4509 246.825 51.3072 245.183 54.2702C243.694 57.0288 241.172 58.9801 238.421 59.4851C236.539 59.8802 234.567 59.5469 232.817 58.6589C230.61 57.5321 228.782 55.4245 227.783 52.8531C226.678 50.0584 226.587 46.7467 227.515 43.8678C228.738 39.9618 231.872 37.0005 235.389 36.4525ZM235.143 40.5011C232.828 41.1899 230.928 43.4659 230.395 46.2004C229.868 48.71 230.521 51.4995 232.066 53.3409C233.419 55.0225 235.442 55.9106 237.404 55.6907C239.326 55.5 241.145 54.253 242.233 52.3859C243.18 50.8039 243.581 48.7942 243.34 46.8824C243.097 44.8194 242.097 42.9042 240.65 41.6984C239.089 40.3637 237.01 39.9171 235.143 40.5011Z" fill="white"/>
<path d="M135.791 36.5608C141.381 36.5557 146.97 36.5574 152.561 36.5591C151.828 37.8594 151.068 39.1408 150.34 40.4462C148.843 40.4789 147.344 40.4497 145.846 40.46C145.843 46.7811 145.846 53.1039 145.845 59.4251C144.737 59.4268 143.63 59.4285 142.523 59.4233C142.525 53.1057 142.52 46.788 142.526 40.4703C141.032 40.4686 139.537 40.4651 138.042 40.472C137.286 39.1734 136.541 37.8645 135.791 36.5608Z" fill="white"/>
<path d="M170.768 36.5439C174.391 36.5491 178.015 36.5422 181.638 36.5474C183.707 36.58 185.706 37.8975 186.842 39.9192C188.047 42.0062 188.261 44.8147 187.394 47.1198C186.656 49.1639 185.107 50.7493 183.301 51.39C184.844 54.0576 186.375 56.7337 187.918 59.4013C186.579 59.391 185.239 59.4134 183.9 59.3893C181.692 55.5211 179.464 51.6665 177.245 47.8052C178.661 47.8069 180.078 47.8086 181.496 47.8069C182.597 47.8172 183.669 47.0665 184.196 45.9329C184.765 44.77 184.728 43.2412 184.097 42.1213C183.543 41.0976 182.536 40.4431 181.501 40.4397C178.669 40.4345 175.838 40.4397 173.006 40.4362C172.259 39.1411 171.514 37.8425 170.768 36.5439Z" fill="white"/>
<path d="M190.84 39.4759C191.875 37.6861 193.689 36.5507 195.536 36.5782C198.774 36.5782 202.012 36.5764 205.25 36.5782C205.253 37.8733 205.25 39.1684 205.252 40.4653C201.973 40.4808 198.694 40.4498 195.416 40.479C194.126 40.5014 193.036 41.9408 193.15 43.4438C193.206 44.8145 194.235 46.0049 195.406 46.0392C197.212 46.077 199.02 46.0186 200.826 46.0667C203.439 46.235 205.742 48.7927 206.044 51.8399C206.426 54.7187 204.962 57.7264 202.683 58.8567C201.914 59.2535 201.071 59.4321 200.232 59.4166C197.46 59.4166 194.687 59.4184 191.913 59.4166C191.164 58.1163 190.42 56.8109 189.669 55.5123C193.236 55.5175 196.805 55.514 200.373 55.514C201.548 55.5587 202.637 54.437 202.757 53.0663C202.896 51.8828 202.298 50.6478 201.359 50.184C200.824 49.8834 200.217 49.9418 199.644 49.9418C198.228 49.9401 196.813 49.947 195.398 49.9384C193.465 49.9161 191.606 48.6123 190.629 46.6627C189.509 44.4864 189.588 41.556 190.84 39.4759Z" fill="white"/>
<path d="M208.967 36.5782C212.252 36.5764 215.537 36.5782 218.821 36.5782C220.581 36.573 222.324 37.4679 223.516 38.9898C224.933 40.7418 225.539 43.3235 225.104 45.6837C224.659 48.3169 222.917 50.5671 220.732 51.3572C219.647 51.7883 218.491 51.7128 217.363 51.7145C215.67 51.7145 213.976 51.7162 212.282 51.7128C212.29 54.2807 212.282 56.8504 212.287 59.4184C211.18 59.4149 210.073 59.4183 208.967 59.4166C208.97 51.8038 208.967 44.191 208.967 36.5782ZM212.287 47.8067C214.465 47.8067 216.645 47.8085 218.823 47.8067C219.921 47.8067 220.988 47.0612 221.515 45.9327C222.081 44.7767 222.043 43.2583 221.418 42.1435C220.868 41.1197 219.861 40.4636 218.83 40.4601C216.649 40.4584 214.468 40.4619 212.288 40.4584C212.282 42.9079 212.287 45.3573 212.287 47.8067Z" fill="white"/>
<path d="M246.121 36.5474C249.465 36.5439 252.808 36.5474 256.151 36.5456C256.743 36.5405 257.337 36.5268 257.923 36.6521C259.908 37.0403 261.692 38.5983 262.587 40.7145C263.626 43.0952 263.472 46.1235 262.18 48.3308C261.355 49.796 260.076 50.8729 258.652 51.3934C260.193 54.0576 261.726 56.7303 263.264 59.3996C261.932 59.4013 260.6 59.3979 259.268 59.4013C257.04 55.5382 254.819 51.6717 252.597 47.8051C254.026 47.8069 255.455 47.8103 256.885 47.8051C257.908 47.7983 258.906 47.1473 259.454 46.1321C260.089 44.9881 260.113 43.425 259.517 42.2535C258.983 41.1731 257.956 40.4568 256.889 40.4397C254.046 40.4328 251.202 40.4397 248.359 40.4379C247.608 39.1445 246.865 37.8459 246.121 36.5474Z" fill="white"/>
<path d="M263.611 36.5593C269.208 36.5542 274.804 36.5645 280.4 36.5542C279.638 37.8459 278.901 39.1582 278.147 40.4568C276.653 40.4637 275.157 40.4568 273.662 40.4602C273.662 46.7814 273.662 53.1025 273.664 59.4219C272.555 59.4305 271.447 59.427 270.341 59.4236C270.338 53.1059 270.339 46.7882 270.339 40.4705C268.846 40.4671 267.351 40.4705 265.858 40.4688C265.109 39.1651 264.361 37.8614 263.611 36.5593Z" fill="white"/>
<path d="M95.0933 46.7224C97.5306 50.9531 99.9635 55.1872 102.404 59.4162C101.732 59.4162 101.061 59.4162 100.391 59.4162C98.6168 56.3501 96.8513 53.2754 95.083 50.2042C95.0918 49.043 95.0757 47.8819 95.0933 46.7224Z" fill="white"/>
<path d="M173.245 47.8047C173.918 47.8081 174.592 47.803 175.267 47.8098C177.482 51.6781 179.709 55.5326 181.926 59.3991C181.255 59.3991 180.586 59.3991 179.917 59.4009C177.688 55.5395 175.47 51.6695 173.245 47.8047Z" fill="white"/>
<path d="M248.614 47.8156C249.285 47.8019 249.958 47.8053 250.63 47.8122C252.851 51.6753 255.071 55.5401 257.296 59.4015C256.624 59.3997 255.953 59.398 255.282 59.4015C253.054 55.5435 250.841 51.6735 248.614 47.8156Z" fill="white"/>
<path d="M95.0927 53.688C96.2052 55.5895 97.2958 57.5081 98.401 59.4148C97.2958 59.4182 96.1906 59.4182 95.0854 59.4148C95.0883 57.5064 95.0766 55.5963 95.0927 53.688Z" fill="white"/>
</svg>
