<?xml version="1.0" encoding="UTF-8" ?>
<!DOCTYPE svg PUBLIC "-//W3C//DTD SVG 1.1//EN" "http://www.w3.org/Graphics/SVG/1.1/DTD/svg11.dtd">
<svg width="1918pt" height="509pt" viewBox="0 0 1918 509" version="1.1" xmlns="http://www.w3.org/2000/svg">
<g id="#ffffffff">
<path fill="#ffffff" opacity="1.00" d=" M 933.79 0.01 C 936.15 0.32 938.50 0.82 940.85 1.29 C 939.21 1.95 937.62 2.74 936.07 3.56 C 935.50 2.67 934.36 0.90 933.79 0.01 Z" />
<path fill="#ffffff" opacity="1.00" d=" M 951.85 12.86 C 953.24 12.99 954.63 13.13 956.04 13.28 C 956.19 14.86 956.44 17.70 954.20 17.73 C 951.83 17.48 951.15 14.81 951.85 12.86 Z" />
<path fill="#ffffff" opacity="1.00" d=" M 923.43 14.19 C 925.59 14.51 927.45 15.67 929.19 16.94 C 930.34 17.82 931.23 17.46 931.86 15.86 C 931.74 16.61 931.50 18.10 931.38 18.85 C 928.43 17.74 923.05 18.79 923.43 14.19 Z" />
<path fill="#ffffff" opacity="1.00" d=" M 919.23 14.92 C 920.11 16.76 921.04 18.58 922.22 20.26 C 920.15 21.93 918.37 23.91 916.80 26.05 C 916.02 26.11 914.44 26.22 913.66 26.27 C 915.15 23.14 914.93 17.99 919.26 17.34 C 919.25 16.73 919.24 15.52 919.23 14.92 Z" />
<path fill="#ffffff" opacity="1.00" d=" M 939.91 18.13 C 941.94 17.35 943.94 16.47 946.06 15.92 C 947.78 15.58 947.71 17.52 948.03 18.60 C 945.58 19.27 943.24 20.79 940.63 20.53 C 940.45 19.93 940.09 18.73 939.91 18.13 Z" />
<path fill="#ffffff" opacity="1.00" d=" M 968.09 24.07 C 969.31 22.30 970.55 20.52 971.77 18.74 C 971.83 19.35 971.95 20.57 972.01 21.18 C 976.87 20.80 982.55 23.23 986.49 19.21 C 985.86 21.46 985.07 23.75 985.38 26.13 C 985.94 34.09 985.25 42.07 985.73 50.03 C 984.72 48.45 984.14 46.23 982.00 45.89 C 975.47 43.38 969.56 39.53 963.08 36.93 C 969.03 43.87 976.84 48.86 984.78 53.26 C 984.88 56.52 985.09 59.78 985.35 63.03 C 978.32 56.98 969.54 53.85 961.07 50.44 C 966.06 57.29 975.15 58.66 980.97 64.50 C 976.85 62.39 971.95 61.85 967.56 63.41 C 964.73 64.48 961.71 63.78 958.79 63.76 C 958.88 64.62 959.06 66.32 959.15 67.18 C 955.71 66.47 952.15 66.46 948.88 67.83 C 946.38 69.29 943.85 67.73 941.42 67.02 C 940.33 68.22 939.76 70.26 937.97 70.56 C 923.76 73.71 913.33 84.69 900.37 90.55 C 895.93 92.49 895.27 97.81 892.85 101.47 C 890.23 99.25 888.27 96.42 886.37 93.59 C 884.27 90.52 881.36 88.01 879.84 84.57 C 883.19 84.11 887.19 84.97 890.05 82.78 C 885.25 81.68 880.40 80.80 875.48 80.52 C 870.22 73.90 863.89 68.25 857.88 62.33 C 862.25 63.95 866.81 61.50 868.99 57.64 C 872.28 57.26 875.72 57.82 878.93 57.15 C 880.13 54.70 881.36 52.26 882.69 49.88 C 882.86 48.02 882.31 46.18 882.15 44.34 C 884.77 44.07 887.42 44.04 890.06 44.35 C 892.35 43.54 894.24 42.09 895.47 39.98 C 895.75 40.61 896.30 41.86 896.58 42.48 C 898.66 42.92 900.77 43.35 902.89 43.67 C 901.37 42.30 899.65 41.19 897.84 40.26 C 896.90 34.63 900.40 29.59 904.77 26.42 C 904.54 25.13 904.34 23.84 904.15 22.54 C 905.32 22.61 906.51 22.66 907.71 22.72 C 904.47 26.11 906.16 30.89 906.15 35.01 C 906.24 37.41 904.43 39.34 902.16 39.81 C 905.40 42.03 909.41 42.32 913.16 43.09 C 919.31 41.61 926.53 41.57 931.37 36.97 L 931.74 35.63 C 934.84 36.50 937.90 35.98 940.34 33.74 C 938.47 32.95 936.61 32.20 934.79 31.35 C 937.85 30.88 940.94 30.57 944.05 30.30 C 943.93 30.96 943.68 32.27 943.56 32.93 C 947.48 32.47 952.55 31.43 954.51 27.69 C 955.72 28.02 956.96 27.98 958.24 28.01 C 958.64 26.04 959.07 24.06 959.53 22.09 C 959.99 23.86 959.64 26.17 961.38 27.31 C 961.94 25.73 961.91 23.33 963.97 22.86 C 965.47 22.26 966.80 23.49 968.09 24.07 M 884.56 59.46 C 883.92 60.67 883.29 61.87 882.70 63.09 C 885.32 61.98 887.85 60.67 890.25 59.12 C 888.33 59.17 886.44 59.31 884.56 59.46 Z" />
<path fill="#ffffff" opacity="1.00" d=" M 931.10 22.03 C 931.49 22.11 932.29 22.27 932.68 22.35 C 932.21 23.53 931.77 24.72 931.34 25.91 C 933.66 25.31 935.95 24.56 938.27 23.91 C 934.77 28.06 929.94 30.92 924.54 31.69 C 925.58 28.55 928.26 26.55 931.03 25.00 C 931.05 24.26 931.08 22.78 931.10 22.03 Z" />
<path fill="#ffffff" opacity="1.00" d=" M 990.96 22.83 C 992.33 22.96 993.73 23.08 995.13 23.20 C 996.49 24.65 997.77 26.97 1000.10 26.65 C 1000.97 25.94 1001.81 25.18 1002.62 24.38 C 1006.61 27.47 1010.92 30.70 1016.25 30.48 C 1017.06 31.99 1017.89 33.84 1019.83 34.12 C 1023.19 34.76 1026.05 32.57 1029.07 31.55 C 1030.98 32.54 1032.17 34.54 1034.18 35.45 C 1032.89 37.52 1031.61 39.60 1030.36 41.69 C 1035.47 40.14 1040.80 39.90 1046.06 39.22 C 1045.67 47.31 1058.71 42.88 1058.81 50.78 C 1060.71 50.19 1062.63 49.58 1064.58 49.10 C 1066.63 51.83 1068.51 54.67 1070.44 57.50 C 1072.81 57.20 1075.16 56.84 1077.54 56.50 C 1076.91 58.40 1076.31 60.30 1075.72 62.21 C 1077.53 61.79 1079.37 61.37 1081.20 60.95 C 1080.72 68.14 1080.55 75.36 1079.70 82.52 C 1072.03 78.90 1064.39 75.01 1056.07 73.11 C 1057.53 80.37 1058.82 87.67 1060.02 94.98 C 1060.03 96.58 1060.87 97.85 1062.29 98.59 C 1063.73 91.48 1060.35 84.61 1060.78 77.49 C 1066.26 79.88 1071.54 82.69 1076.99 85.16 C 1073.16 90.11 1069.69 95.30 1066.23 100.51 C 1064.58 100.34 1062.95 100.20 1061.33 100.11 C 1061.05 101.45 1060.77 102.79 1060.49 104.13 C 1060.12 99.35 1058.32 94.32 1053.83 91.98 C 1045.33 87.82 1039.88 78.09 1029.95 76.84 C 1027.36 76.68 1025.74 74.35 1023.51 73.36 C 1019.75 71.88 1016.49 69.45 1013.10 67.32 C 1011.37 66.90 1009.63 67.47 1007.92 67.49 C 1005.33 68.03 1004.27 64.94 1002.05 64.37 C 1000.24 63.96 998.38 64.11 996.58 64.09 C 996.62 63.67 996.70 62.84 996.74 62.43 C 994.67 62.45 992.62 62.40 990.58 62.34 C 990.43 49.17 990.19 35.99 990.96 22.83 Z" />
<path fill="#ffffff" opacity="1.00" d=" M 917.14 33.91 C 916.15 31.57 918.45 29.77 919.94 28.40 C 922.19 31.83 922.95 36.21 921.55 40.12 C 921.62 38.11 921.68 36.09 921.71 34.07 C 920.14 34.31 918.62 34.25 917.14 33.91 Z" />
<path fill="#ffffff" opacity="1.00" d=" M 931.03 34.52 C 931.95 33.12 932.75 33.10 933.45 34.44 C 932.46 35.43 931.65 35.46 931.03 34.52 Z" />
<path fill="#ffffff" opacity="1.00" d=" M 1070.07 54.90 C 1070.33 52.88 1070.91 50.92 1071.80 49.08 C 1073.57 49.02 1075.37 48.95 1077.17 48.89 C 1076.68 49.94 1076.20 50.98 1075.72 52.03 C 1076.21 53.44 1076.71 54.86 1077.21 56.28 C 1074.71 56.58 1072.09 56.58 1070.07 54.90 Z" />
<path fill="#ffffff" opacity="1.00" d=" M 854.87 65.54 C 857.65 65.01 858.81 67.86 860.54 69.42 C 864.40 73.34 868.87 76.74 871.91 81.41 C 869.23 81.83 866.55 82.22 863.89 82.69 C 867.69 84.28 872.57 83.05 875.64 86.28 C 880.36 91.59 885.38 96.62 890.07 101.95 C 891.21 103.02 891.28 104.62 891.68 106.05 C 889.50 105.92 887.16 104.87 885.10 106.03 C 880.69 108.03 878.20 112.42 875.65 116.28 C 874.45 117.87 874.99 119.91 874.87 121.73 C 874.12 121.72 872.61 121.68 871.85 121.66 C 869.05 127.93 864.83 133.37 861.21 139.16 C 858.74 142.55 859.60 146.95 859.15 150.86 C 851.23 155.93 844.15 162.24 835.89 166.78 C 828.29 162.18 821.81 155.68 813.32 152.64 C 812.69 149.41 813.12 146.16 813.31 142.92 C 812.73 139.92 810.94 137.10 811.63 133.94 C 810.32 133.73 809.03 133.52 807.74 133.31 C 807.89 134.85 807.89 136.39 807.75 137.93 C 806.55 135.76 806.90 133.13 806.08 130.83 C 808.44 129.22 810.77 127.57 813.09 125.91 C 813.12 127.29 813.16 128.68 813.21 130.06 C 812.15 130.00 810.03 129.87 808.97 129.80 C 811.28 132.22 813.95 134.29 816.86 135.94 C 815.77 134.62 814.59 133.36 813.44 132.10 C 814.34 130.94 815.26 129.79 816.21 128.66 C 814.71 126.82 813.27 124.93 811.92 122.99 C 814.23 122.99 816.62 123.54 818.92 123.03 C 818.81 121.74 818.01 121.33 816.51 121.80 C 816.22 117.29 818.32 113.12 817.86 108.70 C 818.88 106.21 820.14 103.81 821.36 101.40 C 822.53 101.64 823.65 102.00 824.83 102.32 C 821.66 103.09 820.61 106.41 821.98 109.20 C 821.57 109.20 820.75 109.19 820.34 109.18 C 820.06 112.59 819.61 115.98 819.04 119.34 C 822.41 122.37 826.81 123.79 831.19 124.62 C 831.48 123.35 831.78 122.08 832.09 120.81 C 830.29 120.73 828.51 120.64 826.73 120.53 C 827.64 119.57 828.58 118.65 829.55 117.74 C 829.42 116.41 828.74 114.93 829.69 113.74 C 830.85 112.81 832.37 112.60 833.76 112.17 C 833.06 110.49 832.34 108.83 831.62 107.17 C 833.16 105.22 834.69 103.25 836.24 101.30 C 839.24 100.44 844.35 102.13 845.16 97.93 C 846.22 95.65 845.03 93.00 842.80 92.00 C 842.73 93.88 842.74 95.78 842.74 97.67 C 841.26 97.78 839.79 97.90 838.34 97.99 C 839.66 95.06 840.99 92.13 842.19 89.14 C 841.71 87.62 841.29 86.09 840.96 84.53 C 843.69 83.97 846.37 83.19 848.97 82.17 C 849.37 79.09 849.73 76.01 850.05 72.92 C 852.22 72.35 854.40 71.60 856.13 70.10 C 855.69 68.58 855.27 67.06 854.87 65.54 M 850.48 88.50 C 849.56 90.31 848.53 92.06 847.37 93.73 C 850.58 92.85 852.51 90.36 853.12 87.15 C 852.23 87.60 851.35 88.05 850.48 88.50 M 833.96 124.04 C 834.10 126.58 837.44 127.35 838.82 125.31 C 837.89 123.76 835.25 121.81 833.96 124.04 M 819.38 131.27 C 819.31 131.98 819.16 133.42 819.09 134.13 C 820.61 134.59 823.20 134.34 822.50 132.06 C 822.43 130.36 820.39 131.38 819.38 131.27 M 823.93 134.65 C 825.98 136.89 829.35 136.36 831.59 138.28 C 833.10 139.88 835.06 137.93 836.72 137.56 C 835.18 136.67 833.75 135.59 832.09 134.96 C 829.38 135.96 826.61 135.32 823.93 134.65 Z" />
<path fill="#ffffff" opacity="1.00" d=" M 1082.95 83.29 C 1082.91 78.02 1082.30 71.60 1087.16 68.10 C 1088.34 70.43 1089.41 72.81 1090.56 75.17 C 1087.88 77.75 1085.53 80.62 1082.95 83.29 Z" />
<path fill="#ffffff" opacity="1.00" d=" M 1077.98 92.06 C 1084.50 85.30 1091.05 78.57 1097.79 72.03 C 1097.39 75.31 1097.14 78.59 1096.91 81.88 C 1096.12 82.04 1094.55 82.36 1093.76 82.52 C 1095.28 83.22 1096.89 83.61 1098.53 84.02 C 1100.30 88.51 1103.71 92.01 1106.39 95.95 C 1105.97 93.96 1105.66 91.95 1105.42 89.95 C 1106.28 90.27 1108.00 90.92 1108.86 91.25 C 1108.15 94.05 1108.47 96.96 1108.05 99.80 C 1109.32 99.99 1110.60 100.18 1111.90 100.38 C 1113.40 103.94 1113.12 107.86 1112.08 111.50 C 1114.95 111.82 1116.74 114.14 1116.86 116.94 C 1118.70 115.90 1119.51 113.86 1120.39 112.05 C 1121.57 113.41 1122.74 114.78 1123.95 116.14 C 1122.17 117.03 1120.41 117.93 1118.66 118.85 C 1119.70 121.81 1120.54 124.91 1122.40 127.50 C 1123.51 130.19 1123.31 133.23 1124.00 136.03 C 1125.59 140.91 1126.06 146.05 1126.99 151.08 C 1127.18 153.81 1129.52 155.60 1131.34 157.35 C 1128.00 161.15 1125.39 165.64 1121.28 168.70 C 1114.79 163.24 1110.83 155.59 1105.06 149.48 C 1097.57 155.18 1090.58 161.50 1083.12 167.24 C 1082.96 161.80 1083.21 156.35 1082.69 150.92 C 1083.35 148.96 1084.36 147.13 1085.24 145.26 C 1083.99 145.09 1082.75 144.93 1081.53 144.77 C 1081.10 140.83 1079.61 136.43 1082.22 132.90 C 1081.44 130.70 1079.52 129.48 1077.84 128.05 C 1075.12 121.62 1072.63 115.03 1069.00 109.03 C 1067.26 108.54 1065.52 108.01 1063.81 107.50 C 1067.28 101.33 1073.19 97.12 1077.98 92.06 Z" />
<path fill="#ffffff" opacity="1.00" d=" M 384.96 78.00 C 393.30 76.82 402.08 76.45 410.06 79.57 C 414.64 80.47 419.43 80.58 424.06 79.84 C 429.81 79.37 435.35 81.33 440.85 82.74 C 449.19 84.42 456.50 89.06 464.60 91.54 C 478.11 98.07 490.05 108.06 498.61 120.41 C 502.04 125.66 505.67 131.18 505.99 137.64 C 507.63 138.39 509.26 139.18 510.90 139.95 C 513.82 150.48 515.49 161.34 515.88 172.26 C 518.79 173.79 522.53 173.92 525.73 175.02 C 525.26 186.11 525.95 197.22 525.40 208.31 C 521.68 209.58 517.98 210.86 514.29 212.18 C 514.02 220.98 509.47 228.76 507.61 237.21 C 505.68 244.75 504.33 252.98 498.86 258.91 C 494.99 263.06 492.83 268.59 488.64 272.42 C 482.39 275.72 476.16 279.10 470.43 283.24 C 468.37 284.66 466.48 286.41 464.09 287.26 C 457.38 289.82 451.17 293.88 443.96 294.96 C 432.34 296.72 420.75 298.94 408.99 299.40 C 405.60 299.44 402.31 300.30 398.95 300.52 C 390.26 301.14 381.61 299.75 372.94 299.40 C 353.26 298.61 333.70 293.23 316.60 283.41 C 309.00 278.51 302.36 272.23 296.41 265.45 C 290.98 259.38 289.21 250.99 283.75 244.93 C 283.47 240.95 283.21 236.90 281.81 233.13 C 280.65 229.92 278.24 227.29 277.40 223.94 C 276.29 220.16 276.42 216.19 275.94 212.31 C 271.76 210.97 267.75 209.15 263.86 207.14 C 264.06 196.56 264.64 185.99 264.78 175.40 C 268.02 173.32 271.92 173.32 275.61 172.80 C 277.38 163.45 280.34 154.38 282.57 145.14 C 282.15 143.78 281.64 142.46 281.14 141.14 C 282.80 138.11 283.93 134.77 285.88 131.91 C 288.57 129.23 292.65 126.38 290.97 121.96 C 293.14 118.08 296.21 114.79 299.97 112.43 C 303.39 109.00 305.89 104.25 310.88 102.80 C 312.30 97.53 317.68 95.49 321.83 92.76 C 326.26 91.60 332.79 91.23 334.51 86.13 C 346.15 82.94 357.97 80.12 370.02 78.94 C 374.98 78.35 380.02 78.83 384.96 78.00 M 359.08 114.12 C 349.70 120.01 342.03 129.12 339.41 140.04 C 336.63 146.05 334.01 152.25 333.20 158.90 C 332.27 163.87 333.17 168.94 332.33 173.92 C 331.04 183.92 332.47 193.98 332.43 204.00 C 332.45 206.92 332.22 209.93 333.18 212.73 C 334.01 215.67 336.05 218.13 336.51 221.19 C 339.84 237.76 348.63 253.56 362.28 263.78 C 368.89 268.86 377.14 270.88 385.03 273.01 C 393.23 275.26 401.76 273.70 410.05 272.90 C 414.25 272.38 418.87 273.06 422.58 270.57 C 425.57 268.97 427.18 265.59 430.41 264.38 C 437.34 261.03 442.69 255.08 446.46 248.47 C 447.28 246.18 449.89 246.02 451.84 245.23 C 452.19 241.47 452.62 237.69 453.88 234.12 C 459.71 217.43 460.84 199.46 459.67 181.94 C 459.23 179.15 461.28 176.59 460.54 173.81 C 457.80 157.92 453.42 141.97 444.76 128.21 C 438.10 117.07 426.38 109.78 414.16 106.19 C 404.49 105.44 394.78 103.39 385.06 104.64 C 375.91 106.10 366.89 109.06 359.08 114.12 Z" />
<path fill="#ffffff" opacity="1.00" d=" M 106.10 81.44 C 117.90 79.36 129.91 77.62 141.92 78.59 C 160.93 79.95 179.99 77.86 199.01 78.93 C 206.37 79.26 213.75 78.72 221.09 79.50 C 227.29 80.16 233.47 78.75 239.68 79.00 C 240.40 90.72 240.99 103.28 235.08 113.89 C 236.47 117.99 238.21 121.97 239.40 126.13 C 240.69 134.51 239.81 143.02 239.56 151.44 C 237.92 151.48 236.28 151.52 234.64 151.55 C 228.17 143.37 221.12 135.68 214.23 127.86 C 210.77 123.76 206.11 120.99 201.58 118.25 C 178.75 104.92 150.55 101.73 125.12 108.60 C 115.55 110.30 106.60 114.42 98.25 119.28 C 93.48 123.54 90.32 129.26 86.03 133.98 C 83.51 136.67 81.32 139.73 80.12 143.26 C 77.58 151.00 73.00 157.95 71.21 165.95 C 69.88 170.84 70.82 175.93 70.16 180.90 C 68.85 197.04 74.34 212.56 78.19 227.99 C 80.10 230.95 82.77 233.38 84.70 236.35 C 91.14 245.28 96.61 255.73 106.54 261.30 C 111.91 263.62 116.79 266.88 121.37 270.50 C 126.94 270.63 132.52 270.89 138.00 271.98 C 148.32 273.16 158.71 271.74 169.06 271.95 C 173.40 269.65 177.34 266.52 182.11 265.02 C 182.02 253.86 183.23 242.59 181.22 231.52 C 180.81 228.23 177.76 226.34 175.20 224.72 C 165.72 219.04 155.52 214.68 145.15 210.91 C 145.43 207.70 145.66 204.49 145.90 201.28 C 167.95 201.43 189.99 201.08 212.04 201.20 C 216.73 201.17 221.32 202.28 225.98 202.55 C 228.97 202.03 231.87 200.77 234.98 201.03 C 242.87 201.35 250.76 201.74 258.66 201.92 C 258.47 205.18 258.25 208.44 257.92 211.69 C 248.82 215.44 241.56 223.98 240.47 233.90 C 239.87 241.56 239.53 249.27 240.13 256.94 C 240.75 265.29 241.74 273.71 240.63 282.07 C 239.27 291.99 239.60 302.02 239.26 312.00 C 239.13 316.35 238.55 320.69 238.83 325.05 C 239.75 345.69 240.49 366.37 239.47 387.03 C 236.86 386.57 233.31 386.97 231.95 384.13 C 228.88 379.26 225.13 374.87 221.78 370.20 C 219.24 366.72 217.57 362.60 214.38 359.61 C 210.16 355.54 205.12 352.15 202.05 347.02 C 199.08 342.52 198.06 336.76 193.88 333.10 C 189.76 329.07 184.83 325.36 182.60 319.88 C 181.25 312.08 182.02 304.13 181.97 296.27 C 166.22 297.76 150.43 301.17 134.57 299.19 C 128.60 298.40 122.53 299.31 116.58 298.26 C 102.51 295.97 88.14 294.38 74.79 289.10 C 67.11 286.10 60.51 280.98 54.26 275.71 C 49.99 272.10 44.38 270.51 40.25 266.71 C 29.30 255.76 18.95 242.87 16.42 227.14 C 16.01 221.81 13.55 216.95 12.15 211.87 C 8.32 209.65 4.10 208.20 0.00 206.56 L 0.00 175.56 C 3.52 173.44 8.03 173.82 11.41 171.49 C 13.56 164.66 13.67 157.39 15.35 150.46 C 16.68 147.67 19.30 145.80 21.47 143.69 C 21.70 139.68 21.71 135.42 23.75 131.82 C 27.89 124.54 32.67 117.53 38.61 111.59 C 43.39 106.89 50.00 105.03 55.83 102.05 C 59.65 100.28 61.29 95.99 64.78 93.78 C 67.27 92.35 70.24 92.34 72.94 91.53 C 75.26 90.14 77.27 88.08 80.05 87.60 C 84.40 86.26 89.50 87.21 93.26 84.27 C 96.99 81.60 101.83 82.32 106.10 81.44 Z" />
<path fill="#ffffff" opacity="1.00" d=" M 1552.60 80.41 C 1563.34 81.20 1573.99 78.94 1584.74 79.23 C 1588.57 88.56 1593.38 97.44 1597.20 106.78 C 1600.38 114.51 1603.71 122.19 1606.93 129.90 C 1607.05 133.58 1605.97 137.36 1607.18 140.95 C 1608.61 143.68 1611.19 145.54 1613.27 147.75 C 1615.20 149.21 1614.34 151.89 1614.67 153.96 C 1613.74 155.05 1612.81 156.15 1611.91 157.25 C 1614.16 161.79 1616.53 166.27 1619.15 170.61 C 1620.86 170.92 1622.59 171.24 1624.34 171.58 C 1627.97 182.28 1632.56 192.63 1636.98 203.02 C 1639.94 210.53 1644.17 217.65 1645.26 225.78 C 1647.69 230.16 1650.88 234.20 1652.36 239.06 C 1653.12 242.58 1652.88 246.22 1653.19 249.80 C 1655.31 251.29 1657.45 252.79 1659.53 254.37 C 1659.62 256.90 1660.12 259.42 1661.63 261.53 C 1663.88 264.96 1664.86 269.43 1668.24 272.00 C 1675.24 276.18 1683.74 276.73 1690.80 280.84 C 1690.96 286.32 1691.13 291.81 1690.64 297.29 C 1680.85 299.01 1670.91 298.31 1661.04 298.46 C 1646.01 298.60 1630.98 298.70 1615.98 297.96 C 1607.47 298.52 1598.95 298.73 1590.44 298.40 C 1590.08 292.14 1590.14 285.86 1590.50 279.60 C 1594.40 276.98 1599.33 274.84 1601.00 270.06 C 1602.35 266.85 1601.30 263.26 1599.35 260.57 C 1593.23 251.08 1589.40 240.38 1585.34 229.91 C 1582.81 220.14 1576.90 211.73 1573.83 202.16 C 1566.61 184.41 1559.67 166.54 1551.66 149.13 C 1548.83 158.11 1543.53 166.06 1540.52 174.97 C 1536.56 185.27 1532.62 195.61 1527.67 205.49 C 1519.22 226.80 1511.35 248.35 1503.89 270.01 C 1504.38 275.03 1509.78 277.23 1513.16 280.20 C 1513.08 285.65 1513.08 291.10 1513.24 296.55 C 1503.16 297.48 1493.07 295.38 1483.00 296.44 C 1469.91 297.67 1456.76 297.08 1443.64 297.38 C 1442.94 292.02 1442.42 286.59 1443.22 281.22 C 1450.00 278.48 1457.53 277.92 1463.97 274.25 C 1469.15 271.62 1473.98 267.71 1476.51 262.36 C 1480.15 255.47 1483.50 248.41 1486.02 241.02 C 1497.87 212.57 1509.86 184.17 1521.39 155.59 C 1523.09 151.34 1524.62 147.01 1526.84 142.99 C 1532.00 134.06 1532.71 123.13 1538.96 114.75 C 1541.27 111.71 1541.78 107.82 1542.63 104.20 C 1543.42 100.25 1545.58 96.79 1546.90 93.03 C 1548.48 88.69 1550.26 84.41 1552.60 80.41 Z" />
<path fill="#ffffff" opacity="1.00" d=" M 1749.57 83.35 C 1752.98 81.19 1756.95 80.09 1761.00 80.20 C 1771.66 80.32 1782.33 80.62 1793.00 80.48 C 1814.39 80.22 1835.91 79.29 1857.18 82.27 C 1861.21 82.45 1863.28 86.49 1866.47 88.39 C 1868.79 88.89 1871.20 88.82 1873.59 89.02 C 1875.72 97.78 1886.87 100.21 1888.51 109.13 C 1890.35 116.27 1889.92 123.67 1890.05 130.97 C 1890.06 139.36 1889.42 148.02 1885.80 155.72 C 1883.43 161.35 1878.64 165.33 1874.70 169.81 C 1872.55 169.85 1870.41 169.89 1868.30 169.93 C 1867.51 172.10 1867.79 175.19 1865.30 176.25 C 1856.90 181.40 1849.02 187.68 1839.54 190.78 C 1843.89 198.93 1850.20 206.03 1852.92 215.00 C 1859.42 221.38 1864.38 229.06 1869.50 236.54 C 1872.81 241.43 1875.37 246.81 1876.76 252.56 C 1877.59 255.08 1881.05 255.28 1882.34 257.58 C 1886.92 263.95 1891.88 270.04 1896.73 276.20 C 1901.90 280.89 1909.14 282.25 1914.79 286.29 C 1917.33 287.69 1917.09 291.01 1918.00 293.43 L 1918.00 299.33 C 1893.99 300.02 1869.96 300.86 1845.95 300.16 C 1842.86 300.38 1841.39 297.27 1839.76 295.24 C 1831.51 283.38 1823.72 271.22 1815.72 259.20 C 1812.15 253.73 1807.91 248.51 1806.13 242.12 C 1804.40 236.60 1799.16 233.43 1796.06 228.80 C 1791.05 221.59 1786.32 214.19 1781.48 206.86 C 1780.85 222.93 1782.43 239.08 1780.48 255.08 C 1779.70 261.44 1781.70 267.67 1781.65 274.01 C 1781.75 283.03 1780.77 292.04 1781.31 301.05 C 1781.62 307.67 1782.04 314.57 1779.62 320.89 C 1777.90 325.98 1772.83 328.58 1769.47 332.43 C 1765.71 336.19 1764.51 341.54 1761.81 345.97 C 1759.23 350.51 1755.05 353.76 1751.38 357.35 C 1746.71 361.59 1744.30 367.56 1740.57 372.53 C 1737.54 376.58 1735.17 381.19 1731.53 384.74 C 1729.94 386.45 1727.52 386.25 1725.44 385.94 C 1725.24 375.97 1725.08 365.99 1725.25 356.02 C 1725.28 342.02 1726.35 328.03 1726.04 314.02 C 1725.77 303.33 1725.85 292.59 1724.57 281.96 C 1723.50 268.30 1725.90 254.63 1724.82 240.97 C 1724.23 232.32 1727.46 223.48 1724.36 215.06 C 1723.25 209.52 1716.94 207.81 1712.11 207.17 C 1711.95 196.16 1711.51 185.12 1712.35 174.13 C 1715.48 172.77 1718.76 171.81 1722.09 170.99 C 1725.91 161.81 1723.77 151.65 1724.63 142.01 C 1725.66 132.08 1724.28 122.04 1721.57 112.48 C 1719.10 105.72 1711.65 103.05 1707.65 97.52 C 1706.25 92.18 1707.28 86.62 1707.57 81.21 C 1720.10 80.48 1732.66 81.24 1745.19 80.61 C 1746.64 81.52 1748.10 82.44 1749.57 83.35 M 1782.75 109.58 C 1781.80 117.67 1781.51 125.84 1782.09 133.97 C 1782.24 148.19 1780.81 162.45 1782.05 176.64 C 1786.85 176.47 1791.72 177.10 1796.51 176.33 C 1800.07 175.35 1803.79 175.17 1807.39 174.30 C 1819.19 171.15 1829.00 162.13 1833.96 151.07 C 1836.14 145.68 1837.13 139.48 1835.27 133.85 C 1833.12 126.24 1829.09 118.62 1822.03 114.55 C 1810.28 107.59 1795.86 107.20 1782.75 109.58 Z" />
<path fill="#ffffff" opacity="1.00" d=" M 541.76 99.53 C 541.37 93.33 540.73 87.09 541.82 80.92 C 551.93 81.14 562.08 80.34 572.14 81.62 C 574.75 82.08 577.36 81.47 579.97 81.27 C 587.97 80.55 596.00 81.26 604.02 81.02 C 608.70 80.76 613.30 82.00 617.98 81.98 C 624.67 82.28 631.29 80.96 637.98 80.89 C 649.63 80.69 661.30 82.50 672.94 81.26 C 674.63 81.12 676.40 80.67 678.02 81.45 C 683.42 83.54 689.11 85.15 694.95 85.11 C 701.14 84.53 707.34 85.65 713.45 86.58 C 730.14 92.56 746.21 101.54 758.20 114.82 C 759.84 116.59 761.44 118.48 762.24 120.80 C 765.02 128.01 770.40 134.13 771.86 141.86 C 773.18 149.54 775.92 157.10 775.33 164.99 C 774.53 177.36 776.94 189.99 773.70 202.14 C 771.67 211.51 769.73 221.02 765.95 229.87 C 760.39 239.67 754.41 249.37 746.75 257.70 C 741.90 263.00 736.01 267.19 730.11 271.22 C 714.36 281.75 696.67 289.61 677.99 293.08 C 670.67 294.34 663.35 295.66 655.93 296.18 C 636.97 297.68 617.97 296.04 599.00 295.45 C 580.11 295.42 561.23 297.58 542.33 296.44 C 542.37 290.06 542.01 283.69 541.76 277.32 C 546.76 274.09 553.95 271.87 554.92 265.08 C 557.87 247.49 556.06 229.55 557.12 211.82 C 553.96 210.66 550.81 209.49 547.70 208.23 C 546.07 201.57 547.37 194.66 546.16 187.95 C 545.21 183.69 546.29 179.35 547.33 175.21 C 550.40 173.64 554.59 173.83 556.88 170.99 C 557.85 164.39 557.04 157.67 556.98 151.03 C 556.99 145.99 556.37 140.71 558.55 135.99 C 560.79 132.10 557.66 128.30 556.54 124.62 C 554.46 119.34 556.73 113.24 554.05 108.14 C 551.56 103.38 545.66 102.63 541.76 99.53 M 613.91 110.88 C 611.43 111.77 612.12 114.95 612.07 116.99 C 612.67 119.84 610.27 121.84 608.94 124.04 C 610.69 128.93 610.24 134.30 608.30 139.07 C 610.85 144.92 609.45 151.51 611.35 157.51 C 612.86 162.43 610.60 167.87 613.10 172.58 C 615.78 172.96 618.49 173.54 620.78 175.08 C 620.27 186.06 621.74 197.07 620.68 208.04 C 618.11 209.44 614.75 209.49 612.71 211.79 C 611.68 212.96 612.13 214.59 612.08 216.00 C 612.43 223.38 610.14 230.66 611.05 238.04 C 612.46 247.92 611.39 257.92 611.58 267.86 C 618.10 270.34 625.21 270.69 632.05 269.57 C 633.80 268.90 635.22 270.97 636.93 270.14 C 640.84 269.10 644.89 268.79 648.91 268.51 C 650.15 269.12 651.43 270.53 652.92 269.61 C 658.17 267.50 663.95 268.44 669.39 267.26 C 678.17 264.40 686.82 260.69 694.04 254.80 C 704.10 247.06 709.53 235.26 715.45 224.40 C 716.54 222.83 715.97 220.92 715.68 219.21 C 720.60 215.90 720.78 209.17 721.30 203.84 C 723.63 193.02 721.99 181.93 722.63 170.99 C 722.39 164.47 718.87 158.75 717.26 152.56 C 713.13 140.23 705.94 128.37 694.99 120.99 C 687.69 116.00 679.03 113.75 670.88 110.61 C 651.99 108.27 632.76 108.20 613.91 110.88 Z" />
<path fill="#ffffff" opacity="1.00" d=" M 1134.44 81.16 C 1148.24 80.26 1162.07 81.37 1175.88 80.78 C 1179.44 84.14 1184.00 81.37 1188.06 81.00 C 1203.06 79.87 1218.10 81.89 1233.10 80.66 C 1233.57 86.35 1233.63 92.07 1233.21 97.77 C 1229.60 100.42 1225.68 102.68 1222.43 105.78 C 1221.08 106.73 1221.27 108.51 1221.18 109.95 C 1221.02 115.66 1222.62 121.19 1223.53 126.78 C 1225.03 136.26 1226.93 145.67 1228.97 155.05 C 1231.57 167.86 1235.72 180.54 1235.10 193.78 C 1241.18 201.17 1239.76 211.36 1243.00 219.85 C 1244.36 221.14 1245.67 219.34 1245.90 218.12 C 1249.20 208.49 1254.38 199.68 1258.70 190.49 C 1263.30 181.49 1266.75 171.87 1272.39 163.42 C 1275.27 159.18 1275.83 153.86 1278.54 149.52 C 1282.50 143.15 1284.58 135.86 1288.16 129.30 C 1293.41 119.37 1297.04 108.62 1303.11 99.13 C 1305.41 93.01 1307.57 86.65 1311.20 81.13 C 1318.05 80.43 1324.94 80.85 1331.82 80.95 C 1344.63 110.68 1356.00 141.00 1368.39 170.91 C 1369.80 174.54 1370.96 178.30 1371.46 182.18 C 1372.42 189.40 1378.44 194.36 1380.94 200.96 C 1382.05 204.11 1381.12 207.84 1383.20 210.66 C 1386.51 215.44 1388.75 220.82 1390.88 226.20 C 1396.36 207.57 1401.19 188.70 1406.49 170.00 C 1410.49 156.03 1413.71 141.85 1418.10 128.00 C 1419.36 121.45 1420.87 114.67 1419.97 108.00 C 1417.71 104.79 1413.99 103.14 1410.94 100.83 C 1409.66 99.82 1407.92 98.89 1407.88 97.05 C 1407.12 92.27 1407.56 87.41 1407.51 82.60 C 1420.28 82.13 1433.44 79.90 1445.91 83.87 C 1447.82 82.69 1449.55 80.62 1452.04 80.88 C 1461.34 80.76 1470.66 80.53 1479.95 81.15 C 1479.51 86.65 1479.48 92.17 1479.64 97.68 C 1470.83 99.31 1460.88 99.60 1454.00 106.11 C 1446.83 112.86 1445.71 123.09 1442.95 132.01 C 1440.24 140.38 1436.59 148.46 1434.74 157.09 C 1430.15 176.22 1423.61 194.81 1419.06 213.95 C 1418.40 217.00 1416.47 219.54 1414.69 222.02 C 1415.51 233.24 1408.81 243.00 1407.29 253.84 C 1406.65 258.19 1405.96 262.73 1403.31 266.39 C 1399.92 271.33 1401.49 277.58 1400.80 283.15 C 1399.41 287.92 1397.68 292.58 1396.45 297.40 C 1384.39 297.29 1372.31 296.66 1360.30 297.95 C 1355.33 288.04 1351.77 277.53 1347.86 267.18 C 1345.46 260.32 1341.03 253.97 1341.59 246.38 C 1338.38 240.87 1333.63 236.18 1331.82 229.92 C 1329.52 222.46 1326.93 215.10 1323.58 208.05 C 1316.25 190.78 1310.10 173.03 1302.20 156.00 C 1292.81 173.94 1284.22 192.30 1275.53 210.59 C 1271.58 219.22 1267.27 227.71 1263.71 236.52 C 1262.01 240.55 1259.86 244.56 1256.34 247.30 C 1254.11 248.84 1254.05 251.78 1253.22 254.13 C 1251.25 261.71 1248.85 269.39 1243.83 275.55 C 1242.51 283.36 1239.03 290.57 1234.87 297.24 C 1224.61 297.23 1214.32 297.47 1204.09 296.56 C 1200.18 286.36 1199.07 275.43 1196.63 264.85 C 1193.72 251.64 1190.28 238.54 1188.35 225.14 C 1185.25 202.75 1177.74 181.26 1174.48 158.90 C 1173.79 154.64 1173.71 150.30 1172.99 146.05 C 1171.33 135.43 1168.08 125.16 1165.19 114.84 C 1163.14 108.34 1156.54 105.24 1151.15 101.94 C 1146.06 98.60 1139.78 98.36 1133.91 97.98 C 1133.72 92.36 1134.00 86.75 1134.44 81.16 Z" />
<path fill="#ffffff" opacity="1.00" d=" M 823.54 86.02 C 823.49 89.36 822.53 92.57 821.47 95.71 C 820.69 95.52 819.13 95.16 818.35 94.97 C 818.52 94.20 818.87 92.66 819.05 91.89 C 819.64 92.16 820.83 92.69 821.42 92.96 C 821.14 90.42 821.18 87.60 823.54 86.02 Z" />
<path fill="#ffffff" opacity="1.00" d=" M 825.56 117.27 C 823.71 114.08 825.98 110.39 827.88 107.81 C 826.64 110.84 825.85 114.00 825.56 117.27 Z" />
<path fill="#ffffff" opacity="1.00" d=" M 813.16 115.16 C 813.89 115.15 815.34 115.13 816.07 115.13 C 816.01 115.88 815.90 117.40 815.85 118.16 C 815.10 118.22 813.59 118.34 812.84 118.40 C 812.92 117.59 813.08 115.97 813.16 115.16 Z" />
<path fill="#ffffff" opacity="1.00" d=" M 930.63 131.77 C 947.90 129.28 967.18 134.60 978.44 148.49 C 984.44 160.10 984.88 173.87 982.67 186.54 C 981.99 189.49 981.72 192.64 980.34 195.37 C 975.76 201.72 970.90 208.46 963.43 211.58 C 949.01 220.74 930.70 219.85 914.88 215.22 C 906.23 213.10 899.90 206.03 895.50 198.66 C 891.31 185.05 891.10 170.28 894.30 156.43 C 894.75 153.63 897.17 151.83 898.38 149.38 C 900.74 143.98 906.20 141.04 911.02 138.14 C 917.09 134.84 923.79 132.74 930.63 131.77 M 929.40 146.56 C 923.38 148.37 917.94 152.75 916.09 158.91 C 913.06 167.46 911.03 177.63 915.57 186.02 C 916.71 189.24 917.17 192.79 919.20 195.63 C 927.61 205.91 944.64 207.47 954.64 198.63 C 959.25 194.78 960.08 188.49 961.43 183.00 C 964.23 174.34 961.57 165.12 958.14 157.05 C 953.07 146.83 939.78 143.10 929.40 146.56 Z" />
<path fill="#ffffff" opacity="1.00" d=" M 984.60 133.25 C 1005.89 132.92 1027.17 133.98 1048.46 133.20 C 1047.99 141.28 1047.29 149.51 1044.64 157.20 C 1042.52 153.59 1040.53 149.00 1036.08 147.87 C 1029.35 146.08 1022.35 147.16 1015.53 147.69 C 1015.19 153.82 1015.01 159.95 1014.90 166.08 C 1020.56 166.55 1026.28 167.24 1031.96 166.54 C 1034.93 165.82 1036.10 162.56 1037.79 160.35 C 1038.79 161.31 1039.81 162.44 1039.54 163.96 C 1039.74 172.05 1039.00 180.15 1039.84 188.22 C 1037.28 186.01 1035.20 183.04 1031.98 181.76 C 1026.42 180.95 1020.78 181.59 1015.20 181.78 C 1015.61 189.03 1016.71 196.22 1016.45 203.50 C 1019.55 205.88 1022.85 208.00 1026.12 210.14 C 1025.42 214.11 1026.10 218.41 1024.46 222.17 C 1024.58 220.69 1024.81 219.23 1025.07 217.77 C 1011.85 217.03 998.60 217.37 985.38 217.45 C 985.56 214.03 985.46 210.34 987.34 207.33 C 989.23 205.78 991.36 204.57 993.36 203.17 C 993.66 196.73 993.63 190.28 993.26 183.84 C 987.34 180.95 988.28 173.64 989.08 168.23 C 990.61 167.71 992.15 167.18 993.69 166.64 C 993.61 161.05 993.96 155.37 992.79 149.86 C 991.77 145.86 987.79 143.80 985.59 140.57 C 985.00 138.17 984.89 135.69 984.60 133.25 Z" />
<path fill="#ffffff" opacity="1.00" d=" M 1132.09 148.81 C 1131.02 146.39 1132.91 144.97 1135.13 145.90 C 1136.00 148.08 1134.37 150.10 1132.09 148.81 Z" />
<path fill="#ffffff" opacity="1.00" d=" M 1085.43 169.18 C 1092.60 165.08 1097.87 158.49 1104.90 154.19 C 1109.00 159.13 1112.91 164.23 1116.61 169.47 C 1117.74 171.10 1119.06 173.63 1117.24 175.28 C 1113.68 179.59 1109.55 183.68 1104.99 186.81 C 1098.45 180.96 1091.68 175.34 1085.43 169.18 Z" />
<path fill="#ffffff" opacity="1.00" d=" M 811.15 155.72 C 819.51 159.23 827.11 164.50 833.91 170.45 C 825.63 176.38 817.83 182.95 809.73 189.11 C 809.78 185.68 810.23 182.29 810.83 178.92 C 810.88 174.20 809.70 169.59 808.96 164.97 C 808.86 163.23 810.62 162.38 811.54 161.18 C 811.51 159.35 811.29 157.54 811.15 155.72 Z" />
<path fill="#ffffff" opacity="1.00" d=" M 837.75 170.45 C 843.60 164.95 850.88 161.18 856.28 155.18 C 855.89 161.44 856.07 167.73 856.40 173.98 C 858.86 177.47 860.47 181.39 861.53 185.51 C 852.85 181.79 845.31 176.00 837.75 170.45 Z" />
<path fill="#ffffff" opacity="1.00" d=" M 931.01 161.87 C 935.71 160.49 941.10 159.92 945.47 162.60 C 946.96 170.96 946.78 179.58 946.63 188.06 C 941.96 191.07 936.01 190.14 930.87 189.06 C 930.97 180.00 930.58 170.93 931.01 161.87 Z" />
<path fill="#ffffff" opacity="1.00" d=" M 1124.35 169.99 C 1125.85 167.32 1128.59 165.70 1130.86 163.74 C 1130.45 168.78 1127.60 174.24 1130.92 178.90 C 1129.02 178.38 1127.28 177.46 1126.25 175.77 C 1125.13 174.05 1122.96 172.19 1124.35 169.99 Z" />
<path fill="#ffffff" opacity="1.00" d=" M 1080.72 170.36 C 1088.96 177.45 1096.62 185.24 1105.40 191.71 C 1111.11 186.09 1115.77 179.49 1121.56 173.93 C 1123.92 177.14 1126.37 180.30 1129.17 183.14 C 1126.94 188.04 1125.36 193.40 1126.34 198.82 C 1124.64 199.05 1122.97 199.29 1121.29 199.52 C 1121.08 201.19 1120.91 202.87 1120.74 204.56 C 1119.65 205.13 1117.88 205.19 1117.80 206.76 C 1116.52 211.67 1116.80 216.80 1116.12 221.80 C 1110.13 226.09 1109.99 234.13 1110.28 240.76 C 1108.06 241.06 1105.85 241.37 1103.66 241.67 C 1104.14 243.56 1104.46 245.51 1102.64 246.75 C 1099.97 248.78 1100.82 252.25 1101.91 254.93 C 1100.76 253.80 1099.56 252.74 1098.34 251.73 C 1096.98 254.47 1095.91 257.35 1095.43 260.38 C 1093.36 261.60 1091.29 262.80 1089.26 264.06 C 1088.56 266.42 1087.53 269.81 1084.41 269.44 C 1086.01 272.94 1081.18 273.23 1078.97 273.47 C 1070.43 272.17 1061.77 272.58 1053.18 271.95 C 1051.60 261.03 1050.65 249.81 1052.78 238.90 C 1053.37 239.07 1054.56 239.42 1055.16 239.59 C 1058.52 234.51 1061.65 229.26 1065.54 224.56 C 1067.24 217.13 1073.33 211.27 1073.43 203.31 C 1074.95 203.19 1076.49 203.06 1078.04 202.93 C 1076.80 201.62 1075.57 200.31 1074.36 199.00 C 1075.55 196.25 1076.71 193.47 1077.80 190.68 C 1079.48 190.81 1081.18 190.96 1082.89 191.09 C 1080.28 188.90 1080.19 185.24 1082.85 183.05 C 1081.83 183.13 1079.77 183.29 1078.75 183.37 C 1079.35 182.75 1080.55 181.52 1081.15 180.90 C 1081.29 177.38 1080.84 173.87 1080.72 170.36 M 1075.35 228.99 C 1076.60 230.06 1078.23 231.41 1080.02 230.62 C 1081.68 230.13 1082.42 227.40 1080.46 226.78 C 1078.41 225.50 1076.35 227.30 1075.35 228.99 M 1067.03 227.13 C 1066.81 230.00 1069.28 231.97 1072.00 231.94 C 1073.32 228.87 1069.78 226.69 1067.03 227.13 M 1060.26 236.61 C 1061.42 237.62 1062.64 238.59 1063.90 239.51 C 1066.01 237.84 1068.24 236.27 1070.05 234.25 C 1066.63 234.31 1063.58 236.04 1060.26 236.61 Z" />
<path fill="#ffffff" opacity="1.00" d=" M 827.53 179.44 C 830.56 177.56 833.41 175.14 836.87 174.11 C 844.86 178.83 851.56 185.47 859.54 190.24 C 859.34 202.29 865.85 213.05 871.82 223.09 C 873.83 226.12 874.78 229.87 877.55 232.37 C 880.59 235.44 882.78 239.21 885.23 242.76 C 886.16 242.73 888.02 242.68 888.95 242.65 C 885.58 247.44 880.47 250.45 875.97 254.03 C 873.37 256.04 871.53 258.85 868.89 260.82 C 866.09 263.05 862.92 264.80 860.33 267.29 C 856.24 271.64 851.34 275.13 847.35 279.59 C 847.29 278.91 847.18 277.56 847.13 276.89 C 845.22 275.48 843.06 274.51 840.98 273.42 C 841.92 272.03 842.87 270.64 843.84 269.26 C 842.52 269.15 841.21 269.06 839.91 268.98 C 839.95 266.36 839.87 263.74 839.77 261.12 C 840.59 259.98 841.40 258.83 842.20 257.67 C 839.83 257.60 837.48 257.56 835.13 257.58 C 836.52 256.63 837.90 255.65 839.19 254.56 C 834.18 254.34 828.86 255.46 824.51 252.30 C 824.52 251.55 824.55 250.05 824.56 249.31 C 826.06 248.65 827.53 247.92 829.08 247.34 C 832.23 247.70 834.32 250.53 836.98 252.00 C 835.05 249.04 833.42 245.89 832.42 242.50 C 831.71 242.62 830.28 242.87 829.57 243.00 C 830.11 239.42 830.36 235.50 827.27 232.98 C 824.87 225.44 820.47 218.55 819.45 210.59 C 820.13 210.64 821.49 210.74 822.17 210.79 C 816.96 209.56 817.30 203.52 816.65 199.35 C 815.78 199.28 814.04 199.16 813.18 199.10 C 814.69 197.04 816.45 194.97 816.46 192.26 C 818.71 190.40 820.26 187.88 820.34 184.91 C 821.11 184.87 822.64 184.80 823.41 184.77 C 822.92 182.03 825.79 180.86 827.53 179.44 M 828.07 223.93 C 827.33 225.11 826.33 226.48 827.34 227.86 C 829.45 231.85 831.19 236.65 835.59 238.68 C 834.50 235.59 833.27 232.54 832.16 229.46 C 833.34 229.45 834.53 229.44 835.74 229.44 C 834.12 227.90 832.54 226.33 830.94 224.78 C 831.05 222.92 831.24 221.08 831.46 219.23 C 830.23 219.44 829.01 219.64 827.80 219.85 C 827.45 219.10 826.76 217.59 826.42 216.83 C 825.58 219.35 827.03 221.72 828.07 223.93 M 855.69 247.74 C 852.02 248.20 853.98 253.27 856.98 252.14 C 859.92 251.34 858.34 247.20 855.69 247.74 Z" />
<path fill="#ffffff" opacity="1.00" d=" M 1123.40 204.57 C 1121.50 203.55 1124.26 202.06 1124.93 201.13 C 1125.63 201.74 1126.35 202.36 1127.07 202.97 C 1126.13 203.87 1124.79 206.18 1123.40 204.57 Z" />
<path fill="#ffffff" opacity="1.00" d=" M 815.20 220.20 C 816.94 221.74 818.56 223.42 820.02 225.24 C 819.07 225.65 818.13 226.06 817.21 226.48 C 817.60 224.11 816.47 222.07 815.20 220.20 Z" />
<path fill="#ffffff" opacity="1.00" d=" M 822.05 235.34 C 822.85 234.66 823.43 233.43 824.66 233.58 C 825.42 234.18 826.03 234.97 826.68 235.69 C 825.87 236.32 825.05 236.92 824.24 237.53 C 823.49 236.80 822.76 236.08 822.05 235.34 Z" />
<path fill="#ffffff" opacity="1.00" d=" M 1119.40 237.63 C 1121.68 236.51 1124.26 240.11 1122.01 241.72 C 1119.61 243.72 1116.35 238.84 1119.40 237.63 Z" />
<path fill="#ffffff" opacity="1.00" d=" M 892.32 270.04 C 893.17 261.04 887.94 251.58 892.38 243.03 C 892.31 246.10 891.97 250.16 894.97 252.03 C 899.29 254.62 902.73 258.43 907.19 260.81 C 907.34 261.12 907.64 261.74 907.79 262.06 C 912.19 263.30 915.07 267.20 919.36 268.70 C 917.20 271.07 913.57 270.83 911.51 268.47 C 911.94 271.48 910.04 274.29 906.91 274.51 C 907.48 274.82 908.06 275.13 908.64 275.45 C 910.32 274.07 911.90 272.50 913.93 271.62 C 915.56 272.03 917.01 272.92 918.56 273.59 C 919.58 274.03 919.84 271.91 921.03 272.15 C 921.39 272.57 922.11 273.40 922.47 273.82 C 923.11 273.27 923.76 272.73 924.42 272.19 C 930.47 274.27 936.37 276.83 941.90 280.08 C 943.50 280.83 943.89 282.74 945.19 283.83 C 947.51 284.81 950.01 283.81 952.37 283.43 C 952.27 284.05 952.08 285.27 951.98 285.89 C 955.00 285.48 958.04 285.13 961.07 284.78 C 960.82 303.51 961.38 322.26 960.39 340.98 C 959.62 339.12 959.02 337.19 958.51 335.26 C 954.77 334.98 951.13 334.08 947.54 333.07 C 947.21 334.45 946.92 335.84 946.57 337.23 C 945.98 335.67 945.44 334.11 944.92 332.54 C 940.10 337.28 932.92 336.54 926.75 337.34 C 927.66 338.89 928.74 340.31 929.88 341.72 C 927.13 340.88 924.30 340.09 921.94 338.39 C 915.80 340.06 909.41 340.25 903.10 340.20 C 902.66 341.01 902.31 341.86 901.91 342.69 C 901.35 341.58 900.81 340.48 900.28 339.39 C 899.91 339.92 899.18 340.99 898.81 341.53 C 896.60 339.89 893.75 339.61 892.16 342.20 C 887.63 340.60 882.84 339.39 878.01 340.11 C 877.49 338.60 876.95 337.09 876.37 335.62 C 876.27 337.17 876.29 338.71 876.33 340.28 C 872.69 340.38 868.74 339.44 865.58 341.74 C 864.39 340.37 863.01 338.70 860.97 339.02 C 857.91 339.43 854.19 339.07 852.03 341.65 C 850.32 338.39 846.67 337.30 843.47 336.10 C 842.41 337.33 841.37 338.57 840.31 339.79 C 840.20 338.95 839.99 337.26 839.88 336.42 C 838.23 336.35 836.93 337.88 835.47 338.56 C 836.33 336.39 837.18 334.21 838.02 332.03 C 835.29 332.95 832.56 333.87 829.81 334.71 C 828.64 330.72 826.87 326.92 825.92 322.85 C 824.02 324.14 822.59 327.94 819.96 326.03 C 819.87 324.49 821.05 323.51 822.04 322.53 C 821.54 321.29 821.02 320.03 820.55 318.79 C 819.14 321.18 817.97 323.70 816.59 326.10 C 815.09 323.19 814.84 319.16 811.39 317.80 C 811.46 320.55 811.68 323.30 811.72 326.06 C 811.27 324.25 811.12 322.31 810.16 320.69 C 808.55 322.32 807.13 324.12 805.82 326.00 C 801.55 322.42 796.07 321.34 790.75 320.37 C 788.55 317.86 786.31 315.40 784.03 312.97 C 785.60 312.94 787.19 312.88 788.78 312.79 C 786.00 311.37 783.51 308.90 780.19 309.18 C 779.42 310.11 779.75 313.06 777.82 312.60 C 775.98 312.53 775.08 309.95 773.11 310.62 C 773.35 309.08 773.57 307.54 773.79 306.01 C 775.38 308.41 777.88 309.13 780.69 308.79 C 778.05 306.94 774.97 305.68 772.86 303.17 C 772.00 301.96 770.56 301.63 769.19 301.59 C 769.13 301.15 769.03 300.26 768.97 299.82 C 767.98 300.16 767.00 300.48 766.02 300.80 C 766.13 299.56 766.79 299.03 768.00 299.21 C 774.31 299.44 780.02 303.03 784.31 307.48 C 785.20 306.84 786.10 306.20 787.01 305.56 C 789.76 310.08 794.62 312.56 798.09 316.43 C 796.64 316.87 795.20 317.32 793.77 317.78 C 795.46 319.82 798.37 320.27 800.63 321.54 C 799.89 319.56 799.14 317.59 798.33 315.65 C 801.40 312.87 803.03 309.16 804.21 305.29 C 806.65 305.07 808.97 306.33 809.58 308.82 C 813.43 309.19 817.29 308.28 820.52 306.13 C 821.21 308.09 822.84 309.08 824.91 308.61 C 825.98 309.87 827.04 311.14 828.10 312.43 C 832.80 311.54 837.74 311.34 842.20 313.34 C 845.66 312.32 849.25 311.98 852.81 311.43 C 850.97 310.21 849.01 309.18 847.01 308.29 C 849.61 308.61 852.22 308.76 854.82 309.13 C 854.53 310.06 854.18 310.97 853.77 311.86 C 855.35 313.25 856.66 312.79 857.47 310.85 C 856.67 310.24 855.89 309.65 855.10 309.06 C 856.82 308.74 858.76 308.39 860.20 307.25 C 858.15 306.62 856.07 306.07 854.07 305.36 C 856.67 304.94 859.34 304.72 861.99 304.99 C 862.44 305.80 862.91 306.61 863.40 307.43 C 865.01 307.37 866.62 307.33 868.25 307.30 L 867.14 305.02 C 873.99 306.89 880.91 308.64 888.00 309.39 C 887.91 308.39 887.73 306.40 887.63 305.40 C 890.41 306.73 893.47 307.17 896.54 307.03 C 896.22 305.14 895.86 302.91 893.95 301.99 C 889.18 299.78 884.89 296.68 880.09 294.57 C 879.83 294.25 879.32 293.61 879.07 293.29 C 878.37 293.37 876.97 293.54 876.27 293.63 C 876.22 292.88 876.13 291.39 876.08 290.65 C 873.92 291.82 871.82 293.10 869.84 294.55 C 870.06 292.19 869.95 289.82 869.55 287.49 C 865.07 286.70 860.40 284.79 858.30 280.45 C 855.56 281.18 852.81 281.87 850.02 282.33 C 858.33 274.13 868.50 268.00 876.16 259.10 C 877.53 264.51 878.67 269.99 879.75 275.47 C 880.05 275.68 880.64 276.10 880.94 276.31 C 880.93 271.18 879.83 266.11 879.83 260.98 C 879.51 256.09 884.12 252.93 887.32 249.95 C 888.82 256.66 888.90 263.91 892.32 270.04 M 920.12 283.08 C 920.36 284.28 920.50 285.79 921.95 286.17 C 923.01 286.88 925.16 285.96 924.37 284.54 C 923.79 282.72 921.63 282.66 920.12 283.08 M 835.86 327.98 C 838.01 328.42 840.10 326.71 838.45 324.63 C 836.05 323.72 834.92 326.02 835.86 327.98 M 846.25 324.20 C 844.82 326.38 847.78 328.05 849.68 327.78 C 851.29 325.67 848.24 323.56 846.25 324.20 Z" />
<path fill="#ffffff" opacity="1.00" d=" M 1019.47 269.37 C 1030.74 263.14 1040.54 254.42 1048.48 244.32 C 1046.92 254.14 1048.93 264.07 1048.24 273.94 C 1058.71 276.20 1069.61 274.94 1080.04 277.33 C 1075.04 278.20 1071.22 281.78 1067.12 284.49 C 1066.04 285.24 1065.79 287.76 1064.14 287.12 C 1062.02 285.81 1061.49 287.89 1061.46 289.36 C 1060.54 289.26 1058.71 289.06 1057.79 288.96 C 1057.80 288.44 1057.82 287.42 1057.84 286.91 C 1056.42 288.30 1055.00 289.68 1053.56 291.04 C 1055.36 290.90 1057.17 290.78 1058.99 290.68 C 1057.06 293.51 1051.93 294.51 1052.95 298.67 C 1052.20 298.64 1050.71 298.58 1049.97 298.55 C 1052.93 305.84 1061.66 300.55 1067.22 302.94 C 1070.47 302.37 1073.76 302.09 1077.03 301.58 C 1078.79 300.94 1080.18 299.54 1081.78 298.57 C 1077.33 299.64 1074.47 295.32 1071.22 293.15 C 1078.67 294.43 1085.89 296.71 1093.17 298.72 C 1096.84 297.36 1101.23 295.96 1104.95 297.93 C 1108.14 299.27 1111.78 298.67 1115.00 299.95 C 1120.14 301.96 1125.50 303.57 1131.07 303.74 C 1134.99 306.52 1139.89 304.87 1144.32 305.03 C 1143.92 303.65 1143.55 302.29 1143.25 300.91 C 1144.66 302.47 1145.48 304.43 1146.29 306.36 C 1150.98 306.90 1154.98 304.11 1158.80 301.85 C 1158.10 306.20 1157.10 311.33 1153.08 313.85 C 1148.53 314.42 1144.02 315.46 1139.43 315.45 C 1139.19 318.50 1135.89 316.53 1133.99 316.75 C 1131.90 316.14 1130.07 317.61 1130.00 319.74 C 1128.35 319.16 1126.74 318.57 1125.13 317.96 C 1123.54 321.66 1119.06 321.17 1116.17 323.17 C 1112.00 325.91 1107.03 327.35 1102.03 327.10 C 1099.67 326.87 1097.72 328.33 1095.70 329.25 C 1096.26 330.04 1096.83 330.83 1097.43 331.62 C 1102.76 328.15 1109.28 330.93 1115.10 329.75 C 1116.72 328.78 1118.04 327.22 1119.99 326.84 C 1124.30 326.05 1128.96 327.45 1133.00 325.20 C 1132.65 326.84 1132.33 328.48 1132.03 330.14 C 1129.66 330.01 1127.30 329.61 1124.94 329.88 C 1122.63 330.43 1120.62 331.74 1118.49 332.72 C 1118.58 334.13 1118.68 335.54 1118.80 336.96 C 1113.51 337.14 1108.15 337.46 1103.11 339.23 C 1098.43 340.82 1093.48 339.69 1088.70 339.51 C 1088.41 340.84 1088.14 342.17 1087.87 343.51 C 1085.94 342.56 1084.08 341.46 1082.06 340.73 C 1073.00 340.60 1063.93 341.25 1054.87 340.79 C 1051.24 340.60 1047.59 340.30 1044.00 340.88 C 1042.29 340.75 1041.94 342.72 1041.06 343.72 C 1038.11 341.62 1034.44 342.24 1031.20 341.06 C 1035.48 341.06 1037.91 336.80 1042.02 336.13 C 1041.03 334.86 1039.97 333.65 1038.59 332.84 C 1037.10 334.26 1035.63 335.70 1033.94 336.87 C 1031.65 333.95 1027.22 335.89 1024.10 334.50 C 1024.50 334.99 1025.29 335.98 1025.69 336.47 C 1019.60 336.00 1013.57 337.15 1007.66 338.46 C 1006.61 337.56 1005.71 336.22 1004.19 336.20 C 998.00 335.03 990.42 335.67 986.25 329.99 C 986.69 331.95 986.99 333.92 987.27 335.92 C 981.29 328.72 973.55 323.36 966.80 316.98 C 966.82 316.46 966.86 315.44 966.88 314.92 C 973.39 312.30 980.40 310.90 986.58 307.47 C 988.35 305.36 984.67 303.85 983.54 302.42 C 977.23 295.16 967.80 291.29 962.29 283.28 C 968.83 283.86 975.14 286.01 981.75 286.11 C 980.59 287.36 979.45 288.62 978.33 289.91 C 984.03 290.03 987.80 285.12 992.82 283.27 C 994.28 284.58 995.99 285.59 998.03 285.46 L 998.12 287.26 C 1000.55 286.33 1003.12 285.59 1005.26 284.03 C 1003.34 284.29 1001.48 284.84 999.65 285.39 C 998.41 284.11 997.19 282.79 996.02 281.46 C 1002.20 280.61 1007.50 277.18 1013.44 275.60 C 1014.71 272.92 1016.86 270.77 1019.47 269.37 M 1031.12 267.76 C 1031.48 267.71 1032.20 267.60 1032.56 267.55 C 1034.04 265.43 1036.01 263.58 1036.95 261.13 C 1033.95 262.21 1032.39 265.04 1031.12 267.76 M 1096.80 306.80 C 1094.57 305.96 1090.63 306.96 1091.49 309.99 C 1091.81 313.45 1095.18 309.71 1096.98 310.94 C 1098.99 312.38 1101.32 314.50 1103.95 312.95 C 1107.18 310.99 1110.97 312.53 1114.41 311.57 C 1118.69 309.29 1123.74 311.27 1128.18 309.40 C 1122.67 307.47 1116.49 308.01 1110.89 306.15 C 1106.31 304.52 1101.09 304.27 1096.80 306.80 Z" />
<path fill="#ffffff" opacity="1.00" d=" M 1117.35 246.06 C 1118.48 246.01 1119.62 245.97 1120.78 245.93 C 1120.82 246.73 1120.89 248.33 1120.93 249.12 C 1119.80 249.18 1118.67 249.23 1117.57 249.29 C 1117.49 248.21 1117.41 247.14 1117.35 246.06 Z" />
<path fill="#ffffff" opacity="1.00" d=" M 963.87 289.46 C 969.97 295.87 977.60 300.45 984.28 306.18 C 977.60 308.22 971.11 310.95 964.22 312.24 C 964.68 304.64 963.98 297.05 963.87 289.46 Z" />
<path fill="#ffffff" opacity="1.00" d=" M 865.09 293.42 C 866.54 293.80 867.97 294.22 869.43 294.66 C 872.64 297.74 877.29 298.80 880.28 302.15 C 874.56 300.73 868.87 298.09 865.09 293.42 Z" />
<path fill="#ffffff" opacity="1.00" d=" M 782.33 302.54 C 783.39 301.88 785.34 302.47 785.48 303.84 C 784.90 305.55 781.19 304.24 782.33 302.54 Z" />
<path fill="#ffffff" opacity="1.00" d=" M 963.79 319.16 C 968.67 324.04 973.99 328.53 980.02 331.95 C 981.53 332.66 982.18 334.27 983.02 335.61 C 979.84 333.28 976.10 332.01 972.32 331.07 C 972.19 331.87 971.93 333.47 971.80 334.26 C 968.46 334.51 965.20 335.90 963.40 338.85 C 963.34 332.28 963.44 325.72 963.79 319.16 Z" />
<path fill="#ffffff" opacity="1.00" d=" M 1120.57 335.75 C 1124.54 332.22 1131.07 331.96 1135.13 335.49 C 1130.34 336.46 1125.39 336.64 1120.57 335.75 Z" />
<path fill="#ffffff" opacity="1.00" d=" M 1381.17 385.12 C 1383.22 381.97 1386.31 379.74 1389.17 377.37 C 1392.50 380.20 1395.38 383.50 1398.43 386.62 C 1395.49 389.86 1392.48 393.06 1389.34 396.12 C 1386.57 393.40 1383.29 391.28 1380.54 388.57 C 1379.43 387.61 1380.72 386.10 1381.17 385.12 Z" />
<path fill="#ffffff" opacity="1.00" d=" M 1401.07 387.05 C 1403.18 383.10 1406.41 379.84 1409.94 377.13 C 1413.42 379.93 1415.81 383.77 1418.62 387.19 C 1415.88 390.14 1413.04 393.01 1410.42 396.06 C 1407.05 393.37 1403.48 390.62 1401.07 387.05 Z" />
<path fill="#ffffff" opacity="1.00" d=" M 704.51 401.73 C 718.71 399.23 732.97 403.46 746.05 408.71 C 742.63 411.83 739.25 415.01 735.92 418.23 C 724.40 414.52 711.46 412.10 699.86 416.84 C 684.71 422.48 674.62 440.43 679.72 456.17 C 682.29 466.17 689.92 474.51 699.46 478.35 C 709.62 483.25 721.44 481.65 731.82 478.32 C 732.00 470.22 731.80 462.10 730.97 454.03 C 725.73 454.02 720.48 453.57 715.36 452.42 C 718.97 448.67 722.80 445.14 726.38 441.37 C 732.24 441.14 738.11 441.36 743.97 441.13 C 744.02 456.47 744.21 471.82 743.86 487.16 C 730.65 492.02 716.21 495.38 702.18 492.32 C 685.94 489.34 671.35 477.09 666.92 460.99 C 663.76 451.67 665.03 441.58 667.20 432.20 C 672.93 416.27 688.02 404.65 704.51 401.73 Z" />
<path fill="#ffffff" opacity="1.00" d=" M 910.68 412.87 C 914.94 408.91 918.39 403.90 923.43 400.88 C 923.66 431.43 923.65 461.98 923.44 492.53 C 918.45 492.63 913.42 493.09 908.48 492.36 C 906.36 490.82 904.96 488.53 903.43 486.46 C 894.29 473.32 885.01 460.28 875.71 447.26 C 870.09 439.59 865.69 430.95 858.76 424.32 C 858.06 430.18 857.79 436.09 857.98 441.99 C 858.72 455.40 858.42 468.85 858.42 482.28 C 854.37 486.15 850.14 489.82 846.20 493.79 C 845.77 463.04 845.89 432.28 846.11 401.52 C 850.06 401.58 854.01 401.57 857.96 401.54 C 875.82 425.69 892.51 450.67 910.52 474.72 C 910.73 454.10 910.46 433.48 910.68 412.87 Z" />
<path fill="#ffffff" opacity="1.00" d=" M 340.55 401.48 C 350.38 401.60 360.21 401.54 370.04 401.57 C 378.42 401.67 387.38 404.49 392.70 411.33 C 397.13 416.43 398.50 423.43 398.32 430.03 C 398.33 436.36 394.74 441.86 391.75 447.19 C 387.84 448.68 383.95 450.22 380.00 451.61 C 375.30 452.91 370.40 453.29 365.61 454.15 C 372.94 462.58 381.56 469.74 389.25 477.82 C 393.69 482.72 398.79 487.00 403.36 491.75 C 403.39 497.46 403.26 503.18 403.06 508.89 C 389.76 496.19 376.57 483.37 363.81 470.13 C 360.38 466.61 356.98 463.05 353.20 459.90 C 352.56 467.24 352.58 474.60 353.45 481.92 C 349.78 486.90 345.12 490.99 340.49 495.04 C 340.54 488.62 338.32 482.19 340.26 475.88 C 341.18 466.92 340.96 457.86 340.56 448.88 C 340.76 445.37 336.30 444.32 335.80 441.13 C 334.68 435.89 335.10 430.49 335.25 425.19 C 336.97 426.30 338.75 427.32 340.60 428.21 C 340.40 419.30 340.63 410.38 340.55 401.48 M 353.76 414.58 C 353.62 418.27 353.34 421.96 353.07 425.65 C 359.33 425.51 365.59 425.46 371.85 425.70 C 372.18 425.87 372.82 426.21 373.14 426.38 C 366.56 426.51 359.98 426.35 353.40 426.50 C 353.42 431.50 353.24 436.50 353.11 441.49 C 360.75 441.08 368.53 441.97 376.08 440.49 C 385.03 437.49 386.13 424.21 380.07 418.00 C 372.54 412.21 362.50 414.78 353.76 414.58 Z" />
<path fill="#ffffff" opacity="1.00" d=" M 526.79 404.83 C 527.28 403.69 527.68 402.33 528.89 401.74 C 532.53 401.28 536.20 401.56 539.86 401.72 C 547.42 421.30 555.66 440.63 563.61 460.06 C 567.97 470.88 572.70 481.58 576.03 492.78 C 571.61 492.61 567.19 492.66 562.78 492.40 C 555.08 472.55 546.88 452.89 539.39 432.96 C 537.80 428.68 535.97 424.49 534.26 420.27 C 529.94 427.66 527.31 435.88 524.89 444.05 C 518.33 460.25 511.91 476.49 505.35 492.69 C 500.39 492.68 495.42 492.78 490.49 493.38 C 502.75 463.93 514.70 434.35 526.79 404.83 Z" />
<path fill="#ffffff" opacity="1.00" d=" M 1026.94 470.05 C 1036.46 447.21 1045.62 424.21 1055.31 401.45 C 1058.87 401.63 1062.45 401.56 1066.03 401.55 C 1078.69 430.62 1090.00 460.25 1102.45 489.40 C 1103.51 491.79 1102.56 494.46 1102.41 496.97 C 1102.40 495.60 1102.41 494.24 1102.46 492.88 C 1098.45 492.80 1094.45 492.80 1090.46 492.56 C 1079.95 470.07 1072.21 446.42 1062.52 423.59 C 1061.84 422.79 1061.72 420.70 1060.35 421.07 C 1058.05 424.82 1056.63 429.02 1055.09 433.13 C 1050.32 445.66 1045.28 458.08 1040.31 470.53 C 1037.46 477.85 1033.85 485.00 1032.81 492.88 C 1027.80 493.00 1022.35 491.70 1017.69 493.99 C 1020.07 485.76 1023.85 478.02 1026.94 470.05 Z" />
<path fill="#ffffff" opacity="1.00" d=" M 1198.68 401.56 C 1208.13 401.56 1217.58 401.56 1227.04 401.55 C 1233.68 401.50 1240.49 403.03 1246.05 406.79 C 1251.54 410.44 1254.87 416.67 1256.10 423.02 C 1256.63 427.66 1256.51 432.39 1256.02 437.04 C 1253.81 442.54 1249.24 446.87 1244.00 449.51 C 1237.89 452.67 1231.00 453.86 1224.22 454.45 C 1231.21 462.24 1238.98 469.27 1246.23 476.80 C 1251.09 481.92 1256.24 486.74 1261.39 491.56 C 1261.71 497.07 1261.64 502.60 1261.40 508.11 C 1243.72 493.00 1228.62 475.10 1211.27 459.62 C 1210.22 467.39 1211.91 475.15 1211.37 482.93 C 1207.22 486.17 1203.25 489.63 1199.28 493.08 C 1199.34 479.05 1199.35 465.03 1199.04 451.01 C 1199.12 446.99 1196.03 444.05 1193.72 441.13 C 1193.75 436.12 1193.46 431.08 1194.11 426.10 C 1196.20 425.63 1197.27 427.71 1198.60 428.89 C 1198.48 419.78 1198.82 410.67 1198.68 401.56 M 1211.70 414.49 C 1211.74 423.38 1209.90 432.25 1211.03 441.13 C 1214.99 441.66 1219.01 441.26 1223.00 441.47 C 1228.08 441.51 1233.78 441.38 1237.87 437.93 C 1239.28 436.83 1239.92 434.70 1241.86 434.37 C 1242.80 428.16 1242.55 420.06 1236.52 416.45 C 1228.73 412.83 1219.94 414.92 1211.70 414.49 Z" />
<path fill="#ffffff" opacity="1.00" d=" M 1386.52 402.63 C 1396.20 400.37 1406.33 401.39 1415.91 403.66 C 1432.35 408.65 1446.62 423.35 1447.73 441.00 C 1448.94 453.64 1446.62 467.33 1438.30 477.31 C 1425.75 491.91 1404.45 496.92 1386.14 492.35 C 1375.77 490.05 1366.88 483.82 1359.21 476.73 C 1348.30 461.35 1346.95 439.30 1357.05 423.17 C 1363.33 412.53 1374.60 405.34 1386.52 402.63 M 1393.51 414.68 C 1388.17 415.54 1382.96 417.44 1378.48 420.50 C 1365.14 429.33 1360.07 448.82 1367.88 462.87 C 1370.46 468.95 1375.32 473.83 1381.23 476.73 C 1393.92 483.24 1410.37 482.39 1421.91 473.83 C 1427.47 469.80 1431.40 463.64 1433.00 457.01 C 1433.03 453.55 1434.95 450.44 1434.69 446.97 C 1434.47 436.58 1429.40 426.07 1420.61 420.29 C 1412.75 414.98 1402.81 413.21 1393.51 414.68 Z" />
<path fill="#ffffff" opacity="1.00" d=" M 1547.60 403.97 C 1547.27 402.09 1549.59 401.45 1551.03 401.31 C 1554.17 401.22 1557.29 401.82 1560.45 401.75 C 1560.87 407.84 1560.04 413.92 1559.94 420.01 C 1559.71 428.30 1560.14 436.59 1560.39 444.87 C 1573.72 431.08 1587.10 417.31 1600.69 403.76 C 1601.69 402.92 1602.55 401.53 1604.08 401.68 C 1609.32 401.25 1614.60 401.66 1619.87 401.57 C 1606.44 417.19 1590.70 430.67 1577.60 446.58 C 1583.57 454.18 1591.11 460.27 1597.63 467.36 C 1605.66 475.74 1613.53 484.27 1622.08 492.14 C 1616.33 492.50 1610.44 493.07 1604.74 492.38 C 1593.53 481.55 1582.93 470.09 1572.00 458.97 C 1568.35 454.96 1564.53 451.11 1560.21 447.82 C 1560.28 459.53 1558.46 471.30 1560.29 482.97 C 1555.61 486.28 1551.73 490.53 1547.32 494.17 C 1547.66 464.10 1547.11 434.04 1547.60 403.97 Z" />
<path fill="#ffffff" opacity="1.00" d=" M 1390.97 446.39 C 1393.95 444.09 1396.64 441.45 1399.22 438.71 C 1402.35 441.59 1405.64 444.37 1408.31 447.71 C 1405.40 450.31 1402.58 453.00 1399.78 455.71 C 1396.92 452.55 1391.57 451.08 1390.97 446.39 Z" />
</g>
</svg>
