<?xml version="1.0" encoding="UTF-8" ?>
<!DOCTYPE svg PUBLIC "-//W3C//DTD SVG 1.1//EN" "http://www.w3.org/Graphics/SVG/1.1/DTD/svg11.dtd">
<svg width="1740pt" height="602pt" viewBox="0 0 1740 602" version="1.1" xmlns="http://www.w3.org/2000/svg">
<g id="#ffffffff">
<path fill="#ffffff" opacity="1.00" d=" M 206.47 12.08 C 206.80 8.72 207.21 5.35 207.93 2.04 C 208.58 3.78 209.20 5.54 209.90 7.27 C 211.62 6.12 211.91 4.05 212.51 2.24 C 214.84 4.18 215.58 7.13 216.10 9.99 C 216.17 7.40 216.30 4.80 216.59 2.23 L 217.92 3.00 C 219.45 7.26 218.84 11.90 219.59 16.31 C 222.62 14.10 222.90 10.00 225.48 7.45 C 225.99 8.06 227.02 9.27 227.54 9.88 C 228.22 8.61 228.35 7.12 228.73 5.74 C 227.58 19.11 228.50 32.57 228.10 45.97 C 227.24 64.49 230.21 83.03 228.28 101.52 C 227.82 103.93 225.77 105.70 225.46 108.18 C 224.85 106.29 223.65 104.74 222.11 103.51 C 222.54 105.82 223.13 108.10 223.69 110.39 C 221.73 108.92 219.92 107.26 218.06 105.68 C 219.42 105.16 220.78 104.65 222.16 104.17 C 221.39 102.65 220.05 101.71 218.55 101.03 C 218.17 102.29 217.81 103.55 217.42 104.81 C 216.10 103.60 214.69 102.51 213.34 101.36 C 213.80 100.98 214.71 100.24 215.17 99.86 C 213.62 100.30 212.08 100.72 210.53 101.15 C 211.79 102.99 213.31 104.67 215.52 105.33 C 218.25 106.24 219.48 108.98 220.17 111.54 C 218.53 112.36 216.91 113.19 215.29 114.03 C 214.65 112.70 214.01 111.39 213.30 110.10 C 211.26 112.50 213.80 114.45 215.34 116.24 C 217.27 115.11 219.06 113.46 221.42 113.37 C 222.74 110.90 225.86 110.55 228.15 109.37 C 227.60 111.67 227.02 113.96 226.45 116.25 C 227.37 115.32 228.28 114.39 229.19 113.45 C 229.34 148.82 228.95 184.20 229.45 219.58 C 233.30 219.33 237.15 218.98 241.01 219.03 C 242.66 218.72 242.97 220.80 243.81 221.74 C 248.36 220.57 253.14 218.82 257.85 220.22 C 262.38 221.36 267.50 222.07 271.57 219.18 C 272.00 220.34 272.44 221.50 272.88 222.67 C 273.66 221.34 274.46 220.03 275.32 218.76 C 275.64 219.53 276.26 221.08 276.57 221.86 C 276.72 220.63 276.87 219.39 277.03 218.17 C 278.28 218.74 279.53 219.32 280.79 219.88 C 284.90 219.17 288.95 220.32 292.76 221.75 C 293.10 224.27 293.67 226.76 294.39 229.20 C 292.92 229.52 291.47 229.84 290.01 230.17 C 291.32 230.94 292.64 231.71 293.96 232.48 C 291.69 234.45 289.30 236.31 286.57 237.58 C 288.86 238.81 290.09 241.12 291.23 243.34 C 288.22 242.45 284.95 241.61 282.00 243.16 C 279.21 241.50 275.93 241.97 272.85 241.87 C 272.53 242.46 271.90 243.63 271.59 244.22 C 270.56 243.86 269.54 243.50 268.53 243.13 C 268.04 243.70 267.56 244.27 267.08 244.85 L 265.93 242.91 C 266.42 244.63 266.92 246.34 267.39 248.08 C 263.39 245.70 259.28 243.53 254.52 243.27 C 254.06 244.23 253.60 245.20 253.15 246.17 C 254.71 245.64 256.18 244.50 257.88 244.61 C 259.40 245.61 260.76 246.84 262.14 248.02 C 260.37 248.18 258.60 248.33 256.83 248.47 C 259.73 248.93 262.62 249.54 265.37 250.61 C 260.58 250.91 255.77 250.75 250.98 250.88 C 250.55 250.00 250.13 249.13 249.71 248.26 C 246.25 248.24 242.80 248.30 239.34 248.32 C 239.44 249.16 239.65 250.82 239.75 251.66 C 235.55 251.95 231.34 252.23 227.14 252.48 C 227.44 258.66 228.00 264.85 227.73 271.04 C 227.32 281.74 228.22 292.51 226.77 303.16 C 226.40 305.66 227.38 308.07 227.74 310.51 C 229.67 321.25 228.04 332.19 229.00 343.00 C 228.53 353.32 229.02 363.65 228.92 373.98 C 228.97 382.66 227.27 391.27 227.82 399.97 C 228.21 406.45 228.85 413.35 225.50 419.24 C 227.20 420.33 228.86 421.69 228.89 423.89 L 226.52 421.94 C 226.25 423.61 224.92 425.66 228.36 426.09 L 229.68 424.65 C 227.09 428.98 228.65 434.17 228.48 438.94 C 228.29 442.73 229.69 446.97 227.31 450.33 C 227.61 453.95 227.70 457.59 227.88 461.22 C 226.80 460.00 225.87 458.56 224.31 457.93 C 224.99 459.50 226.04 460.86 227.29 462.02 C 227.19 463.63 227.32 465.31 226.80 466.88 C 226.02 468.37 224.39 469.49 224.59 471.38 C 225.46 471.29 227.19 471.11 228.06 471.02 C 227.36 472.31 226.66 473.60 225.97 474.90 C 221.55 476.22 215.96 475.83 212.84 479.76 C 210.64 482.44 206.98 480.33 204.13 480.38 C 204.21 479.86 204.36 478.83 204.44 478.31 C 205.68 477.09 206.91 475.88 208.13 474.66 C 207.19 474.64 205.30 474.62 204.35 474.60 C 204.31 472.52 204.50 470.33 203.31 468.51 C 203.20 470.79 203.31 473.08 203.43 475.37 C 202.32 474.93 201.20 474.49 200.09 474.05 C 199.98 474.73 199.77 476.08 199.66 476.76 C 198.19 476.39 196.73 476.02 195.26 475.67 C 194.60 470.42 193.05 465.29 192.99 459.97 C 193.23 450.61 192.04 441.30 191.99 431.95 C 191.20 415.32 192.36 398.65 191.25 382.03 C 191.16 379.80 191.15 377.42 192.63 375.60 C 191.87 374.55 190.89 373.49 191.02 372.09 C 190.79 367.98 190.80 363.84 191.25 359.75 C 192.63 359.32 193.82 360.07 194.97 360.73 C 194.65 358.57 194.41 356.40 194.24 354.23 C 193.60 355.30 192.94 356.35 192.27 357.41 C 191.51 354.88 190.98 352.29 190.53 349.69 C 192.05 349.19 193.56 348.72 195.09 348.25 C 194.09 348.41 192.10 348.74 191.10 348.90 C 191.02 335.59 190.83 322.27 191.61 308.97 C 192.04 305.25 193.48 301.70 193.50 297.93 C 194.08 286.43 193.89 274.87 192.85 263.40 C 189.75 266.15 191.58 270.46 191.15 274.01 C 190.59 269.63 188.99 264.62 192.41 261.00 C 191.99 259.64 191.57 258.28 191.16 256.92 C 191.74 255.18 192.23 253.41 192.69 251.63 C 190.65 250.55 188.43 249.87 186.10 249.98 C 175.02 248.89 164.00 251.65 152.91 250.84 C 140.23 250.03 127.60 252.99 114.92 251.70 C 108.81 251.07 102.66 251.47 96.61 252.46 C 96.53 251.94 96.36 250.89 96.27 250.36 C 90.99 252.10 85.54 253.35 79.98 253.66 C 79.18 251.86 78.38 250.06 77.65 248.24 C 77.29 250.37 75.33 249.80 73.77 249.72 C 73.74 251.44 73.71 253.17 73.68 254.91 C 74.87 253.33 76.03 251.74 77.20 250.15 C 77.85 251.42 78.50 252.69 79.16 253.96 C 77.88 254.35 76.60 254.75 75.32 255.16 C 74.62 256.19 73.91 257.22 73.20 258.25 C 71.60 255.44 69.98 252.64 68.28 249.89 C 69.54 247.71 70.71 245.49 71.85 243.25 C 72.41 243.90 73.53 245.19 74.09 245.84 C 75.79 245.67 77.48 245.47 79.15 245.12 C 76.64 244.55 74.32 243.44 72.19 242.02 C 66.34 247.23 62.03 253.85 56.75 259.59 C 55.31 261.25 57.52 262.37 58.86 262.91 C 59.50 260.84 59.86 258.70 60.13 256.55 C 61.27 256.25 62.41 255.95 63.55 255.65 C 65.15 253.93 66.83 250.76 69.49 252.85 C 66.40 257.32 62.48 261.12 59.04 265.31 C 59.96 265.72 61.82 266.54 62.74 266.95 C 64.65 264.63 66.56 261.99 65.98 258.79 C 67.79 259.03 69.61 259.28 71.42 259.53 C 65.98 265.26 59.52 270.23 52.06 273.01 C 52.94 273.95 53.81 274.91 54.69 275.87 C 53.08 275.52 51.48 275.17 49.87 274.82 C 49.86 274.27 49.84 273.17 49.82 272.62 C 48.73 272.59 47.63 272.56 46.53 272.54 C 45.88 274.39 45.23 276.23 44.58 278.08 C 46.08 277.10 47.58 276.11 49.10 275.16 C 47.46 280.04 44.20 284.08 40.99 288.01 C 38.45 291.06 36.04 294.45 32.33 296.19 C 33.30 293.25 34.87 290.57 36.02 287.71 C 33.56 291.96 30.92 296.24 29.53 300.99 C 29.69 301.86 30.03 303.59 30.20 304.45 C 31.50 303.09 32.41 301.43 33.28 299.77 C 34.03 300.31 34.79 300.84 35.54 301.38 C 37.07 309.57 34.61 317.78 35.45 325.98 C 35.70 330.48 35.48 334.98 35.41 339.48 C 34.85 339.10 33.73 338.33 33.16 337.94 C 31.70 339.48 29.91 340.59 27.81 341.01 C 27.38 342.06 26.96 343.13 26.54 344.19 C 26.55 342.38 26.55 340.56 26.54 338.75 C 23.50 339.29 20.60 340.45 17.95 342.02 C 16.41 342.65 16.94 344.62 16.56 345.91 C 15.65 344.29 14.69 342.69 13.75 341.09 C 11.51 342.76 9.27 344.44 7.31 346.43 C 5.80 343.12 4.05 339.84 3.76 336.14 C 2.89 336.61 2.03 337.07 1.17 337.55 C 1.11 335.73 1.05 333.91 0.99 332.10 C 1.58 332.62 2.77 333.66 3.36 334.18 C 2.06 326.19 1.39 318.10 1.49 310.00 C 1.48 305.97 1.98 301.92 1.51 297.90 C 0.14 284.66 0.00 271.32 0.74 258.04 C 0.94 254.88 0.32 251.75 0.00 248.62 L 0.00 243.13 C -0.27 239.78 2.18 237.26 3.77 234.57 C 2.66 234.77 1.55 234.98 0.44 235.18 C -0.42 226.77 1.48 218.43 0.86 210.02 C 2.55 202.70 -0.26 195.04 2.49 187.86 C 2.06 187.43 1.21 186.56 0.78 186.13 C 0.98 176.26 0.18 166.32 1.72 156.51 C 2.47 153.45 -0.17 149.82 2.65 147.38 C 2.20 147.32 1.29 147.20 0.84 147.15 C 1.27 141.35 2.58 135.66 4.07 130.05 C 4.61 130.02 5.70 129.95 6.24 129.92 C 5.66 130.31 4.49 131.09 3.91 131.48 C 5.30 132.66 6.60 133.96 8.12 134.99 C 10.27 135.32 12.46 134.92 14.62 134.81 C 14.37 133.77 14.12 132.73 13.86 131.69 C 13.54 132.31 12.90 133.54 12.57 134.16 C 10.62 132.31 8.50 130.42 8.36 127.53 C 10.31 129.25 12.52 127.90 14.48 127.04 C 16.04 127.97 17.68 128.73 19.54 128.66 C 19.19 129.09 18.48 129.93 18.13 130.36 C 20.31 131.51 24.18 132.08 22.33 135.57 C 24.63 133.62 26.62 131.36 28.45 128.98 C 28.98 130.68 29.53 132.38 30.09 134.08 C 30.56 133.05 31.03 132.02 31.50 130.99 C 33.28 132.96 35.43 134.53 37.39 136.30 C 39.87 147.33 38.76 158.93 36.39 169.89 C 35.67 173.81 36.38 177.84 37.98 181.45 C 35.54 185.30 30.64 186.03 27.71 189.33 C 31.37 188.88 34.87 187.68 38.30 186.35 C 37.88 196.90 37.91 207.46 37.77 218.01 C 37.97 221.42 35.96 224.57 36.56 228.00 C 37.67 235.54 36.44 243.13 36.24 250.69 C 40.07 246.70 43.57 242.38 47.79 238.79 C 52.49 234.77 56.01 229.64 60.05 225.02 C 64.04 219.43 71.99 218.74 78.22 220.01 C 81.34 218.91 84.70 217.54 88.05 218.40 C 92.94 219.69 98.02 219.04 103.01 219.46 C 109.06 219.91 115.03 218.60 121.06 218.43 C 126.38 218.16 131.67 218.83 136.98 218.81 C 149.81 218.47 162.76 217.28 175.49 219.43 C 176.24 218.96 176.99 218.49 177.74 218.02 C 179.26 218.87 180.78 219.71 182.30 220.55 C 182.32 219.96 182.37 218.77 182.39 218.18 C 183.46 218.22 184.52 218.27 185.59 218.32 C 186.39 219.23 187.20 220.13 188.00 221.05 C 188.94 219.10 190.88 217.36 190.52 215.03 C 190.07 207.02 189.53 198.97 190.21 190.95 C 190.22 186.31 191.03 181.67 190.65 177.03 C 189.59 168.22 191.31 159.32 189.88 150.52 C 192.34 152.35 194.30 155.17 197.60 155.49 C 197.65 157.19 197.64 158.93 198.28 160.54 C 198.14 158.75 198.09 156.95 198.23 155.16 C 197.34 154.29 196.46 153.42 195.57 152.56 C 196.24 152.60 197.57 152.68 198.23 152.71 C 198.26 150.49 198.31 148.26 198.39 146.04 C 197.90 146.04 196.93 146.04 196.44 146.04 C 195.78 148.14 194.95 150.19 193.87 152.12 C 191.36 150.54 192.02 147.49 191.84 145.00 C 191.16 145.03 189.79 145.08 189.11 145.11 C 189.65 142.15 190.37 139.23 191.34 136.38 C 192.51 136.38 193.69 136.37 194.86 136.36 C 195.51 134.42 196.15 132.47 196.80 130.53 C 195.44 130.18 194.08 129.84 192.73 129.49 C 192.33 131.04 191.95 132.60 191.58 134.16 C 191.21 132.32 191.40 129.72 188.73 130.23 C 188.44 104.83 187.46 79.43 188.00 54.02 C 187.90 45.04 187.12 35.93 189.03 27.07 C 189.97 22.94 190.00 18.67 190.81 14.52 C 191.18 12.33 193.30 11.04 193.96 8.97 C 194.73 6.70 195.25 4.35 196.23 2.16 C 197.22 3.68 198.18 5.23 199.11 6.80 C 199.71 5.37 198.71 2.26 201.07 2.49 C 203.77 4.99 204.81 8.84 206.47 12.08 M 190.17 28.47 C 188.60 29.48 190.39 32.03 191.85 30.78 C 193.26 29.77 191.55 27.43 190.17 28.47 M 192.88 58.41 C 191.75 59.05 190.61 59.69 189.48 60.33 C 189.12 61.99 189.45 63.70 191.38 64.04 C 191.93 62.17 192.48 60.31 192.88 58.41 M 198.75 98.88 C 197.10 108.39 196.77 118.40 199.49 127.75 C 198.79 127.77 197.37 127.80 196.67 127.82 C 196.82 128.54 196.97 129.26 197.12 129.98 C 198.46 129.13 199.78 128.25 201.04 127.29 C 200.84 121.49 201.37 115.65 200.39 109.90 C 199.68 106.24 201.61 101.97 198.75 98.88 M 204.06 141.17 C 203.45 141.90 203.51 144.23 204.95 143.81 C 207.56 144.44 206.17 138.93 204.06 141.17 M 3.49 292.62 C 2.89 294.45 5.52 296.28 6.21 293.83 C 6.29 291.87 4.81 292.26 3.49 292.62 M 219.56 374.56 C 217.47 375.85 219.83 379.02 221.72 377.66 C 222.53 376.15 221.30 374.18 219.56 374.56 M 220.30 386.56 C 222.40 385.70 222.58 383.17 221.64 381.39 C 219.40 381.73 220.04 384.98 220.30 386.56 M 217.01 419.12 C 217.60 421.76 218.88 424.51 217.62 427.18 C 215.36 433.29 216.57 439.83 217.80 446.01 C 218.44 453.47 217.95 460.95 218.71 468.41 C 217.98 468.32 216.52 468.13 215.79 468.04 C 216.23 468.98 216.67 469.93 217.10 470.89 C 217.63 469.87 218.44 469.28 219.52 469.12 C 220.32 463.88 219.26 458.68 218.53 453.51 C 219.92 453.71 221.23 453.35 222.45 452.44 C 222.25 447.29 222.81 442.15 222.65 437.01 L 223.86 436.31 C 224.10 437.85 224.32 439.43 224.59 440.97 C 224.72 438.28 224.49 435.59 224.64 432.90 C 225.33 431.36 226.17 429.89 226.91 428.37 C 225.66 428.33 224.40 428.29 223.15 428.27 C 222.83 426.64 221.71 424.99 222.47 423.31 L 221.36 423.43 C 221.77 421.98 222.10 420.48 222.04 418.97 C 220.36 419.01 218.68 419.06 217.01 419.12 M 223.32 421.34 C 222.39 422.41 222.40 423.22 223.36 423.78 C 224.25 423.20 224.81 422.41 225.05 421.40 C 224.61 421.38 223.75 421.36 223.32 421.34 M 224.15 444.59 C 224.96 446.71 223.70 450.96 226.81 451.26 C 226.11 448.99 226.40 446.04 224.15 444.59 M 221.28 455.82 C 219.82 456.45 220.17 459.19 221.98 458.78 C 224.11 458.57 223.30 454.90 221.28 455.82 M 221.18 465.12 C 219.80 466.44 222.12 468.66 223.36 467.29 C 224.60 465.93 222.53 463.46 221.18 465.12 Z" />
<path fill="#ffffff" opacity="1.00" d=" M 1547.03 23.11 C 1548.19 21.71 1548.06 19.63 1548.61 17.92 C 1548.78 18.81 1549.13 20.59 1549.31 21.48 C 1549.70 21.39 1550.49 21.23 1550.88 21.15 C 1550.94 22.55 1549.50 24.55 1550.93 25.57 C 1553.16 26.59 1550.76 28.05 1550.01 29.03 C 1548.96 30.67 1546.96 30.54 1545.31 30.84 C 1545.51 32.77 1547.40 34.31 1548.33 36.08 C 1549.11 32.74 1553.26 33.09 1554.15 29.96 C 1552.78 30.38 1551.44 30.84 1550.13 31.34 C 1551.40 28.86 1553.49 26.98 1555.98 25.74 C 1556.18 31.14 1556.73 36.52 1557.49 41.87 C 1558.34 47.88 1557.24 53.93 1557.66 59.95 C 1558.68 63.56 1559.36 67.26 1559.14 71.04 C 1559.64 79.30 1560.35 87.62 1559.15 95.86 C 1558.58 95.48 1557.43 94.70 1556.86 94.31 C 1557.94 95.62 1559.07 96.88 1560.26 98.13 C 1559.82 98.46 1558.94 99.11 1558.50 99.44 C 1560.03 106.67 1559.01 114.20 1560.85 121.40 C 1560.32 121.36 1559.26 121.30 1558.73 121.27 C 1558.81 126.26 1559.14 131.38 1561.42 135.92 C 1561.99 135.72 1563.12 135.33 1563.69 135.13 C 1569.29 139.56 1573.74 145.32 1579.67 149.27 C 1585.56 155.44 1592.28 160.73 1598.34 166.72 C 1605.05 172.94 1612.04 178.97 1617.50 186.37 C 1616.31 186.02 1613.94 185.31 1612.75 184.96 C 1615.97 186.76 1617.97 189.91 1620.59 192.41 C 1627.26 198.45 1631.56 206.73 1638.85 212.17 C 1642.02 214.23 1643.97 217.58 1646.94 219.88 C 1649.47 222.00 1652.31 223.73 1654.86 225.84 C 1654.68 226.43 1654.31 227.60 1654.13 228.19 C 1654.46 227.83 1655.13 227.10 1655.46 226.74 C 1669.28 240.55 1683.34 254.16 1696.17 268.91 C 1697.95 270.71 1697.67 273.42 1698.04 275.73 C 1699.88 274.31 1701.08 276.50 1701.79 277.99 C 1702.58 279.69 1702.21 281.59 1702.09 283.39 C 1701.05 282.64 1700.07 281.88 1699.09 281.12 C 1698.70 281.85 1698.34 282.59 1698.00 283.34 C 1699.61 283.43 1701.24 283.56 1702.89 283.72 C 1703.63 280.68 1703.99 277.57 1704.25 274.45 C 1703.98 274.24 1703.44 273.81 1703.17 273.59 C 1705.00 272.88 1707.40 272.37 1707.23 269.83 C 1705.63 270.95 1703.76 271.66 1701.85 270.96 C 1701.83 268.73 1701.89 266.50 1702.12 264.29 C 1702.79 264.02 1704.13 263.47 1704.80 263.20 C 1702.86 262.09 1701.06 260.75 1699.87 258.84 C 1701.49 258.57 1704.32 260.58 1705.05 258.27 C 1704.28 258.29 1702.74 258.32 1701.97 258.34 C 1701.57 255.09 1700.59 251.58 1702.62 248.63 C 1702.21 248.37 1701.39 247.85 1700.99 247.59 C 1701.37 246.69 1701.77 245.80 1702.19 244.91 C 1701.83 243.61 1701.50 242.31 1701.19 241.02 C 1702.48 239.80 1703.69 238.47 1704.77 237.03 C 1703.38 237.24 1702.03 237.47 1700.69 237.70 C 1700.73 235.43 1701.94 233.53 1704.24 233.10 C 1703.10 231.75 1702.01 230.38 1700.98 228.97 C 1701.99 228.22 1703.00 227.45 1704.07 226.70 C 1703.02 225.96 1701.95 225.22 1700.95 224.50 C 1701.90 224.01 1702.87 223.53 1703.87 223.06 C 1703.38 222.54 1702.40 221.50 1701.92 220.98 C 1702.22 217.00 1702.77 213.02 1702.27 209.03 C 1703.07 207.79 1703.81 206.56 1704.70 205.34 C 1703.80 204.88 1702.92 204.42 1702.06 203.96 C 1702.79 200.39 1702.24 196.71 1702.83 193.13 C 1703.88 186.11 1702.49 179.04 1702.96 171.99 C 1703.54 167.35 1703.26 162.45 1706.07 158.43 C 1703.01 157.13 1704.92 154.19 1706.05 152.23 C 1704.50 152.45 1702.96 152.67 1701.45 152.87 C 1701.76 151.10 1701.99 149.30 1702.56 147.58 C 1703.66 147.11 1704.89 146.72 1706.06 146.27 C 1705.72 145.35 1705.03 143.51 1704.69 142.59 C 1704.06 142.62 1702.80 142.67 1702.17 142.70 C 1702.15 142.16 1702.12 141.08 1702.10 140.54 C 1705.09 140.28 1707.95 139.32 1710.43 137.57 C 1710.52 141.62 1711.56 145.95 1710.40 149.85 C 1710.02 150.07 1709.28 150.51 1708.90 150.73 C 1709.52 150.62 1710.76 150.41 1711.38 150.31 C 1711.29 153.93 1711.13 157.56 1711.53 161.17 C 1713.33 157.49 1711.48 153.17 1713.09 149.37 C 1714.05 150.60 1715.02 151.87 1715.99 153.12 C 1715.55 151.45 1715.05 149.80 1714.58 148.15 C 1718.21 144.73 1716.27 139.21 1717.30 134.82 C 1718.45 133.92 1719.63 133.02 1720.82 132.13 C 1720.86 133.75 1720.91 135.38 1720.99 137.01 C 1720.11 136.65 1719.24 136.28 1718.40 135.92 C 1718.45 136.54 1718.55 137.79 1718.60 138.41 C 1721.42 137.27 1721.39 141.11 1721.48 142.93 C 1722.36 141.07 1723.36 139.28 1724.43 137.52 C 1723.84 137.49 1722.64 137.43 1722.04 137.40 C 1723.58 135.54 1723.40 133.24 1722.58 131.12 C 1726.21 133.17 1725.91 137.46 1726.52 141.05 C 1725.29 142.40 1725.28 144.46 1727.31 144.97 C 1727.31 142.94 1727.33 140.90 1727.38 138.88 C 1728.14 138.92 1729.66 139.00 1730.43 139.05 C 1729.92 138.60 1728.91 137.72 1728.41 137.27 C 1729.54 135.64 1730.65 133.99 1731.78 132.34 C 1732.25 134.72 1732.71 137.10 1733.23 139.48 C 1734.37 139.61 1735.54 139.75 1736.73 139.89 C 1735.75 138.96 1734.78 138.02 1733.86 137.08 C 1734.88 134.31 1735.77 131.50 1736.70 128.70 C 1738.53 132.82 1740.21 137.27 1739.52 141.88 C 1738.98 146.02 1737.37 149.91 1736.03 153.84 C 1736.90 154.35 1737.79 154.87 1738.71 155.38 C 1739.14 157.87 1739.29 160.43 1738.13 162.76 L 1739.96 162.73 C 1738.27 173.12 1737.66 183.74 1739.16 194.18 C 1737.94 196.60 1738.96 199.40 1738.80 201.98 C 1739.36 206.72 1737.00 211.29 1738.08 216.01 C 1738.91 220.05 1737.31 223.97 1737.07 227.97 C 1736.64 234.00 1737.29 240.04 1736.77 246.06 C 1736.33 251.70 1737.72 257.29 1737.31 262.93 C 1737.20 264.94 1736.39 266.97 1737.06 268.97 C 1738.34 274.22 1737.67 279.72 1738.96 284.97 C 1738.15 285.82 1737.34 286.67 1736.57 287.52 C 1737.13 288.62 1737.71 289.73 1738.30 290.83 C 1737.85 291.33 1736.95 292.32 1736.50 292.81 C 1738.24 305.58 1736.01 318.38 1734.83 331.08 C 1734.61 332.70 1735.41 334.21 1735.81 335.75 C 1735.03 336.50 1734.27 337.24 1733.53 337.99 C 1734.07 340.05 1734.67 342.12 1735.26 344.18 C 1733.97 345.34 1732.79 346.60 1731.72 347.95 C 1728.32 346.34 1725.20 344.13 1722.81 341.22 C 1721.20 339.07 1718.34 338.79 1716.05 337.81 C 1716.19 337.32 1716.48 336.34 1716.63 335.85 C 1713.14 337.15 1709.78 335.07 1707.71 332.40 C 1706.13 330.12 1703.27 329.45 1701.50 327.41 C 1695.51 320.53 1688.13 314.67 1683.70 306.57 C 1683.52 302.71 1680.86 299.91 1678.32 297.31 C 1677.30 297.83 1676.30 298.35 1675.32 298.87 C 1675.84 297.92 1676.38 296.97 1676.94 296.03 C 1673.59 292.73 1671.23 288.27 1666.93 286.08 C 1661.48 278.70 1655.80 271.30 1649.14 264.89 C 1643.72 259.18 1637.51 254.32 1632.06 248.64 C 1632.38 247.74 1632.72 246.85 1633.07 245.95 C 1632.17 245.20 1631.29 244.44 1630.43 243.68 C 1630.96 245.42 1630.46 246.45 1628.93 246.79 C 1626.19 244.27 1624.55 240.64 1621.21 238.77 C 1619.60 237.90 1618.57 236.39 1617.67 234.88 C 1616.40 234.77 1615.14 234.67 1613.91 234.58 C 1614.38 234.36 1615.34 233.91 1615.81 233.69 C 1614.06 232.06 1612.26 230.47 1610.53 228.85 C 1610.59 229.95 1610.71 232.13 1610.77 233.22 C 1608.99 229.36 1608.68 224.58 1605.25 221.71 C 1600.84 217.13 1596.61 212.39 1592.35 207.67 C 1589.29 204.30 1585.13 201.91 1582.88 197.85 C 1586.94 200.09 1589.50 204.11 1593.12 206.91 C 1597.76 210.43 1601.45 215.01 1605.91 218.74 C 1600.98 211.59 1594.70 205.54 1588.63 199.38 C 1581.46 191.80 1573.24 185.37 1565.62 178.27 C 1564.66 178.83 1563.73 179.40 1562.83 179.96 C 1562.98 178.57 1562.44 175.89 1560.68 177.58 C 1558.06 179.96 1558.43 183.98 1559.02 187.14 C 1559.52 187.21 1560.51 187.36 1561.01 187.44 C 1560.61 187.74 1559.80 188.36 1559.40 188.66 C 1559.74 196.86 1559.99 205.06 1559.72 213.26 C 1560.63 213.88 1561.56 214.50 1562.52 215.12 C 1561.50 216.44 1560.50 217.78 1559.52 219.11 C 1560.41 219.90 1561.33 220.69 1562.28 221.46 C 1561.50 222.51 1560.62 223.67 1561.08 225.08 C 1561.50 228.62 1560.05 232.02 1559.41 235.45 C 1559.79 235.67 1560.56 236.13 1560.95 236.36 C 1560.66 236.66 1560.07 237.25 1559.78 237.55 C 1560.55 240.70 1561.17 243.87 1561.51 247.10 C 1560.83 246.46 1559.48 245.17 1558.80 244.53 C 1557.68 245.57 1556.61 246.64 1555.57 247.74 C 1555.30 247.46 1554.77 246.92 1554.50 246.64 C 1545.73 248.73 1536.67 247.95 1527.77 247.76 C 1527.37 248.01 1526.57 248.51 1526.17 248.76 C 1524.94 246.97 1522.77 247.51 1521.00 247.42 C 1512.68 247.47 1504.28 248.57 1496.03 247.05 C 1487.95 246.01 1479.13 250.92 1471.57 246.63 C 1472.45 245.15 1473.32 243.64 1474.16 242.12 C 1473.15 242.15 1471.14 242.20 1470.13 242.23 C 1470.77 240.45 1470.80 238.09 1472.92 237.38 C 1472.41 236.43 1471.88 235.49 1471.40 234.56 C 1468.27 236.13 1467.64 231.78 1466.00 230.04 C 1466.82 229.95 1468.45 229.79 1469.27 229.70 C 1468.70 229.43 1467.55 228.90 1466.97 228.63 C 1467.19 227.92 1467.61 226.49 1467.82 225.78 C 1465.66 225.87 1463.53 225.96 1461.40 225.98 C 1460.96 221.42 1456.45 219.62 1454.22 216.22 C 1455.25 216.42 1457.30 216.83 1458.33 217.03 C 1458.06 216.20 1457.54 214.54 1457.27 213.71 C 1462.19 214.18 1467.03 212.78 1471.94 212.98 C 1483.96 214.43 1496.07 213.13 1508.12 212.72 C 1513.37 212.26 1519.10 213.39 1523.74 210.18 C 1523.05 209.94 1521.67 209.47 1520.98 209.24 C 1521.95 207.44 1523.58 206.04 1524.44 204.18 C 1524.01 202.69 1522.97 201.96 1521.33 201.97 C 1522.39 200.53 1523.39 198.94 1523.09 197.05 C 1522.96 189.86 1523.95 182.39 1522.18 175.38 C 1524.04 173.16 1524.53 168.88 1521.89 167.03 C 1523.05 162.36 1521.61 157.67 1521.58 152.98 C 1521.21 136.28 1520.30 119.54 1521.53 102.86 C 1522.15 103.97 1522.79 105.08 1523.44 106.20 C 1526.05 104.11 1521.52 102.42 1522.31 100.17 C 1523.23 96.42 1522.34 92.66 1522.03 88.91 C 1522.64 85.83 1522.75 82.69 1522.96 79.57 C 1522.55 79.20 1521.75 78.45 1521.35 78.08 C 1521.82 77.72 1522.75 76.99 1523.21 76.63 C 1523.34 72.05 1523.22 67.45 1522.54 62.90 C 1521.24 54.66 1521.62 46.29 1521.31 37.99 C 1521.25 33.27 1520.17 28.55 1521.26 23.89 L 1520.71 22.42 C 1521.62 21.40 1522.57 20.42 1523.56 19.44 C 1526.13 19.87 1528.52 20.93 1530.43 22.76 C 1530.86 21.78 1531.31 20.81 1531.79 19.84 C 1531.89 20.66 1532.10 22.29 1532.21 23.11 C 1532.71 22.31 1533.24 21.51 1533.78 20.71 C 1534.58 20.91 1536.19 21.32 1536.99 21.53 C 1538.44 20.84 1539.91 20.16 1541.40 19.49 C 1541.38 20.37 1541.35 22.12 1541.34 23.00 C 1541.62 22.00 1541.92 21.00 1542.25 20.00 C 1543.71 21.16 1545.17 22.54 1547.03 23.11 M 1543.21 51.00 C 1542.74 52.73 1542.38 54.50 1541.49 56.07 C 1542.04 56.05 1543.15 56.02 1543.70 56.00 C 1543.52 55.57 1543.15 54.71 1542.97 54.29 C 1544.24 53.74 1545.57 53.18 1546.87 52.59 C 1545.62 52.06 1544.42 51.53 1543.21 51.00 M 1544.13 55.67 C 1544.06 60.45 1544.20 65.23 1543.97 70.01 C 1544.52 69.96 1545.63 69.87 1546.18 69.83 C 1544.06 65.31 1547.53 59.67 1544.13 55.67 M 1548.95 80.00 C 1548.32 86.68 1549.66 93.29 1549.98 99.94 C 1550.41 104.77 1549.99 109.61 1550.37 114.44 C 1550.78 114.33 1551.60 114.09 1552.01 113.97 C 1550.02 111.00 1551.00 107.34 1550.78 104.01 C 1550.47 96.02 1552.34 87.57 1548.95 80.00 M 1705.32 140.21 C 1705.43 142.59 1705.46 145.12 1706.99 147.11 C 1708.32 145.02 1708.53 142.52 1709.03 140.16 C 1708.11 140.17 1706.25 140.20 1705.32 140.21 M 1595.39 190.94 C 1597.11 192.40 1598.28 194.28 1598.52 196.57 C 1603.13 199.44 1605.31 206.48 1611.80 205.83 C 1607.95 201.16 1603.83 196.73 1599.35 192.67 C 1598.17 191.83 1597.12 189.92 1595.39 190.94 M 1722.78 199.65 C 1720.55 201.68 1721.52 204.82 1721.57 207.43 C 1722.64 207.39 1723.73 207.35 1724.85 207.31 C 1724.02 205.61 1722.91 204.08 1721.81 202.58 C 1722.85 202.49 1724.94 202.31 1725.99 202.22 C 1725.23 201.13 1724.20 199.59 1722.78 199.65 M 1729.97 202.49 C 1730.55 201.20 1731.55 199.75 1729.89 198.80 C 1727.71 199.39 1728.17 201.73 1729.97 202.49 M 1728.28 209.54 L 1727.40 207.87 C 1726.24 209.60 1727.21 211.82 1727.30 213.72 C 1728.66 213.61 1730.05 213.50 1731.46 213.39 C 1731.25 211.34 1731.09 209.28 1730.55 207.29 C 1728.21 206.12 1730.10 211.41 1728.28 209.54 M 1719.14 217.03 C 1720.54 218.46 1721.71 220.10 1722.58 221.93 C 1721.95 222.10 1720.68 222.46 1720.05 222.64 C 1720.93 223.36 1721.77 224.09 1722.67 224.86 C 1722.51 222.79 1724.53 220.92 1723.22 218.95 C 1721.94 217.28 1723.83 213.92 1721.23 213.48 C 1721.45 212.76 1721.89 211.34 1722.11 210.63 C 1719.33 211.35 1720.13 214.94 1719.14 217.03 M 1726.53 216.31 C 1727.23 220.26 1724.65 224.35 1726.70 228.02 C 1726.54 230.51 1726.06 232.97 1725.75 235.44 C 1724.70 235.03 1723.72 234.62 1722.72 234.23 C 1722.51 236.84 1722.17 239.46 1722.44 242.08 C 1722.83 239.92 1723.05 237.74 1723.32 235.56 L 1725.35 235.56 C 1725.34 239.50 1725.56 243.46 1726.54 247.29 C 1727.00 240.87 1725.56 234.16 1728.03 227.99 C 1728.77 225.20 1730.65 222.43 1729.75 219.46 C 1729.25 217.73 1728.95 213.62 1726.53 216.31 M 1724.50 284.01 C 1723.50 285.91 1723.91 288.32 1725.92 289.33 C 1726.39 287.45 1726.43 285.07 1724.50 284.01 Z" />
<path fill="#ffffff" opacity="1.00" d=" M 865.15 35.73 C 871.35 40.14 876.52 45.76 882.10 50.90 C 885.94 54.52 889.71 58.36 892.27 63.03 C 892.69 65.51 890.45 67.47 888.11 67.57 C 889.43 67.50 890.76 67.46 892.11 67.44 C 889.71 70.46 885.58 70.66 882.61 72.86 C 883.35 73.71 884.10 74.57 884.87 75.41 C 882.55 77.61 880.38 79.97 878.17 82.27 C 877.96 81.67 877.52 80.48 877.31 79.89 C 877.33 80.61 877.36 82.07 877.38 82.80 C 875.23 82.65 873.07 82.42 870.95 82.14 C 873.14 79.18 876.31 77.31 879.46 75.56 C 879.88 74.61 880.71 72.72 881.13 71.78 C 878.22 73.30 875.46 75.05 872.72 76.84 C 870.61 74.91 868.44 72.95 865.80 71.78 C 867.52 74.24 869.82 76.29 871.07 79.08 C 870.34 80.20 869.65 81.32 868.96 82.46 C 870.36 82.83 871.78 83.21 873.20 83.60 C 873.13 84.47 873.00 86.22 872.93 87.09 C 870.84 86.79 866.82 89.34 866.45 85.95 C 866.30 87.05 866.15 88.16 866.01 89.27 C 864.78 89.09 863.57 88.85 862.40 88.53 C 858.25 85.42 854.56 81.73 851.15 77.83 C 847.33 73.63 841.96 70.93 838.96 65.98 C 838.69 64.21 839.16 62.43 839.28 60.66 C 840.86 61.85 842.44 63.04 844.04 64.23 C 844.57 63.69 845.63 62.60 846.16 62.06 C 847.41 63.16 848.68 64.26 850.20 64.99 C 847.99 62.05 845.22 59.59 843.13 56.56 C 843.80 56.52 845.14 56.45 845.81 56.41 C 846.12 55.24 845.26 54.05 845.12 52.90 C 847.26 53.84 849.37 54.86 851.50 55.84 C 852.40 54.90 853.31 53.96 854.23 53.03 C 854.66 53.54 855.50 54.54 855.92 55.05 C 856.28 52.87 856.62 50.69 856.99 48.51 C 858.35 48.93 859.74 49.36 861.13 49.74 C 860.01 48.26 858.78 46.87 857.58 45.48 C 858.11 44.14 858.42 42.75 858.50 41.32 C 861.35 41.28 864.20 41.17 867.06 40.99 C 866.42 39.24 865.74 37.49 865.15 35.73 Z" />
<path fill="#ffffff" opacity="1.00" d=" M 409.98 126.00 C 418.11 125.72 426.34 123.92 434.42 125.74 C 439.87 126.99 445.50 127.42 450.81 129.28 C 453.57 130.33 456.60 130.03 459.45 130.70 C 474.18 135.48 487.45 143.86 499.59 153.33 C 501.85 155.49 503.18 158.41 505.37 160.64 C 508.59 163.85 511.78 167.21 513.98 171.22 C 513.86 171.64 513.60 172.49 513.48 172.91 C 516.29 172.62 516.68 176.00 518.44 177.47 C 518.11 179.73 520.02 181.17 521.11 182.88 C 527.01 191.32 529.27 201.79 529.50 211.95 C 529.32 213.79 531.62 213.93 532.91 214.07 C 543.63 214.75 554.34 213.03 565.06 213.56 C 566.90 214.90 569.01 215.84 571.26 216.28 C 573.90 214.75 576.91 214.67 579.87 215.02 C 579.99 216.63 580.13 218.24 580.27 219.86 C 581.22 219.01 582.17 218.15 583.14 217.31 C 589.30 221.17 593.85 226.95 599.48 231.46 C 603.35 234.60 606.92 238.11 611.08 240.88 C 612.35 241.41 612.75 242.56 612.79 243.85 C 614.37 244.60 616.03 245.34 617.23 246.68 C 622.52 252.04 627.76 257.48 633.56 262.30 C 637.18 265.07 639.51 269.08 641.93 272.85 C 643.18 280.34 641.88 287.91 641.22 295.39 C 640.65 295.37 639.52 295.31 638.96 295.29 C 639.39 295.71 640.25 296.56 640.68 296.98 C 641.01 300.68 640.22 304.45 641.19 308.10 C 641.93 310.47 640.17 312.63 640.31 315.00 C 640.18 323.66 639.54 332.37 640.72 341.00 C 639.55 340.50 637.21 339.52 636.05 339.03 C 636.26 339.75 636.68 341.17 636.89 341.89 C 635.97 339.98 634.29 340.28 632.60 340.93 C 632.65 341.62 632.76 343.01 632.81 343.70 C 632.12 342.87 631.42 342.05 630.73 341.24 C 630.60 343.10 630.51 344.98 630.40 346.85 C 628.82 344.29 628.97 341.31 629.26 338.44 C 628.07 339.64 626.89 340.86 625.73 342.10 C 623.65 342.30 621.11 341.67 619.59 343.50 C 618.08 344.62 617.91 346.65 617.13 348.23 C 613.77 345.81 615.20 341.39 614.51 337.91 C 612.50 339.69 612.22 342.62 610.92 344.88 C 610.73 344.15 610.36 342.69 610.17 341.96 C 609.31 342.11 608.46 342.27 607.61 342.43 C 606.79 338.04 606.14 333.54 606.76 329.09 C 607.56 324.39 605.52 319.73 606.54 315.03 C 607.19 315.63 608.48 316.82 609.13 317.41 C 608.25 312.43 605.87 307.47 607.26 302.35 C 607.69 302.08 608.57 301.55 609.00 301.28 L 607.16 301.41 C 607.50 296.10 607.06 290.52 609.39 285.57 C 605.82 281.45 601.60 277.98 597.85 274.03 C 592.32 267.56 585.25 262.52 580.25 255.57 C 576.63 250.35 571.96 245.97 567.02 242.02 C 567.79 243.34 568.57 244.66 569.39 245.98 C 568.24 245.64 565.96 244.96 564.81 244.62 C 564.39 244.99 563.53 245.71 563.11 246.07 C 555.75 245.02 548.38 246.52 541.01 246.44 C 537.13 246.41 533.26 246.86 529.41 247.34 C 528.28 250.33 526.58 253.11 523.88 254.93 C 522.70 255.32 523.92 256.30 524.01 256.97 C 525.06 255.07 526.88 253.79 529.10 253.79 C 528.27 256.66 525.51 259.26 526.75 262.40 C 526.87 264.61 525.47 266.62 524.76 268.68 C 524.34 267.45 523.93 266.23 523.53 265.00 C 522.88 267.99 522.23 270.99 522.94 274.00 C 521.07 277.42 518.52 280.47 515.65 283.09 C 515.24 283.11 514.42 283.15 514.01 283.17 C 514.78 284.66 514.69 286.42 513.77 287.84 C 511.13 292.64 506.80 296.13 503.55 300.48 C 500.42 304.27 497.57 308.47 493.45 311.27 C 493.46 309.88 493.48 308.49 493.51 307.11 C 492.92 308.39 492.34 309.69 491.78 310.99 C 490.49 311.51 489.21 312.04 487.94 312.59 L 490.02 312.77 C 489.41 314.24 487.74 314.78 486.55 315.66 C 475.75 322.26 463.31 325.17 451.68 329.84 C 454.75 329.80 457.81 329.34 460.79 328.57 C 460.72 328.78 460.59 329.21 460.53 329.43 C 456.39 331.73 451.69 332.66 447.01 332.96 C 435.70 333.57 424.42 337.04 413.08 335.00 C 407.42 334.12 401.59 335.38 395.98 333.99 C 381.06 330.59 365.88 325.80 353.93 315.84 C 353.55 315.70 352.77 315.43 352.39 315.29 C 345.01 308.99 339.89 300.65 333.68 293.30 C 329.29 287.50 325.64 281.17 322.23 274.76 C 318.47 268.38 317.15 260.99 314.82 254.04 C 313.18 243.80 311.74 233.41 312.48 223.01 C 313.31 206.92 318.50 191.31 326.20 177.24 C 330.31 170.25 335.70 164.11 341.33 158.30 C 342.39 157.08 344.05 156.81 345.50 156.30 C 345.39 155.57 345.18 154.12 345.07 153.39 C 350.09 147.53 356.22 142.62 363.18 139.27 C 377.93 132.40 393.62 126.98 409.98 126.00 M 386.51 154.41 C 386.58 155.63 386.66 156.85 386.76 158.06 C 388.36 156.11 388.67 153.47 389.61 151.19 C 388.55 152.24 387.52 153.32 386.51 154.41 M 416.07 157.75 C 412.72 157.92 409.28 156.86 406.04 158.09 C 399.31 160.05 392.34 161.16 385.73 163.50 C 384.59 162.61 383.88 161.36 383.21 160.13 C 383.72 161.79 384.16 163.47 384.62 165.15 C 378.94 165.40 376.04 170.80 371.92 173.82 C 362.79 180.23 357.44 190.30 351.39 199.36 C 350.35 206.97 347.58 214.25 346.58 221.89 C 345.90 225.02 346.21 228.35 345.03 231.36 L 344.44 231.21 C 343.34 228.37 343.64 225.00 342.66 222.02 C 342.41 225.00 341.22 228.05 342.25 231.01 C 343.22 234.32 343.47 237.77 344.24 241.12 C 344.89 238.34 343.67 234.96 344.89 232.61 C 345.18 232.84 345.77 233.29 346.06 233.52 C 346.75 238.38 347.30 243.25 347.78 248.13 C 347.22 248.58 346.67 249.04 346.12 249.51 C 346.59 249.84 347.53 250.52 348.00 250.85 C 347.63 251.85 347.27 252.84 346.93 253.85 C 348.44 258.50 350.66 262.87 353.25 267.02 C 352.22 267.94 351.19 268.86 350.16 269.77 C 351.44 269.78 352.72 269.74 354.02 269.71 C 355.89 272.89 358.17 275.79 360.65 278.52 C 362.92 276.73 365.47 278.81 363.51 281.21 C 364.70 281.99 365.89 282.78 367.08 283.59 C 366.31 283.57 364.75 283.53 363.97 283.51 C 365.87 285.19 367.37 287.25 368.61 289.46 C 371.20 286.70 371.40 290.23 371.75 291.94 C 372.09 291.34 372.77 290.13 373.12 289.52 C 377.35 291.73 381.29 294.55 385.79 296.19 C 385.13 296.56 384.47 296.92 383.81 297.28 C 382.49 296.75 381.16 296.32 379.79 295.99 C 384.34 299.80 390.17 301.72 395.87 303.03 C 393.12 299.92 389.05 299.12 385.44 297.53 C 389.16 297.35 392.70 299.49 396.38 300.22 C 396.36 301.04 396.32 302.69 396.31 303.52 C 398.26 303.91 400.20 304.26 402.18 304.58 C 401.27 302.99 399.53 302.43 398.04 301.61 C 398.66 301.25 399.30 300.91 399.94 300.56 C 402.24 302.89 405.12 304.49 408.09 305.84 C 416.59 302.69 424.58 309.68 433.09 307.52 C 437.59 306.29 442.34 306.65 446.83 305.43 C 449.56 304.79 451.43 302.40 454.22 301.87 C 454.39 300.57 454.57 299.28 454.75 297.99 C 456.14 297.29 457.53 296.60 458.92 295.90 C 459.01 296.67 459.19 298.23 459.28 299.00 C 460.02 298.51 460.78 298.04 461.53 297.55 C 460.73 296.83 459.94 296.10 459.15 295.37 C 469.23 289.89 478.76 282.76 484.74 272.77 C 489.08 267.37 490.84 260.56 494.47 254.75 C 493.88 253.85 493.29 252.95 492.71 252.06 L 494.76 252.63 C 496.48 246.92 495.57 240.77 496.95 234.98 C 498.40 229.16 496.18 223.32 496.13 217.49 C 497.60 218.52 498.50 220.05 498.63 221.86 C 499.12 220.66 499.60 219.45 500.11 218.26 C 501.18 219.14 502.06 220.49 503.57 220.66 C 503.17 217.04 499.16 217.51 496.47 217.24 C 497.21 216.21 497.97 215.18 498.74 214.15 C 498.12 214.00 496.86 213.68 496.23 213.52 C 495.22 210.61 495.00 207.47 494.32 204.47 C 493.58 201.32 496.20 198.08 494.55 195.03 C 492.26 191.22 489.80 186.79 485.11 185.67 C 486.48 184.82 487.89 183.99 489.20 183.04 C 487.04 183.50 484.91 184.12 482.77 184.69 C 481.99 182.75 481.22 180.69 479.54 179.33 C 468.90 170.11 456.02 163.91 442.88 159.10 C 440.56 158.19 438.02 158.10 435.57 158.34 L 435.44 157.57 C 434.20 157.65 433.10 157.36 432.15 156.69 C 426.75 156.34 421.46 157.94 416.07 157.75 M 346.01 180.01 C 342.76 183.55 341.18 188.24 338.17 191.97 C 339.34 191.84 340.52 191.73 341.70 191.61 C 343.68 189.11 345.76 186.68 348.10 184.50 C 348.85 185.33 349.60 186.15 350.35 186.99 C 352.42 183.32 355.38 180.16 356.93 176.22 C 353.90 178.83 352.67 183.51 348.31 184.38 C 349.93 179.19 354.13 175.49 357.23 171.19 C 359.86 167.73 361.55 163.48 365.11 160.80 C 365.93 161.13 366.76 161.47 367.59 161.81 C 367.66 161.10 367.80 159.67 367.87 158.96 C 358.29 163.29 353.26 172.96 346.01 180.01 M 354.84 185.94 C 356.51 184.78 359.67 183.73 358.78 181.10 C 356.26 180.82 355.92 184.26 354.84 185.94 M 572.92 242.06 C 574.76 244.55 577.01 246.69 579.07 248.99 C 581.33 249.32 584.10 249.03 585.36 251.49 C 584.51 251.54 582.81 251.64 581.96 251.69 C 586.97 256.83 591.99 261.96 597.59 266.45 C 596.83 268.15 596.58 269.92 596.85 271.76 C 597.51 271.12 598.82 269.84 599.47 269.21 C 601.36 271.87 604.14 274.16 604.35 277.66 C 605.82 279.73 608.18 280.94 610.02 282.67 C 609.06 278.81 605.98 276.16 604.27 272.72 C 602.44 267.09 597.15 263.76 594.02 258.96 L 594.75 257.69 L 595.91 257.81 C 599.83 260.85 602.72 265.05 606.85 267.88 C 606.17 266.62 605.47 265.37 604.76 264.13 C 600.35 262.74 598.75 257.94 595.03 255.62 C 592.96 255.53 591.08 256.73 589.13 257.27 C 589.05 255.89 588.93 254.51 588.75 253.14 C 586.67 250.92 584.12 249.20 581.94 247.08 C 579.45 244.61 575.97 243.64 572.92 242.06 M 353.02 312.47 C 353.10 313.05 353.24 314.21 353.31 314.79 C 354.01 314.91 355.41 315.14 356.11 315.26 C 355.80 314.03 354.26 312.63 353.02 312.47 M 364.61 321.08 L 364.63 322.00 C 366.37 323.82 366.30 319.23 364.61 321.08 M 366.78 323.23 C 372.30 324.99 377.44 328.11 383.31 328.78 C 386.62 330.77 390.42 331.50 394.23 331.80 C 391.58 328.75 387.31 328.59 383.59 328.32 C 378.23 326.14 372.93 323.78 367.49 321.80 L 366.65 320.41 C 366.70 321.34 366.74 322.28 366.78 323.23 Z" />
<path fill="#ffffff" opacity="1.00" d=" M 868.67 125.15 C 870.12 127.32 871.55 129.65 874.00 130.83 C 873.57 129.56 872.99 128.37 872.26 127.25 C 875.21 128.67 877.58 125.44 880.62 125.69 C 880.50 126.47 880.25 128.04 880.12 128.82 C 883.43 126.23 886.81 129.50 889.66 131.23 C 890.67 147.11 889.69 163.06 889.75 178.97 C 889.67 183.00 890.29 187.05 889.63 191.06 C 889.08 193.73 890.43 196.28 890.25 198.94 C 889.92 204.66 889.70 210.41 890.29 216.13 C 890.87 222.41 889.71 228.69 889.99 234.97 C 891.03 243.96 890.09 253.01 890.05 262.03 C 889.53 273.03 890.43 284.06 889.40 295.03 C 889.30 298.79 889.86 302.54 889.92 306.30 C 890.51 306.43 891.69 306.67 892.28 306.80 C 891.47 308.14 890.66 309.49 889.86 310.83 C 890.36 310.70 891.36 310.44 891.86 310.31 C 887.99 317.18 887.68 325.95 890.72 333.22 C 890.62 339.04 890.20 344.86 889.92 350.68 C 888.66 349.42 887.42 348.14 886.20 346.87 C 885.60 349.60 885.01 352.34 884.56 355.10 C 884.14 353.33 883.67 351.57 883.40 349.78 C 884.64 346.24 883.68 342.49 883.56 338.86 C 883.33 339.87 883.14 340.88 882.97 341.91 C 882.56 342.38 881.76 343.32 881.35 343.79 C 882.03 346.61 881.96 349.73 879.84 351.95 C 880.20 353.31 880.55 354.66 880.92 356.03 C 879.29 358.80 879.13 362.08 877.99 365.02 C 876.14 366.20 873.49 365.90 871.39 365.61 C 869.00 363.84 868.07 360.84 867.92 357.99 C 866.18 358.05 864.46 358.11 862.75 358.17 C 861.43 356.27 860.92 353.46 858.54 352.60 C 858.70 351.30 858.89 350.00 859.09 348.71 C 858.42 348.72 857.08 348.74 856.41 348.75 C 859.12 341.84 858.39 334.29 858.93 327.04 C 859.46 321.69 858.41 316.36 858.43 311.01 C 858.37 306.32 859.31 301.68 859.06 296.99 C 859.62 291.61 857.99 286.24 859.07 280.89 C 859.67 278.22 858.18 275.67 858.37 272.99 C 858.66 264.03 859.00 255.05 858.58 246.09 C 858.94 245.86 859.66 245.42 860.02 245.19 L 858.40 245.30 C 857.68 240.57 859.03 235.80 858.09 231.13 C 858.24 225.75 858.55 220.38 859.05 215.02 C 858.84 210.98 857.50 206.97 858.27 202.91 C 859.56 195.91 857.86 188.88 858.02 181.87 C 858.76 169.60 858.58 157.31 858.86 145.03 C 858.68 143.46 859.27 142.03 860.21 140.79 C 857.28 137.73 860.02 133.23 858.01 129.79 C 860.31 128.03 862.43 123.74 865.64 126.86 C 864.90 127.34 863.42 128.31 862.69 128.79 C 862.58 128.99 862.38 129.38 862.27 129.58 C 864.73 128.66 867.36 127.62 868.67 125.15 M 865.20 228.13 C 864.72 229.50 864.22 230.85 863.77 232.22 C 865.10 234.02 865.56 236.86 867.62 237.93 C 868.90 235.96 868.48 233.32 866.12 232.49 C 867.33 231.11 868.55 229.72 869.79 228.35 C 868.24 228.28 866.72 228.20 865.20 228.13 M 865.18 240.94 C 865.80 244.60 866.55 248.24 867.12 251.91 C 868.27 251.80 869.43 251.70 870.59 251.60 C 870.61 250.17 870.64 248.74 870.68 247.32 C 871.32 247.71 872.58 248.50 873.21 248.89 C 871.49 245.42 868.43 242.90 865.18 240.94 M 867.72 257.23 C 868.54 258.79 869.31 260.38 869.83 262.09 C 868.36 263.77 867.65 265.89 866.92 267.96 C 867.41 268.27 868.38 268.90 868.87 269.21 C 869.25 272.05 869.63 274.89 870.07 277.72 L 868.37 277.38 C 868.32 280.19 868.30 283.00 868.20 285.81 C 868.81 285.39 870.02 284.53 870.63 284.10 C 870.69 286.45 870.58 288.88 871.40 291.13 C 871.14 282.42 872.11 273.65 870.81 264.98 C 870.30 261.20 870.69 257.38 870.90 253.59 C 869.81 254.79 868.77 256.01 867.72 257.23 M 874.59 256.45 C 873.55 257.89 873.77 260.25 875.97 260.14 C 876.09 258.84 876.45 256.56 874.59 256.45 M 875.11 266.42 C 875.04 268.19 875.03 269.97 875.03 271.75 C 878.02 271.84 876.97 275.23 877.62 277.23 C 878.71 272.85 876.67 268.38 877.67 264.08 C 877.09 265.14 876.25 265.98 875.11 266.42 M 876.42 282.24 C 875.92 284.07 875.21 286.71 877.30 287.83 C 877.76 285.89 878.15 283.67 876.42 282.24 M 874.42 286.98 C 873.91 289.02 873.89 291.10 874.35 293.16 C 876.89 292.16 876.07 288.48 874.42 286.98 Z" />
<path fill="#ffffff" opacity="1.00" d=" M 1279.43 130.35 C 1288.57 127.18 1298.29 126.21 1307.89 125.52 C 1313.86 125.30 1319.97 124.16 1325.80 126.00 C 1331.10 125.50 1337.25 124.75 1341.38 128.93 C 1342.62 128.62 1343.85 127.55 1345.18 128.39 C 1349.94 129.99 1354.34 132.66 1359.42 133.26 C 1359.41 133.85 1359.39 135.04 1359.38 135.64 C 1360.21 135.38 1361.85 134.86 1362.67 134.60 C 1362.43 135.23 1361.94 136.49 1361.69 137.12 C 1362.14 137.20 1363.04 137.38 1363.49 137.47 C 1363.31 136.71 1362.95 135.20 1362.76 134.44 C 1387.58 145.29 1406.46 166.79 1417.92 190.95 C 1421.60 200.18 1424.88 209.69 1426.24 219.58 C 1426.75 226.72 1428.40 233.80 1427.38 240.99 C 1427.14 242.35 1426.35 243.52 1425.68 244.68 C 1427.64 244.93 1426.68 246.91 1426.67 248.11 C 1425.80 253.15 1425.14 258.24 1423.71 263.16 C 1423.02 264.65 1423.40 266.22 1423.72 267.75 C 1422.89 266.60 1421.93 265.53 1420.86 264.62 C 1418.55 273.16 1416.36 281.79 1412.64 289.86 C 1412.59 288.40 1412.08 287.20 1411.11 286.27 L 1410.41 286.27 C 1408.65 290.43 1405.70 293.95 1404.06 298.15 C 1402.58 301.95 1400.42 305.43 1398.09 308.76 L 1399.38 309.17 C 1398.60 310.82 1397.89 312.50 1397.17 314.18 C 1397.03 313.34 1396.75 311.67 1396.61 310.84 C 1393.29 314.17 1391.53 318.93 1387.46 321.50 C 1378.56 327.45 1370.03 334.19 1360.05 338.28 C 1350.08 341.77 1339.65 345.42 1328.93 344.17 C 1324.35 344.98 1319.84 346.23 1315.50 347.87 C 1312.73 344.31 1307.83 345.52 1303.95 345.33 C 1301.18 345.67 1299.20 343.37 1297.20 341.90 C 1297.32 342.67 1297.56 344.21 1297.67 344.98 C 1294.54 345.18 1291.46 344.21 1288.48 343.38 C 1285.52 342.32 1281.88 341.69 1280.53 338.46 C 1278.16 336.93 1275.42 336.93 1272.73 337.19 C 1270.04 335.73 1267.64 333.47 1264.37 333.33 C 1263.13 331.90 1261.95 330.44 1260.76 328.99 C 1257.00 327.86 1250.90 326.45 1251.29 321.46 C 1248.45 321.46 1245.78 320.33 1243.96 318.14 C 1244.38 317.70 1245.23 316.82 1245.65 316.38 C 1238.79 311.71 1232.77 305.60 1228.75 298.31 C 1226.32 294.06 1224.17 289.65 1221.52 285.54 C 1217.51 279.11 1216.83 271.35 1213.72 264.53 C 1211.33 259.39 1211.61 253.61 1210.97 248.10 C 1206.44 249.07 1201.58 250.66 1197.06 248.86 C 1194.48 247.81 1191.19 247.89 1189.58 245.28 C 1188.89 245.20 1187.51 245.03 1186.82 244.94 C 1186.22 246.69 1185.92 248.94 1183.97 249.69 C 1182.22 249.77 1179.77 250.46 1178.71 248.63 C 1177.40 246.45 1178.03 243.93 1178.48 241.61 C 1175.87 241.66 1173.26 241.69 1170.68 241.87 C 1171.55 243.33 1172.46 244.77 1173.38 246.22 C 1172.18 247.66 1171.91 249.47 1171.83 251.29 C 1170.92 250.28 1169.99 249.27 1169.11 248.26 C 1169.41 247.83 1170.02 246.97 1170.33 246.54 C 1169.38 245.26 1168.84 243.77 1168.39 242.27 C 1167.81 242.26 1166.63 242.22 1166.04 242.20 C 1166.27 242.95 1166.72 244.46 1166.94 245.21 C 1163.87 245.26 1160.76 244.90 1157.75 245.56 C 1161.42 246.73 1165.27 245.99 1168.97 245.43 C 1168.51 247.20 1168.09 248.98 1167.70 250.76 C 1167.29 250.17 1166.47 248.99 1166.06 248.40 C 1163.58 250.23 1160.61 250.58 1158.28 248.33 C 1158.25 248.91 1158.19 250.08 1158.16 250.67 C 1152.13 250.25 1146.00 251.25 1140.08 249.74 C 1136.57 248.84 1132.95 249.12 1129.39 248.98 C 1129.05 247.72 1128.72 246.46 1128.41 245.21 C 1126.29 245.17 1124.19 245.21 1122.11 245.49 C 1123.34 244.85 1124.53 244.16 1125.77 243.48 C 1124.69 241.11 1123.56 238.77 1122.25 236.53 C 1122.74 236.47 1123.70 236.35 1124.18 236.28 C 1122.91 234.66 1121.50 233.02 1121.35 230.87 C 1119.57 232.26 1117.93 233.82 1116.09 235.11 C 1117.27 233.53 1118.57 232.07 1119.90 230.60 C 1118.24 229.78 1116.80 228.66 1115.75 227.15 C 1117.74 228.02 1119.66 229.04 1121.60 230.06 C 1121.56 228.38 1121.53 226.70 1121.52 225.03 C 1122.84 225.11 1124.12 225.38 1125.33 225.98 C 1125.33 224.25 1126.83 223.49 1128.31 223.11 C 1129.09 221.33 1127.35 220.01 1125.69 220.48 C 1125.23 221.69 1124.78 222.90 1124.33 224.10 C 1123.27 222.83 1122.35 221.62 1121.27 220.44 C 1124.28 220.39 1124.97 216.48 1128.03 216.31 C 1131.58 215.94 1135.62 215.53 1138.90 217.26 C 1139.16 216.94 1139.67 216.30 1139.93 215.98 C 1146.74 218.03 1154.02 217.36 1160.99 216.63 C 1163.46 217.00 1165.84 217.82 1168.28 218.42 C 1169.11 217.87 1169.96 217.33 1170.82 216.79 C 1174.88 217.11 1178.77 219.17 1182.89 218.48 C 1185.94 218.08 1188.99 217.55 1192.05 217.06 C 1192.56 221.26 1197.19 217.80 1199.52 217.32 C 1199.73 217.70 1200.16 218.46 1200.38 218.85 C 1204.00 218.41 1207.66 218.52 1211.29 219.00 C 1211.30 218.52 1211.32 217.56 1211.33 217.08 C 1212.99 215.71 1213.91 218.73 1214.74 219.78 C 1214.76 217.17 1214.75 214.55 1214.52 211.95 C 1214.42 212.98 1214.22 215.02 1214.12 216.04 C 1213.67 215.53 1212.76 214.51 1212.30 214.00 C 1213.41 205.01 1217.06 196.66 1220.50 188.37 C 1223.17 181.81 1228.05 176.61 1231.95 170.80 C 1237.09 163.46 1242.12 155.86 1248.96 149.95 C 1258.07 141.95 1268.53 135.60 1279.43 130.35 M 1331.70 130.48 C 1333.05 132.00 1335.50 129.56 1333.86 128.25 C 1332.47 127.08 1330.46 129.18 1331.70 130.48 M 1326.20 143.15 C 1323.49 146.67 1319.95 149.34 1316.23 151.69 C 1320.93 150.67 1325.17 147.95 1328.04 144.07 C 1329.62 141.48 1332.86 140.96 1335.07 139.05 C 1331.93 139.94 1328.93 141.43 1326.20 143.15 M 1314.05 154.05 C 1314.72 155.12 1315.41 156.19 1316.12 157.25 C 1313.71 157.18 1311.26 156.97 1309.33 155.41 C 1309.81 156.61 1310.24 157.83 1310.71 159.06 C 1317.03 158.73 1323.36 158.92 1329.67 159.33 C 1329.68 159.91 1329.71 161.05 1329.72 161.62 C 1331.85 161.41 1334.06 160.86 1336.20 161.48 C 1335.39 161.63 1333.78 161.93 1332.97 162.08 C 1332.26 163.15 1329.80 165.19 1330.82 161.71 C 1329.87 162.08 1327.97 162.84 1327.02 163.22 L 1327.48 161.33 C 1326.61 161.54 1324.87 161.98 1324.01 162.19 C 1323.98 158.00 1320.34 161.65 1318.76 162.62 C 1318.75 161.93 1318.75 160.56 1318.75 159.87 C 1316.94 160.97 1314.42 163.22 1312.71 160.70 C 1308.51 160.70 1304.32 162.21 1300.08 161.65 C 1302.90 160.13 1306.16 160.29 1309.17 159.40 C 1307.09 159.03 1304.94 158.78 1303.49 157.11 C 1299.81 158.03 1296.12 159.07 1292.66 160.61 C 1292.07 161.49 1290.88 163.25 1290.29 164.13 C 1292.96 163.78 1295.67 163.26 1298.15 162.10 C 1296.54 164.50 1293.81 165.76 1291.01 166.08 C 1287.12 166.50 1284.21 169.97 1280.09 169.55 C 1282.14 167.74 1284.70 166.54 1287.13 165.27 C 1286.20 165.34 1284.35 165.46 1283.42 165.53 C 1283.47 164.98 1283.57 163.89 1283.62 163.34 C 1283.33 163.55 1282.75 163.97 1282.46 164.18 C 1284.21 166.53 1279.74 167.23 1278.76 168.92 C 1279.15 169.47 1279.93 170.57 1280.31 171.12 C 1278.17 172.99 1275.36 174.21 1273.91 176.75 C 1269.70 178.07 1265.80 180.60 1263.74 184.62 C 1262.48 187.72 1259.18 188.88 1256.95 191.08 C 1254.72 196.32 1253.11 201.82 1250.57 206.93 C 1249.04 209.90 1247.93 213.04 1246.89 216.21 C 1246.43 216.34 1245.51 216.62 1245.04 216.75 C 1245.55 216.99 1246.57 217.45 1247.08 217.69 C 1247.58 227.80 1245.70 238.10 1248.32 248.05 C 1247.71 248.91 1247.12 249.78 1246.56 250.66 C 1247.56 252.04 1248.56 253.44 1249.56 254.84 C 1248.87 255.76 1248.19 256.68 1247.53 257.60 C 1248.51 258.10 1249.51 258.61 1250.51 259.14 C 1251.28 264.10 1251.73 269.29 1254.15 273.80 C 1256.99 278.88 1259.26 284.37 1263.30 288.67 C 1264.67 291.59 1267.30 293.33 1269.98 294.94 C 1269.80 295.64 1269.43 297.04 1269.25 297.74 C 1271.06 296.24 1272.65 298.02 1274.18 298.75 C 1282.06 303.49 1290.70 306.88 1299.57 309.24 C 1303.69 310.05 1307.94 310.05 1312.06 310.96 C 1318.91 312.92 1326.35 307.74 1332.80 311.85 C 1337.82 309.72 1343.47 308.89 1348.80 310.33 C 1348.41 309.56 1348.05 308.79 1347.71 308.02 C 1346.80 308.33 1344.98 308.94 1344.07 309.25 C 1344.28 308.52 1344.70 307.06 1344.91 306.34 C 1349.47 303.18 1354.88 301.66 1359.91 299.41 C 1357.47 302.04 1354.81 304.53 1353.12 307.74 C 1355.43 305.33 1357.72 302.87 1361.09 302.05 C 1364.32 297.64 1366.77 292.61 1370.75 288.77 C 1375.05 284.67 1378.37 279.61 1383.14 276.00 C 1383.09 275.30 1383.00 273.89 1382.96 273.18 C 1385.38 271.56 1385.76 268.53 1386.64 265.97 C 1390.05 254.93 1391.99 243.45 1392.42 231.91 C 1392.44 227.91 1391.29 224.05 1390.40 220.20 C 1388.36 210.37 1383.32 201.57 1379.72 192.29 C 1379.18 192.09 1378.11 191.70 1377.57 191.51 C 1378.63 188.37 1374.85 186.88 1373.29 184.73 C 1370.48 181.29 1366.02 180.05 1362.98 176.94 L 1365.56 176.96 C 1362.61 175.11 1359.28 170.18 1355.56 172.69 C 1354.99 171.66 1355.10 170.57 1355.90 169.42 C 1349.98 166.81 1341.95 166.81 1338.27 160.71 C 1340.88 161.15 1343.48 161.64 1346.04 162.38 C 1348.93 163.12 1350.96 165.50 1353.68 166.63 C 1353.09 164.46 1353.06 161.41 1350.03 161.49 C 1344.91 160.72 1340.26 157.11 1334.96 158.32 C 1334.92 157.38 1334.85 155.48 1334.82 154.54 C 1336.56 154.02 1337.66 155.91 1339.00 156.69 C 1341.04 156.48 1343.10 156.22 1345.14 155.82 C 1341.45 154.28 1337.50 153.81 1333.55 154.09 C 1333.66 154.49 1333.88 155.29 1333.99 155.69 C 1333.07 156.66 1332.15 157.64 1331.26 158.62 C 1329.61 157.02 1328.49 154.25 1325.73 154.74 C 1325.98 155.40 1326.46 156.71 1326.70 157.36 C 1323.48 156.71 1320.22 156.67 1316.97 156.69 C 1315.84 155.96 1315.01 154.93 1314.05 154.05 M 1403.31 177.45 C 1403.29 178.02 1403.27 179.14 1403.25 179.70 C 1405.06 180.64 1406.10 179.17 1405.60 177.49 C 1405.03 177.48 1403.88 177.46 1403.31 177.45 M 1133.55 221.37 C 1133.28 220.83 1132.76 219.76 1132.50 219.23 C 1132.36 220.02 1132.24 220.82 1132.14 221.61 C 1133.73 221.63 1135.34 221.65 1136.96 221.69 C 1136.82 222.23 1136.55 223.32 1136.42 223.87 C 1138.26 223.16 1140.13 222.38 1142.18 222.50 C 1140.04 221.00 1136.14 221.31 1136.18 217.97 C 1135.23 219.04 1134.34 220.19 1133.55 221.37 M 1411.44 283.30 C 1411.58 283.74 1411.84 284.61 1411.98 285.05 C 1412.39 284.87 1413.21 284.52 1413.61 284.35 C 1415.21 277.92 1418.65 271.66 1417.44 264.84 C 1413.24 270.14 1413.41 277.14 1411.44 283.30 M 1388.31 276.76 C 1390.15 276.02 1391.72 274.16 1390.72 272.10 C 1389.19 273.17 1387.22 274.64 1388.31 276.76 M 1248.85 288.96 C 1249.70 291.89 1252.07 293.97 1254.19 296.02 C 1253.81 296.61 1253.04 297.77 1252.65 298.35 C 1252.24 298.09 1251.43 297.55 1251.02 297.29 C 1251.49 298.03 1251.97 298.78 1252.47 299.54 C 1254.67 299.04 1256.87 297.76 1259.21 298.24 C 1259.16 297.45 1259.14 296.66 1259.14 295.88 C 1254.59 295.88 1252.16 291.37 1248.85 288.96 M 1259.44 296.13 C 1259.56 296.78 1259.81 298.09 1259.93 298.75 C 1258.23 300.43 1256.67 302.24 1255.11 304.05 C 1259.53 302.25 1263.51 298.29 1268.38 298.34 C 1268.34 297.44 1268.32 296.56 1268.31 295.67 C 1267.71 295.45 1266.50 295.00 1265.90 294.77 C 1265.55 294.96 1264.86 295.33 1264.52 295.52 C 1262.60 294.51 1261.29 296.70 1259.44 296.13 M 1277.78 309.91 C 1276.52 311.84 1278.56 313.23 1279.78 314.42 C 1278.68 315.94 1279.72 317.02 1280.96 317.99 C 1278.72 316.99 1276.42 316.17 1274.14 315.31 C 1277.52 317.82 1279.76 321.64 1283.00 324.16 C 1283.15 323.59 1283.46 322.45 1283.61 321.88 C 1283.77 322.50 1284.10 323.74 1284.27 324.36 C 1285.84 324.58 1287.41 324.82 1289.01 325.08 C 1289.05 324.31 1289.12 322.77 1289.16 322.00 C 1289.47 322.36 1290.09 323.08 1290.40 323.44 C 1294.65 324.73 1298.70 326.62 1303.04 327.70 C 1302.90 324.97 1305.42 324.11 1307.67 323.92 C 1307.64 324.46 1307.59 325.53 1307.56 326.06 C 1308.35 324.75 1309.19 323.45 1309.99 322.13 C 1309.49 322.57 1308.50 323.45 1308.00 323.88 C 1305.05 323.59 1302.07 322.40 1300.88 319.49 C 1299.71 320.23 1298.59 321.41 1297.10 321.26 C 1294.70 320.45 1294.94 317.38 1293.13 315.98 C 1293.53 316.92 1293.97 317.85 1294.44 318.77 C 1293.63 319.60 1292.84 320.43 1292.06 321.27 C 1289.90 319.75 1288.11 317.80 1286.69 315.59 C 1288.82 314.21 1286.05 312.71 1284.74 312.25 C 1282.72 310.82 1280.29 309.75 1277.78 309.91 M 1268.99 313.03 C 1269.06 315.04 1270.85 316.22 1272.76 315.68 C 1272.42 313.82 1270.79 312.89 1268.99 313.03 M 1275.58 333.33 C 1274.52 334.76 1276.92 336.20 1277.92 334.87 C 1279.28 333.36 1276.47 331.69 1275.58 333.33 Z" />
<path fill="#ffffff" opacity="1.00" d=" M 616.04 125.09 C 616.48 125.68 617.37 126.86 617.81 127.44 C 620.98 125.22 623.76 128.92 626.95 128.98 C 630.06 127.96 632.91 125.84 636.37 126.38 C 635.87 127.87 635.42 129.38 635.05 130.90 C 635.79 129.89 636.50 128.85 637.22 127.82 C 642.32 130.58 648.07 129.18 653.54 128.90 C 653.59 128.42 653.68 127.47 653.73 126.99 C 663.44 128.47 673.46 126.35 683.01 129.09 C 684.07 128.60 685.15 128.09 686.23 127.60 C 686.63 128.10 687.45 129.11 687.86 129.61 C 692.62 129.13 697.45 129.55 702.18 128.65 C 707.48 127.31 712.88 130.38 718.17 128.71 C 721.11 127.62 724.07 129.13 726.98 129.59 C 731.64 130.64 736.69 129.81 741.14 131.86 C 746.54 134.56 752.01 137.15 757.58 139.49 C 759.72 140.13 760.67 142.30 762.23 143.71 C 763.75 145.49 766.50 145.26 767.98 147.12 C 771.34 150.75 776.01 153.00 778.98 157.02 C 780.76 159.23 780.52 162.51 782.83 164.38 C 782.74 165.05 782.56 166.40 782.46 167.07 C 785.62 173.17 785.97 180.15 786.66 186.85 C 785.32 187.44 784.02 188.10 782.81 188.90 C 783.47 189.07 784.81 189.42 785.47 189.59 C 785.36 192.75 784.96 195.90 785.07 199.06 L 786.33 200.20 C 787.17 197.50 787.06 194.65 787.47 191.88 C 789.29 203.80 784.02 215.52 776.96 224.85 C 774.42 229.86 770.18 233.52 765.76 236.83 C 760.61 241.74 753.94 244.43 747.80 247.81 C 746.77 248.54 745.51 248.54 744.32 248.61 C 742.51 250.59 740.10 250.10 737.79 249.49 C 737.62 252.78 737.40 256.08 737.42 259.39 C 738.55 262.37 737.89 265.70 737.91 268.82 L 736.59 269.43 C 737.74 271.50 738.42 274.04 740.50 275.43 C 745.26 278.56 749.16 282.75 753.46 286.44 C 763.23 295.12 773.05 303.81 783.75 311.34 C 792.20 318.93 800.23 327.02 807.98 335.33 C 808.46 334.79 809.42 333.73 809.90 333.20 C 809.37 334.04 808.85 334.89 808.33 335.74 C 810.89 339.50 814.57 342.78 819.15 343.70 C 819.00 346.14 818.82 348.78 820.57 350.77 C 817.19 350.24 814.11 348.74 811.03 347.36 C 812.39 350.01 814.36 352.26 816.15 354.62 C 815.12 354.52 813.04 354.33 812.01 354.24 C 811.28 355.12 810.57 356.01 809.87 356.91 C 808.29 353.64 805.04 352.41 801.71 351.65 C 802.35 352.97 803.17 354.36 803.83 355.72 C 802.20 354.61 800.68 353.36 798.99 352.38 C 796.73 351.77 794.23 352.25 792.13 351.12 C 788.87 348.68 786.19 345.34 782.26 343.92 C 784.17 346.26 786.30 348.43 787.97 350.96 C 783.79 348.26 779.13 346.28 774.14 345.79 C 766.42 338.00 757.63 331.47 749.59 324.07 C 750.12 323.51 750.69 322.98 751.30 322.49 L 749.69 322.68 L 748.62 319.84 C 748.60 320.57 748.56 322.03 748.55 322.77 C 748.47 322.45 748.32 321.80 748.24 321.48 L 746.34 321.34 C 742.87 318.85 739.47 316.22 736.54 313.10 C 737.52 313.05 739.50 312.96 740.49 312.91 C 739.19 312.03 737.90 311.16 736.63 310.28 C 737.02 309.45 737.82 307.80 738.22 306.97 C 738.12 305.29 736.21 305.50 735.08 305.12 C 738.40 306.74 734.10 308.67 734.72 311.07 C 730.09 308.55 725.22 306.01 722.14 301.53 C 724.86 302.34 727.42 303.63 729.97 304.86 C 725.34 299.57 719.61 295.45 714.00 291.28 C 716.25 294.57 719.32 297.16 722.00 300.08 C 719.63 299.75 717.27 299.39 715.02 298.57 C 712.55 296.11 710.19 293.47 707.10 291.74 C 706.70 287.91 708.65 284.21 707.78 280.43 C 706.13 271.68 707.79 262.67 705.84 253.96 C 704.94 250.30 706.18 246.62 705.99 242.93 C 705.94 239.65 705.28 236.42 705.25 233.14 C 706.32 231.26 706.43 228.20 708.43 227.12 C 708.78 227.56 709.48 228.44 709.83 228.89 C 709.97 227.00 710.17 225.12 710.38 223.24 C 716.81 223.47 723.34 223.77 729.68 222.45 C 732.65 219.25 736.56 216.93 741.05 216.94 C 742.71 214.65 744.30 212.29 746.24 210.20 C 751.84 205.19 753.19 197.15 753.36 190.00 C 753.13 181.38 751.59 171.38 743.76 166.27 C 739.41 165.82 735.47 163.78 731.14 163.37 C 728.32 163.09 726.49 160.68 724.22 159.27 C 723.53 160.26 722.85 161.26 722.17 162.25 C 718.61 160.04 714.45 159.50 710.39 158.88 C 710.96 159.59 712.10 161.00 712.66 161.71 C 710.24 160.89 706.47 160.86 706.21 157.59 C 702.52 157.94 698.77 158.23 695.12 157.48 C 689.77 156.31 684.27 156.64 678.85 156.26 C 679.92 157.21 680.99 158.16 682.05 159.14 C 678.91 159.74 675.73 159.47 672.81 158.18 C 667.81 158.32 662.75 159.85 657.75 158.57 C 656.22 159.04 654.72 159.85 653.08 159.45 C 648.65 158.77 644.44 160.66 640.09 161.03 C 639.33 160.34 638.57 159.70 637.76 159.10 C 637.43 162.33 637.05 165.54 636.62 168.76 C 637.71 167.87 638.83 166.98 639.93 166.09 C 639.51 172.75 639.68 179.43 640.47 186.06 C 638.87 193.56 639.33 201.25 638.92 208.86 C 638.48 209.21 637.61 209.90 637.17 210.24 C 636.66 212.67 636.34 215.60 633.75 216.75 C 633.65 214.17 633.73 211.60 633.76 209.03 C 633.47 209.53 632.88 210.54 632.59 211.04 C 631.43 209.80 630.11 208.77 628.64 207.96 C 628.52 208.75 628.29 210.32 628.17 211.11 C 625.44 211.37 622.69 211.39 619.96 211.53 C 619.78 209.32 619.66 207.12 619.62 204.91 C 619.42 205.30 619.01 206.07 618.81 206.45 C 616.89 204.39 613.81 205.44 611.34 205.06 C 611.10 201.54 609.80 198.05 606.83 195.95 C 607.59 191.00 607.19 185.99 607.24 181.00 C 607.09 165.96 607.08 150.92 606.73 135.89 C 608.33 133.03 611.48 131.19 612.42 128.00 C 613.63 128.02 614.85 128.04 616.07 128.07 C 616.06 127.32 616.05 125.84 616.04 125.09 M 611.57 195.00 C 611.24 194.23 610.58 192.70 610.25 191.93 C 610.06 193.75 611.12 196.85 613.44 195.82 C 613.72 193.79 613.84 191.75 613.88 189.70 C 612.89 191.37 612.22 193.19 611.57 195.00 M 614.50 197.32 C 614.43 199.27 614.37 201.21 614.42 203.16 C 615.35 201.38 615.78 199.40 616.33 197.48 C 615.87 197.44 614.96 197.36 614.50 197.32 M 768.80 209.05 C 766.51 212.93 764.48 217.08 761.22 220.26 C 759.22 222.26 756.61 223.81 755.61 226.60 C 757.87 225.75 760.68 225.14 761.81 222.71 C 764.47 218.35 767.75 214.16 768.80 209.05 M 750.04 224.03 C 745.11 228.14 738.72 229.64 733.07 232.44 C 734.76 232.56 736.46 232.71 738.17 232.89 C 736.40 235.00 733.36 234.79 731.26 236.34 C 734.80 236.39 738.30 233.54 741.87 235.69 C 740.96 236.72 740.06 237.75 739.15 238.76 C 742.40 237.22 746.16 236.43 748.75 233.77 C 750.81 231.75 752.74 229.59 755.02 227.81 C 755.07 225.47 755.09 223.13 755.11 220.80 C 753.28 221.65 751.54 222.68 750.04 224.03 M 771.12 327.05 C 772.96 329.45 775.02 331.67 777.11 333.87 C 776.33 333.92 774.76 334.03 773.98 334.08 C 775.49 335.53 777.10 336.88 778.84 334.55 C 778.85 337.19 778.95 339.82 779.06 342.46 C 779.83 342.08 780.60 341.70 781.39 341.33 C 781.55 339.67 781.73 338.02 781.91 336.36 C 780.89 335.60 779.89 334.84 778.90 334.08 C 776.30 331.73 773.73 329.36 771.12 327.05 Z" />
<path fill="#ffffff" opacity="1.00" d=" M 966.10 128.00 C 969.91 125.13 975.29 125.62 979.02 128.34 C 984.66 128.78 990.34 128.55 995.99 128.18 C 1022.99 127.91 1050.01 126.91 1077.00 128.11 C 1085.99 128.31 1094.98 127.79 1103.97 127.64 C 1114.87 128.66 1125.84 127.69 1136.64 126.06 C 1136.20 126.97 1135.32 128.80 1134.88 129.71 C 1136.94 129.61 1139.01 129.59 1141.08 129.74 C 1139.39 128.38 1137.77 126.88 1136.47 125.15 C 1141.03 126.49 1145.80 126.24 1150.50 126.43 C 1150.47 127.62 1150.47 128.81 1150.47 129.99 C 1153.43 129.76 1156.40 129.74 1159.38 129.70 C 1158.26 126.73 1154.98 130.63 1153.01 129.10 C 1151.57 127.84 1153.52 125.94 1154.85 125.89 C 1157.20 125.66 1159.46 126.64 1161.64 127.41 C 1161.86 126.92 1162.29 125.94 1162.50 125.45 C 1166.33 126.11 1170.26 126.33 1174.12 125.62 C 1175.36 126.69 1176.59 127.76 1177.85 128.84 C 1173.83 132.56 1171.35 137.66 1166.99 141.02 C 1165.28 142.71 1163.57 144.68 1160.99 144.82 C 1161.08 145.37 1161.27 146.47 1161.36 147.02 C 1158.21 145.98 1158.08 149.89 1155.61 150.60 C 1152.35 151.80 1151.03 155.30 1148.58 157.50 C 1140.19 165.85 1132.08 174.52 1124.81 183.87 C 1121.40 187.09 1117.36 189.71 1114.76 193.72 C 1111.20 199.08 1106.07 203.07 1101.77 207.80 C 1097.39 212.51 1092.32 216.84 1086.09 218.81 C 1086.23 217.99 1086.51 216.33 1086.65 215.51 C 1084.21 217.02 1081.68 218.39 1079.03 219.46 C 1075.52 215.45 1069.19 222.54 1066.71 217.06 C 1065.33 217.65 1063.96 218.23 1062.59 218.80 C 1062.24 217.68 1061.90 216.56 1061.58 215.44 C 1059.19 215.64 1056.80 215.71 1054.42 215.60 C 1054.55 220.40 1054.22 225.20 1054.49 230.00 C 1055.05 238.42 1051.89 246.69 1053.17 255.12 C 1048.98 260.55 1043.85 265.18 1039.72 270.66 C 1033.68 278.56 1025.61 284.63 1019.57 292.53 C 1018.56 293.73 1018.15 295.26 1017.51 296.66 C 1016.16 298.44 1013.82 299.15 1012.46 300.93 C 1011.68 303.01 1011.58 305.27 1011.19 307.44 C 1010.24 306.63 1009.31 305.82 1008.38 305.02 C 1008.80 306.20 1009.23 307.39 1009.67 308.59 C 1008.05 308.50 1006.44 308.41 1004.84 308.32 C 1005.28 309.17 1005.73 310.03 1006.21 310.89 C 1008.94 310.21 1011.66 309.43 1014.23 308.24 C 1014.66 308.96 1015.10 309.68 1015.55 310.41 C 1019.99 310.94 1024.47 310.51 1028.88 309.82 C 1029.91 310.43 1030.97 311.04 1032.03 311.64 C 1035.52 310.48 1039.16 309.88 1042.82 309.59 C 1042.24 308.17 1041.76 306.71 1041.44 305.23 C 1043.00 304.90 1044.58 304.62 1046.19 304.39 C 1049.22 305.91 1052.66 305.60 1055.96 305.77 C 1072.99 306.25 1090.01 304.08 1107.03 305.08 C 1114.29 305.99 1121.67 305.09 1128.88 306.47 C 1133.27 307.30 1137.75 307.07 1142.19 307.23 C 1145.68 309.34 1149.60 310.46 1153.67 310.76 C 1153.12 312.56 1153.07 314.43 1153.56 316.25 C 1155.75 316.30 1157.95 316.36 1160.16 316.42 C 1159.15 316.73 1158.15 317.05 1157.16 317.37 C 1157.11 318.18 1157.02 319.79 1156.97 320.60 C 1156.34 320.52 1155.08 320.37 1154.45 320.29 C 1154.38 322.07 1154.32 323.84 1154.30 325.63 C 1155.65 326.72 1156.97 327.86 1158.24 329.09 C 1154.50 328.81 1150.77 328.41 1147.04 328.59 C 1150.25 330.87 1154.34 329.75 1157.99 330.29 C 1156.38 331.49 1154.76 332.67 1153.14 333.85 C 1155.71 333.83 1158.25 333.57 1160.83 333.31 C 1159.95 333.91 1158.20 335.11 1157.32 335.71 C 1159.26 336.26 1161.23 336.81 1163.16 337.48 C 1152.43 337.12 1141.70 337.70 1130.99 338.08 C 1124.33 337.59 1117.66 337.61 1111.02 338.18 C 1092.74 334.94 1073.88 340.60 1055.82 335.53 C 1053.98 334.69 1052.81 337.21 1050.97 336.63 C 1031.25 335.51 1011.61 338.97 991.90 337.93 C 991.51 337.27 991.12 336.61 990.74 335.96 C 990.51 336.58 990.03 337.83 989.80 338.45 C 986.80 338.40 983.93 336.50 980.90 337.32 C 977.24 338.08 973.49 338.25 969.85 337.36 C 965.07 339.36 959.92 337.43 954.95 337.85 C 952.20 337.69 949.31 339.16 946.76 337.67 C 945.21 338.26 943.69 339.16 941.99 339.08 C 940.38 338.35 938.79 337.50 936.98 337.78 C 938.58 335.09 940.11 332.27 940.36 329.08 C 941.08 330.02 941.82 330.96 942.57 331.91 C 942.44 329.57 943.94 328.46 945.91 327.86 C 944.48 327.68 943.13 327.28 941.87 326.67 C 943.22 324.59 945.33 323.58 947.52 322.71 C 949.81 319.02 953.36 316.20 955.16 312.21 C 957.88 303.81 965.19 298.28 970.71 291.78 C 979.01 285.10 986.63 277.58 993.23 269.21 C 994.73 267.18 995.84 264.90 997.00 262.67 C 997.46 262.88 998.38 263.32 998.83 263.54 C 1003.21 260.36 1005.81 255.40 1010.06 252.07 C 1014.92 248.14 1014.94 241.46 1016.54 235.93 C 1016.74 232.87 1014.82 230.10 1015.02 227.04 C 1015.27 222.58 1014.67 218.14 1014.30 213.71 C 1015.68 212.52 1017.16 211.36 1018.96 210.84 C 1021.14 211.27 1022.63 213.13 1024.59 214.10 C 1024.37 213.03 1024.15 211.96 1023.93 210.89 C 1025.94 210.97 1027.55 209.92 1028.83 208.45 C 1029.97 209.99 1031.16 211.50 1032.56 212.83 C 1032.47 211.25 1032.33 209.68 1032.14 208.12 C 1036.91 211.92 1043.33 211.23 1049.03 211.03 C 1050.56 208.79 1052.19 206.63 1053.88 204.50 C 1056.13 207.65 1059.80 203.38 1061.18 201.19 C 1059.37 202.40 1057.62 204.01 1055.26 203.58 C 1059.61 197.51 1066.05 193.38 1070.51 187.40 C 1071.15 188.31 1071.80 189.21 1072.47 190.13 C 1073.00 189.24 1073.56 188.35 1074.11 187.45 C 1073.80 186.92 1073.17 185.87 1072.86 185.34 C 1082.17 177.19 1089.74 167.16 1099.75 159.77 C 1099.09 162.74 1096.82 164.75 1095.16 167.13 C 1097.48 165.40 1099.01 162.92 1100.57 160.53 C 1102.64 158.75 1105.05 157.36 1106.86 155.26 C 1107.02 156.24 1107.34 158.18 1107.50 159.15 C 1107.79 157.52 1108.03 155.87 1108.28 154.23 C 1110.89 151.79 1113.82 149.36 1115.09 145.90 C 1112.25 148.15 1110.09 151.17 1106.99 153.09 C 1104.91 154.28 1103.62 156.34 1102.25 158.22 C 1100.38 157.15 1098.52 156.11 1096.64 155.11 C 1096.37 156.23 1096.10 157.36 1095.84 158.49 C 1093.32 158.54 1090.80 158.68 1088.30 158.45 C 1081.62 159.57 1074.76 158.60 1068.01 158.88 C 1064.96 159.82 1063.89 155.19 1060.84 156.26 C 1061.58 156.85 1063.06 158.02 1063.79 158.61 C 1051.19 158.40 1038.56 158.03 1025.99 159.14 C 1024.01 159.36 1022.30 158.09 1020.52 157.51 C 1020.41 158.09 1020.21 159.26 1020.11 159.84 C 1010.09 160.84 999.97 160.98 989.91 160.45 C 984.58 160.22 979.30 159.23 973.97 159.29 C 971.66 159.34 969.34 158.87 967.46 157.49 C 967.22 157.72 966.72 158.17 966.47 158.39 C 964.34 158.03 962.22 157.75 960.09 157.52 C 959.99 153.77 960.52 150.04 961.36 146.40 C 963.56 145.67 965.77 144.98 967.99 144.32 C 966.65 144.32 965.32 144.33 964.01 144.33 C 962.73 142.01 961.06 139.94 958.97 138.31 C 961.07 137.61 963.11 136.72 965.08 135.71 C 966.05 136.44 967.05 137.16 968.09 137.83 C 967.36 136.92 966.57 136.07 965.72 135.29 C 966.16 134.26 966.59 133.22 966.98 132.17 C 965.51 132.29 965.38 133.70 965.21 134.86 C 963.64 135.17 962.08 135.18 960.53 134.89 C 961.35 134.20 962.19 133.51 963.06 132.84 C 962.23 132.04 961.41 131.24 960.59 130.46 C 961.70 129.37 962.79 128.28 963.87 127.15 C 965.86 127.97 967.82 128.89 969.75 129.89 C 969.38 132.06 969.59 134.19 971.14 135.86 C 973.46 135.51 975.76 135.03 978.01 134.33 C 975.70 134.51 973.43 134.81 971.15 135.11 C 970.82 133.93 970.16 131.57 969.83 130.40 C 970.49 130.83 971.80 131.70 972.45 132.14 C 972.38 130.84 972.32 129.55 972.28 128.26 C 970.21 128.29 968.13 128.25 966.10 128.00 M 1065.69 131.42 C 1066.97 132.71 1069.57 130.60 1067.93 129.26 C 1066.58 127.94 1064.41 130.09 1065.69 131.42 M 1071.58 130.73 C 1070.01 131.04 1069.56 133.67 1071.40 133.38 C 1073.56 133.59 1074.10 129.65 1071.58 130.73 M 1024.67 138.86 C 1025.95 141.07 1027.77 142.90 1029.84 144.39 C 1029.77 143.52 1029.63 141.76 1029.56 140.89 C 1030.30 140.83 1031.77 140.73 1032.51 140.68 C 1032.05 139.76 1031.62 138.83 1031.20 137.92 C 1029.00 138.20 1026.83 138.47 1024.67 138.86 M 1036.55 138.77 C 1037.55 140.19 1038.58 141.59 1039.62 142.99 C 1039.49 142.07 1039.22 140.22 1039.09 139.30 C 1040.73 139.81 1042.43 140.35 1044.11 140.80 C 1043.13 137.29 1039.23 138.04 1036.55 138.77 M 1075.22 141.71 C 1080.67 141.92 1086.14 141.88 1091.60 141.94 C 1091.36 140.58 1091.15 139.23 1090.94 137.88 C 1089.24 138.77 1087.55 139.67 1085.88 140.58 C 1084.48 139.79 1083.09 139.04 1081.67 138.36 C 1081.39 138.09 1080.83 137.55 1080.55 137.28 C 1078.33 138.17 1076.50 139.72 1075.22 141.71 M 1051.68 138.88 C 1051.98 139.56 1052.58 140.91 1052.88 141.59 C 1052.28 141.94 1051.09 142.64 1050.49 142.99 C 1053.06 143.26 1055.56 142.73 1058.02 142.00 C 1057.58 142.60 1056.71 143.80 1056.27 144.40 C 1057.40 144.51 1058.55 144.64 1059.71 144.79 C 1059.75 143.50 1059.80 142.22 1059.88 140.93 C 1057.13 140.28 1054.40 139.59 1051.68 138.88 M 1093.21 141.91 C 1092.44 142.73 1091.72 143.55 1090.99 144.39 C 1091.76 145.19 1092.55 146.00 1093.35 146.81 C 1095.24 146.23 1097.68 144.04 1098.60 147.00 C 1099.57 146.10 1100.66 145.22 1101.70 144.36 C 1098.67 144.38 1095.65 143.76 1093.21 141.91 M 1008.51 155.64 C 1007.12 155.93 1006.82 158.10 1008.46 158.20 C 1010.50 158.77 1010.59 155.11 1008.51 155.64 M 1089.26 170.91 C 1087.88 171.41 1088.19 173.85 1089.79 173.55 C 1091.98 173.56 1091.26 170.00 1089.26 170.91 M 1104.03 186.95 C 1105.99 186.65 1108.36 187.15 1110.10 186.14 C 1110.79 183.87 1111.13 181.51 1111.64 179.20 C 1108.60 181.25 1106.25 184.08 1104.03 186.95 M 959.25 308.85 C 961.76 307.75 962.94 305.19 964.02 302.84 C 961.74 304.17 959.47 306.02 959.25 308.85 M 1131.32 316.55 C 1129.40 317.84 1127.53 319.22 1125.87 320.84 C 1128.36 320.10 1130.83 319.26 1133.34 318.57 C 1132.64 317.89 1131.99 317.22 1131.32 316.55 M 1118.14 319.88 C 1117.64 322.12 1117.42 324.40 1117.17 326.67 C 1118.39 325.82 1119.61 324.95 1120.86 324.10 C 1119.91 323.84 1118.97 323.59 1118.05 323.35 C 1118.94 322.11 1118.97 320.95 1118.14 319.88 M 1091.21 329.76 C 1091.78 329.75 1092.91 329.73 1093.47 329.72 C 1093.45 329.18 1093.41 328.10 1093.39 327.56 C 1091.78 326.81 1089.95 328.03 1091.21 329.76 Z" />
<path fill="#ffffff" opacity="1.00" d=" M 700.82 159.29 C 702.35 158.84 703.90 158.45 705.49 158.14 C 705.60 158.94 706.36 160.38 705.25 160.77 C 703.69 160.60 702.27 159.78 700.82 159.29 Z" />
<path fill="#ffffff" opacity="1.00" d=" M 267.92 245.86 C 269.04 245.37 270.53 245.67 271.71 245.99 C 272.12 248.43 268.16 248.10 267.92 245.86 Z" />
<path fill="#ffffff" opacity="1.00" d=" M 1536.57 268.61 C 1536.27 265.43 1535.95 262.12 1537.05 259.04 C 1537.41 261.08 1537.62 263.14 1537.86 265.21 C 1538.66 265.41 1539.49 265.63 1540.33 265.84 C 1540.63 264.12 1541.42 262.64 1543.08 261.90 C 1543.81 265.38 1543.85 268.96 1543.95 272.51 C 1544.53 272.23 1545.70 271.67 1546.28 271.40 C 1545.23 275.14 1544.28 278.92 1543.50 282.73 C 1545.44 282.44 1547.32 282.13 1549.29 281.84 C 1548.26 280.93 1547.23 280.03 1546.23 279.15 C 1546.33 276.18 1546.60 273.23 1546.82 270.28 C 1545.98 266.51 1545.25 262.71 1544.00 259.05 C 1547.49 261.26 1550.31 264.42 1553.79 266.58 C 1553.55 268.07 1553.34 269.56 1553.15 271.06 C 1554.02 269.83 1554.87 268.59 1555.79 267.37 C 1556.58 269.56 1557.40 271.76 1558.04 274.03 C 1557.10 273.18 1556.19 272.30 1555.32 271.42 C 1554.61 273.39 1553.02 274.76 1551.76 276.34 C 1551.35 276.09 1550.55 275.61 1550.15 275.37 C 1548.64 283.87 1550.27 292.54 1549.00 301.06 C 1548.32 307.74 1549.08 314.46 1549.49 321.14 C 1550.16 317.76 1549.90 314.31 1550.17 310.92 C 1551.46 306.69 1552.03 302.29 1552.58 297.91 C 1553.12 297.89 1554.21 297.84 1554.75 297.82 C 1556.13 292.06 1555.08 286.00 1556.83 280.30 C 1557.33 280.63 1558.33 281.28 1558.83 281.61 C 1557.37 293.70 1557.87 305.93 1558.33 318.06 C 1558.26 324.48 1557.30 330.85 1556.62 337.22 C 1557.31 337.23 1558.67 337.26 1559.36 337.27 C 1558.64 337.53 1557.19 338.04 1556.47 338.30 C 1560.43 343.17 1554.26 349.35 1557.52 354.43 C 1556.91 356.98 1558.32 359.48 1558.26 362.05 C 1558.23 373.38 1557.87 384.78 1559.30 396.05 C 1558.75 400.06 1558.81 404.06 1559.46 408.06 C 1558.61 419.07 1560.91 429.98 1560.68 441.01 C 1560.34 447.41 1561.86 454.49 1558.03 460.14 C 1556.61 461.57 1557.85 463.27 1558.25 464.85 C 1559.19 465.53 1560.13 466.23 1561.08 466.96 C 1560.05 466.60 1557.99 465.89 1556.97 465.54 C 1557.82 469.52 1559.66 474.50 1556.20 477.82 C 1556.02 474.51 1558.45 470.12 1554.97 467.82 C 1554.34 471.94 1554.42 476.15 1553.47 480.23 C 1552.98 476.70 1553.13 473.13 1553.12 469.59 C 1549.97 468.65 1549.13 472.12 1547.80 474.12 C 1547.37 472.43 1546.97 470.75 1546.56 469.08 C 1545.68 473.30 1545.08 477.56 1544.63 481.85 C 1543.73 481.13 1542.84 480.41 1541.99 479.71 C 1541.34 475.36 1541.22 470.94 1540.34 466.63 C 1538.89 470.64 1537.61 475.08 1539.17 479.25 C 1535.90 477.20 1535.57 472.37 1531.81 470.94 C 1529.01 471.26 1530.76 475.31 1530.22 477.10 C 1528.66 475.78 1528.68 473.60 1528.07 471.81 C 1522.77 471.01 1521.23 464.97 1518.27 461.30 C 1519.76 459.61 1521.28 457.94 1522.81 456.27 C 1521.44 454.94 1520.10 453.62 1518.75 452.31 C 1518.80 451.12 1518.86 449.94 1518.95 448.76 L 1517.06 449.12 L 1516.95 447.97 C 1517.59 448.08 1518.86 448.28 1519.49 448.38 C 1517.84 441.30 1519.49 434.04 1518.53 426.90 C 1517.85 430.89 1518.27 434.96 1518.04 438.99 L 1517.08 438.97 C 1517.04 432.56 1517.17 426.15 1517.12 419.74 C 1517.89 421.19 1518.66 422.65 1519.50 424.09 C 1519.52 418.20 1516.41 412.74 1517.14 406.82 C 1517.40 405.44 1518.72 404.85 1519.78 404.13 C 1519.11 402.82 1518.50 401.52 1517.91 400.20 C 1519.22 400.60 1520.53 401.01 1521.87 401.44 C 1521.62 396.58 1522.06 391.73 1522.89 386.96 C 1523.53 384.46 1521.16 382.51 1520.24 380.49 C 1519.94 384.16 1520.85 388.06 1519.50 391.60 C 1519.26 391.72 1518.78 391.96 1518.53 392.08 C 1518.50 387.52 1518.66 382.96 1519.01 378.41 C 1520.03 379.26 1521.07 380.10 1522.14 380.93 C 1522.02 377.86 1521.98 374.79 1522.19 371.72 C 1521.48 371.00 1520.80 370.29 1520.14 369.58 C 1519.99 372.05 1519.84 374.53 1519.52 376.99 C 1519.20 373.75 1518.97 370.50 1518.52 367.28 C 1519.72 368.13 1520.93 368.96 1522.20 369.75 C 1522.62 366.86 1523.54 363.99 1523.40 361.05 C 1522.57 357.77 1521.33 354.61 1520.57 351.32 C 1521.37 351.29 1522.98 351.21 1523.78 351.18 C 1521.33 349.20 1520.20 346.20 1520.84 343.10 C 1520.20 343.20 1518.92 343.41 1518.28 343.51 C 1519.24 342.67 1520.23 341.83 1521.22 340.99 C 1520.75 340.60 1519.81 339.82 1519.34 339.43 C 1518.95 329.25 1518.55 319.05 1519.55 308.88 C 1520.27 300.71 1521.18 292.42 1519.68 284.28 C 1520.63 284.83 1521.60 285.39 1522.59 285.96 C 1519.46 282.93 1520.58 277.91 1519.33 274.02 C 1520.26 272.93 1521.21 271.82 1522.02 270.63 C 1521.02 269.73 1520.04 268.84 1519.09 267.94 C 1520.57 267.35 1522.09 266.77 1523.61 266.19 C 1524.06 263.91 1525.25 261.63 1527.54 260.73 C 1527.09 262.44 1526.73 264.18 1526.26 265.89 C 1527.50 264.74 1528.74 263.60 1530.02 262.48 C 1529.31 265.82 1528.62 269.44 1531.60 271.92 C 1531.68 269.49 1531.68 267.06 1531.90 264.65 C 1533.18 266.51 1533.66 268.74 1536.57 268.61 M 1518.12 408.00 C 1519.17 410.18 1518.69 412.59 1518.33 414.88 C 1521.13 414.97 1519.37 418.69 1521.04 420.17 C 1522.26 421.31 1521.56 422.79 1520.87 424.00 C 1521.14 424.57 1521.69 425.72 1521.96 426.30 C 1521.56 427.75 1521.10 429.18 1520.81 430.66 C 1522.95 429.62 1523.66 427.16 1523.06 424.99 C 1522.06 421.67 1523.65 418.16 1522.17 414.93 C 1522.49 414.55 1523.13 413.79 1523.45 413.41 L 1522.25 412.63 C 1522.14 409.74 1522.40 406.83 1522.21 403.94 C 1520.47 404.84 1519.22 406.43 1518.12 408.00 M 1544.53 432.97 C 1547.38 431.21 1545.74 427.34 1545.39 424.75 C 1544.07 427.28 1544.14 430.21 1544.53 432.97 M 1539.31 430.96 C 1541.12 433.15 1541.56 435.97 1541.39 438.75 C 1540.79 438.69 1539.58 438.56 1538.97 438.50 C 1539.47 439.20 1539.99 439.89 1540.53 440.60 C 1540.45 442.07 1540.44 443.55 1540.48 445.04 C 1543.19 439.49 1543.29 433.15 1541.42 427.34 C 1540.69 428.54 1539.98 429.74 1539.31 430.96 M 1540.04 449.76 C 1540.60 450.86 1541.18 451.97 1541.78 453.08 C 1543.39 451.01 1543.89 448.42 1543.79 445.85 C 1542.05 446.62 1540.90 448.12 1540.04 449.76 Z" />
<path fill="#ffffff" opacity="1.00" d=" M 1267.33 286.22 C 1271.43 283.73 1277.43 289.45 1275.69 293.94 C 1271.36 296.00 1265.91 290.67 1267.33 286.22 Z" />
<path fill="#ffffff" opacity="1.00" d=" M 1012.14 305.99 C 1015.01 304.85 1017.84 303.42 1020.96 303.05 C 1024.18 303.14 1027.05 304.75 1029.99 305.92 C 1032.75 307.29 1035.88 306.82 1038.86 307.14 C 1038.75 307.69 1038.53 308.78 1038.42 309.33 C 1032.54 309.27 1026.65 309.41 1020.77 309.21 C 1020.12 307.61 1019.53 305.97 1018.56 304.55 C 1017.56 305.79 1016.76 307.13 1016.16 308.59 C 1014.49 308.29 1013.21 307.21 1012.14 305.99 Z" />
<path fill="#ffffff" opacity="1.00" d=" M 847.66 419.42 C 853.61 419.42 859.56 419.45 865.51 419.48 C 865.41 437.30 865.39 455.12 865.50 472.94 C 859.58 472.80 853.66 472.90 847.74 472.87 C 847.60 455.06 847.75 437.24 847.66 419.42 Z" />
<path fill="#ffffff" opacity="1.00" d=" M 883.39 419.46 C 886.37 419.43 889.35 419.41 892.34 419.41 C 892.27 437.23 892.35 455.06 892.30 472.89 C 889.31 472.87 886.32 472.88 883.34 472.89 C 883.54 455.08 883.43 437.27 883.39 419.46 Z" />
<path fill="#ffffff" opacity="1.00" d=" M 518.00 439.91 C 519.85 438.95 521.74 438.05 523.65 437.20 C 523.58 437.94 523.43 439.43 523.36 440.17 C 528.90 439.88 534.42 440.97 539.97 440.45 C 545.66 439.96 551.43 440.13 557.05 441.22 C 561.41 442.24 565.64 440.11 570.00 440.14 C 574.41 440.25 578.62 438.65 583.02 438.64 C 594.70 438.27 606.41 436.97 618.09 438.15 C 623.38 439.10 628.65 437.21 633.99 437.88 C 639.44 438.48 645.12 438.12 650.39 439.74 C 654.08 436.63 658.87 438.76 662.86 439.94 C 669.22 439.96 675.58 442.46 681.92 440.83 C 685.57 439.94 689.37 440.33 693.07 439.72 C 704.60 437.90 716.30 438.38 727.92 438.59 C 736.96 438.82 745.99 438.17 755.03 438.54 C 768.03 439.00 781.04 439.69 794.04 439.08 C 796.69 438.87 799.31 439.85 801.96 439.36 C 803.01 439.04 803.92 439.26 804.68 440.03 C 806.22 441.63 808.42 442.20 810.25 443.39 C 807.95 443.70 805.65 443.89 803.36 444.20 C 801.13 446.78 796.00 445.71 795.81 450.16 C 799.32 445.60 804.85 449.37 809.47 449.00 C 809.46 450.34 809.47 451.69 809.49 453.04 C 806.59 453.38 803.63 453.17 800.76 453.69 C 800.66 454.30 800.46 455.51 800.36 456.12 C 804.26 455.99 808.15 455.67 812.06 455.56 C 808.17 458.02 803.42 457.00 799.09 457.25 C 800.96 459.06 803.49 459.70 806.06 459.52 C 802.82 460.87 799.66 462.92 796.01 462.65 C 782.33 462.31 768.64 461.86 754.96 462.39 C 742.63 461.89 730.30 462.44 717.97 462.20 C 712.99 462.16 708.04 461.39 703.07 461.69 C 699.68 461.88 696.27 462.03 692.90 461.60 C 686.93 460.84 680.99 462.49 675.01 462.17 C 661.33 461.77 647.66 463.27 633.98 462.89 C 618.27 462.52 602.57 464.80 586.89 463.28 C 583.26 462.99 579.69 462.06 576.04 462.07 C 559.68 461.79 543.32 462.37 526.97 462.76 C 516.32 463.13 505.66 462.84 495.02 463.43 C 485.39 463.84 475.68 464.26 466.11 462.80 C 458.74 461.64 451.24 462.86 443.85 461.82 C 438.54 461.10 433.28 462.42 427.99 462.55 C 410.34 462.01 392.70 463.47 375.05 463.09 C 364.03 463.76 352.99 464.19 341.95 463.95 C 336.31 463.57 330.92 461.06 325.18 461.75 C 325.56 457.51 321.59 455.25 317.85 455.14 C 317.52 455.62 316.85 456.58 316.52 457.06 C 316.46 456.27 316.36 454.69 316.30 453.89 C 314.93 454.14 313.55 454.39 312.17 454.60 C 315.56 451.02 320.72 452.80 324.99 452.09 L 325.64 451.16 C 322.33 450.62 318.91 450.64 315.72 449.53 C 318.66 448.79 322.29 448.47 323.69 445.29 C 322.73 445.24 320.81 445.13 319.85 445.08 C 324.14 441.80 329.40 437.44 335.15 439.85 C 337.83 441.48 340.57 439.24 343.05 438.30 C 346.29 439.39 349.62 438.45 352.89 438.07 C 359.96 437.54 367.12 437.37 374.11 438.76 C 379.68 438.25 385.47 436.59 390.98 438.51 C 393.95 439.71 397.19 439.37 400.32 439.52 L 400.26 438.13 C 407.85 439.74 415.81 439.21 423.54 439.00 C 422.99 439.56 421.87 440.67 421.32 441.23 C 426.48 441.61 431.98 442.19 436.77 439.72 C 441.65 440.87 446.67 439.60 451.57 440.69 L 451.16 439.18 C 456.04 438.41 461.00 438.76 465.92 438.65 C 476.59 438.49 487.24 437.51 497.91 437.78 C 501.05 437.88 504.07 438.84 507.10 439.63 C 510.22 437.09 515.24 436.49 518.00 439.91 M 654.85 439.24 C 654.41 440.83 655.03 441.32 656.71 440.73 C 657.13 439.15 656.51 438.65 654.85 439.24 M 366.97 448.32 C 368.35 448.99 370.48 449.28 370.38 451.33 C 367.46 452.64 364.44 451.55 361.46 451.40 C 357.47 452.58 353.17 452.24 349.59 450.04 C 346.54 453.93 341.90 449.75 338.23 451.03 C 341.94 454.37 347.31 454.76 352.07 454.68 C 350.71 454.42 349.34 454.18 347.98 453.96 C 348.95 452.34 351.25 452.48 352.90 452.51 C 358.07 452.81 362.77 455.84 368.06 454.51 C 365.76 453.77 361.31 455.60 360.82 452.41 C 365.87 452.25 370.93 452.85 375.95 452.17 C 379.12 453.24 382.41 452.51 385.67 452.38 C 386.13 451.85 386.56 451.28 386.95 450.70 C 384.79 451.05 382.50 450.66 380.44 451.47 C 377.84 452.67 375.00 451.30 372.30 451.29 C 371.91 448.66 369.32 447.56 366.97 448.32 M 784.98 454.59 C 786.59 454.57 788.17 454.45 789.80 454.39 C 789.71 455.03 789.52 456.30 789.43 456.93 C 780.66 457.37 771.87 456.96 763.12 457.72 C 762.82 457.89 762.23 458.25 761.93 458.42 C 765.59 458.11 769.31 457.88 772.91 458.86 C 775.14 459.18 777.42 460.81 779.66 459.56 C 781.73 460.09 783.81 460.67 785.98 460.67 C 790.75 460.65 795.48 463.06 800.21 461.37 C 798.34 459.13 795.64 457.91 793.16 456.52 C 793.00 457.44 792.67 459.29 792.51 460.21 C 791.49 457.69 792.28 455.05 793.91 453.01 C 790.92 453.45 787.89 453.74 784.98 454.59 Z" />
<path fill="#ffffff" opacity="1.00" d=" M 1111.98 437.72 C 1142.29 437.91 1172.61 436.68 1202.91 437.83 C 1206.97 438.00 1210.96 439.00 1215.04 438.82 C 1229.05 438.56 1243.09 438.37 1257.08 439.26 C 1264.40 439.17 1271.65 437.73 1278.98 437.95 C 1282.61 437.96 1286.23 438.95 1289.88 438.36 C 1294.87 437.53 1299.95 437.87 1305.00 437.81 C 1317.50 437.82 1330.01 437.81 1342.50 438.45 C 1342.04 440.27 1341.62 442.09 1341.17 443.91 C 1344.77 443.59 1348.33 442.64 1351.98 442.95 C 1354.09 443.26 1356.07 442.37 1357.89 441.39 C 1352.83 441.77 1347.78 442.36 1342.84 443.48 C 1342.79 441.83 1342.76 440.19 1342.74 438.56 C 1350.18 438.65 1357.66 438.25 1365.08 439.10 C 1367.21 439.43 1369.33 438.95 1371.47 438.72 C 1370.09 440.69 1368.35 442.37 1366.93 444.29 C 1374.76 445.41 1382.69 445.64 1390.59 445.39 C 1390.64 444.48 1390.74 442.65 1390.79 441.74 C 1386.52 441.81 1382.32 441.04 1378.19 440.08 C 1375.61 441.38 1372.78 442.05 1369.95 442.41 C 1371.17 440.56 1372.86 439.07 1374.76 437.93 C 1382.79 438.39 1390.89 437.41 1398.89 438.58 C 1404.25 439.34 1410.05 437.67 1415.10 440.21 C 1412.52 440.65 1409.82 441.58 1409.04 444.35 C 1411.79 444.88 1414.54 445.49 1417.34 445.81 C 1417.69 444.53 1418.06 443.25 1418.44 441.98 C 1420.40 442.27 1422.52 443.21 1422.34 445.57 C 1424.85 445.89 1425.96 448.72 1427.80 450.19 C 1427.06 451.93 1425.85 453.41 1423.96 453.87 C 1423.49 453.43 1422.54 452.55 1422.07 452.11 C 1420.65 453.51 1418.61 453.22 1416.83 453.49 C 1418.13 453.62 1419.43 453.70 1420.77 453.80 C 1421.43 455.47 1422.07 457.14 1422.72 458.84 C 1411.61 461.18 1400.26 460.44 1389.02 461.00 C 1363.51 461.69 1338.00 461.43 1312.49 461.80 C 1311.27 460.44 1309.59 459.78 1307.89 459.33 C 1307.90 459.96 1307.93 461.20 1307.94 461.83 C 1296.96 461.30 1285.97 462.49 1274.99 461.87 C 1262.97 461.90 1251.06 459.89 1239.05 460.02 C 1230.01 459.67 1221.07 461.71 1212.04 461.25 C 1208.52 460.92 1205.15 462.36 1201.65 462.40 C 1190.81 462.66 1179.93 462.16 1169.12 463.26 C 1161.09 464.00 1152.97 464.46 1144.98 463.12 C 1140.65 463.16 1136.35 464.20 1132.00 463.82 C 1127.96 463.85 1124.14 461.93 1120.08 462.49 C 1114.38 463.07 1108.65 463.00 1102.94 462.99 C 1098.27 463.07 1093.66 461.34 1089.08 462.88 C 1071.06 464.03 1052.99 463.49 1034.96 463.96 C 1032.19 463.99 1029.21 464.37 1026.83 462.69 C 1026.38 463.00 1025.49 463.63 1025.05 463.94 C 1002.09 463.84 979.11 464.19 956.16 463.52 C 956.32 462.87 956.66 461.55 956.83 460.90 C 956.40 461.38 955.53 462.35 955.10 462.84 C 950.03 462.60 944.83 462.74 939.99 461.05 C 937.05 460.05 934.04 459.31 931.01 458.74 C 931.24 458.22 931.71 457.17 931.94 456.64 C 931.00 456.25 930.07 455.86 929.16 455.49 C 932.23 454.54 935.34 453.67 938.24 452.26 C 936.59 452.01 934.96 451.85 933.34 451.69 C 933.79 450.72 934.26 449.76 934.74 448.80 C 933.86 448.82 932.10 448.84 931.21 448.86 C 931.32 448.05 931.53 446.43 931.63 445.62 C 930.94 445.54 929.56 445.37 928.87 445.29 C 933.28 443.66 938.13 444.41 942.73 443.81 C 940.78 442.36 938.70 441.11 936.53 440.03 C 934.92 443.19 933.33 438.11 932.16 437.28 C 934.58 436.91 936.60 438.80 938.98 438.70 C 959.66 437.64 980.38 438.86 1001.05 437.70 C 1010.05 437.18 1019.01 439.18 1028.01 438.40 C 1042.96 437.24 1057.97 438.01 1072.91 438.66 C 1085.88 437.01 1098.96 437.96 1111.98 437.72 M 1390.81 445.24 C 1394.51 445.15 1398.19 444.70 1401.89 444.37 C 1400.55 443.36 1399.18 442.42 1397.79 441.52 C 1395.36 442.52 1392.55 443.09 1390.81 445.24 M 1403.19 443.22 C 1403.81 445.10 1406.41 445.58 1406.85 443.35 C 1405.89 441.84 1404.36 442.41 1403.19 443.22 Z" />
<path fill="#ffffff" opacity="1.00" d=" M 190.39 515.42 C 211.43 515.69 232.47 515.46 253.51 515.51 C 253.40 519.55 253.44 523.59 253.43 527.63 C 236.73 527.35 220.03 527.62 203.33 527.45 C 203.26 540.65 203.39 553.86 203.18 567.06 C 207.99 562.75 211.93 557.53 217.10 553.63 C 226.09 553.41 235.08 553.58 244.06 553.63 C 244.06 557.57 244.06 561.52 244.06 565.46 C 236.52 565.95 228.85 564.74 221.39 565.94 C 216.04 570.66 211.10 575.83 206.12 580.94 C 205.16 582.16 203.56 583.15 203.50 584.86 C 202.73 590.46 203.56 596.10 203.51 601.71 C 199.04 601.82 194.58 601.87 190.12 601.88 C 190.50 573.06 189.92 544.23 190.39 515.42 Z" />
<path fill="#ffffff" opacity="1.00" d=" M 570.37 515.51 C 581.86 515.37 593.36 515.48 604.87 515.46 C 604.97 519.57 604.93 523.69 604.94 527.80 C 600.89 527.69 596.85 527.60 592.80 527.50 C 592.93 548.12 592.90 568.75 592.80 589.38 C 596.82 589.47 600.84 589.39 604.86 589.27 C 604.86 593.51 604.96 597.76 604.89 602.00 L 570.48 602.00 C 570.41 597.76 570.45 593.52 570.42 589.28 C 574.38 589.36 578.33 589.44 582.29 589.51 C 582.63 568.88 582.28 548.24 582.45 527.61 C 578.44 527.62 574.44 527.68 570.44 527.76 C 570.45 523.67 570.44 519.59 570.37 515.51 Z" />
<path fill="#ffffff" opacity="1.00" d=" M 628.11 515.43 C 639.75 515.48 651.40 515.39 663.05 515.46 C 679.24 515.78 694.08 527.20 699.81 542.14 C 704.93 555.07 703.71 570.41 696.18 582.16 C 689.26 593.59 676.58 600.85 663.37 602.00 L 628.09 602.00 C 627.95 573.15 627.92 544.28 628.11 515.43 M 640.55 527.55 C 640.86 548.30 640.57 569.05 640.73 589.79 C 648.16 589.53 655.59 589.83 663.02 589.61 C 673.13 589.36 682.37 582.64 686.76 573.69 C 694.45 559.07 689.40 538.39 674.41 530.53 C 663.88 525.15 651.79 528.54 640.55 527.55 Z" />
<path fill="#ffffff" opacity="1.00" d=" M 726.06 515.40 C 737.71 515.67 749.37 515.32 761.02 515.60 C 773.68 515.72 785.55 523.00 792.74 533.20 C 800.56 543.95 802.85 558.40 799.11 571.11 C 794.50 586.78 780.58 600.14 763.96 601.65 C 751.29 602.09 738.61 601.74 725.94 601.81 C 726.18 573.01 725.89 544.20 726.06 515.40 M 738.62 527.60 C 738.65 548.36 738.76 569.12 738.55 589.88 C 745.71 589.83 752.87 590.05 760.03 589.89 C 769.61 589.76 778.82 584.15 783.60 575.90 C 792.46 561.54 788.37 540.15 773.58 531.37 C 762.93 525.17 750.23 528.48 738.62 527.60 Z" />
<path fill="#ffffff" opacity="1.00" d=" M 910.37 515.42 C 913.46 515.44 916.56 515.50 919.67 515.49 C 928.02 525.94 936.88 536.05 944.55 547.03 C 945.15 553.41 944.58 559.85 944.87 566.25 C 941.01 566.14 937.15 566.19 933.30 566.26 C 933.28 561.68 933.71 557.08 933.24 552.52 C 930.38 547.04 925.91 542.58 921.95 537.90 C 921.83 559.19 921.81 580.48 921.96 601.77 C 918.07 601.81 914.19 601.85 910.31 601.89 C 910.34 573.06 910.25 544.24 910.37 515.42 Z" />
<path fill="#ffffff" opacity="1.00" d=" M 977.06 515.39 C 981.68 515.55 986.31 515.56 990.93 515.39 C 990.91 544.20 990.75 573.01 991.01 601.82 C 987.00 601.91 982.99 601.87 978.98 601.87 C 967.80 589.87 955.93 578.52 944.99 566.30 C 951.02 565.91 957.08 566.23 963.14 566.12 C 967.91 570.67 972.12 575.78 976.98 580.24 C 977.07 558.62 976.95 537.00 977.06 515.39 Z" />
<path fill="#ffffff" opacity="1.00" d=" M 1209.98 515.43 C 1227.24 515.45 1244.49 515.43 1261.75 515.44 C 1261.74 519.50 1261.74 523.56 1261.75 527.63 C 1247.85 527.60 1233.96 527.69 1220.07 527.49 C 1220.33 548.25 1220.10 569.02 1220.19 589.78 C 1234.04 589.56 1247.90 589.78 1261.76 589.63 C 1261.74 593.75 1261.77 597.87 1261.69 602.00 L 1210.13 602.00 C 1209.72 573.15 1210.00 544.28 1209.98 515.43 Z" />
<path fill="#ffffff" opacity="1.00" d=" M 1382.81 515.50 C 1392.08 515.63 1401.35 515.74 1410.62 515.43 C 1413.89 518.40 1417.03 521.52 1420.20 524.63 C 1423.17 521.60 1426.15 518.58 1429.15 515.58 C 1438.45 515.88 1447.80 515.09 1457.07 515.88 C 1458.42 519.48 1457.31 523.72 1457.62 527.56 C 1447.32 527.66 1437.02 527.63 1426.72 527.50 C 1426.97 552.29 1426.67 577.08 1426.88 601.87 C 1422.39 601.87 1417.90 601.88 1413.42 601.87 C 1413.59 577.07 1413.32 552.28 1413.54 527.49 C 1403.28 527.63 1393.02 527.69 1382.77 527.57 C 1382.84 523.55 1382.80 519.52 1382.81 515.50 Z" />
<path fill="#ffffff" opacity="1.00" d=" M 1469.10 515.56 C 1472.87 515.49 1476.66 515.26 1480.43 515.67 C 1481.43 518.83 1478.67 519.70 1476.18 519.98 C 1476.25 526.12 1476.29 532.27 1476.39 538.42 C 1475.49 538.43 1474.61 538.44 1473.74 538.45 C 1473.72 532.13 1473.83 525.80 1473.82 519.48 C 1471.06 520.14 1468.76 518.48 1469.10 515.56 Z" />
<path fill="#ffffff" opacity="1.00" d=" M 305.43 516.58 C 313.66 514.28 322.70 515.53 330.15 519.65 C 337.63 523.66 343.15 530.58 346.95 538.04 C 353.50 551.95 352.90 569.03 345.30 582.41 C 340.54 590.73 332.83 597.54 323.61 600.43 C 314.58 603.27 304.33 601.82 296.39 596.68 C 285.89 589.96 278.89 578.35 277.16 566.08 C 275.14 554.00 278.22 541.23 285.26 531.25 C 290.16 524.38 297.14 518.68 305.43 516.58 M 309.47 527.63 C 302.73 528.96 296.86 533.36 293.06 539.01 C 284.77 551.05 285.29 568.24 294.14 579.84 C 298.67 585.68 305.65 589.74 313.07 590.22 C 322.45 590.57 331.29 584.80 335.98 576.88 C 343.81 564.07 342.36 546.01 331.87 535.09 C 326.28 529.06 317.59 525.95 309.47 527.63 Z" />
<path fill="#ffffff" opacity="1.00" d=" M 374.50 515.43 C 388.35 515.65 402.20 515.52 416.06 515.50 C 420.37 515.63 424.82 515.17 429.00 516.54 C 437.12 519.00 443.72 525.80 445.96 533.97 C 450.00 547.17 441.45 563.17 427.65 565.95 C 427.84 569.46 426.49 573.78 429.29 576.60 C 435.29 582.93 441.41 589.18 447.38 595.55 C 449.04 597.11 448.93 599.51 449.42 601.57 C 445.01 601.28 439.73 603.25 436.08 599.92 C 429.83 593.50 423.70 586.97 417.50 580.51 C 416.58 579.54 415.34 578.52 415.74 577.00 C 415.75 569.63 415.75 562.28 415.75 554.92 C 421.88 555.22 429.53 554.75 432.99 548.80 C 438.62 541.30 433.51 528.38 423.88 527.77 C 411.55 527.39 399.21 527.82 386.87 527.56 C 387.00 552.26 386.89 576.96 386.96 601.66 C 382.83 601.70 378.70 601.68 374.57 601.68 C 374.41 572.93 374.54 544.18 374.50 515.43 Z" />
<path fill="#ffffff" opacity="1.00" d=" M 472.47 602.00 C 472.58 573.14 472.60 544.29 472.46 515.43 C 487.96 515.77 503.48 515.35 518.99 515.69 C 530.56 516.22 538.91 527.93 538.77 538.93 C 539.11 545.18 536.38 551.02 532.93 556.06 C 540.45 563.35 543.67 574.92 540.20 584.92 C 537.50 593.84 529.52 601.00 520.15 602.00 L 472.47 602.00 M 483.83 527.76 C 484.27 548.37 483.70 568.98 484.10 589.59 C 495.71 589.36 507.32 589.61 518.92 589.51 C 525.13 589.61 529.96 583.97 530.61 578.11 C 531.49 571.85 527.75 564.38 521.17 563.11 C 514.89 562.36 508.55 562.96 502.25 562.88 C 502.24 558.92 502.29 554.95 502.18 551.00 C 507.81 550.70 513.46 551.05 519.09 550.77 C 522.11 550.70 524.32 548.27 525.99 546.02 C 530.21 540.11 527.34 530.04 520.09 528.14 C 508.03 527.35 495.91 528.21 483.83 527.76 Z" />
<path fill="#ffffff" opacity="1.00" d=" M 823.94 515.43 C 843.13 515.63 862.31 515.60 881.50 515.43 C 881.50 519.54 881.51 523.64 881.48 527.75 C 865.98 527.56 850.48 527.84 834.99 527.56 C 835.43 548.27 834.97 568.98 835.19 589.70 C 850.63 589.62 866.06 589.82 881.50 589.53 C 881.41 593.68 881.45 597.84 881.40 602.00 L 824.13 602.00 C 823.93 599.67 823.91 597.34 823.92 595.02 C 824.09 568.49 823.97 541.96 823.94 515.43 Z" />
<path fill="#ffffff" opacity="1.00" d=" M 1054.38 515.49 C 1058.48 515.60 1062.60 515.53 1066.72 515.55 C 1076.30 540.28 1084.97 565.38 1094.91 589.96 C 1095.30 589.85 1096.08 589.64 1096.47 589.53 C 1100.06 581.91 1102.19 573.69 1105.61 565.98 C 1106.60 562.63 1109.08 559.09 1107.58 555.57 C 1102.85 542.13 1097.54 528.90 1092.70 515.49 C 1096.81 515.59 1100.92 515.58 1105.04 515.48 C 1108.53 523.92 1111.14 532.71 1114.88 541.06 C 1117.96 532.60 1121.21 524.19 1124.26 515.71 C 1128.49 515.53 1132.73 515.60 1136.98 515.43 C 1131.65 529.58 1125.92 543.61 1121.21 557.98 C 1123.41 565.62 1126.80 572.87 1129.35 580.41 C 1130.62 584.05 1131.85 587.78 1134.14 590.94 C 1144.30 566.06 1153.11 540.67 1162.66 515.56 C 1166.88 515.56 1171.11 515.57 1175.34 515.50 C 1164.25 544.13 1153.71 572.97 1142.98 601.74 C 1136.92 601.83 1130.86 601.80 1124.81 601.83 C 1121.69 592.76 1118.24 583.80 1114.79 574.85 C 1110.81 583.63 1108.37 593.20 1104.23 601.78 C 1098.39 601.90 1092.55 601.72 1086.72 601.86 C 1075.75 573.14 1065.18 544.27 1054.38 515.49 Z" />
<path fill="#ffffff" opacity="1.00" d=" M 1308.07 523.14 C 1314.03 517.25 1322.74 515.03 1330.94 515.48 C 1341.90 515.70 1352.31 522.14 1357.96 531.44 C 1355.24 533.56 1352.54 535.72 1349.72 537.70 C 1344.99 532.26 1338.28 528.33 1330.98 527.92 C 1325.55 527.66 1319.60 528.59 1315.45 532.37 C 1312.39 535.22 1310.22 539.97 1312.41 543.96 C 1314.41 548.36 1319.62 549.46 1323.83 550.68 C 1334.09 553.01 1345.95 553.19 1353.92 561.04 C 1363.57 571.72 1361.03 591.21 1348.53 598.66 C 1344.78 600.93 1340.34 601.92 1335.99 601.85 C 1329.26 601.70 1322.54 602.03 1315.82 601.71 C 1308.83 594.34 1302.76 586.17 1296.37 578.29 C 1298.59 575.65 1300.69 572.91 1302.78 570.17 C 1308.60 576.52 1313.58 583.58 1319.21 590.10 C 1325.48 590.04 1331.76 590.40 1338.04 590.01 C 1347.65 589.79 1352.95 575.72 1346.06 569.12 C 1341.43 564.75 1334.77 564.21 1328.88 562.80 C 1320.47 561.19 1310.95 559.88 1305.13 552.90 C 1298.44 544.18 1300.30 530.60 1308.07 523.14 Z" />
<path fill="#ffffff" opacity="1.00" d=" M 1480.68 515.48 C 1482.49 515.87 1484.72 515.49 1486.28 516.72 C 1489.07 521.44 1489.69 527.16 1492.33 531.95 C 1494.77 526.87 1496.55 521.53 1498.19 516.16 C 1499.98 515.93 1501.78 515.72 1503.61 515.51 C 1503.86 523.15 1503.72 530.80 1503.72 538.44 C 1502.39 537.89 1501.09 537.35 1499.80 536.82 C 1499.59 532.14 1500.39 527.43 1499.66 522.79 C 1497.49 527.79 1495.52 532.87 1493.61 537.97 C 1493.02 537.87 1491.85 537.68 1491.27 537.58 C 1488.28 532.70 1487.23 526.95 1484.75 521.85 C 1484.35 527.32 1484.54 532.81 1484.50 538.29 C 1483.26 537.91 1482.03 537.53 1480.83 537.16 C 1480.52 529.94 1481.08 522.70 1480.68 515.48 Z" />
<path fill="#ffffff" opacity="1.00" d=" M 847.00 550.07 C 854.66 549.99 862.31 549.96 869.97 550.07 C 869.78 553.87 869.75 557.69 869.89 561.50 C 862.24 561.50 854.59 561.50 846.94 561.50 C 847.02 557.69 846.99 553.88 847.00 550.07 Z" />
<path fill="#ffffff" opacity="1.00" d=" M 1238.75 550.00 C 1242.58 549.99 1246.41 549.97 1250.25 550.08 C 1250.24 553.88 1250.24 557.69 1250.25 561.50 C 1246.41 561.50 1242.58 561.50 1238.75 561.50 C 1238.74 557.66 1238.74 553.83 1238.75 550.00 Z" />
</g>
</svg>
