<?xml version="1.0" encoding="UTF-8" ?>
<!DOCTYPE svg PUBLIC "-//W3C//DTD SVG 1.1//EN" "http://www.w3.org/Graphics/SVG/1.1/DTD/svg11.dtd">
<svg width="463pt" height="354pt" viewBox="0 0 463 354" version="1.1" xmlns="http://www.w3.org/2000/svg">
<g id="#fefefeff">
<path fill="#fefefe" opacity="1.00" d=" M 178.82 7.84 C 191.11 3.79 203.91 0.39 216.95 1.12 C 237.23 0.46 257.72 4.88 275.77 14.20 C 286.35 19.38 295.74 26.65 304.46 34.49 C 313.78 44.27 321.82 55.40 327.08 67.90 C 327.77 69.05 328.11 71.20 329.92 70.87 C 334.59 70.78 339.29 70.63 343.88 71.66 C 372.76 73.89 400.67 91.35 413.23 117.80 C 418.15 127.74 420.17 138.83 420.78 149.82 C 420.00 161.00 417.68 172.24 412.38 182.22 C 409.72 182.59 407.06 182.98 404.39 183.33 C 403.53 175.83 402.19 168.41 401.15 160.94 C 400.42 156.06 399.93 150.98 397.53 146.58 C 392.61 136.77 382.17 130.41 371.38 129.37 C 360.32 128.67 349.51 131.80 338.56 132.76 L 338.44 133.21 C 333.93 133.08 329.50 134.24 325.00 134.21 C 314.70 134.96 303.56 136.31 295.59 143.57 C 289.80 149.20 285.08 155.82 279.79 161.90 C 274.92 167.39 271.28 174.50 271.77 182.01 C 271.38 188.23 274.10 194.02 274.19 200.19 C 262.60 200.66 249.73 201.49 240.66 209.67 C 234.98 215.09 230.58 221.68 225.23 227.41 C 153.47 227.45 81.72 227.27 9.96 227.34 C 6.01 227.71 1.68 225.31 1.09 221.15 C 0.39 217.92 2.02 214.42 5.08 213.09 C 20.65 204.71 36.33 196.54 51.92 188.19 C 47.07 177.20 44.48 164.96 46.32 152.98 C 46.38 145.98 49.28 139.42 52.09 133.14 C 62.28 112.91 83.01 98.97 105.21 95.49 C 105.50 94.98 106.08 93.97 106.37 93.46 C 108.79 69.52 121.86 47.58 139.09 31.19 C 150.84 21.17 164.16 12.87 178.82 7.84 Z" />
<path fill="#fefefe" opacity="1.00" d=" M 317.99 148.60 C 334.71 146.86 351.35 144.38 368.06 142.52 C 371.99 142.05 375.93 145.01 376.27 149.01 C 379.05 167.24 381.82 185.47 384.65 203.69 C 403.48 202.00 422.20 199.37 440.95 196.99 C 445.84 196.15 453.72 195.54 454.88 201.98 C 456.58 208.93 457.29 216.07 458.39 223.14 C 459.32 232.50 461.59 241.67 462.42 251.03 C 462.96 254.25 460.64 256.82 458.73 259.08 C 454.47 259.08 450.21 259.30 446.00 259.99 C 428.82 262.44 411.53 264.06 394.33 266.38 C 394.93 271.56 395.55 276.75 396.32 281.91 C 398.33 294.97 400.26 308.05 402.43 321.08 C 402.96 323.93 401.60 326.64 399.74 328.71 C 395.07 334.10 390.65 339.70 385.91 345.02 C 383.97 347.25 380.82 347.36 378.12 347.81 C 369.93 348.85 361.75 350.00 353.53 350.85 C 344.47 351.75 335.52 353.58 326.41 354.00 L 323.34 354.00 C 320.52 353.19 318.52 350.76 318.01 347.92 C 315.03 329.56 312.70 311.09 309.63 292.74 C 289.71 294.86 269.88 297.75 249.99 300.11 C 247.31 300.46 244.39 300.47 242.07 298.88 C 239.62 297.45 239.03 294.43 238.65 291.85 C 237.45 281.94 235.58 272.12 234.34 262.21 C 233.58 255.83 231.28 249.56 231.88 243.07 C 234.93 237.65 239.59 233.35 243.46 228.53 C 245.56 226.22 247.15 223.36 249.77 221.60 C 254.19 219.50 259.25 219.69 263.99 218.90 C 275.22 217.26 286.55 216.53 297.76 214.75 C 296.02 201.48 293.75 188.28 291.97 175.01 C 291.21 171.36 294.26 168.69 296.22 166.06 C 300.53 161.06 304.72 155.97 309.08 151.01 C 311.62 149.21 314.99 149.13 317.99 148.60 M 321.49 199.72 C 324.04 199.63 326.61 199.57 329.15 199.21 C 344.09 196.88 359.20 195.83 374.12 193.30 C 370.01 187.65 365.21 182.56 360.68 177.27 C 354.20 169.87 347.87 162.32 340.91 155.37 C 334.68 170.26 327.95 184.93 321.49 199.72 M 417.61 209.70 C 408.47 211.75 399.89 219.19 399.07 228.92 C 397.49 240.51 407.55 251.61 418.93 252.49 C 427.92 254.08 437.82 250.68 443.25 243.19 C 449.50 235.13 448.21 222.14 440.22 215.71 C 434.18 210.31 425.51 208.18 417.61 209.70 M 260.01 231.50 C 262.73 244.44 263.85 257.65 266.44 270.62 C 280.78 268.71 295.17 267.11 309.50 265.10 C 308.00 251.96 305.65 238.94 303.69 225.87 C 289.13 227.75 274.49 229.09 260.01 231.50 M 362.77 296.53 C 356.57 292.45 350.78 287.73 344.24 284.17 C 342.58 285.95 341.00 287.80 339.49 289.72 C 345.39 294.29 352.00 297.88 357.67 302.77 C 353.86 308.82 348.57 313.69 344.28 319.37 C 345.46 320.73 346.63 322.10 347.80 323.48 C 349.67 322.98 351.85 322.79 353.10 321.08 C 357.16 316.65 360.69 311.76 364.78 307.35 C 371.31 311.34 377.34 316.12 384.01 319.91 C 385.53 318.03 387.07 316.17 388.63 314.32 C 382.52 309.78 375.94 305.90 369.92 301.22 C 374.18 295.61 379.14 290.58 383.34 284.92 C 382.77 283.74 382.21 282.56 381.64 281.39 C 380.10 281.15 378.57 280.90 377.04 280.66 C 371.73 285.45 368.23 291.88 362.77 296.53 Z" />
<path fill="#fefefe" opacity="1.00" d=" M 343.71 169.79 C 348.85 175.83 354.38 181.54 359.24 187.82 C 350.98 189.06 342.68 190.04 334.36 190.70 C 337.39 183.70 340.23 176.60 343.71 169.79 Z" />
<path fill="#fefefe" opacity="1.00" d=" M 417.36 217.62 C 425.62 214.44 436.69 219.06 438.71 228.04 C 440.61 235.75 434.52 243.71 426.97 245.09 C 418.92 247.09 409.22 242.30 407.31 233.92 C 405.79 226.88 410.66 219.70 417.36 217.62 Z" />
<path fill="#fefefe" opacity="1.00" d=" M 269.49 237.50 C 278.61 236.57 287.63 234.88 296.77 234.28 C 297.95 242.51 299.58 250.67 300.31 258.95 C 291.26 259.99 282.25 261.31 273.18 262.17 C 271.94 253.95 270.36 245.77 269.49 237.50 Z" />
</g>
<g id="#c38e07c4">
<path fill="#c38e07" opacity="0.77" d=" M 321.49 199.72 C 327.95 184.93 334.68 170.26 340.91 155.37 C 347.87 162.32 354.20 169.87 360.68 177.27 C 365.21 182.56 370.01 187.65 374.12 193.30 C 359.20 195.83 344.09 196.88 329.15 199.21 C 326.61 199.57 324.04 199.63 321.49 199.72 M 343.71 169.79 C 340.23 176.60 337.39 183.70 334.36 190.70 C 342.68 190.04 350.98 189.06 359.24 187.82 C 354.38 181.54 348.85 175.83 343.71 169.79 Z" />
<path fill="#c38e07" opacity="0.77" d=" M 417.61 209.70 C 425.51 208.18 434.18 210.31 440.22 215.71 C 448.21 222.14 449.50 235.13 443.25 243.19 C 437.82 250.68 427.92 254.08 418.93 252.49 C 407.55 251.61 397.49 240.51 399.07 228.92 C 399.89 219.19 408.47 211.75 417.61 209.70 M 417.36 217.62 C 410.66 219.70 405.79 226.88 407.31 233.92 C 409.22 242.30 418.92 247.09 426.97 245.09 C 434.52 243.71 440.61 235.75 438.71 228.04 C 436.69 219.06 425.62 214.44 417.36 217.62 Z" />
<path fill="#c38e07" opacity="0.77" d=" M 260.01 231.50 C 274.49 229.09 289.13 227.75 303.69 225.87 C 305.65 238.94 308.00 251.96 309.50 265.10 C 295.17 267.11 280.78 268.71 266.44 270.62 C 263.85 257.65 262.73 244.44 260.01 231.50 M 269.49 237.50 C 270.36 245.77 271.94 253.95 273.18 262.17 C 282.25 261.31 291.26 259.99 300.31 258.95 C 299.58 250.67 297.95 242.51 296.77 234.28 C 287.63 234.88 278.61 236.57 269.49 237.50 Z" />
<path fill="#c38e07" opacity="0.77" d=" M 362.77 296.53 C 368.23 291.88 371.73 285.45 377.04 280.66 C 378.57 280.90 380.10 281.15 381.64 281.39 C 382.21 282.56 382.77 283.74 383.34 284.92 C 379.14 290.58 374.18 295.61 369.92 301.22 C 375.94 305.90 382.52 309.78 388.63 314.32 C 387.07 316.17 385.53 318.03 384.01 319.91 C 377.34 316.12 371.31 311.34 364.78 307.35 C 360.69 311.76 357.16 316.65 353.10 321.08 C 351.85 322.79 349.67 322.98 347.80 323.48 C 346.63 322.10 345.46 320.73 344.28 319.37 C 348.57 313.69 353.86 308.82 357.67 302.77 C 352.00 297.88 345.39 294.29 339.49 289.72 C 341.00 287.80 342.58 285.95 344.24 284.17 C 350.78 287.73 356.57 292.45 362.77 296.53 Z" />
</g>
<g id="#d2d2d2ff">
<path fill="#d2d2d2" opacity="1.00" d=" M 446.00 259.99 C 450.21 259.30 454.47 259.08 458.73 259.08 C 455.84 262.40 452.79 265.59 450.17 269.13 C 448.43 271.42 446.69 273.88 444.08 275.24 C 441.29 276.79 438.01 276.70 434.95 277.16 C 422.07 278.74 409.21 280.48 396.32 281.91 C 395.55 276.75 394.93 271.56 394.33 266.38 C 411.53 264.06 428.82 262.44 446.00 259.99 Z" />
</g>
</svg>
