<?xml version="1.0" encoding="UTF-8" ?>
<!DOCTYPE svg PUBLIC "-//W3C//DTD SVG 1.1//EN" "http://www.w3.org/Graphics/SVG/1.1/DTD/svg11.dtd">
<svg width="442pt" height="394pt" viewBox="0 0 442 394" version="1.1" xmlns="http://www.w3.org/2000/svg">
<g id="#fefefeff">
<path fill="#fefefe" opacity="1.00" d=" M 104.33 7.06 C 105.21 3.71 108.29 0.46 112.01 0.98 C 188.67 1.17 265.33 1.22 341.99 0.99 C 345.86 0.75 350.08 2.42 352.01 5.93 C 353.35 8.43 352.23 11.29 352.37 13.96 C 352.02 64.29 352.69 114.62 352.15 164.95 C 344.19 166.75 336.01 167.39 327.87 167.39 C 327.61 121.94 327.83 76.47 327.73 31.01 C 327.73 28.26 326.36 25.39 323.78 24.21 C 321.03 23.03 317.97 23.12 315.04 22.95 C 244.84 22.37 174.61 23.45 104.41 22.48 C 104.55 17.34 103.12 12.14 104.33 7.06 Z" />
<path fill="#fefefe" opacity="1.00" d=" M 51.84 54.83 C 53.39 51.83 56.52 49.39 59.99 49.28 C 127.63 48.47 195.29 49.08 262.93 49.00 C 271.98 48.74 281.04 48.93 290.09 49.03 C 294.56 48.99 298.70 52.61 299.23 57.05 C 299.71 61.34 299.46 65.67 299.63 69.97 C 299.52 103.75 299.86 137.53 299.49 171.31 C 293.66 173.89 287.11 175.80 282.75 180.73 C 280.63 183.02 278.57 185.37 276.10 187.30 C 276.36 153.19 276.22 119.08 276.24 84.96 C 276.16 80.81 276.06 75.38 271.98 73.04 C 267.44 71.78 262.66 72.00 257.99 71.79 C 189.21 71.59 120.43 72.03 51.65 71.51 C 51.37 65.95 51.22 60.36 51.84 54.83 Z" />
<path fill="#fefefe" opacity="1.00" d=" M 0.00 102.38 C 0.90 99.48 4.02 98.01 6.88 98.13 C 83.92 97.30 160.96 98.23 238.00 97.73 C 240.96 97.46 244.12 98.67 245.52 101.42 C 247.88 104.86 246.89 109.15 247.00 113.04 C 247.00 155.04 247.00 197.05 247.00 239.05 C 236.25 242.61 224.98 246.56 216.94 254.91 C 207.55 264.02 202.71 277.07 202.01 289.98 C 201.35 302.43 204.55 314.61 205.92 326.91 C 201.27 326.33 196.64 327.22 191.99 327.25 C 137.32 327.25 82.65 327.25 27.98 327.25 C 21.27 327.23 14.56 327.32 7.86 326.96 C 5.19 326.89 2.84 325.59 0.74 324.05 C 0.47 321.90 0.13 319.76 0.00 317.60 L 0.00 102.38 M 59.47 171.57 C 53.12 177.15 50.27 185.55 48.75 193.63 C 46.17 207.91 44.08 222.28 41.84 236.62 C 41.12 243.13 40.19 250.23 42.58 256.44 C 53.82 264.49 71.12 261.22 79.23 250.20 C 84.90 243.39 89.48 235.79 94.25 228.35 C 112.99 227.99 131.73 228.26 150.47 228.39 C 158.10 236.01 162.47 246.24 170.08 253.86 C 178.11 261.08 190.07 262.31 200.09 259.18 C 202.49 257.89 204.47 255.53 204.69 252.74 C 205.42 244.81 204.04 236.90 202.77 229.11 C 200.37 214.34 198.28 199.51 194.94 184.93 C 190.94 170.27 174.10 160.95 159.50 164.64 C 153.22 166.48 147.76 170.19 142.04 173.25 C 140.49 174.02 138.94 175.00 137.15 174.95 C 129.78 175.34 122.41 175.30 115.04 175.07 C 111.97 174.90 108.71 175.36 105.87 173.94 C 98.85 171.03 92.70 166.07 85.22 164.29 C 76.16 163.22 66.39 165.40 59.47 171.57 Z" />
<path fill="#fefefe" opacity="1.00" d=" M 306.84 182.37 C 320.92 180.61 334.98 178.64 349.06 176.89 C 353.02 176.22 357.15 179.13 357.55 183.19 C 360.26 201.92 363.02 220.65 365.79 239.37 C 382.93 237.77 399.98 235.34 417.04 233.02 C 421.03 232.60 425.06 231.59 429.08 232.23 C 431.89 232.62 434.25 234.94 434.58 237.79 C 436.86 248.46 437.77 259.36 439.40 270.13 C 440.43 276.19 441.44 282.25 442.00 288.37 L 442.00 289.88 C 440.36 294.51 436.46 297.76 433.51 301.53 C 430.60 304.67 428.65 308.64 425.41 311.47 C 422.76 313.79 419.10 313.87 415.80 314.32 C 402.95 315.74 390.21 318.16 377.30 318.94 C 378.43 329.73 380.56 340.40 381.84 351.18 C 382.31 355.93 384.83 361.28 381.72 365.63 C 376.97 371.57 372.22 377.52 367.41 383.41 C 365.76 385.70 362.80 386.17 360.21 386.55 C 351.46 387.72 342.73 389.02 333.95 389.94 C 324.93 390.90 316.01 393.01 306.90 392.96 C 303.14 393.21 300.84 389.34 300.41 386.07 C 297.61 367.54 295.32 348.92 292.35 330.42 C 272.55 332.64 252.84 335.66 233.06 338.04 C 229.69 338.60 225.67 337.45 224.08 334.20 C 222.51 330.34 222.65 326.06 221.94 322.01 C 220.08 310.62 218.90 299.12 216.70 287.79 C 216.47 284.43 215.09 280.47 217.45 277.56 C 221.65 271.44 226.87 266.10 231.25 260.11 C 232.56 258.03 234.76 256.84 237.14 256.47 C 251.59 254.02 266.24 253.00 280.71 250.66 C 279.12 237.79 277.09 224.99 275.31 212.15 C 275.16 210.01 274.51 207.59 275.84 205.69 C 279.58 199.93 284.34 194.94 288.53 189.52 C 289.87 187.91 291.04 186.06 292.81 184.87 C 297.25 183.06 302.14 182.99 306.84 182.37 M 304.05 235.33 C 311.62 235.10 319.05 233.41 326.57 232.66 C 336.29 231.61 345.98 230.27 355.63 228.73 C 345.15 215.53 334.38 202.54 323.08 190.03 C 316.81 205.16 310.30 220.19 304.05 235.33 M 399.22 245.26 C 390.78 246.84 382.94 253.09 380.53 261.48 C 378.78 268.22 380.04 275.86 384.78 281.14 C 393.47 292.45 412.53 292.39 421.67 281.65 C 429.49 273.36 428.64 258.51 419.79 251.27 C 414.23 246.45 406.51 244.15 399.22 245.26 M 243.83 267.88 C 246.42 281.09 247.59 294.53 250.08 307.75 C 264.12 305.85 278.18 304.17 292.20 302.10 C 290.73 288.69 288.56 275.37 286.47 262.05 C 272.27 264.06 257.93 265.25 243.83 267.88 M 358.35 318.14 C 353.14 322.95 349.77 329.37 344.52 334.14 C 338.19 330.33 332.73 325.21 326.22 321.67 C 324.59 323.42 323.08 325.28 321.64 327.19 C 327.29 332.02 333.98 335.52 339.36 340.70 C 335.68 346.87 330.36 351.79 326.32 357.70 C 327.47 359.05 328.62 360.42 329.76 361.80 C 331.10 361.51 332.42 361.12 333.71 360.64 C 338.39 355.85 341.76 349.92 346.67 345.33 C 352.82 349.58 358.61 354.38 365.15 358.05 C 366.66 356.23 368.15 354.40 369.62 352.55 C 363.81 347.74 357.25 343.92 351.44 339.10 C 355.46 333.23 360.59 328.22 364.49 322.26 C 363.87 321.06 363.27 319.88 362.67 318.69 C 361.22 318.51 359.78 318.32 358.35 318.14 Z" />
<path fill="#fefefe" opacity="1.00" d=" M 325.65 204.83 C 330.90 210.82 336.06 216.92 340.97 223.21 C 332.84 224.44 324.68 225.49 316.48 226.16 C 319.50 219.04 322.31 211.81 325.65 204.83 Z" />
<path fill="#fefefe" opacity="1.00" d=" M 398.38 253.42 C 406.78 250.34 417.48 255.90 418.84 264.96 C 420.42 273.26 413.36 281.54 405.09 282.02 C 397.48 283.00 389.39 277.74 387.94 270.07 C 386.49 262.89 391.46 255.42 398.38 253.42 Z" />
<path fill="#fefefe" opacity="1.00" d=" M 253.13 273.89 C 262.00 272.96 270.79 271.33 279.69 270.56 C 281.07 278.96 282.43 287.36 283.26 295.83 C 274.40 296.91 265.57 298.24 256.69 299.16 C 255.51 290.73 253.85 282.37 253.13 273.89 Z" />
</g>
<g id="#c38e07c4">
<path fill="#c38e07" opacity="0.77" d=" M 304.05 235.33 C 310.30 220.19 316.81 205.16 323.08 190.03 C 334.38 202.54 345.15 215.53 355.63 228.73 C 345.98 230.27 336.29 231.61 326.57 232.66 C 319.05 233.41 311.62 235.10 304.05 235.33 M 325.65 204.83 C 322.31 211.81 319.50 219.04 316.48 226.16 C 324.68 225.49 332.84 224.44 340.97 223.21 C 336.06 216.92 330.90 210.82 325.65 204.83 Z" />
<path fill="#c38e07" opacity="0.77" d=" M 399.22 245.26 C 406.51 244.15 414.23 246.45 419.79 251.27 C 428.64 258.51 429.49 273.36 421.67 281.65 C 412.53 292.39 393.47 292.45 384.78 281.14 C 380.04 275.86 378.78 268.22 380.53 261.48 C 382.94 253.09 390.78 246.84 399.22 245.26 M 398.38 253.42 C 391.46 255.42 386.49 262.89 387.94 270.07 C 389.39 277.74 397.48 283.00 405.09 282.02 C 413.36 281.54 420.42 273.26 418.84 264.96 C 417.48 255.90 406.78 250.34 398.38 253.42 Z" />
<path fill="#c38e07" opacity="0.77" d=" M 243.83 267.88 C 257.93 265.25 272.27 264.06 286.47 262.05 C 288.56 275.37 290.73 288.69 292.20 302.10 C 278.18 304.17 264.12 305.85 250.08 307.75 C 247.59 294.53 246.42 281.09 243.83 267.88 M 253.13 273.89 C 253.85 282.37 255.51 290.73 256.69 299.16 C 265.57 298.24 274.40 296.91 283.26 295.83 C 282.43 287.36 281.07 278.96 279.69 270.56 C 270.79 271.33 262.00 272.96 253.13 273.89 Z" />
<path fill="#c38e07" opacity="0.77" d=" M 358.35 318.14 C 359.78 318.32 361.22 318.51 362.67 318.69 C 363.27 319.88 363.87 321.06 364.49 322.26 C 360.59 328.22 355.46 333.23 351.44 339.10 C 357.25 343.92 363.81 347.74 369.62 352.55 C 368.15 354.40 366.66 356.23 365.15 358.05 C 358.61 354.38 352.82 349.58 346.67 345.33 C 341.76 349.92 338.39 355.85 333.71 360.64 C 332.42 361.12 331.10 361.51 329.76 361.80 C 328.62 360.42 327.47 359.05 326.32 357.70 C 330.36 351.79 335.68 346.87 339.36 340.70 C 333.98 335.52 327.29 332.02 321.64 327.19 C 323.08 325.28 324.59 323.42 326.22 321.67 C 332.73 325.21 338.19 330.33 344.52 334.14 C 349.77 329.37 353.14 322.95 358.35 318.14 Z" />
</g>
</svg>
