<?xml version="1.0" encoding="UTF-8" ?>
<!DOCTYPE svg PUBLIC "-//W3C//DTD SVG 1.1//EN" "http://www.w3.org/Graphics/SVG/1.1/DTD/svg11.dtd">
<svg width="527pt" height="393pt" viewBox="0 0 527 393" version="1.1" xmlns="http://www.w3.org/2000/svg">
<g id="#fefefeff">
<path fill="#fefefe" opacity="1.00" d=" M 324.51 0.00 L 327.88 0.00 C 330.60 0.34 333.32 0.91 335.83 2.06 C 348.80 7.18 352.12 26.64 342.30 36.26 C 338.19 40.81 332.11 43.09 326.09 43.45 C 320.72 43.34 315.90 38.42 310.48 40.55 C 297.08 44.82 285.82 54.63 278.81 66.71 C 274.14 75.56 272.23 85.58 271.64 95.49 C 263.59 102.51 254.67 108.45 245.23 113.44 C 241.16 96.68 242.13 78.67 248.32 62.55 C 256.33 41.40 273.35 23.90 294.23 15.22 C 299.77 12.88 305.98 11.57 310.50 7.33 C 314.48 3.81 319.00 0.39 324.51 0.00 Z" />
<path fill="#fefefe" opacity="1.00" d=" M 362.66 35.55 C 363.08 29.95 363.89 24.39 364.81 18.86 C 365.34 18.86 366.40 18.86 366.93 18.86 C 393.14 32.55 410.04 61.55 410.36 90.98 C 412.21 128.61 384.53 165.20 347.99 174.06 C 336.64 176.75 324.72 178.17 313.15 176.07 C 297.00 173.22 281.75 165.60 269.64 154.57 C 269.35 154.14 268.79 153.28 268.51 152.85 C 272.91 149.19 278.13 146.60 283.57 144.89 C 290.61 149.27 297.62 153.90 305.51 156.60 C 314.97 159.91 325.18 160.43 335.11 159.74 C 353.52 156.50 371.55 146.73 381.78 130.68 C 390.04 119.63 393.65 105.63 393.63 91.96 C 393.94 80.36 389.92 69.22 384.76 59.02 C 379.49 49.46 370.91 42.43 362.66 35.55 Z" />
<path fill="#fefefe" opacity="1.00" d=" M 251.43 129.94 C 277.15 112.78 302.94 95.73 328.98 79.07 C 332.22 84.31 335.41 89.59 338.41 94.97 C 338.48 95.68 338.64 97.08 338.71 97.78 C 322.60 106.51 305.92 114.15 289.74 122.74 C 281.87 126.99 273.74 130.73 265.83 134.88 C 262.77 136.67 259.54 138.14 256.17 139.24 C 254.31 136.29 252.70 133.19 251.43 129.94 Z" />
<path fill="#fefefe" opacity="1.00" d=" M 35.90 190.99 C 41.13 162.72 69.27 140.78 98.01 142.98 C 104.42 143.70 110.40 146.28 116.27 148.79 C 125.52 153.07 133.45 159.61 142.23 164.72 C 143.41 165.33 144.59 166.14 145.98 166.12 C 161.63 166.93 177.30 166.12 192.96 166.43 C 197.61 166.26 202.36 167.06 206.92 165.95 C 213.80 162.43 219.81 157.49 226.43 153.54 C 228.80 152.17 231.15 150.51 233.96 150.22 C 250.71 177.50 279.89 197.38 311.96 200.76 C 313.57 201.16 315.90 200.44 316.77 202.29 C 321.56 216.19 325.42 230.48 327.26 245.09 C 327.43 247.35 327.82 249.70 327.23 251.92 C 318.45 258.19 310.25 266.03 306.25 276.28 C 302.95 284.37 302.66 293.34 303.59 301.94 C 304.54 310.98 305.37 320.09 307.50 328.96 C 308.93 334.48 310.87 340.39 315.64 343.95 C 308.42 349.97 298.20 348.30 289.97 345.56 C 279.40 341.72 268.99 335.84 262.32 326.53 C 251.35 312.47 241.85 297.30 233.45 281.58 C 232.48 279.85 231.38 278.20 230.23 276.59 C 193.69 276.37 157.14 276.24 120.60 276.62 C 109.72 296.71 98.04 316.66 82.60 333.63 C 72.57 342.23 59.02 346.19 45.92 345.73 C 39.21 345.34 32.21 344.28 26.50 340.47 C 22.32 337.65 18.82 333.30 18.26 328.15 C 17.20 318.74 18.14 309.27 19.32 299.93 C 21.84 276.46 25.92 253.21 29.38 229.87 C 31.35 216.88 33.43 203.90 35.90 190.99 Z" />
<path fill="#fefefe" opacity="1.00" d=" M 393.13 191.64 C 406.45 189.99 419.72 187.90 433.03 186.08 C 436.72 185.30 440.71 188.17 440.98 191.97 C 443.37 209.84 445.89 227.70 448.25 245.59 C 465.60 243.99 482.79 240.98 500.07 238.74 C 503.22 238.29 507.65 238.93 508.67 242.50 C 510.46 249.54 510.93 256.83 512.03 263.99 C 512.81 273.40 514.87 282.65 515.59 292.07 C 515.81 293.83 515.22 295.59 514.20 297.01 C 510.86 301.73 506.96 306.03 503.85 310.92 C 502.22 313.42 500.01 315.92 496.93 316.46 C 484.06 318.20 471.24 320.21 458.35 321.80 C 459.78 332.51 461.37 343.19 462.72 353.90 C 463.28 357.94 464.95 362.58 462.20 366.21 C 458.00 372.00 453.70 377.73 449.37 383.42 C 448.18 385.16 445.96 385.55 444.03 385.87 C 436.37 387.04 428.71 388.22 421.02 389.13 C 412.66 390.00 404.42 392.19 395.98 392.13 C 392.84 392.22 391.38 388.97 390.64 386.44 C 388.15 368.46 386.01 350.43 383.41 332.47 C 365.59 334.56 347.90 337.59 330.10 339.82 C 326.08 340.50 322.37 337.09 322.23 333.14 C 320.99 322.75 319.36 312.42 318.18 302.02 C 317.47 296.04 315.68 290.13 316.11 284.06 C 318.33 279.53 321.82 275.78 324.77 271.72 C 327.05 268.98 328.76 265.77 331.29 263.24 C 335.09 261.15 339.58 261.21 343.76 260.48 C 353.52 258.85 363.42 258.23 373.16 256.45 C 371.64 244.31 369.98 232.20 368.36 220.08 C 368.05 217.51 367.53 214.56 369.37 212.42 C 373.80 206.15 378.47 200.02 383.24 194.01 C 386.13 192.21 389.83 192.22 393.13 191.64 M 410.51 198.43 C 405.14 212.98 399.18 227.29 393.70 241.80 C 399.84 241.66 405.82 240.14 411.90 239.47 C 421.05 238.33 430.17 237.10 439.25 235.51 C 430.15 222.80 420.38 210.56 410.51 198.43 M 476.40 251.61 C 468.84 253.73 462.46 260.14 461.07 267.95 C 460.20 273.18 460.68 278.87 463.67 283.39 C 466.51 287.74 470.54 291.93 475.90 292.78 C 482.86 294.68 490.79 293.04 495.91 287.81 C 504.92 279.70 504.55 263.50 494.94 256.04 C 489.89 251.85 482.80 249.91 476.40 251.61 M 340.45 272.73 C 342.83 285.38 343.78 298.24 346.02 310.92 C 358.41 308.97 370.87 307.49 383.24 305.43 C 382.06 292.65 379.89 279.99 378.25 267.27 C 365.67 269.22 352.95 270.33 340.45 272.73 M 429.29 336.13 C 423.97 332.10 419.02 327.56 413.30 324.10 C 411.91 325.84 410.57 327.61 409.26 329.41 C 414.27 333.90 420.11 337.40 424.86 342.19 C 421.76 348.04 417.18 352.87 413.36 358.23 C 414.31 359.55 415.26 360.88 416.19 362.22 C 417.70 361.92 419.54 362.01 420.51 360.58 C 424.25 356.19 427.26 351.23 430.98 346.83 C 436.90 350.29 441.71 355.32 447.62 358.83 C 449.02 357.10 450.39 355.35 451.71 353.56 C 446.55 349.01 440.70 345.33 435.58 340.73 C 439.14 335.25 443.59 330.41 447.06 324.87 C 446.61 323.71 446.15 322.55 445.71 321.39 C 444.42 321.15 443.13 320.91 441.86 320.67 C 436.95 325.23 434.25 331.62 429.29 336.13 Z" />
<path fill="#fefefe" opacity="1.00" d=" M 412.83 212.87 C 417.59 218.43 422.07 224.26 426.32 230.22 C 419.16 231.31 411.98 232.37 404.75 232.98 C 407.42 226.27 409.71 219.40 412.83 212.87 Z" />
<path fill="#fefefe" opacity="1.00" d=" M 478.51 258.62 C 485.98 256.69 494.33 262.35 495.18 270.05 C 496.54 277.60 490.74 285.83 482.94 286.35 C 475.32 287.28 467.63 280.73 467.71 272.98 C 467.32 266.42 472.07 260.01 478.51 258.62 Z" />
<path fill="#fefefe" opacity="1.00" d=" M 348.70 278.57 C 356.57 277.65 364.35 276.04 372.25 275.43 C 373.30 283.45 374.67 291.42 375.34 299.48 C 367.50 300.48 359.71 301.81 351.84 302.64 C 350.84 294.61 349.38 286.64 348.70 278.57 Z" />
</g>
<g id="#c38e08c4">
<path fill="#c38e08" opacity="0.77" d=" M 410.51 198.43 C 420.38 210.56 430.15 222.80 439.25 235.51 C 430.17 237.10 421.05 238.33 411.90 239.47 C 405.82 240.14 399.84 241.66 393.70 241.80 C 399.18 227.29 405.14 212.98 410.51 198.43 M 412.83 212.87 C 409.71 219.40 407.42 226.27 404.75 232.98 C 411.98 232.37 419.16 231.31 426.32 230.22 C 422.07 224.26 417.59 218.43 412.83 212.87 Z" />
<path fill="#c38e08" opacity="0.77" d=" M 476.40 251.61 C 482.80 249.91 489.89 251.85 494.94 256.04 C 504.55 263.50 504.92 279.70 495.91 287.81 C 490.79 293.04 482.86 294.68 475.90 292.78 C 470.54 291.93 466.51 287.74 463.67 283.39 C 460.68 278.87 460.20 273.18 461.07 267.95 C 462.46 260.14 468.84 253.73 476.40 251.61 M 478.51 258.62 C 472.07 260.01 467.32 266.42 467.71 272.98 C 467.63 280.73 475.32 287.28 482.94 286.35 C 490.74 285.83 496.54 277.60 495.18 270.05 C 494.33 262.35 485.98 256.69 478.51 258.62 Z" />
<path fill="#c38e08" opacity="0.77" d=" M 340.45 272.73 C 352.95 270.33 365.67 269.22 378.25 267.27 C 379.89 279.99 382.06 292.65 383.24 305.43 C 370.87 307.49 358.41 308.97 346.02 310.92 C 343.78 298.24 342.83 285.38 340.45 272.73 M 348.70 278.57 C 349.38 286.64 350.84 294.61 351.84 302.64 C 359.71 301.81 367.50 300.48 375.34 299.48 C 374.67 291.42 373.30 283.45 372.25 275.43 C 364.35 276.04 356.57 277.65 348.70 278.57 Z" />
<path fill="#c38e08" opacity="0.77" d=" M 429.29 336.13 C 434.25 331.62 436.95 325.23 441.86 320.67 C 443.13 320.91 444.42 321.15 445.71 321.39 C 446.15 322.55 446.61 323.71 447.06 324.87 C 443.59 330.41 439.14 335.25 435.58 340.73 C 440.70 345.33 446.55 349.01 451.71 353.56 C 450.39 355.35 449.02 357.10 447.62 358.83 C 441.71 355.32 436.90 350.29 430.98 346.83 C 427.26 351.23 424.25 356.19 420.51 360.58 C 419.54 362.01 417.70 361.92 416.19 362.22 C 415.26 360.88 414.31 359.55 413.36 358.23 C 417.18 352.87 421.76 348.04 424.86 342.19 C 420.11 337.40 414.27 333.90 409.26 329.41 C 410.57 327.61 411.91 325.84 413.30 324.10 C 419.02 327.56 423.97 332.10 429.29 336.13 Z" />
</g>
</svg>
