<?xml version="1.0" encoding="UTF-8" ?>
<!DOCTYPE svg PUBLIC "-//W3C//DTD SVG 1.1//EN" "http://www.w3.org/Graphics/SVG/1.1/DTD/svg11.dtd">
<svg width="372pt" height="243pt" viewBox="0 0 372 243" version="1.1" xmlns="http://www.w3.org/2000/svg">
<g id="#ffffffff">
<path fill="#ffffff" opacity="1.00" d=" M 198.14 0.00 L 199.72 0.00 C 201.44 0.78 203.09 2.12 203.28 4.13 C 205.00 16.50 206.69 28.89 208.29 41.28 C 220.28 40.17 232.13 38.04 244.07 36.54 C 246.47 36.12 249.66 36.91 250.04 39.73 C 251.90 48.46 252.35 57.42 253.83 66.22 C 254.23 70.24 255.94 74.94 252.78 78.29 C 239.89 79.90 227.05 81.91 214.17 83.54 C 214.45 87.05 214.82 90.56 215.28 94.06 C 216.46 102.77 217.65 111.48 218.88 120.19 C 219.35 122.47 218.22 124.60 216.86 126.34 C 205.17 127.21 193.70 130.07 182.01 130.71 C 178.61 131.32 177.67 127.50 177.27 124.93 C 175.73 113.24 174.11 101.56 172.63 89.86 C 165.68 89.47 158.98 91.77 152.10 92.37 C 145.78 92.93 139.46 94.96 133.10 94.07 C 130.93 93.79 130.99 91.21 130.46 89.59 C 128.51 78.55 127.89 67.29 125.51 56.32 C 126.73 54.76 127.91 52.83 130.09 52.59 C 138.86 50.97 147.77 50.22 156.58 48.84 C 160.06 48.36 163.51 47.76 166.95 47.06 C 165.06 34.17 163.75 21.18 161.37 8.37 C 162.14 7.33 162.91 6.28 163.67 5.23 C 175.05 2.87 186.68 1.96 198.14 0.00 M 182.35 8.73 C 178.56 18.75 174.50 28.67 170.76 38.71 C 181.23 37.37 191.71 36.06 202.11 34.27 C 195.83 25.53 189.22 17.02 182.35 8.73 M 228.24 45.29 C 222.06 46.75 216.92 52.51 216.86 58.98 C 216.23 66.50 222.32 74.20 230.06 74.41 C 238.85 75.57 247.00 66.81 245.50 58.13 C 245.09 49.80 236.24 43.53 228.24 45.29 M 134.12 60.05 C 135.71 68.80 136.39 77.68 137.93 86.44 C 146.48 85.22 155.03 84.03 163.56 82.72 C 162.71 73.87 161.32 65.09 160.13 56.29 C 151.46 57.52 142.74 58.49 134.12 60.05 M 195.25 103.96 C 191.66 101.06 188.11 98.09 184.21 95.60 C 183.26 96.82 182.32 98.05 181.37 99.28 C 184.97 102.25 188.85 104.90 192.26 108.11 C 190.04 112.12 186.96 115.54 184.33 119.27 C 185.03 120.28 185.74 121.29 186.45 122.30 C 191.38 120.45 193.02 114.74 196.56 111.22 C 200.39 114.00 203.98 117.10 207.93 119.71 C 208.85 118.46 209.76 117.21 210.69 115.96 C 207.04 112.91 203.15 110.16 199.49 107.12 C 202.05 103.40 205.10 100.02 207.46 96.16 C 207.36 94.09 205.65 93.43 203.94 92.99 C 200.88 96.52 198.52 100.60 195.25 103.96 Z" />
<path fill="#ffffff" opacity="1.00" d=" M 178.38 32.55 C 180.19 27.88 181.76 23.09 184.07 18.62 C 187.15 22.59 190.32 26.50 193.21 30.62 C 188.29 31.45 183.34 32.11 178.38 32.55 Z" />
<path fill="#ffffff" opacity="1.00" d=" M 229.22 50.27 C 236.31 48.35 243.09 56.49 240.11 63.15 C 238.19 69.69 228.94 71.72 224.46 66.59 C 219.10 61.62 222.04 51.56 229.22 50.27 Z" />
<path fill="#ffffff" opacity="1.00" d=" M 139.77 64.12 C 145.17 63.40 150.55 62.45 155.97 61.91 C 156.76 67.46 157.72 72.99 158.04 78.60 C 152.67 79.30 147.32 80.15 141.94 80.77 C 141.23 75.22 140.26 69.70 139.77 64.12 Z" />
<path fill="#ffffff" opacity="1.00" d=" M 92.47 152.32 C 93.93 152.24 95.39 152.26 96.86 152.26 C 96.80 160.40 97.01 168.53 96.98 176.67 C 95.52 176.62 94.05 176.56 92.59 176.51 C 92.57 168.45 92.80 160.38 92.47 152.32 Z" />
<path fill="#ffffff" opacity="1.00" d=" M 194.13 152.50 C 195.58 152.50 197.04 152.50 198.50 152.50 C 198.50 153.70 198.49 154.91 198.50 156.12 C 197.03 156.12 195.58 156.12 194.12 156.13 C 194.12 154.92 194.12 153.71 194.13 152.50 Z" />
<path fill="#ffffff" opacity="1.00" d=" M 243.89 152.39 C 248.10 152.56 252.60 151.62 256.59 153.40 C 260.85 155.40 260.71 161.87 257.64 164.85 C 254.49 166.94 250.48 166.43 246.89 166.46 C 246.91 169.91 246.80 173.36 246.72 176.81 C 245.76 176.67 244.81 176.53 243.86 176.39 C 243.89 168.39 243.85 160.39 243.89 152.39 M 246.88 154.72 C 246.87 157.82 246.87 160.92 246.87 164.01 C 249.82 163.86 253.14 164.55 255.75 162.80 C 257.52 160.57 257.38 156.67 254.63 155.27 C 252.12 154.57 249.46 154.80 246.88 154.72 Z" />
<path fill="#ffffff" opacity="1.00" d=" M 262.12 151.48 C 262.84 151.54 264.28 151.67 265.00 151.74 C 265.00 160.05 265.05 168.36 264.86 176.67 C 264.17 176.62 262.81 176.52 262.13 176.47 C 262.12 168.14 262.14 159.81 262.12 151.48 Z" />
<path fill="#ffffff" opacity="1.00" d=" M 74.00 152.50 C 78.03 152.59 82.08 152.23 86.09 152.79 C 90.71 154.72 90.94 161.05 88.89 164.96 C 87.10 168.02 83.16 167.63 80.13 167.68 C 80.13 167.01 80.13 165.69 80.12 165.02 C 81.84 164.71 84.72 165.62 85.22 163.27 C 86.02 160.75 86.31 157.13 83.98 155.36 C 82.14 154.98 80.24 155.14 78.37 155.09 C 78.38 162.21 78.37 169.33 78.38 176.45 C 76.92 176.52 75.46 176.59 74.01 176.66 C 73.99 168.61 74.00 160.56 74.00 152.50 Z" />
<path fill="#ffffff" opacity="1.00" d=" M 139.12 153.17 C 142.24 152.05 145.66 152.63 148.91 152.47 C 148.89 153.14 148.87 154.46 148.86 155.12 C 145.67 155.19 139.45 153.92 140.08 159.10 C 139.68 164.26 146.62 161.17 148.85 164.36 C 151.11 167.85 151.11 173.92 147.00 176.05 C 143.81 177.01 140.38 176.49 137.09 176.65 C 137.03 175.99 136.90 174.65 136.83 173.99 C 139.63 173.72 143.26 175.02 145.44 172.70 C 146.26 170.72 146.47 167.95 144.65 166.46 C 142.56 165.72 140.16 165.98 138.25 164.76 C 134.94 161.78 135.10 155.43 139.12 153.17 Z" />
<path fill="#ffffff" opacity="1.00" d=" M 153.38 155.08 C 154.97 155.13 156.55 155.19 158.14 155.26 C 158.14 156.03 158.13 157.58 158.12 158.35 C 159.72 158.37 161.32 158.40 162.92 158.44 C 163.67 162.17 159.99 160.51 158.10 160.90 C 158.20 165.14 157.67 169.41 158.34 173.61 C 159.15 173.77 160.76 174.07 161.56 174.23 C 161.53 174.86 161.48 176.12 161.45 176.75 C 158.59 176.67 154.23 176.46 153.61 172.92 C 153.07 167.00 153.52 161.02 153.38 155.08 Z" />
<path fill="#ffffff" opacity="1.00" d=" M 182.63 155.13 C 184.08 155.13 185.54 155.12 187.00 155.12 C 187.00 155.93 187.00 157.56 187.00 158.38 C 188.54 158.37 190.08 158.38 191.62 158.38 C 191.59 159.00 191.52 160.24 191.49 160.86 C 189.99 160.87 188.49 160.87 187.00 160.88 C 187.04 165.14 186.84 169.42 187.22 173.68 C 188.02 173.79 189.61 174.02 190.40 174.13 C 190.39 174.78 190.37 176.09 190.36 176.74 C 187.52 176.75 183.53 176.47 182.99 172.95 C 182.18 167.06 182.82 161.06 182.63 155.13 Z" />
<path fill="#ffffff" opacity="1.00" d=" M 100.90 161.91 C 103.52 156.57 110.27 158.71 115.00 158.25 C 115.00 164.37 115.00 170.50 115.00 176.63 C 113.57 176.62 112.15 176.62 110.73 176.63 C 110.81 171.34 110.66 166.06 110.47 160.78 C 108.80 160.93 107.02 160.71 105.45 161.42 C 103.67 165.35 104.15 169.85 104.77 173.99 C 106.14 174.00 107.51 174.00 108.89 174.01 C 108.88 174.68 108.86 176.02 108.86 176.68 C 105.93 176.65 101.76 177.06 100.54 173.62 C 99.64 169.83 99.71 165.63 100.90 161.91 Z" />
<path fill="#ffffff" opacity="1.00" d=" M 117.13 158.29 C 118.71 158.33 120.29 158.38 121.88 158.43 C 123.11 162.38 124.54 166.27 125.79 170.22 C 127.31 166.31 128.93 162.44 130.25 158.46 C 131.67 158.44 133.08 158.40 134.50 158.36 C 130.85 167.56 127.03 176.69 123.70 186.01 C 122.43 185.93 121.17 185.85 119.91 185.76 C 121.20 182.61 122.33 179.39 123.41 176.16 C 121.18 170.26 119.48 164.16 117.13 158.29 Z" />
<path fill="#ffffff" opacity="1.00" d=" M 194.14 158.27 C 195.59 158.25 197.04 158.25 198.50 158.25 C 198.50 164.33 198.50 170.42 198.50 176.50 C 197.04 176.50 195.58 176.50 194.12 176.50 C 194.13 170.42 194.11 164.34 194.14 158.27 Z" />
<path fill="#ffffff" opacity="1.00" d=" M 205.48 158.81 C 208.55 157.82 212.27 157.97 214.75 160.25 C 217.52 163.63 217.09 168.47 216.12 172.45 C 214.57 176.74 209.04 177.33 205.24 176.02 C 202.82 174.63 201.19 171.97 201.25 169.16 C 200.88 165.45 201.34 160.24 205.48 158.81 M 207.11 160.83 C 205.06 164.14 205.23 168.21 205.99 171.89 C 206.59 174.71 211.43 174.81 212.07 171.92 C 212.80 168.79 212.88 165.40 211.83 162.33 C 210.98 160.47 208.73 161.11 207.11 160.83 Z" />
<path fill="#ffffff" opacity="1.00" d=" M 268.25 158.59 C 268.94 158.60 270.33 158.62 271.02 158.63 C 271.38 163.44 270.36 168.41 271.77 173.10 C 273.91 176.16 279.35 174.75 279.89 171.11 C 280.62 166.99 280.03 162.78 280.15 158.62 C 280.89 158.62 282.38 158.63 283.13 158.63 C 283.11 164.57 283.12 170.51 283.13 176.46 C 282.15 176.51 281.17 176.56 280.19 176.61 C 280.24 176.06 280.35 174.96 280.40 174.41 C 278.76 175.50 277.17 176.99 275.08 177.00 C 271.70 177.46 268.12 174.67 268.30 171.15 C 268.16 166.96 268.30 162.78 268.25 158.59 Z" />
<path fill="#ffffff" opacity="1.00" d=" M 285.84 162.92 C 286.54 157.39 293.26 157.85 297.26 159.05 C 297.03 159.57 296.57 160.60 296.33 161.12 C 294.29 160.93 292.20 160.31 290.16 160.82 C 288.60 161.30 287.96 163.54 289.19 164.72 C 291.73 166.33 294.81 167.00 297.10 169.00 C 299.00 171.39 297.97 175.58 294.93 176.46 C 291.62 177.25 288.06 176.95 284.97 175.53 C 286.43 172.71 289.57 174.94 291.88 174.71 C 294.19 175.30 296.71 172.12 294.47 170.45 C 291.52 168.10 285.68 167.79 285.84 162.92 Z" />
<path fill="#ffffff" opacity="1.00" d=" M 165.79 160.74 C 169.05 156.87 174.73 158.68 179.12 158.36 C 179.21 164.46 179.28 170.56 179.26 176.67 C 177.79 176.60 176.33 176.53 174.87 176.46 C 174.87 171.24 174.88 166.03 174.87 160.82 C 172.97 161.02 170.52 160.32 169.22 162.15 C 168.29 166.01 168.19 170.09 169.18 173.95 C 170.49 173.98 171.80 174.00 173.12 174.01 C 173.12 174.64 173.12 175.89 173.12 176.51 C 170.15 176.65 165.78 177.20 164.73 173.51 C 163.98 169.36 163.73 164.57 165.79 160.74 Z" />
<path fill="#ffffff" opacity="1.00" d=" M 219.61 158.40 C 224.15 158.68 230.55 156.72 233.38 161.47 C 235.39 166.24 234.16 171.61 234.50 176.65 C 233.09 176.62 231.68 176.60 230.28 176.57 C 230.03 171.81 230.75 166.95 229.69 162.26 C 228.51 160.27 225.79 161.15 223.89 160.73 C 223.70 166.02 223.98 171.31 223.85 176.60 C 222.39 176.61 220.93 176.62 219.48 176.62 C 219.73 170.55 219.60 164.48 219.61 158.40 Z" />
<path fill="#ffffff" opacity="1.00" d=" M 236.68 175.54 C 237.13 175.55 238.03 175.56 238.47 175.57 C 238.47 176.03 238.47 176.96 238.46 177.42 C 238.02 177.41 237.12 177.40 236.68 177.39 C 236.68 176.93 236.68 176.00 236.68 175.54 Z" />
</g>
<g id="#e9e9e9ff">
<path fill="#e9e9e9" opacity="1.00" d=" M 153.19 20.10 C 155.16 15.73 158.64 12.27 161.37 8.37 C 163.75 21.18 165.06 34.17 166.95 47.06 C 163.51 47.76 160.06 48.36 156.58 48.84 C 155.71 39.23 153.63 29.73 153.19 20.10 Z" />
<path fill="#e9e9e9" opacity="1.00" d=" M 117.31 68.03 C 119.34 63.70 122.85 60.26 125.51 56.32 C 127.89 67.29 128.51 78.55 130.46 89.59 C 130.99 91.21 130.93 93.79 133.10 94.07 C 139.46 94.96 145.78 92.93 152.10 92.37 C 158.98 91.77 165.68 89.47 172.63 89.86 C 174.11 101.56 175.73 113.24 177.27 124.93 C 177.67 127.50 178.61 131.32 182.01 130.71 C 193.70 130.07 205.17 127.21 216.86 126.34 C 214.75 129.06 212.74 131.85 210.69 134.62 C 209.49 136.12 208.33 138.02 206.21 138.20 C 198.59 139.66 190.84 140.31 183.19 141.56 C 179.52 142.13 175.82 142.83 172.09 142.67 C 169.73 142.45 168.80 139.85 168.52 137.83 C 166.86 125.72 165.37 113.58 163.72 101.46 C 151.75 102.78 139.89 104.88 127.95 106.39 C 125.25 107.04 122.02 105.53 121.69 102.56 C 120.48 94.44 119.59 86.27 118.39 78.14 C 117.88 74.79 117.11 71.43 117.31 68.03 Z" />
</g>
<g id="#c38e07c4">
<path fill="#c38e07" opacity="0.77" d=" M 182.35 8.73 C 189.22 17.02 195.83 25.53 202.11 34.27 C 191.71 36.06 181.23 37.37 170.76 38.71 C 174.50 28.67 178.56 18.75 182.35 8.73 M 178.38 32.55 C 183.34 32.11 188.29 31.45 193.21 30.62 C 190.32 26.50 187.15 22.59 184.07 18.62 C 181.76 23.09 180.19 27.88 178.38 32.55 Z" />
<path fill="#c38e07" opacity="0.77" d=" M 228.24 45.29 C 236.24 43.53 245.09 49.80 245.50 58.13 C 247.00 66.81 238.85 75.57 230.06 74.41 C 222.32 74.20 216.23 66.50 216.86 58.98 C 216.92 52.51 222.06 46.75 228.24 45.29 M 229.22 50.27 C 222.04 51.56 219.10 61.62 224.46 66.59 C 228.94 71.72 238.19 69.69 240.11 63.15 C 243.09 56.49 236.31 48.35 229.22 50.27 Z" />
<path fill="#c38e07" opacity="0.77" d=" M 134.12 60.05 C 142.74 58.49 151.46 57.52 160.13 56.29 C 161.32 65.09 162.71 73.87 163.56 82.72 C 155.03 84.03 146.48 85.22 137.93 86.44 C 136.39 77.68 135.71 68.80 134.12 60.05 M 139.77 64.12 C 140.26 69.70 141.23 75.22 141.94 80.77 C 147.32 80.15 152.67 79.30 158.04 78.60 C 157.72 72.99 156.76 67.46 155.97 61.91 C 150.55 62.45 145.17 63.40 139.77 64.12 Z" />
<path fill="#c38e07" opacity="0.77" d=" M 195.25 103.96 C 198.52 100.60 200.88 96.52 203.94 92.99 C 205.65 93.43 207.36 94.09 207.46 96.16 C 205.10 100.02 202.05 103.40 199.49 107.12 C 203.15 110.16 207.04 112.91 210.69 115.96 C 209.76 117.21 208.85 118.46 207.93 119.71 C 203.98 117.10 200.39 114.00 196.56 111.22 C 193.02 114.74 191.38 120.45 186.45 122.30 C 185.74 121.29 185.03 120.28 184.33 119.27 C 186.96 115.54 190.04 112.12 192.26 108.11 C 188.85 104.90 184.97 102.25 181.37 99.28 C 182.32 98.05 183.26 96.82 184.21 95.60 C 188.11 98.09 191.66 101.06 195.25 103.96 Z" />
</g>
<g id="#d2d2d2ff">
<path fill="#d2d2d2" opacity="1.00" d=" M 214.17 83.54 C 227.05 81.91 239.89 79.90 252.78 78.29 C 250.14 81.51 247.86 84.99 245.25 88.22 C 244.06 89.84 242.11 90.43 240.20 90.63 C 231.89 91.77 223.60 93.05 215.28 94.06 C 214.82 90.56 214.45 87.05 214.17 83.54 Z" />
</g>
<g id="#ffba0aff">
<path fill="#ffba0a" opacity="1.00" d=" M 0.00 194.75 C 124.00 194.75 248.00 194.75 372.00 194.75 L 372.00 243.00 L 0.00 243.00 L 0.00 194.75 M 1.50 196.38 C 1.50 211.42 1.50 226.46 1.50 241.50 C 124.50 241.50 247.50 241.50 370.50 241.50 C 370.50 226.46 370.50 211.42 370.50 196.38 C 247.50 196.37 124.50 196.37 1.50 196.38 Z" />
<path fill="#ffba0a" opacity="1.00" d=" M 124.10 210.37 C 127.15 210.47 130.29 210.04 133.29 210.79 C 137.51 211.92 137.48 218.07 134.59 220.57 C 132.84 222.51 130.03 222.28 127.68 222.48 C 127.73 224.31 127.77 226.16 127.81 228.00 C 126.58 228.00 125.36 228.00 124.13 228.00 C 124.46 222.13 124.18 216.25 124.10 210.37 M 127.89 212.99 C 127.77 215.24 127.73 217.49 127.75 219.74 C 130.12 220.01 133.19 218.95 132.75 216.02 C 133.12 213.22 129.81 213.14 127.89 212.99 Z" />
<path fill="#ffba0a" opacity="1.00" d=" M 160.32 210.33 C 164.11 210.40 167.90 210.36 171.69 210.41 C 171.60 211.44 171.51 212.47 171.42 213.51 C 168.95 213.41 166.49 213.36 164.02 213.34 C 164.01 214.77 164.00 216.19 164.00 217.62 C 166.01 217.62 168.03 217.62 170.05 217.63 C 170.00 218.38 169.90 219.89 169.85 220.65 C 167.85 220.56 165.86 220.50 163.88 220.46 C 163.87 222.02 163.87 223.58 163.88 225.15 C 166.46 225.12 169.03 225.05 171.61 224.98 C 171.55 225.73 171.41 227.24 171.34 227.99 C 167.66 228.00 163.99 228.00 160.31 228.00 C 160.67 222.11 160.35 216.22 160.32 210.33 Z" />
<path fill="#ffba0a" opacity="1.00" d=" M 177.59 210.36 C 178.98 210.37 180.37 210.37 181.76 210.38 C 182.88 214.12 184.15 217.82 185.45 221.51 C 186.83 217.84 188.16 214.14 189.31 210.39 C 190.68 210.38 192.05 210.37 193.43 210.36 C 193.94 216.24 194.48 222.12 195.03 228.00 C 194.22 228.00 192.58 228.00 191.77 228.00 C 191.54 223.81 191.26 219.63 190.76 215.47 C 189.35 218.99 188.02 222.54 186.65 226.08 C 185.94 226.09 184.52 226.12 183.80 226.13 C 182.56 222.63 181.34 219.12 180.07 215.64 C 179.45 219.73 179.16 223.87 178.90 228.00 C 178.12 228.00 176.55 228.00 175.77 228.00 C 176.38 222.12 176.98 216.24 177.59 210.36 Z" />
<path fill="#ffba0a" opacity="1.00" d=" M 201.00 210.36 C 202.25 210.37 203.50 210.39 204.76 210.41 C 204.62 216.26 204.39 222.12 204.65 227.98 C 203.42 227.99 202.20 228.00 200.98 228.01 C 201.30 222.13 200.95 216.24 201.00 210.36 Z" />
<path fill="#ffba0a" opacity="1.00" d=" M 211.13 210.35 C 212.34 210.37 213.54 210.39 214.76 210.41 C 214.87 214.58 214.36 218.78 214.77 222.94 C 215.40 226.12 220.96 226.03 221.49 222.85 C 221.77 218.70 221.39 214.52 221.43 210.36 C 222.38 210.37 224.27 210.38 225.22 210.39 C 225.04 214.64 225.26 218.90 224.88 223.13 C 224.30 229.99 211.58 230.18 211.24 223.08 C 210.96 218.84 211.20 214.59 211.13 210.35 Z" />
<path fill="#ffba0a" opacity="1.00" d=" M 232.29 210.34 C 233.70 210.36 235.11 210.38 236.53 210.41 C 237.58 214.20 238.86 217.91 240.17 221.61 C 241.47 217.87 242.88 214.17 244.05 210.38 C 245.40 210.38 246.76 210.37 248.11 210.38 C 248.71 216.28 249.22 222.19 249.74 228.10 C 248.94 228.05 247.35 227.95 246.55 227.90 C 246.11 223.81 246.03 219.69 245.53 215.61 C 244.00 219.07 242.73 222.63 241.37 226.15 C 240.64 226.13 239.18 226.10 238.44 226.08 C 237.29 222.53 236.04 219.02 234.71 215.54 C 234.23 219.66 233.84 223.80 233.62 227.95 C 232.85 227.97 231.29 228.00 230.52 228.02 C 231.09 222.12 231.72 216.23 232.29 210.34 Z" />
<path fill="#ffba0a" opacity="1.00" d=" M 141.72 210.38 C 145.12 210.51 148.66 209.90 151.94 211.05 C 155.74 213.40 154.41 219.07 151.03 221.19 C 152.46 223.35 153.95 225.47 155.39 227.62 C 154.47 227.78 152.62 228.11 151.70 228.27 C 149.82 226.77 149.18 224.18 147.93 222.19 C 147.25 222.16 145.90 222.11 145.22 222.09 C 145.30 224.05 145.37 226.02 145.41 227.99 C 144.49 227.99 142.65 228.00 141.73 228.00 C 142.03 222.13 141.73 216.25 141.72 210.38 M 145.49 212.95 C 145.40 215.09 145.36 217.24 145.37 219.39 C 147.55 219.52 150.76 218.99 150.31 216.06 C 150.75 213.31 147.39 213.00 145.49 212.95 Z" />
</g>
</svg>
