<svg width="150" height="58" viewBox="0 0 150 58" fill="none" xmlns="http://www.w3.org/2000/svg">
<path d="M34.6846 0.322998H34.7936C35.109 4.31339 33.4007 8.38246 30.3723 10.9836C28.4683 12.5936 25.9734 13.4697 23.4843 13.4227C23.2697 10.2508 24.3777 7.01906 26.4951 4.65042C28.5422 2.22777 31.5401 0.674124 34.6846 0.322998Z" fill="black" fill-opacity="0.96"/>
<path d="M56.2589 7.32306C58.9121 7.32188 61.5642 7.31484 64.2174 7.31836C64.2221 10.4773 64.2162 13.6375 64.2198 16.7976C66.7405 16.7999 69.2601 16.7964 71.7808 16.7988C71.7831 18.8867 71.7831 20.9735 71.7808 23.0615C69.2601 23.0627 66.7405 23.0603 64.2198 23.0627C64.2186 30.5549 64.2186 38.0472 64.2198 45.5383C64.2256 46.8195 64.439 48.2005 65.3043 49.201C66.0898 50.1182 67.3244 50.4822 68.4909 50.5445C69.5801 50.5891 70.6682 50.4846 71.7491 50.3624C71.7503 52.4657 71.7491 54.5689 71.7491 56.6733C69.3597 57.055 66.9175 57.109 64.5129 56.853C62.4951 56.6111 60.4023 56.0004 58.9227 54.5337C57.456 53.0986 56.8217 51.04 56.5802 49.0495C56.382 47.5335 56.4289 46.0021 56.4242 44.4779C56.4231 37.3896 56.4254 30.3001 56.4231 23.2118C54.444 23.2083 52.4649 23.2142 50.4858 23.2095C50.487 21.1168 50.4858 19.0253 50.487 16.9326C52.4098 16.9315 54.3326 16.9326 56.2566 16.9326C56.2613 13.7291 56.2554 10.5266 56.2589 7.32306Z" fill="black" fill-opacity="0.96"/>
<path d="M31.7816 14.2178C33.5778 13.8749 35.4467 13.9547 37.2194 14.3927C40.2982 15.1455 43.0675 17.0585 44.8801 19.6585C41.9666 21.4787 39.8316 24.4991 39.1094 27.8635C38.5372 30.3649 38.8162 33.033 39.8245 35.3852C41.0579 38.3116 43.4392 40.7178 46.3374 42.0025C45.641 44.2173 44.6913 46.3523 43.5189 48.3545C42.7486 49.6392 41.9232 50.8911 41.0532 52.11C39.821 53.7846 38.4047 55.4275 36.5089 56.3588C34.9495 57.1397 33.1006 57.1902 31.444 56.7064C30.336 56.3858 29.3125 55.8409 28.2338 55.4405C25.8702 54.5362 23.1713 54.5503 20.8123 55.4651C19.5648 55.9372 18.3795 56.5913 17.0687 56.8825C16.5189 57 15.9619 57.0798 15.405 57.162H15.0428C14.3756 57.0469 13.6991 56.9236 13.0754 56.6488C11.9311 56.1603 10.9498 55.3594 10.0798 54.4822C8.67291 53.0425 7.51103 51.389 6.3597 49.7437C4.118 46.3969 2.54459 42.6249 1.55623 38.7273C0.540899 34.6183 0.177444 30.2627 1.12126 26.1044C1.64064 23.8062 2.62315 21.609 4.01483 19.7078C6.54846 16.2822 10.7622 14.1614 15.024 14.2401C17.3783 14.334 19.525 15.3968 21.6963 16.1989C22.5639 16.4995 23.4902 16.8072 24.4187 16.6181C25.379 16.4314 26.2806 16.0345 27.1892 15.6857C28.6817 15.0879 30.1953 14.5125 31.7816 14.2178Z" fill="black" fill-opacity="0.96"/>
<path d="M75.998 16.9316C78.7509 16.9328 81.5026 16.9305 84.2555 16.9328C87.5219 27.5652 90.7649 38.2047 94.0442 48.8313C94.0934 48.8325 94.1907 48.836 94.24 48.8383C97.5134 38.2059 100.761 27.5652 104.029 16.9316C106.725 16.9328 109.422 16.9305 112.118 16.9328C107.49 30.1758 102.854 43.4164 98.2227 56.6582C95.4581 56.6617 92.6947 56.6582 89.9301 56.6594C85.2837 43.4188 80.6397 30.1758 75.998 16.9316Z" fill="black" fill-opacity="0.96"/>
<path d="M127.447 16.9328C129.834 16.9316 132.221 16.9328 134.608 16.9316C134.612 22.3582 134.607 27.7848 134.61 33.2115C139.741 33.2138 144.87 33.2103 150.001 33.2126C150.001 35.6024 150.002 37.9922 150 40.3819C144.881 40.3855 139.762 40.3819 134.643 40.3843C134.642 45.8097 134.645 51.234 134.641 56.6594C132.254 56.6594 129.865 56.6594 127.478 56.6594C127.476 51.234 127.479 45.8097 127.476 40.3843C122.346 40.3819 117.216 40.3855 112.086 40.3819C112.084 37.9922 112.084 35.6024 112.086 33.2126C117.205 33.2103 122.324 33.2138 127.444 33.2115C127.447 27.7848 127.442 22.3582 127.447 16.9328Z" fill="black" fill-opacity="0.96"/>
</svg>
