<svg width="233" height="97" viewBox="0 0 233 97" fill="none" xmlns="http://www.w3.org/2000/svg">
<path d="M96.5977 0.957389C98.8662 0.615026 101.146 0.341137 103.431 0.149414C103.339 1.87949 103.497 3.59587 103.698 5.30997C101.322 5.48571 98.9576 5.78014 96.6023 6.12479C96.6206 4.40156 96.5771 2.68062 96.5977 0.957389Z" fill="#1775B9"/>
<path d="M103.43 0.14934C105.02 -0.0332533 106.617 0.0101125 108.214 0.0101125C108.367 1.68769 108.564 3.36071 108.449 5.04742C106.864 5.11132 105.279 5.18436 103.698 5.30989C103.497 3.59579 103.339 1.87941 103.43 0.14934Z" fill="#1C6CB2"/>
<path d="M108.215 0.00990807C109.826 0.00534323 111.436 0.0121905 113.047 0.00990807C113.008 1.68749 112.987 3.37191 113.325 5.02438C111.699 5.04949 110.075 5.00613 108.45 5.04721C108.565 3.3605 108.368 1.68749 108.215 0.00990807Z" fill="#1F65AD"/>
<path d="M113.046 0.0102706C115.627 0.0490718 118.218 -0.108415 120.79 0.167758C121.745 0.249925 122.698 0.350351 123.653 0.434801L123.63 0.599135C123.395 2.32693 123.594 4.07298 123.557 5.80762C120.16 5.38309 116.742 5.14115 113.325 5.02475C112.987 3.37228 113.007 1.68785 113.046 0.0102706Z" fill="#245DA7"/>
<path d="M123.63 0.599076L123.656 0.430176C125.216 0.631029 126.778 0.815907 128.334 1.06697C128.32 2.23785 128.259 3.42015 128.501 4.57505C128.654 5.21869 128.588 5.88059 128.378 6.5037C126.769 6.27317 125.168 6.00384 123.557 5.80756C123.594 4.07292 123.395 2.32687 123.63 0.599076Z" fill="#28579D"/>
<path d="M92.4774 1.67828C93.8458 1.40667 95.221 1.1693 96.5986 0.957031C96.578 2.68026 96.6214 4.4012 96.6031 6.12443C95.3124 6.33441 94.0194 6.53755 92.7378 6.79775C92.3471 5.11789 92.4819 3.38781 92.4774 1.67828Z" fill="#127EBF"/>
<path d="M128.334 1.06616C129.863 1.29212 131.379 1.58427 132.899 1.87186C132.906 3.7092 132.953 5.54883 132.86 7.3839C131.359 7.11914 129.876 6.75623 128.366 6.5394L128.378 6.50288C128.588 5.87978 128.654 5.21788 128.501 4.57424C128.259 3.41934 128.321 2.23704 128.334 1.06616Z" fill="#2A5296"/>
<path d="M88.6252 2.49761C89.9068 2.21003 91.1884 1.92701 92.4768 1.67822C92.4814 3.38776 92.3466 5.11783 92.7372 6.79769C91.3483 7.06245 89.9685 7.36373 88.5932 7.6924C88.6138 5.97146 88.5361 4.24823 88.6252 2.52956V2.49761Z" fill="#0E85C5"/>
<path d="M132.898 1.87256C134.411 2.18525 135.918 2.52761 137.422 2.89052C137.771 4.75525 137.885 6.68846 137.552 8.56233C135.987 8.18573 134.436 7.74522 132.859 7.4234V7.3846C132.953 5.54954 132.905 3.70991 132.898 1.87256Z" fill="#2D4E8F"/>
<path d="M84.8625 3.46305C86.1099 3.12982 87.3549 2.78061 88.6251 2.52954C88.536 4.2482 88.6137 5.97143 88.5931 7.69238C87.3618 7.96855 86.1487 8.32004 84.9288 8.64187C84.8763 6.95516 85.0247 5.26388 84.8717 3.57946L84.8625 3.46305Z" fill="#0A8CCA"/>
<path d="M137.423 2.89038C140.53 3.67325 143.598 4.59535 146.618 5.6658C146.474 7.6789 146.933 9.66232 146.88 11.6731C143.81 10.5296 140.719 9.42723 137.546 8.59415L137.553 8.5622C137.886 6.68833 137.772 4.75512 137.423 2.89038Z" fill="#304985"/>
<path d="M81.095 4.56777C82.3446 4.17748 83.6079 3.83284 84.8598 3.44482L84.8712 3.57949C85.0243 5.26391 84.8758 6.95519 84.9283 8.6419C83.6307 9.01393 82.3377 9.40422 81.0538 9.82191C81.0538 8.08042 81.0036 6.33893 81.095 4.59745V4.56777Z" fill="#0693CF"/>
<path d="M76.4556 6.17407C77.993 5.62173 79.5236 5.04884 81.0954 4.59692C81.004 6.33841 81.0542 8.0799 81.0542 9.82138C79.5922 10.287 78.1529 10.8188 76.716 11.3552C76.6063 9.63194 76.9444 7.85165 76.4556 6.17407Z" fill="#029BD5"/>
<path d="M146.617 5.66602C150.058 6.9008 153.421 8.34786 156.703 9.95468C156.671 11.347 156.603 12.7506 156.856 14.1269C156.998 14.8619 156.92 15.6105 156.726 16.3295C153.537 14.6063 150.254 13.0474 146.88 11.7236V11.6733C146.933 9.66253 146.473 7.67911 146.617 5.66602Z" fill="#344279"/>
<path d="M73.5901 7.2795C74.5473 6.91888 75.4931 6.52858 76.4548 6.1748C76.9437 7.85238 76.6056 9.63267 76.7153 11.3559C75.7215 11.7325 74.7323 12.1251 73.7546 12.5382C73.6632 10.7967 73.9031 9.03696 73.5947 7.31373L73.5901 7.2795Z" fill="#0AA4D7"/>
<path d="M70.7397 8.4983C71.6901 8.10116 72.6222 7.65608 73.5954 7.31372C73.9038 9.03695 73.6639 10.7967 73.7553 12.5382C72.8301 12.9193 71.9185 13.337 71.0025 13.7365C70.5661 12.0224 70.8608 10.2421 70.7397 8.4983Z" fill="#15ACD7"/>
<path d="M67.7146 9.89513C68.7221 9.42495 69.7227 8.94793 70.7393 8.49829C70.8603 10.2421 70.5656 12.0223 71.002 13.7364C69.9283 14.2454 68.8477 14.7339 67.7946 15.2771C67.7786 13.4831 67.8722 11.6845 67.7146 9.89513Z" fill="#1EB3D6"/>
<path d="M63.9208 11.8207C65.1704 11.1473 66.4474 10.5288 67.7153 9.89429C67.873 11.6837 67.7793 13.4823 67.7953 15.2762C66.5982 15.8605 65.424 16.495 64.2589 17.141C63.7061 15.42 63.9573 13.5941 63.9208 11.8207Z" fill="#27B9D6"/>
<path d="M156.703 9.95386C163.769 13.4414 170.453 17.7392 176.45 22.8587C186.216 31.3036 194.217 41.7685 199.905 53.3472C198.945 53.3883 197.301 53.2354 197.145 54.5272C197.065 55.7346 196.928 57.0151 197.294 58.1837C198.093 59.0898 199.45 58.7725 200.519 58.8159C201.203 58.8661 202.121 58.5968 202.564 59.2861C203.106 60.6418 203.683 61.9976 204.067 63.4104C204.282 64.2435 203.471 64.7525 202.783 64.9442C201.6 65.3002 200.408 65.9165 199.137 65.7042C198.091 65.4623 197.849 64.3051 197.529 63.4424C193.125 50.5627 185.314 38.936 175.363 29.6762C169.759 24.4495 163.454 19.9897 156.726 16.3287C156.92 15.6097 156.998 14.8611 156.856 14.1261C156.602 12.7498 156.671 11.3461 156.703 9.95386Z" fill="#383B6D"/>
<path d="M56.0874 16.5408C58.614 14.8336 61.2435 13.2815 63.9209 11.8208C63.9575 13.5942 63.7062 15.4202 64.259 17.1411C61.561 18.6452 58.9476 20.3023 56.4186 22.0734C55.9252 20.2658 56.2199 18.385 56.0874 16.5408Z" fill="#31C1D6"/>
<path d="M47.002 23.4618C49.8804 20.9694 52.9233 18.6619 56.0874 16.5415C56.2199 18.3857 55.9252 20.2664 56.4186 22.0741C54.7921 23.197 53.2432 24.4204 51.6737 25.6187C50.1408 24.845 48.5805 24.1328 47.002 23.4618Z" fill="#46C6D9"/>
<path d="M4.78436 19.1527C12.4511 16.8064 20.6707 16.7151 28.5316 18.0846C34.8551 19.2098 41.0757 20.9718 47.0017 23.4619C48.5803 24.133 50.1406 24.8451 51.6735 25.6188C55.8289 27.7118 59.7811 30.2088 63.4431 33.0823C66.0589 35.1548 68.5969 37.3482 70.8175 39.8429C73.5086 42.8739 75.7382 46.3455 77.1364 50.1594C78.6304 54.1856 78.6441 58.739 77.1935 62.7812C76.0215 66.1135 73.8513 69.0852 71.0345 71.2216C67.3176 74.0016 62.9634 75.8868 58.4355 76.882C51.8402 78.2674 44.9319 78.2583 38.3663 76.7062C37.9711 76.6286 37.4411 76.5168 37.2035 76.9436C36.9111 77.7402 36.9933 78.66 36.4999 79.3881C35.9379 80.3193 34.7431 80.5019 33.7517 80.5818C32.662 80.6799 31.5243 80.1618 30.9966 79.1826C30.3478 77.9844 29.9891 76.6423 29.8817 75.2866C29.7195 74.0541 28.6321 73.2484 27.5927 72.7394C21.9089 69.859 16.7368 65.8396 12.9126 60.7156C12.0513 59.5173 11.3957 58.0292 11.6926 56.5273C11.9576 54.989 13.1296 53.8067 14.3564 52.9394C17.911 50.4812 22.0848 49.1414 26.2357 48.0847C27.5538 47.7583 29.1758 47.8679 30.1262 46.7312C30.7064 45.1335 30.1422 43.3875 30.5145 41.7395C30.8367 39.2152 31.1336 36.652 32.0269 34.2509C32.2302 33.5343 33.2239 33.1714 33.7951 33.6917C34.3616 34.2327 34.8117 34.8832 35.2686 35.5177C36.292 37.1496 36.4953 39.1102 36.6964 40.9818C36.8334 42.0614 36.9728 43.1501 36.8243 44.2388C36.7306 45.1016 36.8174 46.2633 37.7632 46.6262C38.9854 46.9686 40.2624 46.4961 41.5121 46.6399C45.254 46.9526 49.0372 47.3178 52.6284 48.4795C54.6067 49.1437 56.5988 49.9563 58.1911 51.344C59.4247 52.4509 60.4093 53.9573 60.5099 55.6509C60.816 59.0129 57.6748 62.2334 54.2961 61.9664C53.2452 61.8659 52.1806 61.5327 51.3513 60.8662C51.1046 60.695 50.9401 60.2911 51.1983 60.0605C52.0618 59.1453 53.4302 58.9946 54.3714 58.1844C55.0888 57.5111 54.6684 56.2466 53.7957 55.9248C48.9641 53.6789 43.527 53.7907 38.3298 53.3365C37.8774 53.3251 37.3155 53.2247 36.9842 53.6127C36.6781 53.987 36.7375 54.5028 36.7215 54.9548C36.87 59.9053 36.9385 64.8582 37.0322 69.811C37.0093 70.3246 37.3863 70.7811 37.9049 70.8267C44.9616 72.1528 52.4411 71.9748 59.1986 69.3865C62.0884 68.2499 65.0126 66.9055 67.1828 64.6231C69.3257 62.4297 70.6004 59.3941 70.5502 56.3196C70.573 52.7111 69.0196 49.3035 67.0503 46.3546C64.7864 42.9835 61.7572 40.1966 58.5292 37.7636C54.7233 34.9083 50.6706 32.3793 46.4191 30.243C44.9456 29.5126 43.4562 28.8142 41.9438 28.1683C34.3433 24.9546 26.2174 22.9849 17.9887 22.3481C13.9314 22.0354 9.82394 22.2591 5.8535 23.1721C5.20242 23.3524 4.41656 23.4802 3.9985 24.0691C5.00367 24.3863 6.02484 24.6556 7.00945 25.0345C7.63083 25.2057 7.56001 26.1689 6.95919 26.3241C5.18643 26.9244 3.16009 27.0841 1.41474 26.3058C0.916725 26.0707 0.363879 25.7923 0.139999 25.2582C-0.0039232 24.7561 0.000646754 24.1992 0.201682 23.7176C1.1703 21.7638 2.62324 19.8466 4.78436 19.1527ZM25.4293 53.987C21.9797 54.3933 18.489 54.9342 15.2884 56.3448C14.6579 56.6415 13.8926 57.1345 13.9383 57.9288C14.0571 58.7093 14.6533 59.2868 15.1833 59.8254C18.9162 63.6485 23.6017 66.4422 28.559 68.3708C28.9474 68.5945 29.5185 68.4644 29.5413 67.9554C29.7355 65.3809 29.7812 62.7926 30.0554 60.2249C29.916 58.383 30.2221 56.5228 29.8954 54.6946C29.8155 54.1171 29.2741 53.7588 28.7189 53.7428C27.6178 53.6743 26.5213 53.8866 25.4293 53.987Z" fill="#8EA7FF"/>
<path d="M87.6012 21.355C89.5133 21.088 91.4826 21.0788 93.3718 21.5148C94.1486 21.6654 94.5438 22.4414 95.204 22.8089C96.6706 23.8292 98.6125 23.9319 99.974 25.121C101.272 26.3763 101.352 28.3871 100.876 30.0305C99.9352 33.55 97.2189 36.2455 94.3702 38.3522C91.5717 40.3744 88.1838 41.6663 84.7159 41.7484C83.311 41.8009 81.8992 40.7328 80.5376 41.4357C79.6786 41.8146 79.5941 43.1293 78.5478 43.1567C77.5906 43.0745 76.9738 42.2232 76.4758 41.4951C75.9298 40.6917 75.8361 39.692 75.9572 38.7539C76.0828 37.8409 75.3084 37.1973 74.9178 36.4623C73.8578 34.6866 73.8235 32.4179 74.687 30.5577C76.951 25.4542 82.171 22.1265 87.6012 21.355ZM80.1972 29.2499C79.0778 30.4231 78.1777 32.0276 78.5432 33.7006C80.2794 31.2379 82.3583 29.0331 84.6725 27.1021C82.9569 27.1501 81.3851 28.0653 80.1972 29.2499ZM93.895 27.6385C92.7687 27.8804 91.7453 28.4374 90.7744 29.0376C88.6407 30.3546 86.7194 32.0071 85.07 33.8946C84.5263 34.536 83.7679 35.0199 83.4138 35.8027C83.3589 36.2798 83.745 36.6929 84.2225 36.6792C86.146 36.629 88.1107 36.7454 89.9702 36.1451C92.6637 35.3782 95.2543 33.7006 96.4536 31.0872C96.8557 30.1834 97.3925 29.0171 96.7095 28.111C95.9921 27.3578 94.8271 27.4399 93.895 27.6385Z" fill="#8EA7FF"/>
<path d="M210.195 38.7604C210.352 38.2149 210.988 38.1168 211.474 38.0917C212.518 38.0665 213.592 37.8817 214.618 38.1715C215.422 38.4614 215.559 39.4109 215.714 40.139C216.37 43.9027 216.952 47.6915 217.133 51.5123C217.172 52.0304 217.169 52.617 217.537 53.0324C218.056 53.5299 218.837 53.3998 219.495 53.4249C222.613 53.3017 225.736 53.3839 228.859 53.361C229.883 53.3884 230.929 53.2629 231.936 53.5162C232.551 53.676 232.663 54.3881 232.697 54.9268C232.745 55.9402 232.82 56.981 232.583 57.9761C232.478 58.5399 231.831 58.6928 231.347 58.7156C227.246 58.8092 223.141 58.8183 219.04 58.7224C218.538 58.7293 217.932 58.8137 217.672 59.3045C217.377 59.8591 217.519 60.5119 217.489 61.1121C217.551 64.7846 217.352 68.4547 216.996 72.1066C216.936 72.7205 216.763 73.5308 216.05 73.6769C214.846 73.8526 213.596 73.8503 212.395 73.6746C211.531 73.5536 211.488 72.4969 211.57 71.8235C211.981 67.9663 212.139 64.0884 212.182 60.2129C212.226 59.6035 211.99 58.7909 211.259 58.759C208.303 58.7955 205.343 58.7841 202.384 58.7749C202.43 58.9028 202.521 59.1584 202.565 59.2862C202.121 58.5969 201.203 58.8662 200.52 58.816C199.451 58.7727 198.094 59.0899 197.294 58.1838C196.929 57.0152 197.066 55.7348 197.146 54.5274C197.301 53.2355 198.946 53.3884 199.905 53.3473C203.081 53.3793 206.259 53.3496 209.436 53.3633C210.11 53.3656 210.807 53.5094 211.467 53.2926C211.878 53.1237 211.92 52.5987 211.883 52.2175C211.543 48.5543 211.104 44.8978 210.485 41.2711C210.352 40.4403 210.101 39.6072 210.195 38.7604Z" fill="#8EA7FF"/>
<path d="M131.103 43.2931C131.03 42.2911 132.314 41.5676 133.127 42.1724C135.805 44.1011 137.833 46.8696 138.971 49.9623C140.821 54.7577 141.162 60.0666 140.294 65.1107C139.889 67.1056 139.27 69.3104 137.507 70.536C136.209 71.5015 134.336 71.5061 132.99 70.6365C132.348 70.2188 131.866 69.6139 131.389 69.0274C128.981 66.0283 127.286 62.5499 125.509 59.1627C125.205 58.6172 125.058 57.5742 124.229 57.6974C123.701 58.0261 123.939 58.7725 123.877 59.2906C123.692 62.5499 123.583 65.8137 123.366 69.073C123.213 70.0156 123.16 71.0382 122.621 71.8598C121.993 72.7819 120.713 73.0125 119.699 72.6952C118.854 72.4076 118.274 71.6362 117.977 70.8259C117.479 69.5546 117.506 68.1715 117.44 66.8317C117.323 61.4589 118.054 56.0495 119.763 50.9483C120.145 49.9144 120.647 48.8622 121.506 48.1409C122.05 47.6571 122.891 47.5544 123.532 47.9036C124.622 48.4354 125.305 49.4876 126.102 50.3594C129.196 54.1574 131.466 58.5305 134.212 62.5658C134.429 62.8443 134.726 62.5818 134.966 62.4951C134.765 57.8298 133.5 53.3015 132.367 48.7983C131.937 46.9678 131.14 45.1966 131.103 43.2931Z" fill="#8EA7FF"/>
<path d="M173.464 45.2729C173.887 44.8826 174.609 44.9443 174.967 45.3985C175.221 45.9622 175.018 46.5853 174.981 47.1719C174.874 48.5117 174.181 49.6849 173.597 50.8603C172.24 53.4828 170.41 55.9022 169.633 58.7894C169.29 59.8781 169.137 61.033 169.329 62.1674C171.47 59.4262 173.407 56.523 175.714 53.9142C177.617 51.7733 179.721 49.7351 182.275 48.3839C183.655 47.6832 185.334 47.286 186.822 47.8977C188.302 48.4889 189.202 49.961 189.652 51.4263C190.721 55.0645 190.529 59.093 188.942 62.5554C187.498 65.6892 185.186 68.3756 182.502 70.5211C180.137 72.4132 177.092 73.5498 174.04 73.2463C173.542 73.2166 172.827 72.9907 172.557 73.5681C169.679 80.3012 167.773 87.4429 166.86 94.7033C166.816 95.2625 166.615 95.8605 166.083 96.1321C165.395 96.422 164.564 96.2964 163.977 95.84C162.492 94.6166 161.249 93.0303 160.696 91.1656C159.926 88.7553 160.258 86.1808 160.701 83.7431C161.644 78.6259 163.579 73.7598 165.701 69.0306C165.95 68.5491 165.727 68.0378 165.51 67.5996C164.249 64.9611 164.095 61.8912 164.776 59.0724C166.074 53.6859 169.272 48.8563 173.464 45.2729ZM185.286 53.2386C184.743 53.5855 184.366 54.1287 183.943 54.6035C180.87 58.1618 177.846 61.857 175.826 66.1343C179.198 65.7668 182.344 63.9112 184.409 61.2407C186.008 59.2299 186.961 56.6462 186.744 54.0603C186.662 53.4143 185.885 52.8985 185.286 53.2386Z" fill="#8EA7FF"/>
<path d="M101.967 46.0027C104.875 45.5577 107.829 45.6969 110.753 45.8704C112.629 45.9822 114.495 46.3268 116.275 46.9362C117.6 47.4452 117.264 49.3237 116.416 50.1339C115.594 51.1176 114.228 51.1131 113.058 51.2135C107.29 51.7636 101.453 51.9758 95.7875 53.2745C95.1296 53.4001 95.0268 54.5367 95.767 54.6006C97.5763 54.7467 99.3582 55.1461 101.179 55.2237C105.113 55.5341 109.277 55.3173 112.885 57.1798C114.598 58.063 115.781 59.7908 116.076 61.683C116.352 63.5774 116.295 65.5334 115.843 67.3981C115.541 68.5759 114.838 69.7102 113.728 70.2763C110.337 71.9675 106.579 73.1407 102.753 72.949C99.9293 72.8326 97.1651 71.9402 94.7412 70.5045C93.2974 69.6418 92.025 68.4344 91.2437 66.9325C90.4304 65.3394 90.5995 63.2236 91.8742 61.9158C93.4642 60.2062 95.9771 59.8707 98.1954 59.9187C101.494 60.0214 104.898 60.4276 107.856 61.9911C108.311 62.2193 108.825 62.5914 108.757 63.1734C108.83 63.744 108.402 64.221 107.932 64.4744C105.597 65.7343 102.732 65.805 100.261 64.908C98.6523 64.3945 97.1948 63.2966 95.4517 63.2989C94.33 63.3103 93.3911 64.5999 93.8731 65.6407C94.3963 66.4555 95.4586 66.5331 96.3221 66.7248C100.765 67.5899 105.506 67.0284 109.536 64.9286C110.372 64.4972 111.461 64.0202 111.605 62.9657C111.772 62.0459 111.03 61.2904 110.223 61.0119C108.197 60.261 106.063 59.8319 103.925 59.5626C100.434 59.1221 96.8864 59.3663 93.4117 58.7706C92.1849 58.5424 90.7594 58.2844 89.9964 57.1866C89.263 55.9564 89.4869 54.4386 89.7154 53.0965C90.0786 51.1473 91.4607 49.4948 93.2335 48.6412C95.9794 47.3083 98.947 46.4432 101.967 46.0027Z" fill="#8EA7FF"/>
<path d="M157.146 45.8592C158.763 45.6789 160.483 45.5168 162.016 46.197C163.727 46.9547 164.917 48.63 165.388 50.4012C165.649 51.2959 164.714 51.8209 163.967 51.9099C160.721 52.4325 157.438 52.6905 154.158 52.8845C153.157 52.9575 152.483 53.8727 152.081 54.7035C151.93 55.1235 151.754 55.7124 152.129 56.0616C154.244 56.0388 156.362 56.0342 158.48 56.0479C159.129 56.0296 159.908 56.3195 160.077 57.0179C160.33 57.9491 160.195 58.9443 160.006 59.8778C159.871 60.453 159.295 60.752 158.745 60.7793C156.223 60.9848 153.694 61.0715 151.167 61.1582C150.477 61.1331 149.687 61.4664 149.527 62.2036C149.298 63.2717 148.734 64.2304 148.51 65.2963C148.421 65.8737 149.015 66.3096 149.557 66.2275C150.489 66.0883 151.345 65.6363 152.289 65.5496C154.434 65.2871 156.561 64.8877 158.701 64.607C160.248 64.3947 161.536 65.8281 161.699 67.2637C161.792 68.0625 161.281 68.7633 160.705 69.2563C157.744 71.7053 154.292 73.675 150.498 74.4579C149.065 74.782 147.521 74.8573 146.13 74.3255C144.293 73.675 142.847 72.0933 142.278 70.2423C141.872 68.9846 141.945 67.6403 142.093 66.3484C142.308 64.1938 143.526 62.1693 143.162 59.9577C143.091 59.1337 142.429 58.2687 142.954 57.4767C143.514 56.6322 144.787 56.8262 145.351 55.9817C146.123 55.0071 146.991 53.9481 147.172 52.6859L147.035 52.4805C145.851 52.2591 144.622 51.8779 143.811 50.9261C143.261 50.2597 142.612 49.4768 142.742 48.5547C142.957 47.9156 143.704 47.7376 144.289 47.6029C148.538 46.7927 152.823 46.1262 157.146 45.8592Z" fill="#8EA7FF"/>
<path d="M83.1809 46.3884C83.7475 46.2263 84.3437 46.5185 84.7458 46.9133C85.8492 48.0157 86.5345 49.513 86.7082 51.0582C86.8361 52.7358 86.8589 54.4179 86.964 56.0978C87.1399 61.0484 87.7156 66.0035 87.3067 70.9586C87.2039 71.9218 86.9069 73.0835 85.9132 73.4853C84.908 73.8755 83.7772 73.645 82.7834 73.3278C81.9427 73.0333 81.3785 72.2299 81.2231 71.374C80.7319 69.3655 80.7548 67.2816 80.7639 65.2275C80.7319 60.4275 80.8941 55.6253 81.3191 50.8437C81.4219 49.7116 81.5635 48.5521 82.0387 47.5068C82.2603 47.0115 82.6326 46.5299 83.1809 46.3884Z" fill="#8EA7FF"/>
<path d="M41.9446 28.168C43.4569 28.8139 44.9464 29.5123 46.4199 30.2427C44.1788 32.3197 42.0771 34.5473 40.0668 36.8503C39.8726 34.7824 39.8543 32.6963 39.5528 30.6353L39.5459 30.5942C40.3363 29.7771 41.1153 28.9486 41.9446 28.168Z" fill="#6ECFDF"/>
<path d="M35.269 35.5174C36.642 33.8421 38.0424 32.1873 39.5525 30.6353C39.854 32.6963 39.8723 34.7824 40.0665 36.8503C38.9014 38.1946 37.7888 39.5778 36.6968 40.9815C36.4958 39.1099 36.2925 37.1493 35.269 35.5174Z" fill="#7CD3E2"/>
<path d="M28.6094 44.9321C29.1142 43.7955 30.0075 42.8757 30.5146 41.739C30.1423 43.3869 30.7065 45.133 30.1263 46.7307C29.5277 46.2536 28.6688 45.7789 28.6094 44.9321Z" fill="#9CDAE7"/>
</svg>
