<svg width="232" height="41" viewBox="0 0 232 41" fill="none" xmlns="http://www.w3.org/2000/svg">
<path d="M66.6621 2.64384C71.2446 0.483752 76.6906 -0.0204539 81.5047 1.66147C84.5752 2.63454 87.251 4.53228 89.5283 6.77981C92.5914 10.1809 94.5426 14.6592 94.7057 19.264C94.6927 19.9431 94.6964 20.6315 94.702 21.3125C94.4259 28.5649 89.8081 35.4638 83.191 38.4034C76.8722 41.3468 68.9598 40.437 63.5064 36.0796C61.1771 34.2284 59.2963 31.8655 57.8528 29.2719C57.7194 34.8851 52.5865 39.6816 47.0775 39.9086C41.335 39.9179 35.5925 39.9272 29.85 39.9049C29.8426 27.0709 29.837 14.2369 29.8537 1.40472C35.9649 1.39914 42.078 1.40844 48.1912 1.40099C49.5883 1.25215 50.8336 2.01311 52.0714 2.5322C55.1659 4.44298 57.6953 7.74544 57.8547 11.4851C59.8207 7.73613 62.8893 4.58252 66.6621 2.64384ZM39.8489 9.96692L39.86 10.1493C39.834 12.1921 39.847 14.2387 39.8563 16.2853L39.8526 16.4639C41.6426 16.5011 43.4326 16.4639 45.2245 16.4714V16.2928C46.6735 16.3932 47.4611 14.8694 47.8039 13.6713C47.9614 12.274 47.2035 10.2404 45.5988 10.1418L45.5914 9.96506C43.6772 9.95203 41.763 9.9539 39.8489 9.96692ZM73.9463 10.5232L73.95 10.7018C69.5268 11.1353 65.9801 15.2825 65.7837 19.6659C65.452 19.8129 65.452 20.7599 65.7837 20.9088C65.8949 24.7061 68.5503 28.23 72.1173 29.4617C73.9852 30.284 76.0921 30.0961 78.0396 29.7072C81.9643 28.5965 84.918 24.8494 85.0644 20.7525C85.3813 15.9951 81.6938 11.2209 76.913 10.7037L76.9074 10.5232C75.9197 10.5065 74.9321 10.5046 73.9463 10.5232ZM55.972 18.1458C55.0436 19.104 53.6464 19.6547 52.6588 20.3562C53.854 21.0427 55.001 21.8223 55.959 22.8214C55.6718 21.2753 55.7385 19.692 55.972 18.1458ZM39.8618 24.4791C39.8266 26.5853 39.8526 28.6914 39.8563 30.7975L39.8507 30.9799C41.7649 30.9947 43.6791 30.9892 45.5932 30.9817L45.5988 30.8012C46.8551 30.5389 47.6075 29.2123 47.8206 28.0086C47.9039 26.5425 47.0942 24.8568 45.5858 24.4866C43.6791 24.4494 41.7686 24.4735 39.8618 24.4791Z" fill="#FEFEFE"/>
<path d="M73.5737 12.7463C77.3131 11.7658 81.4602 14.125 82.6573 17.7735C83.2298 19.7159 83.178 21.8834 82.27 23.7179C81.1952 25.7124 79.3663 27.385 77.1 27.8278C73.0345 28.9702 68.3575 25.8575 67.8257 21.6825C67.8294 20.6871 67.835 19.6954 67.8275 18.7019C68.3371 15.8162 70.7553 13.4366 73.5737 12.7463Z" fill="#FEFEFE"/>
<path d="M117.86 0.669948C118.846 0.656924 119.834 0.656923 120.825 0.671807V0.848561C120.584 0.852282 120.343 0.857861 120.106 0.863443C119.484 0.857861 118.883 0.85414 118.27 0.863443C118.17 0.861582 117.97 0.856003 117.87 0.854142L117.86 0.669948Z" fill="#42147B"/>
<path d="M140.1 0.672363C140.794 0.674224 142.184 0.674225 142.879 0.676085L142.872 0.858417C141.941 0.850975 141.022 0.86772 140.098 0.852836L140.1 0.672363Z" fill="#372077"/>
<path d="M174.184 0.683035C175.231 0.668151 176.285 0.640241 177.34 0.675591L177.345 0.852342C177.256 0.854202 177.077 0.859785 176.986 0.861645C176.059 0.857924 175.144 0.848621 174.223 0.861645L174.184 0.683035Z" fill="#5750B6"/>
<path d="M113.049 1.82232C114.644 1.45021 116.21 0.83251 117.87 0.854837C117.97 0.856697 118.17 0.862277 118.27 0.864137C118.287 1.32183 117.803 1.19345 117.505 1.27346C117.627 1.77394 117.653 2.27256 117.294 2.6856C117.16 3.79449 116.551 4.86616 116.719 6.01598C116.636 5.99365 116.469 5.94713 116.386 5.9248C116.877 6.78251 115.978 7.64394 116.349 8.49607L116.375 8.63189C114.824 8.95005 113.71 10.2487 112.848 11.4748C113.534 9.30541 113.213 7.01508 113.473 4.78616C113.612 4.3266 113.495 3.85775 113.515 3.39075C113.947 2.72096 113.415 2.34699 113.069 1.94511L113.049 1.82232Z" fill="#9E1BE2"/>
<path d="M118.269 0.864065C118.883 0.854762 119.483 0.858483 120.106 0.864065C119.548 1.43525 119.266 2.12737 119.414 2.92182C118.979 3.52464 119.086 4.29118 118.788 4.94981C118.251 5.93404 118.327 7.08757 117.852 8.0997C117.406 8.36948 116.854 8.41972 116.348 8.496C115.977 7.64387 116.876 6.78244 116.385 5.92473C116.468 5.94706 116.635 5.99357 116.718 6.0159C116.55 4.86609 117.159 3.79441 117.293 2.68553C117.652 2.27249 117.626 1.77387 117.504 1.27338C117.802 1.19338 118.286 1.32176 118.269 0.864065Z" fill="#9923E1"/>
<path d="M120.106 0.863515C120.343 0.857933 120.584 0.852354 120.825 0.848633C120.97 0.848633 121.257 0.848633 121.399 0.848633C121.69 1.27842 121.207 1.66913 121.312 2.1324C120.977 2.70359 121.099 3.32687 121.144 3.96318C120.349 5.11857 120.408 6.61444 119.874 7.89635C119.422 7.90938 118.981 7.95961 118.548 8.04706C118.318 8.10287 118.086 8.11962 117.853 8.09915C118.327 7.08702 118.251 5.93349 118.789 4.94926C119.087 4.29063 118.979 3.52409 119.415 2.92127C119.267 2.12682 119.548 1.4347 120.106 0.863515Z" fill="#952AE0"/>
<path d="M121.399 0.848633C122.168 0.854214 122.896 1.13888 123.65 1.27098C123.565 1.53889 123.454 1.79564 123.337 2.0524C122.963 2.88406 123.33 3.95201 122.609 4.62367C122.711 5.13717 122.414 5.57068 122.249 6.0321C121.927 6.7391 121.923 7.53541 121.734 8.28149C121.188 8.34288 120.674 8.08055 120.131 8.0638C120.066 8.02287 119.939 7.93729 119.874 7.89635C120.407 6.61444 120.348 5.11857 121.143 3.96318C121.099 3.32687 120.976 2.70359 121.312 2.1324C121.206 1.66913 121.69 1.27842 121.399 0.848633Z" fill="#9130DE"/>
<path d="M138.793 0.865808C139.119 0.862087 139.771 0.856504 140.097 0.852783C141.022 0.867668 141.941 0.850922 142.871 0.858365L143.036 0.86953C143.546 1.38118 144.016 1.9319 144.294 2.60727C144.847 2.93845 144.656 3.62685 144.481 4.12547C144.815 4.55154 144.822 5.119 145 5.61576C145.905 6.53487 147.035 7.22513 148.195 7.76841C148.421 8.16656 148.795 8.41401 149.184 8.63356C148.775 8.63542 148.464 8.89961 148.256 9.22707C148.308 9.51173 148.667 9.58988 148.845 9.79826C148.458 10.2336 148.015 10.8718 147.368 10.4941C146.262 9.36847 144.872 8.39169 143.257 8.27447L143.258 8.12749C143.709 8.24098 143.692 7.75166 143.477 7.50793C142.853 6.75628 141.971 5.85577 142.241 4.7748C141.739 4.16454 141.88 3.35335 141.852 2.62402C142.247 2.38401 141.991 2.32261 141.656 2.27237C141.493 1.86864 141.346 1.45746 141.152 1.06861C140.36 0.847205 139.577 1.30117 138.802 1.05372L138.793 0.865808Z" fill="#7647D3"/>
<path d="M143.037 0.869385C143.775 0.99218 144.809 0.709378 145.435 1.25824C145.405 1.60988 145.565 1.76617 145.904 1.73082C145.852 2.56434 146.443 3.24157 146.877 3.9002C147.006 4.06951 146.606 4.57372 146.895 4.49929C147.403 4.2351 146.865 5.3384 147.468 5.03327C147.425 5.72167 148.14 5.33654 148.604 5.36259C149.343 5.61376 150.242 5.8054 150.382 6.71334C151.231 7.11336 151.952 7.73292 152.649 8.34131C153.395 8.51434 153.946 9.2753 154.744 9.17297C154.811 9.44647 154.835 9.72741 154.87 10.0065C154.233 9.54694 153.59 9.01669 152.749 9.16181C152.576 8.84552 152.395 8.63342 152.087 8.94599C151.581 8.77854 151.146 8.40271 150.601 8.35433C149.647 8.62969 149.104 7.03707 148.196 7.76826C147.036 7.22499 145.906 6.53472 145.001 5.61562C144.823 5.11885 144.816 4.55139 144.482 4.12533C144.657 3.6267 144.848 2.9383 144.295 2.60713C144.017 1.93175 143.547 1.38103 143.037 0.869385Z" fill="#733ECE"/>
<path d="M172.362 1.06081C172.82 0.578931 173.626 0.945456 174.223 0.861732C173.656 1.3771 173.367 2.12504 173.45 2.90461C173.307 4.40978 174.039 5.8331 173.943 7.32897C173.969 7.62666 174.008 7.9355 174.193 8.18296C173.431 8.24621 172.724 8.51041 172.003 8.73554C171.905 8.71321 171.706 8.66856 171.606 8.64623C171.628 7.82201 172.151 7.10198 172.251 6.29451C172.075 4.90097 171.943 3.49998 171.845 2.10085C171.773 1.68037 172.144 1.37338 172.362 1.06081Z" fill="#6B5ED4"/>
<path d="M174.224 0.862176C175.145 0.849152 176.061 0.858455 176.987 0.862176C176.441 3.426 177.024 6.15727 178.434 8.34155C177.767 8.26526 177.091 8.16293 176.431 8.07177C176.029 7.7778 175.395 7.64757 175.112 8.09782C174.802 8.11828 174.497 8.14247 174.195 8.1834C174.009 7.93595 173.97 7.6271 173.945 7.32941C174.041 5.83354 173.309 4.41023 173.452 2.90505C173.368 2.12548 173.657 1.37755 174.224 0.862176Z" fill="#6B6EDC"/>
<path d="M176.986 0.862086C177.077 0.860226 177.257 0.854644 177.345 0.852783C178.224 0.949531 179.304 0.743012 180.103 1.22861C179.992 1.79608 180.038 2.41936 179.651 2.88077C179.882 4.23897 180.201 5.61763 180.875 6.80651C181.3 7.2363 181.815 7.5898 182.076 8.1554C182.584 8.36937 183.099 8.58333 183.451 9.03358C184.906 9.36103 186.566 9.73686 188.078 9.22335C190.085 8.8531 191.597 7.15443 192.373 5.33296C193.126 4.1478 192.377 2.64821 192.9 1.41095C192.994 1.40909 193.181 1.40723 193.276 1.40537C193.37 1.4556 193.558 1.55235 193.652 1.60258C193.637 3.69569 193.669 5.7888 193.639 7.8819C192.713 8.27076 192.436 9.44103 191.586 9.9564C190.333 10.7583 188.949 11.4113 187.489 11.7202C186.653 11.776 185.814 11.5807 184.989 11.7593C184.439 11.9025 183.974 11.4597 183.431 11.4616C182.076 9.97129 180.342 8.93125 178.433 8.34146C177.023 6.15718 176.439 3.42591 176.986 0.862086Z" fill="#6A7EE2"/>
<path d="M131.194 4.38956C133.273 2.54019 136.005 1.22292 138.803 1.05362C139.577 1.30107 140.361 0.847099 141.152 1.0685C141.347 1.45736 141.493 1.86853 141.656 2.27227C141.992 2.3225 142.247 2.3839 141.853 2.62391C141.88 3.35324 141.74 4.16444 142.242 4.77469C141.971 5.85567 142.853 6.75617 143.478 7.50783C143.693 7.75156 143.709 8.24088 143.259 8.12738C142.961 8.12552 142.657 8.14413 142.372 8.06227C142.184 7.99157 142.001 7.92273 141.817 7.85575C141.278 7.44085 140.524 7.3348 140.055 6.86222C139.751 6.15708 139.479 4.97936 138.519 5.03331C138.15 4.53841 137.654 4.17374 137.22 3.74395C136.427 3.49836 135.684 3.85187 135.122 4.41747C133.811 4.39701 132.502 4.38398 131.194 4.38956Z" fill="#7D4AD8"/>
<path d="M171.221 1.23188C171.586 1.09978 171.968 0.999315 172.363 1.06071C172.144 1.37328 171.774 1.68027 171.846 2.10075C171.944 3.49988 172.076 4.90087 172.252 6.29441C172.152 7.10188 171.629 7.82191 171.607 8.64613C171.707 8.66845 171.905 8.71311 172.003 8.73544C171.351 8.98475 170.741 9.31964 170.143 9.67501C170.054 9.60058 169.872 9.4536 169.783 9.37918C170.071 8.45449 170.658 7.65632 170.966 6.73721C171.283 4.91202 170.525 3.00869 171.221 1.23188Z" fill="#6C55D2"/>
<path d="M0.00952148 1.2225C3.59141 1.21692 7.17515 1.20389 10.757 1.22622L10.7533 1.40483C7.17515 1.40111 3.59697 1.40297 0.0206395 1.40483L0.00952148 1.2225Z" fill="#55556C"/>
<path d="M17.4292 1.22278C20.8888 1.21348 24.3465 1.21162 27.8061 1.22278L27.8006 1.40511C24.3428 1.40325 20.8869 1.40139 17.4311 1.40511L17.4292 1.22278Z" fill="#55556C"/>
<path d="M17.2494 1.40527H17.4313C17.4202 6.1757 17.4425 10.9461 17.4239 15.7165L17.2456 15.7258C17.2456 10.9517 17.2364 6.17756 17.2494 1.40527Z" fill="#55556C"/>
<path d="M17.2461 25.0337L17.4189 25.043C17.456 29.9976 17.4133 34.9541 17.4319 39.9106L17.2499 39.918C17.2387 34.9559 17.2424 29.9939 17.2461 25.0337Z" fill="#55556C"/>
<path d="M29.8428 1.22275C35.9559 1.21717 42.0708 1.20786 48.184 1.22461L48.1914 1.40136C42.0783 1.4088 35.9652 1.3995 29.8539 1.40508L29.8428 1.22275Z" fill="#AAAAB6"/>
<path d="M39.8562 16.2852C41.6463 16.2907 43.4344 16.2777 45.2244 16.2926V16.4712C43.4326 16.4638 41.6426 16.501 39.8525 16.4638L39.8562 16.2852Z" fill="#AAAAB6"/>
<path d="M123.651 1.27173C124.359 1.33499 125.019 1.70337 125.651 2.02153C124.498 2.68946 124.908 4.30255 123.985 5.13793C123.625 5.83191 123.889 6.72311 123.448 7.38732C123.244 7.84315 123.255 8.36224 123.09 8.83296C122.671 8.60969 121.969 8.65807 121.735 8.28224C121.924 7.53616 121.928 6.73985 122.25 6.03285C122.415 5.57143 122.712 5.13793 122.61 4.62442C123.331 3.95276 122.964 2.88481 123.338 2.05315C123.455 1.7964 123.566 1.53965 123.651 1.27173Z" fill="#8E35DE"/>
<path d="M145.435 1.25806C146.786 1.29899 147.972 2.01157 149.187 2.5195C149.447 2.67393 149.808 2.75951 149.934 3.06464C150.209 3.73071 150.544 4.3726 150.744 5.06658C151.78 5.37729 152.484 6.4285 153.598 6.47501C153.616 6.59595 153.651 6.83595 153.67 6.95689C154.459 7.35318 154.713 8.27787 155.078 9.02767C154.995 9.06488 154.828 9.13744 154.745 9.17279C153.946 9.27512 153.396 8.51416 152.649 8.34113C151.952 7.73273 151.231 7.11318 150.383 6.71316C150.242 5.80522 149.343 5.61358 148.604 5.36241C148.141 5.33636 147.425 5.72149 147.468 5.03309C146.866 5.33822 147.403 4.23492 146.895 4.49911C146.606 4.57353 147.006 4.06933 146.877 3.90002C146.443 3.24139 145.852 2.56416 145.904 1.73064C145.565 1.76599 145.405 1.6097 145.435 1.25806Z" fill="#7236CB"/>
<path d="M169.021 1.99079C169.734 1.70985 170.451 1.33216 171.222 1.23169C170.526 3.0085 171.283 4.91184 170.967 6.73702C170.659 7.65613 170.072 8.4543 169.784 9.37899C169.873 9.45341 170.055 9.6004 170.144 9.67482C168.113 11.0888 166.63 13.1819 165.936 15.5597C165.661 15.2267 165.278 15.4276 165.004 15.6323C164.305 16.1942 163.301 15.7625 162.515 15.7588C161.236 15.5671 159.939 15.5523 158.651 15.556C158.701 14.8248 158.746 13.8703 159.165 13.2954C159.611 12.8712 160.199 13.0629 160.692 13.2805C161.531 13.2973 162.365 13.1596 163.206 13.2545C163.957 12.8694 164.436 12.1326 165.122 11.6563C165.574 11.4591 165.754 11.0144 165.962 10.6181C166.827 9.67854 167.564 8.61989 168.224 7.52962C168.422 6.84866 169.075 6.40399 169.156 5.68024C169.106 4.45042 168.719 3.21317 169.021 1.99079Z" fill="#6D4ECF"/>
<path d="M180.104 1.22827C180.409 1.28223 181.16 1.28595 181.178 1.552C180.07 4.1028 181.836 7.24154 184.351 8.1439C185.998 8.75788 187.918 8.51786 189.383 7.54666C191.39 6.24801 192.057 3.67674 191.594 1.41804C191.922 1.41618 192.574 1.41247 192.9 1.41061C192.378 2.64787 193.127 4.14746 192.374 5.33262C191.598 7.15409 190.086 8.85276 188.079 9.22301C186.567 9.73652 184.907 9.36069 183.452 9.03324C183.1 8.58299 182.585 8.36902 182.077 8.15506C181.816 7.58946 181.301 7.23596 180.876 6.80617C180.202 5.61729 179.883 4.23863 179.651 2.88043C180.039 2.41902 179.992 1.79574 180.104 1.22827Z" fill="#6987E7"/>
<path d="M189.389 1.23038C190.682 1.22108 191.978 1.21549 193.277 1.23038V1.40527C193.182 1.40713 192.995 1.40899 192.9 1.41085C192.574 1.41271 191.922 1.41643 191.594 1.41829C190.91 1.41085 190.252 1.41457 189.576 1.41643L189.391 1.41085L189.389 1.23038Z" fill="#232C64"/>
<path d="M195.875 1.23208C198.034 1.22092 200.195 1.22464 202.359 1.23022V1.40697C202.033 1.41069 201.381 1.41441 201.055 1.41813C200.426 1.41069 199.832 1.4107 199.216 1.41628C198.097 1.4107 196.983 1.41442 195.874 1.41442L195.875 1.23208Z" fill="#231F5E"/>
<path d="M224.784 1.23054C226.88 1.23612 228.981 1.20077 231.081 1.23984L231.077 1.41845C229.153 1.41287 227.236 1.40729 225.318 1.41845C225.182 1.41659 224.914 1.41287 224.78 1.40915L224.784 1.23054Z" fill="#350963"/>
<path d="M0.0204212 1.40474C3.59675 1.40288 7.17493 1.40102 10.7531 1.40474C10.7753 6.17702 10.742 10.9512 10.7661 15.7234C12.9249 15.7309 15.0855 15.7402 17.2461 15.7253L17.424 15.716C17.4425 10.9456 17.4203 6.17516 17.4314 1.40474C20.8873 1.40102 24.3432 1.40288 27.8009 1.40474C27.8102 14.2387 27.812 27.0746 27.799 39.9105C24.3432 39.9198 20.8873 39.9216 17.4314 39.9105C17.4129 34.954 17.4555 29.9975 17.4184 25.0429L17.2461 25.0336C15.0855 25.041 12.9249 25.002 10.7642 25.0447C10.742 29.9994 10.7753 34.954 10.7513 39.9086C7.17308 39.9142 3.5949 39.9309 0.0167151 39.9049C0.00930303 27.0709 0.00374406 14.2369 0.0204212 1.40474Z" fill="white"/>
<path d="M186.404 4.01491C186.817 2.70137 187.963 1.4976 189.389 1.41016L189.575 1.41574C189.693 2.14135 189.777 2.8744 189.843 3.60931C189.53 4.8261 188.735 5.99824 187.473 6.36663C185.559 7.15178 183.234 5.79917 182.765 3.81397C182.856 3.29302 182.511 2.40368 183.265 2.29763C184.41 2.67346 185.368 3.4214 186.404 4.01491Z" fill="#6698EE"/>
<path d="M189.576 1.4169C190.253 1.41504 190.91 1.41132 191.594 1.41876C192.057 3.67745 191.39 6.24872 189.384 7.54737C187.918 8.51858 185.998 8.75859 184.351 8.14461C181.836 7.24225 180.07 4.10352 181.178 1.55272C181.875 1.72016 182.72 1.88389 183.267 2.29879C182.513 2.40485 182.857 3.29418 182.766 3.81513C183.235 5.80033 185.561 7.15294 187.475 6.36779C188.737 5.99941 189.532 4.82727 189.845 3.61047C189.778 2.87556 189.695 2.14251 189.576 1.4169Z" fill="#6791EC"/>
<path d="M196.061 2.53326C195.87 2.50163 195.374 1.3667 195.874 1.41508C196.984 1.41508 198.098 1.41136 199.217 1.41694C199.302 2.42163 198.944 3.38725 199.171 4.37148C198.937 4.89801 199.113 5.98642 198.311 5.8934C197.486 4.82545 196.832 3.6347 196.061 2.53326Z" fill="#6B6BDA"/>
<path d="M199.216 1.41609C199.832 1.41051 200.426 1.4105 201.055 1.41795C201.121 3.7306 201.405 6.38745 199.98 8.35776C199.333 7.64332 198.868 6.70374 198.31 5.89255C199.113 5.98557 198.937 4.89716 199.17 4.37063C198.944 3.3864 199.302 2.42078 199.216 1.41609Z" fill="#6E5ED7"/>
<path d="M201.056 1.4179C201.382 1.41418 202.034 1.41046 202.36 1.40674L202.549 1.4086C202.766 4.18825 202.332 6.98836 201.213 9.54288C201.037 9.50567 200.867 9.46473 200.698 9.41822C200.355 9.18007 200.183 8.72238 199.981 8.35772C201.406 6.38741 201.122 3.73055 201.056 1.4179Z" fill="#7253D5"/>
<path d="M202.548 1.40869C203.681 1.72498 205.063 2.3185 205.519 3.44412C205.715 4.16229 205.608 4.89162 205.524 5.61723C205.261 6.37261 205.391 7.32707 204.703 7.85732C203.827 9.13365 203.518 10.7598 202.384 11.8835C201.62 11.2677 201.218 10.2518 200.697 9.41831C200.866 9.46482 201.036 9.50576 201.212 9.54297C202.332 6.98845 202.765 4.18834 202.548 1.40869Z" fill="#7448D2"/>
<path d="M221.089 4.19392C221.628 2.65525 223.203 1.60777 224.778 1.40869C224.912 1.41241 225.18 1.41613 225.316 1.41799C225.357 1.89429 225.533 2.36315 225.464 2.84503C225.192 4.70929 225.401 6.59215 225.394 8.46758C225.432 9.12621 225.193 9.85182 225.664 10.4007C224.389 12.3356 223.253 14.4511 221.762 16.2242C221.436 16.3656 221.271 16.8363 220.917 16.8437C220.709 16.5386 220.73 16.1386 220.667 15.7888C221.041 14.6241 220.633 13.4036 220.563 12.2259C220.874 9.54855 220.209 6.79309 221.089 4.19392Z" fill="#9E1AE1"/>
<path d="M225.317 1.41782C227.235 1.40666 229.153 1.41224 231.077 1.41782C231.301 1.39177 231.566 1.70993 231.397 1.91831C229.524 4.76307 227.693 7.70272 225.666 10.4005C225.195 9.85165 225.434 9.12604 225.395 8.46741C225.403 6.59198 225.193 4.70912 225.466 2.84486C225.534 2.36298 225.358 1.89412 225.317 1.41782Z" fill="#A719E7"/>
<path d="M193.652 1.6022L193.832 1.60034C193.832 5.25816 193.848 8.91784 193.828 12.5775L193.652 12.5794C193.64 11.7533 193.646 10.9309 193.631 10.1067C193.639 9.36437 193.64 8.62202 193.639 7.88153C193.668 5.78842 193.637 3.69531 193.652 1.6022Z" fill="#474A9E"/>
<path d="M110.076 3.62465C110.828 2.80415 112.048 2.38181 113.069 1.94458C113.415 2.34646 113.947 2.72042 113.515 3.39022C113.495 3.85721 113.612 4.32607 113.473 4.78562C113.213 7.01455 113.534 9.30488 112.848 11.4743C112.598 12.3841 112.096 13.2362 112.059 14.2037C112.027 14.68 111.963 15.6344 111.929 16.1107C111.935 23.9231 111.935 31.7355 111.931 39.5479C111.783 40.4205 110.4 39.6391 109.895 39.9312C109.027 39.9182 108.169 39.9517 107.306 39.9219L107.297 39.7507C108.42 39.8121 109.52 39.5591 110.606 39.3135C110.906 35.9255 110.376 32.5263 110.595 29.1364C110.532 28.3084 110.893 27.447 110.526 26.6544C110.343 26.2749 110.604 25.9121 110.71 25.5548C110.756 22.0347 110.658 18.5164 110.632 14.9944C110.43 14.1497 111.114 13.1562 110.551 12.4138C110.793 9.50023 110.69 6.58849 110.617 3.67116C110.482 3.66 110.211 3.63581 110.076 3.62465Z" fill="#A619E7"/>
<path d="M125.649 2.02124C126.365 2.09194 127.036 2.59614 127.697 2.91988C127.843 3.67712 127.121 4.07527 126.887 4.706C126.528 5.68464 125.914 6.54793 125.631 7.55635C125.475 7.78147 125.661 7.99915 125.716 8.22055C125.264 8.78244 125.364 9.59363 124.962 10.2058C124.31 9.78341 123.752 9.23455 123.089 8.83267C123.254 8.36196 123.242 7.84287 123.446 7.38704C123.887 6.72282 123.624 5.83163 123.984 5.13764C124.906 4.30226 124.497 2.68917 125.649 2.02124Z" fill="#8C3DDF"/>
<path d="M167.715 2.54913C168.128 2.33145 168.534 1.99841 169.019 1.99097C168.717 3.21334 169.105 4.4506 169.155 5.68041C169.073 6.40416 168.421 6.84883 168.223 7.52979C167.563 8.62007 166.825 9.67871 165.96 10.6183C165.752 11.0146 165.573 11.4592 165.121 11.6565C164.435 12.1328 163.955 12.8695 163.205 13.2547C162.363 13.1598 161.529 13.2975 160.69 13.2807C160.197 13.063 159.61 12.8714 159.163 13.2956C159.211 12.7765 159.434 12.2965 159.606 11.8109C160.438 12.5495 161.717 11.7216 162.688 12.2035C163.521 11.69 163.946 10.7188 164.705 10.1141C165.517 9.59127 165.728 8.58099 166.444 7.95399C166.94 7.54467 166.968 6.8879 167.216 6.34277C167.511 6.20695 167.837 6.09718 168.056 5.83856C168.137 4.70363 167.289 3.69522 167.715 2.54913Z" fill="#6D47CC"/>
<path d="M165.818 3.65286C166.378 3.22494 167.049 2.83794 167.716 2.54956C167.29 3.69565 168.138 4.70406 168.057 5.83899C167.838 6.09761 167.512 6.20738 167.217 6.3432C166.969 6.88834 166.941 7.54511 166.445 7.95443C165.729 8.58143 165.518 9.5917 164.706 10.1145C163.947 10.7192 163.522 11.6904 162.688 12.2039C161.718 11.722 160.439 12.55 159.607 11.8113C159.74 11.2067 160.022 10.6503 160.33 10.1182C161.312 10.8624 163.113 10.1443 163.105 8.87911C163.274 8.9833 163.435 9.10052 163.609 9.19913C164.302 8.39351 164.944 7.52837 165.485 6.61484C166.45 5.96179 166.737 4.46591 165.818 3.65286Z" fill="#6E3EC9"/>
<path d="M127.697 2.91968C128.545 3.50761 129.529 4.04903 130.078 4.94395C129.789 5.01465 129.503 5.09651 129.227 5.2007C128.747 6.25004 127.936 7.1524 127.676 8.29664C126.72 10.0288 126.909 12.1498 126.752 14.0773L126.592 14.042C126.511 12.6075 125.699 11.3275 124.962 10.2056C125.364 9.59343 125.264 8.78224 125.716 8.22035C125.66 7.99895 125.475 7.78127 125.631 7.55614C125.914 6.54773 126.527 5.68444 126.887 4.7058C127.12 4.07507 127.843 3.67692 127.697 2.91968Z" fill="#8845DE"/>
<path d="M149.935 3.0647C151.354 3.90566 152.836 4.96431 153.598 6.47507C152.484 6.42856 151.78 5.37735 150.744 5.06664C150.544 4.37266 150.209 3.73077 149.935 3.0647Z" fill="#732AC5"/>
<path d="M205.518 3.44434C206.163 3.99878 206.682 4.89556 206.973 5.66582C206.723 7.47427 206.402 9.2976 205.813 11.0279C205.37 11.214 204.851 11.3033 204.898 11.9005C204.41 11.934 203.958 12.3768 204.103 12.8829C203.83 13.015 203.56 13.1508 203.3 13.3052C203.002 12.8512 202.411 12.4252 202.383 11.8837C203.517 10.76 203.827 9.13387 204.703 7.85754C205.391 7.32728 205.261 6.37282 205.524 5.61745C205.607 4.89183 205.715 4.1625 205.518 3.44434Z" fill="#7640D0"/>
<path d="M107.728 5.74415C108.499 5.03529 109.109 4.08641 110.074 3.625C110.21 3.63616 110.48 3.66035 110.615 3.67151C110.688 6.58884 110.791 9.50058 110.549 12.4142C111.112 13.1565 110.428 14.1501 110.63 14.9948C110.656 18.5168 110.754 22.035 110.708 25.5552C110.602 25.9124 110.341 26.2752 110.525 26.6548C110.892 27.4473 110.53 28.3088 110.593 29.1367C110.375 32.5266 110.905 35.9258 110.604 39.3139C109.518 39.5595 108.418 39.8125 107.295 39.7511C106.014 39.6302 104.808 38.4338 104.699 37.1389C104.708 29.3228 104.706 21.5085 104.701 13.6924C104.795 10.816 105.953 7.98982 107.728 5.74415Z" fill="#AC18EB"/>
<path d="M135.123 4.41778C135.685 3.85218 136.428 3.49867 137.221 3.74426C137.654 4.17405 138.151 4.53872 138.52 5.03362C139.48 4.97966 139.752 6.15738 140.056 6.86253C140.525 7.3351 141.279 7.44115 141.818 7.85605C141.514 7.90629 140.906 8.00862 140.601 8.05885C139.887 8.17607 139.181 8.35654 138.473 8.47376C138.514 7.86722 137.83 7.85233 137.523 7.46162C137.028 7.1044 136.646 6.57042 136.053 6.37879C136.161 6.28576 136.272 6.19646 136.385 6.10715C135.633 6.11831 135.129 5.41131 134.365 5.48015C134.534 5.35549 134.684 5.21781 134.597 4.99083C134.771 4.80105 134.947 4.60756 135.123 4.41778Z" fill="#7D52DC"/>
<path d="M160.329 10.118C161.554 7.54484 163.409 5.19125 165.818 3.65259C166.737 4.46564 166.449 5.96152 165.484 6.61457C164.943 7.52809 164.302 8.39324 163.609 9.19886C163.435 9.10025 163.273 8.98303 163.105 8.87884C163.112 10.144 161.311 10.8622 160.329 10.118Z" fill="#6F33C4"/>
<path d="M220.935 4.24805L221.09 4.19409C220.21 6.79327 220.875 9.54872 220.564 12.226C220.634 13.4038 221.042 14.6243 220.668 15.789C220.731 16.1388 220.71 16.5388 220.918 16.8439C221.272 16.8365 221.437 16.3657 221.763 16.2243C221.296 17.4858 220.043 18.4365 219.719 19.7817C219.645 20.351 219.439 21.0171 219.723 21.5678C220.066 22.4925 220.777 23.2442 221.209 24.1019C220.575 24.8033 219.688 25.341 219.287 26.2192C219.317 27.0099 219.424 27.8155 219.272 28.6006C219.152 29.0788 219.695 29.4937 219.447 29.9774C219.067 30.4407 219.521 31.0138 219.51 31.5515C219.406 32.1673 219.591 32.7943 219.374 33.399C219.172 33.8176 219.675 34.1897 219.471 34.6009C219.052 34.452 218.9 33.9013 218.663 33.6036C218.424 32.9525 217.764 32.5859 217.555 31.9292C217.634 31.5254 217.657 31.1198 217.468 30.7421C217.336 29.7486 217.605 28.7048 217.293 27.7299C217.692 27.3057 217.416 26.6341 217.473 26.1038C217.544 25.7987 217.04 25.4787 217.475 25.3038C217.501 24.5056 217.39 23.7111 217.462 22.913C217.388 22.7697 216.743 22.4665 217.166 22.4553C217.864 22.5297 217.399 21.7427 217.416 21.3018C217.321 20.658 217.82 19.9063 217.329 19.3761C217.316 18.4979 217.225 17.6049 217.44 16.7416C217.562 16.3732 217.036 16.0346 217.338 15.7071C217.961 14.9666 216.938 14.107 217.392 13.3386C217.629 12.8493 217.331 12.3153 217.503 11.8093C217.642 11.4744 217.334 11.2362 217.279 10.9367C217.384 10.2911 217.647 9.68454 217.77 9.04266C218.778 7.43515 219.849 5.82393 220.935 4.24805Z" fill="#971CDC"/>
<path d="M130.079 4.94392C130.585 5.35138 130.757 4.49367 131.194 4.38948C132.503 4.3839 133.811 4.39693 135.123 4.41739C134.947 4.60717 134.771 4.80066 134.597 4.99044C133.72 4.87136 132.958 5.0909 132.328 5.71046C132.073 6.1942 131.526 5.77931 131.257 6.11978C130.622 7.10959 129.768 7.99707 129.454 9.16177C129.065 9.99529 128.626 10.7916 128.793 11.7702C128.706 11.7572 128.532 11.733 128.444 11.7219C128.634 12.6075 127.831 13.0782 127.598 13.8094C127.333 14.468 127.083 15.1341 126.788 15.7816C126.768 15.2085 126.762 14.6466 126.753 14.0773C126.91 12.1498 126.721 10.0288 127.677 8.29661C127.937 7.15238 128.748 6.25002 129.228 5.20068C129.504 5.09649 129.79 5.01462 130.079 4.94392Z" fill="#854EE0"/>
<path d="M132.329 5.70985C132.959 5.09029 133.72 4.87074 134.597 4.98982C134.684 5.2168 134.534 5.35449 134.365 5.47914C135.128 5.4103 135.633 6.11731 136.385 6.10614C136.272 6.19545 136.161 6.28475 136.053 6.37778C136.646 6.56941 137.028 7.10339 137.523 7.46061C136.982 7.38247 136.448 7.34526 135.998 7.70806C134.841 7.55178 133.444 8.10994 133.161 9.33232C132.505 9.33604 132.838 9.9128 132.873 10.3258C132.39 10.0933 132.251 10.3407 132.241 10.8152C130.889 11.3491 130.97 13.1129 130.055 14.0246C129.603 14.153 129.334 14.5772 129.429 15.0423C129.543 15.8461 128.643 16.2945 128.636 17.0591C128.663 17.5913 127.928 17.8499 128.152 18.4024C128.348 18.8415 127.453 19.0183 127.904 19.422C128.324 19.9151 127.294 20.2165 127.616 20.7542C127.327 20.7318 127.04 20.6649 126.755 20.7318C126.753 19.0815 126.738 17.4294 126.788 15.7809C127.083 15.1335 127.333 14.4674 127.598 13.8088C127.831 13.0776 128.634 12.6069 128.445 11.7212C128.532 11.7324 128.706 11.7566 128.793 11.7696C128.626 10.791 129.065 9.99467 129.455 9.16115C129.768 7.99645 130.622 7.10897 131.258 6.11917C131.526 5.77869 132.073 6.19359 132.329 5.70985Z" fill="#8357E2"/>
<path d="M206.973 5.66553C207.357 5.88507 207.613 6.36695 207.757 6.78743C208.113 8.19958 207.216 9.53173 206.957 10.8806C206.649 12.5421 206.19 14.3394 204.744 15.372C204.094 14.9105 203.775 13.971 203.301 13.3049C203.56 13.1505 203.831 13.0147 204.103 12.8826C203.959 12.3765 204.411 11.9337 204.898 11.9002C204.852 11.303 205.371 11.2137 205.813 11.0276C206.403 9.2973 206.723 7.47397 206.973 5.66553Z" fill="#7638CE"/>
<path d="M207.757 6.78833C208.394 7.39487 208.889 8.25257 209.234 9.04144C209.15 9.33727 209.058 9.63123 208.984 9.93078C208.12 12.1188 207.566 14.517 205.854 16.2417C205.622 16.1971 205.394 16.1338 205.17 16.0799C204.974 15.8771 204.712 15.6891 204.744 15.3729C206.189 14.3403 206.649 12.543 206.956 10.8815C207.216 9.53263 208.113 8.20048 207.757 6.78833Z" fill="#782ECC"/>
<path d="M135.997 7.70935C136.447 7.34655 136.981 7.38376 137.522 7.4619C137.83 7.85262 138.513 7.8675 138.473 8.47404C138.232 8.92801 137.515 8.90568 137.126 9.21639C136.772 9.35035 136.614 9.83967 136.26 9.91037C135.184 9.59036 134.303 10.3997 133.471 10.9486C132.059 12.1598 130.957 13.7784 130.47 15.5832C129.838 16.5823 129.838 17.8158 129.293 18.8484C129.115 19.1907 129.1 19.5815 129.063 19.9573C128.742 20.9303 128.09 21.7881 127.94 22.8169C128.044 23.71 127.923 24.6235 127.531 25.4384C127.242 26.0506 127.544 27.0794 126.769 27.3194C126.749 25.124 126.752 22.9286 126.754 20.7331C127.04 20.6661 127.327 20.7331 127.616 20.7555C127.293 20.2178 128.324 19.9164 127.903 19.4233C127.453 19.0196 128.348 18.8428 128.151 18.4037C127.927 17.8512 128.663 17.5925 128.635 17.0604C128.642 16.2957 129.543 15.8474 129.428 15.0436C129.334 14.5785 129.602 14.1543 130.054 14.0259C130.97 13.1142 130.888 11.3504 132.241 10.8165C132.25 10.342 132.389 10.0946 132.873 10.3271C132.838 9.91409 132.504 9.33733 133.16 9.33361C133.444 8.11123 134.841 7.55307 135.997 7.70935Z" fill="#815CE2"/>
<path d="M148.196 7.76857C149.104 7.03738 149.647 8.63 150.601 8.35464C151.146 8.40301 151.582 8.77885 152.087 8.94629C152.395 8.63372 152.577 8.84583 152.749 9.16212C153.59 9.01699 154.233 9.54724 154.871 10.0068C154.835 9.72772 154.811 9.44678 154.745 9.17328C154.828 9.13793 154.995 9.06537 155.078 9.02816C155.345 9.88215 155.962 10.7138 155.834 11.6478C154.971 11.5362 154.307 10.9333 153.525 10.6115C153.131 10.3212 152.721 9.98447 152.197 10.0738C151.252 9.47283 150.186 9.12118 149.186 8.63372C148.796 8.41418 148.422 8.16672 148.196 7.76857Z" fill="#6E43CC"/>
<path d="M118.548 8.04743C118.981 7.95999 119.422 7.90975 119.874 7.89673C119.939 7.93766 120.067 8.02324 120.132 8.06418C119.606 8.14046 119.07 8.1386 118.548 8.04743Z" fill="#6A20AC"/>
<path d="M140.6 8.05827C140.906 8.00803 141.514 7.9057 141.818 7.85547C142.001 7.92245 142.185 7.99129 142.372 8.06199C141.771 8.0992 141.188 8.15501 140.6 8.05827Z" fill="#4A2E92"/>
<path d="M175.111 8.09766C175.395 7.6474 176.029 7.77764 176.431 8.0716C176.101 8.07905 175.441 8.09021 175.111 8.09766Z" fill="#5B54BD"/>
<path d="M191.586 9.95609C192.436 9.44072 192.712 8.27044 193.639 7.88159C193.641 8.62209 193.639 9.36444 193.631 10.1068C192.532 11.1747 191.224 11.9748 189.857 12.652C188.652 12.825 187.666 13.5804 186.534 13.9581C185.991 13.9302 185.654 14.2372 185.252 14.4902C184.789 13.3944 184.172 12.3878 183.43 11.4613C183.973 11.4594 184.438 11.9022 184.989 11.759C185.813 11.5803 186.653 11.7757 187.489 11.7199C188.949 11.411 190.333 10.758 191.586 9.95609Z" fill="#6B75DF"/>
<path d="M158.264 20.5965C159.436 20.1648 160.588 20.9779 161.757 20.6169C162.853 21.1769 164.389 20.7007 165.278 21.7165C165.312 22.2784 165.439 22.8291 165.489 23.391C163.151 23.0487 160.846 22.3268 158.459 22.444C158.453 22.7212 158.442 23.2756 158.437 23.5529C157.792 23.631 158.403 22.4663 158.255 22.0644C158.255 21.5732 158.259 21.0839 158.264 20.5965Z" fill="#6B75DF"/>
<path d="M148.257 9.22681C148.465 8.89936 148.776 8.63516 149.186 8.6333C150.186 9.12076 151.252 9.47241 152.197 10.0734C152.721 9.98406 153.131 10.3208 153.526 10.6111C154.308 10.9329 154.971 11.5357 155.834 11.6474C156.24 12.4344 156.2 13.4149 156.214 14.2931C155.471 14.0493 154.712 13.841 154.02 13.4726C153.259 13.0446 152.358 12.9032 151.687 12.3097C150.45 12.0232 149.421 11.0353 148.1 11.0967C148.083 11.1897 148.048 11.3757 148.031 11.4688C147.711 11.2529 147.498 10.8511 147.37 10.4938C148.017 10.8715 148.459 10.2334 148.847 9.798C148.669 9.58962 148.309 9.51148 148.257 9.22681Z" fill="#6F4CD0"/>
<path d="M209.234 9.04126C210.088 9.86362 210.759 11.0823 211.42 12.1539C210.681 12.6098 210.763 13.5587 210.776 14.3178C211.609 15.4434 209.895 14.9522 210.138 15.7653C210.629 15.6015 211.42 14.5726 210.874 16.2955C210.87 17.7021 210.611 19.1626 210.998 20.5208C210.774 21.8157 211.085 23.2055 210.631 24.4558C210.796 25.0735 211.456 26.3685 210.407 26.3592C210.677 25.7582 209.136 24.8354 209.951 26.5285C209.94 26.828 210.574 27.6039 210.577 26.9043C211.105 27.4773 210.85 28.376 210.744 29.0793C210.911 29.1723 211.081 29.2635 211.255 29.3528C210.092 30.91 209.178 32.7204 207.944 34.192C207.753 34.2572 207.562 34.313 207.372 34.3613C207.258 32.5399 207.585 30.724 207.279 28.9118C207.397 28.4151 207.523 27.9071 207.459 27.3936C207.107 25.5015 207.466 23.5851 207.366 21.6799C207.438 20.8073 207.236 19.957 207.195 19.0993C207.375 18.3533 206.973 17.5495 207.362 16.8555C207.585 16.5262 207.449 16.1504 207.423 15.7913C208.137 14.9448 208.039 13.754 208.502 12.7847C208.924 11.899 208.928 10.8888 208.984 9.9306C209.058 9.63105 209.15 9.33709 209.234 9.04126Z" fill="#7F1FCD"/>
<path d="M213.707 13.7145C215.862 13.0913 216.279 10.4456 217.769 9.04272C217.647 9.68461 217.383 10.2911 217.278 10.9368C217.333 11.2363 217.641 11.4744 217.502 11.8093C217.33 12.3154 217.628 12.8494 217.391 13.3387C216.937 14.1071 217.96 14.9667 217.337 15.7072C217.035 16.0346 217.561 16.3733 217.439 16.7416C217.224 17.6049 217.315 18.498 217.328 19.3762C217.819 19.9064 217.32 20.6581 217.415 21.3018C217.398 21.7428 217.863 22.5298 217.165 22.4554C216.742 22.4665 217.387 22.7698 217.461 22.913C217.389 23.7112 217.5 24.5057 217.474 25.3038C217.039 25.4787 217.543 25.7987 217.472 26.1039C217.415 26.6341 217.691 27.3058 217.293 27.73C217.604 28.7049 217.335 29.7487 217.467 30.7422C217.656 31.1199 217.634 31.5255 217.554 31.9292C216.561 30.8445 215.933 29.3393 215 28.1691C214.778 27.9253 214.359 27.9365 214.198 27.6463C213.792 27.0937 213.92 26.3476 213.512 25.7969C213.937 25.3001 213.84 24.5261 213.581 23.9717C213.922 23.3205 213.614 22.5968 213.74 21.9028C213.89 21.1306 213.546 20.3455 213.764 19.5827C213.911 19.0524 213.638 18.4961 213.685 17.9715C213.587 16.5574 213.922 15.1174 213.707 13.7145Z" fill="#911CD8"/>
<path d="M133.472 10.9479C134.304 10.3991 135.184 9.58974 136.261 9.90975C136.038 10.3786 135.507 10.6223 135.269 11.0782C134.98 11.4652 134.971 12.1164 134.574 12.3936C134.623 11.9973 134.28 12.0754 134.019 12.094C133.657 12.5145 133.574 13.121 133.079 13.4411C133.659 13.508 133.105 14.0792 133.051 14.4067C132.855 15.1825 132.938 16.0886 132.375 16.723C131.717 17.6942 132.355 19.2143 131.348 19.9809C131.072 21.8619 130.192 23.7652 130.068 25.7355C129.408 25.4397 129.972 26.1523 130.023 26.4816C129.82 26.7458 129.519 26.9635 129.469 27.317C129.393 28.3868 129.134 29.4547 129.253 30.5282C128.808 30.9748 129.034 31.6985 129.058 32.266C129.14 32.8837 128.743 33.6 129.23 34.0986C129.156 35.8215 129.816 37.4215 130.212 39.0607C130.29 39.39 130.616 39.537 130.857 39.7323C130.526 39.7361 129.864 39.7416 129.532 39.7454C128.046 39.5686 126.708 38.1192 126.751 36.5787C126.775 33.4921 126.731 30.4055 126.77 27.3188C127.544 27.0788 127.242 26.0499 127.531 25.4378C127.924 24.6229 128.044 23.7094 127.941 22.8163C128.091 21.7874 128.743 20.9297 129.064 19.9567C129.101 19.5808 129.115 19.1901 129.293 18.8478C129.838 17.8152 129.838 16.5816 130.47 15.5825C130.957 13.7778 132.06 12.1591 133.472 10.9479Z" fill="#8063E4"/>
<path d="M39.8491 9.9668C41.7633 9.95378 43.6775 9.95192 45.5916 9.96494L45.599 10.1417C43.6849 10.1529 41.7726 10.1436 39.8602 10.1491L39.8491 9.9668Z" fill="#54546B"/>
<path d="M205.854 16.2406C207.566 14.5159 208.12 12.1177 208.983 9.92969C208.928 10.8879 208.924 11.8981 208.502 12.7838C208.038 13.7531 208.137 14.9438 207.423 15.7904C207.449 16.1495 207.584 16.5253 207.362 16.8546C206.973 17.5486 207.375 18.3523 207.195 19.0984C206.417 18.2482 205.785 17.0928 205.17 16.0788C205.394 16.1327 205.622 16.196 205.854 16.2406Z" fill="#7A23CA"/>
<path d="M189.858 12.6519C191.225 11.9747 192.534 11.1746 193.633 10.1067C193.647 10.9309 193.642 11.7533 193.653 12.5793C193.649 12.7077 193.644 12.9663 193.64 13.0966C193.286 13.2212 192.951 13.3905 192.673 13.6399C192.106 14.1255 191.301 14.1924 190.742 14.6836C189.463 15.8316 188.107 16.8884 186.769 17.9637C186.378 18.0642 186.261 17.6121 186.056 17.3888C185.872 16.3972 185.559 15.4446 185.253 14.4901C185.655 14.2371 185.993 13.9301 186.535 13.958C187.668 13.5803 188.653 12.8249 189.858 12.6519Z" fill="#6B6DDC"/>
<path d="M73.9458 10.5233C74.9316 10.5047 75.9193 10.5065 76.9069 10.5233L76.9125 10.7037C75.923 10.7 74.9372 10.7093 73.9495 10.7019L73.9458 10.5233Z" fill="#707083"/>
<path d="M148.099 11.097C149.42 11.0356 150.448 12.0235 151.686 12.31C152.357 12.9036 153.258 13.045 154.019 13.4729C154.71 13.8413 155.47 14.0497 156.213 14.2934C156.202 14.8292 156.224 15.3781 156.222 15.9195C154.712 15.4878 153.215 15.0171 151.899 14.1297C150.845 13.8152 149.906 13.151 148.829 12.9389C148.809 13.1901 148.797 13.4431 148.794 13.6962L148.636 13.6813C148.716 12.8682 148.201 12.2207 148.03 11.4691C148.047 11.3761 148.082 11.19 148.099 11.097Z" fill="#6E55D3"/>
<path d="M134.018 12.0941C134.279 12.0755 134.622 11.9974 134.574 12.3937C134.433 13.2477 134.168 14.0775 134.112 14.9482C134.02 15.5119 133.979 16.0924 133.977 16.6655C133.886 16.6264 133.706 16.5464 133.616 16.5055C133.395 17.0766 133.304 17.6813 133.43 18.286C133.34 18.2711 133.162 18.2395 133.073 18.2246C132.884 18.9539 133.093 19.7633 132.734 20.4461C132.111 21.2182 131.852 22.2452 131.859 23.2257C131.785 23.8955 130.897 24.1783 131.12 24.9746C131.016 25.4007 131.121 25.8584 131.097 26.2993C130.645 26.6138 130.349 27.185 130.795 27.6408C130.352 28.0948 130.219 28.705 130.423 29.3023C129.802 30.013 130.621 30.9972 130.058 31.7079C129.635 32.1861 130.508 32.9136 129.997 33.3266C129.986 34.0113 130.369 34.6997 130.197 35.403C130.025 35.8774 130.616 36.1807 130.56 36.6439C130.428 37.8086 130.818 39.2264 131.979 39.7157C131.603 39.725 131.229 39.738 130.857 39.7324C130.616 39.5371 130.289 39.3901 130.212 39.0608C129.815 37.4216 129.155 35.8216 129.23 34.0987C128.742 33.6001 129.139 32.8838 129.057 32.2661C129.033 31.6986 128.807 30.9749 129.252 30.5283C129.133 29.4548 129.393 28.3869 129.469 27.3171C129.519 26.9636 129.819 26.7459 130.023 26.4817C129.971 26.1524 129.407 25.4398 130.067 25.7356C130.191 23.7653 131.071 21.862 131.348 19.9809C132.354 19.2144 131.716 17.6943 132.374 16.7231C132.937 16.0887 132.854 15.1826 133.05 14.4068C133.104 14.0793 133.658 13.5081 133.078 13.4412C133.573 13.1211 133.656 12.5146 134.018 12.0941Z" fill="#7D67E5"/>
<path d="M210.776 14.3174C210.763 13.5583 210.681 12.6094 211.421 12.1536C211.951 12.6131 212.251 13.5527 213.079 13.5415L213.107 13.6811C212.794 13.7201 212.408 13.6197 212.199 13.9174C212.238 15.0821 212.377 16.2523 212.21 17.417C212.049 19.1101 212.514 20.8293 212.069 22.5056C211.88 22.8945 212.358 23.1531 212.349 23.5233C211.645 24.2303 212.506 25.3132 212.214 26.1783C211.98 26.7402 212.19 27.2928 212.386 27.8267C211.991 28.3123 211.737 28.9654 211.256 29.3524C211.082 29.2631 210.911 29.1719 210.744 29.0789C210.85 28.3756 211.106 27.477 210.577 26.9039C210.574 27.6035 209.94 26.8276 209.951 26.5281C209.136 24.835 210.678 25.7578 210.407 26.3588C211.456 26.3681 210.796 25.0731 210.631 24.4554C211.085 23.2052 210.774 21.8153 210.998 20.5204C210.611 19.1622 210.87 17.7017 210.874 16.2951C211.421 14.5723 210.629 15.6011 210.138 15.7649C209.896 14.9518 211.61 15.443 210.776 14.3174Z" fill="#831ECF"/>
<path d="M193.652 12.58L193.828 12.5781C193.832 14.4368 193.856 16.2992 193.828 18.1597L193.65 18.1616C193.639 17.6518 193.633 17.1439 193.631 16.6378C193.633 16.4983 193.635 16.2192 193.635 16.0797C193.639 15.8322 193.64 15.5866 193.64 15.341C193.642 15.0192 193.646 14.3773 193.646 14.0554C193.648 13.7354 193.64 13.4154 193.639 13.0972C193.642 12.967 193.648 12.7084 193.652 12.58Z" fill="#493697"/>
<path d="M148.829 12.9385C149.906 13.1506 150.845 13.8148 151.9 14.1292C153.215 15.0167 154.713 15.4874 156.223 15.9191C156.215 16.533 156.227 17.1582 156.221 17.7759C153.853 17.0224 151.481 16.3321 149.002 16.2949C148.974 15.6549 149.072 15 148.874 14.3804C148.811 14.1571 148.785 13.9283 148.794 13.6957C148.798 13.4427 148.809 13.1896 148.829 12.9385Z" fill="#6E61D8"/>
<path d="M192.672 13.6407C192.95 13.3914 193.286 13.2221 193.64 13.0974C193.641 13.4156 193.649 13.7356 193.647 14.0556C191.644 15.0566 190.15 16.7329 188.659 18.3553C187.817 18.9376 187.208 19.7637 186.431 20.4242C186.446 19.9516 186.618 19.4512 186.291 19.0437C186.211 18.4911 186.094 17.946 186.055 17.3897C186.261 17.6129 186.378 18.0651 186.769 17.9646C188.106 16.8892 189.463 15.8324 190.741 14.6845C191.301 14.1933 192.105 14.1263 192.672 13.6407Z" fill="#6C65D8"/>
<path d="M104.524 13.697L104.702 13.6914C104.707 21.5075 104.709 29.3218 104.7 37.1379L104.522 37.1342C104.52 29.3218 104.514 21.5094 104.524 13.697Z" fill="#7817B7"/>
<path d="M212.199 13.9174C212.409 13.6198 212.794 13.7202 213.107 13.6812C213.257 13.6905 213.557 13.7072 213.707 13.7146C213.922 15.1175 213.587 16.5575 213.685 17.9716C213.639 18.4962 213.911 19.0525 213.765 19.5828C213.546 20.3456 213.891 21.1308 213.741 21.9029C213.615 22.5969 213.922 23.3206 213.581 23.9718C213.841 24.5262 213.937 25.3002 213.513 25.797C213.921 26.3477 213.793 27.0938 214.199 27.6464C213.565 27.6036 212.977 27.6371 212.386 27.8268C212.19 27.2929 211.98 26.7403 212.214 26.1784C212.507 25.3132 211.645 24.2304 212.349 23.5234C212.358 23.1532 211.88 22.8945 212.069 22.5057C212.514 20.8293 212.049 19.1102 212.21 17.4171C212.377 16.2524 212.238 15.0821 212.199 13.9174Z" fill="#8A1DD4"/>
<path d="M126.592 14.0413L126.752 14.0766C126.761 14.6459 126.767 15.2078 126.787 15.7809C126.737 17.4293 126.752 19.0815 126.754 20.7318C126.752 22.9272 126.748 25.1226 126.769 27.3181C126.73 30.4047 126.774 33.4913 126.75 36.578H126.572C126.581 29.0651 126.542 21.5523 126.592 14.0413Z" fill="#1B104B"/>
<path d="M188.658 18.3549C190.149 16.7325 191.643 15.0561 193.646 14.0552C193.646 14.377 193.642 15.0189 193.64 15.3408C191.917 15.8264 191.283 17.6944 190.038 18.8144C189.327 19.3633 188.934 20.1857 188.363 20.8536C187.607 21.4192 187.374 22.3718 186.947 23.1718C186.454 23.2909 186.076 23.1681 186.199 22.5895C186.258 21.408 186.232 20.2229 186.29 19.0433C186.618 19.4507 186.445 19.9512 186.43 20.4238C187.207 19.7633 187.816 18.9372 188.658 18.3549Z" fill="#6C5ED5"/>
<path d="M111.927 16.1102C111.961 15.6339 112.026 14.6794 112.057 14.2031C112.189 22.6518 112.087 31.1061 112.111 39.5567L111.929 39.5474C111.933 31.735 111.933 23.9226 111.927 16.1102Z" fill="#2F0A5F"/>
<path d="M156.213 14.2934L156.391 14.2432C156.413 17.9642 156.412 21.6853 156.399 25.4064L156.222 25.4436C156.222 25.1924 156.222 24.9413 156.224 24.6919C156.222 23.9403 156.218 23.1905 156.215 22.4407C156.207 21.823 156.226 21.2165 156.215 20.6006C156.211 19.6573 156.226 18.7178 156.22 17.7763C156.226 17.1586 156.215 16.5335 156.222 15.9195C156.224 15.3781 156.202 14.8292 156.213 14.2934Z" fill="#312C76"/>
<path d="M148.874 14.3809C149.073 15.0004 148.974 15.6553 149.002 16.2954C148.986 17.3447 148.984 18.3959 148.991 19.4471C148.984 20.6974 148.987 21.9495 148.997 23.2017C148.978 23.7375 148.991 24.2864 148.995 24.8296C148.993 24.9264 148.991 25.1218 148.989 25.2204L148.813 25.2334C148.844 21.6184 148.716 17.9903 148.874 14.3809Z" fill="#48449D"/>
<path d="M133.978 16.6658C133.98 16.0927 134.021 15.5122 134.114 14.9485C134.231 19.6129 134.151 24.2828 134.162 28.9509H133.984C133.973 28.0076 133.991 27.0699 133.977 26.1285C133.984 22.973 133.993 19.8194 133.978 16.6658Z" fill="#6B58CC"/>
<path d="M165.003 15.6336C165.277 15.4289 165.661 15.228 165.935 15.561C165.661 16.4913 165.459 17.4439 165.325 18.4058C163.433 17.9351 161.471 17.909 159.551 17.6076C159.033 17.4885 158.54 17.7434 158.265 18.1807C158.34 17.3043 158.312 16.3852 158.651 15.5573C159.939 15.5536 161.236 15.5685 162.514 15.7601C163.3 15.7638 164.304 16.1955 165.003 15.6336Z" fill="#6B5BD3"/>
<path d="M190.039 18.8149C191.284 17.6949 191.917 15.8269 193.641 15.3413C193.641 15.5869 193.639 15.8325 193.635 16.0799C192.238 16.8446 191.725 18.5061 190.615 19.5833C189.392 21.1834 188.36 22.9304 187.348 24.6701C186.835 26.0264 186.119 27.4032 186.121 28.8805C187.172 30.2219 187.596 31.8815 188.291 33.4034C188.751 35.2268 188.877 37.1226 188.836 38.9999C188.866 39.2623 188.665 39.4409 188.512 39.6213C188.204 39.506 187.72 39.333 187.609 39.0464C187.946 36.2259 187.27 33.3606 186.038 30.8266C185.684 29.9782 185.032 29.3028 184.668 28.46C184.548 28.4302 184.307 28.3688 184.185 28.339C185.25 26.5938 185.914 24.6142 186.199 22.59C186.077 23.1686 186.455 23.2914 186.948 23.1723C187.374 22.3723 187.607 21.4197 188.363 20.8541C188.934 20.1862 189.327 19.3638 190.039 18.8149Z" fill="#6C59D3"/>
<path d="M190.615 19.5825C191.725 18.5052 192.238 16.8438 193.636 16.0791C193.636 16.2186 193.634 16.4977 193.632 16.6373C191.303 20.0923 188.462 23.3352 187.252 27.3856C187.072 28.0163 186.829 28.7903 187.32 29.3429C188.808 31.756 189.437 34.5971 189.685 37.3934C189.907 38.2028 189.572 38.973 189.374 39.7396C189.285 39.7414 189.107 39.7452 189.016 39.747C188.669 39.8066 188.501 39.7638 188.512 39.6205C188.666 39.44 188.866 39.2614 188.836 38.9991C188.877 37.1218 188.751 35.2259 188.291 33.4026C187.597 31.8807 187.172 30.2211 186.122 28.8796C186.12 27.4023 186.835 26.0255 187.348 24.6692C188.36 22.9296 189.392 21.1826 190.615 19.5825Z" fill="#6D54D2"/>
<path d="M149.001 16.2942C151.48 16.3314 153.852 17.0217 156.22 17.7752C156.226 18.7166 156.211 19.6562 156.215 20.5995C155.609 20.5939 155.066 20.3223 154.506 20.1381C154.114 20.1195 153.715 20.1809 153.33 20.1064C152.4 19.4236 151.151 19.7083 150.148 19.1966C149.772 19.3306 149.383 19.4013 148.99 19.4459C148.983 18.3947 148.984 17.3435 149.001 16.2942Z" fill="#6D6DDD"/>
<path d="M133.616 16.5051C133.707 16.5461 133.887 16.6261 133.978 16.6651C133.993 19.8188 133.983 22.9724 133.976 26.1278C133.542 26.0702 133.741 26.4423 133.763 26.699C133.513 26.7958 133.248 26.7939 132.986 26.7828C132.905 27.0097 132.812 27.2349 132.727 27.4618C132.996 27.6386 133.531 27.5809 133.424 28.0405C133.505 28.4703 133.003 27.9456 132.866 27.86C132.406 28.2358 133.196 28.474 133.059 28.9075C132.816 28.9354 132.577 28.967 132.338 28.9987C132.219 29.8824 132.115 30.7717 132.06 31.6629C132.41 31.8136 132.039 32.076 131.963 32.2937C132.091 32.4872 132.442 32.6583 132.171 32.8928C131.591 33.6574 132.523 34.757 131.723 35.4119C131.91 35.3654 132.097 35.3226 132.288 35.2854C132.058 36.5599 132.986 37.5757 133.057 38.8056C133.062 39.2893 133.589 39.4828 133.989 39.5609C133.928 39.8009 133.729 39.9926 133.476 39.8791C132.964 39.8065 132.482 39.76 131.98 39.7154C130.818 39.226 130.429 37.8083 130.561 36.6436C130.616 36.1803 130.025 35.8771 130.198 35.4026C130.37 34.6993 129.986 34.0109 129.997 33.3263C130.509 32.9132 129.636 32.1858 130.059 31.7076C130.622 30.9969 129.803 30.0126 130.424 29.3019C130.22 28.7047 130.353 28.0944 130.796 27.6405C130.35 27.1846 130.646 26.6134 131.098 26.299C131.122 25.8581 131.017 25.4004 131.12 24.9743C130.898 24.178 131.786 23.8952 131.86 23.2254C131.852 22.2449 132.112 21.2179 132.734 20.4458C133.094 19.7629 132.884 18.9536 133.073 18.2243C133.162 18.2392 133.34 18.2708 133.431 18.2857C133.305 17.681 133.396 17.0763 133.616 16.5051Z" fill="#7B6BE5"/>
<path d="M187.252 27.3863C188.462 23.3359 191.302 20.093 193.632 16.6379C193.633 17.144 193.639 17.6519 193.65 18.1617C193.639 18.9525 193.65 19.7469 193.637 20.5413C193.233 20.9749 192.69 21.3935 192.709 22.0484C192.731 22.3368 192.359 22.0521 192.21 22.0986C191.916 23.9201 190.619 25.3211 190.135 27.0886C190.113 27.5965 189.87 27.8682 189.405 27.9016C189.451 28.8114 190.42 29.3901 190.342 30.3427C191.134 30.3613 190.613 31.7046 191.245 32.0953C191.786 34.4321 192.596 36.9067 192.132 39.357C191.243 39.6882 190.309 39.783 189.373 39.7403C189.572 38.9737 189.907 38.2035 189.685 37.3941C189.436 34.5977 188.808 31.7567 187.32 29.3436C186.829 28.791 187.072 28.017 187.252 27.3863Z" fill="#6E4FD1"/>
<path d="M158.265 18.1799C158.539 17.7427 159.032 17.4878 159.551 17.6069C161.471 17.9083 163.433 17.9344 165.325 18.4051C165.29 19.5084 165.288 20.6117 165.279 21.7168C164.389 20.701 162.853 21.1773 161.758 20.6172C160.589 20.9782 159.436 20.1651 158.265 20.5968C158.247 19.9642 158.265 19.3428 158.252 18.7139C158.256 18.5818 158.261 18.3139 158.265 18.1799Z" fill="#6B6BDB"/>
<path d="M193.651 18.161L193.829 18.1592C193.839 25.2906 193.846 32.4221 193.826 39.5535L193.647 39.5479C193.653 37.3841 193.647 35.2203 193.653 33.0565C193.638 29.7485 193.679 26.4423 193.627 23.1361C193.64 22.2673 193.651 21.4058 193.638 20.5407C193.651 19.7462 193.64 18.9518 193.651 18.161Z" fill="#452A8D"/>
<path d="M67.649 18.7101L67.8273 18.7026C67.8347 19.6962 67.8291 20.6878 67.8254 21.6832H67.6471C67.6304 20.6897 67.6323 19.6999 67.649 18.7101Z" fill="#9797A5"/>
<path d="M158.079 18.7229L158.252 18.7136C158.265 19.3425 158.246 19.9639 158.265 20.5965C158.259 21.0839 158.256 21.5733 158.256 22.0645L158.075 22.0663C158.07 20.95 158.04 19.8355 158.079 18.7229Z" fill="#282365"/>
<path d="M150.148 19.1978C151.15 19.7094 152.399 19.4247 153.33 20.1076C153.715 20.182 154.113 20.1206 154.506 20.1392C155.066 20.3234 155.609 20.595 156.215 20.6006C156.226 21.2164 156.207 21.823 156.215 22.4407C154.317 22.29 152.401 22.2435 150.53 22.5281C149.94 22.4742 149.51 22.9914 148.995 23.2016C148.986 21.9495 148.982 20.6974 148.99 19.4471C149.383 19.4024 149.772 19.3317 150.148 19.1978Z" fill="#6D77E1"/>
<path d="M100.819 19.2759H100.999C100.997 19.7875 100.997 20.809 100.997 21.3206L100.815 21.3243C100.809 20.6434 100.806 19.955 100.819 19.2759Z" fill="#52526A"/>
<path d="M65.784 20.9093C65.4516 20.7605 65.4516 19.8135 65.784 19.6665C65.784 19.9772 65.784 20.5986 65.784 20.9093Z" fill="#B2B2BD"/>
<path d="M219.723 21.5674C219.439 21.0166 219.645 20.3506 219.719 19.7812C219.747 20.3692 219.831 20.9776 219.723 21.5674Z" fill="#390F6F"/>
<path d="M192.709 22.0476C192.69 21.3927 193.233 20.974 193.637 20.5405C193.65 21.4057 193.639 22.2671 193.626 23.136C193.059 23.7834 192.864 24.6467 192.531 25.4207C192.408 25.2905 192.292 25.1602 192.177 25.03C192.683 26.1984 191.61 26.978 191.071 27.8599C191.33 28.552 191.339 29.432 192.097 29.7837C192.053 30.2451 192.055 30.8293 192.646 30.913C192.677 31.4582 193.079 31.9791 192.987 32.5429C192.874 32.9131 193.311 33.3652 193.652 33.0564C193.646 35.2202 193.652 37.384 193.646 39.5478C193.5 40.4204 192.112 39.639 191.612 39.9311C190.741 39.918 189.885 39.9534 189.023 39.9199L189.016 39.7469C189.106 39.745 189.284 39.7413 189.373 39.7394C190.309 39.7822 191.243 39.6873 192.132 39.3562C192.596 36.9058 191.786 34.4313 191.245 32.0945C190.613 31.7038 191.134 30.3605 190.342 30.3419C190.42 29.3893 189.451 28.8106 189.405 27.9008C189.87 27.8673 190.113 27.5957 190.135 27.0878C190.618 25.3203 191.916 23.9193 192.21 22.0978C192.358 22.0513 192.731 22.3359 192.709 22.0476Z" fill="#6D48CC"/>
<path d="M202.755 28.7569C204.278 26.4201 205.899 24.0163 207.367 21.6794C207.467 23.5846 207.107 25.501 207.459 27.3932C207.524 27.9067 207.398 28.4146 207.28 28.9114C207.585 30.7235 207.259 32.5394 207.372 34.3609C207.563 34.3125 207.754 34.2567 207.945 34.1916C206.575 36.1172 205.593 39.0215 203.047 39.6113C202.471 38.8838 203.005 37.9238 203.003 37.1182C202.506 36.374 202.858 35.3953 202.916 34.5507C202.365 34.2902 202.797 34.0483 203.094 33.7934C202.556 33.2315 202.903 32.4724 202.862 31.7896C203.095 31.3133 203.116 30.8407 202.762 30.4221C202.901 29.8714 202.903 29.3058 202.755 28.7569Z" fill="#7A21C9"/>
<path d="M150.53 22.5277C152.401 22.243 154.317 22.2895 156.215 22.4402C156.219 23.19 156.222 23.9398 156.224 24.6915C153.823 24.8291 151.399 24.6189 148.994 24.8291C148.99 24.2859 148.977 23.737 148.996 23.2012C149.511 22.9909 149.941 22.4737 150.53 22.5277Z" fill="#6B80E4"/>
<path d="M158.46 22.4439C160.847 22.3267 163.152 23.0486 165.491 23.3909C165.656 24.39 165.997 25.3463 166.278 26.3157C165.118 26.3678 164.036 25.8096 162.908 25.5826C161.514 25.1993 160.056 25.1789 158.629 25.0338C157.99 25.0672 158.585 23.9602 158.438 23.5528C158.444 23.2755 158.455 22.7211 158.46 22.4439Z" fill="#6980E3"/>
<path d="M192.531 25.421C192.865 24.647 193.06 23.7837 193.627 23.1362C193.678 26.4424 193.638 29.7486 193.653 33.0566C193.312 33.3655 192.874 32.9134 192.987 32.5431C193.08 31.9794 192.678 31.4584 192.646 30.9133C192.055 30.8296 192.053 30.2454 192.098 29.7839C191.34 29.4323 191.331 28.5523 191.071 27.8601C191.611 26.9782 192.683 26.1987 192.178 25.0303C192.292 25.1605 192.409 25.2907 192.531 25.421Z" fill="#6E41CA"/>
<path d="M219.286 26.2189C219.687 25.3407 220.574 24.803 221.208 24.1016C222.081 25.2756 222.968 26.5277 223.624 27.8171C222.918 28.5222 222.162 29.1771 221.508 29.9306C221.516 32.1168 221.716 34.342 221.395 36.5058C221.593 37.1495 222.01 37.7449 222.023 38.4407C221.597 38.3886 221.519 37.7021 221.247 37.5161C220.708 36.5262 219.816 35.6276 219.47 34.6006C219.674 34.1894 219.172 33.8173 219.374 33.3987C219.59 32.794 219.405 32.167 219.509 31.5512C219.52 31.0135 219.066 30.4404 219.446 29.9771C219.694 29.4934 219.151 29.0785 219.272 28.6003C219.424 27.8152 219.316 27.0096 219.286 26.2189Z" fill="#9A1BDE"/>
<path d="M148.994 24.8291C151.399 24.6188 153.823 24.8291 156.224 24.6914C156.222 24.9407 156.222 25.1919 156.222 25.4431L156.219 25.631C153.808 25.8003 151.31 25.5361 148.99 26.3361C148.986 25.964 148.988 25.5901 148.988 25.2198C148.99 25.1212 148.992 24.9258 148.994 24.8291Z" fill="#6989E8"/>
<path d="M158.628 25.0337C160.055 25.1788 161.514 25.1993 162.907 25.5825C164.036 25.8095 165.118 26.3677 166.278 26.3156C166.726 27.1026 167.082 27.9436 167.597 28.6952C169.189 30.9428 171.798 32.4182 174.529 32.6954C174.577 32.7475 174.674 32.8517 174.722 32.9038C175.721 34.8778 176.277 37.0881 176.006 39.3189C175.621 39.9868 174.883 39.9608 174.196 39.9366C173.314 39.9961 172.452 39.8715 171.588 39.732L171.627 39.5905C172.328 39.4715 172.758 38.8147 172.513 38.0649C172.426 37.1514 172.789 36.0239 171.815 35.5197C171.885 35.4936 172.028 35.4415 172.098 35.4155C171.575 34.3122 171.018 33.194 170.225 32.2656C169.419 32.0814 169.415 30.8572 168.507 30.9576C168.718 30.5204 168.555 30.4441 168.125 30.5725C165.531 28.6841 162.353 27.724 159.179 27.5026C158.708 26.9147 158.684 25.8356 158.628 25.0337Z" fill="#678EEA"/>
<path d="M148.813 25.2327L148.989 25.2197C148.989 25.59 148.987 25.9639 148.991 26.3361C148.982 27.391 148.985 28.4478 148.991 29.5064C148.991 32.0498 148.989 34.595 148.995 37.1383L148.811 37.1346C148.805 33.1679 148.798 29.1994 148.813 25.2327Z" fill="#4558A4"/>
<path d="M156.222 25.443L156.399 25.4058C156.41 30.1204 156.406 34.8387 156.401 39.5552L156.219 39.5533C156.219 35.6536 156.213 31.7521 156.224 27.8524C156.221 27.11 156.219 26.3695 156.219 25.6309L156.222 25.443Z" fill="#333D83"/>
<path d="M148.99 26.3358C151.31 25.5357 153.808 25.7999 156.219 25.6306C156.219 26.3692 156.221 27.1097 156.224 27.8521C155.246 28.1777 154.208 27.9693 153.241 28.2949C151.768 28.4717 150.383 29.0298 148.99 29.5061C148.984 28.4475 148.981 27.3907 148.99 26.3358Z" fill="#6792EC"/>
<path d="M133.763 26.6992C133.74 26.4425 133.542 26.0704 133.976 26.1281C133.991 27.0695 133.972 28.0072 133.983 28.9505C133.983 32.4874 133.978 36.0243 133.989 39.5611C133.588 39.483 133.062 39.2895 133.057 38.8058C132.986 37.576 132.058 36.5601 132.288 35.2856C132.097 35.3228 131.91 35.3656 131.722 35.4121C132.523 34.7572 131.591 33.6577 132.171 32.893C132.441 32.6585 132.091 32.4874 131.963 32.2939C132.039 32.0762 132.41 31.8139 132.06 31.6632C132.115 30.772 132.219 29.8826 132.338 28.9989C132.577 28.9672 132.816 28.9356 133.058 28.9077C133.196 28.4742 132.406 28.236 132.866 27.8602C133.003 27.9458 133.505 28.4705 133.423 28.0407C133.531 27.5811 132.995 27.6388 132.727 27.4621C132.812 27.2351 132.905 27.01 132.986 26.783C133.247 26.7941 133.512 26.796 133.763 26.6992Z" fill="#7A70E7"/>
<path d="M159.177 27.5029C162.352 27.7243 165.53 28.6844 168.124 30.5728C168.554 30.4444 168.717 30.5207 168.506 30.958C169.414 30.8575 169.417 32.0817 170.223 32.2659C171.016 33.1943 171.574 34.3125 172.097 35.4158C172.026 35.4419 171.884 35.4939 171.813 35.52C172.788 36.0242 172.425 37.1517 172.512 38.0652C172.756 38.815 172.327 39.4718 171.626 39.5909C165.576 38.5248 160.554 33.4585 159.177 27.5029Z" fill="#6699EF"/>
<path d="M153.242 28.2958C154.209 27.9702 155.247 28.1786 156.225 27.853C156.214 31.7527 156.22 35.6543 156.22 39.554C156.173 39.6023 156.081 39.6954 156.032 39.7437C154.546 39.74 153.066 39.7344 151.583 39.7456C150.292 39.6433 149.189 38.4041 148.995 37.139C148.989 34.5956 148.991 32.0504 148.991 29.507C150.384 29.0307 151.769 28.4726 153.242 28.2958Z" fill="#669BF0"/>
<path d="M221.508 29.9312C222.162 29.1777 222.918 28.5228 223.624 27.8176C224.508 28.9321 225.266 30.1526 226.044 31.3415C225.97 31.3657 225.82 31.4122 225.746 31.4364C225.452 34.1956 225.746 36.9864 225.548 39.7418C225.225 39.7437 224.907 39.7437 224.592 39.7493C223.65 39.7195 222.577 39.1446 222.023 38.4413C222.01 37.7455 221.594 37.1501 221.395 36.5063C221.716 34.3425 221.516 32.1173 221.508 29.9312Z" fill="#9F1AE2"/>
<path d="M183.258 29.6184C183.547 29.1775 183.865 28.757 184.186 28.3384C184.308 28.3681 184.549 28.4295 184.67 28.4593C185.033 29.3021 185.685 29.9775 186.039 30.8259C187.271 33.36 187.948 36.2252 187.61 39.0458C186.851 38.6383 186.469 37.6374 186.404 36.8001C186.23 36.8559 186.056 36.9062 185.883 36.9527C185.831 35.0438 185.376 33.1516 184.486 31.4418C184.049 30.8669 183.951 29.9366 183.258 29.6184Z" fill="#6B5FD5"/>
<path d="M202.6 28.8076L202.753 28.7573C202.902 29.3062 202.9 29.8718 202.761 30.4225C203.115 30.8411 203.094 31.3137 202.861 31.79C202.902 32.4728 202.555 33.2319 203.092 33.7938C202.796 34.0487 202.364 34.2906 202.915 34.551C202.857 35.3957 202.505 36.3744 203.002 37.1186C203.003 37.9242 202.47 38.8842 203.046 39.6117C203.05 39.7624 202.883 39.8071 202.544 39.7457C201.916 39.7326 201.321 39.7494 200.704 39.7382C200.569 39.5559 200.431 39.3773 200.317 39.1875C200.719 38.9922 201.449 39.3029 200.81 38.2703C200.711 37.5093 201.011 36.7056 200.476 36.0618C200.582 36.0879 200.795 36.1418 200.9 36.1679C200.261 35.3827 200.828 33.6878 199.579 33.5594C200.448 31.9054 201.647 30.4244 202.6 28.8076Z" fill="#7326C4"/>
<path d="M133.983 28.9502H134.161C134.178 32.4834 134.17 36.0184 134.165 39.5515L133.988 39.5608C133.977 36.024 133.983 32.4871 133.983 28.9502Z" fill="#6A5FCF"/>
<path d="M181.169 31.3362C181.877 30.7817 182.629 30.2719 183.257 29.6189C183.95 29.937 184.048 30.8673 184.486 31.4422C185.375 33.1521 185.831 35.0442 185.883 36.9531C185.188 37.7829 183.913 38.1737 182.924 38.6407C183.22 38.183 183.289 37.6732 183.124 37.1559C183.794 36.3652 182.773 35.4926 183.029 34.5884C182.156 33.6451 182.293 32.0376 181.169 31.3362Z" fill="#6B6ADA"/>
<path d="M39.8559 30.7971C41.7701 30.799 43.6824 30.7971 45.5984 30.8008L45.5928 30.9813C43.6787 30.9888 41.7645 30.9943 39.8503 30.9795L39.8559 30.7971Z" fill="#A9A9B5"/>
<path d="M178.609 32.4143C179.496 32.1445 180.332 31.7427 181.168 31.3352C182.292 32.0366 182.155 33.6441 183.028 34.5874C182.772 35.4916 183.793 36.3642 183.123 37.155C183.288 37.6722 183.219 38.182 182.922 38.6397C182.109 39.023 181.055 39.4918 180.097 39.5439C180.514 39.3299 180.647 38.9616 180.493 38.4369C180.675 36.5615 180.189 34.6916 179.43 32.9985C179.274 32.645 179.001 32.4218 178.609 32.4143Z" fill="#6A71DD"/>
<path d="M225.747 31.4362C225.821 31.412 225.972 31.3655 226.046 31.3413C227.884 33.8828 229.535 36.5545 231.312 39.1388C231.444 39.2691 231.623 39.8477 231.269 39.7416C229.359 39.7379 227.454 39.7454 225.549 39.7416C225.747 36.9862 225.453 34.1954 225.747 31.4362Z" fill="#A818E8"/>
<path d="M176.831 32.7234C177.429 32.6583 178.013 32.5076 178.61 32.4146C179.003 32.422 179.275 32.6453 179.431 32.9988C180.19 34.6919 180.676 36.5617 180.494 38.4371C180.648 38.9618 180.515 39.3302 180.098 39.5441C178.215 40.0149 176.158 40.1563 174.198 40.1097L174.196 39.9367C174.883 39.9609 175.621 39.9869 176.006 39.319C176.277 37.0882 175.721 34.8779 174.722 32.9039C175.424 32.876 176.127 32.8146 176.831 32.7234Z" fill="#6A7DE2"/>
<path d="M174.528 32.6946C175.292 32.6909 176.059 32.7002 176.83 32.7226C176.126 32.8137 175.423 32.8751 174.721 32.903C174.673 32.8509 174.576 32.7467 174.528 32.6946Z" fill="#4A50A6"/>
<path d="M198.521 35.2094C198.666 34.6661 199.057 33.9107 199.579 33.5591C200.828 33.6875 200.261 35.3824 200.901 36.1676C200.795 36.1415 200.582 36.0876 200.476 36.0615C201.012 36.7053 200.712 37.509 200.81 38.27C201.449 39.3026 200.719 38.9919 200.317 39.1872C200.432 39.377 200.569 39.5556 200.704 39.7379C200.005 39.7342 199.333 39.7472 198.642 39.7379C198.799 39.1444 198.797 38.5342 198.584 37.9481C198.314 37.0234 199.068 36.0708 198.521 35.2094Z" fill="#752BC8"/>
<path d="M195.81 39.1217C196.781 37.89 197.363 36.2546 198.521 35.209C199.068 36.0704 198.314 37.023 198.584 37.9477C198.797 38.5338 198.799 39.144 198.641 39.7375C197.709 39.7394 196.794 39.7413 195.869 39.7413C195.502 39.8417 195.708 39.2724 195.81 39.1217Z" fill="#7035C7"/>
<path d="M129.531 39.7456C129.863 39.7419 130.524 39.7363 130.856 39.7326C131.228 39.7382 131.603 39.7251 131.979 39.7158C132.481 39.7605 132.963 39.807 133.474 39.8795C132.16 39.9502 130.847 39.9372 129.537 39.9261L129.531 39.7456Z" fill="#725CD4"/>
<path d="M151.584 39.7461C153.066 39.7349 154.547 39.7405 156.033 39.7442L156.035 39.9247C154.552 39.921 153.072 39.9545 151.593 39.921L151.584 39.7461Z" fill="#5970C9"/>
<path d="M195.871 39.741C196.796 39.741 197.711 39.7391 198.643 39.7373C199.334 39.7466 200.007 39.7335 200.705 39.7373C201.322 39.7484 201.917 39.7317 202.545 39.7447V39.9252C200.32 39.9289 198.098 39.9345 195.876 39.9233L195.871 39.741Z" fill="#54259E"/>
<path d="M224.592 39.7492C224.907 39.7437 225.226 39.7437 225.548 39.7418C227.453 39.7455 229.358 39.7381 231.268 39.7418L231.267 39.9241C229.041 39.9316 226.819 39.9334 224.599 39.9241L224.592 39.7492Z" fill="#7917B8"/>
</svg>
