<svg width="216" height="60" viewBox="0 0 216 60" fill="none" xmlns="http://www.w3.org/2000/svg">
<path d="M0.00408076 0.077634C2.88777 0.077634 5.77146 0.0793422 8.65515 0.0759277C12.6098 11.2684 16.5422 22.4694 20.4986 33.6602C20.502 22.466 20.4969 11.2718 20.5003 0.077634C23.5579 0.077634 26.6139 0.0793412 29.6715 0.077634C29.6766 18.5514 29.6715 37.0251 29.6732 55.4988C26.3666 56.0707 23.0156 56.2978 19.6869 56.6956C16.2353 46.3669 12.753 36.0486 9.28612 25.7251C9.28101 36.4976 9.28612 47.2718 9.28271 58.0443C6.17733 58.3789 3.089 58.8501 0.00237541 59.3213C0.000670092 39.5722 -0.0027405 19.8249 0.00408076 0.077634Z" fill="#FF1C0B"/>
<path d="M38.4961 0.0794793C46.9067 0.0726505 55.319 0.0777704 63.7297 0.0777704C63.7314 3.1627 63.7314 6.24934 63.7297 9.33597C58.3579 9.33597 52.9845 9.33427 47.6127 9.33597C47.6127 13.4811 47.6076 17.6245 47.6144 21.7696C51.6782 21.7593 55.7386 21.6108 59.8023 21.5955C59.8006 24.6804 59.8023 27.767 59.8006 30.8519C55.7386 30.8639 51.6731 30.8383 47.6144 31.0278C47.6093 35.6151 47.6093 40.204 47.6144 44.7913C52.9845 44.4448 58.3494 43.9838 63.728 43.808C63.7331 46.7785 63.7314 49.7491 63.7297 52.7213C55.319 53.3991 46.9084 54.0717 38.4978 54.7478C38.4944 36.525 38.4978 18.3022 38.4961 0.0794793Z" fill="#FF1C0B"/>
<path d="M69.5923 0.0759277C78.9324 0.0793422 88.2741 0.072514 97.6141 0.0793429C97.6124 3.16427 97.6141 6.24749 97.6141 9.33242C94.4627 9.33925 91.3113 9.33072 88.1615 9.33584C88.1581 23.5279 88.1598 37.7182 88.1598 51.9102C85.121 51.9222 82.0821 51.9102 79.0449 52.0263C79.0381 37.7967 79.0449 23.5654 79.0415 9.33584C75.8918 9.33413 72.7421 9.33413 69.5923 9.33584C69.5872 6.2492 69.5889 3.16256 69.5923 0.0759277Z" fill="#FF1C0B"/>
<path d="M103.476 0.0776964C111.962 0.0759892 120.446 0.0759892 128.931 0.0776964C128.936 3.16263 128.936 6.24756 128.931 9.33419C123.432 9.33249 117.93 9.34102 112.431 9.32907C112.407 13.2642 112.425 17.1976 112.422 21.131C116.576 21.1327 120.732 21.131 124.888 21.1327C124.891 24.2194 124.89 27.3043 124.89 30.3892C120.734 30.3926 116.578 30.3892 112.422 30.3909C112.419 37.3905 112.422 44.3901 112.42 51.3879C109.438 51.3896 106.457 51.3896 103.474 51.3879C103.476 34.2851 103.471 17.1805 103.476 0.0776964Z" fill="#FF1C0B"/>
<path d="M134.627 0.077634C137.664 0.0742196 140.703 0.0776349 143.741 0.0759277C143.745 14.4797 143.741 28.8817 143.743 43.2854C148.912 43.4152 154.071 43.801 159.233 44.0998C159.231 47.1471 159.236 50.1962 159.231 53.2436C151.035 52.7178 142.838 52.2039 134.627 52.0263C134.625 34.7101 134.625 17.3939 134.627 0.077634Z" fill="#FF1C0B"/>
<path d="M166.918 0.0777704C169.9 0.0777704 172.881 0.0726505 175.862 0.0794793C175.862 18.2442 175.862 36.4072 175.862 54.5719C172.89 54.2322 169.902 54.0632 166.916 53.8771C166.918 35.9446 166.914 18.0103 166.918 0.0777704Z" fill="#FF1C0B"/>
<path d="M183.66 0.0764435C186.927 0.0781507 190.193 0.0730298 193.46 0.0798587C195.45 5.26295 197.442 10.4477 199.436 15.6291C201.554 10.4512 203.689 5.28002 205.793 0.0952229C209.12 0.0542499 212.451 0.0883931 215.78 0.0781498C211.931 9.46439 208.082 18.8523 204.221 28.2352C208.061 38.5996 211.932 48.9556 215.781 59.3167C212.35 58.8506 208.945 58.2206 205.532 57.6402C203.338 51.9398 201.177 46.2275 198.974 40.5305C196.757 45.7716 194.538 51.0111 192.32 56.2505C189.076 55.6871 185.783 55.4874 182.524 55.035C185.406 48.3529 188.3 41.6743 191.185 34.9923C192.185 32.609 193.3 30.2531 194.224 27.851C190.718 18.5877 187.176 9.33635 183.66 0.0764435Z" fill="#FF1C0B"/>
</svg>
