<svg width="188" height="117" viewBox="0 0 188 117" fill="none" xmlns="http://www.w3.org/2000/svg">
<path d="M90.0035 0.832275H97.3755C100.938 1.09804 104.468 1.80876 107.866 2.9091C115.227 5.28296 121.952 9.57731 127.237 15.2257C131.106 19.3553 134.216 24.2017 136.334 29.4533C140.34 39.3011 140.758 50.5558 137.51 60.679C135.994 65.4508 133.685 69.97 130.709 73.9938C129.247 73.33 127.965 72.2849 127.014 70.991C123.233 66.2986 119.369 61.6723 115.36 57.1723C114.262 55.9469 113.115 54.7059 111.638 53.935C110.952 53.5634 110.22 53.2845 109.531 52.9201C109.041 52.6748 108.864 52.1156 108.59 51.6802C105.628 46.4659 102.653 41.2564 99.6975 36.0373C99.1353 35.1161 98.3965 34.302 97.5377 33.6502C96.7268 33.0634 95.904 32.4933 95.0847 31.9197C94.6307 31.5806 93.9676 31.5806 93.5183 31.9257C92.9333 32.3454 92.3543 32.7723 91.7705 33.1944C91.3909 33.4566 91.1567 33.8619 90.8888 34.2262C89.6479 35.9507 88.4191 37.6836 87.1674 39.3997C86.4923 40.0587 85.655 40.5361 84.9835 41.1999C80.3624 47.0624 75.7436 52.9285 71.1237 58.7934C70.5195 59.355 69.5212 59.3406 69.0155 60.0489C66.3512 63.4521 63.6928 66.8614 61.0309 70.2658C60.4915 70.9561 59.9594 71.6572 59.3275 72.2669C58.566 73.0065 57.6698 73.6078 56.6956 74.0275C52.8565 68.842 50.1273 62.8364 48.7591 56.5278C47.4713 50.6496 47.368 44.519 48.4143 38.5939C49.4233 32.913 51.5183 27.4294 54.5562 22.5265C57.0188 18.5412 60.0915 14.9347 63.6352 11.8718C70.9555 5.51145 80.3336 1.55862 90.0035 0.832275ZM92.7207 8.26051C91.6732 8.26171 90.6257 8.25569 89.5795 8.26411C90.4311 8.8678 91.266 9.49554 92.1177 10.0992C91.8126 11.0974 91.4726 12.0835 91.1615 13.0792C92.0108 12.4767 92.8492 11.8586 93.6901 11.2453C94.5346 11.8526 95.3682 12.4755 96.2187 13.0756C95.9088 12.081 95.5676 11.0961 95.2613 10.1004C96.1106 9.49554 96.9478 8.87501 97.7935 8.26532C96.7496 8.25329 95.7058 8.26291 94.6619 8.26051C94.3292 7.27921 94.0264 6.2871 93.6961 5.30581C93.3453 6.28229 93.0546 7.27921 92.7207 8.26051ZM80.9065 7.3189C80.8993 8.36152 80.9065 9.40294 80.9029 10.4456C79.9227 10.7811 78.9209 11.0589 77.9527 11.4281C78.9377 11.7335 79.9119 12.075 80.8981 12.3757C80.9113 13.4207 80.8993 14.4657 80.9053 15.5108C81.524 14.6714 82.1294 13.8224 82.7468 12.9818C83.7379 13.3041 84.7289 13.6287 85.7211 13.9486C85.1085 13.1044 84.497 12.2602 83.8832 11.416C84.4946 10.5718 85.1025 9.72523 85.7223 8.88704C84.7253 9.19009 83.7403 9.53402 82.7456 9.84428C82.127 9.00609 81.5228 8.15829 80.9065 7.3189ZM106.474 7.31289C105.862 8.16069 105.254 9.0097 104.631 9.84669C103.641 9.53041 102.661 9.18167 101.661 8.89666C102.283 9.72883 102.887 10.5742 103.496 11.416C102.884 12.2626 102.269 13.1056 101.657 13.951C102.649 13.6311 103.642 13.3125 104.632 12.9806C105.252 13.8212 105.86 14.6726 106.477 15.5168C106.482 14.4717 106.475 13.4267 106.481 12.3817C107.466 12.0714 108.444 11.7419 109.426 11.4269C108.459 11.0577 107.46 10.7763 106.481 10.4456C106.474 9.40053 106.487 8.35671 106.474 7.31289ZM69.3687 13.2115C69.699 14.1927 69.9981 15.1849 70.3357 16.1637C69.5008 16.7903 68.6479 17.3916 67.8095 18.0133C68.8425 18.0157 69.8768 18.0241 70.9099 18.0085C71.281 18.9934 71.5465 20.0156 71.9153 21.0017C72.2072 19.9963 72.5495 19.0066 72.8763 18.0121C73.9129 18.0181 74.9496 18.0205 75.9863 18.0109C75.1466 17.3904 74.2937 16.7867 73.4565 16.1625C73.8084 15.1861 74.0991 14.1879 74.4283 13.203C73.5838 13.8079 72.7417 14.4164 71.9093 15.0381C71.0552 14.4381 70.2324 13.7959 69.3687 13.2115ZM115.502 15.0369C114.64 14.4393 113.805 13.8019 112.948 13.1958C113.265 14.1735 113.583 15.1512 113.9 16.1277L113.884 16.1974C113.053 16.8023 112.223 17.4084 111.389 18.0097C112.429 18.0241 113.47 18.0133 114.511 18.0157C114.822 18.9886 115.154 19.9554 115.452 20.9331C115.604 20.7696 115.623 20.5351 115.702 20.3342C115.953 19.5586 116.195 18.7793 116.467 18.0097C117.508 18.0109 118.553 18.0409 119.594 17.9928C118.726 17.4204 117.888 16.7771 117.043 16.1625C117.393 15.1933 117.67 14.2 118.012 13.2271C117.15 13.7935 116.329 14.4224 115.502 15.0369ZM63.1859 23.3214C62.1937 23.0027 61.2063 22.6696 60.2116 22.3618C60.8255 23.2035 61.4357 24.0477 62.0495 24.8895C61.4429 25.7325 60.8327 26.5719 60.2189 27.4089C61.2195 27.1287 62.1961 26.7667 63.1919 26.4637C63.8033 27.3043 64.41 28.1485 65.0262 28.9867C65.037 27.9441 65.0262 26.9026 65.0322 25.86C66.0148 25.5401 66.9986 25.2251 67.98 24.9004C67.0094 24.5408 66.0148 24.2474 65.031 23.9251C65.0286 22.8813 65.0334 21.8386 65.0286 20.7948C64.4112 21.6342 63.807 22.4844 63.1859 23.3214ZM122.353 20.7768C122.35 21.8266 122.349 22.8765 122.353 23.9263C121.369 24.2534 120.376 24.5516 119.399 24.898C120.38 25.2251 121.364 25.5401 122.348 25.8588C122.359 26.899 122.341 27.9392 122.358 28.9795C122.979 28.1485 123.579 27.3019 124.189 26.4637C125.185 26.7703 126.168 27.1155 127.165 27.4197C126.556 26.5755 125.942 25.7349 125.332 24.8919C125.948 24.0514 126.557 23.206 127.17 22.363C126.175 22.6768 125.188 23.0063 124.194 23.3226C123.577 22.476 122.956 21.633 122.353 20.7768ZM58.4278 30.9072C58.1239 31.9053 57.7791 32.8902 57.4716 33.8883C56.4338 33.8943 55.3959 33.8799 54.358 33.8955C55.1677 34.5545 56.053 35.1161 56.8698 35.7667C56.5275 36.7444 56.2199 37.7341 55.9016 38.7202C56.7353 38.131 57.5473 37.5116 58.3846 36.9284L58.4711 36.9212C59.3107 37.5068 60.124 38.1274 60.96 38.7166C60.6429 37.7317 60.3342 36.7444 59.9918 35.7679C60.8063 35.1173 61.6952 34.563 62.4976 33.8979C61.4645 33.8775 60.4303 33.8967 59.3972 33.8871C59.0717 32.895 58.7497 31.9017 58.4278 30.9072ZM127.99 33.8835C126.955 33.9112 125.918 33.8763 124.884 33.8967C125.685 34.5642 126.579 35.1125 127.39 35.7691C127.047 36.7456 126.742 37.7353 126.419 38.7178C127.259 38.1346 128.069 37.508 128.909 36.9236L128.992 36.9272C129.833 37.508 130.646 38.1274 131.479 38.7202C131.193 37.7197 130.785 36.7372 130.55 35.733C131.37 35.1161 132.208 34.5197 133.04 33.9172C131.996 33.8931 130.954 33.8931 129.911 33.8835C129.597 32.8902 129.256 31.9053 128.955 30.9084C128.63 31.8993 128.305 32.8902 127.99 33.8835ZM55.2842 42.5925C55.2842 43.6387 55.283 44.6849 55.2842 45.7324C54.31 46.0715 53.3045 46.33 52.3496 46.7209C53.3298 47.0311 54.3064 47.3558 55.2854 47.6709C55.2842 48.7087 55.2806 49.7465 55.2878 50.7843C55.9184 49.9558 56.5106 49.1007 57.1317 48.2662C58.1203 48.6053 59.1233 48.9035 60.1119 49.2426C59.4933 48.4045 58.8951 47.5518 58.268 46.7197C58.8603 45.8526 59.4993 45.0168 60.1083 44.1606C59.1209 44.4949 58.1227 44.798 57.1365 45.1371C56.5094 44.2965 55.8992 43.4427 55.2842 42.5925ZM130.234 45.1383C129.262 44.7944 128.276 44.4961 127.299 44.1714C127.878 45.0289 128.507 45.8526 129.115 46.6896C128.526 47.5446 127.89 48.3672 127.297 49.2198C128.284 48.9191 129.266 48.5981 130.244 48.2662C130.871 49.1055 131.48 49.9594 132.096 50.8072C132.091 49.7621 132.097 48.7171 132.092 47.6721C133.089 47.3534 134.083 47.0227 135.08 46.7028C134.085 46.3745 133.088 46.0546 132.094 45.73C132.095 44.6789 132.094 43.6291 132.095 42.5792C131.489 43.4427 130.874 44.3001 130.234 45.1383ZM55.9064 54.6999C56.2199 55.6848 56.5431 56.6673 56.865 57.6498C56.0265 58.2739 55.1773 58.8824 54.3316 59.4957C55.3719 59.4993 56.4133 59.5041 57.4548 59.4933C57.8116 60.4589 58.0398 61.4787 58.4554 62.4179C58.7726 61.4438 59.0753 60.465 59.4092 59.4969C60.4507 59.4969 61.491 59.5077 62.5324 59.4909C61.682 58.8836 60.8339 58.2715 59.9954 57.6461C60.3222 56.6625 60.6465 55.6776 60.9576 54.689C60.1156 55.2867 59.2807 55.8952 58.4518 56.5121C57.5821 55.9397 56.7761 55.2735 55.9064 54.6999ZM126.425 54.7119C126.747 55.6896 127.06 56.6721 127.384 57.6498C126.547 58.2751 125.695 58.8788 124.853 59.4957C125.892 59.5017 126.932 59.5017 127.972 59.4957C128.313 60.4866 128.616 61.4907 128.954 62.4829C129.271 61.4871 129.591 60.4914 129.924 59.4993C130.969 59.4945 132.014 59.5077 133.059 59.4921C132.202 58.8908 131.356 58.2727 130.516 57.6449C130.838 56.6624 131.164 55.6824 131.476 54.6963C130.624 55.2831 129.798 55.9072 128.961 56.5121C128.099 55.9349 127.299 55.2675 126.425 54.7119Z" fill="#DEEEFF"/>
<path d="M94.7124 34.8621C95.7431 35.5451 96.8002 36.2751 97.4404 37.3658C101.152 43.9077 104.878 50.4413 108.593 56.982C108.67 57.148 108.88 57.2273 108.954 57.0048C108.973 56.5226 108.955 56.0404 108.959 55.5582C109.832 55.9622 110.744 56.3302 111.482 56.9688C112.593 57.8996 113.496 59.0444 114.47 60.1123C118.001 64.1216 121.422 68.226 124.777 72.3832C125.212 72.9376 125.649 73.4932 126.154 73.9898C122.669 73.9886 119.183 73.9309 115.702 73.7698C114.882 72.459 114.118 71.1133 113.296 69.8049C112.02 67.9506 110.565 66.2285 109.116 64.5076C108.954 64.314 108.75 64.0651 108.464 64.1421C108.142 64.2491 108.083 64.6483 108.2 64.9285C108.858 66.7131 109.521 68.4965 110.188 70.2787C110.568 71.2203 110.893 72.3459 110.363 73.2984C107.144 72.9508 103.94 72.4325 100.782 71.7122C100.858 72.477 101.016 73.2286 101.127 73.9886C98.4398 73.991 95.7515 73.9898 93.0631 73.9886C92.6042 72.4013 92.788 70.7225 93.1941 69.1459C93.9268 66.3127 95.0476 63.5973 96.28 60.9493C94.656 60.2385 92.9526 59.6397 91.1676 59.5411C89.3693 59.4424 87.5651 59.5374 85.7644 59.4869C87.3092 55.9322 88.8384 52.3714 90.3784 48.8154C90.5285 48.4787 90.7147 48.1215 90.6282 47.7403C90.5405 47.2136 90.0432 46.8456 89.5267 46.8143C91.2661 42.8363 92.9778 38.8437 94.7124 34.8621Z" fill="#DEEEFF"/>
<path d="M86.2918 50.7986C86.4564 50.5989 86.6486 50.9477 86.5237 51.0848C85.5951 53.0485 84.651 55.0063 83.7164 56.9677C83.3092 57.7963 82.8443 58.6838 82.9668 59.6374C83.0077 60.0354 83.2671 60.3758 83.6143 60.5622C83.8005 60.6343 83.8738 60.8592 83.768 61.0312C83.2827 62.1616 82.7962 63.292 82.3049 64.4188C81.4653 64.4176 80.7037 64.8517 80.0418 65.3279C78.0033 66.854 76.5799 69.015 75.1984 71.1146C74.7023 70.9836 74.342 70.5001 74.3504 69.989C74.348 69.5706 74.6026 69.2206 74.8068 68.8767C75.6309 67.4961 76.4453 66.1108 77.2754 64.7351C77.5565 64.438 77.4303 63.9606 77.0147 63.886C78.4646 61.5519 79.8568 59.1828 81.2875 56.8366C82.0251 55.6737 82.7458 54.4868 83.6587 53.449C84.5308 52.5603 85.4077 51.6752 86.2918 50.7986Z" fill="#DEEEFF"/>
<path d="M21.9881 75.2249C26.6705 73.9045 31.6472 73.6387 36.445 74.448C38.8955 74.8834 41.3304 75.6314 43.453 76.9626C45.0854 77.9884 46.5161 79.4146 47.3197 81.1884C48.3144 83.3831 48.3708 85.9686 47.542 88.2246C46.9125 89.9274 45.7677 91.4006 44.4019 92.5791C42.6589 94.0787 40.5892 95.1562 38.439 95.945C36.3645 96.6726 34.2275 97.2486 32.0388 97.4939C31.0394 100.971 29.6123 104.345 27.5918 107.355C25.2975 110.794 22.1538 113.745 18.3423 115.412C16.5393 116.239 14.5933 116.668 12.6485 117H7.84713C5.98161 116.65 4.06084 116.128 2.58812 114.865C1.18147 113.717 0.388659 111.923 0.35022 110.12V109.476C0.405477 108.72 0.570046 107.864 1.21631 107.384C1.96708 106.88 3.18514 106.946 3.68605 107.771C4.0248 108.268 3.91188 108.894 3.82179 109.449C3.5419 111.026 3.84582 112.766 4.87167 114.03C5.78581 115.166 7.20447 115.79 8.62553 115.974C10.9679 116.249 13.4125 115.863 15.4966 114.734C17.2732 113.79 18.7568 112.373 19.9964 110.804C21.4415 108.971 22.5899 106.929 23.6362 104.85C25.999 100.103 27.8273 95.1008 30.3751 90.4433C32.2743 86.992 34.6587 83.6308 38.0726 81.5395C38.1843 81.6802 38.2973 81.8221 38.4114 81.964C36.8017 84.0084 35.6834 86.3919 34.7572 88.8114C33.8419 91.1889 33.1656 93.6469 32.4496 96.0881C36.2816 95.8079 39.8781 93.4954 41.7724 90.1571C43.0842 87.8987 43.5298 85.1556 42.9965 82.5978C42.6686 80.8649 41.7772 79.2342 40.4463 78.0726C38.7874 76.6126 36.6287 75.8598 34.4773 75.5075C29.3264 74.703 23.9185 75.5712 19.3069 78.0172C16.1224 79.7129 13.3043 82.2707 11.7175 85.5513C10.5932 87.8614 10.1439 90.489 10.407 93.0433C10.5992 94.7317 11.2166 96.4573 12.4971 97.6262C13.6191 98.6556 15.2047 99.0501 16.6978 98.9178C18.2642 98.8216 19.8018 98.0303 20.6823 96.7111C21.5172 95.5133 21.7803 94.0125 21.7178 92.5767C21.7659 91.6495 22.889 91.2695 23.6638 91.5244C24.1515 91.6363 24.5023 92.092 24.5179 92.5887C24.5695 94.3108 23.9461 96.0725 22.7112 97.2919C21.1148 98.9094 18.7904 99.6008 16.5645 99.6513C14.2437 99.7139 11.792 99.2533 9.92767 97.7874C8.37327 96.592 7.46994 94.7172 7.14801 92.8124C6.88014 90.9917 7.08435 89.1169 7.60568 87.3587C8.32522 85.0474 9.65619 82.9501 11.3475 81.2281C14.2521 78.2866 18.0468 76.3613 21.9881 75.2249Z" fill="#DEEEFF"/>
<path d="M173.231 93.3504C174.495 90.4414 175.755 87.53 177.01 84.6174C178.5 84.6198 179.989 84.6162 181.479 84.6186C180.227 87.5312 178.958 90.4366 177.706 93.3492C180.871 93.3577 184.036 93.3384 187.202 93.3589C186.676 94.5734 186.144 95.7856 185.629 97.005C182.467 97.005 179.306 97.0159 176.144 97.0002C174.854 99.8972 173.613 102.817 172.354 105.728C170.861 105.732 169.368 105.732 167.876 105.727C169.136 102.823 170.403 99.92 171.644 97.0074C168.481 97.005 165.318 97.0098 162.156 97.005C162.674 95.7844 163.208 94.5698 163.734 93.3516C166.899 93.3492 170.064 93.3504 173.231 93.3504Z" fill="#DEEEFF"/>
<path d="M155.353 87.5575C156.729 87.5347 158.106 87.5527 159.483 87.5479C158.642 89.4828 157.794 91.4154 156.947 93.3479C157.837 93.3527 158.727 93.3479 159.618 93.3503C159.439 93.7628 159.259 94.1752 159.072 94.5853C158.171 94.5853 157.269 94.5853 156.368 94.5853C155.425 96.7054 154.508 98.8364 153.568 100.956C152.63 103.145 151.511 105.283 150.992 107.625C150.872 108.31 150.757 109.105 151.181 109.711C151.601 110.226 152.346 110.223 152.938 110.072C153.795 109.895 154.481 109.317 155.12 108.754C156.077 107.868 156.88 106.829 157.634 105.768C157.875 105.995 158.118 106.223 158.358 106.455C157.207 108.076 155.958 109.683 154.299 110.814C153.127 111.62 151.681 112.03 150.261 111.925C149.411 111.848 148.556 111.493 148.013 110.818C147.464 110.163 147.271 109.293 147.249 108.458C147.254 107.556 147.42 106.661 147.691 105.804C146.572 107.197 145.276 108.512 143.65 109.301C142.676 109.771 141.5 110.02 140.463 109.608C139.683 109.29 139.25 108.434 139.26 107.619C139.279 106.714 139.512 105.823 139.841 104.985C140.874 102.547 142.082 100.189 143.201 97.7925C143.435 97.2358 143.718 96.691 143.849 96.0981C143.905 95.8336 143.919 95.5005 143.677 95.3237C143.368 95.1024 142.962 95.2251 142.633 95.3237C141.712 95.6724 141.04 96.4469 140.45 97.2045C139.093 99.0444 138.163 101.151 137.251 103.237C136.316 105.351 135.392 107.47 134.45 109.581C133.069 109.576 131.687 109.584 130.306 109.578C130.711 108.641 131.148 107.717 131.526 106.768C130.688 107.729 129.823 108.711 128.7 109.347C127.826 109.86 126.754 110.106 125.758 109.853C125.193 109.717 124.754 109.243 124.596 108.694C124.352 107.87 124.441 106.99 124.612 106.161C123.363 107.675 121.9 109.157 119.99 109.786C119.063 110.073 117.931 110.025 117.184 109.344C116.657 108.847 116.436 108.095 116.46 107.385C116.523 106.332 116.842 105.309 117.3 104.363C118.178 102.369 119.138 100.413 120.056 98.4371C119.102 98.9157 117.923 99.0685 116.935 98.6043C116.69 100.824 115.865 102.944 114.755 104.868C113.732 106.616 112.319 108.194 110.5 109.127C109.028 109.883 107.309 110.163 105.679 109.876C104.659 109.702 103.677 109.152 103.107 108.273C102.531 107.42 102.339 106.368 102.358 105.354C101.504 106.487 100.6 107.598 99.5085 108.512C98.6124 109.259 97.5145 109.834 96.3289 109.877C95.5877 109.908 94.7613 109.807 94.2087 109.264C93.6309 108.729 93.5024 107.866 93.6429 107.123C93.7726 106.106 94.2075 105.167 94.6555 104.255C95.7607 101.885 96.8838 99.5218 97.983 97.1492C98.18 96.6237 98.4418 95.9851 98.1523 95.4524C97.834 95.1974 97.392 95.3093 97.0412 95.4271C96.1691 95.7758 95.5096 96.4878 94.9414 97.2129C93.8327 98.6488 93.0891 100.318 92.3756 101.974C91.2525 104.508 90.1449 107.047 89.0194 109.58C87.6139 109.579 86.2085 109.582 84.8042 109.579C86.5136 105.636 88.2121 101.689 89.9215 97.7456C90.1809 97.0818 90.5786 96.4324 90.5497 95.6953C90.5173 95.4247 90.2254 95.2636 89.9743 95.302C89.3161 95.3622 88.7827 95.8023 88.295 96.21C86.8043 97.5737 85.7676 99.3571 84.9556 101.19C83.7351 103.97 82.5002 106.743 81.2822 109.524C79.9092 109.594 78.5314 109.503 77.1572 109.555C77.5692 108.587 78.0076 107.632 78.4184 106.664C77.574 107.682 76.6706 108.711 75.4898 109.342C74.7415 109.747 73.8501 109.918 73.0117 109.748C72.3162 109.607 71.7384 109.064 71.5077 108.399C71.2663 107.756 71.3287 107.056 71.3936 106.388C70.429 107.569 69.3191 108.689 67.9341 109.366C66.8926 109.889 65.6049 109.99 64.5358 109.492C63.7802 109.138 63.2829 108.371 63.1447 107.561C62.9069 106.112 63.2504 104.639 63.7766 103.291C64.4325 101.617 65.385 100.076 66.4361 98.6247C65.5184 99.1538 64.4889 99.6794 63.397 99.5278C62.8468 99.4773 62.3411 99.0432 62.2991 98.4756C62.1837 97.7312 62.6414 97.089 62.8817 96.4228C62.9273 96.2737 62.8684 96.1775 62.7063 96.1354C62.2738 96.2881 61.9723 96.6537 61.6732 96.9832C60.52 98.3421 59.75 99.968 59.0521 101.594C57.8977 104.238 56.7169 106.871 55.5733 109.519C54.2376 109.579 52.897 109.512 51.5588 109.555C51.924 108.593 52.3841 107.669 52.7637 106.713C51.6633 107.96 50.3816 109.154 48.7635 109.665C47.9779 109.888 47.0434 109.906 46.3527 109.415C45.5214 108.779 45.4782 107.583 45.7088 106.646C44.6373 107.982 43.2991 109.233 41.6018 109.681C40.469 109.946 39.108 109.873 38.2431 109.003C37.4107 108.127 37.3542 106.813 37.526 105.683C37.8491 103.59 38.8353 101.67 39.9609 99.903C40.7056 98.7859 41.478 97.6723 42.4474 96.7379C44.701 94.5528 47.7293 92.9438 50.9306 93.0388C51.972 93.0689 53.0315 93.1134 54.037 93.4176C54.3853 93.5259 54.7817 93.6641 54.9331 94.0321C53.4724 97.4294 51.966 100.807 50.4849 104.196C50.1474 104.95 49.8266 105.717 49.6308 106.522C49.5503 106.815 49.5419 107.223 49.8446 107.396C50.2146 107.542 50.605 107.343 50.915 107.146C51.6477 106.643 52.2147 105.942 52.7516 105.245C53.9289 103.663 54.879 101.923 55.6658 100.12C56.6617 97.8539 57.6767 95.5979 58.6617 93.3274C59.9002 93.3058 61.1435 93.2709 62.3807 93.3322C61.9952 94.1933 61.6612 95.0772 61.2804 95.9418C62.251 94.8751 63.3237 93.8397 64.6667 93.2649C65.2361 93.0376 65.8932 92.8897 66.489 93.1062C66.895 93.2613 67.0163 93.7507 66.9623 94.144C66.8241 95.2816 66.0589 96.1871 65.6229 97.2129C65.516 97.4161 65.552 97.7084 65.8055 97.7733C66.0782 97.7913 66.3472 97.7011 66.5947 97.5941C67.6157 97.1023 68.4782 96.3519 69.3563 95.6496C70.8927 94.4651 72.6777 93.574 74.5865 93.1951C75.6952 92.9739 76.834 93.0196 77.9536 93.1098C78.7043 93.1795 79.4731 93.2829 80.1626 93.6064C80.4101 93.7086 80.6624 93.9792 80.4942 94.2582C79.0119 97.641 77.5055 101.012 76.0364 104.401C75.7649 105.054 75.4946 105.715 75.3373 106.408C75.2484 106.75 75.3253 107.272 75.7733 107.28C76.4893 107.251 77.0382 106.698 77.5247 106.229C79.3386 104.28 80.5663 101.874 81.6101 99.4461C82.499 97.4053 83.43 95.3826 84.2973 93.3334C85.5622 93.2493 86.8355 93.3202 88.1028 93.2974C87.7364 94.1837 87.3701 95.0699 87.0145 95.961C87.9911 94.8727 89.1335 93.8818 90.5137 93.3503C91.2873 93.0508 92.1462 92.9125 92.969 93.0641C93.5276 93.1603 94.0465 93.5415 94.2387 94.0862C94.4609 94.6923 94.4093 95.3537 94.348 95.9839C95.5505 94.649 97.0989 93.5631 98.8623 93.1434C99.732 92.9667 100.742 92.862 101.511 93.4044C102.146 93.8181 102.419 94.6238 102.358 95.3574C102.247 96.6778 101.648 97.8827 101.155 99.0925C100.263 101.036 99.338 102.965 98.4334 104.903C98.2124 105.442 97.9529 105.975 97.8472 106.553C97.786 106.841 97.8941 107.235 98.2364 107.272C98.8202 107.322 99.3344 106.969 99.7656 106.618C100.68 105.835 101.378 104.838 102.041 103.844C102.245 103.498 102.508 103.182 102.649 102.804C103.175 101.108 103.898 99.4725 104.8 97.9441C105.861 96.1402 107.377 94.5336 109.309 93.6738C110.544 93.1302 111.919 92.9017 113.261 93.0436C114.32 93.1579 115.361 93.6557 116.017 94.5132C116.526 95.1722 116.81 95.9887 116.906 96.8125C116.889 97.2334 117.308 97.4763 117.654 97.5953C118.647 97.8575 119.705 97.4366 120.402 96.7187C121.366 95.7686 121.813 94.4651 122.388 93.2733C123.771 93.2733 125.154 93.2709 126.536 93.2745C124.93 96.7752 123.322 100.273 121.73 103.78C121.364 104.607 120.942 105.418 120.696 106.292C120.632 106.577 120.554 106.946 120.802 107.173C121.089 107.42 121.504 107.298 121.818 107.167C122.521 106.827 123.073 106.256 123.58 105.677C124.444 104.662 125.171 103.537 125.818 102.374C126.477 101.181 126.959 99.9018 127.52 98.662C128.293 96.8654 129.089 95.0784 129.852 93.2781C131.248 93.2685 132.642 93.2733 134.038 93.2745C132.186 97.5544 130.294 101.816 128.492 106.118C128.38 106.48 128.182 107.076 128.631 107.289C129.102 107.388 129.543 107.114 129.905 106.843C130.623 106.279 131.189 105.549 131.73 104.822C132.702 103.461 133.552 102.015 134.295 100.518C135.345 98.1305 136.39 95.7422 137.434 93.3527C138.728 93.3515 140.021 93.3419 141.315 93.3575C140.964 94.1692 140.616 94.9822 140.3 95.8083C141.077 94.981 141.957 94.2342 142.962 93.6978C143.972 93.1675 145.163 92.8705 146.295 93.1374C147.082 93.3226 147.738 93.9636 147.92 94.7561C148.175 95.7482 147.754 96.7331 147.422 97.653C146.645 99.5856 145.646 101.417 144.782 103.31C144.313 104.33 143.814 105.342 143.489 106.42C143.408 106.723 143.364 107.206 143.768 107.293C144.52 107.401 145.143 106.843 145.665 106.379C147.195 104.877 148.321 103.018 149.314 101.132C150.381 98.9807 151.315 96.7656 152.315 94.5829C151.653 94.5805 150.991 94.5841 150.33 94.5805C150.523 94.1692 150.712 93.7579 150.913 93.3527C151.551 93.3479 152.19 93.3491 152.828 93.3515C153.679 91.4238 154.56 89.5093 155.353 87.5575ZM47.226 95.8588C45.7064 97.1047 44.6493 98.7979 43.6703 100.478C42.8006 102.047 42.0114 103.694 41.6378 105.459C41.5681 106.004 41.3747 106.676 41.7856 107.135C42.1868 107.433 42.7477 107.383 43.1898 107.204C43.9286 106.877 44.5028 106.281 45.0217 105.679C46.2854 104.131 47.2163 102.345 48.05 100.539C48.9653 98.4948 49.8807 96.4517 50.79 94.4061C49.4675 94.4097 48.2278 95.0327 47.226 95.8588ZM72.7534 95.931C71.2939 97.1504 70.2765 98.7895 69.3215 100.412C68.4194 102.04 67.5893 103.746 67.2289 105.586C67.1569 106.107 67.0151 106.783 67.4788 107.17C68.0374 107.513 68.7677 107.319 69.2842 106.978C70.2945 106.324 71.0056 105.317 71.6579 104.325C72.4915 103.03 73.1678 101.642 73.8009 100.24C74.6658 98.294 75.5403 96.3519 76.4052 94.4061C75.043 94.4097 73.7733 95.0687 72.7534 95.931ZM112.195 94.5204C111.553 94.744 111.085 95.2648 110.661 95.7722C109.635 97.0361 108.818 98.454 108.099 99.9103C107.211 101.763 106.444 103.69 106.001 105.701C105.864 106.45 105.664 107.278 106.012 107.999C106.282 108.568 107.028 108.596 107.552 108.416C108.469 108.074 109.075 107.25 109.606 106.47C110.878 104.543 111.849 102.43 112.644 100.266C113.091 98.9843 113.51 97.6795 113.681 96.3278C113.738 95.8155 113.753 95.2431 113.454 94.7994C113.174 94.4061 112.616 94.3713 112.195 94.5204Z" fill="#DEEEFF"/>
</svg>
