<svg width="214" height="65" viewBox="0 0 214 65" fill="none" xmlns="http://www.w3.org/2000/svg">
<g clip-path="url(#clip0_1586_11026)">
<path d="M42.0774 0.36457C43.3454 -0.0991498 44.9154 -0.176436 46.0494 0.659844C47.1594 1.41884 47.4854 2.94277 47.1194 4.17539C46.7554 5.3664 45.5734 6.24826 44.3174 6.276C43.3794 6.34536 42.3734 6.25222 41.6014 5.67356C39.7834 4.44491 40.0494 1.25436 42.0774 0.36457Z" fill="#00A8E1"/>
<path d="M10.3194 9.11193C12.8954 8.55111 15.8514 8.99303 17.8314 10.8241C19.6614 12.5284 20.6454 14.9837 20.8674 17.4331C21.1714 20.2947 20.9374 23.3148 19.6034 25.9128C18.4854 28.0709 16.4834 29.8782 14.0414 30.3717C11.4554 30.9385 8.70539 30.227 6.58739 28.6952C6.57939 29.3016 6.56739 29.91 6.55339 30.5183C6.59539 31.8382 6.56539 33.158 6.57339 34.4798C6.56339 35.6926 6.63939 36.9212 6.39939 38.1182C6.16339 38.4551 5.69739 38.3817 5.34139 38.4194C4.13339 38.4154 2.92339 38.4234 1.71539 38.4135C1.24739 38.4392 0.843391 38.1856 0.525391 37.8725V9.96803C1.23539 9.33389 2.24339 9.50233 3.11339 9.53998C3.80539 9.59151 4.52339 9.44883 5.19739 9.63907C5.65339 10.0255 5.71739 10.6517 5.91139 11.1769C5.95939 11.1888 6.05539 11.2106 6.10139 11.2225C7.36539 10.2792 8.75139 9.43892 10.3194 9.11193ZM6.65739 14.4189C6.61539 14.526 6.52739 14.742 6.48539 14.849C6.46739 17.9563 6.47939 21.0636 6.47139 24.1709C6.46139 24.4622 6.54939 24.7456 6.62539 25.025C7.87339 25.8891 9.43339 26.1824 10.9334 26.0833C12.4834 26.1328 13.8594 24.9914 14.3814 23.5923C15.0794 21.4183 15.0514 19.0878 14.6654 16.8604C14.3914 15.5446 13.6974 14.1455 12.3394 13.66C10.4674 13.006 8.31939 13.3924 6.65739 14.4189Z" fill="#00A8E1"/>
<path d="M57.2835 11.4344C59.7855 9.69838 62.8595 8.53908 65.9495 8.99289C67.5735 9.12963 69.0175 10.1046 69.8895 11.4443C72.0915 9.86683 74.7715 8.84427 77.5155 8.90372C79.1115 8.87994 80.8035 9.3278 81.9255 10.5109C83.0135 11.6008 83.4215 13.1684 83.4295 14.6645C83.4395 19.4226 83.4335 24.1827 83.4335 28.9408C83.4475 29.3113 83.3535 29.672 83.1735 29.995C82.8275 30.0327 82.4835 30.0802 82.1435 30.1496C81.4095 30.2645 80.6715 29.995 79.9495 30.1496C79.2515 30.219 78.5555 30.1199 77.8675 30.0168C77.6275 29.7017 77.4735 29.3331 77.4955 28.9328C77.4775 24.5751 77.5055 20.2153 77.4835 15.8575C77.5035 15.049 77.1875 14.1612 76.4455 13.747C75.5395 13.2555 74.4675 13.426 73.4955 13.5706C72.5135 13.6994 71.5975 14.0819 70.6855 14.4446C70.6535 14.7141 70.6335 14.9876 70.6275 15.2591C70.6295 19.7516 70.6275 24.2421 70.6275 28.7347C70.6415 29.1647 70.5655 29.5908 70.3975 29.9891C70.1835 30.0446 69.9695 30.104 69.7555 30.1655C68.1375 30.0941 66.4695 30.3834 64.8875 29.9732C64.7855 29.6998 64.6675 29.4203 64.6735 29.1231C64.6415 24.7059 64.6955 20.2886 64.6455 15.8714C64.6775 14.8112 64.0255 13.6519 62.8895 13.5013C61.1575 13.2437 59.4215 13.7688 57.8335 14.4148C57.6315 15.0034 57.7115 15.6316 57.6995 16.242C57.7075 20.4036 57.6935 24.5652 57.7035 28.7267C57.7135 29.1369 57.6475 29.5432 57.5575 29.9435C55.9875 30.4052 54.3115 30.0882 52.6935 30.1655C52.4795 30.104 52.2655 30.0446 52.0515 29.9871C51.8695 29.6661 51.7515 29.3113 51.7795 28.9388C51.7795 22.8609 51.7775 16.783 51.7815 10.7051C51.7955 10.3206 51.8155 9.78161 52.2175 9.60524C53.5735 9.40905 54.9435 9.51408 56.3055 9.58146C56.9695 9.94808 56.9595 10.822 57.2835 11.4344Z" fill="#00A8E1"/>
<path d="M90.3393 11.3116C92.3953 9.52405 95.2453 8.92954 97.9173 9.03061C99.6793 9.19905 101.545 9.53 102.947 10.6873C104.085 11.5751 104.847 12.8593 105.163 14.2544C105.465 16.2044 105.145 18.4794 103.533 19.8131C101.709 21.335 99.2213 21.662 96.9213 21.767C95.4013 21.8562 93.9093 21.5352 92.4033 21.4282C92.3593 22.9838 93.0433 24.6247 94.4033 25.4748C95.6593 26.3289 97.2593 26.3032 98.7213 26.3131C100.287 26.3309 101.807 25.9187 103.319 25.5759C103.621 25.4847 103.931 25.5541 104.233 25.6175C104.535 26.5588 104.359 27.5635 104.393 28.5346C104.449 29.3074 103.679 29.6463 103.061 29.8346C100.001 30.8274 96.6293 31.1583 93.5013 30.2705C91.0433 29.6443 88.8673 27.8984 87.9313 25.5362C86.9053 22.9798 86.6453 20.1361 87.0973 17.4271C87.5593 15.1462 88.5333 12.8652 90.3393 11.3116ZM95.2133 13.3923C93.4493 14.0443 92.6753 15.9587 92.4693 17.6808C92.7413 18.1048 93.3513 17.9106 93.7773 18.0454C95.3793 18.1445 97.0973 18.418 98.6113 17.7382C100.363 17.0149 100.309 14.082 98.5393 13.4102C97.4813 13.0396 96.2773 13.0614 95.2133 13.3923Z" fill="#00A8E1"/>
<path d="M32.2895 10.8794C33.6435 9.76769 35.4175 9.2029 37.1675 9.28019C37.5775 9.34559 38.1595 9.37531 38.2195 9.90245C38.2875 11.2857 38.3055 12.6788 38.2155 14.0601C38.1055 14.8646 37.1335 14.7398 36.5375 14.7061C34.6795 14.4723 32.8495 14.9499 31.0695 15.4175C30.9475 15.6058 30.7855 15.7941 30.8155 16.0358C30.7995 20.3976 30.8215 24.7613 30.8055 29.123C30.8275 29.4361 30.7075 29.7195 30.5595 29.9871C30.2835 30.0346 30.0115 30.0941 29.7415 30.1595C28.1895 30.1337 26.6335 30.2328 25.0915 29.997C24.9415 29.6581 24.8075 29.3053 24.8355 28.9288C24.8335 23.1165 24.8375 17.3021 24.8335 11.4878C24.8395 10.8656 24.7715 10.2116 25.0615 9.63492C26.0595 9.32973 27.1135 9.518 28.1395 9.46251C28.7235 9.45062 29.5015 9.40108 29.8095 10.0154C30.1135 10.7962 30.2715 11.6226 30.4735 12.4331C31.1415 11.9892 31.6375 11.3451 32.2895 10.8794Z" fill="#00A8E1"/>
<path d="M41.0874 9.62302C42.0094 9.34161 42.9834 9.4942 43.9314 9.45259C44.8174 9.48826 45.7295 9.35152 46.5895 9.62103C46.8675 10.4137 46.7834 11.2579 46.7914 12.0823C46.7934 17.4963 46.7914 22.9104 46.7934 28.3244C46.7774 28.907 46.8435 29.5729 46.3855 30.0187C44.6855 30.0643 42.9814 30.0703 41.2814 30.0168C40.9814 29.7235 40.7635 29.3687 40.8235 28.9328C40.8535 23.1224 40.8514 17.314 40.8474 11.5037C40.8594 10.8715 40.7554 10.1977 41.0874 9.62302Z" fill="#00A8E1"/>
<path d="M143.833 42.1053C147.251 39.9611 151.363 39.2893 155.345 39.2021C157.189 39.3131 159.063 39.4142 160.831 39.9909C161.737 40.2148 162.623 40.7895 162.781 41.7704C162.953 43.5124 162.747 45.2543 162.465 46.9724C161.835 50.2997 160.651 53.5279 158.931 56.4549C158.039 58.0303 156.875 59.4453 155.537 60.668C155.215 60.9653 154.765 61.2348 154.311 61.1099C153.805 60.9177 153.953 60.2717 154.061 59.8694C155.475 55.9832 157.001 52.0832 157.595 47.9712C157.691 46.8654 157.827 45.4743 156.799 44.7311C155.205 43.8275 153.291 43.8948 151.511 43.8928C148.627 43.8393 145.775 44.305 142.921 44.6499C142.441 44.7291 141.933 44.2733 142.059 43.7799C142.301 42.9436 143.169 42.5651 143.833 42.1053Z" fill="#00A8E1"/>
<path d="M52.2673 41.481C52.3233 40.9063 52.9273 40.3653 53.5253 40.5853C54.1393 40.8191 54.6833 41.1937 55.2493 41.5207C69.1613 49.8874 85.0953 54.8675 101.311 56.0961C109.797 56.7957 118.367 56.2963 126.733 54.7545C135.073 53.2405 143.245 50.7515 150.957 47.2478C151.945 46.6969 153.457 47.1626 153.653 48.3477C153.889 49.4832 152.859 50.2679 152.053 50.8605C149.869 52.5172 147.557 54.0034 145.169 55.353C138.127 59.2312 130.451 61.956 122.549 63.4958C118.157 64.3618 113.689 64.7502 109.223 64.9999H106.219C105.199 64.9108 104.173 64.8791 103.153 64.8097C95.3173 64.4332 87.5733 62.7111 80.2273 60.006C70.0213 56.1912 60.6993 50.1669 52.8913 42.6324C52.5733 42.3272 52.2813 41.9368 52.2673 41.481Z" fill="#00A8E1"/>
<path d="M139.559 0.237827C140.889 -0.168423 142.543 -0.0752832 143.557 0.969077C144.591 2.03325 144.615 3.83661 143.805 5.03554C142.773 6.4485 140.635 6.59911 139.127 5.92929C136.825 4.86908 137.065 0.925479 139.559 0.237827Z" fill="#232F3E"/>
<path d="M162.261 0.323065C163.207 0.180382 164.165 0.239834 165.119 0.231907C166.003 0.245779 166.893 0.168492 167.769 0.332974C167.875 0.673828 168.001 1.01666 167.987 1.3813C167.985 10.5625 167.985 19.7458 167.987 28.927C168.021 29.367 167.865 30.0606 167.297 30.0308C165.975 30.0705 164.653 30.0645 163.333 30.0328C163.029 30.0348 162.859 29.7455 162.645 29.583C162.575 29.1747 162.459 28.7744 162.269 28.4058C160.685 29.6523 158.767 30.5639 156.713 30.5917C154.631 30.5996 152.435 30.017 150.905 28.5545C149.337 27.1197 148.461 25.1023 147.991 23.0731C147.737 22.0069 147.823 20.9051 147.713 19.8211C147.825 18.6182 147.763 17.3895 148.081 16.2104C148.637 13.9473 149.749 11.6723 151.727 10.3109C154.079 8.67596 157.277 8.37871 159.915 9.49243C160.677 9.71834 161.283 10.2752 162.043 10.4972C162.025 7.79212 162.041 5.08511 162.035 2.38008C162.043 1.69044 161.951 0.96712 162.261 0.323065ZM156.839 13.434C156.023 13.7075 155.231 14.1891 154.803 14.956C153.853 16.6028 153.721 18.5627 153.783 20.4196C153.779 21.779 154.095 23.1523 154.777 24.3374C155.441 25.3936 156.675 26.0516 157.929 26.0516C159.293 26.1526 160.689 25.8118 161.831 25.0667C162.085 24.9379 162.029 24.6069 162.059 24.375C162.071 21.2657 162.029 18.1564 162.081 15.0491C162.051 14.7657 162.127 14.3575 161.829 14.1911C160.327 13.3508 158.521 13.1526 156.839 13.434Z" fill="#232F3E"/>
<path d="M196.078 11.4464C197.774 9.76197 200.19 9.0109 202.54 8.86227C205.05 8.69581 207.702 9.17538 209.778 10.6478C212.188 12.3877 213.62 15.3662 213.526 18.3111V21.2797C213.554 23.9391 212.43 26.6283 210.422 28.4098C208.438 30.1498 205.708 30.7562 203.12 30.7304C200.236 30.6294 197.17 29.6643 195.358 27.3159C193.634 25.0092 193 22.0486 193.056 19.2207C193.208 16.4225 194.01 13.4678 196.078 11.4464ZM202.854 13.4499C201.714 13.5688 200.662 14.2386 200.094 15.2255C199.13 16.8466 199.13 18.8025 199.186 20.6257C199.216 22.0248 199.48 23.4635 200.252 24.6585C200.782 25.3996 201.594 26.0179 202.534 26.0952C203.648 26.1784 204.902 26.222 205.804 25.4511C207.382 24.1511 207.652 21.9277 207.628 20.0193C207.688 18.2952 207.496 16.4879 206.58 14.9818C205.792 13.7848 204.25 13.2399 202.854 13.4499Z" fill="#232F3E"/>
<path d="M178.568 9.58168C180.95 8.86827 183.546 8.87421 185.924 9.60943C187.556 10.1683 189.05 11.3018 189.734 12.911C190.326 14.1277 190.374 15.5129 190.238 16.8347C190.016 18.543 188.836 20.059 187.244 20.7407C184.154 22.1497 180.638 21.8603 177.364 21.4145C177.458 22.6451 177.748 23.953 178.636 24.8745C179.474 25.7782 180.724 26.1785 181.932 26.2657C183.326 26.3608 184.744 26.3608 186.118 26.0715C187.004 25.9486 187.84 25.5939 188.73 25.5007C189.114 25.4373 189.464 25.8138 189.438 26.1864C189.464 27.0306 189.474 27.8768 189.43 28.719C189.412 29.3096 188.796 29.5692 188.316 29.7337C185.198 30.8295 181.734 31.1486 178.518 30.2826C176.176 29.6484 174.056 28.0452 173.084 25.8039C171.546 22.0843 171.464 17.6928 173.296 14.0584C174.344 11.9379 176.296 10.2911 178.568 9.58168ZM178.006 15.5209C177.666 16.2164 177.604 16.9952 177.406 17.7344C178.714 18.1922 180.15 18.1169 181.522 18.1585C182.624 18.0911 183.99 17.9049 184.586 16.8486C185.006 15.8439 185.004 14.4527 184.08 13.7175C183.326 13.0774 182.262 13.127 181.334 13.1428C179.852 13.1468 178.58 14.2228 178.006 15.5209Z" fill="#232F3E"/>
<path d="M114.612 9.64299C114.97 9.50625 115.348 9.43292 115.736 9.45472C117.068 9.47454 118.404 9.43887 119.738 9.4686C120.204 9.45076 120.586 9.78963 120.764 10.1939C122.082 14.5893 123.369 18.9947 124.669 23.396C124.775 23.7864 124.896 24.1768 125.082 24.5415C126.5 19.8686 127.872 15.1838 129.292 10.513C129.392 10.0314 129.758 9.51021 130.314 9.55381C131.852 9.55381 133.396 9.46463 134.932 9.5439C135.614 9.51814 135.578 10.3108 135.372 10.7508C133.056 16.8822 130.644 22.9779 128.292 29.0954C128.12 29.5869 127.714 30.118 127.13 30.0724C125.79 30.0764 124.447 30.0784 123.107 30.0704C122.407 30.1239 121.924 29.4858 121.732 28.8913C119.424 22.9244 117.13 16.9495 114.81 10.9846C114.62 10.5605 114.552 10.1027 114.612 9.64299Z" fill="#232F3E"/>
<path d="M138.383 9.60325C139.413 9.36149 140.469 9.60722 141.513 9.54975C142.199 9.57155 142.917 9.38725 143.581 9.63496C143.971 9.84899 143.843 10.3464 143.887 10.709C143.875 16.9138 143.899 23.1185 143.875 29.3232C143.985 30.0783 143.069 30.1892 142.519 30.1694C141.097 30.1179 139.653 30.3101 138.253 30.0168C138.095 29.7473 137.959 29.46 137.987 29.1409C137.975 22.9917 137.989 16.8424 137.981 10.6952C137.987 10.3107 137.943 9.77963 138.383 9.60325Z" fill="#232F3E"/>
</g>
<defs>
<clipPath id="clip0_1586_11026">
<rect width="213" height="65" fill="white" transform="translate(0.525391)"/>
</clipPath>
</defs>
</svg>
