<?xml version="1.0" encoding="UTF-8" ?>
<!DOCTYPE svg PUBLIC "-//W3C//DTD SVG 1.1//EN" "http://www.w3.org/Graphics/SVG/1.1/DTD/svg11.dtd">
<svg width="539pt" height="610pt" viewBox="0 0 539 610" version="1.1" xmlns="http://www.w3.org/2000/svg">
<g id="#ffffffff">
<path fill="#ffffff" opacity="1.00" d=" M 65.94 0.00 L 67.59 0.00 C 125.56 12.02 182.08 30.13 237.72 50.19 C 270.26 62.42 302.89 77.35 328.10 101.89 C 341.66 115.09 352.32 131.21 359.30 148.80 C 365.92 165.46 369.46 183.20 371.34 200.98 C 373.13 220.63 373.85 240.45 371.99 260.12 C 369.63 283.39 363.52 307.15 349.17 326.05 C 338.56 340.22 322.71 350.50 305.16 353.41 C 281.19 357.74 256.81 350.42 235.50 339.70 C 235.48 275.47 235.51 211.23 235.48 147.00 C 235.38 136.57 235.03 125.79 231.02 116.01 C 228.09 108.71 222.00 102.74 214.48 100.32 C 210.56 98.84 205.16 97.11 201.98 100.88 C 198.32 105.72 198.42 112.17 198.00 117.94 C 197.70 129.29 197.91 140.65 197.85 152.01 C 197.83 304.33 197.88 456.65 197.82 608.98 C 153.83 595.32 109.89 581.53 65.94 567.73 C 65.93 378.49 65.94 189.24 65.94 0.00 Z" />
<path fill="#ffffff" opacity="1.00" d=" M 39.85 345.55 C 41.59 344.87 43.36 344.26 45.20 343.96 C 45.21 368.06 45.21 392.17 45.20 416.28 C 30.55 421.85 15.71 426.90 1.03 432.40 C 0.96 408.09 1.01 383.77 1.01 359.46 C 13.96 354.84 26.89 350.13 39.85 345.55 Z" />
<path fill="#ffffff" opacity="1.00" d=" M 296.97 378.39 C 322.45 375.56 348.17 373.97 373.78 376.06 C 415.27 378.85 456.22 388.65 494.81 404.08 C 509.26 410.40 524.19 418.44 532.83 432.18 C 539.53 442.58 538.36 456.99 530.52 466.44 C 516.09 481.23 497.98 491.96 478.88 499.57 C 392.72 532.76 306.59 566.05 220.41 599.20 C 220.40 574.30 220.40 549.40 220.41 524.51 C 279.09 501.88 337.76 479.21 396.44 456.56 C 405.96 452.91 416.02 449.68 423.79 442.79 C 426.54 440.32 429.21 436.75 428.24 432.83 C 426.59 428.05 421.40 425.87 416.96 424.44 C 392.63 418.22 366.65 420.43 342.93 428.18 C 302.07 443.88 261.24 459.63 220.40 475.38 C 220.41 449.82 220.40 424.26 220.40 398.70 C 245.20 389.56 270.63 381.50 296.97 378.39 Z" />
<path fill="#ffffff" opacity="1.00" d=" M 1.04 480.39 C 15.75 475.38 30.53 470.59 45.20 465.46 C 45.21 487.70 45.21 509.94 45.20 532.19 C 42.13 533.09 39.06 534.08 35.87 534.41 C 24.29 536.17 12.70 538.06 1.01 538.82 C 1.01 519.34 0.96 499.86 1.04 480.39 Z" />
</g>
</svg>
