<svg width="280" height="86" viewBox="0 0 280 86" fill="none" xmlns="http://www.w3.org/2000/svg">
<path d="M114.007 0C129.034 0.00862467 144.061 -0.00215607 159.088 0.00431243C159.326 0.0107809 159.59 -0.0107809 159.82 0.0884028C159.719 6.2421 159.786 12.4044 159.786 18.5603C156.188 18.6681 152.586 18.5775 148.986 18.6077C137.325 18.6077 125.664 18.6077 114 18.6077C114.004 12.4044 113.994 6.20114 114.007 0ZM115.526 1.67103C115.53 6.80918 115.515 11.9452 115.533 17.0833C116.392 17.0876 117.254 17.1113 118.114 17.0574C118.081 15.0802 118.135 13.103 118.079 11.1258C118.066 10.6903 118.146 10.259 118.217 9.82997C118.432 10.3884 118.556 10.9727 118.608 11.57C118.939 13.3618 119.231 15.16 119.526 16.9583C119.885 17.217 120.413 17.0316 120.839 17.0984C121.376 14.6986 121.615 12.2341 122.152 9.82997C122.438 12.2168 122.231 14.6339 122.27 17.0337C124.005 17.1609 125.748 17.0553 127.486 17.0898C127.637 16.3071 127.714 15.5158 127.864 14.7352C128.614 14.6964 129.367 14.7029 130.119 14.7352C130.428 15.4705 130.22 16.4084 130.598 17.0574C132.275 17.1286 133.957 17.0768 135.638 17.0876C135.619 15.4209 135.644 13.7542 135.621 12.0875C135.928 11.984 136.242 11.9818 136.543 12.1155C136.723 13.4653 137.218 14.7482 137.497 16.0785C137.607 16.4084 137.62 16.8138 137.882 17.0682C138.705 17.1286 139.53 17.0876 140.355 17.0747C139.726 15.1018 139.165 13.1073 138.597 11.115C139.487 10.3712 140.102 9.30817 140.224 8.14384C140.327 8.16972 140.532 8.22362 140.635 8.2495C140.996 11.2099 141.585 14.138 142.047 17.0833C143.068 17.1135 144.089 17.0812 145.109 17.0876C145.851 12.6351 146.584 8.17619 147.205 3.7043L147.422 3.71508C147.418 3.57493 147.407 3.29247 147.4 3.15232C147.514 3.49515 147.568 3.85523 147.57 4.21746C147.553 8.50608 147.553 12.7947 147.568 17.0833C149.251 17.0984 150.934 17.0833 152.619 17.0855C152.634 16.1885 152.629 15.2915 152.621 14.3946C151.795 14.3989 150.97 14.3967 150.147 14.3881C150.067 13.2065 150.162 12.0206 150.091 10.8391C150.899 10.5458 151.78 10.7312 152.623 10.6838C152.621 9.81056 152.636 8.93731 152.608 8.06407C151.77 8.03604 150.923 8.13738 150.095 7.97135C150.158 6.82211 150.063 5.67072 150.143 4.52364C150.923 4.28862 151.802 4.4762 152.621 4.42446C152.629 3.50593 152.623 2.5874 152.627 1.66672C150.078 1.66456 147.531 1.65378 144.985 1.67319C144.755 2.57878 144.759 3.51887 144.583 4.43308C144.207 6.60218 144.108 8.82304 143.586 10.9663C143.278 10.0521 143.263 9.07962 143.087 8.13738C142.805 5.98336 142.507 3.83367 142.227 1.67965C141.344 1.65378 140.463 1.65809 139.582 1.67319C139.595 2.47528 139.865 3.24503 139.837 4.04713C139.152 3.49515 138.728 2.6413 137.905 2.25319C136.407 1.3972 134.636 1.70984 132.994 1.67534C133.005 5.11874 132.992 8.56214 132.99 12.0055C132.999 13.0858 133.027 14.1703 132.893 15.2441C132.754 14.5584 132.599 13.8771 132.489 13.1871C131.948 9.35345 131.329 5.53057 130.798 1.69259C129.62 1.65378 128.438 1.62791 127.263 1.69906C126.74 4.96997 126.225 8.27968 125.803 11.5765C125.479 12.9241 125.464 14.3234 125.073 15.6559C124.832 14.373 124.924 13.0685 124.909 11.7748C124.907 8.40474 124.914 5.03465 124.905 1.66456C123.798 1.65809 122.694 1.66025 121.589 1.67103C121.219 3.74095 120.908 5.8195 120.583 7.89589C120.499 8.43277 120.491 8.98691 120.241 9.48282C120.069 9.28877 119.988 9.04512 119.971 8.78854C119.629 6.40813 119.261 4.03203 118.864 1.66025C117.75 1.66672 116.639 1.65809 115.526 1.67103ZM153.33 1.66456C153.313 6.80486 153.328 11.9473 153.319 17.0876C154.957 17.0833 156.595 17.1006 158.232 17.0855C158.277 16.1907 158.277 15.2915 158.226 14.3967C157.463 14.3709 156.698 14.4312 155.939 14.3644C155.834 14.0172 155.855 13.6485 155.853 13.2906C155.868 9.41383 155.851 5.53704 155.855 1.66025C155.013 1.66025 154.17 1.65809 153.33 1.66456Z" fill="white"/>
<path d="M135.645 4.36616C136.947 4.26913 137.757 5.65339 137.684 6.82419C137.725 8.00577 136.988 9.50215 135.636 9.44609C135.628 7.7535 135.615 6.05875 135.645 4.36616Z" fill="white"/>
<path d="M128.892 6.00098C128.982 6.03332 129.163 6.09585 129.253 6.12603C129.309 8.19164 129.683 10.2335 129.919 12.284C129.363 12.4652 128.772 12.3746 128.202 12.353C128.335 10.2271 128.684 8.12049 128.892 6.00098Z" fill="white"/>
<path d="M2.53926 32.172C3.76858 31.1371 5.37831 30.5851 6.97944 30.611C8.91584 30.6131 10.8501 30.6131 12.7865 30.611C14.9013 30.542 17.044 31.4842 18.4044 33.1121C18.9546 33.8387 19.3522 34.6559 19.6832 35.5012C20.0378 36.9005 19.9583 38.3495 19.9174 39.779C18.7612 40.8873 17.6415 42.0365 16.4637 43.1232C15.185 44.2681 14.0266 45.5338 12.7736 46.7046C12.7435 44.2746 12.7822 41.8424 12.7542 39.4124C12.7607 38.9036 12.5243 38.4228 12.1546 38.0799C11.8065 37.7565 11.4991 37.2563 10.9532 37.321L10.9919 37.1183C10.2483 37.1592 9.42304 36.9264 8.74175 37.3059C8.53543 37.4094 8.32696 37.5085 8.11849 37.6077C7.95516 37.791 7.79612 37.9764 7.64998 38.1726C6.99233 38.9575 7.32975 40.0162 7.25453 40.9455C7.32115 42.2306 7.0826 43.5458 7.40282 44.805C7.47589 45.0293 7.54682 45.2535 7.61559 45.4821C7.67792 45.6955 7.74884 45.9068 7.82406 46.1181C7.94226 46.3769 8.05402 46.6378 8.16148 46.9008C8.47311 47.4248 8.80408 47.9358 9.16729 48.4252C9.28764 48.6602 9.43164 48.8866 9.58638 49.1023C10.2247 50.1954 11.0091 51.1981 11.6302 52.3042C11.7055 52.3947 11.8559 52.578 11.9311 52.6686C12.2299 53.2011 12.5866 53.7014 12.9004 54.2253C13.8181 55.588 14.6778 56.9874 15.6105 58.3393C15.8748 58.7942 16.1714 59.2276 16.4637 59.6653C16.8506 60.2971 17.2761 60.903 17.6501 61.5433C18.3034 62.7271 18.8471 63.969 19.249 65.2606C19.5693 66.3322 19.7004 67.4362 19.9045 68.5272C19.9626 71.5501 19.9669 74.5795 19.9088 77.6025C19.7691 77.8871 19.7197 78.1976 19.6853 78.5102C19.6122 78.7172 19.537 78.9221 19.4639 79.129C19.3135 79.4137 19.1824 79.7091 19.0492 80.0045C18.903 80.2201 18.7612 80.4378 18.6279 80.6642C18.183 81.2119 17.6844 81.7143 17.1428 82.1649C16.9193 82.2986 16.7023 82.4452 16.4874 82.594C16.1908 82.7298 15.8985 82.8743 15.6148 83.0382C15.1076 83.1848 14.5853 83.284 14.0932 83.4759C11.6539 83.5513 9.21242 83.491 6.77097 83.5125C6.09183 83.547 5.44708 83.3055 4.78084 83.2258C3.05721 82.525 1.41954 81.3283 0.699569 79.5495C-0.0676836 78.038 -0.0698323 76.2808 0.0720127 74.6442C2.4318 72.3112 4.81737 70.002 7.2137 67.7057C7.27817 69.9977 7.23948 72.2897 7.24163 74.5838C7.16856 75.539 7.88638 76.3627 8.66868 76.809C9.46817 77.1368 10.4009 77.1368 11.209 76.837C12.1568 76.4252 12.8381 75.4053 12.765 74.3553C12.7628 72.7748 12.765 71.1965 12.7628 69.616C12.7714 67.8868 12.1761 66.1834 11.209 64.7625C8.77184 61.0259 6.33469 57.2871 3.89968 53.5483C3.21624 52.4961 2.49412 51.4654 1.92245 50.3442C0.837116 48.2333 0.222454 45.8939 0.0333276 43.5307C0.00109011 41.5902 0.0333277 39.6518 0.0182835 37.7112C-0.0590865 35.609 0.916635 33.5024 2.53926 32.172Z" fill="white"/>
<path d="M27.6754 30.6229C31.8082 30.5992 35.9432 30.6207 40.0782 30.6121C42.7325 30.5798 45.3738 32.184 46.4247 34.6571C46.8675 35.6058 47.0695 36.6645 47.0351 37.7102C47.0201 43.6785 47.0372 49.6468 47.0265 55.6172C46.8653 57.6828 45.7714 59.7161 44.022 60.8545C43.1301 61.5402 42.0254 61.7989 40.9723 62.1159C38.8489 62.1224 36.7234 62.0771 34.6022 62.1439C34.6559 69.2614 34.5957 76.3811 34.628 83.4986C32.309 83.518 29.9879 83.5051 27.6689 83.5137C27.7033 65.8849 27.6904 48.2539 27.6754 30.6229ZM34.6237 37.1324C34.6344 43.3982 34.6537 49.6619 34.6129 55.9277C35.6531 56.0053 36.6997 55.9988 37.7421 55.9773C39.0574 55.9881 40.1921 54.7439 40.1728 53.4459C40.1728 48.849 40.1707 44.252 40.175 39.6551C40.2158 38.6201 39.4786 37.6714 38.5609 37.2617C37.2822 36.9448 35.9303 37.1518 34.6237 37.1324Z" fill="white"/>
<path d="M54.7725 30.6225C57.1215 30.6074 59.4705 30.6052 61.8196 30.6225C61.8282 47.4255 61.8325 64.2285 61.8174 81.0315C60.3173 82.4438 58.8881 83.9294 57.4052 85.359H54.7832C54.7746 67.1135 54.7961 48.868 54.7725 30.6225Z" fill="white"/>
<path d="M69.5592 30.6132C73.6297 30.6088 77.7002 30.6175 81.7708 30.611C84.0446 30.5355 86.3334 31.6589 87.6423 33.5305C88.5342 34.7983 88.9769 36.3744 88.9124 37.9226C88.9081 50.4262 88.9124 62.9276 88.9103 75.4313C89.0672 77.3546 88.5922 79.3318 87.4102 80.8756C86.9051 81.6044 86.155 82.083 85.4544 82.5962C85.0547 82.7859 84.6549 82.9735 84.2401 83.1223L84.2487 83.2581C83.8447 83.2431 83.4406 83.2905 83.0753 83.4608C78.5706 83.5816 74.0595 83.4824 69.5527 83.5083C69.5721 65.8773 69.5592 48.2463 69.5592 30.6132ZM76.4559 37.1011C76.4645 47.0755 76.4537 57.0521 76.458 67.0287C76.4859 70.3513 76.3935 73.6804 76.501 77.0009C77.61 76.9988 78.7232 77.1109 79.8301 77.0009C81.1002 76.8629 82.0845 75.6145 82.0308 74.3532C82.0265 62.781 82.0308 51.2089 82.0286 39.6367C82.0501 38.6794 81.414 37.8514 80.6381 37.362C79.3185 36.8272 77.8421 37.2089 76.4559 37.1011Z" fill="white"/>
<path d="M96.9395 30.6352C102.585 30.5856 108.229 30.6244 113.875 30.6157C113.86 32.7935 113.868 34.9712 113.86 37.1511C110.561 37.1511 107.26 37.177 103.959 37.1382C103.941 42.41 103.965 47.684 103.948 52.958C106.076 53.1261 108.214 53.0507 110.348 53.0593C110.202 53.4237 110.052 53.7859 109.942 54.1633L109.83 54.2215C109.716 54.56 109.596 54.8964 109.506 55.2413L109.394 55.2651C109.263 55.6596 109.123 56.0521 108.932 56.4208C108.923 56.4768 108.906 56.5911 108.897 56.6472C108.637 56.8563 108.71 57.2142 108.624 57.501C108.266 57.7554 108.276 58.2319 108.046 58.5769C108.046 58.6524 108.044 58.8055 108.044 58.8809L107.78 58.9133C107.795 59.0103 107.827 59.2044 107.842 59.2992C107.722 59.3187 107.479 59.3575 107.359 59.3769L107.498 59.5407C106.312 59.5192 105.126 59.5278 103.941 59.5343C103.963 65.2567 103.948 70.9792 103.946 76.6995C104.257 76.6866 104.571 76.6736 104.887 76.6607L104.846 76.8742C107.851 76.8849 110.857 76.8591 113.864 76.8893C113.838 79.0821 113.858 81.2727 113.858 83.4634L113.595 83.4418L113.69 83.6877C108.498 83.6467 103.307 83.679 98.115 83.6726C97.8421 83.6769 97.5864 83.5949 97.322 83.5583C97.0534 83.5432 96.9287 83.4117 96.9523 83.1615C96.9459 65.6535 96.9695 48.1432 96.9395 30.6352Z" fill="white"/>
<path d="M121.599 30.6208C125.736 30.6013 129.873 30.6208 134.01 30.6121C135.098 30.5949 136.176 30.8579 137.148 31.3474C139.467 32.3974 141.006 34.9374 140.941 37.4774C140.937 42.9432 140.933 48.4091 140.941 53.8729C141.034 56.3568 138.917 58.8385 136.428 58.955C138.167 59.3215 139.826 60.4082 140.522 62.0986C141.061 63.1573 140.922 64.3648 140.933 65.5119C140.928 72.127 140.935 78.7443 140.928 85.3594H138.485C136.899 84.1066 135.59 82.5305 134.096 81.1678C134.113 75.7386 134.094 70.3093 134.105 64.8779C134.253 63.4118 132.895 61.9585 131.412 62.1051C130.445 62.1073 129.477 62.0943 128.513 62.1439C128.555 69.2657 128.525 76.3854 128.528 83.5072C126.219 83.5245 123.913 83.5159 121.607 83.5137C121.603 65.8827 121.622 48.2517 121.599 30.6208ZM128.515 37.1259C128.555 43.4025 128.521 49.6813 128.53 55.9579C129.701 55.9536 130.879 56.0484 132.048 55.9428C133.013 55.8005 133.686 54.9811 134.055 54.1294C134.165 49.3061 134.075 44.4763 134.102 39.6486C134.161 39.1139 133.907 38.6395 133.63 38.204C132.469 38.2859 131.302 38.2385 130.142 38.2471C131.259 38.1673 132.426 38.3722 133.505 37.9948C133 37.5248 132.362 37.0763 131.642 37.0979C130.599 37.0936 129.557 37.0828 128.515 37.1259Z" fill="white"/>
<path d="M160.284 30.6157C163.446 30.6222 166.609 30.5855 169.771 30.6351C170.963 39.5444 172.236 48.4429 173.456 57.3479C173.785 60.1186 174.058 62.8979 174.406 65.6664L174.742 65.9144C175.012 64.584 174.933 63.1976 175.322 61.8888C175.346 61.1967 175.393 60.5067 175.419 59.8167L175.548 59.793C175.571 59.1246 175.588 58.454 175.704 57.7942C175.797 57.225 175.803 56.6428 175.967 56.0865C176.059 54.9998 176.207 53.9174 176.388 52.8437C176.446 51.8561 176.73 50.8945 176.708 49.9005L176.837 49.8789C176.856 49.3485 176.891 48.8181 176.981 48.2963C177.089 47.7961 177.076 47.2743 177.245 46.7891C177.314 46.2113 177.271 45.614 177.458 45.0577C177.559 43.9904 177.675 42.921 177.903 41.8752C177.957 41.3534 177.933 40.8187 178.101 40.3163C178.271 38.7315 178.498 37.1424 178.75 35.5728C178.847 33.9384 179.291 32.345 179.304 30.7041C179.882 30.5705 180.478 30.6136 181.067 30.6114C183.62 30.6136 186.173 30.6136 188.726 30.6114C188.703 48.2381 188.722 65.8626 188.705 83.4871C186.491 83.5367 184.275 83.5151 182.064 83.5022C182.072 70.4531 182.081 57.404 182.06 44.357C181.862 45.379 181.789 46.4161 181.763 47.4554C181.587 48.0764 181.58 48.7254 181.524 49.3636C181.297 50.1247 181.378 50.9311 181.239 51.7074C180.731 56.3302 179.9 60.9077 179.369 65.5262C178.999 67.4603 178.791 69.4246 178.516 71.3759C178.294 72.4303 178.21 73.5105 178.075 74.5778C177.594 77.5339 177.192 80.5051 176.794 83.4742C175.025 83.5496 173.254 83.4807 171.488 83.5151C171.258 82.4112 171.125 81.2921 171 80.1731C170.845 79.675 170.834 79.1532 170.804 78.64C170.587 77.5814 170.456 76.5033 170.366 75.4252C170.185 74.9314 170.205 74.3989 170.164 73.8835C170.018 73.3833 169.988 72.8637 169.943 72.3484C169.753 71.2789 169.62 70.1965 169.519 69.1141C169.388 68.6268 169.345 68.1223 169.3 67.622C169.119 67.0054 169.141 66.3564 169.07 65.7246C168.887 65.2244 168.911 64.6853 168.866 64.1635C168.659 63.1135 168.524 62.0462 168.43 60.9789C168.212 59.9137 168.101 58.8206 168.002 57.7339C167.806 57.2293 167.849 56.6773 167.823 56.1469L167.686 56.1361C167.669 55.6726 167.604 55.2111 167.499 54.7605C167.303 52.8544 167.091 50.9505 166.947 49.038L166.798 49.0272C166.794 48.3761 166.766 47.7249 166.757 47.0738L166.573 47.1147C166.581 46.276 166.586 45.4308 166.427 44.6049C166.353 57.5657 166.405 70.5285 166.384 83.4893C164.353 83.5281 162.322 83.5065 160.291 83.5065C160.28 65.8755 160.291 48.2467 160.284 30.6157Z" fill="white"/>
<path d="M201.651 30.7003C202.442 30.5451 203.252 30.6313 204.056 30.6141C205.857 30.6292 207.66 30.5818 209.463 30.64C211.743 48.2688 214.159 65.8825 216.459 83.5114C214.086 83.5243 211.711 83.5114 209.338 83.5243C209.042 82.858 209.164 82.1099 209.078 81.4048C208.874 79.9127 208.732 78.4056 208.644 76.8984C208.427 76.1955 208.494 75.4516 208.419 74.7293C208.165 73.9143 208.369 73.0345 208.103 72.226C208.055 70.9258 207.907 69.6343 207.686 68.3557C207.638 67.9007 207.604 67.4479 207.561 66.9973C207.477 67.2301 207.398 67.4652 207.318 67.7002C206.388 69.5415 205.822 71.5683 204.784 73.3493C204.054 73.1919 203.314 73.3299 202.579 73.317C202.489 73.3299 202.313 73.3515 202.222 73.3623C202.212 73.7741 202.19 74.1859 202.16 74.5999C201.791 77.0278 201.567 79.4815 201.288 81.9244C201.178 82.4354 201.146 82.9594 201.096 83.4812C198.964 83.5135 196.83 83.507 194.698 83.4941C194.713 83.3583 194.741 83.0866 194.756 82.9508C194.911 82.6015 194.9 82.2112 194.943 81.8403C195.098 81.2107 195.119 80.5639 195.169 79.9213C195.354 79.406 195.326 78.8519 195.373 78.3172C195.493 77.8471 195.562 77.3663 195.599 76.8833C195.738 76.3227 195.766 75.7448 195.809 75.1713C196.039 74.1126 196.069 73.013 196.248 71.9414C196.394 71.3786 196.415 70.7986 196.463 70.2229C196.699 69.2311 196.71 68.1875 196.893 67.1784C197.03 66.6199 197.056 66.0421 197.101 65.4707C197.342 64.8454 197.206 64.1533 197.393 63.5129C197.475 63.0191 197.501 62.5189 197.576 62.0251C197.714 61.0204 197.84 60.0156 197.961 59.0108C198.154 57.9392 198.311 56.8568 198.391 55.7701C198.612 55.1599 198.545 54.4958 198.629 53.8619C198.799 53.366 198.78 52.8356 198.868 52.3224C198.982 51.8286 198.994 51.3198 199.048 50.8174C199.272 49.6186 199.392 48.3895 199.502 47.1713C199.775 45.9962 199.783 44.7693 200.039 43.5899C200.099 42.5959 200.361 41.6256 200.344 40.623L200.486 40.6058C200.507 39.9438 200.501 39.269 200.686 38.6264C200.828 37.613 200.894 36.5824 201.114 35.5841C201.184 34.5038 201.343 33.43 201.545 32.3692C201.586 31.8129 201.631 31.2566 201.651 30.7003ZM205.541 44.7974C205.459 45.4572 205.438 46.1213 205.388 46.7854C205.175 47.402 205.244 48.0704 205.12 48.7043C204.432 54.7093 203.817 60.7207 203.074 66.717C204.582 66.8248 206.1 66.7881 207.613 66.7773C207.565 66.1607 207.613 65.5224 207.419 64.9273C207.368 64.3064 207.348 63.6854 207.353 63.0623L207.198 63.0235C207.196 62.7475 207.194 62.4715 207.191 62.1955C207.114 61.512 207.193 60.8069 206.998 60.1385C206.899 59.3644 207.004 58.5645 206.777 57.8098C206.691 57.0358 206.785 56.238 206.562 55.4833C206.458 54.6101 206.587 53.7045 206.342 52.8528C206.293 52.2081 206.347 51.544 206.143 50.923C205.835 48.8919 205.805 46.8328 205.541 44.7974Z" fill="white"/>
<path d="M222.434 30.626C224.624 30.611 226.816 30.5894 229.006 30.6368C231.716 41.1072 234.508 51.5581 237.162 62.0436C237.244 62.5654 237.366 63.0807 237.489 63.596C237.592 62.3648 237.465 61.1207 237.63 59.896C237.4 58.9171 237.583 57.8886 237.525 56.8903C237.514 48.1428 237.547 39.3973 237.51 30.6498C239.397 30.5657 241.288 30.6347 243.177 30.6088C243.427 30.6325 244.026 30.5269 243.854 31.0012C243.689 33.6662 243.867 36.3399 243.79 39.0049C243.798 42.0214 243.768 45.04 243.798 48.0565C243.779 59.8658 243.777 71.673 243.788 83.4823C241.937 83.4953 240.08 83.5621 238.236 83.45C238.105 82.8657 237.951 82.2878 237.777 81.7164C237.708 81.49 237.63 81.2658 237.547 81.048C237.499 80.8281 237.456 80.6082 237.418 80.3926C237.308 80.1144 237.218 79.8384 237.119 79.5624C237.001 79.0514 236.844 78.5512 236.695 78.0509C236.627 77.8289 236.558 77.6089 236.487 77.3912C236.407 77.1044 236.347 76.8176 236.236 76.5459C236.212 76.423 236.167 76.1794 236.145 76.0565C236.034 75.7827 235.939 75.5067 235.838 75.2328C235.767 74.9482 235.713 74.6636 235.621 74.3898C235.554 74.1634 235.488 73.9391 235.421 73.7171C235.335 73.4411 235.264 73.1651 235.178 72.8934C235.12 72.6627 235.049 72.4363 234.965 72.2164C234.937 72.0935 234.884 71.8477 234.856 71.7226C234.735 71.3927 234.641 71.0585 234.531 70.7265C234.475 70.5001 234.411 70.2758 234.34 70.0559C234.258 69.7777 234.198 69.4996 234.114 69.2236C234.043 69.0015 233.972 68.7794 233.902 68.5595C233.837 68.3288 233.764 68.1024 233.682 67.8803C233.633 67.6625 233.59 67.4469 233.553 67.2313C233.442 66.9553 233.349 66.6793 233.248 66.4033C233.179 66.1144 233.121 65.8276 233.01 65.556C232.986 65.4331 232.943 65.1873 232.919 65.0622C232.805 64.7884 232.713 64.5124 232.608 64.2385C232.541 63.9539 232.49 63.6715 232.399 63.3976C232.331 63.1777 232.26 62.9599 232.191 62.7422C232.122 62.5071 232.047 62.2764 231.967 62.0479C231.918 61.8323 231.875 61.6166 231.838 61.4032C231.727 61.1293 231.636 60.8512 231.535 60.5774C231.464 60.2906 231.409 60.006 231.318 59.73C231.254 59.5058 231.187 59.2837 231.116 59.0637C231.032 58.7878 230.964 58.5139 230.88 58.2422C230.815 58.0094 230.747 57.7808 230.673 57.5544C230.605 57.2698 230.555 56.9852 230.459 56.7135C230.246 55.7497 229.865 54.8377 229.633 53.8782C229.549 53.6 229.481 53.3219 229.393 53.048C229.371 52.9057 229.332 52.619 229.311 52.4767L229.143 52.4831C229.107 51.916 229.012 51.3554 228.89 50.8035C228.741 57.6428 228.857 64.4887 228.821 71.3323C228.776 74.2087 228.905 77.0958 228.759 79.9678C228.898 81.0782 228.769 82.2016 228.842 83.3163C228.567 83.3724 228.017 83.4866 227.742 83.5427L228.492 83.7691C227.308 83.5815 226.102 83.7131 224.912 83.6699C224.084 83.6182 223.209 83.8381 222.438 83.4565C222.451 65.8449 222.459 48.2355 222.434 30.626Z" fill="white"/>
<path d="M265.689 32.2611C267.237 30.7841 269.545 30.7971 271.546 30.7432C273.873 30.8014 276.373 30.5081 278.524 31.5927C279.637 32.6772 279.717 34.3892 279.934 35.8447C280.035 38.4752 279.99 41.11 279.985 43.7405C279.992 48.1693 279.399 52.7016 277.473 56.7336C275.709 60.6104 273.143 64.0365 271.002 67.6999C269.749 69.9294 268.894 72.4219 268.801 74.9942C268.778 75.9968 268.782 77.0016 268.812 78.0064C269.132 78.0603 269.459 78.0969 269.79 78.1271C269.783 78.3772 269.781 78.6295 269.783 78.8818C273.186 78.8818 276.59 78.8839 279.992 78.8796C279.985 80.4773 280.016 82.0729 279.975 83.6685C274.49 83.7353 269.003 83.6728 263.519 83.6986C263.531 81.2385 263.506 78.7804 263.531 76.3202C263.562 73.6121 264.056 70.8802 265.203 68.4157C267.069 64.2349 270.058 60.7074 272.186 56.6754C273.289 54.5516 274.056 52.2552 274.406 49.8856C274.901 47.0028 274.804 44.0683 274.815 41.1575C274.81 40.1354 274.843 39.1113 274.714 38.0957C274.623 37.7162 274.563 37.2699 274.232 37.0219C273.768 36.7308 273.652 36.1271 273.179 35.8554C272.094 35.5514 270.918 35.5557 269.835 35.8533C269.341 36.0301 269.212 36.6058 269.158 37.065C268.977 38.4903 269.089 39.9349 268.952 41.3623C268.848 41.6059 268.629 41.7676 268.459 41.9552C267.03 43.3266 265.625 44.7238 264.189 46.0865C264.232 42.9277 264.11 39.7646 264.275 36.6079C264.436 35.0943 264.645 33.447 265.689 32.2611Z" fill="white"/>
<path d="M146.292 55.9893C149.198 55.9979 152.101 55.9849 155.007 55.9979C154.97 57.8198 155.048 59.6461 154.953 61.4681C152.067 61.4789 149.18 61.4767 146.294 61.4702C146.292 59.644 146.296 57.8177 146.292 55.9893Z" fill="white"/>
</svg>
