<?xml version="1.0" encoding="UTF-8" ?>
<!DOCTYPE svg PUBLIC "-//W3C//DTD SVG 1.1//EN" "http://www.w3.org/Graphics/SVG/1.1/DTD/svg11.dtd">
<svg width="582pt" height="347pt" viewBox="0 0 582 347" version="1.1" xmlns="http://www.w3.org/2000/svg">
<g id="#d9d9d9ff">
<path fill="#d9d9d9" opacity="1.00" d=" M 329.21 0.00 L 331.59 0.00 C 334.72 0.61 337.83 1.30 340.96 1.93 C 349.74 3.99 357.32 9.18 364.00 15.05 C 366.45 18.37 368.06 22.24 370.47 25.61 C 372.45 29.14 375.91 31.43 378.32 34.60 C 380.82 37.77 381.42 42.10 380.84 46.00 C 379.01 47.57 376.75 46.16 375.52 44.58 C 373.45 42.05 371.37 39.53 369.25 37.04 C 365.66 38.92 362.34 41.26 359.11 43.68 C 361.64 46.21 364.91 48.20 366.42 51.59 C 367.83 55.04 370.73 57.59 372.11 61.05 C 374.69 66.70 377.34 72.85 376.37 79.19 C 374.15 76.40 373.47 72.74 371.14 70.03 C 369.18 67.82 368.19 65.03 367.11 62.33 C 363.27 61.44 360.45 58.57 357.78 55.86 C 357.41 56.62 356.66 58.12 356.28 58.88 C 359.01 63.03 359.74 68.13 362.84 72.04 C 365.42 77.55 368.49 83.15 368.50 89.42 C 366.38 85.71 363.90 82.27 361.06 79.09 C 355.15 72.10 351.54 63.44 345.17 56.82 C 341.40 53.90 339.13 49.41 334.88 47.08 C 331.33 44.58 327.07 43.47 322.99 42.16 C 319.29 41.00 315.18 41.36 311.78 39.28 C 304.32 34.75 295.27 35.69 287.07 33.70 C 284.70 35.66 282.28 37.72 279.20 38.42 C 269.10 41.49 259.44 45.72 249.78 49.96 C 247.74 51.06 245.97 52.60 243.93 53.71 C 244.46 50.48 247.17 48.45 249.20 46.14 C 250.67 45.75 252.14 45.35 253.61 44.94 C 253.76 44.29 254.05 42.99 254.19 42.34 C 263.81 39.06 274.93 36.38 280.65 27.12 C 274.50 25.67 268.79 29.16 263.14 31.01 C 258.74 33.86 254.63 37.91 248.95 37.63 C 250.57 34.66 252.77 32.09 255.17 29.73 C 255.62 29.67 256.54 29.55 257.00 29.49 C 258.00 27.99 258.78 26.15 260.58 25.43 C 264.95 23.27 269.73 22.04 274.08 19.80 C 273.68 19.32 272.88 18.37 272.48 17.90 C 272.54 17.25 272.65 15.97 272.71 15.32 C 270.25 12.71 268.37 9.64 266.88 6.39 C 270.26 4.85 273.13 7.50 275.80 9.24 C 278.74 11.76 279.82 15.91 283.08 18.14 C 290.48 17.57 297.74 19.36 305.10 19.81 C 307.28 19.93 308.91 21.48 310.54 22.75 C 317.86 23.94 325.41 24.66 332.24 27.72 C 336.00 29.20 340.32 29.70 343.34 32.63 C 345.46 34.61 347.85 36.95 351.05 36.50 C 353.86 35.64 356.54 34.33 359.51 33.97 C 359.25 33.23 358.73 31.74 358.47 31.00 C 360.55 31.38 362.62 31.79 364.70 32.16 C 363.94 30.25 363.12 28.37 362.21 26.53 C 361.65 27.14 360.52 28.34 359.96 28.95 C 358.27 24.68 355.22 21.16 351.23 18.86 C 349.62 21.48 346.65 26.91 343.08 23.94 C 343.67 21.85 344.73 19.95 345.62 17.98 C 343.57 17.18 341.48 16.47 339.38 15.84 C 337.38 18.75 335.54 21.78 333.19 24.42 C 332.10 23.21 330.93 22.05 330.04 20.68 C 329.91 18.77 331.30 17.26 332.12 15.67 C 332.70 15.47 333.86 15.07 334.44 14.87 C 331.06 14.01 327.62 13.49 324.17 12.98 C 324.05 14.34 323.93 15.70 323.81 17.06 C 322.24 17.58 320.32 20.03 318.88 18.16 C 316.59 16.71 318.73 14.38 319.56 12.77 C 314.69 11.50 307.92 15.30 304.85 9.80 C 303.31 8.16 306.96 7.52 308.05 7.45 C 315.76 7.02 323.32 9.14 331.02 9.04 C 336.15 9.66 341.47 10.39 346.06 12.96 C 349.79 15.11 353.97 16.28 357.95 17.89 C 355.84 12.95 351.13 9.58 346.07 8.19 C 340.43 6.81 334.71 5.80 328.98 4.92 C 326.95 4.78 325.63 3.04 324.15 1.88 C 325.72 1.00 327.37 0.15 329.21 0.00 Z" />
<path fill="#d9d9d9" opacity="1.00" d=" M 214.85 53.84 C 218.39 53.31 222.44 52.59 225.78 54.27 C 227.43 55.89 227.48 58.64 226.49 60.64 C 224.92 63.97 224.20 67.67 222.18 70.77 C 219.69 70.32 217.16 70.11 214.64 70.21 C 220.84 81.59 217.95 94.89 216.66 107.10 C 216.92 113.08 216.70 119.29 218.91 124.96 C 220.21 129.09 220.22 133.66 222.68 137.39 C 222.64 138.05 222.57 139.38 222.54 140.04 C 218.20 135.34 215.92 129.19 214.47 123.07 C 213.85 116.25 212.82 109.45 210.43 103.00 C 208.80 110.48 207.65 118.34 209.89 125.83 C 212.04 132.49 214.47 139.32 219.30 144.55 C 222.82 148.16 224.92 152.84 228.34 156.53 C 231.69 160.26 233.96 164.93 237.89 168.14 C 240.54 170.54 243.87 172.05 246.29 174.72 C 250.60 178.95 257.06 180.91 259.80 186.60 C 255.14 186.01 251.30 183.21 247.07 181.44 C 245.25 180.51 243.91 178.89 242.26 177.71 C 240.22 175.96 237.37 175.49 235.49 173.52 C 232.15 170.51 229.72 166.68 226.56 163.49 C 224.17 160.84 221.02 159.05 218.49 156.54 C 215.52 153.95 213.05 150.70 209.41 148.99 C 211.04 152.16 213.28 155.02 214.44 158.43 C 216.05 163.44 220.61 166.47 223.63 170.54 C 224.75 171.96 225.53 173.70 227.03 174.80 C 229.81 176.76 230.94 180.29 233.85 182.13 C 240.32 186.31 247.37 189.48 254.33 192.75 C 258.13 194.74 261.59 197.31 265.26 199.52 C 263.70 199.50 261.97 200.36 260.49 199.72 C 252.50 194.41 242.43 193.15 234.84 187.19 C 229.18 185.48 225.15 181.00 221.08 176.98 C 218.97 173.78 216.49 170.91 213.52 168.48 C 205.79 159.17 198.15 148.58 197.34 136.07 C 196.20 128.02 198.81 120.08 198.09 112.03 C 197.80 108.02 198.51 104.02 198.07 100.01 C 198.10 96.26 199.00 92.52 198.08 88.78 C 196.85 91.22 195.45 93.60 194.44 96.14 C 193.80 101.80 194.23 107.57 193.09 113.19 C 191.75 118.84 192.52 124.71 191.58 130.43 C 188.48 120.96 188.52 110.91 188.55 101.07 C 189.20 96.48 189.49 91.71 191.43 87.42 C 193.59 82.52 195.06 77.29 197.78 72.65 C 201.03 68.89 207.00 70.63 210.68 67.65 C 215.01 64.11 209.95 56.88 214.85 53.84 Z" />
<path fill="#d9d9d9" opacity="1.00" d=" M 277.82 53.87 C 287.92 51.82 298.11 54.15 308.18 55.21 C 311.17 55.44 313.53 57.40 316.01 58.86 C 318.97 60.63 322.62 60.09 325.76 61.28 C 329.60 63.72 333.26 66.42 336.07 70.05 C 341.40 74.82 345.95 80.86 347.13 88.09 C 345.26 86.44 343.61 84.57 341.81 82.85 C 341.71 84.35 342.16 85.76 343.34 86.74 C 345.76 89.00 346.19 92.40 346.75 95.48 C 347.89 99.75 349.21 103.96 350.47 108.18 C 351.41 110.93 349.50 113.43 348.55 115.88 C 349.23 119.60 350.91 124.02 348.25 127.35 C 346.27 131.33 346.42 136.20 343.96 140.02 C 341.74 143.03 340.33 146.63 337.41 149.09 C 338.31 151.85 335.56 154.24 333.41 155.52 C 328.55 158.16 324.20 161.63 319.25 164.08 C 317.26 165.56 315.20 166.99 312.82 167.74 C 307.80 169.83 302.14 168.73 297.09 170.78 C 291.05 171.19 284.88 171.09 278.86 170.30 C 278.85 170.85 278.82 171.96 278.81 172.52 C 274.26 169.56 268.86 167.78 265.05 163.78 C 260.85 163.70 256.84 162.10 253.39 159.78 C 250.19 157.59 245.99 156.56 243.90 153.03 C 242.39 150.55 240.55 148.25 239.36 145.59 C 242.37 146.79 244.98 148.93 248.27 149.41 C 246.27 146.52 244.65 143.37 242.62 140.51 C 241.29 139.92 239.82 139.78 238.44 139.34 C 236.97 136.25 234.81 133.55 233.64 130.31 C 234.14 129.82 235.14 128.85 235.64 128.36 C 235.31 124.17 232.41 120.90 231.65 116.87 C 231.73 112.04 230.85 106.91 233.25 102.47 C 233.76 99.48 233.56 96.36 234.59 93.43 L 233.02 94.11 C 233.77 89.72 234.19 84.93 237.43 81.54 C 242.98 75.11 247.73 67.67 254.97 62.97 C 258.89 61.10 262.57 58.40 267.01 57.93 C 270.95 57.55 274.00 54.65 277.82 53.87 M 280.92 63.91 C 276.82 66.72 271.54 66.01 267.25 68.22 C 263.78 70.79 259.47 72.03 256.48 75.26 C 258.44 79.71 252.16 79.68 249.79 81.74 C 246.46 86.37 243.67 91.38 241.87 96.82 C 239.47 101.50 240.55 106.84 240.13 111.87 C 238.25 122.47 244.61 131.92 248.84 141.13 C 250.28 145.09 254.42 146.83 257.07 149.83 C 261.08 154.83 267.41 157.28 273.48 158.72 C 279.28 162.16 286.31 161.89 292.82 162.69 C 292.62 163.03 292.22 163.72 292.02 164.06 C 296.58 164.79 300.51 161.94 304.91 161.41 C 308.69 160.82 312.54 159.93 315.73 157.73 C 322.06 153.14 328.89 148.98 333.63 142.61 C 333.62 142.10 333.60 141.08 333.59 140.57 C 342.47 133.99 341.66 121.87 343.43 112.12 C 344.69 108.19 342.06 104.70 341.69 100.91 C 341.68 96.33 338.28 92.82 337.40 88.43 C 336.10 82.79 330.67 79.84 327.75 75.19 C 325.34 71.61 321.25 69.78 317.98 67.12 C 315.52 64.87 311.97 65.59 308.94 65.21 C 306.03 65.31 303.88 63.07 301.22 62.34 C 294.39 61.52 287.62 63.06 280.92 63.91 Z" />
<path fill="#d9d9d9" opacity="1.00" d=" M 261.41 88.45 C 264.73 83.10 268.90 76.88 275.78 76.27 C 272.99 79.98 268.82 82.77 267.35 87.35 C 269.97 85.32 271.98 82.55 274.87 80.84 C 277.59 79.05 280.87 78.30 283.47 76.29 C 289.25 74.28 295.10 76.90 300.97 76.80 C 306.81 77.78 310.54 83.07 316.12 84.68 C 317.84 84.91 318.59 86.36 318.93 87.90 C 321.65 91.89 324.97 95.60 326.88 100.08 C 327.61 104.01 328.00 108.06 327.91 112.07 C 327.13 117.81 327.34 123.80 325.11 129.24 C 323.59 132.56 321.06 135.35 319.90 138.86 C 318.59 142.90 315.00 145.48 311.80 147.98 C 309.22 149.94 305.83 149.44 302.81 149.47 C 305.96 147.51 308.87 145.11 310.85 141.92 C 306.46 143.04 302.76 146.04 298.20 146.55 C 294.20 147.41 290.10 146.84 286.07 147.35 C 281.68 146.67 277.42 144.96 274.15 141.90 C 267.50 139.27 260.42 135.30 257.96 128.11 C 253.35 121.14 252.06 112.10 254.45 104.07 C 256.16 98.64 257.65 92.89 261.41 88.45 M 280.53 86.36 C 276.07 90.28 272.35 94.94 267.54 98.45 C 264.19 102.71 261.70 108.34 263.23 113.81 C 264.18 117.81 264.17 122.12 266.15 125.82 C 269.05 128.99 272.78 131.40 276.78 132.98 C 278.34 133.52 271.61 132.71 273.81 133.85 C 278.75 135.85 283.62 138.43 289.00 139.00 C 293.78 137.68 299.30 138.72 303.43 135.50 C 304.80 134.40 306.47 133.83 308.08 133.17 C 308.15 129.68 312.38 128.74 313.68 125.83 C 314.99 123.12 316.96 120.77 318.15 118.01 C 318.51 113.65 318.82 109.18 317.78 104.89 C 316.99 100.42 313.17 97.38 309.70 94.88 C 308.10 92.65 306.91 89.99 304.63 88.36 C 297.17 84.51 288.56 85.69 280.53 86.36 Z" />
<path fill="#d9d9d9" opacity="1.00" d=" M 373.78 104.83 C 375.13 101.79 371.40 98.36 374.11 95.69 C 375.52 98.61 377.19 101.38 379.20 103.93 C 378.74 108.72 375.45 112.37 373.25 116.43 C 371.76 119.04 370.42 121.73 369.12 124.44 C 370.40 130.03 373.29 135.34 373.23 141.17 C 370.96 146.58 364.58 147.92 359.58 149.56 C 358.51 154.21 360.63 159.10 360.59 163.84 C 360.58 166.26 358.25 167.27 356.47 168.28 C 353.63 169.86 350.42 170.53 347.42 171.69 C 344.26 174.56 341.41 177.78 338.01 180.38 C 343.93 179.27 349.78 177.02 355.88 177.63 C 360.60 176.17 363.00 170.99 364.32 166.58 C 364.64 162.67 364.86 158.75 365.33 154.85 C 366.97 153.20 369.06 154.19 371.03 154.48 C 373.83 153.43 376.00 151.18 378.34 149.38 C 378.20 148.52 377.92 146.79 377.78 145.93 C 378.25 145.00 378.72 144.08 379.20 143.16 C 378.50 141.10 377.98 138.95 376.86 137.07 C 375.60 134.97 376.70 132.33 375.62 130.15 C 375.04 128.18 373.33 125.94 375.01 124.05 C 377.76 120.40 381.84 118.05 384.87 114.65 C 385.18 119.25 382.11 122.83 381.08 127.04 C 383.03 133.83 384.30 140.87 384.17 147.98 C 383.10 151.12 380.75 153.59 379.45 156.61 C 378.23 160.02 374.07 160.56 370.95 160.06 C 370.52 164.04 371.04 168.02 371.07 172.01 C 366.88 178.13 359.08 178.89 353.11 182.47 C 350.35 184.20 346.48 183.01 344.53 186.13 C 346.17 186.25 347.82 186.29 349.48 186.27 C 349.01 187.82 348.67 189.40 348.50 191.01 C 344.07 192.32 339.87 194.48 336.88 198.09 C 330.74 198.70 324.52 200.78 319.88 204.89 C 317.87 206.70 317.09 211.72 313.58 210.42 C 309.64 207.23 304.37 206.77 300.36 203.71 C 297.27 201.11 291.98 204.33 289.72 200.20 C 289.16 197.11 288.87 193.94 287.23 191.17 C 287.93 189.84 288.56 188.47 289.41 187.23 C 294.22 184.48 299.88 183.95 304.85 181.56 C 308.94 179.69 313.49 178.91 317.97 178.76 C 318.31 179.30 319.00 180.37 319.35 180.90 C 318.01 181.21 316.67 181.52 315.33 181.82 C 316.10 184.26 317.93 187.51 321.04 186.37 C 325.54 185.57 326.66 180.55 328.43 177.07 C 329.55 173.87 333.10 172.64 334.86 169.87 C 337.07 166.57 341.52 166.40 345.11 166.42 C 347.24 166.46 350.16 166.49 351.07 164.09 C 354.13 157.12 353.59 149.34 354.43 141.95 C 357.01 140.96 359.68 141.15 362.27 142.03 C 364.30 140.61 366.66 138.79 366.35 135.97 C 365.50 132.24 362.51 129.51 361.26 126.00 C 364.46 118.44 369.15 111.58 373.78 104.83 M 303.16 188.14 C 300.96 188.74 300.05 192.35 302.99 192.52 C 305.60 192.36 310.26 191.61 310.15 188.26 C 307.85 188.08 305.37 187.18 303.16 188.14 M 293.82 191.70 C 291.77 192.57 292.44 196.27 294.89 195.87 C 297.36 196.66 298.72 194.60 299.82 192.81 C 298.29 191.06 295.87 190.61 293.82 191.70 M 300.84 195.96 C 303.03 198.25 308.79 201.62 310.28 197.28 C 307.47 195.44 304.02 194.30 300.84 195.96 Z" />
<path fill="#d9d9d9" opacity="1.00" d=" M 170.04 252.03 C 171.26 251.27 172.36 250.00 173.94 250.26 C 181.94 250.33 189.98 250.00 197.93 250.85 C 206.21 248.79 214.67 250.80 223.01 249.82 C 225.65 249.78 228.25 250.63 230.90 250.29 C 238.89 249.37 246.95 249.58 254.97 249.87 C 282.34 250.20 309.70 250.32 337.07 250.26 C 343.71 250.63 350.42 249.73 356.96 251.23 C 367.89 249.43 378.96 251.89 389.97 251.20 C 395.66 251.57 401.43 250.76 407.03 252.15 C 408.90 252.81 410.72 252.06 412.47 251.41 C 412.32 251.85 412.04 252.74 411.90 253.19 C 408.94 253.02 405.97 252.89 403.06 252.31 C 398.79 253.39 394.35 252.90 390.00 253.17 C 378.77 252.85 367.51 253.40 356.30 252.80 C 351.58 254.09 346.72 252.96 341.92 253.32 C 325.28 254.10 308.61 252.31 291.99 253.64 C 260.33 255.76 228.62 253.54 196.93 253.62 C 190.21 251.94 183.33 255.55 176.72 253.26 C 174.52 252.72 172.27 252.43 170.04 252.03 Z" />
<path fill="#d9d9d9" opacity="1.00" d=" M 140.96 253.11 C 146.73 251.18 153.03 249.77 159.04 251.37 C 162.17 252.05 165.45 251.32 168.52 252.33 C 164.59 253.24 160.47 251.09 156.90 253.55 C 151.60 253.12 146.28 253.26 140.96 253.11 Z" />
<path fill="#d9d9d9" opacity="1.00" d=" M 413.57 252.72 C 416.14 252.48 419.50 250.09 421.66 252.53 C 419.08 253.82 416.23 253.46 413.57 252.72 Z" />
<path fill="#d9d9d9" opacity="1.00" d=" M 424.85 251.63 C 427.78 251.72 430.71 252.09 433.60 252.70 C 430.64 252.83 427.69 252.42 424.85 251.63 Z" />
<path fill="#d9d9d9" opacity="1.00" d=" M 132.50 252.38 C 133.86 251.82 135.69 251.48 137.00 252.30 C 136.62 253.74 132.81 253.65 132.50 252.38 Z" />
<path fill="#d9d9d9" opacity="1.00" d=" M 526.87 262.38 C 528.44 261.62 530.00 260.85 531.59 260.11 C 532.37 262.53 532.90 265.01 533.26 267.53 C 538.84 267.45 544.60 266.75 550.05 268.35 C 556.25 270.31 562.28 272.74 568.41 274.89 C 574.58 278.67 578.47 285.27 579.85 292.28 C 582.35 297.67 581.61 303.64 582.00 309.40 L 582.00 310.59 C 581.11 314.60 581.00 319.00 578.45 322.42 C 574.56 328.33 569.51 333.73 563.30 337.19 C 554.70 340.10 545.49 341.89 536.38 341.08 C 537.14 340.28 537.92 339.49 538.72 338.71 C 540.69 336.32 544.51 338.02 546.68 336.03 C 547.77 335.26 548.49 333.66 550.02 333.73 C 556.37 333.30 562.64 330.45 566.75 325.53 C 569.04 322.87 572.01 320.64 573.19 317.21 C 575.38 313.13 574.34 308.40 574.58 304.00 C 574.82 297.82 572.69 291.76 569.37 286.62 C 566.74 282.79 562.36 280.88 558.43 278.72 C 552.78 275.63 546.17 276.36 539.99 276.00 C 537.45 276.16 534.62 275.62 532.33 276.93 C 531.50 281.35 532.83 285.75 532.59 290.17 C 532.99 295.46 532.26 300.75 532.12 306.05 C 530.92 317.59 531.10 329.24 531.67 340.79 C 531.50 342.15 531.32 343.51 531.14 344.87 C 529.38 345.36 527.64 345.93 525.86 346.30 C 524.56 343.75 524.26 340.84 524.29 338.02 C 524.46 325.35 524.55 312.67 524.76 299.99 C 524.77 295.58 524.78 291.14 524.11 286.77 C 524.50 286.46 525.28 285.84 525.66 285.52 C 525.44 282.69 525.51 279.85 525.16 277.03 C 524.19 276.28 523.19 275.60 522.14 274.98 C 521.98 272.89 521.86 270.80 521.77 268.72 C 523.41 268.45 525.06 268.22 526.72 268.01 C 526.76 266.13 526.81 264.25 526.87 262.38 Z" />
<path fill="#d9d9d9" opacity="1.00" d=" M 9.60 266.36 C 9.90 265.97 10.49 265.21 10.79 264.82 C 16.04 266.74 21.55 265.15 26.93 265.05 C 32.30 264.94 37.67 265.24 43.04 265.29 C 46.43 265.45 49.97 265.11 53.16 266.52 C 50.85 266.91 48.52 267.12 46.19 267.36 C 47.68 267.85 49.20 268.26 50.66 268.83 C 50.06 270.10 49.37 271.32 48.71 272.56 C 39.11 274.02 29.35 273.22 19.71 274.41 C 18.69 275.62 17.66 276.82 16.61 278.01 C 16.72 284.26 16.54 290.53 16.95 296.76 C 20.61 296.49 24.28 296.03 27.96 296.39 C 36.01 297.00 44.09 296.26 52.14 296.87 C 50.45 299.35 48.89 301.94 48.29 304.92 C 45.03 305.28 41.69 305.51 38.48 304.70 C 32.02 303.14 25.53 305.39 19.03 305.38 C 16.75 305.30 16.42 308.19 16.43 309.91 C 16.63 318.12 16.13 326.35 16.73 334.55 C 26.80 335.63 36.92 334.47 47.02 334.53 C 48.61 334.48 50.00 335.38 51.46 335.88 C 50.73 337.82 50.15 339.99 48.53 341.41 C 43.37 341.80 38.07 341.99 33.00 340.79 C 29.61 339.95 26.39 341.79 23.02 341.74 C 17.98 341.86 12.94 341.62 7.90 341.59 C 7.93 340.52 7.96 339.45 8.00 338.39 C 5.38 338.15 2.76 337.88 0.15 337.53 C 1.36 336.85 2.59 336.21 3.83 335.59 C 4.04 334.18 4.26 332.78 4.48 331.39 C 4.36 327.47 4.10 323.43 5.28 319.63 C 5.10 314.39 5.26 309.10 6.57 304.01 C 4.72 303.94 2.88 303.87 1.03 303.80 C 0.79 303.11 0.33 301.71 0.10 301.02 C 2.18 300.10 4.38 299.37 6.27 298.08 C 6.41 292.69 6.89 287.32 6.76 281.93 C 6.78 279.09 7.08 276.26 7.66 273.49 C 4.97 272.58 2.34 271.46 0.00 269.83 L 0.00 268.68 C 2.73 266.56 6.34 266.72 9.60 266.36 Z" />
<path fill="#d9d9d9" opacity="1.00" d=" M 335.30 274.12 C 335.47 272.90 335.67 271.69 335.90 270.49 C 337.26 271.29 338.42 272.39 339.50 273.54 C 338.10 273.75 336.70 273.94 335.30 274.12 Z" />
<path fill="#d9d9d9" opacity="1.00" d=" M 122.31 273.14 C 124.41 272.95 126.51 272.64 128.61 272.44 C 127.57 278.85 125.46 284.97 122.83 290.89 C 118.70 300.17 117.78 310.72 112.26 319.40 C 109.93 324.17 107.05 328.63 104.18 333.08 C 103.19 333.13 101.21 333.23 100.22 333.27 C 100.33 331.74 100.48 330.22 100.65 328.71 C 99.64 327.68 98.76 326.53 98.38 325.12 C 95.86 318.56 93.24 312.01 91.70 305.15 C 89.37 299.89 88.54 294.16 86.27 288.89 C 85.05 284.42 84.23 279.84 83.47 275.28 C 84.17 275.20 85.57 275.04 86.27 274.96 C 86.87 276.75 88.47 277.52 90.11 278.13 C 94.99 291.46 99.66 304.88 104.68 318.16 C 107.50 310.73 110.07 303.20 112.85 295.76 C 113.23 294.53 114.44 293.91 115.30 293.08 C 114.26 289.19 116.64 285.73 117.65 282.13 C 118.49 278.78 120.93 276.24 122.31 273.14 Z" />
<path fill="#d9d9d9" opacity="1.00" d=" M 291.36 275.86 C 290.05 275.60 289.76 272.91 291.27 272.80 C 292.59 273.12 293.05 275.80 291.36 275.86 Z" />
<path fill="#d9d9d9" opacity="1.00" d=" M 294.58 272.07 C 297.54 272.64 298.77 275.55 300.70 277.51 C 303.49 280.11 304.03 284.07 305.36 287.48 C 307.51 295.10 310.66 302.43 312.36 310.17 C 313.51 307.10 314.63 304.00 316.14 301.08 C 318.49 296.63 319.78 291.71 322.19 287.29 C 322.75 287.17 323.85 286.93 324.41 286.82 C 325.98 283.60 326.36 279.53 329.26 277.15 C 329.70 278.19 330.58 280.26 331.03 281.30 C 332.55 279.52 331.07 277.36 331.85 275.39 C 332.53 276.41 333.17 277.49 333.88 278.51 L 332.54 278.27 C 331.98 286.46 336.42 293.69 338.31 301.44 C 339.10 305.60 341.43 309.19 343.45 312.83 C 345.73 303.48 348.51 294.18 352.59 285.45 C 353.68 282.06 355.23 278.81 357.40 275.98 C 359.03 276.38 360.57 277.05 362.14 277.67 C 361.15 277.50 360.17 277.32 359.20 277.12 C 357.66 282.59 356.38 288.14 357.53 293.83 C 355.02 302.33 351.45 310.49 349.22 319.07 C 348.40 321.50 350.14 325.54 346.95 326.57 C 344.76 327.00 344.26 329.07 343.69 330.90 C 342.62 330.90 341.55 330.89 340.49 330.89 C 338.57 324.78 337.35 318.33 333.95 312.82 C 331.83 308.86 330.46 304.55 328.43 300.57 C 328.10 299.06 327.78 297.56 327.45 296.06 C 324.97 300.87 324.94 306.91 321.14 310.99 C 320.42 313.00 319.72 315.02 318.98 317.03 C 319.37 317.15 320.17 317.39 320.56 317.51 C 319.33 321.42 318.31 325.52 315.99 328.96 C 315.32 330.29 313.95 330.62 312.60 330.86 C 312.15 328.09 311.24 324.88 307.87 324.69 C 309.27 321.11 308.61 316.19 305.19 314.04 C 304.48 310.83 303.98 307.55 302.62 304.53 C 300.62 300.12 300.53 294.96 297.58 290.97 C 298.37 284.46 294.37 278.59 294.58 272.07 Z" />
<path fill="#d9d9d9" opacity="1.00" d=" M 511.84 275.27 C 508.86 273.64 513.50 270.82 513.66 274.11 C 513.41 274.42 512.93 275.05 512.69 275.37 L 511.84 275.27 Z" />
<path fill="#d9d9d9" opacity="1.00" d=" M 515.77 276.06 C 516.23 274.78 516.70 273.51 517.23 272.26 C 517.43 273.89 517.65 275.51 517.91 277.14 C 517.37 276.87 516.30 276.33 515.77 276.06 Z" />
<path fill="#d9d9d9" opacity="1.00" d=" M 456.65 284.04 C 457.15 280.69 457.28 277.28 458.09 273.99 C 459.91 274.02 461.72 273.84 463.52 273.47 C 463.87 274.97 464.53 276.42 464.58 277.99 C 464.77 287.00 465.21 296.01 465.37 305.02 C 465.32 306.81 464.82 308.55 464.47 310.30 C 465.49 313.76 465.64 317.36 465.50 320.95 C 472.87 322.03 480.90 319.21 487.71 323.08 C 487.82 324.35 487.87 325.63 487.87 326.91 C 488.55 327.09 489.92 327.45 490.60 327.64 C 489.62 328.67 488.57 329.88 487.03 329.95 C 482.38 330.27 477.69 330.32 473.03 330.12 C 470.35 330.49 468.74 327.19 465.99 328.17 C 461.44 329.06 456.73 328.94 452.65 326.52 C 452.22 323.77 454.48 322.71 456.76 322.22 C 456.34 317.13 457.45 312.07 456.90 306.98 C 456.59 301.95 455.64 296.60 457.78 291.83 C 458.84 289.17 456.06 286.78 456.65 284.04 Z" />
<path fill="#d9d9d9" opacity="1.00" d=" M 165.28 276.63 C 166.84 277.03 168.39 277.43 169.95 277.84 C 170.01 279.45 170.07 281.06 170.15 282.67 C 169.36 282.86 168.58 283.05 167.80 283.26 C 176.59 282.40 185.44 282.37 194.20 283.50 C 193.74 284.59 193.28 285.68 192.82 286.77 C 192.19 286.91 190.95 287.19 190.32 287.33 C 189.47 288.54 188.75 290.29 186.98 290.29 C 181.37 290.79 175.70 290.53 170.09 290.15 C 169.68 295.48 169.34 300.81 168.67 306.10 C 168.47 313.66 168.88 321.23 168.29 328.77 C 175.24 328.98 182.19 328.10 189.15 328.78 C 189.79 330.48 189.72 332.33 189.87 334.12 C 184.90 333.99 179.89 334.21 175.08 335.56 C 170.76 335.51 166.56 336.19 162.37 337.15 C 161.38 336.41 160.38 335.70 159.38 335.01 C 159.39 332.97 159.16 330.79 160.51 329.09 C 159.66 320.73 159.78 312.33 159.96 303.94 C 160.80 297.40 161.78 290.59 159.90 284.13 C 161.56 283.33 163.28 282.65 164.94 281.85 C 165.05 280.11 165.16 278.37 165.28 276.63 Z" />
<path fill="#d9d9d9" opacity="1.00" d=" M 401.78 276.57 C 402.43 276.21 403.73 275.49 404.38 275.12 C 406.92 279.45 404.22 284.30 405.07 288.88 C 406.76 293.22 406.11 297.97 406.23 302.51 C 404.17 304.09 404.22 305.95 406.05 307.72 C 406.19 315.53 406.09 323.36 407.11 331.12 C 407.33 333.30 405.86 334.69 403.71 334.54 C 404.57 330.92 399.42 331.20 399.79 334.54 C 398.80 332.47 397.22 330.54 397.04 328.18 C 397.18 320.11 397.11 312.04 397.34 303.96 C 396.83 295.09 395.69 286.04 397.37 277.22 C 398.83 276.96 400.30 276.73 401.78 276.57 Z" />
<path fill="#d9d9d9" opacity="1.00" d=" M 233.02 277.44 C 234.55 277.36 236.09 277.30 237.63 277.20 C 243.08 277.82 248.59 277.38 254.02 276.85 C 258.62 276.42 262.52 280.52 262.93 284.91 C 264.68 290.51 264.58 297.16 260.95 302.02 C 257.92 305.31 253.47 306.89 249.13 307.46 C 252.52 310.71 254.40 315.09 257.59 318.50 C 258.49 319.59 259.17 320.82 259.92 322.02 C 262.75 324.44 264.90 327.49 267.16 330.41 C 263.45 330.84 259.86 332.78 256.08 332.25 C 253.63 327.65 251.20 323.02 247.91 318.94 C 245.64 315.87 243.54 312.61 242.87 308.78 C 243.15 306.63 243.20 304.45 243.08 302.29 C 243.55 301.90 244.48 301.11 244.95 300.72 C 246.96 300.56 248.97 300.42 250.97 300.23 C 252.80 298.03 255.55 296.09 255.60 292.95 C 255.89 289.45 253.68 285.79 250.23 284.83 C 247.66 284.22 244.64 284.91 242.68 282.71 C 241.59 282.65 240.50 282.62 239.41 282.60 C 239.25 298.50 238.21 314.39 238.99 330.30 C 237.00 330.61 234.41 332.12 232.91 330.00 C 232.29 327.45 233.84 323.91 231.03 322.33 C 230.84 314.21 231.11 306.08 231.75 297.99 C 231.53 292.30 231.47 286.59 232.53 280.98 C 233.11 281.16 234.26 281.54 234.84 281.73 C 234.24 280.30 233.63 278.87 233.02 277.44 Z" />
<path fill="#d9d9d9" opacity="1.00" d=" M 359.21 282.16 C 360.00 280.68 361.08 279.39 362.58 278.60 C 362.11 279.99 361.58 281.37 361.00 282.72 C 360.46 284.37 359.68 285.93 358.38 287.13 C 358.73 286.16 359.41 284.23 359.76 283.26 C 359.62 282.98 359.34 282.43 359.21 282.16 Z" />
<path fill="#d9d9d9" opacity="1.00" d=" M 551.86 294.57 C 552.21 292.33 553.73 290.35 556.03 291.89 C 556.80 297.23 556.81 302.62 556.67 308.00 C 556.47 310.30 558.19 313.02 555.83 314.71 C 555.80 315.28 555.74 316.41 555.71 316.98 C 554.79 318.39 553.89 319.81 553.04 321.27 C 551.80 320.46 550.56 319.67 549.31 318.90 C 547.53 313.13 548.68 307.02 548.58 301.10 C 548.40 298.27 549.12 295.52 549.64 292.76 C 550.37 293.36 551.12 293.96 551.86 294.57 Z" />
<path fill="#d9d9d9" opacity="1.00" d=" M 172.01 306.09 C 172.54 305.48 173.59 304.25 174.11 303.64 C 179.40 303.20 184.71 303.44 190.00 303.33 C 190.36 305.72 188.80 306.45 186.80 306.68 C 190.37 306.21 193.96 306.59 197.54 306.63 C 196.78 308.20 196.19 309.85 195.34 311.37 C 188.07 311.37 180.84 312.04 173.60 312.71 C 170.40 312.24 172.38 308.77 172.28 306.65 C 173.34 306.64 175.44 306.62 176.49 306.61 C 175.01 306.36 173.51 306.19 172.01 306.09 Z" />
<path fill="#d9d9d9" opacity="1.00" d=" M 60.32 331.59 C 61.23 330.62 63.82 331.65 62.78 333.05 C 61.85 334.08 59.33 333.01 60.32 331.59 Z" />
<path fill="#d9d9d9" opacity="1.00" d=" M 52.12 331.95 C 54.56 331.76 56.80 332.75 58.56 334.39 C 58.25 334.77 57.62 335.55 57.30 335.93 C 55.54 334.65 53.74 333.42 52.12 331.95 Z" />
<path fill="#d9d9d9" opacity="1.00" d=" M 229.57 333.95 C 230.52 333.82 232.41 333.56 233.36 333.43 C 232.86 334.31 232.36 335.19 231.85 336.07 L 231.68 334.55 C 231.15 334.40 230.10 334.10 229.57 333.95 Z" />
</g>
<g id="#8b8b8b4e">
<path fill="#8b8b8b" opacity="0.31" d=" M 340.32 269.15 C 340.70 269.79 340.70 269.79 340.32 269.15 Z" />
<path fill="#8b8b8b" opacity="0.31" d=" M 58.30 332.28 C 58.81 332.87 58.81 332.87 58.30 332.28 Z" />
</g>
</svg>
