<?xml version="1.0" encoding="UTF-8" ?>
<!DOCTYPE svg PUBLIC "-//W3C//DTD SVG 1.1//EN" "http://www.w3.org/Graphics/SVG/1.1/DTD/svg11.dtd">
<svg width="686pt" height="217pt" viewBox="0 0 686 217" version="1.1" xmlns="http://www.w3.org/2000/svg">
<g id="#ffffffff">
<path fill="#ffffff" opacity="1.00" d=" M 137.94 3.70 C 149.11 3.23 160.26 2.24 171.28 0.31 C 171.52 18.88 172.71 37.82 167.81 55.95 C 165.45 64.05 161.05 72.35 153.05 76.04 C 160.81 61.67 158.95 44.58 155.16 29.34 C 154.37 26.88 153.79 24.03 151.71 22.31 C 147.59 19.70 142.77 18.26 137.89 18.12 C 141.74 22.43 145.00 27.31 146.39 33.00 C 142.46 30.41 138.74 27.42 134.41 25.50 C 127.31 22.30 119.60 20.83 111.93 19.72 C 102.67 18.78 93.44 20.64 84.49 22.87 C 80.37 24.10 76.04 25.06 72.38 27.42 C 70.62 31.67 71.74 36.50 71.44 41.00 C 71.81 51.17 70.10 61.56 72.39 71.58 C 83.72 72.05 95.18 71.82 106.34 74.18 C 112.65 75.37 118.62 77.89 124.37 80.68 C 131.63 84.26 137.23 90.39 141.91 96.87 C 135.83 94.42 130.00 91.24 123.52 89.95 C 108.70 86.62 92.98 86.76 78.29 90.70 C 75.99 91.60 72.47 92.05 72.11 95.06 C 71.52 97.64 71.65 100.32 71.62 102.96 C 71.60 112.97 71.65 122.98 71.60 132.99 C 71.46 144.63 68.28 156.02 63.69 166.65 C 56.71 181.12 45.58 193.47 32.10 202.18 C 22.80 208.62 12.16 212.62 1.81 217.00 L 0.00 217.00 L 0.00 216.93 C 14.94 205.43 26.01 189.05 31.25 170.95 C 34.27 158.89 35.75 146.43 35.51 134.00 C 35.48 97.34 35.49 60.68 35.46 24.01 C 31.71 20.56 27.42 17.78 23.55 14.47 C 20.60 12.08 21.49 7.94 21.24 4.62 C 54.83 4.57 88.42 4.80 122.01 4.48 C 127.33 4.36 132.68 4.61 137.94 3.70 Z" />
<path fill="#ffffff" opacity="1.00" d=" M 212.45 35.45 C 221.52 27.61 234.30 26.63 245.73 27.75 C 250.94 29.23 256.69 30.34 260.64 34.36 C 263.10 36.76 265.12 39.57 266.66 42.64 C 261.81 40.02 256.47 38.33 250.98 37.76 C 245.76 37.39 240.62 38.69 235.61 40.02 C 248.48 67.55 262.36 94.58 276.69 121.38 C 277.96 123.43 279.01 125.61 280.38 127.59 C 282.73 130.02 286.13 131.09 288.51 133.49 C 290.90 136.27 291.63 140.08 291.24 143.66 C 275.32 143.52 259.41 143.71 243.50 143.56 C 243.67 141.38 243.23 139.04 244.29 137.03 C 245.80 132.95 249.75 130.63 253.40 128.70 C 249.71 121.73 247.77 113.96 243.68 107.19 C 234.92 90.00 226.36 72.70 217.26 55.69 C 215.69 58.69 214.20 61.74 212.46 64.64 C 209.07 70.13 206.97 76.28 203.95 81.96 C 201.53 86.49 199.57 91.24 197.24 95.81 C 206.93 94.80 216.96 93.40 226.47 96.42 C 234.36 98.80 241.13 104.83 244.02 112.59 C 237.27 108.77 229.78 106.15 221.96 106.04 C 208.96 105.56 194.32 109.19 186.27 120.22 C 184.14 123.31 181.17 127.02 182.54 131.00 C 187.90 136.06 196.66 135.53 201.45 141.50 C 197.45 141.55 193.51 142.25 189.66 143.25 C 182.49 144.95 175.05 146.18 168.49 149.71 C 159.68 154.52 150.97 159.52 142.10 164.22 C 137.87 166.83 132.96 168.18 127.98 167.87 C 119.53 168.46 112.40 163.21 105.08 159.87 C 112.22 159.27 119.52 159.24 126.45 157.15 C 138.43 152.39 149.37 144.21 156.09 133.08 C 162.17 123.82 167.94 114.35 173.94 105.03 C 184.08 86.68 193.39 67.88 203.01 49.26 C 205.96 44.54 207.91 38.97 212.45 35.45 Z" />
<path fill="#ffffff" opacity="1.00" d=" M 641.00 31.26 C 652.76 30.64 664.58 30.38 676.22 28.44 C 676.36 38.95 676.89 49.52 675.50 59.96 C 674.66 70.07 669.77 80.09 661.27 85.90 C 667.17 75.44 666.94 62.81 663.86 51.51 C 663.13 49.26 662.88 46.52 660.84 45.01 C 659.07 43.83 656.92 43.47 654.88 43.17 C 656.72 47.14 659.61 50.59 660.82 54.87 C 654.26 49.19 645.64 46.96 637.29 45.42 C 626.72 42.97 615.51 45.14 605.90 49.94 C 604.97 51.03 605.41 52.63 605.26 53.94 C 605.32 62.22 605.13 70.50 605.38 78.78 C 609.56 79.60 613.84 79.01 618.07 79.41 C 628.76 80.06 639.40 83.49 648.01 89.96 C 650.71 92.52 653.15 95.40 655.02 98.63 C 642.28 93.27 627.90 90.57 614.27 93.81 C 611.27 94.61 608.39 95.73 605.44 96.65 C 603.73 109.95 611.74 124.01 624.45 128.64 C 632.89 132.00 642.09 132.00 651.03 131.58 C 663.39 130.98 675.10 125.32 684.17 117.06 C 681.07 126.82 673.14 134.47 664.27 139.20 C 649.08 147.37 630.80 148.14 614.21 144.49 C 604.51 142.65 595.38 137.59 589.18 129.84 C 581.52 119.90 577.76 107.38 577.45 94.91 C 577.02 78.93 577.44 62.94 577.25 46.96 C 574.99 43.75 570.58 42.73 568.65 39.20 C 567.15 36.84 567.40 33.96 567.09 31.30 C 591.73 31.26 616.36 31.33 641.00 31.26 Z" />
<path fill="#ffffff" opacity="1.00" d=" M 444.13 31.76 C 457.40 31.52 470.69 31.83 483.97 31.51 C 495.09 31.75 506.67 30.44 517.32 34.43 C 523.31 37.01 528.60 41.59 531.20 47.67 C 518.33 39.64 502.39 41.31 488.33 44.69 C 486.02 45.48 483.64 47.42 483.59 50.05 C 482.46 74.15 482.45 98.35 483.56 122.43 C 484.65 124.01 486.29 125.15 488.11 125.75 C 496.17 129.00 505.06 128.73 513.57 128.32 C 525.24 127.50 535.17 120.47 543.69 113.02 C 541.37 119.02 538.88 125.01 534.94 130.15 C 538.81 129.92 543.75 129.20 544.91 124.76 C 546.91 117.93 547.79 110.58 547.07 103.47 C 546.05 93.29 539.24 84.97 532.05 78.24 C 535.98 79.83 540.10 81.05 543.90 82.94 C 548.86 87.10 553.83 91.84 555.67 98.27 C 557.91 103.23 557.83 108.68 557.83 114.00 C 559.06 124.76 558.43 135.62 558.62 146.43 C 547.59 143.94 536.21 144.41 525.00 143.83 C 498.06 143.79 471.12 143.89 444.19 143.76 C 444.28 141.03 444.67 138.25 446.16 135.89 C 447.84 132.53 451.60 131.23 454.33 128.93 C 454.97 127.37 454.65 125.64 454.75 124.01 C 454.68 98.60 454.82 73.20 454.68 47.80 C 452.09 44.89 448.65 42.88 446.23 39.84 C 444.36 37.56 444.34 34.54 444.13 31.76 Z" />
<path fill="#ffffff" opacity="1.00" d=" M 309.26 31.67 C 331.83 31.68 354.41 31.67 376.98 31.67 C 384.26 31.77 391.75 32.34 398.51 35.28 C 403.69 37.89 409.05 40.75 412.53 45.56 C 417.24 51.25 418.87 59.64 415.59 66.42 C 412.61 73.46 405.70 77.76 398.93 80.61 C 409.56 82.12 420.41 87.48 425.61 97.28 C 428.69 102.58 429.36 108.91 428.42 114.89 C 425.57 125.50 416.87 133.76 406.92 137.91 C 390.30 145.14 371.71 144.29 353.99 143.83 C 339.09 143.85 324.19 143.70 309.29 143.93 C 308.76 138.43 311.39 132.92 316.18 130.10 C 317.53 128.96 319.96 128.29 319.68 126.07 C 319.66 100.02 319.66 73.95 319.64 47.89 C 318.56 45.92 316.13 45.12 314.64 43.46 C 311.24 40.50 308.72 36.33 309.26 31.67 M 347.38 50.27 C 347.31 59.56 347.20 68.86 347.41 78.16 C 360.10 79.78 373.81 77.87 384.42 70.34 C 388.34 65.86 388.50 58.98 386.27 53.69 C 384.21 48.33 378.03 46.55 372.90 45.68 C 364.26 44.99 354.60 44.63 347.38 50.27 M 347.37 88.26 C 347.34 98.04 347.11 107.84 347.45 117.61 C 349.16 121.30 353.60 123.00 357.25 124.31 C 367.79 125.28 378.38 122.96 388.17 119.15 C 392.81 117.44 396.28 113.82 400.48 111.37 C 401.44 117.89 396.40 122.88 392.23 127.13 C 398.34 123.01 402.99 115.18 400.47 107.75 C 397.73 100.27 390.49 95.91 383.77 92.44 C 372.45 87.02 359.54 88.20 347.37 88.26 Z" />
</g>
</svg>
