<svg width="212" height="73" viewBox="0 0 212 73" fill="none" xmlns="http://www.w3.org/2000/svg">
<path d="M79.1464 0H79.3111C79.4531 0.0628323 79.7428 0.188497 79.8905 0.245617C81.2822 0.148513 82.6739 -0.00571202 84.0486 0.388418C83.1681 2.47331 80.3449 0.948196 78.6465 1.45085C78.7715 1.091 79.0214 0.36557 79.1464 0Z" fill="white"/>
<path d="M106.627 0H110.098C109.888 0.199921 109.479 0.594051 109.274 0.793972C108.496 0.856804 107.718 0.919636 106.94 0.971045L107.002 1.37089C108.104 1.21666 109.218 1.18239 110.331 1.1881C110.496 3.5643 110.229 5.92337 109.894 8.27101C109.621 8.2653 109.07 8.24245 108.792 8.23674C109.297 8.4995 109.808 8.75654 110.325 9.00787C110.297 11.4412 109.894 13.8631 110.53 16.2679C111.609 15.6338 111.774 14.3201 112.285 13.2805L111.831 12.595C112.08 12.6464 112.586 12.755 112.836 12.8121C111.973 11.1385 112.66 9.3563 113.04 7.65983C113.353 7.66554 113.983 7.67125 114.296 7.67696L113.444 7.47704C113.529 5.40929 113.467 3.17017 114.449 1.29663C115.949 0.0171361 118.068 0.102816 119.908 0.33701C122.646 0.696867 125.503 0.011424 128.156 0.95962C125.526 1.18239 122.811 0.674019 120.357 1.94209C120.13 1.73646 119.67 1.3309 119.437 1.13098C119.164 3.7985 118.619 6.42603 118.011 9.03643C120.175 9.20207 122.396 8.95075 124.521 9.47054C123.458 9.84182 122.345 9.86467 121.237 9.77899C120.073 10.4987 118.755 10.9043 117.443 11.2527C117.318 12.6179 117.13 13.9716 116.897 15.3197C120.181 14.9884 123.487 14.8798 126.781 15.1197C124.555 16.0337 121.891 14.8113 119.908 16.622C119.471 16.6848 118.59 16.8105 118.153 16.8733C118.443 17.2446 118.732 17.6216 119.005 18.0043C118.761 18.427 117.857 18.5184 117.931 19.1296C118.164 19.0553 118.63 18.9068 118.863 18.8326C118.693 19.8036 118.437 20.7575 118.142 21.7C118.579 21.1688 118.977 20.609 119.391 20.0663C119.272 25.7784 119.647 31.4904 119.397 37.2081C119.13 38.5676 118.011 37.9393 117.324 37.3224C116.301 37.3509 115.273 37.3966 114.25 37.4024C114.074 35.4317 114.523 33.4839 114.483 31.519C114.052 27.5377 114.534 23.545 114.642 19.558C114.978 19.438 115.642 19.1981 115.977 19.0725C114.091 19.1182 112.211 19.1296 110.331 19.061C110.217 19.4323 110.109 19.8036 110.013 20.1806C110.746 23.8591 110.32 27.6862 110.075 31.4047C110.24 33.1754 110.422 34.9405 110.348 36.7283C108.701 37.6365 106.82 37.7451 105.008 37.3738C105.048 35.2775 105.281 33.204 105.52 31.1305C104.866 29 105.184 26.7437 105.094 24.556C104.9 22.1055 106.071 19.5694 104.923 17.2275C99.754 14.6456 93.7781 15.0912 88.2113 15.7481C88.0011 15.9822 87.5865 16.4449 87.3763 16.6734C87.1832 16.4335 86.7969 15.948 86.6038 15.7024C85.6665 15.788 84.7349 15.8851 83.809 15.9822C83.7465 18.8383 83.968 21.7 83.6783 24.5503C83.6443 28.4402 84.2577 32.4786 83.3034 36.2714C86.0357 37.2938 88.9839 35.8144 91.7275 36.7112C90.5517 36.8197 89.3645 36.8768 88.2454 37.271C87.2343 36.894 86.2232 37.2081 85.3654 37.7908C84.8826 37.7908 84.3998 37.7851 83.9169 37.7793C83.6556 37.4595 83.3886 37.1396 83.1273 36.8197C81.9856 37.2081 80.804 37.4595 79.5998 37.5623C79.2874 36.9797 78.9579 36.4027 78.6228 35.8315C78.6057 29.2284 78.6114 22.631 78.6568 16.0279C78.8841 12.8406 78.0377 9.48768 79.2306 6.42603C79.0545 6.4603 78.6966 6.52313 78.5205 6.55169C78.583 5.26649 78.6228 3.97557 78.5944 2.68465C80.1678 1.77073 82.0537 1.49084 83.8033 2.01635C83.6897 4.36399 83.8147 6.71734 83.7749 9.06499C86.138 9.17923 88.5067 9.43056 90.8698 9.15638C90.7221 9.37344 90.4324 9.80755 90.2904 10.0246C89.2906 9.69902 88.1545 9.12782 87.24 9.97891C86.0982 10.1617 84.9621 10.3788 83.8147 10.493C83.7863 12.0295 83.6783 13.5604 83.6272 15.0969C89.6542 15.154 95.6868 14.8056 101.714 15.1083C102.975 14.9541 105.361 15.6395 105.298 13.646C105.213 11.4697 104.798 9.22492 105.957 7.22571C106.338 7.19715 107.11 7.14574 107.496 7.11718C106.678 7.09434 105.86 7.07149 105.042 7.04293C105.088 5.50068 105.122 3.95272 105.156 2.41048C105.639 1.59937 106.11 0.78826 106.627 0Z" fill="white"/>
<path d="M202.969 0H204.923C206.133 0.0514082 207.348 0.0171361 208.547 0.228481C209.91 1.15954 211.688 2.30195 211.307 4.24404C211.472 4.47823 211.796 4.94661 211.961 5.18081C211.376 8.8365 212.745 12.6521 211.342 16.1822C211.54 20.0492 209.995 23.6649 209.064 27.3435C209.518 27.2692 210.427 27.1264 210.881 27.0522C210.376 27.7604 209.853 28.4573 209.353 29.1656C209.268 28.6801 209.098 27.7033 209.013 27.2178C208.251 30.1938 207.303 33.0783 206.729 36.1057C205.405 36.5798 204.071 36.9911 202.77 37.5052C203.9 37.2653 205.013 36.934 206.15 36.6883C205.911 38.4819 205.599 40.2698 205.104 42.012C205.525 41.9605 206.371 41.8463 206.791 41.7949C206.263 42.5774 205.712 43.3486 205.133 44.1026C205.036 43.5713 204.843 42.5032 204.747 41.972C204.445 43.5199 204.213 45.085 203.798 46.6044C206.53 46.6273 209.268 46.5702 212 46.713C212.006 48.3809 211.853 50.0488 211.563 51.6938C207.036 51.8652 202.508 51.7624 197.981 51.6539C197.612 49.9745 198.152 48.4094 199.151 47.0728C198.981 46.9186 198.64 46.6101 198.47 46.4559C199.697 43.5485 199.657 40.1784 201.361 37.4937C201.446 35.3117 201.815 33.0726 203.048 31.2219C203.025 30.2566 203.076 29.2913 203.196 28.3316C202.707 27.869 202.236 27.4006 201.776 26.9208C202.798 26.6523 203.531 26.9551 203.968 27.8404C204.099 23.128 206.223 18.844 207.274 14.3429C207.115 14.0973 206.791 13.606 206.632 13.3547C206.655 12.4694 206.667 11.584 206.667 10.6986C206.888 10.2131 207.115 9.72758 207.342 9.24777C206.74 7.99113 206.615 6.61453 206.655 5.23793C205.422 5.27791 204.196 5.32361 202.974 5.3693C202.997 8.21961 202.821 11.0642 202.656 13.9088C200.98 13.9545 199.31 13.8974 197.646 13.8916C197.618 12.9149 197.589 11.9381 197.584 10.9614C198.015 10.3559 198.39 9.72758 198.72 9.05927C197.799 8.79652 196.89 8.54519 195.987 8.23674C196.504 8.1225 197.527 7.89973 198.044 7.78549C197.822 6.51742 197.373 5.20937 197.782 3.93559C198.197 1.53082 200.748 0.217057 202.969 0Z" fill="white"/>
<path d="M2.57861 1.4395C4.2941 0.108599 6.4981 0.148583 8.5601 0.0571908C10.3892 -0.0741858 12.0138 1.07393 13.4339 2.09638C13.8543 3.31876 14.0304 4.61539 14.2348 5.88917C17.0978 3.82142 20.8412 4.82673 23.9825 5.63213C24.1926 5.26656 24.4028 4.89528 24.613 4.524C23.4371 3.47298 23.8291 1.55945 24.329 0.239976C26.6068 0.302808 29.0324 -0.331227 31.208 0.479881C32.7303 0.194279 34.2754 7.05785e-05 35.8205 0.205704C37.1099 0.417048 38.53 -0.188426 39.7286 0.445609C41.0578 1.75937 40.5864 3.88425 39.7797 5.35224C40.6886 5.54074 41.5975 5.75779 42.4893 6.00912C40.984 6.23189 38.6323 5.89488 39.3083 8.36248C38.6209 7.07727 37.6325 5.91773 36.3942 5.15232C35.9511 5.08377 35.5194 4.99809 35.0877 4.89528C34.8775 5.31797 34.673 5.74637 34.4629 6.17477C34.7526 6.74026 34.9003 7.33431 34.9003 7.96263C34.8378 17.119 34.8491 26.2754 34.8889 35.4261C34.8946 36.3743 34.3777 37.2025 34.1391 38.0879C33.7187 38.1907 33.2984 38.2878 32.8837 38.3849C34.9287 37.7566 34.9287 40.1328 34.9116 41.5037C34.4515 41.5779 33.5369 41.7378 33.0825 41.8121C31.9521 41.8578 30.8217 41.8749 29.6913 41.8235C29.6004 40.5726 29.7083 39.3274 30.0889 38.1278C30.4241 38.1164 31.0944 38.0879 31.4352 38.0707C31.1171 37.9908 30.4809 37.8308 30.1628 37.7508C29.3505 35.3689 29.7538 32.8385 29.7083 30.3766C29.5436 22.0314 29.981 13.6861 29.4243 5.36366C28.3621 5.43221 27.0385 4.55256 26.1694 5.41507L24.7777 4.7182C24.8345 5.06093 24.9538 5.73494 25.0106 6.07767C21.4433 5.65498 17.8533 6.98588 14.3371 5.90631C14.5927 7.71702 14.6041 9.56771 14.3541 11.3841C15.6777 10.4874 17.4727 10.5388 18.9382 11.0471C17.4954 11.487 16.0071 11.8125 14.4905 11.7897C13.2294 13.1377 11.0424 12.2352 9.38944 12.458C9.16791 10.1104 9.27583 7.75129 8.98613 5.40936C7.81596 5.41507 6.64011 5.39793 5.46995 5.36937C5.41882 6.07767 5.31657 6.79167 4.97575 7.4257C5.84485 10.2817 5.02687 13.2691 5.45859 16.188C8.47489 16.4164 11.5026 15.5539 14.4961 16.1937C14.3201 19.1011 14.7177 22.0371 14.2292 24.9274C13.8088 26.9094 15.0585 28.9486 14.1837 30.8679C14.2746 33.1241 15.4448 36.26 13.3033 37.848C12.2467 37.8822 11.1901 37.985 10.1336 38.0821C9.79275 37.4253 9.45193 36.7684 9.12814 36.1058C9.5769 32.3587 8.92933 28.5888 9.56554 24.8588C9.75299 24.7617 10.1393 24.5732 10.3324 24.4761C10.037 24.4818 9.44057 24.4989 9.1395 24.5104C9.30992 22.6654 9.23607 20.8147 9.38944 18.9697C9.04294 18.964 8.34992 18.9583 8.00342 18.9526C7.9807 19.6609 7.66259 20.135 7.0491 20.3692L7.20248 20.8832C6.27089 20.6205 5.10072 21.4487 4.61788 20.2149C4.87918 21.363 4.56108 22.4655 4.14641 23.5222C3.86806 22.5226 3.81126 21.483 3.77718 20.4491C3.39091 20.3806 2.61269 20.2549 2.22642 20.1864C2.67517 18.3699 -0.0911943 19.4781 0.0280948 17.8216C-0.147999 15.9024 0.607499 14.006 0.181466 12.0981C-0.272968 10.1846 0.255312 8.28251 0.669983 6.42039C0.505251 4.6211 0.749509 2.32487 2.57861 1.4395Z" fill="white"/>
<path d="M51.4645 3.82659C50.9816 0.964865 54.5376 -0.240372 56.8041 0.125198C58.3207 0.576448 59.934 -0.154692 61.3995 0.376527C62.4163 1.30188 63.7115 2.10156 64.2738 3.39819C64.8987 7.38518 64.501 11.4236 64.7112 15.4449C64.2454 19.8717 64.7794 24.3156 64.609 28.7653C66.1086 28.731 67.6139 28.6168 69.1022 28.8053C68.5796 29.0338 67.5458 29.4793 67.0288 29.7078C68.5398 30.0048 70.1985 29.4565 71.6243 30.1248C70.6075 30.1933 69.568 30.0391 68.5739 30.3075C67.5855 30.1248 66.5858 30.0219 65.5803 30.0905L65.2906 28.9938C64.4499 30.4047 64.5408 31.9869 64.5351 33.5577C65.4724 33.1007 66.4381 33.0665 67.4322 33.4492C66.5801 33.8833 65.6485 34.106 64.7226 33.7748C64.7283 35.9339 63.5013 37.8703 61.8824 39.2012C62.547 39.0755 63.8819 38.8299 64.5465 38.7042C64.5579 39.5839 64.5635 40.4635 64.5635 41.3489C62.9901 42.1714 61.1553 41.7487 59.4568 41.9144C59.5932 40.9262 59.7408 39.9437 59.8204 38.9498C60.0817 38.6871 60.5986 38.1616 60.8599 37.8988C61.1382 37.9731 61.6892 38.1216 61.9619 38.2016C61.4791 37.8817 61.0985 37.4647 60.8315 36.9563C58.9513 35.9625 58.69 32.3525 60.9565 31.6899L59.9737 31.8555C59.7977 29.942 58.8604 27.9085 59.8488 26.0578C59.7977 25.6751 59.792 25.2867 59.7579 24.904C59.1501 22.9733 59.5818 20.8656 59.4455 18.8606C58.1049 18.7921 56.7643 18.7407 55.4351 18.6093C55.4521 19.0034 55.4919 19.786 55.5089 20.1744C54.7478 20.1002 54.015 20.1801 53.3049 20.4143C53.8559 20.3915 54.9636 20.3458 55.5203 20.3229C55.8157 21.9166 55.81 25.321 53.2765 24.1785C54.0036 24.4584 54.7307 24.7383 55.4521 25.0239C55.3896 26.9032 55.9293 28.9652 55.0204 30.696C55.401 32.8437 56.3496 35.6654 54.7648 37.459C54.441 37.4876 53.7991 37.539 53.4753 37.5675C53.6514 38.1559 53.8389 38.7442 54.0263 39.3268L54.5603 38.6928C56.4405 38.0759 55.1908 40.7948 55.5033 41.7716C53.8218 41.7944 52.1632 42.2742 50.4818 42.0743C50.3965 41.2004 50.3284 40.3207 50.2829 39.4411C51.277 38.9327 51.2429 37.7903 50.7033 36.9621C49.4195 34.6201 51.3622 31.9812 50.4306 29.5993C50.3625 28.057 50.1296 26.4634 50.9589 25.0639C50.851 24.7669 50.6351 24.1785 50.5272 23.8815C50.8851 23.8301 51.6008 23.7216 51.9587 23.6702C50.1239 24.0415 49.9932 21.9966 50.8112 20.8713C50.6635 20.4372 50.3795 19.5632 50.2318 19.1291C51.0668 19.1462 51.8735 19.2719 52.5097 19.866C52.1234 19.0606 51.277 18.7521 50.5329 18.3751C50.175 15.4905 50.5499 12.5317 50.192 9.6243C48.3743 8.96742 46.4998 7.14528 44.4775 8.25912C44.5457 8.13917 44.6877 7.89927 44.7616 7.77931C46.6531 7.7736 48.5561 7.47086 50.442 7.75647C50.2375 6.33417 50.459 4.90045 51.4645 3.82659ZM55.2135 6.29419L55.969 6.67118C54.8898 9.66428 55.7646 12.9316 55.2249 16.0389C56.6507 16.0389 58.0765 16.0332 59.5023 16.056C59.5023 12.5089 59.4852 8.9617 59.4625 5.41453C58.0424 5.59732 56.1054 4.75765 55.2135 6.29419Z" fill="white"/>
<path d="M133.677 0.679443C133.984 1.04501 133.984 1.04501 133.677 0.679443Z" fill="white"/>
<path d="M134.512 1.85041C135.569 1.3249 136.631 0.799398 137.648 0.188211C140.471 0.153939 143.306 0.0511226 146.129 0.171075C146.089 1.62193 146.538 3.48405 145.01 4.35799C143.834 3.68397 142.215 5.87168 141.63 4.2666C140.579 4.27231 139.534 4.21519 138.489 4.2666C137.512 8.09365 138.21 12.0407 137.96 15.9248C139.681 16.5589 141.454 15.8734 143.215 16.0277C144.578 16.1191 145.947 16.0848 147.316 16.0848C147.293 16.9701 147.282 17.8612 147.282 18.7466C145.72 18.7066 144.163 18.9065 142.607 18.9522C141.073 18.1697 139.204 18.5238 137.699 19.215C138.307 22.6936 137.869 26.235 138.034 29.7479C137.648 32.2612 138.988 34.9402 137.551 37.2478C135.961 37.8533 133.439 38.0989 132.979 35.9341C132.649 31.3987 132.91 26.7548 132.893 22.1681C133.717 20.8143 133.547 19.175 133.348 17.6727C132.325 14.1655 133.058 10.4984 132.888 6.91127C132.66 5.03201 134.132 3.604 134.512 1.85041Z" fill="white"/>
<path d="M153.736 0.6222C156.684 0.65076 159.706 0.913513 162.574 0.0795571C165.415 0.416567 168.266 -0.1375 171.112 0.176662C172.777 1.18769 175.259 2.26155 175.151 4.58635C175.213 5.466 175.23 6.33994 175.213 7.2253C174.736 7.20245 173.782 7.16818 173.305 7.15105C173.805 7.23673 174.305 7.32812 174.81 7.41951C175.179 9.22451 175.287 11.0638 175.225 12.9031C176.554 12.9488 177.883 13.0801 179.167 13.44C177.934 13.737 176.446 13.4229 175.344 14.0169C175.185 16.176 174.305 18.2666 172.481 19.5119C173.367 20.3744 174.202 21.3112 174.867 22.3622C175.361 23.4189 174.873 24.5841 174.952 25.6923C175.367 29.1652 175.157 32.6724 175.162 36.1624C174.026 37.2763 172.487 37.579 170.947 37.3791C169.147 35.9168 170.436 33.3921 170.09 31.4557C169.453 28.9082 171.692 26.3149 170.141 23.893C169.488 23.636 168.84 23.3618 168.198 23.0876C167.522 23.556 166.84 24.0301 166.147 24.4699C166.113 26.4406 166.136 28.4055 166.085 30.3761C165.08 30.616 164.074 30.856 163.103 31.2044C164.068 31.033 165.017 30.7646 165.971 30.5247C166.022 30.9702 166.13 31.8613 166.182 32.3068C165.528 32.2725 164.875 32.2326 164.227 32.1754C164.625 32.2725 165.42 32.4553 165.812 32.5524C166.369 33.8262 165.96 35.317 166.125 36.6822C165.318 37.0764 164.477 37.3848 163.569 37.3505C163.296 37.1792 162.745 36.8307 162.467 36.6594C162.279 35.7455 161.489 35.2085 160.865 34.603C161.268 33.4606 161.2 32.2554 161.052 31.0787C161.274 30.9531 161.722 30.7074 161.944 30.5875C159.99 30.4904 161.086 28.097 160.978 26.8518C160.7 23.7045 160.899 20.5515 161.024 17.4041C159.473 16.8272 158.178 15.7591 156.621 15.1936C158.098 15.1422 159.575 15.1764 161.046 15.2964C160.836 13.9141 161.086 12.429 160.791 11.0923C159.49 11.0524 158.945 9.81285 157.911 9.29306C156.156 9.09314 154.292 9.05315 152.679 9.88711C152.003 9.66434 151.322 9.4587 150.623 9.33304C150.504 9.25878 150.271 9.10456 150.151 9.0303C153.764 8.91606 157.4 8.59619 161.007 8.99032C160.973 7.99643 160.91 7.00253 160.848 6.00864C160.194 5.98008 159.541 5.94581 158.888 5.91154C158.7 5.62594 158.326 5.05473 158.138 4.77484C157.354 4.62633 156.57 4.48924 155.786 4.36358L155.837 4.11225C157.49 4.30074 159.149 4.43783 160.819 4.46068C160.762 3.41538 160.762 2.37579 160.819 1.3362C160.609 1.6218 160.189 2.19872 159.973 2.49003C158.774 2.19301 157.905 1.18769 156.741 0.804984C155.786 0.65076 154.923 1.1934 154.054 1.48472C153.974 1.27337 153.815 0.839257 153.736 0.6222ZM166.335 5.01475C165.46 9.9328 166.96 15.1136 165.409 19.9117C166.608 19.5804 167.727 19.8489 168.124 21.1855C168.925 19.9231 169.891 18.775 170.862 17.644C170.658 17.5526 170.254 17.3756 170.05 17.2842C170.976 15.999 170.504 14.3368 170.669 12.8631C170.073 11.4122 169.641 9.41301 170.601 8.06497C170.629 7.54518 170.663 7.02538 170.692 6.50559H170.328C170.323 5.77445 169.976 5.29464 169.289 5.08329C168.306 5.09472 167.289 4.83196 166.335 5.01475Z" fill="white"/>
<path d="M64.9106 5.21515C66.3932 4.861 67.9269 5.01523 69.4322 5.02094C68.1427 5.94058 66.3989 7.53423 64.8311 6.40325C64.8538 6.10622 64.8935 5.51217 64.9106 5.21515Z" fill="white"/>
<path d="M205.974 8.14502C206.309 8.58485 206.309 8.58485 205.974 8.14502Z" fill="white"/>
<path d="M0 29.2855C1.73821 28.8743 3.52187 28.7429 5.29984 28.9085C5.3112 29.8853 5.39641 30.942 4.69772 31.7188L5.2828 32.1929C5.45889 35.1918 5.3112 38.2077 5.36233 41.2122C4.71476 41.3722 4.10695 41.6121 3.52755 41.9377C2.37442 41.8577 0.636208 42.5774 0.0113608 41.2294C0.408991 38.1392 -0.102248 35.0318 0.374908 31.9473C0.539641 31.0334 0.181774 30.1652 0 29.2855Z" fill="white"/>
<path d="M198.645 36.7166C199.372 36.4424 200.82 36.0997 201.121 37.0936C200.667 38.1503 199.076 37.3392 198.645 36.7166Z" fill="white"/>
<path d="M78.6523 38.7614C80.2656 37.9789 81.9754 38.4301 83.6795 38.4359C83.7022 39.5668 83.742 40.6978 83.8045 41.8288C82.1004 42.0858 80.4076 41.686 78.7091 41.8402C78.7148 40.8121 78.6978 39.7839 78.6523 38.7614Z" fill="white"/>
<path d="M133.843 38.4475C135.053 37.3279 136.501 38.2076 137.694 38.8473C138.058 39.9098 138.268 41.749 137.092 42.3317C134.525 42.7829 131.9 42.5887 129.35 43.1028C128.231 41.9433 126.612 42.463 125.385 43.1256C125.402 42.8629 125.436 42.3374 125.453 42.0689C127.878 41.909 130.315 41.612 132.741 41.9204C132.894 40.7437 132.406 38.9844 133.843 38.4475Z" fill="white"/>
<path d="M161.362 41.1377C162.271 39.5041 164.066 38.0418 166.032 38.5331C166.06 39.7269 166.094 40.9207 166.123 42.1202C164.538 41.9374 162.925 41.8175 161.391 42.3316C160.34 42.7714 159.459 41.8689 158.607 41.4291C156.773 41.6918 154.705 41.4919 153.211 42.7885C152.887 41.292 151.314 41.6518 150.206 41.2863C153.921 41.2348 157.659 41.4291 161.362 41.1377Z" fill="white"/>
<path d="M169.981 41.7948C169.952 40.3896 170.514 38.9616 171.554 38.0134C172.849 37.3622 174.042 38.3733 175.201 38.8588C175.172 39.7784 175.155 40.6981 175.155 41.6177C174.565 41.8862 173.991 42.1775 173.423 42.4802C172.224 42.5373 171.06 42.3203 169.981 41.7948Z" fill="white"/>
<path d="M9.2141 41.8178C9.36747 40.704 8.75398 39.0761 10.1741 38.6077C11.5715 39.693 13.2472 37.7794 14.5253 39.196C14.5139 39.7387 14.4969 40.8354 14.4912 41.378C12.9916 42.6689 10.9637 41.7379 9.2141 41.8178Z" fill="white"/>
<path d="M105.11 38.6131C106.65 38.5332 108.189 38.5332 109.723 38.676C111.018 39.27 110.12 40.8865 109.916 41.8975C108.314 42.0232 106.576 42.3716 105.196 41.2978C105.201 40.401 105.173 39.5099 105.11 38.6131Z" fill="white"/>
<path d="M114.422 39.0473C115.308 38.9845 116.308 38.4475 117.137 39.0187C117.893 38.8131 118.671 38.676 119.455 38.6189C119.455 39.6985 119.466 40.778 119.466 41.8576C118.387 41.7548 117.313 41.6291 116.234 41.5663C116.098 41.2864 115.825 40.7209 115.689 40.441L116.194 42.0975C114.411 41.869 114.246 40.481 114.422 39.0473Z" fill="white"/>
<path d="M198.537 41.8689C199.349 41.1378 199.707 43.057 198.827 43.1313C198.753 42.8171 198.605 42.1831 198.537 41.8689Z" fill="white"/>
<path d="M0.596651 42.6689C1.89179 42.7946 3.18693 42.9431 4.48774 42.9545L4.10716 43.7142C6.22028 43.3829 5.16372 46.0333 4.94218 47.1986C3.33462 47.2043 1.7157 47.2271 0.119495 46.953C0.108134 46.0562 0.119495 45.1651 0.153577 44.2683C0.261505 43.8685 0.488723 43.0688 0.596651 42.6689Z" fill="white"/>
<path d="M30.459 42.697C31.3337 42.7084 32.2142 42.7199 33.089 42.7313C33.5832 43.0455 34.0888 43.3539 34.5943 43.6566C34.6795 44.5363 34.742 45.4274 34.8159 46.3127C33.106 46.3756 31.4076 46.5755 29.7035 46.6269C29.6864 45.6216 29.6694 44.622 29.6523 43.6224L30.476 43.708C30.4703 43.4567 30.4646 42.9484 30.459 42.697Z" fill="white"/>
<path d="M9.40213 46.4845C9.2942 45.1822 8.91929 43.2287 10.6632 42.8003C10.6461 43.2515 10.6177 44.1598 10.6064 44.611C10.7597 44.0912 10.9131 43.5714 11.0608 43.0516C12.3105 43.0288 13.5545 43.0973 14.5543 43.9427C14.4861 44.9937 14.5486 46.119 13.9522 47.05C12.4582 46.7016 10.9188 46.6445 9.40213 46.4845Z" fill="white"/>
<path d="M78.7826 43.6911C80.2425 42.463 82.0375 43.6397 83.6678 43.7254C83.6678 44.6793 84.2188 45.9016 83.1281 46.4671C82.6851 46.3929 81.7933 46.2444 81.3502 46.1701C80.4186 46.1473 79.4927 46.2558 78.5781 46.4271C78.6179 45.5132 78.6861 44.5993 78.7826 43.6911Z" fill="white"/>
<path d="M161.12 43.8569C162.409 42.7545 164.045 42.9716 165.573 43.3372C165.994 44.5195 166.244 45.7762 165.693 46.9757C164.591 46.9757 163.494 46.97 162.398 46.9986C161.103 46.3988 160.87 45.1536 161.12 43.8569Z" fill="white"/>
<path d="M170.425 43.2515C171.402 43.183 172.385 43.2001 173.316 43.5371C173.896 43.44 175.14 42.8117 175.015 43.9941C175.105 44.3768 175.191 44.7595 175.282 45.1479C174.918 45.3593 174.197 45.782 173.833 45.9933C172.555 46.0676 171.288 46.3303 170.021 46.4617C170.039 45.3764 170.237 44.314 170.425 43.2515Z" fill="white"/>
<path d="M50.6009 46.9756C49.7716 45.262 51.5098 44.4109 52.7538 43.8054C53.3389 43.8397 54.509 43.9025 55.0941 43.9311C55.0146 44.1767 54.8612 44.6679 54.7874 44.9136C55.6963 45.2106 55.7587 46.3473 55.3043 47.0556C53.7365 47.2041 52.1687 46.8614 50.6009 46.9756Z" fill="white"/>
<path d="M59.536 44.3081C61.1833 43.457 63.1885 43.9711 64.6711 44.9421C64.6029 45.262 64.4666 45.9075 64.3985 46.2331C62.8136 46.9356 61.0527 46.6615 59.377 46.6957C59.4394 45.9018 59.4962 45.1078 59.536 44.3081Z" fill="white"/>
<path d="M106.059 43.6053C107.712 43.5082 110.081 43.771 110.512 45.7359C110.098 46.4328 109.263 46.6099 108.626 47.0154C107.49 47.0211 106.354 46.9069 105.292 46.4899C105.309 45.4732 105.247 44.3593 106.059 43.6053Z" fill="white"/>
<path d="M114.409 44.0336C115.715 43.7765 117.039 43.6223 118.374 43.5938C119.288 44.3477 119.788 45.3074 119.476 46.524C117.936 46.861 116.34 46.6782 114.84 46.2556C113.761 46.0956 114.488 44.7247 114.409 44.0336Z" fill="white"/>
<path d="M134.047 43.7367C135.399 43.6568 137.785 43.1941 137.944 45.1476C138.347 46.1815 137.018 46.5071 136.467 47.0554C135.336 47.1068 134.183 47.1868 133.07 46.9355C132.911 45.7759 133.746 44.8049 134.047 43.7367Z" fill="white"/>
<path d="M70.659 46.8955C71.7667 47.2554 72.8914 47.5524 74.0104 47.8837C73.7491 49.0775 74.107 50.477 73.5219 51.5565C72.0223 51.8593 70.5056 51.5337 68.9946 51.5051C68.9605 50.5169 68.9265 49.5345 68.8242 48.552C69.4491 48.1464 70.0853 47.7409 70.818 47.5467L70.659 46.8955Z" fill="white"/>
<path d="M0.306641 48.4493C3.27182 48.2894 6.21429 47.9067 9.15107 47.5183C10.8041 47.5011 12.2696 48.5807 13.9624 48.4379C13.8885 49.4604 13.241 50.2201 12.6105 50.9569C9.67935 52.1907 6.43014 51.7337 3.35135 51.6138C1.9142 51.0483 0.948529 49.8088 0.306641 48.4493Z" fill="white"/>
<path d="M20.4153 48.4661C21.1594 47.7464 22.0739 47.3923 23.1021 47.5636C23.7837 48.8545 23.6985 50.3111 23.602 51.7277C22.1535 51.8419 20.705 51.5506 19.2621 51.6991C19.0406 51.4535 18.5975 50.9623 18.376 50.7167C18.518 49.9627 18.2851 49.0773 18.7622 48.4261C19.1712 48.4376 20.0006 48.4547 20.4153 48.4661Z" fill="white"/>
<path d="M78.7587 47.9635C82.025 47.3523 85.4049 47.7236 88.6654 48.2263C89.6822 48.4719 90.6365 47.9978 91.5908 47.7179C91.8124 47.9921 92.2611 48.5404 92.4884 48.8146C92.5906 49.7914 92.5622 50.7796 92.3293 51.7449C87.8361 51.6249 83.3201 51.8706 78.8326 51.6364C78.2816 50.5854 78.9235 49.1573 78.7587 47.9635Z" fill="white"/>
<path d="M95.5615 48.6837C96.8339 47.8955 98.3222 47.6099 99.7877 47.4214C99.6685 48.7751 99.6685 50.1289 99.6855 51.4826C98.2484 51.7283 96.7998 51.7797 95.3627 51.5283C95.3741 50.603 94.8571 49.472 95.5615 48.6837Z" fill="white"/>
<path d="M151.588 47.3697C152.787 47.3297 154.019 47.1183 155.218 47.3697C155.934 48.5349 155.86 49.9744 156.03 51.2938C154.332 51.7622 152.537 51.6708 150.827 51.3224C150.736 49.9458 151.031 48.6206 151.588 47.3697Z" fill="white"/>
<path d="M177.985 48.4669C178.757 47.9985 179.541 47.5472 180.325 47.096C180.496 47.3416 180.842 47.8328 181.012 48.0784L180.91 46.9932C181.552 47.4616 183.296 47.3016 183.08 48.5183C183.069 49.5522 183.029 50.586 183.018 51.6199C181.245 51.8598 179.456 51.8313 177.689 51.5799C177.831 50.546 178.28 49.5122 177.985 48.4669Z" fill="white"/>
<path d="M29.8337 48.529C31.4697 48.0321 33.242 47.5008 34.7984 48.529C34.8268 49.3344 34.8382 50.1341 34.8382 50.9338C33.3045 51.8363 31.5947 51.7963 29.8962 51.465C29.7258 50.4939 29.6122 49.5001 29.8337 48.529Z" fill="white"/>
<path d="M41.3595 48.4034C42.5808 46.8897 44.7167 48.2263 46.1992 48.609C45.6426 49.4886 44.5178 49.2202 43.6658 49.4715C44.461 49.4772 45.2563 49.4715 46.0459 49.4658C46.0572 50.2255 46.0629 50.9909 46.0743 51.7506C44.6314 51.5964 43.1829 51.762 41.7401 51.6535C40.1837 51.3393 41.0528 49.4201 41.3595 48.4034Z" fill="white"/>
<path d="M50.4125 48.5291C51.2589 48.3806 52.094 48.1635 52.8949 47.8494C53.7072 48.1178 54.5195 48.352 55.3488 48.5691C55.4511 49.3345 55.5477 50.0999 55.6442 50.8653C55.4 51.0424 54.9058 51.3908 54.6615 51.5679C53.2414 51.6878 51.8043 51.8078 50.3955 51.5336C50.3955 50.5283 50.3955 49.5287 50.4125 48.5291Z" fill="white"/>
<path d="M59.4799 48.9006C60.9852 48.0266 62.7178 47.9067 64.3651 48.4208C64.3651 49.4604 64.8252 50.5628 64.3878 51.5567C62.7519 51.8309 60.9909 51.8823 59.4629 51.134C59.4743 50.3914 59.4743 49.6432 59.4799 48.9006Z" fill="white"/>
<path d="M106.679 48.2208C107.792 48.3579 108.934 48.535 110.031 48.1865C110.184 49.3175 110.343 50.4485 110.434 51.5852C108.628 51.8422 106.787 51.8594 104.975 51.6423C104.907 50.2029 105.31 48.8663 106.679 48.2208Z" fill="white"/>
<path d="M123.726 48.3353C124.476 47.5756 125.561 47.8269 126.47 48.0611C126.998 48.0497 128.061 48.0211 128.595 48.0097C128.521 49.1807 129.089 50.7572 127.919 51.534C126.487 51.6026 124.312 52.4022 123.539 50.7058C123.516 49.9232 123.414 49.0721 123.726 48.3353Z" fill="white"/>
<path d="M133.195 48.4152C136.166 48.0725 139.205 48.7236 142.091 47.844C144.068 47.9011 146.005 48.3352 147.959 48.5923C147.964 49.6261 147.703 50.6372 147.425 51.6254C143.38 51.9338 139.319 51.454 135.269 51.6254C134.121 51.9052 133.337 51.157 133.07 50.0888L133.945 50.1745C133.547 49.6547 133.298 49.0664 133.195 48.4152Z" fill="white"/>
<path d="M161.433 48.5237C162.171 48.3124 162.904 48.0668 163.642 47.844C164.307 48.0668 164.988 48.2324 165.681 48.3524C166.045 49.4434 166.022 50.5972 166.108 51.7282C164.466 51.6425 162.824 51.7053 161.188 51.6882C160.864 50.6143 161.097 49.5576 161.433 48.5237Z" fill="white"/>
<path d="M114.455 48.7462C116.12 48.4149 117.818 48.3749 119.511 48.4663C119.465 49.5516 119.448 50.6426 119.454 51.7336C117.755 51.745 116.063 51.7393 114.364 51.6593C114.376 50.6826 114.404 49.7115 114.455 48.7462Z" fill="white"/>
<path d="M170.196 51.5228C169.889 50.3689 170.236 49.2779 170.9 48.3354C172.053 48.5011 173.218 48.6439 174.371 48.8495C175.677 49.0951 174.967 50.9173 175.132 51.8141C173.485 51.7627 171.837 51.6427 170.196 51.5228Z" fill="white"/>
<path d="M71.3799 58.6053C80.6447 57.9427 89.9265 58.4454 99.1969 58.2626C98.7255 59.3364 97.4303 58.7252 96.5726 58.8166C89.2164 58.5939 81.8489 59.0337 74.4984 58.7824C73.4646 58.731 72.3228 59.2051 71.3799 58.6053Z" fill="white"/>
<path d="M123.709 58.3425C126.498 58.074 129.321 58.3425 132.116 58.411C133.644 58.2911 135.172 58.1483 136.706 58.2168C137.115 58.7652 136.467 58.948 136.053 58.9365C131.929 58.7595 127.799 59.125 123.709 58.3425Z" fill="white"/>
<path d="M2.90918 58.6055C5.64715 57.9772 8.51576 58.634 11.3105 58.4056C11.1117 58.5369 10.7198 58.8054 10.521 58.9368C7.98748 58.6569 5.42561 58.8968 2.90918 58.6055Z" fill="white"/>
<path d="M13.9121 58.3484C15.6049 57.5031 14.0087 60.2334 13.9121 58.3484Z" fill="white"/>
<path d="M16.4443 58.4623C19.9719 58.1253 23.5278 58.3367 27.0611 58.3481C26.0783 59.3648 24.6071 58.7879 23.3858 58.8336C21.0796 58.6223 18.6938 59.1592 16.4443 58.4623Z" fill="white"/>
<path d="M27.0791 58.4341C32.1347 58.3085 37.2016 58.4512 42.2629 58.417C41.2234 59.1538 39.8828 58.8282 38.6899 58.9139C35.3612 58.9939 32.0324 58.714 28.7094 58.9253C28.1186 58.9996 27.5108 58.8911 27.0791 58.4341Z" fill="white"/>
<path d="M42.7686 58.4282C44.8249 58.0627 46.9039 58.3197 48.9602 58.5082C46.9437 58.6339 44.6204 59.5992 42.7686 58.4282Z" fill="white"/>
<path d="M49.5898 58.4683C50.3397 58.2512 51.0838 58.2626 51.8166 58.4968C51.7882 59.3308 49.6239 59.2394 49.5898 58.4683Z" fill="white"/>
<path d="M53.623 58.3653C55.2249 57.3314 53.9184 60.2046 53.623 58.3653Z" fill="white"/>
<path d="M55.7591 58.314C58.2812 58.5311 60.8999 57.8742 63.3595 58.6396C60.8147 58.9995 58.2585 58.851 55.708 58.7424L55.7591 58.314Z" fill="white"/>
<path d="M63.8369 58.7023C63.9732 57.9369 65.3593 58.0397 65.8989 58.3653C65.8251 59.1936 64.3709 59.0336 63.8369 58.7023Z" fill="white"/>
<path d="M66.7734 58.2913C68.4719 57.4459 66.7905 60.2049 66.7734 58.2913Z" fill="white"/>
<path d="M100.02 58.6052C103.03 58.0854 106.183 58.291 109.228 58.4567C107.785 59.1878 106.149 58.8394 104.604 58.8679C103.076 58.788 101.508 59.045 100.02 58.6052Z" fill="white"/>
<path d="M109.371 58.5253C110.445 58.2968 111.604 58.0512 112.615 58.6224C111.564 58.8281 110.337 59.2336 109.371 58.5253Z" fill="white"/>
<path d="M113.422 58.434C115.649 58.2627 117.921 58.0856 120.136 58.5197C119.034 59.1651 117.705 58.8396 116.501 58.9252C115.461 58.8738 114.314 59.1137 113.422 58.434Z" fill="white"/>
<path d="M121.158 58.4229C121.516 58.7599 121.516 58.7599 121.158 58.4229Z" fill="white"/>
<path d="M137.647 58.4057C138.016 58.3999 138.755 58.3885 139.124 58.3828C139.357 59.1939 137.403 59.2282 137.647 58.4057Z" fill="white"/>
<path d="M153.866 58.5938C157.468 58.1426 161.137 58.2568 164.75 58.531C166.545 58.4053 168.34 58.194 170.141 58.3653C169.374 59.1193 168.277 58.7252 167.363 58.6509C166 59.3135 164.511 58.6567 163.086 58.7252C160.024 59.0622 156.922 58.8909 153.866 58.5938Z" fill="white"/>
<path d="M171.231 58.7882C171.283 57.9886 172.657 57.9828 173.123 58.4569C173.061 59.2224 171.703 59.171 171.231 58.7882Z" fill="white"/>
<path d="M177.274 58.2739C180.347 58.3368 183.432 58.3196 186.505 58.4681C183.511 59.1536 180.313 58.3253 177.24 58.8394L177.274 58.2739Z" fill="white"/>
<path d="M186.732 58.4511C190.447 58.0913 194.191 58.5996 197.906 58.1655C198.133 58.3026 198.587 58.5654 198.815 58.6967C194.799 58.8738 190.709 59.0452 186.732 58.4511Z" fill="white"/>
<path d="M199.799 58.468C202.554 58.2338 205.377 58.2453 208.109 58.588C205.354 58.5423 202.474 59.3705 199.799 58.468Z" fill="white"/>
<path d="M6.37988 70.138C6.80023 67.5676 5.99361 64.8544 6.82864 62.3811C8.51004 63.0665 8.02721 64.8773 8.06129 66.3224C8.79407 66.3281 9.52684 66.3338 10.2653 66.3395C10.3391 65.14 10.3391 63.9405 10.3278 62.7467C10.7311 62.741 11.5377 62.741 11.941 62.741C11.9467 65.7626 11.8615 68.7786 11.941 71.8002C11.5491 71.7831 10.7538 71.7603 10.3562 71.7431C10.3789 70.4008 10.2312 69.0699 10.1517 67.7333C9.47004 67.779 8.78838 67.819 8.10105 67.8532C8.11241 69.1042 8.1465 70.3494 8.05561 71.5946C7.66934 71.6689 6.88544 71.8059 6.49917 71.8745L6.5787 70.7892C6.87408 70.5722 7.45916 70.138 7.74887 69.921C7.40804 69.9724 6.72071 70.0809 6.37988 70.138Z" fill="white"/>
<path d="M20.0005 62.7583C21.3638 63.0325 24.187 61.8444 23.8803 64.1121C23.0566 64.1292 22.2329 64.1463 21.4149 64.1692C21.4377 64.9003 21.4604 65.6315 21.4831 66.3626C22.25 66.3854 23.0168 66.414 23.7837 66.4483C24.2438 68.3332 22.4261 67.6021 21.4888 67.8249C21.449 68.6417 21.4093 69.4585 21.3581 70.2753C22.4488 70.4981 24.471 69.9669 23.8973 71.7662C22.6135 71.7719 21.3297 71.7833 20.046 71.7776C19.6313 68.8016 20.1312 65.7628 20.0005 62.7583Z" fill="white"/>
<path d="M33.1631 63.0148C33.6062 62.8891 34.4981 62.6435 34.9411 62.5178C35.867 65.0026 36.3101 67.6529 37.111 70.1891C37.2644 70.7603 37.5825 72.3082 36.418 71.7999C35.2308 71.8056 35.5944 70.0006 35.015 69.2409L34.339 69.635C34.1743 69.2237 33.8391 68.4012 33.6744 67.9899C34.0039 67.9385 34.6571 67.83 34.9809 67.7786C34.4924 66.3106 34.3333 64.7684 33.9641 63.2775C34.3731 65.3224 32.4929 67.4359 33.8107 69.258C32.3622 69.3266 32.6121 70.646 32.5553 71.6856C32.0384 71.7313 31.5215 71.7713 30.9989 71.8113C30.8626 70.5946 31.317 69.4922 31.9362 68.4812C31.8453 66.5734 32.3906 64.7284 33.1631 63.0148Z" fill="white"/>
<path d="M44.7432 62.7237C46.2996 62.6609 47.9015 62.7009 49.1739 63.7119C49.2307 63.9975 49.3386 64.563 49.3954 64.8429C49.2875 65.9053 49.4011 67.0877 48.3673 67.7446C48.8558 69.0926 49.4182 70.4121 49.918 71.7601C49.333 71.7373 48.7479 71.7145 48.1685 71.6859C47.6288 70.4235 47.3789 68.9041 46.2144 68.0359C46.1917 69.2469 46.2428 70.4578 46.2996 71.6688C45.9361 71.7316 45.2203 71.8573 44.8625 71.9144C44.5273 70.3207 44.4875 68.6757 44.675 67.0592C44.4591 65.6254 44.4989 64.1574 44.7432 62.7237ZM46.1292 64.0832C46.186 65.0028 46.1974 65.9225 46.2655 66.8421C46.754 67.1848 47.2255 66.5279 47.697 66.408C47.6913 65.6711 47.6856 64.94 47.68 64.2031C47.2937 64.1746 46.5155 64.1175 46.1292 64.0832Z" fill="white"/>
<path d="M56.4463 62.9352C58.1277 62.7296 59.8205 62.6782 61.5132 62.7981C61.553 63.158 61.6439 63.872 61.6893 64.2318C61.2406 64.1975 60.3374 64.1233 59.8886 64.089C59.8943 66.648 59.8716 69.2127 59.9568 71.7717C59.5364 71.7717 58.6957 71.7717 58.2754 71.7717C58.2299 69.3041 58.2867 66.8308 58.264 64.3575C57.8664 64.2947 57.0711 64.169 56.6735 64.1062C56.6167 63.8148 56.5031 63.2265 56.4463 62.9352Z" fill="white"/>
<path d="M95.0225 64.2033C95.9598 62.6039 97.9309 62.3526 99.493 63.1294C99.2885 63.5921 99.0841 64.0548 98.8739 64.5117C98.3058 64.3118 97.7378 64.1062 97.1754 63.9062C95.5395 65.5113 95.8462 67.8532 96.5051 69.8296C97.1243 70.8692 98.3797 70.6122 99.3681 70.4294C99.2374 70.9206 99.1068 71.4118 98.9818 71.9031C97.8344 72.0059 96.3972 72.2915 95.5622 71.2748C94.0001 69.2755 94.2614 66.4709 95.0225 64.2033Z" fill="white"/>
<path d="M106.865 62.8835C107.229 62.8663 107.967 62.8321 108.337 62.8149C108.337 64.003 108.371 65.1969 108.49 66.385C109.2 66.5906 109.955 66.4706 110.683 66.4935C110.785 65.7281 110.836 64.9512 111.182 64.2544C111.012 63.9916 110.665 63.4718 110.489 63.2148C111.035 63.0663 112.279 62.3523 112.341 63.4204C112.426 66.2364 112.279 69.0582 112.284 71.8799C111.62 71.8342 110.245 72.0741 110.683 70.8632C110.677 69.8693 110.722 68.8811 110.773 67.8929C109.95 67.6759 109.137 67.8415 108.371 68.1614C108.382 69.418 108.359 70.6747 108.354 71.937C107.803 71.8457 107.257 71.7543 106.712 71.6629C106.956 68.7326 106.979 65.8138 106.865 62.8835Z" fill="white"/>
<path d="M120.837 62.8836C121.201 62.8664 121.939 62.8321 122.308 62.815C122.308 62.8706 122.313 63.2159 122.325 63.6889C122.345 64.4841 122.387 65.64 122.462 66.385C123.172 66.5907 123.927 66.5388 124.654 66.5616C124.831 66.524 124.831 66.524 125.134 66.524C125.438 66.524 125.438 66.5616 125.742 66.524C125.742 67.14 125.679 66.3798 125.742 67.448C125.659 67.893 125.53 67.893 125.53 67.893H125.005C125.005 67.893 124.831 67.893 124.745 67.893C123.873 67.893 123.109 67.8416 122.342 68.1615C122.354 69.4181 122.331 70.6748 122.325 71.9371C121.774 71.8457 121.229 71.7543 120.684 71.6629C120.928 68.7327 120.951 65.8138 120.837 62.8836Z" fill="white"/>
<path d="M134.802 64.6542C134.433 64.043 133.927 62.4836 135.274 62.7806C136.427 62.8949 137.745 62.7349 138.699 63.5289C139.42 64.9683 139.261 66.7562 138.262 68.0414C138.602 69.4009 139.312 70.6347 139.721 71.977C138.818 71.9199 137.659 71.9256 137.557 70.7489C137.108 69.9321 137.108 68.4584 136.069 68.2128C135.967 69.4523 136.063 70.7032 136.041 71.9484C135.637 71.897 134.831 71.7999 134.427 71.7542C134.66 69.4009 134.03 66.9161 134.802 64.6542ZM135.972 63.9402C136.001 65.0369 136.052 66.1336 136.188 67.2189C136.79 66.9047 137.353 66.522 137.898 66.1165C137.654 65.054 137.216 64.0201 135.972 63.9402Z" fill="white"/>
<path d="M147.06 63.2834C147.583 62.5351 148.827 62.8264 149.27 63.5347C150.19 65.3911 150.906 67.3389 151.65 69.2696C152.621 67.2532 151.167 64.8199 152.03 62.655C152.303 62.7464 152.854 62.9349 153.127 63.0263C153.365 65.4482 153.218 67.8872 153.274 70.3149C153.433 71.1488 152.82 71.7486 152.365 72.3483C150.116 70.9603 149.889 68.0129 148.707 65.8423C148.259 66.0365 147.367 66.4364 146.918 66.6306C146.963 65.5168 146.963 64.3972 147.06 63.2834Z" fill="white"/>
<path d="M161.533 70.5377C160.284 67.7788 160.619 63.4948 164.016 62.5066C165.413 62.7751 166.754 63.6319 167.117 65.0941C167.651 67.3961 167.64 70.412 165.441 71.8515C164.05 71.7886 162.118 72.2456 161.533 70.5377ZM163.743 63.9517C163.368 64.3459 162.999 64.74 162.63 65.1398C162.618 66.2651 162.692 67.4246 162.317 68.5099C162.879 69.2468 163.118 70.572 164.226 70.6405C165.475 70.3606 165.515 68.8298 166.197 67.9616C165.402 67.1448 165.72 65.871 165.424 64.8485C165.288 64.0603 164.294 64.2145 163.743 63.9517Z" fill="white"/>
<path d="M175.054 63.3465C176.167 62.3469 178.314 62.6611 179.507 63.5179C180.075 64.6774 180.064 66.1511 178.973 67.0022C180.479 67.9561 180.348 70.5494 179.104 71.5947C177.843 71.6804 176.571 71.6975 175.31 71.8118C175.179 70.5608 175.207 69.2985 175.139 68.0475C175.122 66.4767 174.912 64.9116 175.054 63.3465ZM176.559 64.0605C176.542 64.8545 176.536 65.6485 176.536 66.4367C177.036 66.4425 177.536 66.4425 178.042 66.4425C178.161 65.8027 178.28 65.1572 178.388 64.5175C177.78 64.3519 177.167 64.2033 176.559 64.0605ZM176.451 67.939C176.48 68.7958 176.514 69.6526 176.559 70.5094C177.144 70.4294 177.724 70.3495 178.309 70.2695C178.314 69.4984 178.314 68.733 178.309 67.9676C177.69 67.8819 177.07 67.8705 176.451 67.939Z" fill="white"/>
<path d="M187.137 62.7922C187.512 62.8265 188.256 62.895 188.625 62.9293C189.045 64.0546 189.471 65.1684 189.897 66.288C190.602 64.8885 190.59 62.4552 192.755 62.7065C192.323 64.0089 191.925 65.3283 191.272 66.5336C190.505 68.1615 190.642 69.9551 190.744 71.6973C190.346 71.7658 189.562 71.8972 189.17 71.9657C189.148 70.0579 189 68.1558 188.693 66.2765C187.784 65.3112 187.466 64.0374 187.137 62.7922Z" fill="white"/>
<path d="M200.139 62.9121C201.895 62.1981 201.412 64.6257 201.531 65.6481C201.775 67.2532 201.082 68.8697 201.531 70.4405C202.321 70.4862 203.116 70.5376 203.911 70.5948C203.871 70.9032 203.798 71.5144 203.763 71.8228C202.537 71.8514 201.31 71.9085 200.088 71.8457C199.708 68.904 200.02 65.8766 200.139 62.9121Z" fill="white"/>
<path d="M73.6291 65.2543C74.2482 64.0548 76.4011 64.0605 76.8896 65.4028C77.5713 66.8137 77.4861 68.3902 77.0373 69.8525C76.7931 70.0353 76.2989 70.4009 76.0546 70.5836C75.3048 70.538 74.555 70.5037 73.8052 70.4751C73.4075 69.5783 73.0781 68.6473 72.8906 67.6819C74.822 67.1222 73.754 70.2866 75.6059 69.6412C75.8104 69.3727 76.2137 68.8472 76.4182 68.5844C76.066 67.4992 76.6056 65.5171 75.0776 65.2715C74.0665 65.7227 74.2369 66.9965 74.0949 67.8761C72.2203 67.899 73.4473 66.1511 73.6291 65.2543Z" fill="white"/>
<path d="M78.7875 64.523C79.702 64.483 80.6223 64.4887 81.5368 64.5687C81.4516 65.7511 80.3269 65.4484 79.5146 65.5283C79.5714 65.8996 79.685 66.6365 79.7418 67.0077C80.4575 67.1848 81.3266 67.1391 81.5482 68.0588C81.0994 68.1045 80.2019 68.1958 79.7532 68.2415C79.7702 69.0355 79.7816 69.8295 79.7872 70.6235L78.7193 70.6577C78.7477 68.6128 78.5432 66.5622 78.7875 64.523Z" fill="white"/>
<path d="M146.935 66.6707C147.315 66.6021 148.076 66.465 148.451 66.3965C148.434 67.4189 148.872 68.607 148.088 69.4581C148.536 70.1664 148.582 70.9947 148.593 71.8115C148.19 71.8172 147.389 71.8343 146.986 71.84C146.969 70.115 147.014 68.3957 146.935 66.6707Z" fill="white"/>
<path d="M120.883 70.8357H123.616H124.831H126.046V71.4517H124.224H122.705H122.098" stroke="white" stroke-width="0.60745"/>
<path d="M120.883 62.8281H123.616H124.831H126.046V63.4441H124.224H122.705H122.098" stroke="white" stroke-width="0.60745"/>
</svg>
