<svg width="35" height="38" viewBox="0 0 35 38" fill="none" xmlns="http://www.w3.org/2000/svg">
<path d="M10.9343 0.528967C12.1735 0.0143466 13.5712 -0.146897 14.8869 0.143465C16.2243 0.427031 17.4467 1.19742 18.2861 2.26805C19.2883 3.51228 19.7491 5.13027 19.7093 6.7112C20.5611 6.5376 21.4141 6.37203 22.2666 6.20091C22.1198 5.15066 21.6566 4.13316 20.9006 3.3776C20.4293 2.88831 19.8442 2.51269 19.21 2.26867C19.0807 2.22357 18.9607 2.15808 18.855 2.07221C18.4067 1.71883 17.9497 1.37781 17.4977 1.02938C18.7897 1.05903 20.078 1.50693 21.0796 2.32365C22.2162 3.23242 22.9518 4.59712 23.1526 6.02731C24.5652 5.74065 25.9791 5.46326 27.393 5.18155C27.4689 5.15437 27.5441 5.18896 27.6075 5.2285C28.746 5.87471 29.8875 6.51413 31.0266 7.15786C31.0763 7.18752 31.1304 7.2042 31.1883 7.20791C31.7578 7.23632 32.3273 7.27154 32.8969 7.29501C33.3091 7.35123 33.7319 7.29872 34.1392 7.38954C34.1255 14.4663 34.1379 21.5431 34.1336 28.6199C34.128 30.7612 34.1454 32.9031 34.1236 35.0437C33.3439 35.305 32.5841 35.6244 31.81 35.9031C30.3607 36.4449 28.9176 37.0046 27.4639 37.5347C18.8351 35.7931 10.2025 34.0713 1.57244 32.3372C1.34363 32.2797 1.09679 32.2748 0.884766 32.1667C0.902175 25.1554 0.887253 18.144 0.892227 11.1327C0.897202 10.9011 0.870465 10.6657 0.927667 10.439C2.6941 10.1146 4.44871 9.72293 6.21639 9.40662C6.20955 9.19534 6.15421 8.98961 6.12996 8.78018C5.93846 7.20111 6.25618 5.57014 7.00789 4.16776C7.85473 2.56459 9.24624 1.22954 10.9343 0.528967ZM10.8348 1.56562C9.3022 2.34033 8.10903 3.71306 7.47919 5.29461C6.97805 6.5271 6.8481 7.9023 7.10924 9.20646C7.97598 9.05263 8.83898 8.87532 9.70075 8.69431C9.66655 5.45894 11.9863 2.40582 15.0541 1.40314C15.4241 1.59713 15.7611 1.84857 16.1329 2.03885C14.4398 2.36751 12.9233 3.40108 11.9136 4.77875C11.1277 5.86112 10.6185 7.17207 10.6129 8.51639C13.3387 7.98076 16.0639 7.43711 18.7884 6.89036C18.8836 5.454 18.4912 3.96327 17.5822 2.82838C16.8784 1.93382 15.8655 1.27773 14.7476 1.03123C13.4344 0.730984 12.0237 0.947829 10.8348 1.56562ZM12.8717 15.6136C12.8637 17.4719 12.8711 19.3296 12.868 21.1879C13.6458 21.2083 14.4249 21.1891 15.204 21.1959C17.0052 21.1898 18.8065 21.2083 20.6077 21.1928C20.6071 18.9787 20.6108 16.7651 20.6059 14.5516C18.0286 14.913 15.4489 15.2559 12.8717 15.6136ZM6.69763 16.5291C6.6995 18.0928 6.68955 19.657 6.70323 21.2206C7.54634 21.1687 8.39256 21.2138 9.23691 21.1953C10.2777 21.2083 11.3204 21.1749 12.36 21.2138C12.3737 21.2003 12.4017 21.1737 12.4154 21.1607C12.4241 19.3364 12.4197 17.5114 12.4172 15.6871C10.5103 15.9669 8.6052 16.2561 6.69763 16.5291ZM6.6995 21.5895C6.69763 23.1519 6.69017 24.7149 6.70323 26.2773C8.6108 26.5231 10.5103 26.8364 12.4191 27.0711C12.4197 25.2437 12.421 23.4163 12.4179 21.5895C10.5115 21.5888 8.60582 21.5888 6.6995 21.5895ZM12.8686 21.5919C12.8755 23.4626 12.8537 25.3339 12.8792 27.2039C15.4577 27.5444 18.028 27.9546 20.6052 28.3055C20.6108 26.066 20.609 23.8265 20.6052 21.5876C18.0262 21.5919 15.4477 21.5845 12.8686 21.5919Z" fill="white"/>
</svg>
