<svg width="34" height="38" viewBox="0 0 34 38" fill="none" xmlns="http://www.w3.org/2000/svg">
<g clip-path="url(#clip0_1459_10274)">
<path d="M17.5371 0.154502C18.4472 -0.0177647 19.4851 0.00883528 20.2699 0.553502C21.5494 1.35024 22.3137 2.72837 22.8685 4.06597L22.9515 4.12424C23.1382 4.79937 23.39 5.45297 23.6188 6.11417C23.8987 6.9831 24.0303 7.8875 24.208 8.7805C25.8045 8.77417 27.4022 8.74757 28.9987 8.79824C30.1158 8.9135 31.2279 9.08197 32.3425 9.2251C32.5994 9.2023 32.593 9.47084 32.6173 9.64944C33.0685 17.5826 33.5248 25.5157 33.9491 33.4501C33.9913 33.7161 33.8737 33.9846 33.6206 34.0974C31.5883 35.288 29.5432 36.4584 27.4968 37.625C27.2936 37.7314 27.0942 37.9126 26.8462 37.853C18.1085 36.675 9.36689 35.5122 0.632974 34.3114C0.45914 34.2798 0.285305 34.2443 0.11147 34.2076C0.0935757 32.7699 0.193275 31.3335 0.296809 29.8996C0.716057 23.0976 1.10846 16.2931 1.55839 9.49364C1.56222 9.34037 1.58012 9.18964 1.61207 9.04144C1.79997 8.78937 2.15019 8.82864 2.42884 8.83117C5.02741 8.85144 7.62598 8.7463 10.2258 8.77164C10.4124 6.83997 10.5045 4.83357 11.38 3.0577C11.7264 2.2065 12.2415 1.39837 12.9944 0.847369C13.907 0.155769 15.2121 0.051902 16.25 0.501569C16.7203 0.661169 17.0885 0.210235 17.5371 0.154502ZM17.6049 1.3401C18.1289 2.01017 18.6632 2.67897 19.0697 3.4263C19.2154 3.70624 19.3087 4.01024 19.5094 4.25724C19.6193 4.51944 19.6219 4.82344 19.8212 5.04764C20.2405 6.2687 20.7109 7.49104 20.909 8.7729C21.5468 8.77037 22.1859 8.7729 22.825 8.77037C22.5425 6.8653 21.9699 4.9995 21.1186 3.26797C20.7122 2.5599 20.197 1.86957 19.4736 1.45284C18.9099 1.12097 18.212 1.15137 17.6049 1.3401ZM14.0157 1.60357C13.1593 2.10517 12.6851 3.02604 12.363 3.9241C11.9118 5.5011 11.6306 7.1313 11.5961 8.77164C12.1981 8.77037 12.8001 8.77417 13.4021 8.7691C13.5926 6.8767 13.7677 4.93237 14.5896 3.1869C14.8427 2.56624 15.2453 2.02537 15.5802 1.44777C15.0587 1.44524 14.4822 1.30084 14.0157 1.60357ZM15.8141 3.60617C15.1469 5.2503 14.8491 7.01604 14.7187 8.7767C16.3382 8.7653 17.9564 8.77544 19.5746 8.77037C19.2026 7.0325 18.6594 5.31364 17.7966 3.75057C17.4604 3.1945 17.1677 2.5675 16.6015 2.20144C16.2155 2.59157 16.0212 3.1109 15.8141 3.60617ZM11.5526 14.4564C11.5488 19.1038 11.5053 23.7512 11.5718 28.3986C12.7515 28.6684 13.8994 29.0624 15.0817 29.3258C15.0843 25.4144 15.0843 21.5029 15.0817 17.5927C15.0178 17.195 15.423 16.7808 15.8282 16.8948C16.2346 17.0189 16.5452 17.4331 16.5235 17.8587C16.4992 19.4661 16.5606 21.076 16.4903 22.6822C17.0693 23.1141 17.8452 23.147 18.5392 23.071C19.5886 22.9317 20.3146 21.9158 20.4041 20.919C20.477 19.7992 20.4731 18.5744 19.7906 17.6193C19.0019 16.5173 17.6662 16.0132 16.4136 15.6243C14.8146 15.1556 13.2053 14.7009 11.5526 14.4564ZM7.50967 23.926C6.2941 24.3339 5.0223 24.6303 3.90516 25.2776C3.5447 25.479 3.29801 25.9742 3.59839 26.3302C4.09433 26.9306 4.9111 27.094 5.632 27.2814C7.33711 27.7716 9.13681 27.6513 10.8815 27.4968C10.8815 26.947 10.8803 26.3973 10.8815 25.8476C9.81809 26.1275 8.78914 26.657 7.66177 26.5873C7.30004 26.5506 6.87185 26.5518 6.6341 26.2288C6.77087 26.111 6.89997 25.9704 7.08019 25.9198C8.34305 25.4929 9.62252 25.118 10.8828 24.681C10.879 24.078 10.8815 23.4738 10.8815 22.8709C9.7414 23.1724 8.64087 23.598 7.50967 23.926ZM15.8192 24.2326C15.7937 24.8672 15.7949 25.503 15.8128 26.1376C16.8852 25.8501 17.9257 25.4612 18.9866 25.137C19.9337 24.8418 21.0087 24.5632 21.9571 25.004C22.044 25.3143 21.6337 25.441 21.4113 25.5385C19.5375 26.1186 17.6726 26.7317 15.8013 27.3194C15.8013 27.916 15.8039 28.5139 15.8 29.1105C18.1417 28.429 20.4514 27.6437 22.7752 26.9027C23.5293 26.6405 24.3652 26.4556 24.9417 25.8653C25.2306 25.5942 25.1667 25.1091 24.8625 24.8773C24.4662 24.5429 23.969 24.3618 23.4794 24.206C21.0061 23.3928 18.304 23.5422 15.8192 24.2326Z" fill="white"/>
</g>
<defs>
<clipPath id="clip0_1459_10274">
<rect width="34" height="38" fill="white"/>
</clipPath>
</defs>
</svg>
